<?xml version="1.0" encoding="utf-8" standalone="no"?>
<!DOCTYPE svg PUBLIC "-//W3C//DTD SVG 1.1//EN"
  "http://www.w3.org/Graphics/SVG/1.1/DTD/svg11.dtd">
<svg xmlns:xlink="http://www.w3.org/1999/xlink" width="720pt" height="288pt" viewBox="0 0 720 288" xmlns="http://www.w3.org/2000/svg" version="1.1">
 <metadata>
  <rdf:RDF xmlns:dc="http://purl.org/dc/elements/1.1/" xmlns:cc="http://creativecommons.org/ns#" xmlns:rdf="http://www.w3.org/1999/02/22-rdf-syntax-ns#">
   <cc:Work>
    <dc:type rdf:resource="http://purl.org/dc/dcmitype/StillImage"/>
    <dc:date>2025-02-21T17:12:16.905619</dc:date>
    <dc:format>image/svg+xml</dc:format>
    <dc:creator>
     <cc:Agent>
      <dc:title>Matplotlib v3.9.4, https://matplotlib.org/</dc:title>
     </cc:Agent>
    </dc:creator>
   </cc:Work>
  </rdf:RDF>
 </metadata>
 <defs>
  <style type="text/css">*{stroke-linejoin: round; stroke-linecap: butt}</style>
 </defs>
 <g id="figure_1">
  <g id="patch_1">
   <path d="M 0 288 
L 720 288 
L 720 0 
L 0 0 
z
" style="fill: #ffffff"/>
  </g>
  <g id="axes_1">
   <g id="patch_2">
    <path d="M 47.72 120.52 
L 354.6 120.52 
L 354.6 26.88 
L 47.72 26.88 
z
" style="fill: #ffffff"/>
   </g>
   <g id="matplotlib.axis_1">
    <g id="xtick_1">
     <g id="line2d_1">
      <defs>
       <path id="m2c89c62d03" d="M 0 0 
L 0 3.5 
" style="stroke: #000000; stroke-width: 0.8"/>
      </defs>
      <g>
       <use xlink:href="#m2c89c62d03" x="61.669091" y="120.52" style="stroke: #000000; stroke-width: 0.8"/>
      </g>
     </g>
    </g>
    <g id="xtick_2">
     <g id="line2d_2">
      <g>
       <use xlink:href="#m2c89c62d03" x="104.597014" y="120.52" style="stroke: #000000; stroke-width: 0.8"/>
      </g>
     </g>
    </g>
    <g id="xtick_3">
     <g id="line2d_3">
      <g>
       <use xlink:href="#m2c89c62d03" x="147.524938" y="120.52" style="stroke: #000000; stroke-width: 0.8"/>
      </g>
     </g>
    </g>
    <g id="xtick_4">
     <g id="line2d_4">
      <g>
       <use xlink:href="#m2c89c62d03" x="190.452862" y="120.52" style="stroke: #000000; stroke-width: 0.8"/>
      </g>
     </g>
    </g>
    <g id="xtick_5">
     <g id="line2d_5">
      <g>
       <use xlink:href="#m2c89c62d03" x="233.380785" y="120.52" style="stroke: #000000; stroke-width: 0.8"/>
      </g>
     </g>
    </g>
    <g id="xtick_6">
     <g id="line2d_6">
      <g>
       <use xlink:href="#m2c89c62d03" x="276.308709" y="120.52" style="stroke: #000000; stroke-width: 0.8"/>
      </g>
     </g>
    </g>
    <g id="xtick_7">
     <g id="line2d_7">
      <g>
       <use xlink:href="#m2c89c62d03" x="319.236632" y="120.52" style="stroke: #000000; stroke-width: 0.8"/>
      </g>
     </g>
    </g>
    <g id="text_1">
     <!-- time -->
     <g transform="translate(189.863906 139.118437) scale(0.1 -0.1)">
      <defs>
       <path id="DejaVuSans-74" d="M 1172 4494 
L 1172 3500 
L 2356 3500 
L 2356 3053 
L 1172 3053 
L 1172 1153 
Q 1172 725 1289 603 
Q 1406 481 1766 481 
L 2356 481 
L 2356 0 
L 1766 0 
Q 1100 0 847 248 
Q 594 497 594 1153 
L 594 3053 
L 172 3053 
L 172 3500 
L 594 3500 
L 594 4494 
L 1172 4494 
z
" transform="scale(0.015625)"/>
       <path id="DejaVuSans-69" d="M 603 3500 
L 1178 3500 
L 1178 0 
L 603 0 
L 603 3500 
z
M 603 4863 
L 1178 4863 
L 1178 4134 
L 603 4134 
L 603 4863 
z
" transform="scale(0.015625)"/>
       <path id="DejaVuSans-6d" d="M 3328 2828 
Q 3544 3216 3844 3400 
Q 4144 3584 4550 3584 
Q 5097 3584 5394 3201 
Q 5691 2819 5691 2113 
L 5691 0 
L 5113 0 
L 5113 2094 
Q 5113 2597 4934 2840 
Q 4756 3084 4391 3084 
Q 3944 3084 3684 2787 
Q 3425 2491 3425 1978 
L 3425 0 
L 2847 0 
L 2847 2094 
Q 2847 2600 2669 2842 
Q 2491 3084 2119 3084 
Q 1678 3084 1418 2786 
Q 1159 2488 1159 1978 
L 1159 0 
L 581 0 
L 581 3500 
L 1159 3500 
L 1159 2956 
Q 1356 3278 1631 3431 
Q 1906 3584 2284 3584 
Q 2666 3584 2933 3390 
Q 3200 3197 3328 2828 
z
" transform="scale(0.015625)"/>
       <path id="DejaVuSans-65" d="M 3597 1894 
L 3597 1613 
L 953 1613 
Q 991 1019 1311 708 
Q 1631 397 2203 397 
Q 2534 397 2845 478 
Q 3156 559 3463 722 
L 3463 178 
Q 3153 47 2828 -22 
Q 2503 -91 2169 -91 
Q 1331 -91 842 396 
Q 353 884 353 1716 
Q 353 2575 817 3079 
Q 1281 3584 2069 3584 
Q 2775 3584 3186 3129 
Q 3597 2675 3597 1894 
z
M 3022 2063 
Q 3016 2534 2758 2815 
Q 2500 3097 2075 3097 
Q 1594 3097 1305 2825 
Q 1016 2553 972 2059 
L 3022 2063 
z
" transform="scale(0.015625)"/>
      </defs>
      <use xlink:href="#DejaVuSans-74"/>
      <use xlink:href="#DejaVuSans-69" x="39.208984"/>
      <use xlink:href="#DejaVuSans-6d" x="66.992188"/>
      <use xlink:href="#DejaVuSans-65" x="164.404297"/>
     </g>
    </g>
   </g>
   <g id="matplotlib.axis_2">
    <g id="ytick_1">
     <g id="line2d_8">
      <defs>
       <path id="me0efa51767" d="M 0 0 
L -3.5 0 
" style="stroke: #000000; stroke-width: 0.8"/>
      </defs>
      <g>
       <use xlink:href="#me0efa51767" x="47.72" y="116.263636" style="stroke: #000000; stroke-width: 0.8"/>
      </g>
     </g>
     <g id="text_2">
      <!-- 0.0 -->
      <g transform="translate(24.816875 120.062855) scale(0.1 -0.1)">
       <defs>
        <path id="DejaVuSans-30" d="M 2034 4250 
Q 1547 4250 1301 3770 
Q 1056 3291 1056 2328 
Q 1056 1369 1301 889 
Q 1547 409 2034 409 
Q 2525 409 2770 889 
Q 3016 1369 3016 2328 
Q 3016 3291 2770 3770 
Q 2525 4250 2034 4250 
z
M 2034 4750 
Q 2819 4750 3233 4129 
Q 3647 3509 3647 2328 
Q 3647 1150 3233 529 
Q 2819 -91 2034 -91 
Q 1250 -91 836 529 
Q 422 1150 422 2328 
Q 422 3509 836 4129 
Q 1250 4750 2034 4750 
z
" transform="scale(0.015625)"/>
        <path id="DejaVuSans-2e" d="M 684 794 
L 1344 794 
L 1344 0 
L 684 0 
L 684 794 
z
" transform="scale(0.015625)"/>
       </defs>
       <use xlink:href="#DejaVuSans-30"/>
       <use xlink:href="#DejaVuSans-2e" x="63.623047"/>
       <use xlink:href="#DejaVuSans-30" x="95.410156"/>
      </g>
     </g>
    </g>
    <g id="ytick_2">
     <g id="line2d_9">
      <g>
       <use xlink:href="#me0efa51767" x="47.72" y="81.346896" style="stroke: #000000; stroke-width: 0.8"/>
      </g>
     </g>
     <g id="text_3">
      <!-- 0.1 -->
      <g transform="translate(24.816875 85.146115) scale(0.1 -0.1)">
       <defs>
        <path id="DejaVuSans-31" d="M 794 531 
L 1825 531 
L 1825 4091 
L 703 3866 
L 703 4441 
L 1819 4666 
L 2450 4666 
L 2450 531 
L 3481 531 
L 3481 0 
L 794 0 
L 794 531 
z
" transform="scale(0.015625)"/>
       </defs>
       <use xlink:href="#DejaVuSans-30"/>
       <use xlink:href="#DejaVuSans-2e" x="63.623047"/>
       <use xlink:href="#DejaVuSans-31" x="95.410156"/>
      </g>
     </g>
    </g>
    <g id="ytick_3">
     <g id="line2d_10">
      <g>
       <use xlink:href="#me0efa51767" x="47.72" y="46.430156" style="stroke: #000000; stroke-width: 0.8"/>
      </g>
     </g>
     <g id="text_4">
      <!-- 0.2 -->
      <g transform="translate(24.816875 50.229375) scale(0.1 -0.1)">
       <defs>
        <path id="DejaVuSans-32" d="M 1228 531 
L 3431 531 
L 3431 0 
L 469 0 
L 469 531 
Q 828 903 1448 1529 
Q 2069 2156 2228 2338 
Q 2531 2678 2651 2914 
Q 2772 3150 2772 3378 
Q 2772 3750 2511 3984 
Q 2250 4219 1831 4219 
Q 1534 4219 1204 4116 
Q 875 4013 500 3803 
L 500 4441 
Q 881 4594 1212 4672 
Q 1544 4750 1819 4750 
Q 2544 4750 2975 4387 
Q 3406 4025 3406 3419 
Q 3406 3131 3298 2873 
Q 3191 2616 2906 2266 
Q 2828 2175 2409 1742 
Q 1991 1309 1228 531 
z
" transform="scale(0.015625)"/>
       </defs>
       <use xlink:href="#DejaVuSans-30"/>
       <use xlink:href="#DejaVuSans-2e" x="63.623047"/>
       <use xlink:href="#DejaVuSans-32" x="95.410156"/>
      </g>
     </g>
    </g>
    <g id="text_5">
     <!-- flow (cms) -->
     <g transform="translate(18.737188 99.7125) rotate(-90) scale(0.1 -0.1)">
      <defs>
       <path id="DejaVuSans-66" d="M 2375 4863 
L 2375 4384 
L 1825 4384 
Q 1516 4384 1395 4259 
Q 1275 4134 1275 3809 
L 1275 3500 
L 2222 3500 
L 2222 3053 
L 1275 3053 
L 1275 0 
L 697 0 
L 697 3053 
L 147 3053 
L 147 3500 
L 697 3500 
L 697 3744 
Q 697 4328 969 4595 
Q 1241 4863 1831 4863 
L 2375 4863 
z
" transform="scale(0.015625)"/>
       <path id="DejaVuSans-6c" d="M 603 4863 
L 1178 4863 
L 1178 0 
L 603 0 
L 603 4863 
z
" transform="scale(0.015625)"/>
       <path id="DejaVuSans-6f" d="M 1959 3097 
Q 1497 3097 1228 2736 
Q 959 2375 959 1747 
Q 959 1119 1226 758 
Q 1494 397 1959 397 
Q 2419 397 2687 759 
Q 2956 1122 2956 1747 
Q 2956 2369 2687 2733 
Q 2419 3097 1959 3097 
z
M 1959 3584 
Q 2709 3584 3137 3096 
Q 3566 2609 3566 1747 
Q 3566 888 3137 398 
Q 2709 -91 1959 -91 
Q 1206 -91 779 398 
Q 353 888 353 1747 
Q 353 2609 779 3096 
Q 1206 3584 1959 3584 
z
" transform="scale(0.015625)"/>
       <path id="DejaVuSans-77" d="M 269 3500 
L 844 3500 
L 1563 769 
L 2278 3500 
L 2956 3500 
L 3675 769 
L 4391 3500 
L 4966 3500 
L 4050 0 
L 3372 0 
L 2619 2869 
L 1863 0 
L 1184 0 
L 269 3500 
z
" transform="scale(0.015625)"/>
       <path id="DejaVuSans-20" transform="scale(0.015625)"/>
       <path id="DejaVuSans-28" d="M 1984 4856 
Q 1566 4138 1362 3434 
Q 1159 2731 1159 2009 
Q 1159 1288 1364 580 
Q 1569 -128 1984 -844 
L 1484 -844 
Q 1016 -109 783 600 
Q 550 1309 550 2009 
Q 550 2706 781 3412 
Q 1013 4119 1484 4856 
L 1984 4856 
z
" transform="scale(0.015625)"/>
       <path id="DejaVuSans-63" d="M 3122 3366 
L 3122 2828 
Q 2878 2963 2633 3030 
Q 2388 3097 2138 3097 
Q 1578 3097 1268 2742 
Q 959 2388 959 1747 
Q 959 1106 1268 751 
Q 1578 397 2138 397 
Q 2388 397 2633 464 
Q 2878 531 3122 666 
L 3122 134 
Q 2881 22 2623 -34 
Q 2366 -91 2075 -91 
Q 1284 -91 818 406 
Q 353 903 353 1747 
Q 353 2603 823 3093 
Q 1294 3584 2113 3584 
Q 2378 3584 2631 3529 
Q 2884 3475 3122 3366 
z
" transform="scale(0.015625)"/>
       <path id="DejaVuSans-73" d="M 2834 3397 
L 2834 2853 
Q 2591 2978 2328 3040 
Q 2066 3103 1784 3103 
Q 1356 3103 1142 2972 
Q 928 2841 928 2578 
Q 928 2378 1081 2264 
Q 1234 2150 1697 2047 
L 1894 2003 
Q 2506 1872 2764 1633 
Q 3022 1394 3022 966 
Q 3022 478 2636 193 
Q 2250 -91 1575 -91 
Q 1294 -91 989 -36 
Q 684 19 347 128 
L 347 722 
Q 666 556 975 473 
Q 1284 391 1588 391 
Q 1994 391 2212 530 
Q 2431 669 2431 922 
Q 2431 1156 2273 1281 
Q 2116 1406 1581 1522 
L 1381 1569 
Q 847 1681 609 1914 
Q 372 2147 372 2553 
Q 372 3047 722 3315 
Q 1072 3584 1716 3584 
Q 2034 3584 2315 3537 
Q 2597 3491 2834 3397 
z
" transform="scale(0.015625)"/>
       <path id="DejaVuSans-29" d="M 513 4856 
L 1013 4856 
Q 1481 4119 1714 3412 
Q 1947 2706 1947 2009 
Q 1947 1309 1714 600 
Q 1481 -109 1013 -844 
L 513 -844 
Q 928 -128 1133 580 
Q 1338 1288 1338 2009 
Q 1338 2731 1133 3434 
Q 928 4138 513 4856 
z
" transform="scale(0.015625)"/>
      </defs>
      <use xlink:href="#DejaVuSans-66"/>
      <use xlink:href="#DejaVuSans-6c" x="35.205078"/>
      <use xlink:href="#DejaVuSans-6f" x="62.988281"/>
      <use xlink:href="#DejaVuSans-77" x="124.169922"/>
      <use xlink:href="#DejaVuSans-20" x="205.957031"/>
      <use xlink:href="#DejaVuSans-28" x="237.744141"/>
      <use xlink:href="#DejaVuSans-63" x="276.757812"/>
      <use xlink:href="#DejaVuSans-6d" x="331.738281"/>
      <use xlink:href="#DejaVuSans-73" x="429.150391"/>
      <use xlink:href="#DejaVuSans-29" x="481.25"/>
     </g>
    </g>
   </g>
   <g id="line2d_11">
    <path d="M 61.669091 116.263636 
L 66.201365 116.179836 
L 66.559098 115.895367 
L 67.095697 115.065578 
L 67.71378 113.396611 
L 68.891317 108.544682 
L 69.351401 105.501633 
L 70.271569 96.525365 
L 70.773388 91.097489 
L 71.621016 82.350314 
L 72.410015 75.146054 
L 72.54814 74.049338 
L 73.347076 64.237326 
L 73.85287 57.210738 
L 73.977083 58.189417 
L 74.038693 57.784886 
L 74.161912 56.993412 
L 74.222527 60.271678 
L 74.284137 60.009311 
L 74.467972 58.403996 
L 74.528588 62.007073 
L 74.590197 61.599482 
L 74.773038 59.767087 
L 74.833654 63.503735 
L 74.89427 63.019311 
L 75.076117 61.083739 
L 75.136733 64.237699 
L 75.207286 63.690234 
L 75.337461 62.290273 
L 75.467636 64.433451 
L 75.676313 62.227931 
L 75.745873 63.923737 
L 75.814438 63.281655 
L 75.952563 61.915673 
L 76.021128 62.367961 
L 76.629274 56.926951 
L 77.567328 50.279 
L 78.032381 47.484209 
L 78.098959 47.426485 
L 78.627608 44.668166 
L 78.693192 44.804783 
L 79.219854 42.379003 
L 79.285439 42.670432 
L 79.80912 40.530729 
L 79.874704 40.716405 
L 79.939295 40.65669 
L 80.135054 39.54035 
L 80.200638 39.99121 
L 80.265229 39.713194 
L 80.460988 38.82271 
L 80.526573 39.20274 
L 80.721338 38.118587 
L 80.785929 38.656812 
L 80.851513 38.379185 
L 81.046279 37.30991 
L 81.110869 37.933788 
L 81.17546 37.606838 
L 81.304641 36.899988 
L 81.370225 37.247933 
L 81.434816 37.228081 
L 81.628588 36.174764 
L 81.693179 36.815671 
L 81.757769 36.532068 
L 81.951541 35.735249 
L 82.016132 36.2603 
L 82.080722 35.913713 
L 82.209904 35.225598 
L 82.274494 35.918862 
L 82.339085 35.634945 
L 82.531863 34.611097 
L 82.596454 35.344449 
L 82.661044 35.043835 
L 82.790226 34.365453 
L 82.918413 34.863999 
L 83.111191 33.846879 
L 83.175782 34.604292 
L 83.240373 34.321752 
L 83.433151 33.380468 
L 83.496748 34.146588 
L 83.561338 33.87989 
L 83.689526 33.309749 
L 83.817713 33.721371 
L 84.010492 32.935192 
L 84.074088 33.517899 
L 84.138679 33.350126 
L 84.331457 32.631332 
L 84.395054 33.227308 
L 84.459645 33.000237 
L 84.587832 32.551661 
L 84.651429 33.086047 
L 84.71602 32.93353 
L 84.907804 32.297306 
L 84.971401 32.802103 
L 85.035992 32.642012 
L 85.227776 32.042844 
L 85.291373 32.594095 
L 85.355964 32.401858 
L 85.484151 32.019052 
L 85.547748 32.50347 
L 85.611345 32.373238 
L 85.804124 31.818732 
L 85.86772 32.282055 
L 85.931317 32.141744 
L 86.123102 31.761119 
L 86.187692 32.12437 
L 86.251289 31.948782 
L 86.379477 31.602448 
L 86.443074 32.055875 
L 86.506671 31.938123 
L 86.698455 31.4291 
L 86.762052 31.868327 
L 86.826643 31.743213 
L 87.018427 31.422791 
L 87.082024 31.739492 
L 87.145621 31.603205 
L 87.273809 31.346423 
L 87.337406 31.684031 
L 87.401003 31.600302 
L 87.592787 31.271486 
L 87.656384 31.550107 
L 87.720975 31.474191 
L 87.911765 31.27952 
L 87.976356 31.468641 
L 88.039953 31.386275 
L 88.167147 31.231389 
L 88.231737 31.4359 
L 88.295334 31.38561 
L 88.486125 31.188706 
L 88.550716 31.357187 
L 88.614313 31.312163 
L 88.806097 31.197646 
L 88.869694 31.31054 
L 88.933291 31.262498 
L 89.061478 31.172873 
L 89.188672 31.263486 
L 89.380457 31.152713 
L 89.507651 31.223176 
L 89.763032 31.22168 
L 90.210198 31.16243 
L 90.529176 31.179107 
L 91.422514 31.342661 
L 91.487105 31.405192 
L 91.550702 31.223054 
L 91.614299 31.292596 
L 91.742486 31.44277 
L 91.806083 31.227557 
L 91.86968 31.282075 
L 92.061465 31.552885 
L 92.125062 31.299073 
L 92.189652 31.362945 
L 92.380443 31.679509 
L 92.445034 31.362092 
L 92.50863 31.476162 
L 92.636818 31.714217 
L 92.700415 31.378452 
L 92.764012 31.462883 
L 92.955796 31.859959 
L 93.020387 31.49451 
L 93.083984 31.585002 
L 93.275768 32.022174 
L 93.339365 31.589585 
L 93.403956 31.743058 
L 93.532143 32.05938 
L 93.59574 31.618432 
L 93.659337 31.729993 
L 93.852115 32.242564 
L 93.915712 31.777406 
L 93.979309 31.9159 
L 94.172087 32.469149 
L 94.235684 31.90672 
L 94.300275 32.099871 
L 94.427469 32.496481 
L 94.49206 31.949798 
L 94.555656 32.090073 
L 94.748435 32.728201 
L 94.812032 32.156777 
L 94.876622 32.328808 
L 95.0694 32.806831 
L 95.132997 32.321632 
L 95.197588 32.561315 
L 95.325775 33.044247 
L 95.389372 32.390077 
L 95.453963 32.595266 
L 95.646741 33.362857 
L 95.710338 32.661682 
L 95.774929 32.861367 
L 95.967707 33.437636 
L 96.032298 32.897611 
L 96.095894 33.190519 
L 96.225076 33.765572 
L 96.288673 32.994539 
L 96.353263 33.211218 
L 96.546041 34.12303 
L 96.610632 33.309106 
L 96.675223 33.586555 
L 96.804404 34.22914 
L 96.932591 33.657081 
L 97.126363 34.677566 
L 97.190954 33.815379 
L 97.255545 34.04974 
L 97.449316 35.126071 
L 97.513907 34.149661 
L 97.578498 34.523281 
L 97.707679 35.281452 
L 97.77227 34.31713 
L 97.83686 34.644076 
L 98.030632 35.844834 
L 98.096216 34.822833 
L 98.160807 35.14188 
L 98.289988 35.99032 
L 98.420163 35.285206 
L 98.614929 36.641297 
L 98.679519 35.532238 
L 98.745104 35.935136 
L 98.939869 37.362029 
L 99.005454 36.140465 
L 99.070044 36.639852 
L 99.200219 37.649925 
L 99.265804 36.441062 
L 99.331388 36.885274 
L 99.527147 38.494709 
L 99.592732 37.212355 
L 99.658316 37.714998 
L 99.788491 38.858831 
L 99.920653 38.022491 
L 100.117406 39.859223 
L 100.18299 38.503014 
L 100.249569 39.008523 
L 100.380737 40.316505 
L 100.5129 39.471569 
L 100.71164 41.580465 
L 100.778218 40.05636 
L 100.844796 40.645114 
L 100.976958 42.15873 
L 101.04453 41.18502 
L 101.111108 41.206903 
L 101.310842 43.669726 
L 101.378414 41.892255 
L 101.444992 42.685347 
L 101.580135 44.469133 
L 101.647707 42.521626 
L 101.715279 43.341656 
L 101.918988 46.288143 
L 101.987553 44.807688 
L 102.195237 48.034009 
L 102.255853 46.858746 
L 102.507259 50.853093 
L 102.567875 49.250406 
L 102.629485 50.127422 
L 102.81332 53.361842 
L 102.874929 51.044987 
L 102.936539 52.127807 
L 103.122361 54.628616 
L 103.184964 52.280516 
L 103.246574 53.729901 
L 103.49798 61.087149 
L 103.824908 74.529374 
L 104.165748 81.80587 
L 104.587077 86.612563 
L 105.299562 90.365335 
L 105.792438 91.887124 
L 106.228673 92.842099 
L 106.986868 94.25635 
L 107.370437 94.851215 
L 108.407861 96.425516 
L 109.667875 98.15798 
L 110.072312 98.661149 
L 111.166378 100.039167 
L 111.582739 100.514927 
L 112.851696 101.956109 
L 114.153446 103.325837 
L 114.966294 104.128698 
L 116.249163 105.326848 
L 116.865259 105.861233 
L 119.481676 107.988693 
L 120.277631 108.565609 
L 121.778121 109.595996 
L 123.263705 110.52934 
L 124.810899 111.419233 
L 126.348156 112.220377 
L 127.163985 112.6079 
L 128.77577 113.319653 
L 129.614454 113.657279 
L 132.586617 114.6736 
L 135.134469 115.322169 
L 136.745259 115.634524 
L 139.068535 115.923604 
L 142.019829 116.048817 
L 151.410313 116.133551 
L 192.102407 116.223966 
L 340.650909 116.259108 
L 340.650909 116.259108 
" clip-path="url(#pe0c6cddec9)" style="fill: none; stroke: #1f77b4; stroke-width: 1.5; stroke-linecap: square"/>
   </g>
   <g id="patch_3">
    <path d="M 47.72 120.52 
L 47.72 26.88 
" style="fill: none; stroke: #000000; stroke-width: 0.8; stroke-linejoin: miter; stroke-linecap: square"/>
   </g>
   <g id="patch_4">
    <path d="M 354.6 120.52 
L 354.6 26.88 
" style="fill: none; stroke: #000000; stroke-width: 0.8; stroke-linejoin: miter; stroke-linecap: square"/>
   </g>
   <g id="patch_5">
    <path d="M 47.72 120.52 
L 354.6 120.52 
" style="fill: none; stroke: #000000; stroke-width: 0.8; stroke-linejoin: miter; stroke-linecap: square"/>
   </g>
   <g id="patch_6">
    <path d="M 47.72 26.88 
L 354.6 26.88 
" style="fill: none; stroke: #000000; stroke-width: 0.8; stroke-linejoin: miter; stroke-linecap: square"/>
   </g>
   <g id="text_6">
    <!-- 1 -->
    <g transform="translate(195.6628 50.3762) scale(0.1728 -0.1728)">
     <use xlink:href="#DejaVuSans-31"/>
    </g>
   </g>
   <g id="text_7">
    <!-- flows -->
    <g transform="translate(185.677188 20.88) scale(0.12 -0.12)">
     <use xlink:href="#DejaVuSans-66"/>
     <use xlink:href="#DejaVuSans-6c" x="35.205078"/>
     <use xlink:href="#DejaVuSans-6f" x="62.988281"/>
     <use xlink:href="#DejaVuSans-77" x="124.169922"/>
     <use xlink:href="#DejaVuSans-73" x="205.957031"/>
    </g>
   </g>
  </g>
  <g id="axes_2">
   <g id="patch_7">
    <path d="M 402.32 120.52 
L 709.2 120.52 
L 709.2 26.88 
L 402.32 26.88 
z
" style="fill: #ffffff"/>
   </g>
   <g id="matplotlib.axis_3">
    <g id="xtick_8">
     <g id="line2d_12">
      <g>
       <use xlink:href="#m2c89c62d03" x="416.269091" y="120.52" style="stroke: #000000; stroke-width: 0.8"/>
      </g>
     </g>
    </g>
    <g id="xtick_9">
     <g id="line2d_13">
      <g>
       <use xlink:href="#m2c89c62d03" x="459.197014" y="120.52" style="stroke: #000000; stroke-width: 0.8"/>
      </g>
     </g>
    </g>
    <g id="xtick_10">
     <g id="line2d_14">
      <g>
       <use xlink:href="#m2c89c62d03" x="502.124938" y="120.52" style="stroke: #000000; stroke-width: 0.8"/>
      </g>
     </g>
    </g>
    <g id="xtick_11">
     <g id="line2d_15">
      <g>
       <use xlink:href="#m2c89c62d03" x="545.052862" y="120.52" style="stroke: #000000; stroke-width: 0.8"/>
      </g>
     </g>
    </g>
    <g id="xtick_12">
     <g id="line2d_16">
      <g>
       <use xlink:href="#m2c89c62d03" x="587.980785" y="120.52" style="stroke: #000000; stroke-width: 0.8"/>
      </g>
     </g>
    </g>
    <g id="xtick_13">
     <g id="line2d_17">
      <g>
       <use xlink:href="#m2c89c62d03" x="630.908709" y="120.52" style="stroke: #000000; stroke-width: 0.8"/>
      </g>
     </g>
    </g>
    <g id="xtick_14">
     <g id="line2d_18">
      <g>
       <use xlink:href="#m2c89c62d03" x="673.836632" y="120.52" style="stroke: #000000; stroke-width: 0.8"/>
      </g>
     </g>
    </g>
    <g id="text_8">
     <!-- time -->
     <g transform="translate(544.463906 139.118437) scale(0.1 -0.1)">
      <use xlink:href="#DejaVuSans-74"/>
      <use xlink:href="#DejaVuSans-69" x="39.208984"/>
      <use xlink:href="#DejaVuSans-6d" x="66.992188"/>
      <use xlink:href="#DejaVuSans-65" x="164.404297"/>
     </g>
    </g>
   </g>
   <g id="matplotlib.axis_4">
    <g id="ytick_4">
     <g id="line2d_19">
      <g>
       <use xlink:href="#me0efa51767" x="402.32" y="116.263636" style="stroke: #000000; stroke-width: 0.8"/>
      </g>
     </g>
     <g id="text_9">
      <!-- 0.0 -->
      <g transform="translate(379.416875 120.062855) scale(0.1 -0.1)">
       <use xlink:href="#DejaVuSans-30"/>
       <use xlink:href="#DejaVuSans-2e" x="63.623047"/>
       <use xlink:href="#DejaVuSans-30" x="95.410156"/>
      </g>
     </g>
    </g>
    <g id="ytick_5">
     <g id="line2d_20">
      <g>
       <use xlink:href="#me0efa51767" x="402.32" y="84.261084" style="stroke: #000000; stroke-width: 0.8"/>
      </g>
     </g>
     <g id="text_10">
      <!-- 0.5 -->
      <g transform="translate(379.416875 88.060303) scale(0.1 -0.1)">
       <defs>
        <path id="DejaVuSans-35" d="M 691 4666 
L 3169 4666 
L 3169 4134 
L 1269 4134 
L 1269 2991 
Q 1406 3038 1543 3061 
Q 1681 3084 1819 3084 
Q 2600 3084 3056 2656 
Q 3513 2228 3513 1497 
Q 3513 744 3044 326 
Q 2575 -91 1722 -91 
Q 1428 -91 1123 -41 
Q 819 9 494 109 
L 494 744 
Q 775 591 1075 516 
Q 1375 441 1709 441 
Q 2250 441 2565 725 
Q 2881 1009 2881 1497 
Q 2881 1984 2565 2268 
Q 2250 2553 1709 2553 
Q 1456 2553 1204 2497 
Q 953 2441 691 2322 
L 691 4666 
z
" transform="scale(0.015625)"/>
       </defs>
       <use xlink:href="#DejaVuSans-30"/>
       <use xlink:href="#DejaVuSans-2e" x="63.623047"/>
       <use xlink:href="#DejaVuSans-35" x="95.410156"/>
      </g>
     </g>
    </g>
    <g id="ytick_6">
     <g id="line2d_21">
      <g>
       <use xlink:href="#me0efa51767" x="402.32" y="52.258531" style="stroke: #000000; stroke-width: 0.8"/>
      </g>
     </g>
     <g id="text_11">
      <!-- 1.0 -->
      <g transform="translate(379.416875 56.05775) scale(0.1 -0.1)">
       <use xlink:href="#DejaVuSans-31"/>
       <use xlink:href="#DejaVuSans-2e" x="63.623047"/>
       <use xlink:href="#DejaVuSans-30" x="95.410156"/>
      </g>
     </g>
    </g>
    <g id="text_12">
     <!-- depth (m) -->
     <g transform="translate(373.337188 98.614844) rotate(-90) scale(0.1 -0.1)">
      <defs>
       <path id="DejaVuSans-64" d="M 2906 2969 
L 2906 4863 
L 3481 4863 
L 3481 0 
L 2906 0 
L 2906 525 
Q 2725 213 2448 61 
Q 2172 -91 1784 -91 
Q 1150 -91 751 415 
Q 353 922 353 1747 
Q 353 2572 751 3078 
Q 1150 3584 1784 3584 
Q 2172 3584 2448 3432 
Q 2725 3281 2906 2969 
z
M 947 1747 
Q 947 1113 1208 752 
Q 1469 391 1925 391 
Q 2381 391 2643 752 
Q 2906 1113 2906 1747 
Q 2906 2381 2643 2742 
Q 2381 3103 1925 3103 
Q 1469 3103 1208 2742 
Q 947 2381 947 1747 
z
" transform="scale(0.015625)"/>
       <path id="DejaVuSans-70" d="M 1159 525 
L 1159 -1331 
L 581 -1331 
L 581 3500 
L 1159 3500 
L 1159 2969 
Q 1341 3281 1617 3432 
Q 1894 3584 2278 3584 
Q 2916 3584 3314 3078 
Q 3713 2572 3713 1747 
Q 3713 922 3314 415 
Q 2916 -91 2278 -91 
Q 1894 -91 1617 61 
Q 1341 213 1159 525 
z
M 3116 1747 
Q 3116 2381 2855 2742 
Q 2594 3103 2138 3103 
Q 1681 3103 1420 2742 
Q 1159 2381 1159 1747 
Q 1159 1113 1420 752 
Q 1681 391 2138 391 
Q 2594 391 2855 752 
Q 3116 1113 3116 1747 
z
" transform="scale(0.015625)"/>
       <path id="DejaVuSans-68" d="M 3513 2113 
L 3513 0 
L 2938 0 
L 2938 2094 
Q 2938 2591 2744 2837 
Q 2550 3084 2163 3084 
Q 1697 3084 1428 2787 
Q 1159 2491 1159 1978 
L 1159 0 
L 581 0 
L 581 4863 
L 1159 4863 
L 1159 2956 
Q 1366 3272 1645 3428 
Q 1925 3584 2291 3584 
Q 2894 3584 3203 3211 
Q 3513 2838 3513 2113 
z
" transform="scale(0.015625)"/>
      </defs>
      <use xlink:href="#DejaVuSans-64"/>
      <use xlink:href="#DejaVuSans-65" x="63.476562"/>
      <use xlink:href="#DejaVuSans-70" x="125"/>
      <use xlink:href="#DejaVuSans-74" x="188.476562"/>
      <use xlink:href="#DejaVuSans-68" x="227.685547"/>
      <use xlink:href="#DejaVuSans-20" x="291.064453"/>
      <use xlink:href="#DejaVuSans-28" x="322.851562"/>
      <use xlink:href="#DejaVuSans-6d" x="361.865234"/>
      <use xlink:href="#DejaVuSans-29" x="459.277344"/>
     </g>
    </g>
   </g>
   <g id="line2d_22">
    <path d="M 416.269091 116.263636 
L 420.890799 116.160215 
L 421.695697 115.809717 
L 422.844417 114.993275 
L 424.023941 113.9333 
L 426.869903 110.486204 
L 427.554564 109.754197 
L 428.822527 107.961542 
L 429.373038 106.283619 
L 430.00702 103.40562 
L 435.646279 72.595131 
L 437.325635 61.561983 
L 438.995054 50.555362 
L 440.46772 42.866229 
L 441.873809 36.399459 
L 442.576356 34.266432 
L 443.277909 32.811557 
L 443.980457 31.861483 
L 444.68201 31.291564 
L 445.129176 31.13838 
L 445.448155 31.289929 
L 445.831723 31.754323 
L 446.342486 32.788334 
L 446.980443 34.64728 
L 447.812171 37.843558 
L 448.835684 42.753393 
L 449.989372 49.417134 
L 451.532591 59.777799 
L 453.605454 75.39291 
L 457.2901 103.88208 
L 458.292746 109.880124 
L 458.696189 110.918497 
L 459.187077 111.549005 
L 459.777336 111.93305 
L 460.76607 112.267331 
L 463.073446 112.744513 
L 468.387764 113.620603 
L 476.100878 114.638405 
L 484.744098 115.51825 
L 491.879871 116.027473 
L 496.35153 116.138908 
L 515.847962 116.193873 
L 624.867001 116.247648 
L 695.250909 116.254287 
L 695.250909 116.254287 
" clip-path="url(#pae8e65843e)" style="fill: none; stroke: #1f77b4; stroke-width: 1.5; stroke-linecap: square"/>
   </g>
   <g id="patch_8">
    <path d="M 402.32 120.52 
L 402.32 26.88 
" style="fill: none; stroke: #000000; stroke-width: 0.8; stroke-linejoin: miter; stroke-linecap: square"/>
   </g>
   <g id="patch_9">
    <path d="M 709.2 120.52 
L 709.2 26.88 
" style="fill: none; stroke: #000000; stroke-width: 0.8; stroke-linejoin: miter; stroke-linecap: square"/>
   </g>
   <g id="patch_10">
    <path d="M 402.32 120.52 
L 709.2 120.52 
" style="fill: none; stroke: #000000; stroke-width: 0.8; stroke-linejoin: miter; stroke-linecap: square"/>
   </g>
   <g id="patch_11">
    <path d="M 402.32 26.88 
L 709.2 26.88 
" style="fill: none; stroke: #000000; stroke-width: 0.8; stroke-linejoin: miter; stroke-linecap: square"/>
   </g>
   <g id="text_13">
    <!-- ('P1', 'depthN') -->
    <g transform="translate(491.7079 50.3762) scale(0.1728 -0.1728)">
     <defs>
      <path id="DejaVuSans-27" d="M 1147 4666 
L 1147 2931 
L 616 2931 
L 616 4666 
L 1147 4666 
z
" transform="scale(0.015625)"/>
      <path id="DejaVuSans-50" d="M 1259 4147 
L 1259 2394 
L 2053 2394 
Q 2494 2394 2734 2622 
Q 2975 2850 2975 3272 
Q 2975 3691 2734 3919 
Q 2494 4147 2053 4147 
L 1259 4147 
z
M 628 4666 
L 2053 4666 
Q 2838 4666 3239 4311 
Q 3641 3956 3641 3272 
Q 3641 2581 3239 2228 
Q 2838 1875 2053 1875 
L 1259 1875 
L 1259 0 
L 628 0 
L 628 4666 
z
" transform="scale(0.015625)"/>
      <path id="DejaVuSans-2c" d="M 750 794 
L 1409 794 
L 1409 256 
L 897 -744 
L 494 -744 
L 750 256 
L 750 794 
z
" transform="scale(0.015625)"/>
      <path id="DejaVuSans-4e" d="M 628 4666 
L 1478 4666 
L 3547 763 
L 3547 4666 
L 4159 4666 
L 4159 0 
L 3309 0 
L 1241 3903 
L 1241 0 
L 628 0 
L 628 4666 
z
" transform="scale(0.015625)"/>
     </defs>
     <use xlink:href="#DejaVuSans-28"/>
     <use xlink:href="#DejaVuSans-27" x="39.013672"/>
     <use xlink:href="#DejaVuSans-50" x="66.503906"/>
     <use xlink:href="#DejaVuSans-31" x="126.806641"/>
     <use xlink:href="#DejaVuSans-27" x="190.429688"/>
     <use xlink:href="#DejaVuSans-2c" x="217.919922"/>
     <use xlink:href="#DejaVuSans-20" x="249.707031"/>
     <use xlink:href="#DejaVuSans-27" x="281.494141"/>
     <use xlink:href="#DejaVuSans-64" x="308.984375"/>
     <use xlink:href="#DejaVuSans-65" x="372.460938"/>
     <use xlink:href="#DejaVuSans-70" x="433.984375"/>
     <use xlink:href="#DejaVuSans-74" x="497.460938"/>
     <use xlink:href="#DejaVuSans-68" x="536.669922"/>
     <use xlink:href="#DejaVuSans-4e" x="600.048828"/>
     <use xlink:href="#DejaVuSans-27" x="674.853516"/>
     <use xlink:href="#DejaVuSans-29" x="702.34375"/>
    </g>
   </g>
   <g id="text_14">
    <!-- depths -->
    <g transform="translate(535.169688 20.88) scale(0.12 -0.12)">
     <use xlink:href="#DejaVuSans-64"/>
     <use xlink:href="#DejaVuSans-65" x="63.476562"/>
     <use xlink:href="#DejaVuSans-70" x="125"/>
     <use xlink:href="#DejaVuSans-74" x="188.476562"/>
     <use xlink:href="#DejaVuSans-68" x="227.685547"/>
     <use xlink:href="#DejaVuSans-73" x="291.064453"/>
    </g>
   </g>
  </g>
  <g id="axes_3">
   <g id="patch_12">
    <path d="M 47.72 246.04 
L 354.6 246.04 
L 354.6 152.4 
L 47.72 152.4 
z
" style="fill: #ffffff"/>
   </g>
   <g id="matplotlib.axis_5">
    <g id="xtick_15">
     <g id="line2d_23">
      <g>
       <use xlink:href="#m2c89c62d03" x="61.669091" y="246.04" style="stroke: #000000; stroke-width: 0.8"/>
      </g>
     </g>
     <g id="text_15">
      <!-- 02-25 00 -->
      <g transform="translate(39.188622 260.638437) scale(0.1 -0.1)">
       <defs>
        <path id="DejaVuSans-2d" d="M 313 2009 
L 1997 2009 
L 1997 1497 
L 313 1497 
L 313 2009 
z
" transform="scale(0.015625)"/>
       </defs>
       <use xlink:href="#DejaVuSans-30"/>
       <use xlink:href="#DejaVuSans-32" x="63.623047"/>
       <use xlink:href="#DejaVuSans-2d" x="127.246094"/>
       <use xlink:href="#DejaVuSans-32" x="163.330078"/>
       <use xlink:href="#DejaVuSans-35" x="226.953125"/>
       <use xlink:href="#DejaVuSans-20" x="290.576172"/>
       <use xlink:href="#DejaVuSans-30" x="322.363281"/>
       <use xlink:href="#DejaVuSans-30" x="385.986328"/>
      </g>
     </g>
    </g>
    <g id="xtick_16">
     <g id="line2d_24">
      <g>
       <use xlink:href="#m2c89c62d03" x="104.597014" y="246.04" style="stroke: #000000; stroke-width: 0.8"/>
      </g>
     </g>
     <g id="text_16">
      <!-- 02-25 12 -->
      <g transform="translate(82.116546 260.638437) scale(0.1 -0.1)">
       <use xlink:href="#DejaVuSans-30"/>
       <use xlink:href="#DejaVuSans-32" x="63.623047"/>
       <use xlink:href="#DejaVuSans-2d" x="127.246094"/>
       <use xlink:href="#DejaVuSans-32" x="163.330078"/>
       <use xlink:href="#DejaVuSans-35" x="226.953125"/>
       <use xlink:href="#DejaVuSans-20" x="290.576172"/>
       <use xlink:href="#DejaVuSans-31" x="322.363281"/>
       <use xlink:href="#DejaVuSans-32" x="385.986328"/>
      </g>
     </g>
    </g>
    <g id="xtick_17">
     <g id="line2d_25">
      <g>
       <use xlink:href="#m2c89c62d03" x="147.524938" y="246.04" style="stroke: #000000; stroke-width: 0.8"/>
      </g>
     </g>
     <g id="text_17">
      <!-- 02-26 00 -->
      <g transform="translate(125.044469 260.638437) scale(0.1 -0.1)">
       <defs>
        <path id="DejaVuSans-36" d="M 2113 2584 
Q 1688 2584 1439 2293 
Q 1191 2003 1191 1497 
Q 1191 994 1439 701 
Q 1688 409 2113 409 
Q 2538 409 2786 701 
Q 3034 994 3034 1497 
Q 3034 2003 2786 2293 
Q 2538 2584 2113 2584 
z
M 3366 4563 
L 3366 3988 
Q 3128 4100 2886 4159 
Q 2644 4219 2406 4219 
Q 1781 4219 1451 3797 
Q 1122 3375 1075 2522 
Q 1259 2794 1537 2939 
Q 1816 3084 2150 3084 
Q 2853 3084 3261 2657 
Q 3669 2231 3669 1497 
Q 3669 778 3244 343 
Q 2819 -91 2113 -91 
Q 1303 -91 875 529 
Q 447 1150 447 2328 
Q 447 3434 972 4092 
Q 1497 4750 2381 4750 
Q 2619 4750 2861 4703 
Q 3103 4656 3366 4563 
z
" transform="scale(0.015625)"/>
       </defs>
       <use xlink:href="#DejaVuSans-30"/>
       <use xlink:href="#DejaVuSans-32" x="63.623047"/>
       <use xlink:href="#DejaVuSans-2d" x="127.246094"/>
       <use xlink:href="#DejaVuSans-32" x="163.330078"/>
       <use xlink:href="#DejaVuSans-36" x="226.953125"/>
       <use xlink:href="#DejaVuSans-20" x="290.576172"/>
       <use xlink:href="#DejaVuSans-30" x="322.363281"/>
       <use xlink:href="#DejaVuSans-30" x="385.986328"/>
      </g>
     </g>
    </g>
    <g id="xtick_18">
     <g id="line2d_26">
      <g>
       <use xlink:href="#m2c89c62d03" x="190.452862" y="246.04" style="stroke: #000000; stroke-width: 0.8"/>
      </g>
     </g>
     <g id="text_18">
      <!-- 02-26 12 -->
      <g transform="translate(167.972393 260.638437) scale(0.1 -0.1)">
       <use xlink:href="#DejaVuSans-30"/>
       <use xlink:href="#DejaVuSans-32" x="63.623047"/>
       <use xlink:href="#DejaVuSans-2d" x="127.246094"/>
       <use xlink:href="#DejaVuSans-32" x="163.330078"/>
       <use xlink:href="#DejaVuSans-36" x="226.953125"/>
       <use xlink:href="#DejaVuSans-20" x="290.576172"/>
       <use xlink:href="#DejaVuSans-31" x="322.363281"/>
       <use xlink:href="#DejaVuSans-32" x="385.986328"/>
      </g>
     </g>
    </g>
    <g id="xtick_19">
     <g id="line2d_27">
      <g>
       <use xlink:href="#m2c89c62d03" x="233.380785" y="246.04" style="stroke: #000000; stroke-width: 0.8"/>
      </g>
     </g>
     <g id="text_19">
      <!-- 02-27 00 -->
      <g transform="translate(210.900316 260.638437) scale(0.1 -0.1)">
       <defs>
        <path id="DejaVuSans-37" d="M 525 4666 
L 3525 4666 
L 3525 4397 
L 1831 0 
L 1172 0 
L 2766 4134 
L 525 4134 
L 525 4666 
z
" transform="scale(0.015625)"/>
       </defs>
       <use xlink:href="#DejaVuSans-30"/>
       <use xlink:href="#DejaVuSans-32" x="63.623047"/>
       <use xlink:href="#DejaVuSans-2d" x="127.246094"/>
       <use xlink:href="#DejaVuSans-32" x="163.330078"/>
       <use xlink:href="#DejaVuSans-37" x="226.953125"/>
       <use xlink:href="#DejaVuSans-20" x="290.576172"/>
       <use xlink:href="#DejaVuSans-30" x="322.363281"/>
       <use xlink:href="#DejaVuSans-30" x="385.986328"/>
      </g>
     </g>
    </g>
    <g id="xtick_20">
     <g id="line2d_28">
      <g>
       <use xlink:href="#m2c89c62d03" x="276.308709" y="246.04" style="stroke: #000000; stroke-width: 0.8"/>
      </g>
     </g>
     <g id="text_20">
      <!-- 02-27 12 -->
      <g transform="translate(253.82824 260.638437) scale(0.1 -0.1)">
       <use xlink:href="#DejaVuSans-30"/>
       <use xlink:href="#DejaVuSans-32" x="63.623047"/>
       <use xlink:href="#DejaVuSans-2d" x="127.246094"/>
       <use xlink:href="#DejaVuSans-32" x="163.330078"/>
       <use xlink:href="#DejaVuSans-37" x="226.953125"/>
       <use xlink:href="#DejaVuSans-20" x="290.576172"/>
       <use xlink:href="#DejaVuSans-31" x="322.363281"/>
       <use xlink:href="#DejaVuSans-32" x="385.986328"/>
      </g>
     </g>
    </g>
    <g id="xtick_21">
     <g id="line2d_29">
      <g>
       <use xlink:href="#m2c89c62d03" x="319.236632" y="246.04" style="stroke: #000000; stroke-width: 0.8"/>
      </g>
     </g>
     <g id="text_21">
      <!-- 02-28 00 -->
      <g transform="translate(296.756164 260.638437) scale(0.1 -0.1)">
       <defs>
        <path id="DejaVuSans-38" d="M 2034 2216 
Q 1584 2216 1326 1975 
Q 1069 1734 1069 1313 
Q 1069 891 1326 650 
Q 1584 409 2034 409 
Q 2484 409 2743 651 
Q 3003 894 3003 1313 
Q 3003 1734 2745 1975 
Q 2488 2216 2034 2216 
z
M 1403 2484 
Q 997 2584 770 2862 
Q 544 3141 544 3541 
Q 544 4100 942 4425 
Q 1341 4750 2034 4750 
Q 2731 4750 3128 4425 
Q 3525 4100 3525 3541 
Q 3525 3141 3298 2862 
Q 3072 2584 2669 2484 
Q 3125 2378 3379 2068 
Q 3634 1759 3634 1313 
Q 3634 634 3220 271 
Q 2806 -91 2034 -91 
Q 1263 -91 848 271 
Q 434 634 434 1313 
Q 434 1759 690 2068 
Q 947 2378 1403 2484 
z
M 1172 3481 
Q 1172 3119 1398 2916 
Q 1625 2713 2034 2713 
Q 2441 2713 2670 2916 
Q 2900 3119 2900 3481 
Q 2900 3844 2670 4047 
Q 2441 4250 2034 4250 
Q 1625 4250 1398 4047 
Q 1172 3844 1172 3481 
z
" transform="scale(0.015625)"/>
       </defs>
       <use xlink:href="#DejaVuSans-30"/>
       <use xlink:href="#DejaVuSans-32" x="63.623047"/>
       <use xlink:href="#DejaVuSans-2d" x="127.246094"/>
       <use xlink:href="#DejaVuSans-32" x="163.330078"/>
       <use xlink:href="#DejaVuSans-38" x="226.953125"/>
       <use xlink:href="#DejaVuSans-20" x="290.576172"/>
       <use xlink:href="#DejaVuSans-30" x="322.363281"/>
       <use xlink:href="#DejaVuSans-30" x="385.986328"/>
      </g>
     </g>
    </g>
    <g id="text_22">
     <!-- time -->
     <g transform="translate(189.863906 274.316562) scale(0.1 -0.1)">
      <use xlink:href="#DejaVuSans-74"/>
      <use xlink:href="#DejaVuSans-69" x="39.208984"/>
      <use xlink:href="#DejaVuSans-6d" x="66.992188"/>
      <use xlink:href="#DejaVuSans-65" x="164.404297"/>
     </g>
    </g>
   </g>
   <g id="matplotlib.axis_6">
    <g id="ytick_7">
     <g id="line2d_30">
      <g>
       <use xlink:href="#me0efa51767" x="47.72" y="241.783636" style="stroke: #000000; stroke-width: 0.8"/>
      </g>
     </g>
     <g id="text_23">
      <!-- 0.0 -->
      <g transform="translate(24.816875 245.582855) scale(0.1 -0.1)">
       <use xlink:href="#DejaVuSans-30"/>
       <use xlink:href="#DejaVuSans-2e" x="63.623047"/>
       <use xlink:href="#DejaVuSans-30" x="95.410156"/>
      </g>
     </g>
    </g>
    <g id="ytick_8">
     <g id="line2d_31">
      <g>
       <use xlink:href="#me0efa51767" x="47.72" y="206.91343" style="stroke: #000000; stroke-width: 0.8"/>
      </g>
     </g>
     <g id="text_24">
      <!-- 0.1 -->
      <g transform="translate(24.816875 210.712649) scale(0.1 -0.1)">
       <use xlink:href="#DejaVuSans-30"/>
       <use xlink:href="#DejaVuSans-2e" x="63.623047"/>
       <use xlink:href="#DejaVuSans-31" x="95.410156"/>
      </g>
     </g>
    </g>
    <g id="ytick_9">
     <g id="line2d_32">
      <g>
       <use xlink:href="#me0efa51767" x="47.72" y="172.043224" style="stroke: #000000; stroke-width: 0.8"/>
      </g>
     </g>
     <g id="text_25">
      <!-- 0.2 -->
      <g transform="translate(24.816875 175.842443) scale(0.1 -0.1)">
       <use xlink:href="#DejaVuSans-30"/>
       <use xlink:href="#DejaVuSans-2e" x="63.623047"/>
       <use xlink:href="#DejaVuSans-32" x="95.410156"/>
      </g>
     </g>
    </g>
    <g id="text_26">
     <!-- flow (cms) -->
     <g transform="translate(18.737188 225.2325) rotate(-90) scale(0.1 -0.1)">
      <use xlink:href="#DejaVuSans-66"/>
      <use xlink:href="#DejaVuSans-6c" x="35.205078"/>
      <use xlink:href="#DejaVuSans-6f" x="62.988281"/>
      <use xlink:href="#DejaVuSans-77" x="124.169922"/>
      <use xlink:href="#DejaVuSans-20" x="205.957031"/>
      <use xlink:href="#DejaVuSans-28" x="237.744141"/>
      <use xlink:href="#DejaVuSans-63" x="276.757812"/>
      <use xlink:href="#DejaVuSans-6d" x="331.738281"/>
      <use xlink:href="#DejaVuSans-73" x="429.150391"/>
      <use xlink:href="#DejaVuSans-29" x="481.25"/>
     </g>
    </g>
   </g>
   <g id="line2d_33">
    <path d="M 61.669091 241.783636 
L 67.45343 241.684105 
L 68.101324 241.387467 
L 68.643885 240.851536 
L 69.126824 240.036963 
L 69.494494 239.017743 
L 69.962527 236.998373 
L 70.49217 233.655545 
L 71.240428 227.111451 
L 72.685271 211.939405 
L 73.602457 199.80818 
L 75.276845 177.83511 
L 75.676313 172.441611 
L 75.883997 167.357803 
L 75.952563 166.563349 
L 76.156271 162.003985 
L 76.291415 161.583526 
L 76.426558 163.25601 
L 76.561702 162.635733 
L 76.696845 164.055117 
L 76.763423 163.81338 
L 76.898567 163.288658 
L 76.965145 164.425261 
L 77.032717 164.380025 
L 77.165873 163.565208 
L 77.300022 164.691774 
L 77.50075 163.90307 
L 77.567328 164.733973 
L 77.633906 164.547647 
L 77.767062 163.641367 
L 77.899225 164.640638 
L 78.098959 163.714085 
L 78.164543 164.447615 
L 78.231121 164.243021 
L 78.363283 163.307362 
L 78.495446 164.175898 
L 78.693192 163.199533 
L 78.75977 163.871151 
L 78.825355 163.662538 
L 78.956523 162.724413 
L 79.088686 163.495478 
L 79.285439 162.530829 
L 79.351023 163.182673 
L 79.416607 163.006722 
L 79.547776 162.08405 
L 79.677951 162.789174 
L 79.874704 161.664993 
L 79.939295 162.372945 
L 80.004879 162.289768 
L 80.135054 161.401894 
L 80.200638 161.652132 
L 80.265229 162.03108 
L 80.460988 160.866993 
L 80.591163 161.572811 
L 80.721338 160.729627 
L 80.785929 160.780187 
L 80.851513 161.280048 
L 80.916104 161.060926 
L 81.046279 160.177625 
L 81.17546 160.879596 
L 81.370225 159.790148 
L 81.434816 160.486649 
L 81.499407 160.405632 
L 81.628588 159.569285 
L 81.693179 159.821844 
L 81.757769 160.193192 
L 81.82236 159.923532 
L 81.951541 159.097126 
L 82.080722 159.837645 
L 82.274494 158.930984 
L 82.339085 159.538586 
L 82.403675 159.395144 
L 82.531863 158.577397 
L 82.661044 159.241234 
L 82.853822 158.252967 
L 82.918413 158.933953 
L 82.983004 158.906526 
L 83.111191 158.13531 
L 83.175782 158.19588 
L 83.240373 158.689656 
L 83.303969 158.508921 
L 83.433151 157.759125 
L 83.561338 158.48432 
L 83.754116 157.664227 
L 83.817713 158.250388 
L 83.882304 158.231268 
L 84.010492 157.644375 
L 84.074088 157.844657 
L 84.138679 158.175142 
L 84.20327 158.027708 
L 84.331457 157.463449 
L 84.459645 157.995829 
L 84.651429 157.458287 
L 84.71602 157.880537 
L 84.779617 157.831663 
L 84.907804 157.355112 
L 84.971401 157.511987 
L 85.035992 157.758274 
L 85.099589 157.625562 
L 85.227776 157.158694 
L 85.355964 157.619778 
L 85.547748 157.165657 
L 85.611345 157.518978 
L 85.675936 157.475186 
L 85.804124 157.063931 
L 85.86772 157.196652 
L 85.931317 157.407541 
L 85.995908 157.290522 
L 86.123102 156.89546 
L 86.251289 157.291761 
L 86.443074 156.872384 
L 86.506671 157.189386 
L 86.571261 157.149556 
L 86.698455 156.775618 
L 86.762052 156.895666 
L 86.826643 157.089733 
L 86.89024 156.9895 
L 87.018427 156.656364 
L 87.145621 157.015752 
L 87.337406 156.713057 
L 87.464599 156.943282 
L 87.592787 156.705434 
L 87.656384 156.790626 
L 87.720975 156.924959 
L 87.784571 156.869469 
L 87.911765 156.670586 
L 88.039953 156.892835 
L 88.231737 156.712543 
L 88.358931 156.853048 
L 88.550716 156.762741 
L 88.677909 156.811086 
L 88.806097 156.6942 
L 88.933291 156.826113 
L 89.125075 156.722413 
L 89.252269 156.80483 
L 89.444054 156.754785 
L 89.571248 156.783629 
L 89.763032 156.772601 
L 90.146601 156.785608 
L 90.529176 156.7848 
L 91.103536 156.900499 
L 91.231723 156.929313 
L 91.358917 156.930256 
L 91.487105 157.063446 
L 91.550702 156.97993 
L 91.677896 157.030442 
L 91.806083 157.146043 
L 91.933277 157.052239 
L 92.061465 157.249547 
L 92.125062 157.194948 
L 92.189652 157.097263 
L 92.253249 157.163032 
L 92.380443 157.401572 
L 92.50863 157.206704 
L 92.700415 157.490776 
L 92.764012 157.288845 
L 92.828602 157.329158 
L 92.955796 157.619325 
L 93.020387 157.535938 
L 93.083984 157.389631 
L 93.147581 157.480596 
L 93.275768 157.811902 
L 93.403956 157.537168 
L 93.59574 157.916352 
L 93.659337 157.646738 
L 93.723928 157.69888 
L 93.852115 158.076092 
L 93.915712 157.967603 
L 93.979309 157.793439 
L 94.0439 157.919816 
L 94.172087 158.344088 
L 94.300275 157.974213 
L 94.49206 158.453724 
L 94.555656 158.118373 
L 94.620247 158.186653 
L 94.748435 158.661129 
L 94.812032 158.527551 
L 94.876622 158.314896 
L 94.940219 158.474781 
L 95.0694 158.982348 
L 95.197588 158.541238 
L 95.389372 159.14774 
L 95.453963 158.755552 
L 95.51756 158.862395 
L 95.646741 159.446577 
L 95.774929 158.982504 
L 95.967707 159.817927 
L 96.095894 159.333991 
L 96.225076 159.965145 
L 96.288673 159.934291 
L 96.353263 159.545297 
L 96.417854 159.713054 
L 96.546041 160.424229 
L 96.675223 159.920775 
L 96.868995 160.852611 
L 96.932591 160.288539 
L 96.997182 160.382426 
L 97.126363 161.162639 
L 97.190954 160.964483 
L 97.255545 160.634696 
L 97.449316 161.762062 
L 97.513907 161.244395 
L 97.578498 161.170617 
L 97.77227 162.167108 
L 97.83686 161.60296 
L 97.901451 161.814284 
L 98.030632 162.771562 
L 98.160807 162.146031 
L 98.355573 163.420007 
L 98.420163 162.755178 
L 98.484754 162.8994 
L 98.614929 163.962385 
L 98.679519 163.946504 
L 98.745104 163.46406 
L 98.939869 164.993226 
L 99.005454 164.368384 
L 99.070044 164.348228 
L 99.265804 165.753329 
L 99.331388 165.10678 
L 99.395979 165.458168 
L 99.527147 166.781131 
L 99.592732 166.320557 
L 99.658316 166.187916 
L 99.855069 168.009228 
L 99.920653 167.230249 
L 99.986238 167.568078 
L 100.117406 169.06428 
L 100.18299 168.640075 
L 100.249569 168.542758 
L 100.447315 170.640328 
L 100.5129 169.915305 
L 100.579478 170.374143 
L 100.71164 172.084367 
L 100.778218 171.678159 
L 100.844796 171.680711 
L 101.04453 174.099689 
L 101.111108 173.426238 
L 101.647707 178.307618 
L 101.715279 178.252044 
L 102.125678 191.636971 
L 102.6901 198.486877 
L 103.184964 202.673785 
L 104.096189 209.098067 
L 104.730171 211.784542 
L 105.545006 214.239893 
L 106.60628 216.676603 
L 107.821577 218.942349 
L 109.267414 221.228971 
L 111.028253 223.645374 
L 112.923243 225.928407 
L 115.399548 228.532426 
L 118.058695 230.943975 
L 121.089486 233.280574 
L 123.69994 234.99305 
L 126.902642 236.755268 
L 129.614454 237.984724 
L 132.368002 239.006132 
L 135.630326 239.938263 
L 138.710802 240.547968 
L 141.662097 240.891886 
L 146.223189 241.183715 
L 153.556709 241.413284 
L 167.150551 241.586733 
L 196.842365 241.702165 
L 286.454406 241.764472 
L 340.650909 241.772642 
L 340.650909 241.772642 
" clip-path="url(#pbba3693011)" style="fill: none; stroke: #1f77b4; stroke-width: 1.5; stroke-linecap: square"/>
   </g>
   <g id="patch_13">
    <path d="M 47.72 246.04 
L 47.72 152.4 
" style="fill: none; stroke: #000000; stroke-width: 0.8; stroke-linejoin: miter; stroke-linecap: square"/>
   </g>
   <g id="patch_14">
    <path d="M 354.6 246.04 
L 354.6 152.4 
" style="fill: none; stroke: #000000; stroke-width: 0.8; stroke-linejoin: miter; stroke-linecap: square"/>
   </g>
   <g id="patch_15">
    <path d="M 47.72 246.04 
L 354.6 246.04 
" style="fill: none; stroke: #000000; stroke-width: 0.8; stroke-linejoin: miter; stroke-linecap: square"/>
   </g>
   <g id="patch_16">
    <path d="M 47.72 152.4 
L 354.6 152.4 
" style="fill: none; stroke: #000000; stroke-width: 0.8; stroke-linejoin: miter; stroke-linecap: square"/>
   </g>
   <g id="text_27">
    <!-- 2 -->
    <g transform="translate(195.6628 175.8962) scale(0.1728 -0.1728)">
     <use xlink:href="#DejaVuSans-32"/>
    </g>
   </g>
  </g>
  <g id="axes_4">
   <g id="patch_17">
    <path d="M 402.32 246.04 
L 709.2 246.04 
L 709.2 152.4 
L 402.32 152.4 
z
" style="fill: #ffffff"/>
   </g>
   <g id="matplotlib.axis_7">
    <g id="xtick_22">
     <g id="line2d_34">
      <g>
       <use xlink:href="#m2c89c62d03" x="416.269091" y="246.04" style="stroke: #000000; stroke-width: 0.8"/>
      </g>
     </g>
     <g id="text_28">
      <!-- 02-25 00 -->
      <g transform="translate(393.788622 260.638437) scale(0.1 -0.1)">
       <use xlink:href="#DejaVuSans-30"/>
       <use xlink:href="#DejaVuSans-32" x="63.623047"/>
       <use xlink:href="#DejaVuSans-2d" x="127.246094"/>
       <use xlink:href="#DejaVuSans-32" x="163.330078"/>
       <use xlink:href="#DejaVuSans-35" x="226.953125"/>
       <use xlink:href="#DejaVuSans-20" x="290.576172"/>
       <use xlink:href="#DejaVuSans-30" x="322.363281"/>
       <use xlink:href="#DejaVuSans-30" x="385.986328"/>
      </g>
     </g>
    </g>
    <g id="xtick_23">
     <g id="line2d_35">
      <g>
       <use xlink:href="#m2c89c62d03" x="459.197014" y="246.04" style="stroke: #000000; stroke-width: 0.8"/>
      </g>
     </g>
     <g id="text_29">
      <!-- 02-25 12 -->
      <g transform="translate(436.716546 260.638437) scale(0.1 -0.1)">
       <use xlink:href="#DejaVuSans-30"/>
       <use xlink:href="#DejaVuSans-32" x="63.623047"/>
       <use xlink:href="#DejaVuSans-2d" x="127.246094"/>
       <use xlink:href="#DejaVuSans-32" x="163.330078"/>
       <use xlink:href="#DejaVuSans-35" x="226.953125"/>
       <use xlink:href="#DejaVuSans-20" x="290.576172"/>
       <use xlink:href="#DejaVuSans-31" x="322.363281"/>
       <use xlink:href="#DejaVuSans-32" x="385.986328"/>
      </g>
     </g>
    </g>
    <g id="xtick_24">
     <g id="line2d_36">
      <g>
       <use xlink:href="#m2c89c62d03" x="502.124938" y="246.04" style="stroke: #000000; stroke-width: 0.8"/>
      </g>
     </g>
     <g id="text_30">
      <!-- 02-26 00 -->
      <g transform="translate(479.644469 260.638437) scale(0.1 -0.1)">
       <use xlink:href="#DejaVuSans-30"/>
       <use xlink:href="#DejaVuSans-32" x="63.623047"/>
       <use xlink:href="#DejaVuSans-2d" x="127.246094"/>
       <use xlink:href="#DejaVuSans-32" x="163.330078"/>
       <use xlink:href="#DejaVuSans-36" x="226.953125"/>
       <use xlink:href="#DejaVuSans-20" x="290.576172"/>
       <use xlink:href="#DejaVuSans-30" x="322.363281"/>
       <use xlink:href="#DejaVuSans-30" x="385.986328"/>
      </g>
     </g>
    </g>
    <g id="xtick_25">
     <g id="line2d_37">
      <g>
       <use xlink:href="#m2c89c62d03" x="545.052862" y="246.04" style="stroke: #000000; stroke-width: 0.8"/>
      </g>
     </g>
     <g id="text_31">
      <!-- 02-26 12 -->
      <g transform="translate(522.572393 260.638437) scale(0.1 -0.1)">
       <use xlink:href="#DejaVuSans-30"/>
       <use xlink:href="#DejaVuSans-32" x="63.623047"/>
       <use xlink:href="#DejaVuSans-2d" x="127.246094"/>
       <use xlink:href="#DejaVuSans-32" x="163.330078"/>
       <use xlink:href="#DejaVuSans-36" x="226.953125"/>
       <use xlink:href="#DejaVuSans-20" x="290.576172"/>
       <use xlink:href="#DejaVuSans-31" x="322.363281"/>
       <use xlink:href="#DejaVuSans-32" x="385.986328"/>
      </g>
     </g>
    </g>
    <g id="xtick_26">
     <g id="line2d_38">
      <g>
       <use xlink:href="#m2c89c62d03" x="587.980785" y="246.04" style="stroke: #000000; stroke-width: 0.8"/>
      </g>
     </g>
     <g id="text_32">
      <!-- 02-27 00 -->
      <g transform="translate(565.500316 260.638437) scale(0.1 -0.1)">
       <use xlink:href="#DejaVuSans-30"/>
       <use xlink:href="#DejaVuSans-32" x="63.623047"/>
       <use xlink:href="#DejaVuSans-2d" x="127.246094"/>
       <use xlink:href="#DejaVuSans-32" x="163.330078"/>
       <use xlink:href="#DejaVuSans-37" x="226.953125"/>
       <use xlink:href="#DejaVuSans-20" x="290.576172"/>
       <use xlink:href="#DejaVuSans-30" x="322.363281"/>
       <use xlink:href="#DejaVuSans-30" x="385.986328"/>
      </g>
     </g>
    </g>
    <g id="xtick_27">
     <g id="line2d_39">
      <g>
       <use xlink:href="#m2c89c62d03" x="630.908709" y="246.04" style="stroke: #000000; stroke-width: 0.8"/>
      </g>
     </g>
     <g id="text_33">
      <!-- 02-27 12 -->
      <g transform="translate(608.42824 260.638437) scale(0.1 -0.1)">
       <use xlink:href="#DejaVuSans-30"/>
       <use xlink:href="#DejaVuSans-32" x="63.623047"/>
       <use xlink:href="#DejaVuSans-2d" x="127.246094"/>
       <use xlink:href="#DejaVuSans-32" x="163.330078"/>
       <use xlink:href="#DejaVuSans-37" x="226.953125"/>
       <use xlink:href="#DejaVuSans-20" x="290.576172"/>
       <use xlink:href="#DejaVuSans-31" x="322.363281"/>
       <use xlink:href="#DejaVuSans-32" x="385.986328"/>
      </g>
     </g>
    </g>
    <g id="xtick_28">
     <g id="line2d_40">
      <g>
       <use xlink:href="#m2c89c62d03" x="673.836632" y="246.04" style="stroke: #000000; stroke-width: 0.8"/>
      </g>
     </g>
     <g id="text_34">
      <!-- 02-28 00 -->
      <g transform="translate(651.356164 260.638437) scale(0.1 -0.1)">
       <use xlink:href="#DejaVuSans-30"/>
       <use xlink:href="#DejaVuSans-32" x="63.623047"/>
       <use xlink:href="#DejaVuSans-2d" x="127.246094"/>
       <use xlink:href="#DejaVuSans-32" x="163.330078"/>
       <use xlink:href="#DejaVuSans-38" x="226.953125"/>
       <use xlink:href="#DejaVuSans-20" x="290.576172"/>
       <use xlink:href="#DejaVuSans-30" x="322.363281"/>
       <use xlink:href="#DejaVuSans-30" x="385.986328"/>
      </g>
     </g>
    </g>
    <g id="text_35">
     <!-- time -->
     <g transform="translate(544.463906 274.316562) scale(0.1 -0.1)">
      <use xlink:href="#DejaVuSans-74"/>
      <use xlink:href="#DejaVuSans-69" x="39.208984"/>
      <use xlink:href="#DejaVuSans-6d" x="66.992188"/>
      <use xlink:href="#DejaVuSans-65" x="164.404297"/>
     </g>
    </g>
   </g>
   <g id="matplotlib.axis_8">
    <g id="ytick_10">
     <g id="line2d_41">
      <g>
       <use xlink:href="#me0efa51767" x="402.32" y="241.783636" style="stroke: #000000; stroke-width: 0.8"/>
      </g>
     </g>
     <g id="text_36">
      <!-- 0.0 -->
      <g transform="translate(379.416875 245.582855) scale(0.1 -0.1)">
       <use xlink:href="#DejaVuSans-30"/>
       <use xlink:href="#DejaVuSans-2e" x="63.623047"/>
       <use xlink:href="#DejaVuSans-30" x="95.410156"/>
      </g>
     </g>
    </g>
    <g id="ytick_11">
     <g id="line2d_42">
      <g>
       <use xlink:href="#me0efa51767" x="402.32" y="209.780645" style="stroke: #000000; stroke-width: 0.8"/>
      </g>
     </g>
     <g id="text_37">
      <!-- 0.5 -->
      <g transform="translate(379.416875 213.579864) scale(0.1 -0.1)">
       <use xlink:href="#DejaVuSans-30"/>
       <use xlink:href="#DejaVuSans-2e" x="63.623047"/>
       <use xlink:href="#DejaVuSans-35" x="95.410156"/>
      </g>
     </g>
    </g>
    <g id="ytick_12">
     <g id="line2d_43">
      <g>
       <use xlink:href="#me0efa51767" x="402.32" y="177.777654" style="stroke: #000000; stroke-width: 0.8"/>
      </g>
     </g>
     <g id="text_38">
      <!-- 1.0 -->
      <g transform="translate(379.416875 181.576873) scale(0.1 -0.1)">
       <use xlink:href="#DejaVuSans-31"/>
       <use xlink:href="#DejaVuSans-2e" x="63.623047"/>
       <use xlink:href="#DejaVuSans-30" x="95.410156"/>
      </g>
     </g>
    </g>
    <g id="text_39">
     <!-- depth (m) -->
     <g transform="translate(373.337188 224.134844) rotate(-90) scale(0.1 -0.1)">
      <use xlink:href="#DejaVuSans-64"/>
      <use xlink:href="#DejaVuSans-65" x="63.476562"/>
      <use xlink:href="#DejaVuSans-70" x="125"/>
      <use xlink:href="#DejaVuSans-74" x="188.476562"/>
      <use xlink:href="#DejaVuSans-68" x="227.685547"/>
      <use xlink:href="#DejaVuSans-20" x="291.064453"/>
      <use xlink:href="#DejaVuSans-28" x="322.851562"/>
      <use xlink:href="#DejaVuSans-6d" x="361.865234"/>
      <use xlink:href="#DejaVuSans-29" x="459.277344"/>
     </g>
    </g>
   </g>
   <g id="line2d_44">
    <path d="M 416.269091 241.783636 
L 420.890799 241.675224 
L 421.516831 241.372248 
L 422.141869 240.814468 
L 422.844417 239.874172 
L 423.650309 238.409958 
L 424.301184 236.650201 
L 425.23427 233.321067 
L 428.075264 222.838813 
L 429.49427 218.052252 
L 430.345873 215.797589 
L 430.824837 215.112597 
L 431.229274 214.430341 
L 431.9666 212.607878 
L 432.698959 210.260888 
L 434.016607 204.946118 
L 435.191163 199.203443 
L 436.551541 191.400391 
L 439.764179 171.691848 
L 441.745621 162.317864 
L 442.448168 160.070716 
L 443.150716 158.530131 
L 443.852269 157.510523 
L 444.554816 156.887676 
L 445.065579 156.656364 
L 445.384558 156.762754 
L 445.767133 157.176227 
L 446.214299 158.004562 
L 446.853249 159.733522 
L 447.620387 162.511224 
L 448.6439 167.181662 
L 449.797588 173.571125 
L 451.339813 183.544612 
L 453.279519 197.484242 
L 455.910842 216.232622 
L 456.587553 220.027282 
L 457.229485 222.141727 
L 457.909177 223.709672 
L 458.627623 224.860531 
L 459.522949 225.828012 
L 460.76607 226.813521 
L 462.551752 227.922136 
L 465.148295 229.264153 
L 469.047582 231.015019 
L 473.819338 232.917086 
L 479.485427 234.930607 
L 485.282684 236.753538 
L 490.063384 238.051403 
L 493.847401 238.863565 
L 497.335295 239.357122 
L 502.164686 239.801742 
L 509.051041 240.19636 
L 519.335856 240.544443 
L 535.52326 240.849151 
L 562.532079 241.112681 
L 610.73656 241.334453 
L 695.250909 241.499779 
L 695.250909 241.499779 
" clip-path="url(#pb4c50427a4)" style="fill: none; stroke: #1f77b4; stroke-width: 1.5; stroke-linecap: square"/>
   </g>
   <g id="patch_18">
    <path d="M 402.32 246.04 
L 402.32 152.4 
" style="fill: none; stroke: #000000; stroke-width: 0.8; stroke-linejoin: miter; stroke-linecap: square"/>
   </g>
   <g id="patch_19">
    <path d="M 709.2 246.04 
L 709.2 152.4 
" style="fill: none; stroke: #000000; stroke-width: 0.8; stroke-linejoin: miter; stroke-linecap: square"/>
   </g>
   <g id="patch_20">
    <path d="M 402.32 246.04 
L 709.2 246.04 
" style="fill: none; stroke: #000000; stroke-width: 0.8; stroke-linejoin: miter; stroke-linecap: square"/>
   </g>
   <g id="patch_21">
    <path d="M 402.32 152.4 
L 709.2 152.4 
" style="fill: none; stroke: #000000; stroke-width: 0.8; stroke-linejoin: miter; stroke-linecap: square"/>
   </g>
   <g id="text_40">
    <!-- ('P2', 'depthN') -->
    <g transform="translate(491.7079 175.8962) scale(0.1728 -0.1728)">
     <use xlink:href="#DejaVuSans-28"/>
     <use xlink:href="#DejaVuSans-27" x="39.013672"/>
     <use xlink:href="#DejaVuSans-50" x="66.503906"/>
     <use xlink:href="#DejaVuSans-32" x="126.806641"/>
     <use xlink:href="#DejaVuSans-27" x="190.429688"/>
     <use xlink:href="#DejaVuSans-2c" x="217.919922"/>
     <use xlink:href="#DejaVuSans-20" x="249.707031"/>
     <use xlink:href="#DejaVuSans-27" x="281.494141"/>
     <use xlink:href="#DejaVuSans-64" x="308.984375"/>
     <use xlink:href="#DejaVuSans-65" x="372.460938"/>
     <use xlink:href="#DejaVuSans-70" x="433.984375"/>
     <use xlink:href="#DejaVuSans-74" x="497.460938"/>
     <use xlink:href="#DejaVuSans-68" x="536.669922"/>
     <use xlink:href="#DejaVuSans-4e" x="600.048828"/>
     <use xlink:href="#DejaVuSans-27" x="674.853516"/>
     <use xlink:href="#DejaVuSans-29" x="702.34375"/>
    </g>
   </g>
   <g id="text_41">
    <!-- cost: 0.00e+00 -->
    <g transform="translate(489.38995 203.9882) scale(0.1728 -0.1728)">
     <defs>
      <path id="DejaVuSans-3a" d="M 750 794 
L 1409 794 
L 1409 0 
L 750 0 
L 750 794 
z
M 750 3309 
L 1409 3309 
L 1409 2516 
L 750 2516 
L 750 3309 
z
" transform="scale(0.015625)"/>
      <path id="DejaVuSans-2b" d="M 2944 4013 
L 2944 2272 
L 4684 2272 
L 4684 1741 
L 2944 1741 
L 2944 0 
L 2419 0 
L 2419 1741 
L 678 1741 
L 678 2272 
L 2419 2272 
L 2419 4013 
L 2944 4013 
z
" transform="scale(0.015625)"/>
     </defs>
     <use xlink:href="#DejaVuSans-63"/>
     <use xlink:href="#DejaVuSans-6f" x="54.980469"/>
     <use xlink:href="#DejaVuSans-73" x="116.162109"/>
     <use xlink:href="#DejaVuSans-74" x="168.261719"/>
     <use xlink:href="#DejaVuSans-3a" x="207.470703"/>
     <use xlink:href="#DejaVuSans-20" x="241.162109"/>
     <use xlink:href="#DejaVuSans-30" x="272.949219"/>
     <use xlink:href="#DejaVuSans-2e" x="336.572266"/>
     <use xlink:href="#DejaVuSans-30" x="368.359375"/>
     <use xlink:href="#DejaVuSans-30" x="431.982422"/>
     <use xlink:href="#DejaVuSans-65" x="495.605469"/>
     <use xlink:href="#DejaVuSans-2b" x="557.128906"/>
     <use xlink:href="#DejaVuSans-30" x="640.917969"/>
     <use xlink:href="#DejaVuSans-30" x="704.541016"/>
    </g>
   </g>
  </g>
 </g>
 <defs>
  <clipPath id="pe0c6cddec9">
   <rect x="47.72" y="26.88" width="306.88" height="93.64"/>
  </clipPath>
  <clipPath id="pae8e65843e">
   <rect x="402.32" y="26.88" width="306.88" height="93.64"/>
  </clipPath>
  <clipPath id="pbba3693011">
   <rect x="47.72" y="152.4" width="306.88" height="93.64"/>
  </clipPath>
  <clipPath id="pb4c50427a4">
   <rect x="402.32" y="152.4" width="306.88" height="93.64"/>
  </clipPath>
 </defs>
</svg>
