<?xml version="1.0" encoding="utf-8" standalone="no"?>
<!DOCTYPE svg PUBLIC "-//W3C//DTD SVG 1.1//EN"
  "http://www.w3.org/Graphics/SVG/1.1/DTD/svg11.dtd">
<svg xmlns:xlink="http://www.w3.org/1999/xlink" width="720pt" height="288pt" viewBox="0 0 720 288" xmlns="http://www.w3.org/2000/svg" version="1.1">
 <metadata>
  <rdf:RDF xmlns:dc="http://purl.org/dc/elements/1.1/" xmlns:cc="http://creativecommons.org/ns#" xmlns:rdf="http://www.w3.org/1999/02/22-rdf-syntax-ns#">
   <cc:Work>
    <dc:type rdf:resource="http://purl.org/dc/dcmitype/StillImage"/>
    <dc:date>2025-01-28T16:34:25.163745</dc:date>
    <dc:format>image/svg+xml</dc:format>
    <dc:creator>
     <cc:Agent>
      <dc:title>Matplotlib v3.9.4, https://matplotlib.org/</dc:title>
     </cc:Agent>
    </dc:creator>
   </cc:Work>
  </rdf:RDF>
 </metadata>
 <defs>
  <style type="text/css">*{stroke-linejoin: round; stroke-linecap: butt}</style>
 </defs>
 <g id="figure_1">
  <g id="patch_1">
   <path d="M 0 288 
L 720 288 
L 720 0 
L 0 0 
z
" style="fill: #ffffff"/>
  </g>
  <g id="axes_1">
   <g id="patch_2">
    <path d="M 47.72 118.92524 
L 351.495 118.92524 
L 351.495 26.88 
L 47.72 26.88 
z
" style="fill: #ffffff"/>
   </g>
   <g id="matplotlib.axis_1">
    <g id="xtick_1">
     <g id="line2d_1">
      <defs>
       <path id="mec62c79a23" d="M 0 0 
L 0 3.5 
" style="stroke: #000000; stroke-width: 0.8"/>
      </defs>
      <g>
       <use xlink:href="#mec62c79a23" x="61.527955" y="118.92524" style="stroke: #000000; stroke-width: 0.8"/>
      </g>
     </g>
    </g>
    <g id="xtick_2">
     <g id="line2d_2">
      <g>
       <use xlink:href="#mec62c79a23" x="104.0232" y="118.92524" style="stroke: #000000; stroke-width: 0.8"/>
      </g>
     </g>
    </g>
    <g id="xtick_3">
     <g id="line2d_3">
      <g>
       <use xlink:href="#mec62c79a23" x="146.518446" y="118.92524" style="stroke: #000000; stroke-width: 0.8"/>
      </g>
     </g>
    </g>
    <g id="xtick_4">
     <g id="line2d_4">
      <g>
       <use xlink:href="#mec62c79a23" x="189.013691" y="118.92524" style="stroke: #000000; stroke-width: 0.8"/>
      </g>
     </g>
    </g>
    <g id="xtick_5">
     <g id="line2d_5">
      <g>
       <use xlink:href="#mec62c79a23" x="231.508937" y="118.92524" style="stroke: #000000; stroke-width: 0.8"/>
      </g>
     </g>
    </g>
    <g id="xtick_6">
     <g id="line2d_6">
      <g>
       <use xlink:href="#mec62c79a23" x="274.004182" y="118.92524" style="stroke: #000000; stroke-width: 0.8"/>
      </g>
     </g>
    </g>
    <g id="xtick_7">
     <g id="line2d_7">
      <g>
       <use xlink:href="#mec62c79a23" x="316.499428" y="118.92524" style="stroke: #000000; stroke-width: 0.8"/>
      </g>
     </g>
    </g>
    <g id="text_1">
     <!-- time -->
     <g transform="translate(188.311406 137.523677) scale(0.1 -0.1)">
      <defs>
       <path id="DejaVuSans-74" d="M 1172 4494 
L 1172 3500 
L 2356 3500 
L 2356 3053 
L 1172 3053 
L 1172 1153 
Q 1172 725 1289 603 
Q 1406 481 1766 481 
L 2356 481 
L 2356 0 
L 1766 0 
Q 1100 0 847 248 
Q 594 497 594 1153 
L 594 3053 
L 172 3053 
L 172 3500 
L 594 3500 
L 594 4494 
L 1172 4494 
z
" transform="scale(0.015625)"/>
       <path id="DejaVuSans-69" d="M 603 3500 
L 1178 3500 
L 1178 0 
L 603 0 
L 603 3500 
z
M 603 4863 
L 1178 4863 
L 1178 4134 
L 603 4134 
L 603 4863 
z
" transform="scale(0.015625)"/>
       <path id="DejaVuSans-6d" d="M 3328 2828 
Q 3544 3216 3844 3400 
Q 4144 3584 4550 3584 
Q 5097 3584 5394 3201 
Q 5691 2819 5691 2113 
L 5691 0 
L 5113 0 
L 5113 2094 
Q 5113 2597 4934 2840 
Q 4756 3084 4391 3084 
Q 3944 3084 3684 2787 
Q 3425 2491 3425 1978 
L 3425 0 
L 2847 0 
L 2847 2094 
Q 2847 2600 2669 2842 
Q 2491 3084 2119 3084 
Q 1678 3084 1418 2786 
Q 1159 2488 1159 1978 
L 1159 0 
L 581 0 
L 581 3500 
L 1159 3500 
L 1159 2956 
Q 1356 3278 1631 3431 
Q 1906 3584 2284 3584 
Q 2666 3584 2933 3390 
Q 3200 3197 3328 2828 
z
" transform="scale(0.015625)"/>
       <path id="DejaVuSans-65" d="M 3597 1894 
L 3597 1613 
L 953 1613 
Q 991 1019 1311 708 
Q 1631 397 2203 397 
Q 2534 397 2845 478 
Q 3156 559 3463 722 
L 3463 178 
Q 3153 47 2828 -22 
Q 2503 -91 2169 -91 
Q 1331 -91 842 396 
Q 353 884 353 1716 
Q 353 2575 817 3079 
Q 1281 3584 2069 3584 
Q 2775 3584 3186 3129 
Q 3597 2675 3597 1894 
z
M 3022 2063 
Q 3016 2534 2758 2815 
Q 2500 3097 2075 3097 
Q 1594 3097 1305 2825 
Q 1016 2553 972 2059 
L 3022 2063 
z
" transform="scale(0.015625)"/>
      </defs>
      <use xlink:href="#DejaVuSans-74"/>
      <use xlink:href="#DejaVuSans-69" x="39.208984"/>
      <use xlink:href="#DejaVuSans-6d" x="66.992188"/>
      <use xlink:href="#DejaVuSans-65" x="164.404297"/>
     </g>
    </g>
   </g>
   <g id="matplotlib.axis_2">
    <g id="ytick_1">
     <g id="line2d_8">
      <defs>
       <path id="m893db1b9cf" d="M 0 0 
L -3.5 0 
" style="stroke: #000000; stroke-width: 0.8"/>
      </defs>
      <g>
       <use xlink:href="#m893db1b9cf" x="47.72" y="114.741365" style="stroke: #000000; stroke-width: 0.8"/>
      </g>
     </g>
     <g id="text_2">
      <!-- 0.0 -->
      <g transform="translate(24.816875 118.540584) scale(0.1 -0.1)">
       <defs>
        <path id="DejaVuSans-30" d="M 2034 4250 
Q 1547 4250 1301 3770 
Q 1056 3291 1056 2328 
Q 1056 1369 1301 889 
Q 1547 409 2034 409 
Q 2525 409 2770 889 
Q 3016 1369 3016 2328 
Q 3016 3291 2770 3770 
Q 2525 4250 2034 4250 
z
M 2034 4750 
Q 2819 4750 3233 4129 
Q 3647 3509 3647 2328 
Q 3647 1150 3233 529 
Q 2819 -91 2034 -91 
Q 1250 -91 836 529 
Q 422 1150 422 2328 
Q 422 3509 836 4129 
Q 1250 4750 2034 4750 
z
" transform="scale(0.015625)"/>
        <path id="DejaVuSans-2e" d="M 684 794 
L 1344 794 
L 1344 0 
L 684 0 
L 684 794 
z
" transform="scale(0.015625)"/>
       </defs>
       <use xlink:href="#DejaVuSans-30"/>
       <use xlink:href="#DejaVuSans-2e" x="63.623047"/>
       <use xlink:href="#DejaVuSans-30" x="95.410156"/>
      </g>
     </g>
    </g>
    <g id="ytick_2">
     <g id="line2d_9">
      <g>
       <use xlink:href="#m893db1b9cf" x="47.72" y="83.471537" style="stroke: #000000; stroke-width: 0.8"/>
      </g>
     </g>
     <g id="text_3">
      <!-- 0.1 -->
      <g transform="translate(24.816875 87.270756) scale(0.1 -0.1)">
       <defs>
        <path id="DejaVuSans-31" d="M 794 531 
L 1825 531 
L 1825 4091 
L 703 3866 
L 703 4441 
L 1819 4666 
L 2450 4666 
L 2450 531 
L 3481 531 
L 3481 0 
L 794 0 
L 794 531 
z
" transform="scale(0.015625)"/>
       </defs>
       <use xlink:href="#DejaVuSans-30"/>
       <use xlink:href="#DejaVuSans-2e" x="63.623047"/>
       <use xlink:href="#DejaVuSans-31" x="95.410156"/>
      </g>
     </g>
    </g>
    <g id="ytick_3">
     <g id="line2d_10">
      <g>
       <use xlink:href="#m893db1b9cf" x="47.72" y="52.201708" style="stroke: #000000; stroke-width: 0.8"/>
      </g>
     </g>
     <g id="text_4">
      <!-- 0.2 -->
      <g transform="translate(24.816875 56.000927) scale(0.1 -0.1)">
       <defs>
        <path id="DejaVuSans-32" d="M 1228 531 
L 3431 531 
L 3431 0 
L 469 0 
L 469 531 
Q 828 903 1448 1529 
Q 2069 2156 2228 2338 
Q 2531 2678 2651 2914 
Q 2772 3150 2772 3378 
Q 2772 3750 2511 3984 
Q 2250 4219 1831 4219 
Q 1534 4219 1204 4116 
Q 875 4013 500 3803 
L 500 4441 
Q 881 4594 1212 4672 
Q 1544 4750 1819 4750 
Q 2544 4750 2975 4387 
Q 3406 4025 3406 3419 
Q 3406 3131 3298 2873 
Q 3191 2616 2906 2266 
Q 2828 2175 2409 1742 
Q 1991 1309 1228 531 
z
" transform="scale(0.015625)"/>
       </defs>
       <use xlink:href="#DejaVuSans-30"/>
       <use xlink:href="#DejaVuSans-2e" x="63.623047"/>
       <use xlink:href="#DejaVuSans-32" x="95.410156"/>
      </g>
     </g>
    </g>
    <g id="text_5">
     <!-- flow (cms) -->
     <g transform="translate(18.737188 98.91512) rotate(-90) scale(0.1 -0.1)">
      <defs>
       <path id="DejaVuSans-66" d="M 2375 4863 
L 2375 4384 
L 1825 4384 
Q 1516 4384 1395 4259 
Q 1275 4134 1275 3809 
L 1275 3500 
L 2222 3500 
L 2222 3053 
L 1275 3053 
L 1275 0 
L 697 0 
L 697 3053 
L 147 3053 
L 147 3500 
L 697 3500 
L 697 3744 
Q 697 4328 969 4595 
Q 1241 4863 1831 4863 
L 2375 4863 
z
" transform="scale(0.015625)"/>
       <path id="DejaVuSans-6c" d="M 603 4863 
L 1178 4863 
L 1178 0 
L 603 0 
L 603 4863 
z
" transform="scale(0.015625)"/>
       <path id="DejaVuSans-6f" d="M 1959 3097 
Q 1497 3097 1228 2736 
Q 959 2375 959 1747 
Q 959 1119 1226 758 
Q 1494 397 1959 397 
Q 2419 397 2687 759 
Q 2956 1122 2956 1747 
Q 2956 2369 2687 2733 
Q 2419 3097 1959 3097 
z
M 1959 3584 
Q 2709 3584 3137 3096 
Q 3566 2609 3566 1747 
Q 3566 888 3137 398 
Q 2709 -91 1959 -91 
Q 1206 -91 779 398 
Q 353 888 353 1747 
Q 353 2609 779 3096 
Q 1206 3584 1959 3584 
z
" transform="scale(0.015625)"/>
       <path id="DejaVuSans-77" d="M 269 3500 
L 844 3500 
L 1563 769 
L 2278 3500 
L 2956 3500 
L 3675 769 
L 4391 3500 
L 4966 3500 
L 4050 0 
L 3372 0 
L 2619 2869 
L 1863 0 
L 1184 0 
L 269 3500 
z
" transform="scale(0.015625)"/>
       <path id="DejaVuSans-20" transform="scale(0.015625)"/>
       <path id="DejaVuSans-28" d="M 1984 4856 
Q 1566 4138 1362 3434 
Q 1159 2731 1159 2009 
Q 1159 1288 1364 580 
Q 1569 -128 1984 -844 
L 1484 -844 
Q 1016 -109 783 600 
Q 550 1309 550 2009 
Q 550 2706 781 3412 
Q 1013 4119 1484 4856 
L 1984 4856 
z
" transform="scale(0.015625)"/>
       <path id="DejaVuSans-63" d="M 3122 3366 
L 3122 2828 
Q 2878 2963 2633 3030 
Q 2388 3097 2138 3097 
Q 1578 3097 1268 2742 
Q 959 2388 959 1747 
Q 959 1106 1268 751 
Q 1578 397 2138 397 
Q 2388 397 2633 464 
Q 2878 531 3122 666 
L 3122 134 
Q 2881 22 2623 -34 
Q 2366 -91 2075 -91 
Q 1284 -91 818 406 
Q 353 903 353 1747 
Q 353 2603 823 3093 
Q 1294 3584 2113 3584 
Q 2378 3584 2631 3529 
Q 2884 3475 3122 3366 
z
" transform="scale(0.015625)"/>
       <path id="DejaVuSans-73" d="M 2834 3397 
L 2834 2853 
Q 2591 2978 2328 3040 
Q 2066 3103 1784 3103 
Q 1356 3103 1142 2972 
Q 928 2841 928 2578 
Q 928 2378 1081 2264 
Q 1234 2150 1697 2047 
L 1894 2003 
Q 2506 1872 2764 1633 
Q 3022 1394 3022 966 
Q 3022 478 2636 193 
Q 2250 -91 1575 -91 
Q 1294 -91 989 -36 
Q 684 19 347 128 
L 347 722 
Q 666 556 975 473 
Q 1284 391 1588 391 
Q 1994 391 2212 530 
Q 2431 669 2431 922 
Q 2431 1156 2273 1281 
Q 2116 1406 1581 1522 
L 1381 1569 
Q 847 1681 609 1914 
Q 372 2147 372 2553 
Q 372 3047 722 3315 
Q 1072 3584 1716 3584 
Q 2034 3584 2315 3537 
Q 2597 3491 2834 3397 
z
" transform="scale(0.015625)"/>
       <path id="DejaVuSans-29" d="M 513 4856 
L 1013 4856 
Q 1481 4119 1714 3412 
Q 1947 2706 1947 2009 
Q 1947 1309 1714 600 
Q 1481 -109 1013 -844 
L 513 -844 
Q 928 -128 1133 580 
Q 1338 1288 1338 2009 
Q 1338 2731 1133 3434 
Q 928 4138 513 4856 
z
" transform="scale(0.015625)"/>
      </defs>
      <use xlink:href="#DejaVuSans-66"/>
      <use xlink:href="#DejaVuSans-6c" x="35.205078"/>
      <use xlink:href="#DejaVuSans-6f" x="62.988281"/>
      <use xlink:href="#DejaVuSans-77" x="124.169922"/>
      <use xlink:href="#DejaVuSans-20" x="205.957031"/>
      <use xlink:href="#DejaVuSans-28" x="237.744141"/>
      <use xlink:href="#DejaVuSans-63" x="276.757812"/>
      <use xlink:href="#DejaVuSans-6d" x="331.738281"/>
      <use xlink:href="#DejaVuSans-73" x="429.150391"/>
      <use xlink:href="#DejaVuSans-29" x="481.25"/>
     </g>
    </g>
   </g>
   <g id="line2d_11">
    <path d="M 61.527955 114.741365 
L 66.014547 114.666391 
L 66.545738 114.341486 
L 66.899865 113.820619 
L 67.076929 113.519218 
L 67.430072 112.572319 
L 67.515653 111.46771 
L 67.595331 111.787481 
L 67.748786 111.233441 
L 67.958311 109.034419 
L 68.023235 108.823122 
L 68.152098 110.831242 
L 68.219972 110.488743 
L 68.287846 110.161168 
L 68.355721 108.483077 
L 68.41966 108.708599 
L 69.122012 105.491437 
L 69.794854 99.863524 
L 69.977819 97.625463 
L 71.312682 84.094132 
L 71.37367 84.836499 
L 72.095696 76.92932 
L 72.164554 77.082726 
L 72.232428 77.967221 
L 72.70263 72.475316 
L 73.02823 68.564942 
L 73.09217 68.474468 
L 73.40695 64.400024 
L 73.965683 57.092756 
L 74.025688 56.880772 
L 74.232262 54.172221 
L 74.435885 51.274512 
L 74.50376 50.725219 
L 74.57065 51.793829 
L 74.77329 48.963023 
L 74.84018 48.682449 
L 75.241524 44.850091 
L 75.965517 39.698773 
L 76.030441 41.853879 
L 76.161271 37.617292 
L 76.292101 37.024691 
L 76.357025 39.11541 
L 76.421948 37.897861 
L 76.551794 37.530947 
L 76.615734 39.552706 
L 76.680657 45.802749 
L 76.746564 45.245716 
L 76.878378 44.127989 
L 76.943302 31.063875 
L 77.007241 32.06955 
L 77.13512 31.993594 
L 77.19906 38.115503 
L 77.263983 32.482204 
L 77.327923 33.108574 
L 77.455802 32.788975 
L 77.584665 38.127072 
L 77.649588 37.704524 
L 77.713528 37.286824 
L 77.778451 40.968796 
L 77.908298 38.116381 
L 78.037161 37.197488 
L 78.1011 39.331716 
L 78.229963 34.964131 
L 78.293903 34.581923 
L 78.486705 37.808501 
L 78.614585 36.793738 
L 78.678524 41.14225 
L 78.743447 38.821511 
L 78.935266 37.210288 
L 78.999206 40.066756 
L 79.064129 38.866821 
L 79.192008 37.757137 
L 79.318904 44.392482 
L 79.383827 43.665353 
L 79.513674 42.334144 
L 79.577613 38.636919 
L 79.641553 38.949103 
L 79.770416 37.859457 
L 79.834355 38.254279 
L 79.898295 41.185051 
L 79.962235 40.360192 
L 80.408828 35.72021 
L 80.472768 42.037588 
L 80.536707 41.131545 
L 80.664587 39.957484 
L 80.728526 40.513665 
L 80.920345 37.201848 
L 80.983301 36.688175 
L 81.047241 38.052951 
L 81.237092 34.603891 
L 81.300048 34.135069 
L 81.363004 39.741921 
L 81.426943 38.302838 
L 81.553839 37.268619 
L 81.617779 38.660671 
L 81.744674 34.023271 
L 81.870586 33.111303 
L 81.997481 36.734603 
L 82.187333 35.283928 
L 82.250289 40.133619 
L 82.314228 39.193734 
L 82.441124 38.173443 
L 82.569003 39.501651 
L 82.758855 37.918761 
L 82.822794 41.252086 
L 82.94969 36.355439 
L 83.075602 35.509667 
L 83.138558 39.14765 
L 83.201513 38.994872 
L 83.644172 35.811716 
L 83.707128 39.437143 
L 83.834024 36.140536 
L 83.959936 35.528361 
L 84.022891 37.483074 
L 84.085847 36.134988 
L 84.211759 35.565508 
L 84.274715 39.796581 
L 84.337671 37.721278 
L 84.463583 37.342345 
L 84.527522 37.066789 
L 84.653434 38.468996 
L 84.843286 37.646988 
L 84.970181 38.962851 
L 85.033137 38.697802 
L 85.096093 38.439375 
L 85.160033 39.442026 
L 85.3489 37.790563 
L 85.41284 37.551773 
L 85.475796 37.925982 
L 85.538752 40.457552 
L 85.601708 40.243724 
L 85.728603 39.748697 
L 85.791559 37.976065 
L 85.855499 38.130601 
L 85.981411 37.680158 
L 86.107323 40.800335 
L 86.234218 40.160044 
L 86.298158 39.927077 
L 86.361114 38.541001 
L 86.425053 39.283466 
L 86.614905 38.686893 
L 86.677861 37.989747 
L 86.740817 39.276137 
L 86.803772 39.098512 
L 86.866728 38.930823 
L 86.930668 38.398078 
L 86.993624 39.101788 
L 87.05658 38.832697 
L 87.752046 37.232646 
L 87.877958 40.069118 
L 87.940914 39.805758 
L 88.130765 39.609114 
L 88.256677 37.476524 
L 88.382589 37.358687 
L 88.445545 39.179749 
L 88.509484 38.921413 
L 88.635396 38.801487 
L 88.698352 38.380434 
L 88.761308 39.046148 
L 88.825248 38.871926 
L 88.95116 38.774872 
L 89.014115 38.251984 
L 89.141011 35.57239 
L 89.265939 35.549451 
L 89.328895 39.192005 
L 89.392835 38.569463 
L 89.518746 38.512695 
L 89.581702 37.301481 
L 89.645642 38.918064 
L 89.708598 38.743613 
L 89.83451 38.69802 
L 89.897466 37.649965 
L 89.960422 38.374944 
L 90.149289 38.337726 
L 90.212245 37.641617 
L 90.339141 38.563529 
L 90.402097 38.592253 
L 90.465053 38.871995 
L 90.528009 38.301515 
L 90.590964 38.474909 
L 90.71786 38.582103 
L 90.780816 39.05919 
L 90.843772 38.556752 
L 90.906728 38.635897 
L 91.033623 38.790349 
L 91.096579 39.383089 
L 91.159535 36.946215 
L 91.222491 37.054811 
L 91.348403 37.399846 
L 91.474315 39.824267 
L 91.60121 40.036835 
L 91.728106 37.668242 
L 91.791062 37.782974 
L 91.916974 38.080206 
L 91.979929 38.997877 
L 92.043869 38.661144 
L 92.232737 39.253702 
L 92.296676 38.466136 
L 92.359632 38.739184 
L 92.485544 39.091128 
L 92.5485 38.388113 
L 92.738352 39.736135 
L 92.801307 39.924608 
L 92.928203 37.909884 
L 92.991159 38.132468 
L 93.370862 39.582534 
L 93.496774 38.065058 
L 93.560713 38.31879 
L 93.686625 38.849539 
L 93.749581 37.199603 
L 93.813521 38.359276 
L 93.939432 38.933619 
L 94.003372 38.045712 
L 94.193223 39.788778 
L 94.256179 40.087065 
L 94.320119 38.515831 
L 94.383075 38.732329 
L 94.57391 39.750985 
L 94.700806 37.637393 
L 94.763761 38.017638 
L 94.826717 38.399648 
L 94.890657 37.745884 
L 95.081492 40.037802 
L 95.144448 40.420743 
L 95.208388 37.501387 
L 95.271344 38.183063 
L 95.462179 39.520668 
L 95.525135 38.593308 
L 95.589074 39.16727 
L 95.71597 40.091857 
L 95.778926 38.078581 
L 95.969761 40.807847 
L 96.0337 41.294227 
L 96.09764 38.539025 
L 96.16158 40.313489 
L 96.352415 41.903012 
L 96.480294 40.157389 
L 96.608173 41.336113 
L 96.736052 38.065542 
L 96.926888 40.244518 
L 96.989843 36.711477 
L 97.181662 42.85396 
L 97.310525 41.116827 
L 97.502344 43.634468 
L 97.631207 36.297066 
L 98.0778 43.311191 
L 98.14174 41.754603 
L 98.335526 46.635675 
L 98.40045 47.664681 
L 98.465373 38.891934 
L 98.529312 40.08731 
L 98.723099 44.18151 
L 98.850978 37.748343 
L 99.173627 51.341811 
L 99.507097 69.317687 
L 99.643829 71.632717 
L 99.712687 71.741722 
L 100.170101 80.621379 
L 100.47406 82.817319 
L 100.658009 83.668106 
L 100.842942 84.945892 
L 101.029843 86.020103 
L 101.154771 84.856744 
L 101.217727 85.136104 
L 101.342655 85.685764 
L 101.405611 86.954022 
L 101.467583 85.615056 
L 101.530539 85.89709 
L 101.718423 87.159887 
L 101.908275 88.092161 
L 101.973198 88.171542 
L 102.165017 88.638488 
L 102.22994 88.727147 
L 102.358803 88.226694 
L 102.882124 89.639087 
L 102.949998 89.412918 
L 103.426103 90.492696 
L 103.494961 91.175231 
L 103.564802 90.935112 
L 103.773344 91.235421 
L 103.843185 88.757433 
L 103.913027 89.220719 
L 103.981885 89.628471 
L 104.051727 92.639314 
L 104.122552 92.022407 
L 104.396017 92.377448 
L 104.466843 92.179312 
L 104.526847 92.292175 
L 104.586852 92.402999 
L 104.658661 90.781867 
L 104.790475 93.165439 
L 104.911469 93.293555 
L 105.032462 91.659129 
L 105.152472 92.155325 
L 105.21346 92.388571 
L 105.335437 94.759026 
L 105.458398 94.741605 
L 105.582343 95.149273 
L 105.706287 95.075614 
L 105.768259 95.080268 
L 105.892204 93.806506 
L 105.954176 94.037376 
L 106.078121 94.327196 
L 106.265021 95.753932 
L 106.390933 95.790042 
L 106.453889 95.45106 
L 106.64374 95.889015 
L 106.706696 96.059954 
L 106.832608 95.55787 
L 106.959503 95.776261 
L 107.023443 91.265005 
L 107.149355 96.607612 
L 107.278218 96.704063 
L 107.342157 95.851535 
L 107.470037 96.650023 
L 107.53496 96.734449 
L 107.662839 95.167059 
L 107.726779 95.577359 
L 107.855642 96.044077 
L 107.919581 95.423278 
L 108.049428 98.074273 
L 108.114351 98.088223 
L 108.180258 98.280161 
L 108.245181 97.267514 
L 108.311088 97.480555 
L 108.441919 97.694853 
L 108.573733 98.853816 
L 108.705547 98.849733 
L 108.771454 95.785937 
L 108.904251 98.634308 
L 109.037049 98.755982 
L 109.102956 98.122759 
L 109.235753 99.780311 
L 109.302644 99.764193 
L 109.370518 98.813456 
L 109.436425 96.28696 
L 109.502332 96.713367 
L 109.634146 97.409938 
L 109.700053 99.612506 
L 109.766944 96.657407 
L 109.832851 97.027481 
L 109.898758 97.41531 
L 110.033523 101.661922 
L 110.240097 101.469712 
L 110.308955 100.449976 
L 110.377813 100.54502 
L 110.514546 100.614747 
L 110.58242 99.203996 
L 110.720136 101.413135 
L 110.788994 101.39546 
L 110.858836 101.04613 
L 110.927694 100.037373 
L 110.996552 100.179364 
L 111.06541 100.320196 
L 111.134268 101.287439 
L 111.203126 94.631434 
L 111.270017 95.319829 
L 111.402814 97.015556 
L 111.54053 103.607461 
L 111.75399 103.187819 
L 111.824816 103.561714 
L 111.896625 103.443811 
L 111.968434 103.346393 
L 112.040243 102.590965 
L 112.111068 103.324447 
L 112.182877 103.271636 
L 112.254686 103.216976 
L 112.326496 101.781997 
L 112.46913 102.825331 
L 112.540939 102.838752 
L 112.612748 98.809394 
L 112.68259 103.175358 
L 112.754399 103.067437 
L 112.826208 103.081193 
L 112.898017 102.959887 
L 112.969826 103.479629 
L 113.042619 103.443729 
L 113.115412 103.447822 
L 113.260014 103.168359 
L 113.477408 103.356799 
L 113.550201 103.299864 
L 113.695787 103.653288 
L 113.769563 103.694126 
L 113.842356 104.087829 
L 113.915149 103.771658 
L 113.987942 103.814225 
L 114.061718 103.864319 
L 114.135495 103.23485 
L 114.208287 103.338979 
L 114.354857 103.573679 
L 114.562414 104.202594 
L 114.696196 104.346 
L 114.769972 103.975719 
L 114.843749 104.082596 
L 115.217549 104.58639 
L 115.277554 105.082167 
L 115.337559 103.50926 
L 115.397564 103.855224 
L 115.517574 104.129007 
L 115.577579 102.752723 
L 115.697588 105.330706 
L 115.819565 105.392432 
L 115.881538 105.070184 
L 115.942526 105.154653 
L 116.002531 105.070751 
L 116.06352 105.145032 
L 116.124508 105.218335 
L 116.18648 106.116389 
L 116.247469 105.983707 
L 116.372397 106.010605 
L 116.558314 105.096741 
L 116.680291 105.299952 
L 116.742263 105.047218 
L 116.804235 107.291429 
L 116.867191 107.054981 
L 116.994087 106.998159 
L 117.057043 105.700246 
L 117.119999 107.03137 
L 117.182955 106.8486 
L 117.30985 106.851458 
L 117.435762 106.105604 
L 117.498718 106.201919 
L 117.62463 106.474213 
L 117.752509 106.82303 
L 117.879404 106.88932 
L 118.008267 107.365785 
L 118.072207 107.333327 
L 118.202053 107.357816 
L 118.265993 107.790761 
L 118.330916 107.729511 
L 118.460763 107.743646 
L 118.52667 106.830595 
L 118.656517 107.522843 
L 118.787347 107.575953 
L 118.85227 107.845998 
L 118.917193 107.050129 
L 118.982117 107.148609 
L 119.04704 107.22634 
L 119.111963 105.527742 
L 119.175903 107.189878 
L 119.240826 107.181434 
L 119.371656 107.367525 
L 119.502487 108.512447 
L 119.569377 108.504505 
L 119.636268 108.500858 
L 119.704142 107.176487 
L 119.770049 108.727531 
L 119.83694 108.541556 
L 119.971705 108.572029 
L 120.038596 107.802067 
L 120.172377 108.561333 
L 120.239268 108.582204 
L 120.374033 105.587999 
L 120.438956 105.91523 
L 120.567819 106.548395 
L 120.633726 109.010317 
L 120.700617 108.839662 
L 120.837349 108.899561 
L 120.976049 109.800261 
L 121.399034 109.671233 
L 121.468875 108.788829 
L 121.538717 109.491037 
L 121.608559 109.306246 
L 121.678401 109.341593 
L 121.885958 107.379155 
L 121.953833 107.610729 
L 122.021707 107.848585 
L 122.089582 109.921742 
L 122.159423 108.152137 
L 122.228281 108.338594 
L 122.297139 108.515076 
L 122.437806 110.893543 
L 122.585359 110.812347 
L 122.659136 110.460065 
L 122.732912 110.844838 
L 122.806689 110.787986 
L 122.880465 110.754406 
L 123.249348 110.007411 
L 123.32214 109.920026 
L 123.395917 110.002513 
L 123.541502 110.042323 
L 123.615279 110.581655 
L 123.689055 110.48355 
L 123.762832 110.504523 
L 123.988096 110.7682 
L 124.1386 110.872908 
L 124.21336 108.704991 
L 124.286153 109.065011 
L 124.357962 109.276658 
L 124.430755 109.869395 
L 124.503548 109.494299 
L 124.6511 109.899546 
L 124.724877 110.786938 
L 124.799637 110.142163 
L 124.874397 110.284254 
L 124.950141 110.388295 
L 125.024901 111.655461 
L 125.102612 110.328166 
L 125.178356 110.54095 
L 125.2541 110.633839 
L 125.407555 112.059633 
L 125.588553 112.030081 
L 125.728237 110.649072 
L 125.805948 110.734612 
L 125.961371 111.285397 
L 126.11876 111.409095 
L 126.258444 112.366042 
L 126.319432 112.333661 
L 126.443377 112.294457 
L 126.505349 111.543668 
L 126.566338 111.920115 
L 126.750287 111.896146 
L 126.872264 111.02403 
L 126.932269 111.106687 
L 127.052279 111.265186 
L 127.173272 112.164384 
L 127.360172 112.247143 
L 127.423128 112.030754 
L 127.548056 112.316313 
L 127.611996 112.321743 
L 127.674952 111.854262 
L 127.737908 111.877249 
L 127.924808 111.987673 
L 127.987764 112.5726 
L 128.05072 112.563068 
L 128.244506 112.588541 
L 128.30943 112.783801 
L 128.375337 112.758563 
L 128.506167 112.755712 
L 128.636013 112.085422 
L 128.700937 112.150186 
L 128.828816 112.237909 
L 128.892756 111.854618 
L 128.956695 111.971629 
L 129.148514 112.161529 
L 129.213437 113.193249 
L 129.280328 113.130621 
L 129.416077 113.124821 
L 129.483951 113.019247 
L 129.551825 113.0918 
L 129.96399 113.063388 
L 130.032848 112.844159 
L 130.101706 112.214785 
L 130.167613 112.344093 
L 130.300411 112.474297 
L 130.436159 113.2385 
L 130.575843 113.248409 
L 130.715526 112.633497 
L 130.852259 112.744912 
L 130.921117 112.946126 
L 130.989975 112.826608 
L 131.198516 112.968513 
L 131.340167 113.585662 
L 131.559529 113.483956 
L 131.708066 113.687117 
L 131.782826 113.68812 
L 131.857586 113.383477 
L 132.005139 113.568475 
L 132.079899 113.579191 
L 132.228436 113.155456 
L 132.374021 113.245936 
L 132.447798 113.730208 
L 132.522558 113.681805 
L 132.980956 113.770823 
L 133.057683 113.383914 
L 133.134411 113.456981 
L 133.285898 113.527244 
L 133.439353 113.853455 
L 133.518048 113.866638 
L 133.597727 113.749152 
L 133.7561 113.937718 
L 133.836763 113.948928 
L 133.916441 113.649468 
L 133.99612 113.705042 
L 134.154493 113.763698 
L 134.315818 114.127045 
L 134.989643 114.160802 
L 135.158837 113.981934 
L 135.663468 114.107625 
L 135.83758 114.28896 
L 136.18974 114.15471 
L 136.454352 114.303489 
L 136.808479 114.258846 
L 136.985542 114.431226 
L 137.162606 114.344078 
L 137.428201 114.332367 
L 137.605265 114.474513 
L 137.782328 114.389215 
L 138.136455 114.394933 
L 140.084154 114.532942 
L 140.349749 114.502004 
L 140.792408 114.518174 
L 145.750187 114.58342 
L 146.724036 114.633589 
L 226.048494 114.721735 
L 238.177346 114.728634 
L 248.358498 114.730749 
L 256.149293 114.731609 
L 287.312473 114.733154 
L 304.576167 114.735606 
L 320.954543 114.735805 
L 337.687045 114.736958 
L 337.687045 114.736958 
" clip-path="url(#p82bf317738)" style="fill: none; stroke: #1f77b4; stroke-width: 1.5; stroke-linecap: square"/>
   </g>
   <g id="patch_3">
    <path d="M 47.72 118.92524 
L 47.72 26.88 
" style="fill: none; stroke: #000000; stroke-width: 0.8; stroke-linejoin: miter; stroke-linecap: square"/>
   </g>
   <g id="patch_4">
    <path d="M 351.495 118.92524 
L 351.495 26.88 
" style="fill: none; stroke: #000000; stroke-width: 0.8; stroke-linejoin: miter; stroke-linecap: square"/>
   </g>
   <g id="patch_5">
    <path d="M 47.72 118.92524 
L 351.495 118.92524 
" style="fill: none; stroke: #000000; stroke-width: 0.8; stroke-linejoin: miter; stroke-linecap: square"/>
   </g>
   <g id="patch_6">
    <path d="M 47.72 26.88 
L 351.495 26.88 
" style="fill: none; stroke: #000000; stroke-width: 0.8; stroke-linejoin: miter; stroke-linecap: square"/>
   </g>
   <g id="text_6">
    <!-- 1 -->
    <g transform="translate(194.1103 50.057248) scale(0.1728 -0.1728)">
     <use xlink:href="#DejaVuSans-31"/>
    </g>
   </g>
   <g id="text_7">
    <!-- flows -->
    <g transform="translate(184.124687 20.88) scale(0.12 -0.12)">
     <use xlink:href="#DejaVuSans-66"/>
     <use xlink:href="#DejaVuSans-6c" x="35.205078"/>
     <use xlink:href="#DejaVuSans-6f" x="62.988281"/>
     <use xlink:href="#DejaVuSans-77" x="124.169922"/>
     <use xlink:href="#DejaVuSans-73" x="205.957031"/>
    </g>
   </g>
  </g>
  <g id="axes_2">
   <g id="patch_7">
    <path d="M 405.425 118.92524 
L 709.2 118.92524 
L 709.2 26.88 
L 405.425 26.88 
z
" style="fill: #ffffff"/>
   </g>
   <g id="matplotlib.axis_3">
    <g id="xtick_8">
     <g id="line2d_12">
      <g>
       <use xlink:href="#mec62c79a23" x="419.232955" y="118.92524" style="stroke: #000000; stroke-width: 0.8"/>
      </g>
     </g>
    </g>
    <g id="xtick_9">
     <g id="line2d_13">
      <g>
       <use xlink:href="#mec62c79a23" x="461.7282" y="118.92524" style="stroke: #000000; stroke-width: 0.8"/>
      </g>
     </g>
    </g>
    <g id="xtick_10">
     <g id="line2d_14">
      <g>
       <use xlink:href="#mec62c79a23" x="504.223446" y="118.92524" style="stroke: #000000; stroke-width: 0.8"/>
      </g>
     </g>
    </g>
    <g id="xtick_11">
     <g id="line2d_15">
      <g>
       <use xlink:href="#mec62c79a23" x="546.718691" y="118.92524" style="stroke: #000000; stroke-width: 0.8"/>
      </g>
     </g>
    </g>
    <g id="xtick_12">
     <g id="line2d_16">
      <g>
       <use xlink:href="#mec62c79a23" x="589.213937" y="118.92524" style="stroke: #000000; stroke-width: 0.8"/>
      </g>
     </g>
    </g>
    <g id="xtick_13">
     <g id="line2d_17">
      <g>
       <use xlink:href="#mec62c79a23" x="631.709182" y="118.92524" style="stroke: #000000; stroke-width: 0.8"/>
      </g>
     </g>
    </g>
    <g id="xtick_14">
     <g id="line2d_18">
      <g>
       <use xlink:href="#mec62c79a23" x="674.204428" y="118.92524" style="stroke: #000000; stroke-width: 0.8"/>
      </g>
     </g>
    </g>
    <g id="text_8">
     <!-- time -->
     <g transform="translate(546.016406 137.523677) scale(0.1 -0.1)">
      <use xlink:href="#DejaVuSans-74"/>
      <use xlink:href="#DejaVuSans-69" x="39.208984"/>
      <use xlink:href="#DejaVuSans-6d" x="66.992188"/>
      <use xlink:href="#DejaVuSans-65" x="164.404297"/>
     </g>
    </g>
   </g>
   <g id="matplotlib.axis_4">
    <g id="ytick_4">
     <g id="line2d_19">
      <g>
       <use xlink:href="#m893db1b9cf" x="405.425" y="114.741365" style="stroke: #000000; stroke-width: 0.8"/>
      </g>
     </g>
     <g id="text_9">
      <!-- 0.0 -->
      <g transform="translate(382.521875 118.540584) scale(0.1 -0.1)">
       <use xlink:href="#DejaVuSans-30"/>
       <use xlink:href="#DejaVuSans-2e" x="63.623047"/>
       <use xlink:href="#DejaVuSans-30" x="95.410156"/>
      </g>
     </g>
    </g>
    <g id="ytick_5">
     <g id="line2d_20">
      <g>
       <use xlink:href="#m893db1b9cf" x="405.425" y="69.725282" style="stroke: #000000; stroke-width: 0.8"/>
      </g>
     </g>
     <g id="text_10">
      <!-- 0.5 -->
      <g transform="translate(382.521875 73.524501) scale(0.1 -0.1)">
       <defs>
        <path id="DejaVuSans-35" d="M 691 4666 
L 3169 4666 
L 3169 4134 
L 1269 4134 
L 1269 2991 
Q 1406 3038 1543 3061 
Q 1681 3084 1819 3084 
Q 2600 3084 3056 2656 
Q 3513 2228 3513 1497 
Q 3513 744 3044 326 
Q 2575 -91 1722 -91 
Q 1428 -91 1123 -41 
Q 819 9 494 109 
L 494 744 
Q 775 591 1075 516 
Q 1375 441 1709 441 
Q 2250 441 2565 725 
Q 2881 1009 2881 1497 
Q 2881 1984 2565 2268 
Q 2250 2553 1709 2553 
Q 1456 2553 1204 2497 
Q 953 2441 691 2322 
L 691 4666 
z
" transform="scale(0.015625)"/>
       </defs>
       <use xlink:href="#DejaVuSans-30"/>
       <use xlink:href="#DejaVuSans-2e" x="63.623047"/>
       <use xlink:href="#DejaVuSans-35" x="95.410156"/>
      </g>
     </g>
    </g>
    <g id="text_11">
     <!-- depth (m) -->
     <g transform="translate(376.442187 97.817464) rotate(-90) scale(0.1 -0.1)">
      <defs>
       <path id="DejaVuSans-64" d="M 2906 2969 
L 2906 4863 
L 3481 4863 
L 3481 0 
L 2906 0 
L 2906 525 
Q 2725 213 2448 61 
Q 2172 -91 1784 -91 
Q 1150 -91 751 415 
Q 353 922 353 1747 
Q 353 2572 751 3078 
Q 1150 3584 1784 3584 
Q 2172 3584 2448 3432 
Q 2725 3281 2906 2969 
z
M 947 1747 
Q 947 1113 1208 752 
Q 1469 391 1925 391 
Q 2381 391 2643 752 
Q 2906 1113 2906 1747 
Q 2906 2381 2643 2742 
Q 2381 3103 1925 3103 
Q 1469 3103 1208 2742 
Q 947 2381 947 1747 
z
" transform="scale(0.015625)"/>
       <path id="DejaVuSans-70" d="M 1159 525 
L 1159 -1331 
L 581 -1331 
L 581 3500 
L 1159 3500 
L 1159 2969 
Q 1341 3281 1617 3432 
Q 1894 3584 2278 3584 
Q 2916 3584 3314 3078 
Q 3713 2572 3713 1747 
Q 3713 922 3314 415 
Q 2916 -91 2278 -91 
Q 1894 -91 1617 61 
Q 1341 213 1159 525 
z
M 3116 1747 
Q 3116 2381 2855 2742 
Q 2594 3103 2138 3103 
Q 1681 3103 1420 2742 
Q 1159 2381 1159 1747 
Q 1159 1113 1420 752 
Q 1681 391 2138 391 
Q 2594 391 2855 752 
Q 3116 1113 3116 1747 
z
" transform="scale(0.015625)"/>
       <path id="DejaVuSans-68" d="M 3513 2113 
L 3513 0 
L 2938 0 
L 2938 2094 
Q 2938 2591 2744 2837 
Q 2550 3084 2163 3084 
Q 1697 3084 1428 2787 
Q 1159 2491 1159 1978 
L 1159 0 
L 581 0 
L 581 4863 
L 1159 4863 
L 1159 2956 
Q 1366 3272 1645 3428 
Q 1925 3584 2291 3584 
Q 2894 3584 3203 3211 
Q 3513 2838 3513 2113 
z
" transform="scale(0.015625)"/>
      </defs>
      <use xlink:href="#DejaVuSans-64"/>
      <use xlink:href="#DejaVuSans-65" x="63.476562"/>
      <use xlink:href="#DejaVuSans-70" x="125"/>
      <use xlink:href="#DejaVuSans-74" x="188.476562"/>
      <use xlink:href="#DejaVuSans-68" x="227.685547"/>
      <use xlink:href="#DejaVuSans-20" x="291.064453"/>
      <use xlink:href="#DejaVuSans-28" x="322.851562"/>
      <use xlink:href="#DejaVuSans-6d" x="361.865234"/>
      <use xlink:href="#DejaVuSans-29" x="459.277344"/>
     </g>
    </g>
   </g>
   <g id="line2d_21">
    <path d="M 419.232955 114.741365 
L 423.631016 114.656006 
L 424.250738 114.356278 
L 424.958992 113.739474 
L 426.827012 111.621166 
L 428.240569 108.881776 
L 428.955709 107.707452 
L 429.731838 106.796042 
L 430.006286 106.486876 
L 431.049977 104.599929 
L 432.073011 103.070402 
L 433.407873 101.603005 
L 433.866271 101.174434 
L 434.191871 100.88392 
L 434.385657 100.534916 
L 434.712241 99.745607 
L 434.90406 99.666649 
L 435.418528 98.741978 
L 436.319585 95.821758 
L 437.023904 92.472246 
L 440.019228 71.704061 
L 441.60198 58.230585 
L 444.824536 36.942318 
L 445.457046 34.645881 
L 446.340396 32.425895 
L 446.846011 31.698619 
L 447.097835 31.511524 
L 447.665422 31.073529 
L 447.917245 31.116468 
L 448.233009 31.437214 
L 448.611728 32.227381 
L 448.990447 33.446601 
L 449.874781 37.321595 
L 450.696159 42.127432 
L 451.835268 50.559375 
L 452.913388 60.061848 
L 454.886662 80.244659 
L 455.84674 91.143068 
L 457.144222 104.884116 
L 457.625245 106.601398 
L 458.057083 107.26975 
L 458.609915 107.715919 
L 459.110611 107.994988 
L 459.613275 108.229176 
L 460.789763 108.63384 
L 463.101426 109.448025 
L 463.783121 109.547249 
L 464.032977 109.585766 
L 464.664503 109.735184 
L 464.918295 109.816702 
L 465.431779 109.987948 
L 465.819351 110.115144 
L 466.742049 110.255767 
L 466.940753 110.302138 
L 467.141425 110.369041 
L 467.670649 110.77151 
L 468.150687 110.696541 
L 468.839268 110.821826 
L 469.24553 111.210459 
L 469.959686 111.026064 
L 471.474563 111.180324 
L 471.913287 111.294926 
L 473.463577 111.690986 
L 476.816963 112.199161 
L 477.207487 112.31442 
L 477.944268 112.405024 
L 478.143956 112.551349 
L 478.474475 112.686945 
L 479.794582 112.896875 
L 480.142806 112.994335 
L 480.880571 112.929938 
L 482.135755 113.180512 
L 482.9591 113.420621 
L 498.58594 114.553794 
L 507.970306 114.605717 
L 526.119318 114.651854 
L 695.392045 114.726709 
L 695.392045 114.726709 
" clip-path="url(#p7c5b1a59dd)" style="fill: none; stroke: #1f77b4; stroke-width: 1.5; stroke-linecap: square"/>
   </g>
   <g id="patch_8">
    <path d="M 405.425 118.92524 
L 405.425 26.88 
" style="fill: none; stroke: #000000; stroke-width: 0.8; stroke-linejoin: miter; stroke-linecap: square"/>
   </g>
   <g id="patch_9">
    <path d="M 709.2 118.92524 
L 709.2 26.88 
" style="fill: none; stroke: #000000; stroke-width: 0.8; stroke-linejoin: miter; stroke-linecap: square"/>
   </g>
   <g id="patch_10">
    <path d="M 405.425 118.92524 
L 709.2 118.92524 
" style="fill: none; stroke: #000000; stroke-width: 0.8; stroke-linejoin: miter; stroke-linecap: square"/>
   </g>
   <g id="patch_11">
    <path d="M 405.425 26.88 
L 709.2 26.88 
" style="fill: none; stroke: #000000; stroke-width: 0.8; stroke-linejoin: miter; stroke-linecap: square"/>
   </g>
   <g id="text_12">
    <!-- ('P1', 'depthN') -->
    <g transform="translate(493.2604 50.057248) scale(0.1728 -0.1728)">
     <defs>
      <path id="DejaVuSans-27" d="M 1147 4666 
L 1147 2931 
L 616 2931 
L 616 4666 
L 1147 4666 
z
" transform="scale(0.015625)"/>
      <path id="DejaVuSans-50" d="M 1259 4147 
L 1259 2394 
L 2053 2394 
Q 2494 2394 2734 2622 
Q 2975 2850 2975 3272 
Q 2975 3691 2734 3919 
Q 2494 4147 2053 4147 
L 1259 4147 
z
M 628 4666 
L 2053 4666 
Q 2838 4666 3239 4311 
Q 3641 3956 3641 3272 
Q 3641 2581 3239 2228 
Q 2838 1875 2053 1875 
L 1259 1875 
L 1259 0 
L 628 0 
L 628 4666 
z
" transform="scale(0.015625)"/>
      <path id="DejaVuSans-2c" d="M 750 794 
L 1409 794 
L 1409 256 
L 897 -744 
L 494 -744 
L 750 256 
L 750 794 
z
" transform="scale(0.015625)"/>
      <path id="DejaVuSans-4e" d="M 628 4666 
L 1478 4666 
L 3547 763 
L 3547 4666 
L 4159 4666 
L 4159 0 
L 3309 0 
L 1241 3903 
L 1241 0 
L 628 0 
L 628 4666 
z
" transform="scale(0.015625)"/>
     </defs>
     <use xlink:href="#DejaVuSans-28"/>
     <use xlink:href="#DejaVuSans-27" x="39.013672"/>
     <use xlink:href="#DejaVuSans-50" x="66.503906"/>
     <use xlink:href="#DejaVuSans-31" x="126.806641"/>
     <use xlink:href="#DejaVuSans-27" x="190.429688"/>
     <use xlink:href="#DejaVuSans-2c" x="217.919922"/>
     <use xlink:href="#DejaVuSans-20" x="249.707031"/>
     <use xlink:href="#DejaVuSans-27" x="281.494141"/>
     <use xlink:href="#DejaVuSans-64" x="308.984375"/>
     <use xlink:href="#DejaVuSans-65" x="372.460938"/>
     <use xlink:href="#DejaVuSans-70" x="433.984375"/>
     <use xlink:href="#DejaVuSans-74" x="497.460938"/>
     <use xlink:href="#DejaVuSans-68" x="536.669922"/>
     <use xlink:href="#DejaVuSans-4e" x="600.048828"/>
     <use xlink:href="#DejaVuSans-27" x="674.853516"/>
     <use xlink:href="#DejaVuSans-29" x="702.34375"/>
    </g>
   </g>
   <g id="text_13">
    <!-- depths -->
    <g transform="translate(536.722187 20.88) scale(0.12 -0.12)">
     <use xlink:href="#DejaVuSans-64"/>
     <use xlink:href="#DejaVuSans-65" x="63.476562"/>
     <use xlink:href="#DejaVuSans-70" x="125"/>
     <use xlink:href="#DejaVuSans-74" x="188.476562"/>
     <use xlink:href="#DejaVuSans-68" x="227.685547"/>
     <use xlink:href="#DejaVuSans-73" x="291.064453"/>
    </g>
   </g>
  </g>
  <g id="axes_3">
   <g id="patch_12">
    <path d="M 47.72 246.04 
L 351.495 246.04 
L 351.495 153.99476 
L 47.72 153.99476 
z
" style="fill: #ffffff"/>
   </g>
   <g id="matplotlib.axis_5">
    <g id="xtick_15">
     <g id="line2d_22">
      <g>
       <use xlink:href="#mec62c79a23" x="61.527955" y="246.04" style="stroke: #000000; stroke-width: 0.8"/>
      </g>
     </g>
     <g id="text_14">
      <!-- 02-25 00 -->
      <g transform="translate(39.047486 260.638438) scale(0.1 -0.1)">
       <defs>
        <path id="DejaVuSans-2d" d="M 313 2009 
L 1997 2009 
L 1997 1497 
L 313 1497 
L 313 2009 
z
" transform="scale(0.015625)"/>
       </defs>
       <use xlink:href="#DejaVuSans-30"/>
       <use xlink:href="#DejaVuSans-32" x="63.623047"/>
       <use xlink:href="#DejaVuSans-2d" x="127.246094"/>
       <use xlink:href="#DejaVuSans-32" x="163.330078"/>
       <use xlink:href="#DejaVuSans-35" x="226.953125"/>
       <use xlink:href="#DejaVuSans-20" x="290.576172"/>
       <use xlink:href="#DejaVuSans-30" x="322.363281"/>
       <use xlink:href="#DejaVuSans-30" x="385.986328"/>
      </g>
     </g>
    </g>
    <g id="xtick_16">
     <g id="line2d_23">
      <g>
       <use xlink:href="#mec62c79a23" x="104.0232" y="246.04" style="stroke: #000000; stroke-width: 0.8"/>
      </g>
     </g>
     <g id="text_15">
      <!-- 02-25 12 -->
      <g transform="translate(81.542731 260.638438) scale(0.1 -0.1)">
       <use xlink:href="#DejaVuSans-30"/>
       <use xlink:href="#DejaVuSans-32" x="63.623047"/>
       <use xlink:href="#DejaVuSans-2d" x="127.246094"/>
       <use xlink:href="#DejaVuSans-32" x="163.330078"/>
       <use xlink:href="#DejaVuSans-35" x="226.953125"/>
       <use xlink:href="#DejaVuSans-20" x="290.576172"/>
       <use xlink:href="#DejaVuSans-31" x="322.363281"/>
       <use xlink:href="#DejaVuSans-32" x="385.986328"/>
      </g>
     </g>
    </g>
    <g id="xtick_17">
     <g id="line2d_24">
      <g>
       <use xlink:href="#mec62c79a23" x="146.518446" y="246.04" style="stroke: #000000; stroke-width: 0.8"/>
      </g>
     </g>
     <g id="text_16">
      <!-- 02-26 00 -->
      <g transform="translate(124.037977 260.638438) scale(0.1 -0.1)">
       <defs>
        <path id="DejaVuSans-36" d="M 2113 2584 
Q 1688 2584 1439 2293 
Q 1191 2003 1191 1497 
Q 1191 994 1439 701 
Q 1688 409 2113 409 
Q 2538 409 2786 701 
Q 3034 994 3034 1497 
Q 3034 2003 2786 2293 
Q 2538 2584 2113 2584 
z
M 3366 4563 
L 3366 3988 
Q 3128 4100 2886 4159 
Q 2644 4219 2406 4219 
Q 1781 4219 1451 3797 
Q 1122 3375 1075 2522 
Q 1259 2794 1537 2939 
Q 1816 3084 2150 3084 
Q 2853 3084 3261 2657 
Q 3669 2231 3669 1497 
Q 3669 778 3244 343 
Q 2819 -91 2113 -91 
Q 1303 -91 875 529 
Q 447 1150 447 2328 
Q 447 3434 972 4092 
Q 1497 4750 2381 4750 
Q 2619 4750 2861 4703 
Q 3103 4656 3366 4563 
z
" transform="scale(0.015625)"/>
       </defs>
       <use xlink:href="#DejaVuSans-30"/>
       <use xlink:href="#DejaVuSans-32" x="63.623047"/>
       <use xlink:href="#DejaVuSans-2d" x="127.246094"/>
       <use xlink:href="#DejaVuSans-32" x="163.330078"/>
       <use xlink:href="#DejaVuSans-36" x="226.953125"/>
       <use xlink:href="#DejaVuSans-20" x="290.576172"/>
       <use xlink:href="#DejaVuSans-30" x="322.363281"/>
       <use xlink:href="#DejaVuSans-30" x="385.986328"/>
      </g>
     </g>
    </g>
    <g id="xtick_18">
     <g id="line2d_25">
      <g>
       <use xlink:href="#mec62c79a23" x="189.013691" y="246.04" style="stroke: #000000; stroke-width: 0.8"/>
      </g>
     </g>
     <g id="text_17">
      <!-- 02-26 12 -->
      <g transform="translate(166.533222 260.638438) scale(0.1 -0.1)">
       <use xlink:href="#DejaVuSans-30"/>
       <use xlink:href="#DejaVuSans-32" x="63.623047"/>
       <use xlink:href="#DejaVuSans-2d" x="127.246094"/>
       <use xlink:href="#DejaVuSans-32" x="163.330078"/>
       <use xlink:href="#DejaVuSans-36" x="226.953125"/>
       <use xlink:href="#DejaVuSans-20" x="290.576172"/>
       <use xlink:href="#DejaVuSans-31" x="322.363281"/>
       <use xlink:href="#DejaVuSans-32" x="385.986328"/>
      </g>
     </g>
    </g>
    <g id="xtick_19">
     <g id="line2d_26">
      <g>
       <use xlink:href="#mec62c79a23" x="231.508937" y="246.04" style="stroke: #000000; stroke-width: 0.8"/>
      </g>
     </g>
     <g id="text_18">
      <!-- 02-27 00 -->
      <g transform="translate(209.028468 260.638438) scale(0.1 -0.1)">
       <defs>
        <path id="DejaVuSans-37" d="M 525 4666 
L 3525 4666 
L 3525 4397 
L 1831 0 
L 1172 0 
L 2766 4134 
L 525 4134 
L 525 4666 
z
" transform="scale(0.015625)"/>
       </defs>
       <use xlink:href="#DejaVuSans-30"/>
       <use xlink:href="#DejaVuSans-32" x="63.623047"/>
       <use xlink:href="#DejaVuSans-2d" x="127.246094"/>
       <use xlink:href="#DejaVuSans-32" x="163.330078"/>
       <use xlink:href="#DejaVuSans-37" x="226.953125"/>
       <use xlink:href="#DejaVuSans-20" x="290.576172"/>
       <use xlink:href="#DejaVuSans-30" x="322.363281"/>
       <use xlink:href="#DejaVuSans-30" x="385.986328"/>
      </g>
     </g>
    </g>
    <g id="xtick_20">
     <g id="line2d_27">
      <g>
       <use xlink:href="#mec62c79a23" x="274.004182" y="246.04" style="stroke: #000000; stroke-width: 0.8"/>
      </g>
     </g>
     <g id="text_19">
      <!-- 02-27 12 -->
      <g transform="translate(251.523713 260.638438) scale(0.1 -0.1)">
       <use xlink:href="#DejaVuSans-30"/>
       <use xlink:href="#DejaVuSans-32" x="63.623047"/>
       <use xlink:href="#DejaVuSans-2d" x="127.246094"/>
       <use xlink:href="#DejaVuSans-32" x="163.330078"/>
       <use xlink:href="#DejaVuSans-37" x="226.953125"/>
       <use xlink:href="#DejaVuSans-20" x="290.576172"/>
       <use xlink:href="#DejaVuSans-31" x="322.363281"/>
       <use xlink:href="#DejaVuSans-32" x="385.986328"/>
      </g>
     </g>
    </g>
    <g id="xtick_21">
     <g id="line2d_28">
      <g>
       <use xlink:href="#mec62c79a23" x="316.499428" y="246.04" style="stroke: #000000; stroke-width: 0.8"/>
      </g>
     </g>
     <g id="text_20">
      <!-- 02-28 00 -->
      <g transform="translate(294.018959 260.638438) scale(0.1 -0.1)">
       <defs>
        <path id="DejaVuSans-38" d="M 2034 2216 
Q 1584 2216 1326 1975 
Q 1069 1734 1069 1313 
Q 1069 891 1326 650 
Q 1584 409 2034 409 
Q 2484 409 2743 651 
Q 3003 894 3003 1313 
Q 3003 1734 2745 1975 
Q 2488 2216 2034 2216 
z
M 1403 2484 
Q 997 2584 770 2862 
Q 544 3141 544 3541 
Q 544 4100 942 4425 
Q 1341 4750 2034 4750 
Q 2731 4750 3128 4425 
Q 3525 4100 3525 3541 
Q 3525 3141 3298 2862 
Q 3072 2584 2669 2484 
Q 3125 2378 3379 2068 
Q 3634 1759 3634 1313 
Q 3634 634 3220 271 
Q 2806 -91 2034 -91 
Q 1263 -91 848 271 
Q 434 634 434 1313 
Q 434 1759 690 2068 
Q 947 2378 1403 2484 
z
M 1172 3481 
Q 1172 3119 1398 2916 
Q 1625 2713 2034 2713 
Q 2441 2713 2670 2916 
Q 2900 3119 2900 3481 
Q 2900 3844 2670 4047 
Q 2441 4250 2034 4250 
Q 1625 4250 1398 4047 
Q 1172 3844 1172 3481 
z
" transform="scale(0.015625)"/>
       </defs>
       <use xlink:href="#DejaVuSans-30"/>
       <use xlink:href="#DejaVuSans-32" x="63.623047"/>
       <use xlink:href="#DejaVuSans-2d" x="127.246094"/>
       <use xlink:href="#DejaVuSans-32" x="163.330078"/>
       <use xlink:href="#DejaVuSans-38" x="226.953125"/>
       <use xlink:href="#DejaVuSans-20" x="290.576172"/>
       <use xlink:href="#DejaVuSans-30" x="322.363281"/>
       <use xlink:href="#DejaVuSans-30" x="385.986328"/>
      </g>
     </g>
    </g>
    <g id="text_21">
     <!-- time -->
     <g transform="translate(188.311406 274.316562) scale(0.1 -0.1)">
      <use xlink:href="#DejaVuSans-74"/>
      <use xlink:href="#DejaVuSans-69" x="39.208984"/>
      <use xlink:href="#DejaVuSans-6d" x="66.992188"/>
      <use xlink:href="#DejaVuSans-65" x="164.404297"/>
     </g>
    </g>
   </g>
   <g id="matplotlib.axis_6">
    <g id="ytick_6">
     <g id="line2d_29">
      <g>
       <use xlink:href="#m893db1b9cf" x="47.72" y="241.856125" style="stroke: #000000; stroke-width: 0.8"/>
      </g>
     </g>
     <g id="text_22">
      <!-- 0.0 -->
      <g transform="translate(24.816875 245.655344) scale(0.1 -0.1)">
       <use xlink:href="#DejaVuSans-30"/>
       <use xlink:href="#DejaVuSans-2e" x="63.623047"/>
       <use xlink:href="#DejaVuSans-30" x="95.410156"/>
      </g>
     </g>
    </g>
    <g id="ytick_7">
     <g id="line2d_30">
      <g>
       <use xlink:href="#m893db1b9cf" x="47.72" y="208.109507" style="stroke: #000000; stroke-width: 0.8"/>
      </g>
     </g>
     <g id="text_23">
      <!-- 0.1 -->
      <g transform="translate(24.816875 211.908726) scale(0.1 -0.1)">
       <use xlink:href="#DejaVuSans-30"/>
       <use xlink:href="#DejaVuSans-2e" x="63.623047"/>
       <use xlink:href="#DejaVuSans-31" x="95.410156"/>
      </g>
     </g>
    </g>
    <g id="ytick_8">
     <g id="line2d_31">
      <g>
       <use xlink:href="#m893db1b9cf" x="47.72" y="174.362889" style="stroke: #000000; stroke-width: 0.8"/>
      </g>
     </g>
     <g id="text_24">
      <!-- 0.2 -->
      <g transform="translate(24.816875 178.162108) scale(0.1 -0.1)">
       <use xlink:href="#DejaVuSans-30"/>
       <use xlink:href="#DejaVuSans-2e" x="63.623047"/>
       <use xlink:href="#DejaVuSans-32" x="95.410156"/>
      </g>
     </g>
    </g>
    <g id="text_25">
     <!-- flow (cms) -->
     <g transform="translate(18.737188 226.02988) rotate(-90) scale(0.1 -0.1)">
      <use xlink:href="#DejaVuSans-66"/>
      <use xlink:href="#DejaVuSans-6c" x="35.205078"/>
      <use xlink:href="#DejaVuSans-6f" x="62.988281"/>
      <use xlink:href="#DejaVuSans-77" x="124.169922"/>
      <use xlink:href="#DejaVuSans-20" x="205.957031"/>
      <use xlink:href="#DejaVuSans-28" x="237.744141"/>
      <use xlink:href="#DejaVuSans-63" x="276.757812"/>
      <use xlink:href="#DejaVuSans-6d" x="331.738281"/>
      <use xlink:href="#DejaVuSans-73" x="429.150391"/>
      <use xlink:href="#DejaVuSans-29" x="481.25"/>
     </g>
    </g>
   </g>
   <g id="line2d_32">
    <path d="M 61.527955 241.856125 
L 67.253992 241.763115 
L 67.892405 241.481663 
L 68.355721 241.052264 
L 68.663615 240.566401 
L 68.821004 240.37091 
L 69.193821 239.407416 
L 69.603035 237.928534 
L 70.184393 234.602812 
L 70.738209 230.202189 
L 72.369161 213.87428 
L 73.344977 201.519496 
L 73.775832 194.129983 
L 74.50376 183.233236 
L 74.57065 184.498383 
L 74.638525 184.229619 
L 74.84018 182.602764 
L 74.973962 183.823354 
L 75.174634 182.299031 
L 75.373338 179.162011 
L 75.505152 180.5738 
L 75.572043 180.37071 
L 75.965517 177.653178 
L 76.030441 178.036352 
L 76.161271 180.245095 
L 76.292101 179.50232 
L 76.551794 174.093513 
L 76.615734 174.735791 
L 76.746564 176.583208 
L 77.13512 173.358935 
L 77.19906 173.560222 
L 77.263983 174.911474 
L 77.327923 174.64982 
L 77.455802 173.911055 
L 77.519742 174.129442 
L 77.584665 174.747151 
L 77.649588 174.584653 
L 77.843374 173.543572 
L 77.908298 173.726417 
L 78.1011 172.795486 
L 78.293903 171.415274 
L 78.357842 171.017038 
L 78.421782 171.093019 
L 78.486705 171.09634 
L 79.064129 167.638062 
L 79.192008 166.233461 
L 79.254964 166.261099 
L 79.383827 168.950352 
L 79.577613 167.88913 
L 79.706476 168.908083 
L 79.898295 167.586124 
L 80.090114 163.40765 
L 80.154053 163.843423 
L 80.344889 168.411819 
L 80.408828 168.071458 
L 80.664587 164.546502 
L 80.728526 164.38774 
L 80.856405 165.700572 
L 80.920345 165.578173 
L 80.983301 165.252889 
L 81.047241 165.401852 
L 81.300048 161.981562 
L 81.426943 164.645339 
L 81.617779 163.606716 
L 81.744674 164.236842 
L 81.933542 163.764326 
L 81.997481 164.087475 
L 82.187333 163.036199 
L 82.314228 164.481454 
L 82.378168 164.361706 
L 83.075602 160.310712 
L 83.138558 161.513129 
L 83.201513 161.380956 
L 83.391365 160.412203 
L 83.51826 161.290805 
L 83.644172 160.918669 
L 83.707128 161.177025 
L 83.959936 159.210991 
L 84.022891 160.345826 
L 84.085847 160.011348 
L 84.274715 159.294842 
L 84.400627 160.858146 
L 84.527522 160.526415 
L 84.590478 160.568644 
L 84.653434 161.008689 
L 84.71639 160.778809 
L 84.843286 160.332224 
L 84.906242 160.446795 
L 84.970181 160.907723 
L 85.033137 160.829318 
L 85.222989 160.422532 
L 85.41284 158.870124 
L 85.538752 159.843137 
L 85.601708 159.737726 
L 85.728603 159.304865 
L 85.791559 160.061871 
L 85.855499 159.646782 
L 86.044367 159.12343 
L 86.171262 160.692675 
L 86.234218 160.604684 
L 86.298158 160.424507 
L 86.361114 159.86086 
L 86.425053 160.070838 
L 86.488009 160.242975 
L 86.550965 160.15014 
L 86.614905 160.002228 
L 86.866728 158.27129 
L 86.930668 158.310177 
L 87.119536 159.754268 
L 87.246431 159.410989 
L 87.435299 161.138023 
L 87.499239 161.072442 
L 87.688106 159.316634 
L 87.815002 159.255663 
L 87.877958 159.507592 
L 88.130765 158.741779 
L 88.319633 159.104159 
L 88.382589 159.068558 
L 88.445545 159.206856 
L 88.698352 158.690046 
L 88.888204 160.062504 
L 88.95116 160.0505 
L 89.014115 159.862298 
L 89.141011 159.226823 
L 89.265939 159.24665 
L 89.328895 159.12891 
L 89.518746 159.929338 
L 89.581702 159.820212 
L 89.771554 158.360741 
L 89.897466 158.386702 
L 89.960422 158.472244 
L 90.149289 158.178635 
L 90.339141 158.741671 
L 90.465053 158.796703 
L 90.71786 159.515994 
L 90.780816 159.441915 
L 90.843772 159.075446 
L 90.906728 159.152017 
L 91.033623 159.281049 
L 91.096579 159.214802 
L 91.222491 158.305545 
L 91.285447 158.359908 
L 91.348403 158.453706 
L 91.60121 160.597649 
L 91.791062 158.837699 
L 91.916974 159.00204 
L 91.979929 159.160519 
L 92.043869 159.039785 
L 92.296676 159.518367 
L 92.422588 158.987477 
L 92.5485 159.252405 
L 92.675396 158.820166 
L 92.801307 159.071973 
L 92.865247 159.453024 
L 92.928203 159.348087 
L 93.117071 159.875536 
L 93.18101 159.841209 
L 93.243966 159.627619 
L 93.306922 159.687908 
L 93.686625 160.455062 
L 93.749581 160.426087 
L 94.003372 161.280905 
L 94.130268 160.730884 
L 94.193223 160.818249 
L 94.320119 161.122753 
L 94.383075 160.973595 
L 94.447015 161.077772 
L 94.57391 161.516243 
L 94.636866 161.152612 
L 94.890657 163.239633 
L 95.017553 161.507914 
L 95.208388 161.924862 
L 95.335283 161.231317 
L 95.778926 163.223741 
L 95.842865 162.641084 
L 96.0337 163.962223 
L 96.16158 162.539488 
L 96.225519 162.691165 
L 96.672113 164.636795 
L 96.799008 163.650394 
L 97.246586 165.598249 
L 97.310525 164.604554 
L 97.502344 166.740924 
L 97.567267 166.4362 
L 97.694163 164.299246 
L 98.14174 167.257417 
L 98.206663 166.402749 
L 98.40045 168.922134 
L 98.529312 167.665762 
L 98.723099 169.337228 
L 98.787038 168.413396 
L 98.850978 168.709973 
L 98.979841 169.969444 
L 99.04378 169.827654 
L 99.173627 168.147136 
L 99.575955 170.325007 
L 99.643829 170.655376 
L 99.781545 169.713277 
L 100.47406 175.747737 
L 100.535049 175.092431 
L 100.597021 175.315346 
L 101.092799 180.20507 
L 101.154771 179.409925 
L 101.217727 179.96794 
L 101.342655 181.336366 
L 101.405611 180.97793 
L 101.530539 178.512951 
L 101.718423 181.311987 
L 101.908275 185.75374 
L 101.973198 186.376589 
L 102.037138 184.723561 
L 102.101077 185.796987 
L 102.29388 187.821437 
L 102.358803 187.309912 
L 102.552589 189.427247 
L 102.815233 197.210111 
L 102.882124 197.649824 
L 103.084763 200.952675 
L 103.703502 206.238437 
L 104.396017 210.363415 
L 105.706287 215.413705 
L 106.706696 217.974294 
L 106.769652 218.003861 
L 107.086399 218.774157 
L 107.406097 219.384132 
L 108.573733 221.522782 
L 109.037049 222.204127 
L 109.102956 222.130609 
L 109.302644 222.696132 
L 109.370518 222.775122 
L 109.436425 222.665085 
L 109.502332 222.728421 
L 110.377813 224.05477 
L 111.134268 225.121557 
L 111.203126 225.065943 
L 111.270017 224.944255 
L 111.469705 225.509736 
L 111.683165 225.869665 
L 111.75399 225.924203 
L 111.968434 226.291622 
L 112.111068 226.284857 
L 117.815465 231.749786 
L 119.04704 232.63932 
L 119.175903 232.655984 
L 119.502487 233.017092 
L 119.971705 233.358762 
L 120.038596 233.274724 
L 120.239268 233.534848 
L 120.307142 233.580651 
L 120.438956 233.43699 
L 121.748242 234.561091 
L 121.953833 234.561067 
L 123.249348 235.499587 
L 123.395917 235.496934 
L 125.024901 236.42678 
L 125.178356 236.321362 
L 125.2541 236.36495 
L 125.528549 236.841104 
L 125.882676 236.856986 
L 126.11876 236.91187 
L 126.505349 237.223888 
L 128.506167 238.039351 
L 128.636013 238.078657 
L 129.758399 238.581936 
L 130.921117 238.959048 
L 131.41296 239.12099 
L 133.210154 239.665802 
L 133.361642 239.684106 
L 133.597727 239.769833 
L 136.277288 240.39631 
L 136.89701 240.492792 
L 140.792408 241.003244 
L 143.625424 241.176547 
L 143.89102 241.162212 
L 144.333678 241.23601 
L 149.911179 241.430656 
L 152.744196 241.498567 
L 154.514831 241.533723 
L 170.362016 241.694398 
L 190.104599 241.76597 
L 254.909848 241.830172 
L 337.687045 241.845442 
L 337.687045 241.845442 
" clip-path="url(#p1d71345bb9)" style="fill: none; stroke: #1f77b4; stroke-width: 1.5; stroke-linecap: square"/>
   </g>
   <g id="patch_13">
    <path d="M 47.72 246.04 
L 47.72 153.99476 
" style="fill: none; stroke: #000000; stroke-width: 0.8; stroke-linejoin: miter; stroke-linecap: square"/>
   </g>
   <g id="patch_14">
    <path d="M 351.495 246.04 
L 351.495 153.99476 
" style="fill: none; stroke: #000000; stroke-width: 0.8; stroke-linejoin: miter; stroke-linecap: square"/>
   </g>
   <g id="patch_15">
    <path d="M 47.72 246.04 
L 351.495 246.04 
" style="fill: none; stroke: #000000; stroke-width: 0.8; stroke-linejoin: miter; stroke-linecap: square"/>
   </g>
   <g id="patch_16">
    <path d="M 47.72 153.99476 
L 351.495 153.99476 
" style="fill: none; stroke: #000000; stroke-width: 0.8; stroke-linejoin: miter; stroke-linecap: square"/>
   </g>
   <g id="text_26">
    <!-- 2 -->
    <g transform="translate(194.1103 177.172008) scale(0.1728 -0.1728)">
     <use xlink:href="#DejaVuSans-32"/>
    </g>
   </g>
  </g>
  <g id="axes_4">
   <g id="patch_17">
    <path d="M 405.425 246.04 
L 709.2 246.04 
L 709.2 153.99476 
L 405.425 153.99476 
z
" style="fill: #ffffff"/>
   </g>
   <g id="matplotlib.axis_7">
    <g id="xtick_22">
     <g id="line2d_33">
      <g>
       <use xlink:href="#mec62c79a23" x="419.232955" y="246.04" style="stroke: #000000; stroke-width: 0.8"/>
      </g>
     </g>
     <g id="text_27">
      <!-- 02-25 00 -->
      <g transform="translate(396.752486 260.638438) scale(0.1 -0.1)">
       <use xlink:href="#DejaVuSans-30"/>
       <use xlink:href="#DejaVuSans-32" x="63.623047"/>
       <use xlink:href="#DejaVuSans-2d" x="127.246094"/>
       <use xlink:href="#DejaVuSans-32" x="163.330078"/>
       <use xlink:href="#DejaVuSans-35" x="226.953125"/>
       <use xlink:href="#DejaVuSans-20" x="290.576172"/>
       <use xlink:href="#DejaVuSans-30" x="322.363281"/>
       <use xlink:href="#DejaVuSans-30" x="385.986328"/>
      </g>
     </g>
    </g>
    <g id="xtick_23">
     <g id="line2d_34">
      <g>
       <use xlink:href="#mec62c79a23" x="461.7282" y="246.04" style="stroke: #000000; stroke-width: 0.8"/>
      </g>
     </g>
     <g id="text_28">
      <!-- 02-25 12 -->
      <g transform="translate(439.247731 260.638438) scale(0.1 -0.1)">
       <use xlink:href="#DejaVuSans-30"/>
       <use xlink:href="#DejaVuSans-32" x="63.623047"/>
       <use xlink:href="#DejaVuSans-2d" x="127.246094"/>
       <use xlink:href="#DejaVuSans-32" x="163.330078"/>
       <use xlink:href="#DejaVuSans-35" x="226.953125"/>
       <use xlink:href="#DejaVuSans-20" x="290.576172"/>
       <use xlink:href="#DejaVuSans-31" x="322.363281"/>
       <use xlink:href="#DejaVuSans-32" x="385.986328"/>
      </g>
     </g>
    </g>
    <g id="xtick_24">
     <g id="line2d_35">
      <g>
       <use xlink:href="#mec62c79a23" x="504.223446" y="246.04" style="stroke: #000000; stroke-width: 0.8"/>
      </g>
     </g>
     <g id="text_29">
      <!-- 02-26 00 -->
      <g transform="translate(481.742977 260.638438) scale(0.1 -0.1)">
       <use xlink:href="#DejaVuSans-30"/>
       <use xlink:href="#DejaVuSans-32" x="63.623047"/>
       <use xlink:href="#DejaVuSans-2d" x="127.246094"/>
       <use xlink:href="#DejaVuSans-32" x="163.330078"/>
       <use xlink:href="#DejaVuSans-36" x="226.953125"/>
       <use xlink:href="#DejaVuSans-20" x="290.576172"/>
       <use xlink:href="#DejaVuSans-30" x="322.363281"/>
       <use xlink:href="#DejaVuSans-30" x="385.986328"/>
      </g>
     </g>
    </g>
    <g id="xtick_25">
     <g id="line2d_36">
      <g>
       <use xlink:href="#mec62c79a23" x="546.718691" y="246.04" style="stroke: #000000; stroke-width: 0.8"/>
      </g>
     </g>
     <g id="text_30">
      <!-- 02-26 12 -->
      <g transform="translate(524.238222 260.638438) scale(0.1 -0.1)">
       <use xlink:href="#DejaVuSans-30"/>
       <use xlink:href="#DejaVuSans-32" x="63.623047"/>
       <use xlink:href="#DejaVuSans-2d" x="127.246094"/>
       <use xlink:href="#DejaVuSans-32" x="163.330078"/>
       <use xlink:href="#DejaVuSans-36" x="226.953125"/>
       <use xlink:href="#DejaVuSans-20" x="290.576172"/>
       <use xlink:href="#DejaVuSans-31" x="322.363281"/>
       <use xlink:href="#DejaVuSans-32" x="385.986328"/>
      </g>
     </g>
    </g>
    <g id="xtick_26">
     <g id="line2d_37">
      <g>
       <use xlink:href="#mec62c79a23" x="589.213937" y="246.04" style="stroke: #000000; stroke-width: 0.8"/>
      </g>
     </g>
     <g id="text_31">
      <!-- 02-27 00 -->
      <g transform="translate(566.733468 260.638438) scale(0.1 -0.1)">
       <use xlink:href="#DejaVuSans-30"/>
       <use xlink:href="#DejaVuSans-32" x="63.623047"/>
       <use xlink:href="#DejaVuSans-2d" x="127.246094"/>
       <use xlink:href="#DejaVuSans-32" x="163.330078"/>
       <use xlink:href="#DejaVuSans-37" x="226.953125"/>
       <use xlink:href="#DejaVuSans-20" x="290.576172"/>
       <use xlink:href="#DejaVuSans-30" x="322.363281"/>
       <use xlink:href="#DejaVuSans-30" x="385.986328"/>
      </g>
     </g>
    </g>
    <g id="xtick_27">
     <g id="line2d_38">
      <g>
       <use xlink:href="#mec62c79a23" x="631.709182" y="246.04" style="stroke: #000000; stroke-width: 0.8"/>
      </g>
     </g>
     <g id="text_32">
      <!-- 02-27 12 -->
      <g transform="translate(609.228713 260.638438) scale(0.1 -0.1)">
       <use xlink:href="#DejaVuSans-30"/>
       <use xlink:href="#DejaVuSans-32" x="63.623047"/>
       <use xlink:href="#DejaVuSans-2d" x="127.246094"/>
       <use xlink:href="#DejaVuSans-32" x="163.330078"/>
       <use xlink:href="#DejaVuSans-37" x="226.953125"/>
       <use xlink:href="#DejaVuSans-20" x="290.576172"/>
       <use xlink:href="#DejaVuSans-31" x="322.363281"/>
       <use xlink:href="#DejaVuSans-32" x="385.986328"/>
      </g>
     </g>
    </g>
    <g id="xtick_28">
     <g id="line2d_39">
      <g>
       <use xlink:href="#mec62c79a23" x="674.204428" y="246.04" style="stroke: #000000; stroke-width: 0.8"/>
      </g>
     </g>
     <g id="text_33">
      <!-- 02-28 00 -->
      <g transform="translate(651.723959 260.638438) scale(0.1 -0.1)">
       <use xlink:href="#DejaVuSans-30"/>
       <use xlink:href="#DejaVuSans-32" x="63.623047"/>
       <use xlink:href="#DejaVuSans-2d" x="127.246094"/>
       <use xlink:href="#DejaVuSans-32" x="163.330078"/>
       <use xlink:href="#DejaVuSans-38" x="226.953125"/>
       <use xlink:href="#DejaVuSans-20" x="290.576172"/>
       <use xlink:href="#DejaVuSans-30" x="322.363281"/>
       <use xlink:href="#DejaVuSans-30" x="385.986328"/>
      </g>
     </g>
    </g>
    <g id="text_34">
     <!-- time -->
     <g transform="translate(546.016406 274.316562) scale(0.1 -0.1)">
      <use xlink:href="#DejaVuSans-74"/>
      <use xlink:href="#DejaVuSans-69" x="39.208984"/>
      <use xlink:href="#DejaVuSans-6d" x="66.992188"/>
      <use xlink:href="#DejaVuSans-65" x="164.404297"/>
     </g>
    </g>
   </g>
   <g id="matplotlib.axis_8">
    <g id="ytick_9">
     <g id="line2d_40">
      <g>
       <use xlink:href="#m893db1b9cf" x="405.425" y="241.856125" style="stroke: #000000; stroke-width: 0.8"/>
      </g>
     </g>
     <g id="text_35">
      <!-- 0.0 -->
      <g transform="translate(382.521875 245.655344) scale(0.1 -0.1)">
       <use xlink:href="#DejaVuSans-30"/>
       <use xlink:href="#DejaVuSans-2e" x="63.623047"/>
       <use xlink:href="#DejaVuSans-30" x="95.410156"/>
      </g>
     </g>
    </g>
    <g id="ytick_10">
     <g id="line2d_41">
      <g>
       <use xlink:href="#m893db1b9cf" x="405.425" y="212.803524" style="stroke: #000000; stroke-width: 0.8"/>
      </g>
     </g>
     <g id="text_36">
      <!-- 0.5 -->
      <g transform="translate(382.521875 216.602743) scale(0.1 -0.1)">
       <use xlink:href="#DejaVuSans-30"/>
       <use xlink:href="#DejaVuSans-2e" x="63.623047"/>
       <use xlink:href="#DejaVuSans-35" x="95.410156"/>
      </g>
     </g>
    </g>
    <g id="ytick_11">
     <g id="line2d_42">
      <g>
       <use xlink:href="#m893db1b9cf" x="405.425" y="183.750923" style="stroke: #000000; stroke-width: 0.8"/>
      </g>
     </g>
     <g id="text_37">
      <!-- 1.0 -->
      <g transform="translate(382.521875 187.550142) scale(0.1 -0.1)">
       <use xlink:href="#DejaVuSans-31"/>
       <use xlink:href="#DejaVuSans-2e" x="63.623047"/>
       <use xlink:href="#DejaVuSans-30" x="95.410156"/>
      </g>
     </g>
    </g>
    <g id="ytick_12">
     <g id="line2d_43">
      <g>
       <use xlink:href="#m893db1b9cf" x="405.425" y="154.698321" style="stroke: #000000; stroke-width: 0.8"/>
      </g>
     </g>
     <g id="text_38">
      <!-- 1.5 -->
      <g transform="translate(382.521875 158.49754) scale(0.1 -0.1)">
       <use xlink:href="#DejaVuSans-31"/>
       <use xlink:href="#DejaVuSans-2e" x="63.623047"/>
       <use xlink:href="#DejaVuSans-35" x="95.410156"/>
      </g>
     </g>
    </g>
    <g id="text_39">
     <!-- depth (m) -->
     <g transform="translate(376.442187 224.932224) rotate(-90) scale(0.1 -0.1)">
      <use xlink:href="#DejaVuSans-64"/>
      <use xlink:href="#DejaVuSans-65" x="63.476562"/>
      <use xlink:href="#DejaVuSans-70" x="125"/>
      <use xlink:href="#DejaVuSans-74" x="188.476562"/>
      <use xlink:href="#DejaVuSans-68" x="227.685547"/>
      <use xlink:href="#DejaVuSans-20" x="291.064453"/>
      <use xlink:href="#DejaVuSans-28" x="322.851562"/>
      <use xlink:href="#DejaVuSans-6d" x="361.865234"/>
      <use xlink:href="#DejaVuSans-29" x="459.277344"/>
     </g>
    </g>
   </g>
   <g id="line2d_44">
    <path d="M 419.232955 241.856125 
L 423.808079 241.757697 
L 424.427802 241.48265 
L 425.047524 240.975597 
L 425.792174 240.049175 
L 426.602732 238.662435 
L 427.242128 237.029086 
L 428.171711 233.943967 
L 430.668307 225.454406 
L 431.868404 221.76746 
L 432.812743 219.12263 
L 433.997101 214.982473 
L 435.483451 209.07724 
L 437.475416 199.831812 
L 439.449674 189.032363 
L 441.979715 174.111436 
L 443.306708 167.975871 
L 444.76158 162.195307 
L 445.520002 160.292396 
L 446.150545 159.308177 
L 446.970939 158.487178 
L 447.665422 158.178635 
L 447.981185 158.291324 
L 448.42286 158.734213 
L 448.864535 159.532067 
L 449.621974 161.54567 
L 450.443352 164.564267 
L 451.644432 170.005845 
L 452.786492 176.079914 
L 454.567948 186.997018 
L 457.625245 207.362815 
L 458.859771 214.973271 
L 460.257589 222.218973 
L 460.857638 224.030216 
L 461.548185 225.46507 
L 462.363661 226.669532 
L 463.349315 227.702162 
L 464.601548 228.673576 
L 466.212826 229.636175 
L 468.563836 230.787265 
L 473.952469 232.963286 
L 481.320279 235.462097 
L 487.872613 237.364526 
L 492.609062 238.530551 
L 496.726773 239.311385 
L 500.533638 239.763556 
L 506.288203 240.189808 
L 512.66249 240.486781 
L 525.676659 240.835044 
L 549.137576 241.142132 
L 586.586511 241.36783 
L 658.031642 241.548435 
L 695.392045 241.598266 
L 695.392045 241.598266 
" clip-path="url(#p4b6847e11c)" style="fill: none; stroke: #1f77b4; stroke-width: 1.5; stroke-linecap: square"/>
   </g>
   <g id="patch_18">
    <path d="M 405.425 246.04 
L 405.425 153.99476 
" style="fill: none; stroke: #000000; stroke-width: 0.8; stroke-linejoin: miter; stroke-linecap: square"/>
   </g>
   <g id="patch_19">
    <path d="M 709.2 246.04 
L 709.2 153.99476 
" style="fill: none; stroke: #000000; stroke-width: 0.8; stroke-linejoin: miter; stroke-linecap: square"/>
   </g>
   <g id="patch_20">
    <path d="M 405.425 246.04 
L 709.2 246.04 
" style="fill: none; stroke: #000000; stroke-width: 0.8; stroke-linejoin: miter; stroke-linecap: square"/>
   </g>
   <g id="patch_21">
    <path d="M 405.425 153.99476 
L 709.2 153.99476 
" style="fill: none; stroke: #000000; stroke-width: 0.8; stroke-linejoin: miter; stroke-linecap: square"/>
   </g>
   <g id="text_40">
    <!-- ('P2', 'depthN') -->
    <g transform="translate(493.2604 177.172008) scale(0.1728 -0.1728)">
     <use xlink:href="#DejaVuSans-28"/>
     <use xlink:href="#DejaVuSans-27" x="39.013672"/>
     <use xlink:href="#DejaVuSans-50" x="66.503906"/>
     <use xlink:href="#DejaVuSans-32" x="126.806641"/>
     <use xlink:href="#DejaVuSans-27" x="190.429688"/>
     <use xlink:href="#DejaVuSans-2c" x="217.919922"/>
     <use xlink:href="#DejaVuSans-20" x="249.707031"/>
     <use xlink:href="#DejaVuSans-27" x="281.494141"/>
     <use xlink:href="#DejaVuSans-64" x="308.984375"/>
     <use xlink:href="#DejaVuSans-65" x="372.460938"/>
     <use xlink:href="#DejaVuSans-70" x="433.984375"/>
     <use xlink:href="#DejaVuSans-74" x="497.460938"/>
     <use xlink:href="#DejaVuSans-68" x="536.669922"/>
     <use xlink:href="#DejaVuSans-4e" x="600.048828"/>
     <use xlink:href="#DejaVuSans-27" x="674.853516"/>
     <use xlink:href="#DejaVuSans-29" x="702.34375"/>
    </g>
   </g>
  </g>
 </g>
 <defs>
  <clipPath id="p82bf317738">
   <rect x="47.72" y="26.88" width="303.775" height="92.04524"/>
  </clipPath>
  <clipPath id="p7c5b1a59dd">
   <rect x="405.425" y="26.88" width="303.775" height="92.04524"/>
  </clipPath>
  <clipPath id="p1d71345bb9">
   <rect x="47.72" y="153.99476" width="303.775" height="92.04524"/>
  </clipPath>
  <clipPath id="p4b6847e11c">
   <rect x="405.425" y="153.99476" width="303.775" height="92.04524"/>
  </clipPath>
 </defs>
</svg>
