<?xml version="1.0" encoding="utf-8" standalone="no"?>
<!DOCTYPE svg PUBLIC "-//W3C//DTD SVG 1.1//EN"
  "http://www.w3.org/Graphics/SVG/1.1/DTD/svg11.dtd">
<svg xmlns:xlink="http://www.w3.org/1999/xlink" width="1152pt" height="576pt" viewBox="0 0 1152 576" xmlns="http://www.w3.org/2000/svg" version="1.1">
 <metadata>
  <rdf:RDF xmlns:dc="http://purl.org/dc/elements/1.1/" xmlns:cc="http://creativecommons.org/ns#" xmlns:rdf="http://www.w3.org/1999/02/22-rdf-syntax-ns#">
   <cc:Work>
    <dc:type rdf:resource="http://purl.org/dc/dcmitype/StillImage"/>
    <dc:date>2025-03-06T20:09:29.523291</dc:date>
    <dc:format>image/svg+xml</dc:format>
    <dc:creator>
     <cc:Agent>
      <dc:title>Matplotlib v3.9.4, https://matplotlib.org/</dc:title>
     </cc:Agent>
    </dc:creator>
   </cc:Work>
  </rdf:RDF>
 </metadata>
 <defs>
  <style type="text/css">*{stroke-linejoin: round; stroke-linecap: butt}</style>
 </defs>
 <g id="figure_1">
  <g id="patch_1">
   <path d="M 0 576 
L 1152 576 
L 1152 0 
L 0 0 
z
" style="fill: #ffffff"/>
  </g>
  <g id="axes_1">
   <g id="patch_2">
    <path d="M 590.4 340.878979 
Q 590.4 372.515632 590.4 403.034251 
" clip-path="url(#p9260db5271)" style="fill: none; stroke: #000000; stroke-opacity: 0.5; stroke-linecap: round"/>
    <path d="M 594.4 395.034251 
L 590.4 403.034251 
L 586.4 395.034251 
z
" clip-path="url(#p9260db5271)" style="fill-opacity: 0.5; stroke: #000000; stroke-opacity: 0.5; stroke-linecap: round"/>
   </g>
   <g id="patch_3">
    <path d="M 405.93719 340.878979 
Q 405.93719 372.515632 405.93719 403.034251 
" clip-path="url(#p9260db5271)" style="fill: none; stroke: #000000; stroke-opacity: 0.5; stroke-linecap: round"/>
    <path d="M 409.93719 395.034251 
L 405.93719 403.034251 
L 401.93719 395.034251 
z
" clip-path="url(#p9260db5271)" style="fill-opacity: 0.5; stroke: #000000; stroke-opacity: 0.5; stroke-linecap: round"/>
   </g>
   <g id="patch_4">
    <path d="M 590.4 157.606252 
Q 590.4 189.242905 590.4 219.761524 
" clip-path="url(#p9260db5271)" style="fill: none; stroke: #000000; stroke-opacity: 0.5; stroke-linecap: round"/>
    <path d="M 594.4 211.761524 
L 590.4 219.761524 
L 586.4 211.761524 
z
" clip-path="url(#p9260db5271)" style="fill-opacity: 0.5; stroke: #000000; stroke-opacity: 0.5; stroke-linecap: round"/>
   </g>
   <g id="patch_5">
    <path d="M 774.86281 157.606252 
Q 774.86281 189.242905 774.86281 219.761524 
" clip-path="url(#p9260db5271)" style="fill: none; stroke: #000000; stroke-opacity: 0.5; stroke-linecap: round"/>
    <path d="M 778.86281 211.761524 
L 774.86281 219.761524 
L 770.86281 211.761524 
z
" clip-path="url(#p9260db5271)" style="fill-opacity: 0.5; stroke: #000000; stroke-opacity: 0.5; stroke-linecap: round"/>
   </g>
   <g id="patch_6">
    <path d="M 405.93719 157.606252 
Q 405.93719 189.242905 405.93719 219.761524 
" clip-path="url(#p9260db5271)" style="fill: none; stroke: #000000; stroke-opacity: 0.5; stroke-linecap: round"/>
    <path d="M 409.93719 211.761524 
L 405.93719 219.761524 
L 401.93719 211.761524 
z
" clip-path="url(#p9260db5271)" style="fill-opacity: 0.5; stroke: #000000; stroke-opacity: 0.5; stroke-linecap: round"/>
   </g>
   <g id="patch_7">
    <path d="M 774.86281 340.878979 
Q 774.86281 372.515632 774.86281 403.034251 
" clip-path="url(#p9260db5271)" style="fill: none; stroke: #000000; stroke-opacity: 0.5; stroke-linecap: round"/>
    <path d="M 778.86281 395.034251 
L 774.86281 403.034251 
L 770.86281 395.034251 
z
" clip-path="url(#p9260db5271)" style="fill-opacity: 0.5; stroke: #000000; stroke-opacity: 0.5; stroke-linecap: round"/>
   </g>
   <g id="patch_8">
    <path d="M 221.47438 340.878979 
Q 221.47438 372.515632 221.47438 403.034251 
" clip-path="url(#p9260db5271)" style="fill: none; stroke: #000000; stroke-opacity: 0.5; stroke-linecap: round"/>
    <path d="M 225.47438 395.034251 
L 221.47438 403.034251 
L 217.47438 395.034251 
z
" clip-path="url(#p9260db5271)" style="fill-opacity: 0.5; stroke: #000000; stroke-opacity: 0.5; stroke-linecap: round"/>
   </g>
   <g id="patch_9">
    <path d="M 959.32562 340.878979 
Q 959.32562 372.515632 959.32562 403.034251 
" clip-path="url(#p9260db5271)" style="fill: none; stroke: #000000; stroke-opacity: 0.5; stroke-linecap: round"/>
    <path d="M 963.32562 395.034251 
L 959.32562 403.034251 
L 955.32562 395.034251 
z
" clip-path="url(#p9260db5271)" style="fill-opacity: 0.5; stroke: #000000; stroke-opacity: 0.5; stroke-linecap: round"/>
   </g>
   <g id="patch_10">
    <path d="M 959.32562 157.606252 
Q 959.32562 189.242905 959.32562 219.761524 
" clip-path="url(#p9260db5271)" style="fill: none; stroke: #000000; stroke-opacity: 0.5; stroke-linecap: round"/>
    <path d="M 963.32562 211.761524 
L 959.32562 219.761524 
L 955.32562 211.761524 
z
" clip-path="url(#p9260db5271)" style="fill-opacity: 0.5; stroke: #000000; stroke-opacity: 0.5; stroke-linecap: round"/>
   </g>
   <g id="patch_11">
    <path d="M 221.47438 157.606252 
Q 221.47438 189.242905 221.47438 219.761524 
" clip-path="url(#p9260db5271)" style="fill: none; stroke: #000000; stroke-opacity: 0.5; stroke-linecap: round"/>
    <path d="M 225.47438 211.761524 
L 221.47438 219.761524 
L 217.47438 211.761524 
z
" clip-path="url(#p9260db5271)" style="fill-opacity: 0.5; stroke: #000000; stroke-opacity: 0.5; stroke-linecap: round"/>
   </g>
  </g>
  <g id="axes_2">
   <g id="patch_12">
    <path d="M 913.851936 496.889569 
L 1004.799304 496.889569 
L 1004.799304 451.415885 
L 913.851936 451.415885 
z
" style="fill: #ffffff"/>
   </g>
   <g id="matplotlib.axis_1"/>
   <g id="matplotlib.axis_2">
    <g id="ytick_1">
     <g id="line2d_1"/>
     <g id="text_1">
      <!-- 0.0 -->
      <g transform="translate(894.448811 498.629599) scale(0.1 -0.1)">
       <defs>
        <path id="DejaVuSans-30" d="M 2034 4250 
Q 1547 4250 1301 3770 
Q 1056 3291 1056 2328 
Q 1056 1369 1301 889 
Q 1547 409 2034 409 
Q 2525 409 2770 889 
Q 3016 1369 3016 2328 
Q 3016 3291 2770 3770 
Q 2525 4250 2034 4250 
z
M 2034 4750 
Q 2819 4750 3233 4129 
Q 3647 3509 3647 2328 
Q 3647 1150 3233 529 
Q 2819 -91 2034 -91 
Q 1250 -91 836 529 
Q 422 1150 422 2328 
Q 422 3509 836 4129 
Q 1250 4750 2034 4750 
z
" transform="scale(0.015625)"/>
        <path id="DejaVuSans-2e" d="M 684 794 
L 1344 794 
L 1344 0 
L 684 0 
L 684 794 
z
" transform="scale(0.015625)"/>
       </defs>
       <use xlink:href="#DejaVuSans-30"/>
       <use xlink:href="#DejaVuSans-2e" x="63.623047"/>
       <use xlink:href="#DejaVuSans-30" x="95.410156"/>
      </g>
     </g>
    </g>
    <g id="ytick_2">
     <g id="line2d_2"/>
     <g id="text_2">
      <!-- 4.8 -->
      <g transform="translate(894.448811 457.28209) scale(0.1 -0.1)">
       <defs>
        <path id="DejaVuSans-34" d="M 2419 4116 
L 825 1625 
L 2419 1625 
L 2419 4116 
z
M 2253 4666 
L 3047 4666 
L 3047 1625 
L 3713 1625 
L 3713 1100 
L 3047 1100 
L 3047 0 
L 2419 0 
L 2419 1100 
L 313 1100 
L 313 1709 
L 2253 4666 
z
" transform="scale(0.015625)"/>
        <path id="DejaVuSans-38" d="M 2034 2216 
Q 1584 2216 1326 1975 
Q 1069 1734 1069 1313 
Q 1069 891 1326 650 
Q 1584 409 2034 409 
Q 2484 409 2743 651 
Q 3003 894 3003 1313 
Q 3003 1734 2745 1975 
Q 2488 2216 2034 2216 
z
M 1403 2484 
Q 997 2584 770 2862 
Q 544 3141 544 3541 
Q 544 4100 942 4425 
Q 1341 4750 2034 4750 
Q 2731 4750 3128 4425 
Q 3525 4100 3525 3541 
Q 3525 3141 3298 2862 
Q 3072 2584 2669 2484 
Q 3125 2378 3379 2068 
Q 3634 1759 3634 1313 
Q 3634 634 3220 271 
Q 2806 -91 2034 -91 
Q 1263 -91 848 271 
Q 434 634 434 1313 
Q 434 1759 690 2068 
Q 947 2378 1403 2484 
z
M 1172 3481 
Q 1172 3119 1398 2916 
Q 1625 2713 2034 2713 
Q 2441 2713 2670 2916 
Q 2900 3119 2900 3481 
Q 2900 3844 2670 4047 
Q 2441 4250 2034 4250 
Q 1625 4250 1398 4047 
Q 1172 3844 1172 3481 
z
" transform="scale(0.015625)"/>
       </defs>
       <use xlink:href="#DejaVuSans-34"/>
       <use xlink:href="#DejaVuSans-2e" x="63.623047"/>
       <use xlink:href="#DejaVuSans-38" x="95.410156"/>
      </g>
     </g>
    </g>
   </g>
   <g id="line2d_3">
    <path d="M 917.985907 494.779874 
L 919.142263 493.993706 
L 920.876796 491.819056 
L 921.454974 490.343348 
L 922.033152 489.267164 
L 922.611329 488.704852 
L 923.189507 489.463505 
L 923.767685 490.766279 
L 924.345863 491.682974 
L 924.924041 492.364877 
L 925.502218 492.808908 
L 926.658574 493.200983 
L 928.393107 493.449943 
L 931.862174 493.682551 
L 933.01853 494.040516 
L 935.331241 494.361282 
L 939.378486 494.570091 
L 947.472975 494.709463 
L 974.069154 494.802653 
L 1000.665333 494.822187 
L 1000.665333 494.822187 
" clip-path="url(#pe3fc97c1aa)" style="fill: none; stroke: #000000; stroke-opacity: 0.6; stroke-width: 1.5; stroke-linecap: square"/>
   </g>
   <g id="line2d_4">
    <path d="M 917.985907 494.779874 
L 919.142263 493.993718 
L 920.876796 491.83269 
L 921.454974 490.735602 
L 922.033152 490.808139 
L 922.611329 490.602908 
L 923.189507 490.259174 
L 924.345863 491.909302 
L 924.924041 492.511694 
L 925.502218 492.880591 
L 926.658574 493.25369 
L 928.393107 493.473102 
L 931.862174 493.69676 
L 933.01853 494.04964 
L 934.753063 494.317872 
L 937.643952 494.515888 
L 943.42573 494.668919 
L 957.301998 494.765448 
L 1000.665333 494.822584 
L 1000.665333 494.822584 
" clip-path="url(#pe3fc97c1aa)" style="fill: none; stroke: #0000ff; stroke-opacity: 0.6; stroke-width: 1.5; stroke-linecap: square"/>
   </g>
   <g id="line2d_5">
    <path d="M 917.985907 494.779874 
L 919.142263 493.993663 
L 920.876796 491.83114 
L 921.454974 490.71538 
L 922.033152 490.737815 
L 922.611329 490.185388 
L 923.189507 490.130068 
L 923.767685 491.209433 
L 924.345863 491.971584 
L 925.502218 492.906319 
L 926.658574 493.252267 
L 928.393107 493.472112 
L 931.862174 493.713119 
L 933.01853 494.05459 
L 935.331241 494.375523 
L 938.800308 494.560858 
L 946.316619 494.704361 
L 969.443731 494.796845 
L 1000.665333 494.822565 
L 1000.665333 494.822565 
" clip-path="url(#pe3fc97c1aa)" style="fill: none; stroke: #008000; stroke-opacity: 0.6; stroke-width: 1.5; stroke-linecap: square"/>
   </g>
   <g id="line2d_6">
    <path d="M 917.985907 494.779874 
L 919.142263 493.993732 
L 920.876796 491.841107 
L 921.454974 490.732922 
L 922.033152 490.760736 
L 922.611329 490.357935 
L 923.189507 490.117934 
L 924.345863 491.875837 
L 924.924041 492.496599 
L 925.502218 492.882241 
L 926.658574 493.25281 
L 928.393107 493.47267 
L 931.862174 493.697249 
L 933.01853 494.048695 
L 934.753063 494.318968 
L 937.643952 494.517488 
L 944.003908 494.67695 
L 958.458353 494.769378 
L 1000.665333 494.822564 
L 1000.665333 494.822564 
" clip-path="url(#pe3fc97c1aa)" style="fill: none; stroke: #ff0000; stroke-opacity: 0.6; stroke-width: 1.5; stroke-linecap: square"/>
   </g>
   <g id="line2d_7">
    <path d="M 917.985907 453.482871 
L 1000.665333 453.482871 
L 1000.665333 453.482871 
" clip-path="url(#pe3fc97c1aa)" style="fill: none; stroke-dasharray: 5.55,2.4; stroke-dashoffset: 0; stroke: #ff0000; stroke-width: 1.5"/>
   </g>
   <g id="text_3">
    <!-- JC5 -->
    <g transform="translate(949.548432 445.415885) scale(0.12 -0.12)">
     <defs>
      <path id="DejaVuSans-4a" d="M 628 4666 
L 1259 4666 
L 1259 325 
Q 1259 -519 939 -900 
Q 619 -1281 -91 -1281 
L -331 -1281 
L -331 -750 
L -134 -750 
Q 284 -750 456 -515 
Q 628 -281 628 325 
L 628 4666 
z
" transform="scale(0.015625)"/>
      <path id="DejaVuSans-43" d="M 4122 4306 
L 4122 3641 
Q 3803 3938 3442 4084 
Q 3081 4231 2675 4231 
Q 1875 4231 1450 3742 
Q 1025 3253 1025 2328 
Q 1025 1406 1450 917 
Q 1875 428 2675 428 
Q 3081 428 3442 575 
Q 3803 722 4122 1019 
L 4122 359 
Q 3791 134 3420 21 
Q 3050 -91 2638 -91 
Q 1578 -91 968 557 
Q 359 1206 359 2328 
Q 359 3453 968 4101 
Q 1578 4750 2638 4750 
Q 3056 4750 3426 4639 
Q 3797 4528 4122 4306 
z
" transform="scale(0.015625)"/>
      <path id="DejaVuSans-35" d="M 691 4666 
L 3169 4666 
L 3169 4134 
L 1269 4134 
L 1269 2991 
Q 1406 3038 1543 3061 
Q 1681 3084 1819 3084 
Q 2600 3084 3056 2656 
Q 3513 2228 3513 1497 
Q 3513 744 3044 326 
Q 2575 -91 1722 -91 
Q 1428 -91 1123 -41 
Q 819 9 494 109 
L 494 744 
Q 775 591 1075 516 
Q 1375 441 1709 441 
Q 2250 441 2565 725 
Q 2881 1009 2881 1497 
Q 2881 1984 2565 2268 
Q 2250 2553 1709 2553 
Q 1456 2553 1204 2497 
Q 953 2441 691 2322 
L 691 4666 
z
" transform="scale(0.015625)"/>
     </defs>
     <use xlink:href="#DejaVuSans-4a"/>
     <use xlink:href="#DejaVuSans-43" x="29.492188"/>
     <use xlink:href="#DejaVuSans-35" x="99.316406"/>
    </g>
   </g>
  </g>
  <g id="axes_3">
   <g id="patch_13">
    <path d="M 729.389126 496.889569 
L 820.336494 496.889569 
L 820.336494 451.415885 
L 729.389126 451.415885 
z
" style="fill: #ffffff"/>
   </g>
   <g id="matplotlib.axis_3"/>
   <g id="matplotlib.axis_4">
    <g id="ytick_3">
     <g id="line2d_8"/>
     <g id="text_4">
      <!-- 0.0 -->
      <g transform="translate(709.986001 498.621802) scale(0.1 -0.1)">
       <use xlink:href="#DejaVuSans-30"/>
       <use xlink:href="#DejaVuSans-2e" x="63.623047"/>
       <use xlink:href="#DejaVuSans-30" x="95.410156"/>
      </g>
     </g>
    </g>
    <g id="ytick_4">
     <g id="line2d_9"/>
     <g id="text_5">
      <!-- 3.0 -->
      <g transform="translate(709.986001 457.28209) scale(0.1 -0.1)">
       <defs>
        <path id="DejaVuSans-33" d="M 2597 2516 
Q 3050 2419 3304 2112 
Q 3559 1806 3559 1356 
Q 3559 666 3084 287 
Q 2609 -91 1734 -91 
Q 1441 -91 1130 -33 
Q 819 25 488 141 
L 488 750 
Q 750 597 1062 519 
Q 1375 441 1716 441 
Q 2309 441 2620 675 
Q 2931 909 2931 1356 
Q 2931 1769 2642 2001 
Q 2353 2234 1838 2234 
L 1294 2234 
L 1294 2753 
L 1863 2753 
Q 2328 2753 2575 2939 
Q 2822 3125 2822 3475 
Q 2822 3834 2567 4026 
Q 2313 4219 1838 4219 
Q 1578 4219 1281 4162 
Q 984 4106 628 3988 
L 628 4550 
Q 988 4650 1302 4700 
Q 1616 4750 1894 4750 
Q 2613 4750 3031 4423 
Q 3450 4097 3450 3541 
Q 3450 3153 3228 2886 
Q 3006 2619 2597 2516 
z
" transform="scale(0.015625)"/>
       </defs>
       <use xlink:href="#DejaVuSans-33"/>
       <use xlink:href="#DejaVuSans-2e" x="63.623047"/>
       <use xlink:href="#DejaVuSans-30" x="95.410156"/>
      </g>
     </g>
    </g>
   </g>
   <g id="line2d_10">
    <path d="M 733.523097 494.822584 
L 735.835808 494.822584 
L 736.413986 494.699717 
L 736.992164 493.151902 
L 737.570342 488.945112 
L 738.148519 485.65309 
L 738.726697 487.012442 
L 739.304875 489.368845 
L 739.883053 491.064005 
L 740.461231 492.251505 
L 741.039408 492.946535 
L 741.617586 493.364412 
L 742.773942 493.847384 
L 744.508475 494.210363 
L 746.821186 494.431025 
L 752.024787 494.622554 
L 763.588343 494.739724 
L 800.013544 494.803145 
L 816.202523 494.809913 
L 816.202523 494.809913 
" clip-path="url(#p98fb98a230)" style="fill: none; stroke: #000000; stroke-opacity: 0.6; stroke-width: 1.5; stroke-linecap: square"/>
   </g>
   <g id="line2d_11">
    <path d="M 733.523097 494.822584 
L 736.992164 494.822507 
L 737.570342 494.195457 
L 738.148519 489.481358 
L 738.726697 488.434743 
L 739.883053 491.538301 
L 740.461231 492.571655 
L 741.039408 493.126525 
L 742.195764 493.775155 
L 743.35212 494.095492 
L 745.664831 494.388154 
L 749.712075 494.582702 
L 758.384743 494.713642 
L 783.824566 494.791228 
L 816.202523 494.810331 
L 816.202523 494.810331 
" clip-path="url(#p98fb98a230)" style="fill: none; stroke: #0000ff; stroke-opacity: 0.6; stroke-width: 1.5; stroke-linecap: square"/>
   </g>
   <g id="line2d_12">
    <path d="M 733.523097 494.822584 
L 736.992164 494.822172 
L 737.570342 493.590226 
L 738.148519 488.522455 
L 738.726697 488.239437 
L 739.304875 490.243441 
L 739.883053 491.655286 
L 740.461231 492.561528 
L 741.039408 493.172034 
L 742.195764 493.774035 
L 743.35212 494.094461 
L 745.664831 494.387522 
L 749.712075 494.583248 
L 758.384743 494.713228 
L 783.246388 494.790501 
L 816.202523 494.810315 
L 816.202523 494.810315 
" clip-path="url(#p98fb98a230)" style="fill: none; stroke: #008000; stroke-opacity: 0.6; stroke-width: 1.5; stroke-linecap: square"/>
   </g>
   <g id="line2d_13">
    <path d="M 733.523097 494.822584 
L 736.992164 494.822445 
L 737.570342 493.986644 
L 738.148519 488.904803 
L 738.726697 488.185893 
L 739.883053 491.474318 
L 740.461231 492.542166 
L 741.039408 493.124132 
L 742.195764 493.77133 
L 743.930297 494.191246 
L 746.243009 494.429496 
L 750.290253 494.598104 
L 759.541098 494.721528 
L 787.293633 494.794753 
L 816.202523 494.81031 
L 816.202523 494.81031 
" clip-path="url(#p98fb98a230)" style="fill: none; stroke: #ff0000; stroke-opacity: 0.6; stroke-width: 1.5; stroke-linecap: square"/>
   </g>
   <g id="line2d_14">
    <path d="M 733.523097 453.482871 
L 816.202523 453.482871 
L 816.202523 453.482871 
" clip-path="url(#p98fb98a230)" style="fill: none; stroke-dasharray: 5.55,2.4; stroke-dashoffset: 0; stroke: #ff0000; stroke-width: 1.5"/>
   </g>
   <g id="text_6">
    <!-- JC4c -->
    <g transform="translate(761.78656 445.415885) scale(0.12 -0.12)">
     <defs>
      <path id="DejaVuSans-63" d="M 3122 3366 
L 3122 2828 
Q 2878 2963 2633 3030 
Q 2388 3097 2138 3097 
Q 1578 3097 1268 2742 
Q 959 2388 959 1747 
Q 959 1106 1268 751 
Q 1578 397 2138 397 
Q 2388 397 2633 464 
Q 2878 531 3122 666 
L 3122 134 
Q 2881 22 2623 -34 
Q 2366 -91 2075 -91 
Q 1284 -91 818 406 
Q 353 903 353 1747 
Q 353 2603 823 3093 
Q 1294 3584 2113 3584 
Q 2378 3584 2631 3529 
Q 2884 3475 3122 3366 
z
" transform="scale(0.015625)"/>
     </defs>
     <use xlink:href="#DejaVuSans-4a"/>
     <use xlink:href="#DejaVuSans-43" x="29.492188"/>
     <use xlink:href="#DejaVuSans-34" x="99.316406"/>
     <use xlink:href="#DejaVuSans-63" x="162.939453"/>
    </g>
   </g>
  </g>
  <g id="axes_4">
   <g id="patch_14">
    <path d="M 544.926316 313.616842 
L 635.873684 313.616842 
L 635.873684 268.143158 
L 544.926316 268.143158 
z
" style="fill: #ffffff"/>
   </g>
   <g id="matplotlib.axis_5"/>
   <g id="matplotlib.axis_6">
    <g id="ytick_5">
     <g id="line2d_15"/>
     <g id="text_7">
      <!-- 0.0 -->
      <g transform="translate(525.523191 315.479406) scale(0.1 -0.1)">
       <use xlink:href="#DejaVuSans-30"/>
       <use xlink:href="#DejaVuSans-2e" x="63.623047"/>
       <use xlink:href="#DejaVuSans-30" x="95.410156"/>
      </g>
     </g>
    </g>
    <g id="ytick_6">
     <g id="line2d_16"/>
     <g id="text_8">
      <!-- 12.0 -->
      <g transform="translate(519.160691 274.009362) scale(0.1 -0.1)">
       <defs>
        <path id="DejaVuSans-31" d="M 794 531 
L 1825 531 
L 1825 4091 
L 703 3866 
L 703 4441 
L 1819 4666 
L 2450 4666 
L 2450 531 
L 3481 531 
L 3481 0 
L 794 0 
L 794 531 
z
" transform="scale(0.015625)"/>
        <path id="DejaVuSans-32" d="M 1228 531 
L 3431 531 
L 3431 0 
L 469 0 
L 469 531 
Q 828 903 1448 1529 
Q 2069 2156 2228 2338 
Q 2531 2678 2651 2914 
Q 2772 3150 2772 3378 
Q 2772 3750 2511 3984 
Q 2250 4219 1831 4219 
Q 1534 4219 1204 4116 
Q 875 4013 500 3803 
L 500 4441 
Q 881 4594 1212 4672 
Q 1544 4750 1819 4750 
Q 2544 4750 2975 4387 
Q 3406 4025 3406 3419 
Q 3406 3131 3298 2873 
Q 3191 2616 2906 2266 
Q 2828 2175 2409 1742 
Q 1991 1309 1228 531 
z
" transform="scale(0.015625)"/>
       </defs>
       <use xlink:href="#DejaVuSans-31"/>
       <use xlink:href="#DejaVuSans-32" x="63.623047"/>
       <use xlink:href="#DejaVuSans-2e" x="127.246094"/>
       <use xlink:href="#DejaVuSans-30" x="159.033203"/>
      </g>
     </g>
    </g>
   </g>
   <g id="line2d_17">
    <path d="M 549.060287 311.549856 
L 549.638465 311.014814 
L 550.216643 310.699619 
L 550.79482 309.697847 
L 551.372998 308.055261 
L 551.951176 301.414238 
L 552.529354 291.6443 
L 553.107532 291.929925 
L 554.263887 294.410029 
L 554.842065 297.062525 
L 555.420243 300.624092 
L 556.576599 308.693014 
L 557.154776 310.071552 
L 558.311132 310.267054 
L 562.358377 310.462638 
L 562.936554 310.558557 
L 563.514732 310.931277 
L 564.671088 311.274172 
L 566.405621 311.420686 
L 571.609221 311.491121 
L 613.238023 311.503228 
L 631.739713 311.503322 
L 631.739713 311.503322 
" clip-path="url(#p56373287c6)" style="fill: none; stroke: #000000; stroke-opacity: 0.6; stroke-width: 1.5; stroke-linecap: square"/>
   </g>
   <g id="line2d_18">
    <path d="M 549.060287 311.549856 
L 549.638465 311.014814 
L 550.216643 310.699636 
L 550.79482 309.697998 
L 551.372998 308.055171 
L 551.951176 301.359131 
L 552.529354 284.606024 
L 553.107532 283.576397 
L 553.68571 289.291937 
L 554.263887 290.61376 
L 554.842065 293.797373 
L 555.998421 302.740675 
L 556.576599 306.984367 
L 557.154776 309.635742 
L 557.732954 310.203996 
L 560.045665 310.363305 
L 562.936554 310.569554 
L 564.09291 311.156284 
L 565.249266 311.346212 
L 568.140155 311.465682 
L 579.703711 311.50085 
L 631.739713 311.503322 
L 631.739713 311.503322 
" clip-path="url(#p56373287c6)" style="fill: none; stroke: #0000ff; stroke-opacity: 0.6; stroke-width: 1.5; stroke-linecap: square"/>
   </g>
   <g id="line2d_19">
    <path d="M 549.060287 311.549856 
L 549.638465 311.014806 
L 550.216643 310.699563 
L 550.79482 309.697572 
L 551.372998 308.054982 
L 551.951176 301.355975 
L 552.529354 284.462891 
L 553.107532 283.554164 
L 553.68571 289.285671 
L 554.263887 290.593281 
L 555.420243 298.191719 
L 556.576599 307.270706 
L 557.154776 309.800968 
L 557.732954 310.2005 
L 560.045665 310.362542 
L 562.358377 310.463934 
L 562.936554 310.599826 
L 564.09291 311.161611 
L 565.249266 311.34659 
L 568.140155 311.465554 
L 578.547355 311.500342 
L 631.739713 311.503322 
L 631.739713 311.503322 
" clip-path="url(#p56373287c6)" style="fill: none; stroke: #008000; stroke-opacity: 0.6; stroke-width: 1.5; stroke-linecap: square"/>
   </g>
   <g id="line2d_20">
    <path d="M 549.060287 311.549856 
L 549.638465 311.014791 
L 550.216643 310.699623 
L 550.79482 309.69791 
L 551.372998 308.055269 
L 551.951176 301.52198 
L 552.529354 284.543169 
L 553.107532 283.231127 
L 553.68571 289.184189 
L 554.263887 290.581997 
L 554.842065 293.755936 
L 555.420243 297.752558 
L 556.576599 307.041779 
L 557.154776 309.650479 
L 557.732954 310.205399 
L 560.045665 310.363563 
L 562.936554 310.570697 
L 564.09291 311.155662 
L 565.249266 311.347015 
L 568.140155 311.465798 
L 579.125533 311.500618 
L 631.739713 311.503322 
L 631.739713 311.503322 
" clip-path="url(#p56373287c6)" style="fill: none; stroke: #ff0000; stroke-opacity: 0.6; stroke-width: 1.5; stroke-linecap: square"/>
   </g>
   <g id="line2d_21">
    <path d="M 549.060287 270.210144 
L 631.739713 270.210144 
L 631.739713 270.210144 
" clip-path="url(#p56373287c6)" style="fill: none; stroke-dasharray: 5.55,2.4; stroke-dashoffset: 0; stroke: #ff0000; stroke-width: 1.5"/>
   </g>
   <g id="text_9">
    <!-- R3 -->
    <g transform="translate(582.413437 262.143158) scale(0.12 -0.12)">
     <defs>
      <path id="DejaVuSans-52" d="M 2841 2188 
Q 3044 2119 3236 1894 
Q 3428 1669 3622 1275 
L 4263 0 
L 3584 0 
L 2988 1197 
Q 2756 1666 2539 1819 
Q 2322 1972 1947 1972 
L 1259 1972 
L 1259 0 
L 628 0 
L 628 4666 
L 2053 4666 
Q 2853 4666 3247 4331 
Q 3641 3997 3641 3322 
Q 3641 2881 3436 2590 
Q 3231 2300 2841 2188 
z
M 1259 4147 
L 1259 2491 
L 2053 2491 
Q 2509 2491 2742 2702 
Q 2975 2913 2975 3322 
Q 2975 3731 2742 3939 
Q 2509 4147 2053 4147 
L 1259 4147 
z
" transform="scale(0.015625)"/>
     </defs>
     <use xlink:href="#DejaVuSans-52"/>
     <use xlink:href="#DejaVuSans-33" x="69.482422"/>
    </g>
   </g>
  </g>
  <g id="axes_5">
   <g id="patch_15">
    <path d="M 360.463506 313.616842 
L 451.410874 313.616842 
L 451.410874 268.143158 
L 360.463506 268.143158 
z
" style="fill: #ffffff"/>
   </g>
   <g id="matplotlib.axis_7"/>
   <g id="matplotlib.axis_8">
    <g id="ytick_7">
     <g id="line2d_22"/>
     <g id="text_10">
      <!-- 0.0 -->
      <g transform="translate(341.060381 315.393211) scale(0.1 -0.1)">
       <use xlink:href="#DejaVuSans-30"/>
       <use xlink:href="#DejaVuSans-2e" x="63.623047"/>
       <use xlink:href="#DejaVuSans-30" x="95.410156"/>
      </g>
     </g>
    </g>
    <g id="ytick_8">
     <g id="line2d_23"/>
     <g id="text_11">
      <!-- 6.0 -->
      <g transform="translate(341.060381 274.009362) scale(0.1 -0.1)">
       <defs>
        <path id="DejaVuSans-36" d="M 2113 2584 
Q 1688 2584 1439 2293 
Q 1191 2003 1191 1497 
Q 1191 994 1439 701 
Q 1688 409 2113 409 
Q 2538 409 2786 701 
Q 3034 994 3034 1497 
Q 3034 2003 2786 2293 
Q 2538 2584 2113 2584 
z
M 3366 4563 
L 3366 3988 
Q 3128 4100 2886 4159 
Q 2644 4219 2406 4219 
Q 1781 4219 1451 3797 
Q 1122 3375 1075 2522 
Q 1259 2794 1537 2939 
Q 1816 3084 2150 3084 
Q 2853 3084 3261 2657 
Q 3669 2231 3669 1497 
Q 3669 778 3244 343 
Q 2819 -91 2113 -91 
Q 1303 -91 875 529 
Q 447 1150 447 2328 
Q 447 3434 972 4092 
Q 1497 4750 2381 4750 
Q 2619 4750 2861 4703 
Q 3103 4656 3366 4563 
z
" transform="scale(0.015625)"/>
       </defs>
       <use xlink:href="#DejaVuSans-36"/>
       <use xlink:href="#DejaVuSans-2e" x="63.623047"/>
       <use xlink:href="#DejaVuSans-30" x="95.410156"/>
      </g>
     </g>
    </g>
   </g>
   <g id="line2d_24">
    <path d="M 364.597477 311.493202 
L 365.753833 311.089266 
L 367.488366 309.232191 
L 368.066544 307.391299 
L 368.644722 307.780514 
L 369.2229 309.574958 
L 369.801077 310.137797 
L 370.379255 310.434473 
L 372.691966 310.894294 
L 378.473744 311.139407 
L 379.6301 311.416646 
L 382.520989 311.522087 
L 396.397256 311.54861 
L 447.276903 311.549856 
L 447.276903 311.549856 
" clip-path="url(#p7d10082de9)" style="fill: none; stroke: #000000; stroke-opacity: 0.6; stroke-width: 1.5; stroke-linecap: square"/>
   </g>
   <g id="line2d_25">
    <path d="M 364.597477 311.493202 
L 365.753833 311.089275 
L 367.488366 309.186239 
L 368.066544 297.608212 
L 368.644722 292.260118 
L 369.2229 308.144359 
L 369.801077 310.149621 
L 370.379255 310.435411 
L 372.691966 310.890305 
L 376.739211 311.017352 
L 378.473744 311.150589 
L 379.6301 311.416887 
L 382.520989 311.521989 
L 395.819079 311.548519 
L 447.276903 311.549856 
L 447.276903 311.549856 
" clip-path="url(#p7d10082de9)" style="fill: none; stroke: #0000ff; stroke-opacity: 0.6; stroke-width: 1.5; stroke-linecap: square"/>
   </g>
   <g id="line2d_26">
    <path d="M 364.597477 311.493202 
L 365.753833 311.089234 
L 367.488366 309.183298 
L 368.066544 297.246241 
L 368.644722 292.386645 
L 369.2229 308.09631 
L 369.801077 310.146084 
L 370.379255 310.447495 
L 372.691966 310.893615 
L 378.473744 311.167851 
L 379.6301 311.418919 
L 382.520989 311.522766 
L 397.553612 311.548785 
L 447.276903 311.549856 
L 447.276903 311.549856 
" clip-path="url(#p7d10082de9)" style="fill: none; stroke: #008000; stroke-opacity: 0.6; stroke-width: 1.5; stroke-linecap: square"/>
   </g>
   <g id="line2d_27">
    <path d="M 364.597477 311.493202 
L 365.753833 311.089275 
L 367.488366 309.191926 
L 368.066544 295.679023 
L 368.644722 290.677045 
L 369.2229 306.360993 
L 369.801077 310.14624 
L 370.379255 310.435055 
L 372.691966 310.890996 
L 376.739211 311.017431 
L 378.473744 311.151725 
L 379.6301 311.416699 
L 382.520989 311.52267 
L 396.397256 311.548618 
L 447.276903 311.549856 
L 447.276903 311.549856 
" clip-path="url(#p7d10082de9)" style="fill: none; stroke: #ff0000; stroke-opacity: 0.6; stroke-width: 1.5; stroke-linecap: square"/>
   </g>
   <g id="line2d_28">
    <path d="M 364.597477 270.210144 
L 447.276903 270.210144 
L 447.276903 270.210144 
" clip-path="url(#p7d10082de9)" style="fill: none; stroke-dasharray: 5.55,2.4; stroke-dashoffset: 0; stroke: #ff0000; stroke-width: 1.5"/>
   </g>
   <g id="text_12">
    <!-- R2 -->
    <g transform="translate(397.950628 262.143158) scale(0.12 -0.12)">
     <use xlink:href="#DejaVuSans-52"/>
     <use xlink:href="#DejaVuSans-32" x="69.482422"/>
    </g>
   </g>
  </g>
  <g id="axes_6">
   <g id="patch_16">
    <path d="M 544.926316 130.344115 
L 635.873684 130.344115 
L 635.873684 84.870431 
L 544.926316 84.870431 
z
" style="fill: #ffffff"/>
   </g>
   <g id="matplotlib.axis_9"/>
   <g id="matplotlib.axis_10">
    <g id="ytick_9">
     <g id="line2d_29"/>
     <g id="text_13">
      <!-- 0.0 -->
      <g transform="translate(525.523191 132.381464) scale(0.1 -0.1)">
       <use xlink:href="#DejaVuSans-30"/>
       <use xlink:href="#DejaVuSans-2e" x="63.623047"/>
       <use xlink:href="#DejaVuSans-30" x="95.410156"/>
      </g>
     </g>
    </g>
    <g id="ytick_10">
     <g id="line2d_30"/>
     <g id="text_14">
      <!-- 4.8 -->
      <g transform="translate(525.523191 90.736635) scale(0.1 -0.1)">
       <use xlink:href="#DejaVuSans-34"/>
       <use xlink:href="#DejaVuSans-2e" x="63.623047"/>
       <use xlink:href="#DejaVuSans-38" x="95.410156"/>
      </g>
     </g>
    </g>
   </g>
   <g id="line2d_31">
    <path d="M 549.060287 128.05626 
L 549.638465 127.380085 
L 550.216643 126.950147 
L 550.79482 125.631123 
L 551.372998 124.821734 
L 551.951176 123.486293 
L 552.529354 120.868827 
L 553.107532 122.198251 
L 553.68571 124.31333 
L 554.263887 125.258056 
L 554.842065 125.758195 
L 557.154776 126.612487 
L 560.623843 126.831053 
L 562.358377 126.918002 
L 562.936554 127.156549 
L 563.514732 127.665116 
L 564.671088 128.016143 
L 566.405621 128.177051 
L 571.031044 128.257696 
L 598.2054 128.276615 
L 631.739713 128.277129 
L 631.739713 128.277129 
" clip-path="url(#p200bc00668)" style="fill: none; stroke: #000000; stroke-opacity: 0.6; stroke-width: 1.5; stroke-linecap: square"/>
   </g>
   <g id="line2d_32">
    <path d="M 549.060287 128.05626 
L 549.638465 127.380085 
L 550.216643 126.95017 
L 550.79482 125.631261 
L 551.372998 124.82171 
L 551.951176 123.476825 
L 552.529354 112.278385 
L 553.107532 112.888295 
L 553.68571 124.323672 
L 554.263887 125.276425 
L 554.842065 125.759834 
L 557.154776 126.604675 
L 560.045665 126.804025 
L 562.358377 126.91941 
L 562.936554 127.184097 
L 563.514732 127.653803 
L 564.09291 127.897176 
L 565.249266 128.093702 
L 567.561977 128.217208 
L 575.078288 128.269387 
L 631.739713 128.277129 
L 631.739713 128.277129 
" clip-path="url(#p200bc00668)" style="fill: none; stroke: #0000ff; stroke-opacity: 0.6; stroke-width: 1.5; stroke-linecap: square"/>
   </g>
   <g id="line2d_33">
    <path d="M 549.060287 128.05626 
L 549.638465 127.380085 
L 550.216643 126.950063 
L 550.79482 125.630848 
L 551.372998 124.821604 
L 551.951176 123.474505 
L 552.529354 111.782711 
L 553.107532 112.783643 
L 553.68571 124.31316 
L 554.263887 125.269887 
L 554.842065 125.779482 
L 557.154776 126.610925 
L 560.623843 126.830289 
L 562.358377 126.918891 
L 562.936554 127.227055 
L 563.514732 127.678876 
L 564.671088 128.019619 
L 566.405621 128.178701 
L 571.031044 128.257683 
L 598.2054 128.276615 
L 631.739713 128.277129 
L 631.739713 128.277129 
" clip-path="url(#p200bc00668)" style="fill: none; stroke: #008000; stroke-opacity: 0.6; stroke-width: 1.5; stroke-linecap: square"/>
   </g>
   <g id="line2d_34">
    <path d="M 549.060287 128.05626 
L 549.638465 127.380085 
L 550.216643 126.950194 
L 550.79482 125.631091 
L 551.372998 124.82172 
L 551.951176 123.48865 
L 552.529354 112.148132 
L 553.107532 112.556565 
L 553.68571 124.299677 
L 554.263887 125.270267 
L 554.842065 125.759165 
L 557.154776 126.605874 
L 560.045665 126.804184 
L 562.358377 126.919513 
L 562.936554 127.187067 
L 563.514732 127.653941 
L 564.09291 127.896637 
L 565.249266 128.09459 
L 567.561977 128.218291 
L 575.078288 128.269362 
L 631.739713 128.277129 
L 631.739713 128.277129 
" clip-path="url(#p200bc00668)" style="fill: none; stroke: #ff0000; stroke-opacity: 0.6; stroke-width: 1.5; stroke-linecap: square"/>
   </g>
   <g id="line2d_35">
    <path d="M 549.060287 86.937416 
L 631.739713 86.937416 
L 631.739713 86.937416 
" clip-path="url(#p200bc00668)" style="fill: none; stroke-dasharray: 5.55,2.4; stroke-dashoffset: 0; stroke: #ff0000; stroke-width: 1.5"/>
   </g>
   <g id="text_15">
    <!-- J3 -->
    <g transform="translate(584.8125 78.870431) scale(0.12 -0.12)">
     <use xlink:href="#DejaVuSans-4a"/>
     <use xlink:href="#DejaVuSans-33" x="29.492188"/>
    </g>
   </g>
  </g>
  <g id="axes_7">
   <g id="patch_17">
    <path d="M 729.389126 130.344115 
L 820.336494 130.344115 
L 820.336494 84.870431 
L 729.389126 84.870431 
z
" style="fill: #ffffff"/>
   </g>
   <g id="matplotlib.axis_11"/>
   <g id="matplotlib.axis_12">
    <g id="ytick_11">
     <g id="line2d_36"/>
     <g id="text_16">
      <!-- 0.0 -->
      <g transform="translate(709.986001 132.557029) scale(0.1 -0.1)">
       <use xlink:href="#DejaVuSans-30"/>
       <use xlink:href="#DejaVuSans-2e" x="63.623047"/>
       <use xlink:href="#DejaVuSans-30" x="95.410156"/>
      </g>
     </g>
    </g>
    <g id="ytick_12">
     <g id="line2d_37"/>
     <g id="text_17">
      <!-- 4.2 -->
      <g transform="translate(709.986001 90.736635) scale(0.1 -0.1)">
       <use xlink:href="#DejaVuSans-34"/>
       <use xlink:href="#DejaVuSans-2e" x="63.623047"/>
       <use xlink:href="#DejaVuSans-32" x="95.410156"/>
      </g>
     </g>
    </g>
   </g>
   <g id="line2d_38">
    <path d="M 733.523097 128.233348 
L 734.101275 127.131697 
L 734.679453 126.456801 
L 736.413986 120.941721 
L 736.992164 117.008544 
L 737.570342 118.000248 
L 738.148519 121.453354 
L 738.726697 123.087544 
L 739.304875 123.982525 
L 741.039408 125.297113 
L 742.195764 125.579536 
L 745.664831 125.920987 
L 746.821186 126.011049 
L 747.399364 126.261215 
L 747.977542 126.91308 
L 748.55572 127.289949 
L 749.712075 127.695931 
L 751.446609 127.97528 
L 754.337498 128.146164 
L 761.275632 128.24422 
L 789.606344 128.275359 
L 816.202523 128.277127 
L 816.202523 128.277127 
" clip-path="url(#p13a5229378)" style="fill: none; stroke: #000000; stroke-opacity: 0.6; stroke-width: 1.5; stroke-linecap: square"/>
   </g>
   <g id="line2d_39">
    <path d="M 733.523097 128.233348 
L 734.101275 127.131697 
L 734.679453 126.456827 
L 736.413986 120.938067 
L 736.992164 117.527868 
L 737.570342 118.736844 
L 738.148519 121.971264 
L 738.726697 123.537924 
L 739.304875 124.308675 
L 739.883053 124.429111 
L 741.039408 125.27639 
L 742.195764 125.581498 
L 745.664831 125.921274 
L 746.821186 126.014296 
L 747.399364 126.289911 
L 747.977542 126.896362 
L 748.55572 127.29191 
L 749.712075 127.697248 
L 751.446609 127.974504 
L 754.337498 128.148249 
L 761.275632 128.244544 
L 790.184522 128.27545 
L 816.202523 128.277129 
L 816.202523 128.277129 
" clip-path="url(#p13a5229378)" style="fill: none; stroke: #0000ff; stroke-opacity: 0.6; stroke-width: 1.5; stroke-linecap: square"/>
   </g>
   <g id="line2d_40">
    <path d="M 733.523097 128.233348 
L 734.101275 127.131697 
L 734.679453 126.456707 
L 736.413986 120.90739 
L 736.992164 117.631841 
L 737.570342 118.622457 
L 738.148519 121.953943 
L 738.726697 123.527742 
L 739.304875 124.427737 
L 739.883053 124.519113 
L 741.617586 125.470765 
L 743.35212 125.701467 
L 746.821186 126.013109 
L 747.399364 126.343173 
L 747.977542 126.932465 
L 748.55572 127.302424 
L 749.712075 127.698598 
L 751.446609 127.981473 
L 754.915676 128.163448 
L 762.431987 128.249633 
L 797.122655 128.276191 
L 816.202523 128.277127 
L 816.202523 128.277127 
" clip-path="url(#p13a5229378)" style="fill: none; stroke: #008000; stroke-opacity: 0.6; stroke-width: 1.5; stroke-linecap: square"/>
   </g>
   <g id="line2d_41">
    <path d="M 733.523097 128.233348 
L 734.101275 127.131697 
L 734.679453 126.45019 
L 736.413986 120.95821 
L 736.992164 117.356248 
L 737.570342 118.618823 
L 738.148519 121.928229 
L 738.726697 123.242847 
L 739.304875 123.977557 
L 741.039408 125.279742 
L 742.195764 125.570128 
L 745.086653 125.873148 
L 746.821186 126.012152 
L 747.399364 126.287037 
L 747.977542 126.891401 
L 748.55572 127.288245 
L 749.712075 127.699142 
L 751.446609 127.980671 
L 754.337498 128.147604 
L 761.275632 128.244452 
L 789.606344 128.275366 
L 816.202523 128.277121 
L 816.202523 128.277121 
" clip-path="url(#p13a5229378)" style="fill: none; stroke: #ff0000; stroke-opacity: 0.6; stroke-width: 1.5; stroke-linecap: square"/>
   </g>
   <g id="line2d_42">
    <path d="M 733.523097 86.937416 
L 816.202523 86.937416 
L 816.202523 86.937416 
" clip-path="url(#p13a5229378)" style="fill: none; stroke-dasharray: 5.55,2.4; stroke-dashoffset: 0; stroke: #ff0000; stroke-width: 1.5"/>
   </g>
   <g id="text_18">
    <!-- J4 -->
    <g transform="translate(769.27531 78.870431) scale(0.12 -0.12)">
     <use xlink:href="#DejaVuSans-4a"/>
     <use xlink:href="#DejaVuSans-34" x="29.492188"/>
    </g>
   </g>
  </g>
  <g id="axes_8">
   <g id="patch_18">
    <path d="M 360.463506 130.344115 
L 451.410874 130.344115 
L 451.410874 84.870431 
L 360.463506 84.870431 
z
" style="fill: #ffffff"/>
   </g>
   <g id="matplotlib.axis_13"/>
   <g id="matplotlib.axis_14">
    <g id="ytick_13">
     <g id="line2d_43"/>
     <g id="text_19">
      <!-- 0.0 -->
      <g transform="translate(341.060381 132.502063) scale(0.1 -0.1)">
       <use xlink:href="#DejaVuSans-30"/>
       <use xlink:href="#DejaVuSans-2e" x="63.623047"/>
       <use xlink:href="#DejaVuSans-30" x="95.410156"/>
      </g>
     </g>
    </g>
    <g id="ytick_14">
     <g id="line2d_44"/>
     <g id="text_20">
      <!-- 4.2 -->
      <g transform="translate(341.060381 90.736635) scale(0.1 -0.1)">
       <use xlink:href="#DejaVuSans-34"/>
       <use xlink:href="#DejaVuSans-2e" x="63.623047"/>
       <use xlink:href="#DejaVuSans-32" x="95.410156"/>
      </g>
     </g>
    </g>
   </g>
   <g id="line2d_45">
    <path d="M 364.597477 128.016724 
L 365.175655 127.037349 
L 365.753833 126.435783 
L 366.332011 124.686105 
L 366.910188 123.484972 
L 367.488366 121.516653 
L 368.066544 116.157486 
L 368.644722 118.516806 
L 369.2229 122.640662 
L 369.801077 123.989608 
L 370.379255 124.688502 
L 372.691966 125.889596 
L 375.582855 126.161856 
L 377.895567 126.319667 
L 378.473744 126.646132 
L 379.051922 127.299556 
L 379.6301 127.61703 
L 380.786456 127.923012 
L 382.520989 128.112539 
L 386.568234 128.228981 
L 400.444501 128.272063 
L 447.276903 128.277128 
L 447.276903 128.277128 
" clip-path="url(#p6e4d34fec0)" style="fill: none; stroke: #000000; stroke-opacity: 0.6; stroke-width: 1.5; stroke-linecap: square"/>
   </g>
   <g id="line2d_46">
    <path d="M 364.597477 128.016724 
L 365.175655 127.037349 
L 365.753833 126.435809 
L 366.332011 124.686299 
L 366.910188 123.484941 
L 367.488366 121.513793 
L 368.066544 105.803857 
L 368.644722 108.286772 
L 369.2229 122.803652 
L 369.801077 124.014715 
L 370.379255 124.691728 
L 372.691966 125.878319 
L 374.4265 126.05715 
L 377.895567 126.321795 
L 378.473744 126.683397 
L 379.051922 127.284797 
L 379.6301 127.618878 
L 380.786456 127.923898 
L 382.520989 128.112065 
L 385.990056 128.22232 
L 398.13179 128.27051 
L 447.276903 128.277129 
L 447.276903 128.277129 
" clip-path="url(#p6e4d34fec0)" style="fill: none; stroke: #0000ff; stroke-opacity: 0.6; stroke-width: 1.5; stroke-linecap: square"/>
   </g>
   <g id="line2d_47">
    <path d="M 364.597477 128.016724 
L 365.175655 127.037349 
L 365.753833 126.435684 
L 366.332011 124.685713 
L 366.910188 123.484792 
L 367.488366 121.510131 
L 368.066544 105.221329 
L 368.644722 108.236503 
L 369.2229 122.790991 
L 369.801077 124.005057 
L 370.379255 124.719552 
L 372.113789 125.764568 
L 373.270144 125.96501 
L 377.895567 126.320991 
L 378.473744 126.736443 
L 379.051922 127.317298 
L 379.6301 127.62712 
L 380.786456 127.925014 
L 382.520989 128.116357 
L 387.146411 128.235139 
L 403.913568 128.273643 
L 447.276903 128.277128 
L 447.276903 128.277128 
" clip-path="url(#p6e4d34fec0)" style="fill: none; stroke: #008000; stroke-opacity: 0.6; stroke-width: 1.5; stroke-linecap: square"/>
   </g>
   <g id="line2d_48">
    <path d="M 364.597477 128.016724 
L 365.175655 127.037349 
L 365.753833 126.435852 
L 366.332011 124.686052 
L 366.910188 123.484963 
L 367.488366 121.529105 
L 368.066544 104.781574 
L 368.644722 106.929188 
L 369.2229 122.633348 
L 369.801077 124.006026 
L 370.379255 124.689893 
L 372.691966 125.880105 
L 374.4265 126.051139 
L 376.739211 126.242717 
L 377.895567 126.321948 
L 378.473744 126.68767 
L 379.051922 127.285037 
L 379.6301 127.618133 
L 380.786456 127.925307 
L 382.520989 128.115825 
L 386.568234 128.2295 
L 401.022679 128.272407 
L 447.276903 128.277129 
L 447.276903 128.277129 
" clip-path="url(#p6e4d34fec0)" style="fill: none; stroke: #ff0000; stroke-opacity: 0.6; stroke-width: 1.5; stroke-linecap: square"/>
   </g>
   <g id="line2d_49">
    <path d="M 364.597477 86.937416 
L 447.276903 86.937416 
L 447.276903 86.937416 
" clip-path="url(#p6e4d34fec0)" style="fill: none; stroke-dasharray: 5.55,2.4; stroke-dashoffset: 0; stroke: #ff0000; stroke-width: 1.5"/>
   </g>
   <g id="text_21">
    <!-- J2 -->
    <g transform="translate(400.34969 78.870431) scale(0.12 -0.12)">
     <use xlink:href="#DejaVuSans-4a"/>
     <use xlink:href="#DejaVuSans-32" x="29.492188"/>
    </g>
   </g>
  </g>
  <g id="axes_9">
   <g id="patch_19">
    <path d="M 729.389126 313.616842 
L 820.336494 313.616842 
L 820.336494 268.143158 
L 729.389126 268.143158 
z
" style="fill: #ffffff"/>
   </g>
   <g id="matplotlib.axis_15"/>
   <g id="matplotlib.axis_16">
    <g id="ytick_15">
     <g id="line2d_50"/>
     <g id="text_22">
      <!-- 0.0 -->
      <g transform="translate(709.986001 315.404232) scale(0.1 -0.1)">
       <use xlink:href="#DejaVuSans-30"/>
       <use xlink:href="#DejaVuSans-2e" x="63.623047"/>
       <use xlink:href="#DejaVuSans-30" x="95.410156"/>
      </g>
     </g>
    </g>
    <g id="ytick_16">
     <g id="line2d_51"/>
     <g id="text_23">
      <!-- 6.2 -->
      <g transform="translate(709.986001 274.009362) scale(0.1 -0.1)">
       <use xlink:href="#DejaVuSans-36"/>
       <use xlink:href="#DejaVuSans-2e" x="63.623047"/>
       <use xlink:href="#DejaVuSans-32" x="95.410156"/>
      </g>
     </g>
    </g>
   </g>
   <g id="line2d_52">
    <path d="M 733.523097 311.541721 
L 734.679453 311.06743 
L 735.835808 309.619931 
L 736.413986 308.713007 
L 736.992164 307.271043 
L 737.570342 307.238592 
L 738.148519 308.717216 
L 738.726697 309.481556 
L 739.304875 309.947943 
L 741.039408 310.559649 
L 742.773942 310.718055 
L 747.399364 310.935718 
L 748.55572 311.296687 
L 750.290253 311.447008 
L 754.915676 311.52627 
L 780.933677 311.546791 
L 816.202523 311.547419 
L 816.202523 311.547419 
" clip-path="url(#pb476c9140c)" style="fill: none; stroke: #000000; stroke-opacity: 0.6; stroke-width: 1.5; stroke-linecap: square"/>
   </g>
   <g id="line2d_53">
    <path d="M 733.523097 311.541721 
L 734.679453 311.06744 
L 735.835808 309.619862 
L 736.413986 308.647475 
L 736.992164 305.219412 
L 737.570342 290.597264 
L 738.148519 290.744745 
L 739.304875 308.212286 
L 739.883053 310.177328 
L 741.039408 310.549707 
L 742.773942 310.719769 
L 747.399364 310.944198 
L 748.55572 311.296979 
L 750.290253 311.447501 
L 754.915676 311.526604 
L 781.511855 311.546824 
L 816.202523 311.547419 
L 816.202523 311.547419 
" clip-path="url(#pb476c9140c)" style="fill: none; stroke: #0000ff; stroke-opacity: 0.6; stroke-width: 1.5; stroke-linecap: square"/>
   </g>
   <g id="line2d_54">
    <path d="M 733.523097 311.541721 
L 734.679453 311.067396 
L 735.835808 309.619706 
L 736.413986 308.704236 
L 736.992164 303.693029 
L 737.570342 286.929775 
L 738.148519 285.804767 
L 738.726697 293.728983 
L 739.304875 305.577482 
L 739.883053 310.227586 
L 742.195764 310.685843 
L 747.399364 310.964042 
L 748.55572 311.300161 
L 750.868431 311.470151 
L 756.650209 311.53348 
L 800.591722 311.547302 
L 816.202523 311.547419 
L 816.202523 311.547419 
" clip-path="url(#pb476c9140c)" style="fill: none; stroke: #008000; stroke-opacity: 0.6; stroke-width: 1.5; stroke-linecap: square"/>
   </g>
   <g id="line2d_55">
    <path d="M 733.523097 311.541721 
L 734.679453 311.090881 
L 735.25763 310.46818 
L 736.413986 308.67139 
L 736.992164 306.059883 
L 737.570342 297.193967 
L 738.726697 309.223289 
L 739.304875 309.948731 
L 741.039408 310.552688 
L 742.195764 310.720618 
L 745.086653 310.807169 
L 747.977542 311.172052 
L 749.133898 311.369571 
L 752.024787 311.498082 
L 758.96292 311.539047 
L 816.202523 311.547418 
L 816.202523 311.547418 
" clip-path="url(#pb476c9140c)" style="fill: none; stroke: #ff0000; stroke-opacity: 0.6; stroke-width: 1.5; stroke-linecap: square"/>
   </g>
   <g id="line2d_56">
    <path d="M 733.523097 270.210144 
L 816.202523 270.210144 
L 816.202523 270.210144 
" clip-path="url(#pb476c9140c)" style="fill: none; stroke-dasharray: 5.55,2.4; stroke-dashoffset: 0; stroke: #ff0000; stroke-width: 1.5"/>
   </g>
   <g id="text_24">
    <!-- R4 -->
    <g transform="translate(766.876247 262.143158) scale(0.12 -0.12)">
     <use xlink:href="#DejaVuSans-52"/>
     <use xlink:href="#DejaVuSans-34" x="69.482422"/>
    </g>
   </g>
  </g>
  <g id="axes_10">
   <g id="patch_20">
    <path d="M 544.926316 496.889569 
L 635.873684 496.889569 
L 635.873684 451.415885 
L 544.926316 451.415885 
z
" style="fill: #ffffff"/>
   </g>
   <g id="matplotlib.axis_17"/>
   <g id="matplotlib.axis_18">
    <g id="ytick_17">
     <g id="line2d_57"/>
     <g id="text_25">
      <!-- 0.0 -->
      <g transform="translate(525.523191 498.621802) scale(0.1 -0.1)">
       <use xlink:href="#DejaVuSans-30"/>
       <use xlink:href="#DejaVuSans-2e" x="63.623047"/>
       <use xlink:href="#DejaVuSans-30" x="95.410156"/>
      </g>
     </g>
    </g>
    <g id="ytick_18">
     <g id="line2d_58"/>
     <g id="text_26">
      <!-- 12.0 -->
      <g transform="translate(519.160691 457.28209) scale(0.1 -0.1)">
       <use xlink:href="#DejaVuSans-31"/>
       <use xlink:href="#DejaVuSans-32" x="63.623047"/>
       <use xlink:href="#DejaVuSans-2e" x="127.246094"/>
       <use xlink:href="#DejaVuSans-30" x="159.033203"/>
      </g>
     </g>
    </g>
   </g>
   <g id="line2d_59">
    <path d="M 549.060287 494.822584 
L 551.951176 494.822584 
L 552.529354 475.430497 
L 553.107532 475.712473 
L 553.68571 476.614692 
L 554.263887 477.273309 
L 554.842065 477.505994 
L 557.154776 477.583739 
L 581.438244 477.597152 
L 631.739713 477.597362 
L 631.739713 477.597362 
" clip-path="url(#p7ef57ba8c3)" style="fill: none; stroke: #000000; stroke-opacity: 0.6; stroke-width: 1.5; stroke-linecap: square"/>
   </g>
   <g id="line2d_60">
    <path d="M 549.060287 494.822584 
L 551.951176 494.822584 
L 552.529354 480.601556 
L 553.107532 475.57783 
L 553.68571 476.705352 
L 554.263887 477.353383 
L 554.842065 477.517859 
L 557.154776 477.584008 
L 579.703711 477.597101 
L 631.739713 477.597362 
L 631.739713 477.597362 
" clip-path="url(#p7ef57ba8c3)" style="fill: none; stroke: #0000ff; stroke-opacity: 0.6; stroke-width: 1.5; stroke-linecap: square"/>
   </g>
   <g id="line2d_61">
    <path d="M 549.060287 494.822584 
L 551.951176 494.822584 
L 552.529354 480.015682 
L 553.107532 475.628255 
L 553.68571 476.701044 
L 554.263887 477.351797 
L 554.842065 477.522403 
L 557.732954 477.587079 
L 590.689089 477.597349 
L 631.739713 477.597362 
L 631.739713 477.597362 
" clip-path="url(#p7ef57ba8c3)" style="fill: none; stroke: #008000; stroke-opacity: 0.6; stroke-width: 1.5; stroke-linecap: square"/>
   </g>
   <g id="line2d_62">
    <path d="M 549.060287 494.822584 
L 551.951176 494.822584 
L 552.529354 480.235181 
L 553.107532 475.572706 
L 553.68571 476.652307 
L 554.263887 477.344609 
L 554.842065 477.516863 
L 557.154776 477.584023 
L 579.703711 477.5971 
L 631.739713 477.597362 
L 631.739713 477.597362 
" clip-path="url(#p7ef57ba8c3)" style="fill: none; stroke: #ff0000; stroke-opacity: 0.6; stroke-width: 1.5; stroke-linecap: square"/>
   </g>
   <g id="line2d_63">
    <path d="M 549.060287 453.482871 
L 631.739713 453.482871 
L 631.739713 453.482871 
" clip-path="url(#p7ef57ba8c3)" style="fill: none; stroke-dasharray: 5.55,2.4; stroke-dashoffset: 0; stroke: #ff0000; stroke-width: 1.5"/>
   </g>
   <g id="text_27">
    <!-- JC3a -->
    <g transform="translate(576.945938 445.415885) scale(0.12 -0.12)">
     <defs>
      <path id="DejaVuSans-61" d="M 2194 1759 
Q 1497 1759 1228 1600 
Q 959 1441 959 1056 
Q 959 750 1161 570 
Q 1363 391 1709 391 
Q 2188 391 2477 730 
Q 2766 1069 2766 1631 
L 2766 1759 
L 2194 1759 
z
M 3341 1997 
L 3341 0 
L 2766 0 
L 2766 531 
Q 2569 213 2275 61 
Q 1981 -91 1556 -91 
Q 1019 -91 701 211 
Q 384 513 384 1019 
Q 384 1609 779 1909 
Q 1175 2209 1959 2209 
L 2766 2209 
L 2766 2266 
Q 2766 2663 2505 2880 
Q 2244 3097 1772 3097 
Q 1472 3097 1187 3025 
Q 903 2953 641 2809 
L 641 3341 
Q 956 3463 1253 3523 
Q 1550 3584 1831 3584 
Q 2591 3584 2966 3190 
Q 3341 2797 3341 1997 
z
" transform="scale(0.015625)"/>
     </defs>
     <use xlink:href="#DejaVuSans-4a"/>
     <use xlink:href="#DejaVuSans-43" x="29.492188"/>
     <use xlink:href="#DejaVuSans-33" x="99.316406"/>
     <use xlink:href="#DejaVuSans-61" x="162.939453"/>
    </g>
   </g>
  </g>
  <g id="axes_11">
   <g id="patch_21">
    <path d="M 360.463506 496.889569 
L 451.410874 496.889569 
L 451.410874 451.415885 
L 360.463506 451.415885 
z
" style="fill: #ffffff"/>
   </g>
   <g id="matplotlib.axis_19"/>
   <g id="matplotlib.axis_20">
    <g id="ytick_19">
     <g id="line2d_64"/>
     <g id="text_28">
      <!-- 0.0 -->
      <g transform="translate(341.060381 498.621802) scale(0.1 -0.1)">
       <use xlink:href="#DejaVuSans-30"/>
       <use xlink:href="#DejaVuSans-2e" x="63.623047"/>
       <use xlink:href="#DejaVuSans-30" x="95.410156"/>
      </g>
     </g>
    </g>
    <g id="ytick_20">
     <g id="line2d_65"/>
     <g id="text_29">
      <!-- 3.0 -->
      <g transform="translate(341.060381 457.28209) scale(0.1 -0.1)">
       <use xlink:href="#DejaVuSans-33"/>
       <use xlink:href="#DejaVuSans-2e" x="63.623047"/>
       <use xlink:href="#DejaVuSans-30" x="95.410156"/>
      </g>
     </g>
    </g>
   </g>
   <g id="line2d_66">
    <path d="M 364.597477 494.822584 
L 367.488366 494.713721 
L 368.066544 491.860492 
L 368.644722 487.236466 
L 369.2229 490.496906 
L 369.801077 492.843322 
L 370.379255 493.710792 
L 370.957433 494.097699 
L 372.113789 494.458884 
L 374.4265 494.657658 
L 379.6301 494.76292 
L 400.444501 494.810988 
L 447.276903 494.818544 
L 447.276903 494.818544 
" clip-path="url(#p43b00142d8)" style="fill: none; stroke: #000000; stroke-opacity: 0.6; stroke-width: 1.5; stroke-linecap: square"/>
   </g>
   <g id="line2d_67">
    <path d="M 364.597477 494.822584 
L 367.488366 494.822584 
L 368.066544 494.447193 
L 368.644722 491.802096 
L 369.2229 493.331672 
L 369.801077 493.966906 
L 370.957433 494.402377 
L 372.691966 494.617498 
L 376.161033 494.736687 
L 387.724589 494.800458 
L 447.276903 494.818786 
L 447.276903 494.818786 
" clip-path="url(#p43b00142d8)" style="fill: none; stroke: #0000ff; stroke-opacity: 0.6; stroke-width: 1.5; stroke-linecap: square"/>
   </g>
   <g id="line2d_68">
    <path d="M 364.597477 494.822584 
L 367.488366 494.822584 
L 368.066544 494.478486 
L 368.644722 491.858207 
L 369.2229 493.351055 
L 369.801077 493.975181 
L 370.379255 494.266614 
L 371.535611 494.509815 
L 373.848322 494.679967 
L 380.208278 494.776364 
L 407.382635 494.814654 
L 447.276903 494.818782 
L 447.276903 494.818782 
" clip-path="url(#p43b00142d8)" style="fill: none; stroke: #008000; stroke-opacity: 0.6; stroke-width: 1.5; stroke-linecap: square"/>
   </g>
   <g id="line2d_69">
    <path d="M 364.597477 494.822584 
L 367.488366 494.822584 
L 368.066544 494.408777 
L 368.644722 491.489377 
L 369.2229 493.19391 
L 369.801077 493.915944 
L 370.379255 494.219113 
L 371.535611 494.500663 
L 373.848322 494.675566 
L 379.6301 494.772267 
L 403.913568 494.81363 
L 447.276903 494.81878 
L 447.276903 494.81878 
" clip-path="url(#p43b00142d8)" style="fill: none; stroke: #ff0000; stroke-opacity: 0.6; stroke-width: 1.5; stroke-linecap: square"/>
   </g>
   <g id="line2d_70">
    <path d="M 364.597477 453.482871 
L 447.276903 453.482871 
L 447.276903 453.482871 
" clip-path="url(#p43b00142d8)" style="fill: none; stroke-dasharray: 5.55,2.4; stroke-dashoffset: 0; stroke: #ff0000; stroke-width: 1.5"/>
   </g>
   <g id="text_30">
    <!-- JC2 -->
    <g transform="translate(396.160003 445.415885) scale(0.12 -0.12)">
     <use xlink:href="#DejaVuSans-4a"/>
     <use xlink:href="#DejaVuSans-43" x="29.492188"/>
     <use xlink:href="#DejaVuSans-32" x="99.316406"/>
    </g>
   </g>
  </g>
  <g id="axes_12">
   <g id="patch_22">
    <path d="M 176.000696 313.616842 
L 266.948064 313.616842 
L 266.948064 268.143158 
L 176.000696 268.143158 
z
" style="fill: #ffffff"/>
   </g>
   <g id="matplotlib.axis_21"/>
   <g id="matplotlib.axis_22">
    <g id="ytick_21">
     <g id="line2d_71"/>
     <g id="text_31">
      <!-- 0.0 -->
      <g transform="translate(156.597571 315.361716) scale(0.1 -0.1)">
       <use xlink:href="#DejaVuSans-30"/>
       <use xlink:href="#DejaVuSans-2e" x="63.623047"/>
       <use xlink:href="#DejaVuSans-30" x="95.410156"/>
      </g>
     </g>
    </g>
    <g id="ytick_22">
     <g id="line2d_72"/>
     <g id="text_32">
      <!-- 7.2 -->
      <g transform="translate(156.597571 274.009362) scale(0.1 -0.1)">
       <defs>
        <path id="DejaVuSans-37" d="M 525 4666 
L 3525 4666 
L 3525 4397 
L 1831 0 
L 1172 0 
L 2766 4134 
L 525 4134 
L 525 4666 
z
" transform="scale(0.015625)"/>
       </defs>
       <use xlink:href="#DejaVuSans-37"/>
       <use xlink:href="#DejaVuSans-2e" x="63.623047"/>
       <use xlink:href="#DejaVuSans-32" x="95.410156"/>
      </g>
     </g>
    </g>
   </g>
   <g id="line2d_73">
    <path d="M 180.134667 311.549856 
L 181.291023 311.319553 
L 182.447378 310.672406 
L 183.025556 310.290289 
L 183.603734 307.871226 
L 184.181912 307.169641 
L 184.76009 309.497979 
L 185.338267 310.665806 
L 185.916445 310.872452 
L 188.229156 311.157579 
L 204.996313 311.538307 
L 262.814093 311.53936 
L 262.814093 311.53936 
" clip-path="url(#p5981e1d741)" style="fill: none; stroke: #000000; stroke-opacity: 0.6; stroke-width: 1.5; stroke-linecap: square"/>
   </g>
   <g id="line2d_74">
    <path d="M 180.134667 311.549856 
L 181.291023 311.328672 
L 182.447378 310.614086 
L 183.025556 309.626798 
L 183.603734 303.23057 
L 184.181912 289.019998 
L 184.76009 282.620821 
L 185.338267 280.083557 
L 185.916445 279.253169 
L 186.494623 278.916921 
L 187.072801 278.999211 
L 187.650979 279.534834 
L 188.807334 281.10798 
L 191.120046 284.971055 
L 192.854579 288.460885 
L 194.010935 291.103578 
L 195.16729 294.989858 
L 196.901824 298.88851 
L 198.058179 301.345262 
L 199.214535 305.424894 
L 199.792713 307.480951 
L 200.37089 310.222887 
L 200.949068 311.535523 
L 210.778091 311.538928 
L 262.814093 311.53936 
L 262.814093 311.53936 
" clip-path="url(#p5981e1d741)" style="fill: none; stroke: #0000ff; stroke-opacity: 0.6; stroke-width: 1.5; stroke-linecap: square"/>
   </g>
   <g id="line2d_75">
    <path d="M 180.134667 311.549524 
L 181.291023 311.304672 
L 181.869201 311.021806 
L 182.447378 310.473232 
L 183.025556 309.368108 
L 183.603734 302.540162 
L 184.181912 288.841583 
L 184.76009 282.477578 
L 185.338267 279.933865 
L 185.916445 279.05887 
L 186.494623 278.754761 
L 187.072801 278.842198 
L 188.229156 280.154344 
L 188.807334 280.94302 
L 191.698223 286.015772 
L 192.854579 288.459426 
L 194.010935 291.296779 
L 195.16729 295.076224 
L 196.901824 298.979775 
L 198.058179 301.745744 
L 199.214535 305.65261 
L 200.37089 310.431869 
L 200.949068 311.527011 
L 205.574491 311.538139 
L 262.814093 311.539658 
L 262.814093 311.539658 
" clip-path="url(#p5981e1d741)" style="fill: none; stroke: #008000; stroke-opacity: 0.6; stroke-width: 1.5; stroke-linecap: square"/>
   </g>
   <g id="line2d_76">
    <path d="M 180.134667 311.549856 
L 181.291023 311.271732 
L 181.869201 311.019856 
L 182.447378 310.459718 
L 183.025556 308.557555 
L 183.603734 301.41003 
L 184.181912 287.903187 
L 184.76009 281.276348 
L 185.338267 278.788266 
L 185.916445 278.013386 
L 186.494623 277.696944 
L 187.072801 277.854012 
L 188.229156 279.346807 
L 190.541868 283.359416 
L 192.276401 286.776461 
L 193.432757 289.449646 
L 194.010935 290.96429 
L 195.16729 294.91116 
L 197.480001 300.193983 
L 198.058179 301.689502 
L 198.636357 305.669637 
L 199.214535 310.878658 
L 199.792713 311.526518 
L 220.607113 311.532313 
L 262.814093 311.535163 
L 262.814093 311.535163 
" clip-path="url(#p5981e1d741)" style="fill: none; stroke: #ff0000; stroke-opacity: 0.6; stroke-width: 1.5; stroke-linecap: square"/>
   </g>
   <g id="line2d_77">
    <path d="M 180.134667 270.210144 
L 262.814093 270.210144 
L 262.814093 270.210144 
" clip-path="url(#p5981e1d741)" style="fill: none; stroke-dasharray: 5.55,2.4; stroke-dashoffset: 0; stroke: #ff0000; stroke-width: 1.5"/>
   </g>
   <g id="text_33">
    <!-- R1 -->
    <g transform="translate(213.487818 262.143158) scale(0.12 -0.12)">
     <use xlink:href="#DejaVuSans-52"/>
     <use xlink:href="#DejaVuSans-31" x="69.482422"/>
    </g>
   </g>
  </g>
  <g id="axes_13">
   <g id="patch_23">
    <path d="M 913.851936 313.616842 
L 1004.799304 313.616842 
L 1004.799304 268.143158 
L 913.851936 268.143158 
z
" style="fill: #ffffff"/>
   </g>
   <g id="matplotlib.axis_23"/>
   <g id="matplotlib.axis_24">
    <g id="ytick_23">
     <g id="line2d_78"/>
     <g id="text_34">
      <!-- 0.0 -->
      <g transform="translate(894.448811 315.379164) scale(0.1 -0.1)">
       <use xlink:href="#DejaVuSans-30"/>
       <use xlink:href="#DejaVuSans-2e" x="63.623047"/>
       <use xlink:href="#DejaVuSans-30" x="95.410156"/>
      </g>
     </g>
    </g>
    <g id="ytick_24">
     <g id="line2d_79"/>
     <g id="text_35">
      <!-- 5.2 -->
      <g transform="translate(894.448811 274.009362) scale(0.1 -0.1)">
       <use xlink:href="#DejaVuSans-35"/>
       <use xlink:href="#DejaVuSans-2e" x="63.623047"/>
       <use xlink:href="#DejaVuSans-32" x="95.410156"/>
      </g>
     </g>
    </g>
   </g>
   <g id="line2d_80">
    <path d="M 917.985907 311.549856 
L 919.142263 311.097923 
L 919.72044 310.514294 
L 920.876796 308.855259 
L 921.454974 307.665802 
L 922.033152 307.516812 
L 922.611329 308.775342 
L 923.189507 309.543777 
L 923.767685 310.006926 
L 925.502218 310.587411 
L 927.236752 310.739049 
L 931.862174 310.924385 
L 933.01853 311.283683 
L 934.753063 311.436672 
L 939.378486 311.506038 
L 972.33462 311.520659 
L 1000.665333 311.520864 
L 1000.665333 311.520864 
" clip-path="url(#p8b462266b8)" style="fill: none; stroke: #000000; stroke-opacity: 0.6; stroke-width: 1.5; stroke-linecap: square"/>
   </g>
   <g id="line2d_81">
    <path d="M 917.985907 311.549856 
L 919.142263 311.097932 
L 919.72044 310.514391 
L 920.876796 308.826608 
L 921.454974 307.392358 
L 922.033152 306.700979 
L 922.611329 308.760444 
L 923.189507 309.558432 
L 923.767685 310.007091 
L 925.502218 310.577059 
L 927.236752 310.740709 
L 931.862174 310.930068 
L 933.01853 311.283836 
L 934.753063 311.43711 
L 939.378486 311.506294 
L 972.912798 311.52067 
L 1000.665333 311.520864 
L 1000.665333 311.520864 
" clip-path="url(#p8b462266b8)" style="fill: none; stroke: #0000ff; stroke-opacity: 0.6; stroke-width: 1.5; stroke-linecap: square"/>
   </g>
   <g id="line2d_82">
    <path d="M 917.985907 311.549856 
L 919.142263 311.097893 
L 919.72044 310.514123 
L 920.876796 308.824189 
L 921.454974 307.342898 
L 922.033152 306.685935 
L 922.611329 308.751804 
L 923.189507 309.553206 
L 923.767685 310.029844 
L 925.502218 310.585356 
L 927.236752 310.740151 
L 931.862174 310.947755 
L 933.01853 311.287164 
L 934.753063 311.437542 
L 939.378486 311.506022 
L 972.33462 311.520659 
L 1000.665333 311.520864 
L 1000.665333 311.520864 
" clip-path="url(#p8b462266b8)" style="fill: none; stroke: #008000; stroke-opacity: 0.6; stroke-width: 1.5; stroke-linecap: square"/>
   </g>
   <g id="line2d_83">
    <path d="M 917.985907 311.549856 
L 919.142263 311.09793 
L 919.72044 310.514358 
L 920.876796 308.838935 
L 921.454974 307.38278 
L 922.033152 306.642685 
L 922.611329 308.738709 
L 923.189507 309.553752 
L 923.767685 310.007423 
L 925.502218 310.580283 
L 927.236752 310.739363 
L 931.862174 310.93067 
L 933.01853 311.283458 
L 934.753063 311.43778 
L 939.378486 311.506227 
L 972.912798 311.520669 
L 1000.665333 311.520864 
L 1000.665333 311.520864 
" clip-path="url(#p8b462266b8)" style="fill: none; stroke: #ff0000; stroke-opacity: 0.6; stroke-width: 1.5; stroke-linecap: square"/>
   </g>
   <g id="line2d_84">
    <path d="M 917.985907 270.210144 
L 1000.665333 270.210144 
L 1000.665333 270.210144 
" clip-path="url(#p8b462266b8)" style="fill: none; stroke-dasharray: 5.55,2.4; stroke-dashoffset: 0; stroke: #ff0000; stroke-width: 1.5"/>
   </g>
   <g id="text_36">
    <!-- R5 -->
    <g transform="translate(951.339057 262.143158) scale(0.12 -0.12)">
     <use xlink:href="#DejaVuSans-52"/>
     <use xlink:href="#DejaVuSans-35" x="69.482422"/>
    </g>
   </g>
  </g>
  <g id="axes_14">
   <g id="patch_24">
    <path d="M 176.000696 496.889569 
L 266.948064 496.889569 
L 266.948064 451.415885 
L 176.000696 451.415885 
z
" style="fill: #ffffff"/>
   </g>
   <g id="matplotlib.axis_25"/>
   <g id="matplotlib.axis_26">
    <g id="ytick_25">
     <g id="line2d_85"/>
     <g id="text_37">
      <!-- 0.0 -->
      <g transform="translate(156.597571 498.621802) scale(0.1 -0.1)">
       <use xlink:href="#DejaVuSans-30"/>
       <use xlink:href="#DejaVuSans-2e" x="63.623047"/>
       <use xlink:href="#DejaVuSans-30" x="95.410156"/>
      </g>
     </g>
    </g>
    <g id="ytick_26">
     <g id="line2d_86"/>
     <g id="text_38">
      <!-- 3.0 -->
      <g transform="translate(156.597571 457.28209) scale(0.1 -0.1)">
       <use xlink:href="#DejaVuSans-33"/>
       <use xlink:href="#DejaVuSans-2e" x="63.623047"/>
       <use xlink:href="#DejaVuSans-30" x="95.410156"/>
      </g>
     </g>
    </g>
   </g>
   <g id="line2d_87">
    <path d="M 180.134667 494.822584 
L 183.025556 494.822584 
L 183.603734 493.053383 
L 184.181912 490.547872 
L 184.76009 493.233911 
L 185.338267 494.461952 
L 185.916445 494.657459 
L 187.650979 494.776109 
L 195.745468 494.815889 
L 262.814093 494.821207 
L 262.814093 494.821207 
" clip-path="url(#p39cc4b6d67)" style="fill: none; stroke: #000000; stroke-opacity: 0.6; stroke-width: 1.5; stroke-linecap: square"/>
   </g>
   <g id="line2d_88">
    <path d="M 180.134667 494.822584 
L 262.814093 494.822584 
L 262.814093 494.822584 
" clip-path="url(#p39cc4b6d67)" style="fill: none; stroke: #0000ff; stroke-opacity: 0.6; stroke-width: 1.5; stroke-linecap: square"/>
   </g>
   <g id="line2d_89">
    <path d="M 180.134667 494.822584 
L 262.814093 494.822584 
L 262.814093 494.822584 
" clip-path="url(#p39cc4b6d67)" style="fill: none; stroke: #008000; stroke-opacity: 0.6; stroke-width: 1.5; stroke-linecap: square"/>
   </g>
   <g id="line2d_90">
    <path d="M 180.134667 494.822584 
L 262.814093 494.822584 
L 262.814093 494.822584 
" clip-path="url(#p39cc4b6d67)" style="fill: none; stroke: #ff0000; stroke-opacity: 0.6; stroke-width: 1.5; stroke-linecap: square"/>
   </g>
   <g id="line2d_91">
    <path d="M 180.134667 453.482871 
L 262.814093 453.482871 
L 262.814093 453.482871 
" clip-path="url(#p39cc4b6d67)" style="fill: none; stroke-dasharray: 5.55,2.4; stroke-dashoffset: 0; stroke: #ff0000; stroke-width: 1.5"/>
   </g>
   <g id="text_39">
    <!-- JC1b -->
    <g transform="translate(207.88813 445.415885) scale(0.12 -0.12)">
     <defs>
      <path id="DejaVuSans-62" d="M 3116 1747 
Q 3116 2381 2855 2742 
Q 2594 3103 2138 3103 
Q 1681 3103 1420 2742 
Q 1159 2381 1159 1747 
Q 1159 1113 1420 752 
Q 1681 391 2138 391 
Q 2594 391 2855 752 
Q 3116 1113 3116 1747 
z
M 1159 2969 
Q 1341 3281 1617 3432 
Q 1894 3584 2278 3584 
Q 2916 3584 3314 3078 
Q 3713 2572 3713 1747 
Q 3713 922 3314 415 
Q 2916 -91 2278 -91 
Q 1894 -91 1617 61 
Q 1341 213 1159 525 
L 1159 0 
L 581 0 
L 581 4863 
L 1159 4863 
L 1159 2969 
z
" transform="scale(0.015625)"/>
     </defs>
     <use xlink:href="#DejaVuSans-4a"/>
     <use xlink:href="#DejaVuSans-43" x="29.492188"/>
     <use xlink:href="#DejaVuSans-31" x="99.316406"/>
     <use xlink:href="#DejaVuSans-62" x="162.939453"/>
    </g>
   </g>
  </g>
  <g id="axes_15">
   <g id="patch_25">
    <path d="M 913.851936 130.344115 
L 1004.799304 130.344115 
L 1004.799304 84.870431 
L 913.851936 84.870431 
z
" style="fill: #ffffff"/>
   </g>
   <g id="matplotlib.axis_27"/>
   <g id="matplotlib.axis_28">
    <g id="ytick_27">
     <g id="line2d_92"/>
     <g id="text_40">
      <!-- 0.0 -->
      <g transform="translate(894.448811 132.474637) scale(0.1 -0.1)">
       <use xlink:href="#DejaVuSans-30"/>
       <use xlink:href="#DejaVuSans-2e" x="63.623047"/>
       <use xlink:href="#DejaVuSans-30" x="95.410156"/>
      </g>
     </g>
    </g>
    <g id="ytick_28">
     <g id="line2d_93"/>
     <g id="text_41">
      <!-- 4.0 -->
      <g transform="translate(894.448811 90.736635) scale(0.1 -0.1)">
       <use xlink:href="#DejaVuSans-34"/>
       <use xlink:href="#DejaVuSans-2e" x="63.623047"/>
       <use xlink:href="#DejaVuSans-30" x="95.410156"/>
      </g>
     </g>
    </g>
   </g>
   <g id="line2d_94">
    <path d="M 917.985907 127.947604 
L 918.564085 127.083926 
L 919.142263 126.511231 
L 919.72044 124.765122 
L 920.298618 123.532332 
L 920.876796 121.526327 
L 921.454974 117.795334 
L 922.033152 119.632411 
L 922.611329 122.563898 
L 923.189507 123.970016 
L 923.767685 124.707981 
L 925.502218 125.819238 
L 926.658574 126.02953 
L 931.283996 126.387268 
L 931.862174 126.710681 
L 932.440352 127.335931 
L 933.01853 127.638645 
L 934.174885 127.936764 
L 936.487597 128.144868 
L 941.113019 128.24121 
L 960.192887 128.274549 
L 1000.665333 128.277128 
L 1000.665333 128.277128 
" clip-path="url(#p697313af31)" style="fill: none; stroke: #000000; stroke-opacity: 0.6; stroke-width: 1.5; stroke-linecap: square"/>
   </g>
   <g id="line2d_95">
    <path d="M 917.985907 127.947604 
L 918.564085 127.083926 
L 919.142263 126.511256 
L 919.72044 124.765317 
L 920.298618 123.532286 
L 920.876796 121.51519 
L 921.454974 117.849882 
L 922.033152 119.639428 
L 922.611329 122.582183 
L 923.189507 123.99687 
L 923.767685 124.710656 
L 925.502218 125.804975 
L 926.658574 126.031013 
L 931.283996 126.389448 
L 931.862174 126.746866 
L 932.440352 127.321486 
L 933.01853 127.640061 
L 934.174885 127.93742 
L 936.487597 128.145631 
L 941.113019 128.241705 
L 960.771064 128.2747 
L 1000.665333 128.277129 
L 1000.665333 128.277129 
" clip-path="url(#p697313af31)" style="fill: none; stroke: #0000ff; stroke-opacity: 0.6; stroke-width: 1.5; stroke-linecap: square"/>
   </g>
   <g id="line2d_96">
    <path d="M 917.985907 127.947604 
L 918.564085 127.083926 
L 919.142263 126.511134 
L 919.72044 124.764723 
L 920.298618 123.532119 
L 920.876796 121.511317 
L 921.454974 117.801546 
L 922.033152 119.633791 
L 922.611329 122.566151 
L 923.189507 123.987069 
L 923.767685 124.740475 
L 925.502218 125.816369 
L 926.658574 126.028918 
L 931.283996 126.388611 
L 931.862174 126.796879 
L 932.440352 127.352204 
L 933.596708 127.820171 
L 935.331241 128.074347 
L 938.22213 128.202211 
L 947.472975 128.265821 
L 1000.665333 128.277128 
L 1000.665333 128.277128 
" clip-path="url(#p697313af31)" style="fill: none; stroke: #008000; stroke-opacity: 0.6; stroke-width: 1.5; stroke-linecap: square"/>
   </g>
   <g id="line2d_97">
    <path d="M 917.985907 127.947604 
L 918.564085 127.083926 
L 919.142263 126.511307 
L 919.72044 124.765066 
L 920.298618 123.532294 
L 920.876796 121.529628 
L 921.454974 117.854925 
L 922.033152 119.53453 
L 922.611329 122.548101 
L 923.189507 123.987738 
L 923.767685 124.709323 
L 925.502218 125.810049 
L 926.658574 126.032283 
L 931.283996 126.3896 
L 931.862174 126.751136 
L 932.440352 127.32169 
L 933.01853 127.639344 
L 934.174885 127.938725 
L 935.909419 128.116616 
L 939.956663 128.230406 
L 954.411109 128.272493 
L 1000.665333 128.277129 
L 1000.665333 128.277129 
" clip-path="url(#p697313af31)" style="fill: none; stroke: #ff0000; stroke-opacity: 0.6; stroke-width: 1.5; stroke-linecap: square"/>
   </g>
   <g id="line2d_98">
    <path d="M 917.985907 86.937416 
L 1000.665333 86.937416 
L 1000.665333 86.937416 
" clip-path="url(#p697313af31)" style="fill: none; stroke-dasharray: 5.55,2.4; stroke-dashoffset: 0; stroke: #ff0000; stroke-width: 1.5"/>
   </g>
   <g id="text_42">
    <!-- J5a -->
    <g transform="translate(950.061245 78.870431) scale(0.12 -0.12)">
     <use xlink:href="#DejaVuSans-4a"/>
     <use xlink:href="#DejaVuSans-35" x="29.492188"/>
     <use xlink:href="#DejaVuSans-61" x="93.115234"/>
    </g>
   </g>
  </g>
  <g id="axes_16">
   <g id="patch_26">
    <path d="M 176.000696 130.344115 
L 266.948064 130.344115 
L 266.948064 84.870431 
L 176.000696 84.870431 
z
" style="fill: #ffffff"/>
   </g>
   <g id="matplotlib.axis_29"/>
   <g id="matplotlib.axis_30">
    <g id="ytick_29">
     <g id="line2d_99"/>
     <g id="text_43">
      <!-- 0.0 -->
      <g transform="translate(156.597571 132.287757) scale(0.1 -0.1)">
       <use xlink:href="#DejaVuSans-30"/>
       <use xlink:href="#DejaVuSans-2e" x="63.623047"/>
       <use xlink:href="#DejaVuSans-30" x="95.410156"/>
      </g>
     </g>
    </g>
    <g id="ytick_30">
     <g id="line2d_100"/>
     <g id="text_44">
      <!-- 9.0 -->
      <g transform="translate(156.597571 90.736635) scale(0.1 -0.1)">
       <defs>
        <path id="DejaVuSans-39" d="M 703 97 
L 703 672 
Q 941 559 1184 500 
Q 1428 441 1663 441 
Q 2288 441 2617 861 
Q 2947 1281 2994 2138 
Q 2813 1869 2534 1725 
Q 2256 1581 1919 1581 
Q 1219 1581 811 2004 
Q 403 2428 403 3163 
Q 403 3881 828 4315 
Q 1253 4750 1959 4750 
Q 2769 4750 3195 4129 
Q 3622 3509 3622 2328 
Q 3622 1225 3098 567 
Q 2575 -91 1691 -91 
Q 1453 -91 1209 -44 
Q 966 3 703 97 
z
M 1959 2075 
Q 2384 2075 2632 2365 
Q 2881 2656 2881 3163 
Q 2881 3666 2632 3958 
Q 2384 4250 1959 4250 
Q 1534 4250 1286 3958 
Q 1038 3666 1038 3163 
Q 1038 2656 1286 2365 
Q 1534 2075 1959 2075 
z
" transform="scale(0.015625)"/>
       </defs>
       <use xlink:href="#DejaVuSans-39"/>
       <use xlink:href="#DejaVuSans-2e" x="63.623047"/>
       <use xlink:href="#DejaVuSans-30" x="95.410156"/>
      </g>
     </g>
    </g>
   </g>
   <g id="line2d_101">
    <path d="M 180.134667 128.277081 
L 180.712845 127.749408 
L 181.291023 127.486127 
L 183.025556 125.332006 
L 183.603734 123.922589 
L 184.181912 124.330358 
L 184.76009 125.637003 
L 185.338267 126.230399 
L 185.916445 126.58129 
L 188.229156 127.153195 
L 192.854579 127.337626 
L 194.010935 127.450497 
L 195.16729 127.937262 
L 196.901824 128.169736 
L 199.214535 128.2367 
L 203.839957 128.187583 
L 262.814093 128.196387 
L 262.814093 128.196387 
" clip-path="url(#p5f31d4009e)" style="fill: none; stroke: #000000; stroke-opacity: 0.6; stroke-width: 1.5; stroke-linecap: square"/>
   </g>
   <g id="line2d_102">
    <path d="M 180.134667 128.277081 
L 180.712845 127.749408 
L 181.291023 127.485244 
L 183.025556 125.312136 
L 183.603734 124.092206 
L 184.181912 117.007385 
L 184.76009 112.04979 
L 185.338267 110.062443 
L 185.916445 109.391174 
L 186.494623 109.133107 
L 187.072801 109.213766 
L 187.650979 109.639409 
L 188.807334 110.908191 
L 191.120046 114.013353 
L 192.854579 116.821583 
L 194.010935 118.958283 
L 195.16729 122.069463 
L 196.901824 125.19735 
L 198.058179 127.130686 
L 198.636357 127.80902 
L 199.214535 128.044214 
L 200.949068 128.232492 
L 207.309024 128.191611 
L 262.814093 128.196387 
L 262.814093 128.196387 
" clip-path="url(#p5f31d4009e)" style="fill: none; stroke: #0000ff; stroke-opacity: 0.6; stroke-width: 1.5; stroke-linecap: square"/>
   </g>
   <g id="line2d_103">
    <path d="M 180.134667 128.277129 
L 180.712845 127.749748 
L 181.291023 127.488132 
L 183.025556 125.272403 
L 183.603734 124.05183 
L 184.181912 116.802848 
L 184.76009 111.933061 
L 185.338267 109.942462 
L 185.916445 109.238115 
L 186.494623 109.000736 
L 187.072801 109.087414 
L 188.229156 110.13976 
L 189.385512 111.559978 
L 191.120046 113.973489 
L 192.854579 116.819844 
L 194.010935 119.116293 
L 195.16729 122.138685 
L 196.901824 125.27122 
L 198.058179 127.353181 
L 198.636357 127.852379 
L 199.792713 128.161779 
L 200.949068 128.235342 
L 207.309024 128.192127 
L 262.814093 128.19636 
L 262.814093 128.19636 
" clip-path="url(#p5f31d4009e)" style="fill: none; stroke: #008000; stroke-opacity: 0.6; stroke-width: 1.5; stroke-linecap: square"/>
   </g>
   <g id="line2d_104">
    <path d="M 180.134667 128.277081 
L 180.712845 127.750048 
L 181.291023 127.492671 
L 183.025556 125.344198 
L 183.603734 124.081601 
L 184.181912 115.885728 
L 184.76009 110.953504 
L 185.338267 109.020966 
L 185.916445 108.392498 
L 186.494623 108.155502 
L 187.072801 108.285844 
L 188.229156 109.488315 
L 190.541868 112.716373 
L 192.276401 115.456268 
L 193.432757 117.603876 
L 194.010935 118.851163 
L 195.16729 122.014398 
L 198.058179 127.338717 
L 198.636357 127.879427 
L 199.214535 128.066796 
L 201.527246 128.148696 
L 211.356269 128.193985 
L 262.814093 128.199084 
L 262.814093 128.199084 
" clip-path="url(#p5f31d4009e)" style="fill: none; stroke: #ff0000; stroke-opacity: 0.6; stroke-width: 1.5; stroke-linecap: square"/>
   </g>
   <g id="line2d_105">
    <path d="M 180.134667 86.937416 
L 262.814093 86.937416 
L 262.814093 86.937416 
" clip-path="url(#p5f31d4009e)" style="fill: none; stroke-dasharray: 5.55,2.4; stroke-dashoffset: 0; stroke: #ff0000; stroke-width: 1.5"/>
   </g>
   <g id="text_45">
    <!-- J1 -->
    <g transform="translate(215.88688 78.870431) scale(0.12 -0.12)">
     <use xlink:href="#DejaVuSans-4a"/>
     <use xlink:href="#DejaVuSans-31" x="29.492188"/>
    </g>
   </g>
   <g id="legend_1">
    <g id="patch_27">
     <path d="M 89.73688 172.247733 
L 353.21188 172.247733 
Q 355.21188 172.247733 355.21188 170.247733 
L 355.21188 141.891483 
Q 355.21188 139.891483 353.21188 139.891483 
L 89.73688 139.891483 
Q 87.73688 139.891483 87.73688 141.891483 
L 87.73688 170.247733 
Q 87.73688 172.247733 89.73688 172.247733 
z
" style="fill: #ffffff; opacity: 0.8; stroke: #cccccc; stroke-linejoin: miter"/>
    </g>
    <g id="patch_28">
     <path d="M 91.73688 151.489921 
L 111.73688 151.489921 
L 111.73688 144.489921 
L 91.73688 144.489921 
z
" style="stroke: #000000; stroke-linejoin: miter"/>
    </g>
    <g id="text_46">
     <!-- Uncontrolled -->
     <g transform="translate(119.73688 151.489921) scale(0.1 -0.1)">
      <defs>
       <path id="DejaVuSans-55" d="M 556 4666 
L 1191 4666 
L 1191 1831 
Q 1191 1081 1462 751 
Q 1734 422 2344 422 
Q 2950 422 3222 751 
Q 3494 1081 3494 1831 
L 3494 4666 
L 4128 4666 
L 4128 1753 
Q 4128 841 3676 375 
Q 3225 -91 2344 -91 
Q 1459 -91 1007 375 
Q 556 841 556 1753 
L 556 4666 
z
" transform="scale(0.015625)"/>
       <path id="DejaVuSans-6e" d="M 3513 2113 
L 3513 0 
L 2938 0 
L 2938 2094 
Q 2938 2591 2744 2837 
Q 2550 3084 2163 3084 
Q 1697 3084 1428 2787 
Q 1159 2491 1159 1978 
L 1159 0 
L 581 0 
L 581 3500 
L 1159 3500 
L 1159 2956 
Q 1366 3272 1645 3428 
Q 1925 3584 2291 3584 
Q 2894 3584 3203 3211 
Q 3513 2838 3513 2113 
z
" transform="scale(0.015625)"/>
       <path id="DejaVuSans-6f" d="M 1959 3097 
Q 1497 3097 1228 2736 
Q 959 2375 959 1747 
Q 959 1119 1226 758 
Q 1494 397 1959 397 
Q 2419 397 2687 759 
Q 2956 1122 2956 1747 
Q 2956 2369 2687 2733 
Q 2419 3097 1959 3097 
z
M 1959 3584 
Q 2709 3584 3137 3096 
Q 3566 2609 3566 1747 
Q 3566 888 3137 398 
Q 2709 -91 1959 -91 
Q 1206 -91 779 398 
Q 353 888 353 1747 
Q 353 2609 779 3096 
Q 1206 3584 1959 3584 
z
" transform="scale(0.015625)"/>
       <path id="DejaVuSans-74" d="M 1172 4494 
L 1172 3500 
L 2356 3500 
L 2356 3053 
L 1172 3053 
L 1172 1153 
Q 1172 725 1289 603 
Q 1406 481 1766 481 
L 2356 481 
L 2356 0 
L 1766 0 
Q 1100 0 847 248 
Q 594 497 594 1153 
L 594 3053 
L 172 3053 
L 172 3500 
L 594 3500 
L 594 4494 
L 1172 4494 
z
" transform="scale(0.015625)"/>
       <path id="DejaVuSans-72" d="M 2631 2963 
Q 2534 3019 2420 3045 
Q 2306 3072 2169 3072 
Q 1681 3072 1420 2755 
Q 1159 2438 1159 1844 
L 1159 0 
L 581 0 
L 581 3500 
L 1159 3500 
L 1159 2956 
Q 1341 3275 1631 3429 
Q 1922 3584 2338 3584 
Q 2397 3584 2469 3576 
Q 2541 3569 2628 3553 
L 2631 2963 
z
" transform="scale(0.015625)"/>
       <path id="DejaVuSans-6c" d="M 603 4863 
L 1178 4863 
L 1178 0 
L 603 0 
L 603 4863 
z
" transform="scale(0.015625)"/>
       <path id="DejaVuSans-65" d="M 3597 1894 
L 3597 1613 
L 953 1613 
Q 991 1019 1311 708 
Q 1631 397 2203 397 
Q 2534 397 2845 478 
Q 3156 559 3463 722 
L 3463 178 
Q 3153 47 2828 -22 
Q 2503 -91 2169 -91 
Q 1331 -91 842 396 
Q 353 884 353 1716 
Q 353 2575 817 3079 
Q 1281 3584 2069 3584 
Q 2775 3584 3186 3129 
Q 3597 2675 3597 1894 
z
M 3022 2063 
Q 3016 2534 2758 2815 
Q 2500 3097 2075 3097 
Q 1594 3097 1305 2825 
Q 1016 2553 972 2059 
L 3022 2063 
z
" transform="scale(0.015625)"/>
       <path id="DejaVuSans-64" d="M 2906 2969 
L 2906 4863 
L 3481 4863 
L 3481 0 
L 2906 0 
L 2906 525 
Q 2725 213 2448 61 
Q 2172 -91 1784 -91 
Q 1150 -91 751 415 
Q 353 922 353 1747 
Q 353 2572 751 3078 
Q 1150 3584 1784 3584 
Q 2172 3584 2448 3432 
Q 2725 3281 2906 2969 
z
M 947 1747 
Q 947 1113 1208 752 
Q 1469 391 1925 391 
Q 2381 391 2643 752 
Q 2906 1113 2906 1747 
Q 2906 2381 2643 2742 
Q 2381 3103 1925 3103 
Q 1469 3103 1208 2742 
Q 947 2381 947 1747 
z
" transform="scale(0.015625)"/>
      </defs>
      <use xlink:href="#DejaVuSans-55"/>
      <use xlink:href="#DejaVuSans-6e" x="73.193359"/>
      <use xlink:href="#DejaVuSans-63" x="136.572266"/>
      <use xlink:href="#DejaVuSans-6f" x="191.552734"/>
      <use xlink:href="#DejaVuSans-6e" x="252.734375"/>
      <use xlink:href="#DejaVuSans-74" x="316.113281"/>
      <use xlink:href="#DejaVuSans-72" x="355.322266"/>
      <use xlink:href="#DejaVuSans-6f" x="394.185547"/>
      <use xlink:href="#DejaVuSans-6c" x="455.367188"/>
      <use xlink:href="#DejaVuSans-6c" x="483.150391"/>
      <use xlink:href="#DejaVuSans-65" x="510.933594"/>
      <use xlink:href="#DejaVuSans-64" x="572.457031"/>
     </g>
    </g>
    <g id="patch_29">
     <path d="M 91.73688 166.168046 
L 111.73688 166.168046 
L 111.73688 159.168046 
L 91.73688 159.168046 
z
" style="fill: #0000ff; stroke: #0000ff; stroke-linejoin: miter"/>
    </g>
    <g id="text_47">
     <!-- Level 1 -->
     <g transform="translate(119.73688 166.168046) scale(0.1 -0.1)">
      <defs>
       <path id="DejaVuSans-4c" d="M 628 4666 
L 1259 4666 
L 1259 531 
L 3531 531 
L 3531 0 
L 628 0 
L 628 4666 
z
" transform="scale(0.015625)"/>
       <path id="DejaVuSans-76" d="M 191 3500 
L 800 3500 
L 1894 563 
L 2988 3500 
L 3597 3500 
L 2284 0 
L 1503 0 
L 191 3500 
z
" transform="scale(0.015625)"/>
       <path id="DejaVuSans-20" transform="scale(0.015625)"/>
      </defs>
      <use xlink:href="#DejaVuSans-4c"/>
      <use xlink:href="#DejaVuSans-65" x="53.962891"/>
      <use xlink:href="#DejaVuSans-76" x="115.486328"/>
      <use xlink:href="#DejaVuSans-65" x="174.666016"/>
      <use xlink:href="#DejaVuSans-6c" x="236.189453"/>
      <use xlink:href="#DejaVuSans-20" x="263.972656"/>
      <use xlink:href="#DejaVuSans-31" x="295.759766"/>
     </g>
    </g>
    <g id="patch_30">
     <path d="M 203.33063 151.489921 
L 223.33063 151.489921 
L 223.33063 144.489921 
L 203.33063 144.489921 
z
" style="fill: #008000; stroke: #008000; stroke-linejoin: miter"/>
    </g>
    <g id="text_48">
     <!-- Level 2 -->
     <g transform="translate(231.33063 151.489921) scale(0.1 -0.1)">
      <use xlink:href="#DejaVuSans-4c"/>
      <use xlink:href="#DejaVuSans-65" x="53.962891"/>
      <use xlink:href="#DejaVuSans-76" x="115.486328"/>
      <use xlink:href="#DejaVuSans-65" x="174.666016"/>
      <use xlink:href="#DejaVuSans-6c" x="236.189453"/>
      <use xlink:href="#DejaVuSans-20" x="263.972656"/>
      <use xlink:href="#DejaVuSans-32" x="295.759766"/>
     </g>
    </g>
    <g id="patch_31">
     <path d="M 287.271255 151.489921 
L 307.271255 151.489921 
L 307.271255 144.489921 
L 287.271255 144.489921 
z
" style="fill: #ff0000; stroke: #ff0000; stroke-linejoin: miter"/>
    </g>
    <g id="text_49">
     <!-- Level 3 -->
     <g transform="translate(315.271255 151.489921) scale(0.1 -0.1)">
      <use xlink:href="#DejaVuSans-4c"/>
      <use xlink:href="#DejaVuSans-65" x="53.962891"/>
      <use xlink:href="#DejaVuSans-76" x="115.486328"/>
      <use xlink:href="#DejaVuSans-65" x="174.666016"/>
      <use xlink:href="#DejaVuSans-6c" x="236.189453"/>
      <use xlink:href="#DejaVuSans-20" x="263.972656"/>
      <use xlink:href="#DejaVuSans-33" x="295.759766"/>
     </g>
    </g>
   </g>
  </g>
 </g>
 <defs>
  <clipPath id="p9260db5271">
   <rect x="144" y="69.12" width="892.8" height="443.52"/>
  </clipPath>
  <clipPath id="pe3fc97c1aa">
   <rect x="913.851936" y="451.415885" width="90.947368" height="45.473684"/>
  </clipPath>
  <clipPath id="p98fb98a230">
   <rect x="729.389126" y="451.415885" width="90.947368" height="45.473684"/>
  </clipPath>
  <clipPath id="p56373287c6">
   <rect x="544.926316" y="268.143158" width="90.947368" height="45.473684"/>
  </clipPath>
  <clipPath id="p7d10082de9">
   <rect x="360.463506" y="268.143158" width="90.947368" height="45.473684"/>
  </clipPath>
  <clipPath id="p200bc00668">
   <rect x="544.926316" y="84.870431" width="90.947368" height="45.473684"/>
  </clipPath>
  <clipPath id="p13a5229378">
   <rect x="729.389126" y="84.870431" width="90.947368" height="45.473684"/>
  </clipPath>
  <clipPath id="p6e4d34fec0">
   <rect x="360.463506" y="84.870431" width="90.947368" height="45.473684"/>
  </clipPath>
  <clipPath id="pb476c9140c">
   <rect x="729.389126" y="268.143158" width="90.947368" height="45.473684"/>
  </clipPath>
  <clipPath id="p7ef57ba8c3">
   <rect x="544.926316" y="451.415885" width="90.947368" height="45.473684"/>
  </clipPath>
  <clipPath id="p43b00142d8">
   <rect x="360.463506" y="451.415885" width="90.947368" height="45.473684"/>
  </clipPath>
  <clipPath id="p5981e1d741">
   <rect x="176.000696" y="268.143158" width="90.947368" height="45.473684"/>
  </clipPath>
  <clipPath id="p8b462266b8">
   <rect x="913.851936" y="268.143158" width="90.947368" height="45.473684"/>
  </clipPath>
  <clipPath id="p39cc4b6d67">
   <rect x="176.000696" y="451.415885" width="90.947368" height="45.473684"/>
  </clipPath>
  <clipPath id="p697313af31">
   <rect x="913.851936" y="84.870431" width="90.947368" height="45.473684"/>
  </clipPath>
  <clipPath id="p5f31d4009e">
   <rect x="176.000696" y="84.870431" width="90.947368" height="45.473684"/>
  </clipPath>
 </defs>
</svg>
