<?xml version="1.0" encoding="utf-8" standalone="no"?>
<!DOCTYPE svg PUBLIC "-//W3C//DTD SVG 1.1//EN"
  "http://www.w3.org/Graphics/SVG/1.1/DTD/svg11.dtd">
<svg xmlns:xlink="http://www.w3.org/1999/xlink" width="1152pt" height="576pt" viewBox="0 0 1152 576" xmlns="http://www.w3.org/2000/svg" version="1.1">
 <metadata>
  <rdf:RDF xmlns:dc="http://purl.org/dc/elements/1.1/" xmlns:cc="http://creativecommons.org/ns#" xmlns:rdf="http://www.w3.org/1999/02/22-rdf-syntax-ns#">
   <cc:Work>
    <dc:type rdf:resource="http://purl.org/dc/dcmitype/StillImage"/>
    <dc:date>2025-03-06T16:22:56.091694</dc:date>
    <dc:format>image/svg+xml</dc:format>
    <dc:creator>
     <cc:Agent>
      <dc:title>Matplotlib v3.9.4, https://matplotlib.org/</dc:title>
     </cc:Agent>
    </dc:creator>
   </cc:Work>
  </rdf:RDF>
 </metadata>
 <defs>
  <style type="text/css">*{stroke-linejoin: round; stroke-linecap: butt}</style>
 </defs>
 <g id="figure_1">
  <g id="patch_1">
   <path d="M 0 576 
L 1152 576 
L 1152 0 
L 0 0 
z
" style="fill: #ffffff"/>
  </g>
  <g id="axes_1">
   <g id="patch_2">
    <path d="M 590.4 157.606252 
Q 590.4 189.242905 590.4 219.761524 
" clip-path="url(#pdcb56c619b)" style="fill: none; stroke: #000000; stroke-opacity: 0.5; stroke-linecap: round"/>
    <path d="M 594.4 211.761524 
L 590.4 219.761524 
L 586.4 211.761524 
z
" clip-path="url(#pdcb56c619b)" style="fill-opacity: 0.5; stroke: #000000; stroke-opacity: 0.5; stroke-linecap: round"/>
   </g>
   <g id="patch_3">
    <path d="M 221.47438 157.606252 
Q 221.47438 189.242905 221.47438 219.761524 
" clip-path="url(#pdcb56c619b)" style="fill: none; stroke: #000000; stroke-opacity: 0.5; stroke-linecap: round"/>
    <path d="M 225.47438 211.761524 
L 221.47438 219.761524 
L 217.47438 211.761524 
z
" clip-path="url(#pdcb56c619b)" style="fill-opacity: 0.5; stroke: #000000; stroke-opacity: 0.5; stroke-linecap: round"/>
   </g>
   <g id="patch_4">
    <path d="M 774.86281 157.606252 
Q 774.86281 189.242905 774.86281 219.761524 
" clip-path="url(#pdcb56c619b)" style="fill: none; stroke: #000000; stroke-opacity: 0.5; stroke-linecap: round"/>
    <path d="M 778.86281 211.761524 
L 774.86281 219.761524 
L 770.86281 211.761524 
z
" clip-path="url(#pdcb56c619b)" style="fill-opacity: 0.5; stroke: #000000; stroke-opacity: 0.5; stroke-linecap: round"/>
   </g>
   <g id="patch_5">
    <path d="M 959.32562 157.606252 
Q 959.32562 189.242905 959.32562 219.761524 
" clip-path="url(#pdcb56c619b)" style="fill: none; stroke: #000000; stroke-opacity: 0.5; stroke-linecap: round"/>
    <path d="M 963.32562 211.761524 
L 959.32562 219.761524 
L 955.32562 211.761524 
z
" clip-path="url(#pdcb56c619b)" style="fill-opacity: 0.5; stroke: #000000; stroke-opacity: 0.5; stroke-linecap: round"/>
   </g>
   <g id="patch_6">
    <path d="M 590.4 340.878979 
Q 590.4 372.515632 590.4 403.034251 
" clip-path="url(#pdcb56c619b)" style="fill: none; stroke: #000000; stroke-opacity: 0.5; stroke-linecap: round"/>
    <path d="M 594.4 395.034251 
L 590.4 403.034251 
L 586.4 395.034251 
z
" clip-path="url(#pdcb56c619b)" style="fill-opacity: 0.5; stroke: #000000; stroke-opacity: 0.5; stroke-linecap: round"/>
   </g>
   <g id="patch_7">
    <path d="M 405.93719 157.606252 
Q 405.93719 189.242905 405.93719 219.761524 
" clip-path="url(#pdcb56c619b)" style="fill: none; stroke: #000000; stroke-opacity: 0.5; stroke-linecap: round"/>
    <path d="M 409.93719 211.761524 
L 405.93719 219.761524 
L 401.93719 211.761524 
z
" clip-path="url(#pdcb56c619b)" style="fill-opacity: 0.5; stroke: #000000; stroke-opacity: 0.5; stroke-linecap: round"/>
   </g>
   <g id="patch_8">
    <path d="M 959.32562 340.878979 
Q 959.32562 372.515632 959.32562 403.034251 
" clip-path="url(#pdcb56c619b)" style="fill: none; stroke: #000000; stroke-opacity: 0.5; stroke-linecap: round"/>
    <path d="M 963.32562 395.034251 
L 959.32562 403.034251 
L 955.32562 395.034251 
z
" clip-path="url(#pdcb56c619b)" style="fill-opacity: 0.5; stroke: #000000; stroke-opacity: 0.5; stroke-linecap: round"/>
   </g>
   <g id="patch_9">
    <path d="M 221.47438 340.878979 
Q 221.47438 372.515632 221.47438 403.034251 
" clip-path="url(#pdcb56c619b)" style="fill: none; stroke: #000000; stroke-opacity: 0.5; stroke-linecap: round"/>
    <path d="M 225.47438 395.034251 
L 221.47438 403.034251 
L 217.47438 395.034251 
z
" clip-path="url(#pdcb56c619b)" style="fill-opacity: 0.5; stroke: #000000; stroke-opacity: 0.5; stroke-linecap: round"/>
   </g>
   <g id="patch_10">
    <path d="M 405.93719 340.878979 
Q 405.93719 372.515632 405.93719 403.034251 
" clip-path="url(#pdcb56c619b)" style="fill: none; stroke: #000000; stroke-opacity: 0.5; stroke-linecap: round"/>
    <path d="M 409.93719 395.034251 
L 405.93719 403.034251 
L 401.93719 395.034251 
z
" clip-path="url(#pdcb56c619b)" style="fill-opacity: 0.5; stroke: #000000; stroke-opacity: 0.5; stroke-linecap: round"/>
   </g>
   <g id="patch_11">
    <path d="M 774.86281 340.878979 
Q 774.86281 372.515632 774.86281 403.034251 
" clip-path="url(#pdcb56c619b)" style="fill: none; stroke: #000000; stroke-opacity: 0.5; stroke-linecap: round"/>
    <path d="M 778.86281 395.034251 
L 774.86281 403.034251 
L 770.86281 395.034251 
z
" clip-path="url(#pdcb56c619b)" style="fill-opacity: 0.5; stroke: #000000; stroke-opacity: 0.5; stroke-linecap: round"/>
   </g>
  </g>
  <g id="axes_2">
   <g id="patch_12">
    <path d="M 544.926316 130.344115 
L 635.873684 130.344115 
L 635.873684 84.870431 
L 544.926316 84.870431 
z
" style="fill: #ffffff"/>
   </g>
   <g id="matplotlib.axis_1"/>
   <g id="matplotlib.axis_2">
    <g id="ytick_1">
     <g id="line2d_1"/>
     <g id="text_1">
      <!-- 0.0 -->
      <g transform="translate(525.523191 132.381464) scale(0.1 -0.1)">
       <defs>
        <path id="DejaVuSans-30" d="M 2034 4250 
Q 1547 4250 1301 3770 
Q 1056 3291 1056 2328 
Q 1056 1369 1301 889 
Q 1547 409 2034 409 
Q 2525 409 2770 889 
Q 3016 1369 3016 2328 
Q 3016 3291 2770 3770 
Q 2525 4250 2034 4250 
z
M 2034 4750 
Q 2819 4750 3233 4129 
Q 3647 3509 3647 2328 
Q 3647 1150 3233 529 
Q 2819 -91 2034 -91 
Q 1250 -91 836 529 
Q 422 1150 422 2328 
Q 422 3509 836 4129 
Q 1250 4750 2034 4750 
z
" transform="scale(0.015625)"/>
        <path id="DejaVuSans-2e" d="M 684 794 
L 1344 794 
L 1344 0 
L 684 0 
L 684 794 
z
" transform="scale(0.015625)"/>
       </defs>
       <use xlink:href="#DejaVuSans-30"/>
       <use xlink:href="#DejaVuSans-2e" x="63.623047"/>
       <use xlink:href="#DejaVuSans-30" x="95.410156"/>
      </g>
     </g>
    </g>
    <g id="ytick_2">
     <g id="line2d_2"/>
     <g id="text_2">
      <!-- 4.8 -->
      <g transform="translate(525.523191 90.736635) scale(0.1 -0.1)">
       <defs>
        <path id="DejaVuSans-34" d="M 2419 4116 
L 825 1625 
L 2419 1625 
L 2419 4116 
z
M 2253 4666 
L 3047 4666 
L 3047 1625 
L 3713 1625 
L 3713 1100 
L 3047 1100 
L 3047 0 
L 2419 0 
L 2419 1100 
L 313 1100 
L 313 1709 
L 2253 4666 
z
" transform="scale(0.015625)"/>
        <path id="DejaVuSans-38" d="M 2034 2216 
Q 1584 2216 1326 1975 
Q 1069 1734 1069 1313 
Q 1069 891 1326 650 
Q 1584 409 2034 409 
Q 2484 409 2743 651 
Q 3003 894 3003 1313 
Q 3003 1734 2745 1975 
Q 2488 2216 2034 2216 
z
M 1403 2484 
Q 997 2584 770 2862 
Q 544 3141 544 3541 
Q 544 4100 942 4425 
Q 1341 4750 2034 4750 
Q 2731 4750 3128 4425 
Q 3525 4100 3525 3541 
Q 3525 3141 3298 2862 
Q 3072 2584 2669 2484 
Q 3125 2378 3379 2068 
Q 3634 1759 3634 1313 
Q 3634 634 3220 271 
Q 2806 -91 2034 -91 
Q 1263 -91 848 271 
Q 434 634 434 1313 
Q 434 1759 690 2068 
Q 947 2378 1403 2484 
z
M 1172 3481 
Q 1172 3119 1398 2916 
Q 1625 2713 2034 2713 
Q 2441 2713 2670 2916 
Q 2900 3119 2900 3481 
Q 2900 3844 2670 4047 
Q 2441 4250 2034 4250 
Q 1625 4250 1398 4047 
Q 1172 3844 1172 3481 
z
" transform="scale(0.015625)"/>
       </defs>
       <use xlink:href="#DejaVuSans-34"/>
       <use xlink:href="#DejaVuSans-2e" x="63.623047"/>
       <use xlink:href="#DejaVuSans-38" x="95.410156"/>
      </g>
     </g>
    </g>
   </g>
   <g id="line2d_3">
    <path d="M 549.060287 128.05626 
L 549.638465 127.380085 
L 550.216643 126.950147 
L 550.79482 125.631123 
L 551.372998 124.821734 
L 551.951176 123.486293 
L 552.529354 120.868827 
L 553.107532 122.19825 
L 553.68571 124.31333 
L 554.263887 125.258056 
L 554.842065 125.758195 
L 557.154776 126.612487 
L 560.623843 126.831053 
L 562.358377 126.918002 
L 562.936554 127.156549 
L 563.514732 127.665116 
L 564.671088 128.016143 
L 566.405621 128.177051 
L 571.031044 128.257696 
L 598.2054 128.276615 
L 631.739713 128.277129 
L 631.739713 128.277129 
" clip-path="url(#p1ad2be1a3f)" style="fill: none; stroke: #000000; stroke-opacity: 0.6; stroke-width: 1.5; stroke-linecap: square"/>
   </g>
   <g id="line2d_4">
    <path d="M 549.060287 128.05626 
L 549.638465 127.380085 
L 550.216643 126.95017 
L 550.79482 125.631274 
L 551.372998 124.821768 
L 551.951176 123.483255 
L 552.529354 111.340407 
L 553.107532 114.42642 
L 553.68571 124.365776 
L 554.263887 125.305774 
L 554.842065 125.771579 
L 557.154776 126.605917 
L 559.467488 126.770975 
L 562.358377 126.919128 
L 562.936554 127.215601 
L 563.514732 127.680616 
L 564.671088 128.032354 
L 566.405621 128.181766 
L 571.031044 128.258216 
L 599.361756 128.276667 
L 631.739713 128.277129 
L 631.739713 128.277129 
" clip-path="url(#p1ad2be1a3f)" style="fill: none; stroke: #0000ff; stroke-opacity: 0.6; stroke-width: 1.5; stroke-linecap: square"/>
   </g>
   <g id="line2d_5">
    <path d="M 549.060287 128.087979 
L 549.638465 127.394761 
L 550.216643 126.983891 
L 550.79482 125.604789 
L 551.372998 124.787767 
L 551.951176 123.57199 
L 552.529354 120.120285 
L 553.68571 124.245328 
L 554.263887 125.206729 
L 554.842065 125.753535 
L 556.576599 126.515512 
L 558.311132 126.697203 
L 562.358377 126.918868 
L 562.936554 127.177962 
L 563.514732 127.675212 
L 564.671088 128.017058 
L 566.405621 128.177279 
L 571.031044 128.257726 
L 598.783578 128.27664 
L 631.739713 128.277129 
L 631.739713 128.277129 
" clip-path="url(#p1ad2be1a3f)" style="fill: none; stroke: #008000; stroke-opacity: 0.6; stroke-width: 1.5; stroke-linecap: square"/>
   </g>
   <g id="line2d_6">
    <path d="M 549.060287 128.088033 
L 549.638465 127.394778 
L 550.216643 126.984042 
L 550.79482 125.605479 
L 551.372998 124.787803 
L 551.951176 123.597315 
L 552.529354 120.235919 
L 553.68571 124.379984 
L 554.263887 125.204882 
L 554.842065 125.757753 
L 556.576599 126.51915 
L 558.311132 126.697709 
L 562.358377 126.919167 
L 562.936554 127.184236 
L 563.514732 127.678888 
L 564.671088 128.018624 
L 566.405621 128.177643 
L 571.031044 128.257765 
L 598.783578 128.27664 
L 631.739713 128.277129 
L 631.739713 128.277129 
" clip-path="url(#p1ad2be1a3f)" style="fill: none; stroke: #ff0000; stroke-opacity: 0.6; stroke-width: 1.5; stroke-linecap: square"/>
   </g>
   <g id="line2d_7">
    <path d="M 549.060287 86.937416 
L 631.739713 86.937416 
L 631.739713 86.937416 
" clip-path="url(#p1ad2be1a3f)" style="fill: none; stroke-dasharray: 5.55,2.4; stroke-dashoffset: 0; stroke: #ff0000; stroke-width: 1.5"/>
   </g>
   <g id="text_3">
    <!-- J3 -->
    <g transform="translate(584.8125 78.870431) scale(0.12 -0.12)">
     <defs>
      <path id="DejaVuSans-4a" d="M 628 4666 
L 1259 4666 
L 1259 325 
Q 1259 -519 939 -900 
Q 619 -1281 -91 -1281 
L -331 -1281 
L -331 -750 
L -134 -750 
Q 284 -750 456 -515 
Q 628 -281 628 325 
L 628 4666 
z
" transform="scale(0.015625)"/>
      <path id="DejaVuSans-33" d="M 2597 2516 
Q 3050 2419 3304 2112 
Q 3559 1806 3559 1356 
Q 3559 666 3084 287 
Q 2609 -91 1734 -91 
Q 1441 -91 1130 -33 
Q 819 25 488 141 
L 488 750 
Q 750 597 1062 519 
Q 1375 441 1716 441 
Q 2309 441 2620 675 
Q 2931 909 2931 1356 
Q 2931 1769 2642 2001 
Q 2353 2234 1838 2234 
L 1294 2234 
L 1294 2753 
L 1863 2753 
Q 2328 2753 2575 2939 
Q 2822 3125 2822 3475 
Q 2822 3834 2567 4026 
Q 2313 4219 1838 4219 
Q 1578 4219 1281 4162 
Q 984 4106 628 3988 
L 628 4550 
Q 988 4650 1302 4700 
Q 1616 4750 1894 4750 
Q 2613 4750 3031 4423 
Q 3450 4097 3450 3541 
Q 3450 3153 3228 2886 
Q 3006 2619 2597 2516 
z
" transform="scale(0.015625)"/>
     </defs>
     <use xlink:href="#DejaVuSans-4a"/>
     <use xlink:href="#DejaVuSans-33" x="29.492188"/>
    </g>
   </g>
  </g>
  <g id="axes_3">
   <g id="patch_13">
    <path d="M 176.000696 130.344115 
L 266.948064 130.344115 
L 266.948064 84.870431 
L 176.000696 84.870431 
z
" style="fill: #ffffff"/>
   </g>
   <g id="matplotlib.axis_3"/>
   <g id="matplotlib.axis_4">
    <g id="ytick_3">
     <g id="line2d_8"/>
     <g id="text_4">
      <!-- 0.0 -->
      <g transform="translate(156.597571 132.270628) scale(0.1 -0.1)">
       <use xlink:href="#DejaVuSans-30"/>
       <use xlink:href="#DejaVuSans-2e" x="63.623047"/>
       <use xlink:href="#DejaVuSans-30" x="95.410156"/>
      </g>
     </g>
    </g>
    <g id="ytick_4">
     <g id="line2d_9"/>
     <g id="text_5">
      <!-- 9.0 -->
      <g transform="translate(156.597571 90.736635) scale(0.1 -0.1)">
       <defs>
        <path id="DejaVuSans-39" d="M 703 97 
L 703 672 
Q 941 559 1184 500 
Q 1428 441 1663 441 
Q 2288 441 2617 861 
Q 2947 1281 2994 2138 
Q 2813 1869 2534 1725 
Q 2256 1581 1919 1581 
Q 1219 1581 811 2004 
Q 403 2428 403 3163 
Q 403 3881 828 4315 
Q 1253 4750 1959 4750 
Q 2769 4750 3195 4129 
Q 3622 3509 3622 2328 
Q 3622 1225 3098 567 
Q 2575 -91 1691 -91 
Q 1453 -91 1209 -44 
Q 966 3 703 97 
z
M 1959 2075 
Q 2384 2075 2632 2365 
Q 2881 2656 2881 3163 
Q 2881 3666 2632 3958 
Q 2384 4250 1959 4250 
Q 1534 4250 1286 3958 
Q 1038 3666 1038 3163 
Q 1038 2656 1286 2365 
Q 1534 2075 1959 2075 
z
" transform="scale(0.015625)"/>
       </defs>
       <use xlink:href="#DejaVuSans-39"/>
       <use xlink:href="#DejaVuSans-2e" x="63.623047"/>
       <use xlink:href="#DejaVuSans-30" x="95.410156"/>
      </g>
     </g>
    </g>
   </g>
   <g id="line2d_10">
    <path d="M 180.134667 128.26004 
L 180.712845 127.732584 
L 181.291023 127.469412 
L 183.025556 125.316179 
L 183.603734 123.907343 
L 184.181912 124.314944 
L 184.76009 125.62105 
L 185.338267 126.214202 
L 185.916445 126.564948 
L 188.229156 127.136617 
L 192.854579 127.320972 
L 194.010935 127.433797 
L 195.16729 127.920361 
L 196.901824 128.152739 
L 199.214535 128.219675 
L 203.839957 128.170578 
L 262.814093 128.179379 
L 262.814093 128.179379 
" clip-path="url(#p534c11aade)" style="fill: none; stroke: #000000; stroke-opacity: 0.6; stroke-width: 1.5; stroke-linecap: square"/>
   </g>
   <g id="line2d_11">
    <path d="M 180.134667 128.26004 
L 180.712845 127.732584 
L 181.291023 127.46853 
L 183.025556 125.327334 
L 183.603734 123.959555 
L 184.181912 116.988429 
L 184.76009 112.756824 
L 185.338267 111.989836 
L 185.916445 112.562044 
L 186.494623 113.583306 
L 187.650979 117.00173 
L 189.385512 122.64511 
L 191.698223 127.078872 
L 192.276401 127.385111 
L 194.589112 127.760766 
L 195.745468 128.047693 
L 198.058179 128.212276 
L 200.949068 128.18061 
L 214.825335 128.177323 
L 262.814093 128.179378 
L 262.814093 128.179378 
" clip-path="url(#p534c11aade)" style="fill: none; stroke: #0000ff; stroke-opacity: 0.6; stroke-width: 1.5; stroke-linecap: square"/>
   </g>
   <g id="line2d_12">
    <path d="M 180.134667 128.277118 
L 180.712845 127.753059 
L 181.291023 127.466691 
L 181.869201 126.625448 
L 183.025556 125.602304 
L 183.603734 123.69061 
L 184.181912 118.917847 
L 184.76009 119.443401 
L 185.916445 124.275073 
L 186.494623 126.105585 
L 187.072801 126.968939 
L 187.650979 127.206633 
L 188.807334 127.332791 
L 189.96369 127.165238 
L 194.010935 127.380443 
L 195.16729 127.844045 
L 196.901824 128.041806 
L 201.527246 128.167816 
L 216.559869 128.197656 
L 262.814093 128.199029 
L 262.814093 128.199029 
" clip-path="url(#p534c11aade)" style="fill: none; stroke: #008000; stroke-opacity: 0.6; stroke-width: 1.5; stroke-linecap: square"/>
   </g>
   <g id="line2d_13">
    <path d="M 180.134667 128.277129 
L 180.712845 127.752987 
L 181.291023 127.46632 
L 181.869201 126.626764 
L 183.025556 125.618234 
L 183.603734 123.880922 
L 184.181912 119.101306 
L 184.76009 119.67939 
L 185.916445 124.339188 
L 186.494623 126.14876 
L 187.072801 126.982971 
L 187.650979 127.211172 
L 188.807334 127.331176 
L 189.96369 127.165621 
L 194.010935 127.382905 
L 195.16729 127.8458 
L 196.901824 128.042242 
L 201.527246 128.167531 
L 217.138047 128.197414 
L 262.814093 128.198768 
L 262.814093 128.198768 
" clip-path="url(#p534c11aade)" style="fill: none; stroke: #ff0000; stroke-opacity: 0.6; stroke-width: 1.5; stroke-linecap: square"/>
   </g>
   <g id="line2d_14">
    <path d="M 180.134667 86.937416 
L 262.814093 86.937416 
L 262.814093 86.937416 
" clip-path="url(#p534c11aade)" style="fill: none; stroke-dasharray: 5.55,2.4; stroke-dashoffset: 0; stroke: #ff0000; stroke-width: 1.5"/>
   </g>
   <g id="text_6">
    <!-- J1 -->
    <g transform="translate(215.88688 78.870431) scale(0.12 -0.12)">
     <defs>
      <path id="DejaVuSans-31" d="M 794 531 
L 1825 531 
L 1825 4091 
L 703 3866 
L 703 4441 
L 1819 4666 
L 2450 4666 
L 2450 531 
L 3481 531 
L 3481 0 
L 794 0 
L 794 531 
z
" transform="scale(0.015625)"/>
     </defs>
     <use xlink:href="#DejaVuSans-4a"/>
     <use xlink:href="#DejaVuSans-31" x="29.492188"/>
    </g>
   </g>
  </g>
  <g id="axes_4">
   <g id="patch_14">
    <path d="M 729.389126 130.344115 
L 820.336494 130.344115 
L 820.336494 84.870431 
L 729.389126 84.870431 
z
" style="fill: #ffffff"/>
   </g>
   <g id="matplotlib.axis_5"/>
   <g id="matplotlib.axis_6">
    <g id="ytick_5">
     <g id="line2d_15"/>
     <g id="text_7">
      <!-- 0.0 -->
      <g transform="translate(709.986001 132.542638) scale(0.1 -0.1)">
       <use xlink:href="#DejaVuSans-30"/>
       <use xlink:href="#DejaVuSans-2e" x="63.623047"/>
       <use xlink:href="#DejaVuSans-30" x="95.410156"/>
      </g>
     </g>
    </g>
    <g id="ytick_6">
     <g id="line2d_16"/>
     <g id="text_8">
      <!-- 4.2 -->
      <g transform="translate(709.986001 90.736635) scale(0.1 -0.1)">
       <defs>
        <path id="DejaVuSans-32" d="M 1228 531 
L 3431 531 
L 3431 0 
L 469 0 
L 469 531 
Q 828 903 1448 1529 
Q 2069 2156 2228 2338 
Q 2531 2678 2651 2914 
Q 2772 3150 2772 3378 
Q 2772 3750 2511 3984 
Q 2250 4219 1831 4219 
Q 1534 4219 1204 4116 
Q 875 4013 500 3803 
L 500 4441 
Q 881 4594 1212 4672 
Q 1544 4750 1819 4750 
Q 2544 4750 2975 4387 
Q 3406 4025 3406 3419 
Q 3406 3131 3298 2873 
Q 3191 2616 2906 2266 
Q 2828 2175 2409 1742 
Q 1991 1309 1228 531 
z
" transform="scale(0.015625)"/>
       </defs>
       <use xlink:href="#DejaVuSans-34"/>
       <use xlink:href="#DejaVuSans-2e" x="63.623047"/>
       <use xlink:href="#DejaVuSans-32" x="95.410156"/>
      </g>
     </g>
    </g>
   </g>
   <g id="line2d_17">
    <path d="M 733.523097 128.219137 
L 734.101275 127.117864 
L 734.679453 126.443201 
L 736.413986 120.930019 
L 736.992164 116.998195 
L 737.570342 117.989559 
L 738.148519 121.441475 
L 738.726697 123.075103 
L 739.304875 123.969776 
L 741.039408 125.283912 
L 742.195764 125.566238 
L 745.664831 125.907572 
L 746.821186 125.997602 
L 747.399364 126.247682 
L 747.977542 126.899323 
L 748.55572 127.276062 
L 749.712075 127.681904 
L 751.446609 127.961157 
L 754.337498 128.131982 
L 761.275632 128.230005 
L 789.606344 128.261133 
L 816.202523 128.262901 
L 816.202523 128.262901 
" clip-path="url(#pdd7b548c8a)" style="fill: none; stroke: #000000; stroke-opacity: 0.6; stroke-width: 1.5; stroke-linecap: square"/>
   </g>
   <g id="line2d_18">
    <path d="M 733.523097 128.219137 
L 734.101275 127.117863 
L 734.679453 126.443224 
L 736.413986 120.937114 
L 736.992164 117.198254 
L 737.570342 118.87169 
L 738.148519 121.974279 
L 738.726697 123.157282 
L 739.304875 123.991129 
L 741.039408 125.275108 
L 742.195764 125.572881 
L 746.821186 126.000084 
L 747.399364 126.316575 
L 747.977542 126.921514 
L 749.133898 127.548111 
L 750.868431 127.906103 
L 753.181142 128.089954 
L 758.384743 128.209386 
L 775.151899 128.256815 
L 816.202523 128.262904 
L 816.202523 128.262904 
" clip-path="url(#pdd7b548c8a)" style="fill: none; stroke: #0000ff; stroke-opacity: 0.6; stroke-width: 1.5; stroke-linecap: square"/>
   </g>
   <g id="line2d_19">
    <path d="M 733.523097 128.259606 
L 734.101275 127.19864 
L 734.679453 126.577539 
L 735.25763 124.817415 
L 735.835808 123.482542 
L 736.413986 121.674814 
L 736.992164 117.506725 
L 737.570342 118.570042 
L 738.148519 121.818442 
L 738.726697 123.415971 
L 739.304875 124.365166 
L 740.461231 125.225505 
L 741.039408 125.556508 
L 743.930297 125.937522 
L 746.821186 126.161146 
L 747.399364 126.425682 
L 747.977542 127.033808 
L 749.133898 127.581311 
L 750.290253 127.846714 
L 752.602964 128.079393 
L 757.228387 128.213506 
L 771.682832 128.268706 
L 816.202523 128.276869 
L 816.202523 128.276869 
" clip-path="url(#pdd7b548c8a)" style="fill: none; stroke: #008000; stroke-opacity: 0.6; stroke-width: 1.5; stroke-linecap: square"/>
   </g>
   <g id="line2d_20">
    <path d="M 733.523097 128.259498 
L 734.101275 127.19632 
L 734.679453 126.570741 
L 735.25763 124.815504 
L 735.835808 123.482531 
L 736.413986 121.718202 
L 736.992164 117.657687 
L 737.570342 118.848449 
L 738.148519 122.026295 
L 738.726697 123.414411 
L 739.304875 124.373363 
L 740.461231 125.240675 
L 741.039408 125.57132 
L 743.930297 125.939917 
L 746.821186 126.160925 
L 747.399364 126.43539 
L 747.977542 127.040409 
L 749.133898 127.584333 
L 750.290253 127.848988 
L 752.602964 128.080642 
L 757.228387 128.212568 
L 770.526476 128.2674 
L 816.202523 128.276722 
L 816.202523 128.276722 
" clip-path="url(#pdd7b548c8a)" style="fill: none; stroke: #ff0000; stroke-opacity: 0.6; stroke-width: 1.5; stroke-linecap: square"/>
   </g>
   <g id="line2d_21">
    <path d="M 733.523097 86.937416 
L 816.202523 86.937416 
L 816.202523 86.937416 
" clip-path="url(#pdd7b548c8a)" style="fill: none; stroke-dasharray: 5.55,2.4; stroke-dashoffset: 0; stroke: #ff0000; stroke-width: 1.5"/>
   </g>
   <g id="text_9">
    <!-- J4 -->
    <g transform="translate(769.27531 78.870431) scale(0.12 -0.12)">
     <use xlink:href="#DejaVuSans-4a"/>
     <use xlink:href="#DejaVuSans-34" x="29.492188"/>
    </g>
   </g>
  </g>
  <g id="axes_5">
   <g id="patch_15">
    <path d="M 913.851936 130.344115 
L 1004.799304 130.344115 
L 1004.799304 84.870431 
L 913.851936 84.870431 
z
" style="fill: #ffffff"/>
   </g>
   <g id="matplotlib.axis_7"/>
   <g id="matplotlib.axis_8">
    <g id="ytick_7">
     <g id="line2d_22"/>
     <g id="text_10">
      <!-- 0.0 -->
      <g transform="translate(894.448811 132.474637) scale(0.1 -0.1)">
       <use xlink:href="#DejaVuSans-30"/>
       <use xlink:href="#DejaVuSans-2e" x="63.623047"/>
       <use xlink:href="#DejaVuSans-30" x="95.410156"/>
      </g>
     </g>
    </g>
    <g id="ytick_8">
     <g id="line2d_23"/>
     <g id="text_11">
      <!-- 4.0 -->
      <g transform="translate(894.448811 90.736635) scale(0.1 -0.1)">
       <use xlink:href="#DejaVuSans-34"/>
       <use xlink:href="#DejaVuSans-2e" x="63.623047"/>
       <use xlink:href="#DejaVuSans-30" x="95.410156"/>
      </g>
     </g>
    </g>
   </g>
   <g id="line2d_24">
    <path d="M 917.985907 127.947604 
L 918.564085 127.083926 
L 919.142263 126.511231 
L 919.72044 124.765121 
L 920.298618 123.532332 
L 920.876796 121.526326 
L 921.454974 117.795333 
L 922.033152 119.632411 
L 922.611329 122.563898 
L 923.189507 123.970016 
L 923.767685 124.707981 
L 925.502218 125.819238 
L 926.658574 126.02953 
L 931.283996 126.387267 
L 931.862174 126.710681 
L 932.440352 127.33593 
L 933.01853 127.638645 
L 934.174885 127.936763 
L 936.487597 128.144868 
L 941.113019 128.241209 
L 960.192887 128.274549 
L 1000.665333 128.277128 
L 1000.665333 128.277128 
" clip-path="url(#pba255411ff)" style="fill: none; stroke: #000000; stroke-opacity: 0.6; stroke-width: 1.5; stroke-linecap: square"/>
   </g>
   <g id="line2d_25">
    <path d="M 917.985907 127.947604 
L 918.564085 127.083926 
L 919.142263 126.511257 
L 919.72044 124.765338 
L 920.298618 123.532377 
L 920.876796 121.522198 
L 921.454974 117.704443 
L 922.033152 119.780337 
L 922.611329 122.648683 
L 923.189507 124.039482 
L 923.767685 124.729291 
L 926.080396 125.939203 
L 927.81493 126.117321 
L 930.705819 126.351271 
L 931.283996 126.388998 
L 931.862174 126.782689 
L 932.440352 127.354084 
L 933.596708 127.840456 
L 935.331241 128.079692 
L 938.800308 128.21489 
L 949.207508 128.268423 
L 1000.665333 128.277129 
L 1000.665333 128.277129 
" clip-path="url(#pba255411ff)" style="fill: none; stroke: #0000ff; stroke-opacity: 0.6; stroke-width: 1.5; stroke-linecap: square"/>
   </g>
   <g id="line2d_26">
    <path d="M 917.985907 127.984049 
L 918.564085 127.098849 
L 919.142263 126.544843 
L 919.72044 124.71241 
L 920.298618 123.466599 
L 920.876796 121.627486 
L 921.454974 117.768453 
L 922.033152 119.045993 
L 922.611329 122.461678 
L 923.189507 123.896493 
L 923.767685 124.700865 
L 925.502218 125.796309 
L 926.658574 126.032389 
L 931.283996 126.3887 
L 931.862174 126.741761 
L 932.440352 127.35193 
L 933.596708 127.817956 
L 935.331241 128.072345 
L 938.800308 128.21332 
L 949.207508 128.268315 
L 1000.665333 128.277128 
L 1000.665333 128.277128 
" clip-path="url(#pba255411ff)" style="fill: none; stroke: #008000; stroke-opacity: 0.6; stroke-width: 1.5; stroke-linecap: square"/>
   </g>
   <g id="line2d_27">
    <path d="M 917.985907 127.984096 
L 918.564085 127.098842 
L 919.142263 126.545027 
L 919.72044 124.713603 
L 920.298618 123.466726 
L 920.876796 121.658867 
L 921.454974 117.880967 
L 922.033152 119.281138 
L 922.611329 122.66806 
L 923.189507 123.8939 
L 923.767685 124.707164 
L 925.502218 125.801835 
L 926.658574 126.035135 
L 931.283996 126.38914 
L 931.862174 126.749127 
L 932.440352 127.356103 
L 933.596708 127.820278 
L 935.331241 128.072925 
L 938.800308 128.213445 
L 949.207508 128.268324 
L 1000.665333 128.277128 
L 1000.665333 128.277128 
" clip-path="url(#pba255411ff)" style="fill: none; stroke: #ff0000; stroke-opacity: 0.6; stroke-width: 1.5; stroke-linecap: square"/>
   </g>
   <g id="line2d_28">
    <path d="M 917.985907 86.937416 
L 1000.665333 86.937416 
L 1000.665333 86.937416 
" clip-path="url(#pba255411ff)" style="fill: none; stroke-dasharray: 5.55,2.4; stroke-dashoffset: 0; stroke: #ff0000; stroke-width: 1.5"/>
   </g>
   <g id="text_12">
    <!-- J5a -->
    <g transform="translate(950.061245 78.870431) scale(0.12 -0.12)">
     <defs>
      <path id="DejaVuSans-35" d="M 691 4666 
L 3169 4666 
L 3169 4134 
L 1269 4134 
L 1269 2991 
Q 1406 3038 1543 3061 
Q 1681 3084 1819 3084 
Q 2600 3084 3056 2656 
Q 3513 2228 3513 1497 
Q 3513 744 3044 326 
Q 2575 -91 1722 -91 
Q 1428 -91 1123 -41 
Q 819 9 494 109 
L 494 744 
Q 775 591 1075 516 
Q 1375 441 1709 441 
Q 2250 441 2565 725 
Q 2881 1009 2881 1497 
Q 2881 1984 2565 2268 
Q 2250 2553 1709 2553 
Q 1456 2553 1204 2497 
Q 953 2441 691 2322 
L 691 4666 
z
" transform="scale(0.015625)"/>
      <path id="DejaVuSans-61" d="M 2194 1759 
Q 1497 1759 1228 1600 
Q 959 1441 959 1056 
Q 959 750 1161 570 
Q 1363 391 1709 391 
Q 2188 391 2477 730 
Q 2766 1069 2766 1631 
L 2766 1759 
L 2194 1759 
z
M 3341 1997 
L 3341 0 
L 2766 0 
L 2766 531 
Q 2569 213 2275 61 
Q 1981 -91 1556 -91 
Q 1019 -91 701 211 
Q 384 513 384 1019 
Q 384 1609 779 1909 
Q 1175 2209 1959 2209 
L 2766 2209 
L 2766 2266 
Q 2766 2663 2505 2880 
Q 2244 3097 1772 3097 
Q 1472 3097 1187 3025 
Q 903 2953 641 2809 
L 641 3341 
Q 956 3463 1253 3523 
Q 1550 3584 1831 3584 
Q 2591 3584 2966 3190 
Q 3341 2797 3341 1997 
z
" transform="scale(0.015625)"/>
     </defs>
     <use xlink:href="#DejaVuSans-4a"/>
     <use xlink:href="#DejaVuSans-35" x="29.492188"/>
     <use xlink:href="#DejaVuSans-61" x="93.115234"/>
    </g>
   </g>
  </g>
  <g id="axes_6">
   <g id="patch_16">
    <path d="M 176.000696 496.889569 
L 266.948064 496.889569 
L 266.948064 451.415885 
L 176.000696 451.415885 
z
" style="fill: #ffffff"/>
   </g>
   <g id="matplotlib.axis_9"/>
   <g id="matplotlib.axis_10">
    <g id="ytick_9">
     <g id="line2d_29"/>
     <g id="text_13">
      <!-- 0.0 -->
      <g transform="translate(156.597571 498.621802) scale(0.1 -0.1)">
       <use xlink:href="#DejaVuSans-30"/>
       <use xlink:href="#DejaVuSans-2e" x="63.623047"/>
       <use xlink:href="#DejaVuSans-30" x="95.410156"/>
      </g>
     </g>
    </g>
    <g id="ytick_10">
     <g id="line2d_30"/>
     <g id="text_14">
      <!-- 3.0 -->
      <g transform="translate(156.597571 457.28209) scale(0.1 -0.1)">
       <use xlink:href="#DejaVuSans-33"/>
       <use xlink:href="#DejaVuSans-2e" x="63.623047"/>
       <use xlink:href="#DejaVuSans-30" x="95.410156"/>
      </g>
     </g>
    </g>
   </g>
   <g id="line2d_31">
    <path d="M 180.134667 494.822584 
L 183.025556 494.822584 
L 183.603734 493.053383 
L 184.181912 490.547872 
L 184.76009 493.233911 
L 185.338267 494.461952 
L 185.916445 494.657459 
L 187.650979 494.776109 
L 195.745468 494.815889 
L 262.814093 494.821207 
L 262.814093 494.821207 
" clip-path="url(#p5e82408d5d)" style="fill: none; stroke: #000000; stroke-opacity: 0.6; stroke-width: 1.5; stroke-linecap: square"/>
   </g>
   <g id="line2d_32">
    <path d="M 180.134667 494.822584 
L 262.814093 494.822584 
L 262.814093 494.822584 
" clip-path="url(#p5e82408d5d)" style="fill: none; stroke: #0000ff; stroke-opacity: 0.6; stroke-width: 1.5; stroke-linecap: square"/>
   </g>
   <g id="line2d_33">
    <path d="M 180.134667 494.822584 
L 262.814093 494.822584 
L 262.814093 494.822584 
" clip-path="url(#p5e82408d5d)" style="fill: none; stroke: #008000; stroke-opacity: 0.6; stroke-width: 1.5; stroke-linecap: square"/>
   </g>
   <g id="line2d_34">
    <path d="M 180.134667 494.822584 
L 262.814093 494.822584 
L 262.814093 494.822584 
" clip-path="url(#p5e82408d5d)" style="fill: none; stroke: #ff0000; stroke-opacity: 0.6; stroke-width: 1.5; stroke-linecap: square"/>
   </g>
   <g id="line2d_35">
    <path d="M 180.134667 453.482871 
L 262.814093 453.482871 
L 262.814093 453.482871 
" clip-path="url(#p5e82408d5d)" style="fill: none; stroke-dasharray: 5.55,2.4; stroke-dashoffset: 0; stroke: #ff0000; stroke-width: 1.5"/>
   </g>
   <g id="text_15">
    <!-- JC1b -->
    <g transform="translate(207.88813 445.415885) scale(0.12 -0.12)">
     <defs>
      <path id="DejaVuSans-43" d="M 4122 4306 
L 4122 3641 
Q 3803 3938 3442 4084 
Q 3081 4231 2675 4231 
Q 1875 4231 1450 3742 
Q 1025 3253 1025 2328 
Q 1025 1406 1450 917 
Q 1875 428 2675 428 
Q 3081 428 3442 575 
Q 3803 722 4122 1019 
L 4122 359 
Q 3791 134 3420 21 
Q 3050 -91 2638 -91 
Q 1578 -91 968 557 
Q 359 1206 359 2328 
Q 359 3453 968 4101 
Q 1578 4750 2638 4750 
Q 3056 4750 3426 4639 
Q 3797 4528 4122 4306 
z
" transform="scale(0.015625)"/>
      <path id="DejaVuSans-62" d="M 3116 1747 
Q 3116 2381 2855 2742 
Q 2594 3103 2138 3103 
Q 1681 3103 1420 2742 
Q 1159 2381 1159 1747 
Q 1159 1113 1420 752 
Q 1681 391 2138 391 
Q 2594 391 2855 752 
Q 3116 1113 3116 1747 
z
M 1159 2969 
Q 1341 3281 1617 3432 
Q 1894 3584 2278 3584 
Q 2916 3584 3314 3078 
Q 3713 2572 3713 1747 
Q 3713 922 3314 415 
Q 2916 -91 2278 -91 
Q 1894 -91 1617 61 
Q 1341 213 1159 525 
L 1159 0 
L 581 0 
L 581 4863 
L 1159 4863 
L 1159 2969 
z
" transform="scale(0.015625)"/>
     </defs>
     <use xlink:href="#DejaVuSans-4a"/>
     <use xlink:href="#DejaVuSans-43" x="29.492188"/>
     <use xlink:href="#DejaVuSans-31" x="99.316406"/>
     <use xlink:href="#DejaVuSans-62" x="162.939453"/>
    </g>
   </g>
  </g>
  <g id="axes_7">
   <g id="patch_17">
    <path d="M 360.463506 496.889569 
L 451.410874 496.889569 
L 451.410874 451.415885 
L 360.463506 451.415885 
z
" style="fill: #ffffff"/>
   </g>
   <g id="matplotlib.axis_11"/>
   <g id="matplotlib.axis_12">
    <g id="ytick_11">
     <g id="line2d_36"/>
     <g id="text_16">
      <!-- 0.0 -->
      <g transform="translate(341.060381 498.621802) scale(0.1 -0.1)">
       <use xlink:href="#DejaVuSans-30"/>
       <use xlink:href="#DejaVuSans-2e" x="63.623047"/>
       <use xlink:href="#DejaVuSans-30" x="95.410156"/>
      </g>
     </g>
    </g>
    <g id="ytick_12">
     <g id="line2d_37"/>
     <g id="text_17">
      <!-- 3.0 -->
      <g transform="translate(341.060381 457.28209) scale(0.1 -0.1)">
       <use xlink:href="#DejaVuSans-33"/>
       <use xlink:href="#DejaVuSans-2e" x="63.623047"/>
       <use xlink:href="#DejaVuSans-30" x="95.410156"/>
      </g>
     </g>
    </g>
   </g>
   <g id="line2d_38">
    <path d="M 364.597477 494.822584 
L 367.488366 494.713721 
L 368.066544 491.860492 
L 368.644722 487.236466 
L 369.2229 490.496906 
L 369.801077 492.843322 
L 370.379255 493.710792 
L 370.957433 494.097699 
L 372.113789 494.458884 
L 374.4265 494.657658 
L 379.6301 494.76292 
L 400.444501 494.810988 
L 447.276903 494.818544 
L 447.276903 494.818544 
" clip-path="url(#p8f3e0dc853)" style="fill: none; stroke: #000000; stroke-opacity: 0.6; stroke-width: 1.5; stroke-linecap: square"/>
   </g>
   <g id="line2d_39">
    <path d="M 364.597477 494.822584 
L 367.488366 494.822584 
L 368.066544 494.321806 
L 368.644722 491.555616 
L 369.2229 493.251452 
L 369.801077 493.93258 
L 370.379255 494.226427 
L 371.535611 494.50184 
L 373.848322 494.676028 
L 380.208278 494.776369 
L 407.382635 494.81466 
L 447.276903 494.818784 
L 447.276903 494.818784 
" clip-path="url(#p8f3e0dc853)" style="fill: none; stroke: #0000ff; stroke-opacity: 0.6; stroke-width: 1.5; stroke-linecap: square"/>
   </g>
   <g id="line2d_40">
    <path d="M 364.597477 494.822584 
L 367.488366 494.818957 
L 368.066544 490.890896 
L 368.644722 489.089262 
L 369.2229 491.824732 
L 369.801077 493.408987 
L 370.379255 493.998175 
L 370.957433 494.279138 
L 372.113789 494.514462 
L 374.4265 494.682127 
L 380.786456 494.776706 
L 407.960812 494.814675 
L 447.276903 494.818741 
L 447.276903 494.818741 
" clip-path="url(#p8f3e0dc853)" style="fill: none; stroke: #008000; stroke-opacity: 0.6; stroke-width: 1.5; stroke-linecap: square"/>
   </g>
   <g id="line2d_41">
    <path d="M 364.597477 494.822584 
L 367.488366 494.806665 
L 368.066544 490.954459 
L 368.644722 489.34512 
L 369.2229 492.085661 
L 369.801077 493.421345 
L 370.379255 494.009465 
L 370.957433 494.284745 
L 372.113789 494.517871 
L 374.4265 494.683212 
L 380.786456 494.776813 
L 407.960812 494.814679 
L 447.276903 494.818743 
L 447.276903 494.818743 
" clip-path="url(#p8f3e0dc853)" style="fill: none; stroke: #ff0000; stroke-opacity: 0.6; stroke-width: 1.5; stroke-linecap: square"/>
   </g>
   <g id="line2d_42">
    <path d="M 364.597477 453.482871 
L 447.276903 453.482871 
L 447.276903 453.482871 
" clip-path="url(#p8f3e0dc853)" style="fill: none; stroke-dasharray: 5.55,2.4; stroke-dashoffset: 0; stroke: #ff0000; stroke-width: 1.5"/>
   </g>
   <g id="text_18">
    <!-- JC2 -->
    <g transform="translate(396.160003 445.415885) scale(0.12 -0.12)">
     <use xlink:href="#DejaVuSans-4a"/>
     <use xlink:href="#DejaVuSans-43" x="29.492188"/>
     <use xlink:href="#DejaVuSans-32" x="99.316406"/>
    </g>
   </g>
  </g>
  <g id="axes_8">
   <g id="patch_18">
    <path d="M 729.389126 496.889569 
L 820.336494 496.889569 
L 820.336494 451.415885 
L 729.389126 451.415885 
z
" style="fill: #ffffff"/>
   </g>
   <g id="matplotlib.axis_13"/>
   <g id="matplotlib.axis_14">
    <g id="ytick_13">
     <g id="line2d_43"/>
     <g id="text_19">
      <!-- 0.0 -->
      <g transform="translate(709.986001 498.621802) scale(0.1 -0.1)">
       <use xlink:href="#DejaVuSans-30"/>
       <use xlink:href="#DejaVuSans-2e" x="63.623047"/>
       <use xlink:href="#DejaVuSans-30" x="95.410156"/>
      </g>
     </g>
    </g>
    <g id="ytick_14">
     <g id="line2d_44"/>
     <g id="text_20">
      <!-- 3.0 -->
      <g transform="translate(709.986001 457.28209) scale(0.1 -0.1)">
       <use xlink:href="#DejaVuSans-33"/>
       <use xlink:href="#DejaVuSans-2e" x="63.623047"/>
       <use xlink:href="#DejaVuSans-30" x="95.410156"/>
      </g>
     </g>
    </g>
   </g>
   <g id="line2d_45">
    <path d="M 733.523097 494.822584 
L 735.835808 494.822584 
L 736.413986 494.699717 
L 736.992164 493.151902 
L 737.570342 488.945112 
L 738.148519 485.65309 
L 738.726697 487.012442 
L 739.304875 489.368845 
L 739.883053 491.064005 
L 740.461231 492.251505 
L 741.039408 492.946535 
L 741.617586 493.364412 
L 742.773942 493.847384 
L 744.508475 494.210363 
L 746.821186 494.431025 
L 752.024787 494.622554 
L 763.588343 494.739724 
L 800.013544 494.803145 
L 816.202523 494.809913 
L 816.202523 494.809913 
" clip-path="url(#p0821a3bd42)" style="fill: none; stroke: #000000; stroke-opacity: 0.6; stroke-width: 1.5; stroke-linecap: square"/>
   </g>
   <g id="line2d_46">
    <path d="M 733.523097 494.822584 
L 736.992164 494.822477 
L 737.570342 494.136025 
L 738.148519 489.278192 
L 738.726697 488.361205 
L 739.883053 491.505917 
L 740.461231 492.545464 
L 741.039408 493.129205 
L 742.195764 493.776807 
L 743.930297 494.186215 
L 746.243009 494.429638 
L 750.868431 494.613905 
L 761.275632 494.7326 
L 793.653589 494.799969 
L 816.202523 494.810327 
L 816.202523 494.810327 
" clip-path="url(#p0821a3bd42)" style="fill: none; stroke: #0000ff; stroke-opacity: 0.6; stroke-width: 1.5; stroke-linecap: square"/>
   </g>
   <g id="line2d_47">
    <path d="M 733.523097 494.822584 
L 736.413986 494.81942 
L 737.570342 485.66564 
L 738.148519 484.916511 
L 739.304875 489.41571 
L 739.883053 491.048748 
L 740.461231 492.100138 
L 741.039408 492.792946 
L 741.617586 493.303539 
L 742.773942 493.833156 
L 743.930297 494.12306 
L 746.243009 494.398082 
L 750.290253 494.586167 
L 758.96292 494.71398 
L 784.402744 494.791267 
L 816.202523 494.810171 
L 816.202523 494.810171 
" clip-path="url(#p0821a3bd42)" style="fill: none; stroke: #008000; stroke-opacity: 0.6; stroke-width: 1.5; stroke-linecap: square"/>
   </g>
   <g id="line2d_48">
    <path d="M 733.523097 494.822584 
L 736.413986 494.820978 
L 736.992164 490.802271 
L 737.570342 485.457313 
L 738.148519 484.940169 
L 739.304875 489.54017 
L 739.883053 491.126718 
L 740.461231 492.156875 
L 741.039408 492.829083 
L 741.617586 493.325874 
L 742.773942 493.844076 
L 743.930297 494.129546 
L 746.821186 494.44083 
L 752.024787 494.627899 
L 763.588343 494.741904 
L 800.591722 494.803904 
L 816.202523 494.810176 
L 816.202523 494.810176 
" clip-path="url(#p0821a3bd42)" style="fill: none; stroke: #ff0000; stroke-opacity: 0.6; stroke-width: 1.5; stroke-linecap: square"/>
   </g>
   <g id="line2d_49">
    <path d="M 733.523097 453.482871 
L 816.202523 453.482871 
L 816.202523 453.482871 
" clip-path="url(#p0821a3bd42)" style="fill: none; stroke-dasharray: 5.55,2.4; stroke-dashoffset: 0; stroke: #ff0000; stroke-width: 1.5"/>
   </g>
   <g id="text_21">
    <!-- JC4c -->
    <g transform="translate(761.78656 445.415885) scale(0.12 -0.12)">
     <defs>
      <path id="DejaVuSans-63" d="M 3122 3366 
L 3122 2828 
Q 2878 2963 2633 3030 
Q 2388 3097 2138 3097 
Q 1578 3097 1268 2742 
Q 959 2388 959 1747 
Q 959 1106 1268 751 
Q 1578 397 2138 397 
Q 2388 397 2633 464 
Q 2878 531 3122 666 
L 3122 134 
Q 2881 22 2623 -34 
Q 2366 -91 2075 -91 
Q 1284 -91 818 406 
Q 353 903 353 1747 
Q 353 2603 823 3093 
Q 1294 3584 2113 3584 
Q 2378 3584 2631 3529 
Q 2884 3475 3122 3366 
z
" transform="scale(0.015625)"/>
     </defs>
     <use xlink:href="#DejaVuSans-4a"/>
     <use xlink:href="#DejaVuSans-43" x="29.492188"/>
     <use xlink:href="#DejaVuSans-34" x="99.316406"/>
     <use xlink:href="#DejaVuSans-63" x="162.939453"/>
    </g>
   </g>
  </g>
  <g id="axes_9">
   <g id="patch_19">
    <path d="M 544.926316 313.616842 
L 635.873684 313.616842 
L 635.873684 268.143158 
L 544.926316 268.143158 
z
" style="fill: #ffffff"/>
   </g>
   <g id="matplotlib.axis_15"/>
   <g id="matplotlib.axis_16">
    <g id="ytick_15">
     <g id="line2d_50"/>
     <g id="text_22">
      <!-- 0.0 -->
      <g transform="translate(525.523191 315.469582) scale(0.1 -0.1)">
       <use xlink:href="#DejaVuSans-30"/>
       <use xlink:href="#DejaVuSans-2e" x="63.623047"/>
       <use xlink:href="#DejaVuSans-30" x="95.410156"/>
      </g>
     </g>
    </g>
    <g id="ytick_16">
     <g id="line2d_51"/>
     <g id="text_23">
      <!-- 12.0 -->
      <g transform="translate(519.160691 274.009362) scale(0.1 -0.1)">
       <use xlink:href="#DejaVuSans-31"/>
       <use xlink:href="#DejaVuSans-32" x="63.623047"/>
       <use xlink:href="#DejaVuSans-2e" x="127.246094"/>
       <use xlink:href="#DejaVuSans-30" x="159.033203"/>
      </g>
     </g>
    </g>
   </g>
   <g id="line2d_52">
    <path d="M 549.060287 311.540063 
L 549.638465 311.005147 
L 550.216643 310.690027 
L 550.79482 309.688492 
L 551.372998 308.046296 
L 551.951176 301.406846 
L 552.529354 291.639222 
L 553.107532 291.92478 
L 554.263887 294.404296 
L 554.842065 297.056164 
L 555.420243 300.616887 
L 556.576599 308.683897 
L 557.154776 310.062109 
L 558.311132 310.257565 
L 562.358377 310.453102 
L 562.936554 310.548998 
L 563.514732 310.92163 
L 564.671088 311.264444 
L 566.405621 311.410923 
L 571.609221 311.481341 
L 613.238023 311.493445 
L 631.739713 311.49354 
L 631.739713 311.49354 
" clip-path="url(#p7444a9bab8)" style="fill: none; stroke: #000000; stroke-opacity: 0.6; stroke-width: 1.5; stroke-linecap: square"/>
   </g>
   <g id="line2d_53">
    <path d="M 549.060287 311.540063 
L 549.638465 311.005147 
L 550.216643 310.690043 
L 550.79482 309.688667 
L 551.372998 308.046435 
L 551.951176 301.360198 
L 552.529354 284.162046 
L 553.107532 283.714705 
L 553.68571 289.257865 
L 554.263887 290.690275 
L 554.842065 293.899747 
L 555.420243 297.890109 
L 556.576599 307.0686 
L 557.154776 309.619453 
L 557.732954 310.198664 
L 560.045665 310.354353 
L 562.358377 310.454712 
L 562.936554 310.583856 
L 563.514732 310.936694 
L 564.671088 311.280483 
L 566.983799 311.433709 
L 573.921933 311.486701 
L 631.739713 311.49354 
L 631.739713 311.49354 
" clip-path="url(#p7444a9bab8)" style="fill: none; stroke: #0000ff; stroke-opacity: 0.6; stroke-width: 1.5; stroke-linecap: square"/>
   </g>
   <g id="line2d_54">
    <path d="M 549.060287 311.549856 
L 549.638465 310.96319 
L 550.216643 310.565617 
L 550.79482 309.255044 
L 551.372998 306.045713 
L 552.529354 288.981187 
L 553.107532 289.334446 
L 553.68571 290.159294 
L 554.263887 290.748185 
L 554.842065 292.0191 
L 555.420243 294.925647 
L 557.154776 305.766776 
L 557.732954 307.670919 
L 558.311132 308.803529 
L 558.88931 309.670901 
L 559.467488 310.017868 
L 561.202021 310.153923 
L 562.936554 310.315342 
L 563.514732 310.74688 
L 564.09291 311.025138 
L 565.249266 311.270723 
L 567.561977 311.410434 
L 574.50011 311.462779 
L 631.739713 311.470117 
L 631.739713 311.470117 
" clip-path="url(#p7444a9bab8)" style="fill: none; stroke: #008000; stroke-opacity: 0.6; stroke-width: 1.5; stroke-linecap: square"/>
   </g>
   <g id="line2d_55">
    <path d="M 549.060287 311.549856 
L 549.638465 310.964754 
L 550.216643 310.572933 
L 550.79482 309.260186 
L 551.372998 305.982639 
L 552.529354 289.002732 
L 553.107532 289.408091 
L 553.68571 290.296322 
L 554.263887 290.764596 
L 554.842065 292.043816 
L 555.998421 298.630992 
L 557.154776 306.12331 
L 557.732954 307.893816 
L 558.311132 309.023571 
L 558.88931 309.743842 
L 559.467488 310.030941 
L 562.936554 310.342508 
L 563.514732 310.770261 
L 564.09291 311.040922 
L 565.249266 311.278632 
L 567.561977 311.413925 
L 574.50011 311.465012 
L 631.739713 311.470097 
L 631.739713 311.470097 
" clip-path="url(#p7444a9bab8)" style="fill: none; stroke: #ff0000; stroke-opacity: 0.6; stroke-width: 1.5; stroke-linecap: square"/>
   </g>
   <g id="line2d_56">
    <path d="M 549.060287 270.210144 
L 631.739713 270.210144 
L 631.739713 270.210144 
" clip-path="url(#p7444a9bab8)" style="fill: none; stroke-dasharray: 5.55,2.4; stroke-dashoffset: 0; stroke: #ff0000; stroke-width: 1.5"/>
   </g>
   <g id="text_24">
    <!-- R3 -->
    <g transform="translate(582.413437 262.143158) scale(0.12 -0.12)">
     <defs>
      <path id="DejaVuSans-52" d="M 2841 2188 
Q 3044 2119 3236 1894 
Q 3428 1669 3622 1275 
L 4263 0 
L 3584 0 
L 2988 1197 
Q 2756 1666 2539 1819 
Q 2322 1972 1947 1972 
L 1259 1972 
L 1259 0 
L 628 0 
L 628 4666 
L 2053 4666 
Q 2853 4666 3247 4331 
Q 3641 3997 3641 3322 
Q 3641 2881 3436 2590 
Q 3231 2300 2841 2188 
z
M 1259 4147 
L 1259 2491 
L 2053 2491 
Q 2509 2491 2742 2702 
Q 2975 2913 2975 3322 
Q 2975 3731 2742 3939 
Q 2509 4147 2053 4147 
L 1259 4147 
z
" transform="scale(0.015625)"/>
     </defs>
     <use xlink:href="#DejaVuSans-52"/>
     <use xlink:href="#DejaVuSans-33" x="69.482422"/>
    </g>
   </g>
  </g>
  <g id="axes_10">
   <g id="patch_20">
    <path d="M 544.926316 496.889569 
L 635.873684 496.889569 
L 635.873684 451.415885 
L 544.926316 451.415885 
z
" style="fill: #ffffff"/>
   </g>
   <g id="matplotlib.axis_17"/>
   <g id="matplotlib.axis_18">
    <g id="ytick_17">
     <g id="line2d_57"/>
     <g id="text_25">
      <!-- 0.0 -->
      <g transform="translate(525.523191 498.621802) scale(0.1 -0.1)">
       <use xlink:href="#DejaVuSans-30"/>
       <use xlink:href="#DejaVuSans-2e" x="63.623047"/>
       <use xlink:href="#DejaVuSans-30" x="95.410156"/>
      </g>
     </g>
    </g>
    <g id="ytick_18">
     <g id="line2d_58"/>
     <g id="text_26">
      <!-- 12.0 -->
      <g transform="translate(519.160691 457.28209) scale(0.1 -0.1)">
       <use xlink:href="#DejaVuSans-31"/>
       <use xlink:href="#DejaVuSans-32" x="63.623047"/>
       <use xlink:href="#DejaVuSans-2e" x="127.246094"/>
       <use xlink:href="#DejaVuSans-30" x="159.033203"/>
      </g>
     </g>
    </g>
   </g>
   <g id="line2d_59">
    <path d="M 549.060287 494.822584 
L 551.951176 494.822584 
L 552.529354 475.430497 
L 553.107532 475.712473 
L 553.68571 476.614692 
L 554.263887 477.273309 
L 554.842065 477.505994 
L 557.154776 477.583739 
L 581.438244 477.597152 
L 631.739713 477.597362 
L 631.739713 477.597362 
" clip-path="url(#p4d50146b00)" style="fill: none; stroke: #000000; stroke-opacity: 0.6; stroke-width: 1.5; stroke-linecap: square"/>
   </g>
   <g id="line2d_60">
    <path d="M 549.060287 494.822584 
L 551.951176 494.822584 
L 552.529354 480.486031 
L 553.107532 475.602162 
L 553.68571 476.700873 
L 554.263887 477.361305 
L 554.842065 477.519687 
L 557.154776 477.584045 
L 579.125533 477.597082 
L 631.739713 477.597361 
L 631.739713 477.597361 
" clip-path="url(#p4d50146b00)" style="fill: none; stroke: #0000ff; stroke-opacity: 0.6; stroke-width: 1.5; stroke-linecap: square"/>
   </g>
   <g id="line2d_61">
    <path d="M 549.060287 494.822584 
L 551.951176 494.822584 
L 552.529354 475.605007 
L 553.107532 475.707391 
L 554.263887 476.874362 
L 554.842065 477.36737 
L 555.420243 477.526323 
L 558.311132 477.587337 
L 592.423622 477.597362 
L 631.739713 477.597362 
L 631.739713 477.597362 
" clip-path="url(#p4d50146b00)" style="fill: none; stroke: #008000; stroke-opacity: 0.6; stroke-width: 1.5; stroke-linecap: square"/>
   </g>
   <g id="line2d_62">
    <path d="M 549.060287 494.822584 
L 551.951176 494.822584 
L 552.529354 475.680294 
L 553.107532 475.776215 
L 553.68571 476.471964 
L 554.842065 477.372189 
L 555.420243 477.527107 
L 558.311132 477.587416 
L 593.0018 477.597362 
L 631.739713 477.597362 
L 631.739713 477.597362 
" clip-path="url(#p4d50146b00)" style="fill: none; stroke: #ff0000; stroke-opacity: 0.6; stroke-width: 1.5; stroke-linecap: square"/>
   </g>
   <g id="line2d_63">
    <path d="M 549.060287 453.482871 
L 631.739713 453.482871 
L 631.739713 453.482871 
" clip-path="url(#p4d50146b00)" style="fill: none; stroke-dasharray: 5.55,2.4; stroke-dashoffset: 0; stroke: #ff0000; stroke-width: 1.5"/>
   </g>
   <g id="text_27">
    <!-- JC3a -->
    <g transform="translate(576.945938 445.415885) scale(0.12 -0.12)">
     <use xlink:href="#DejaVuSans-4a"/>
     <use xlink:href="#DejaVuSans-43" x="29.492188"/>
     <use xlink:href="#DejaVuSans-33" x="99.316406"/>
     <use xlink:href="#DejaVuSans-61" x="162.939453"/>
    </g>
   </g>
  </g>
  <g id="axes_11">
   <g id="patch_21">
    <path d="M 360.463506 130.344115 
L 451.410874 130.344115 
L 451.410874 84.870431 
L 360.463506 84.870431 
z
" style="fill: #ffffff"/>
   </g>
   <g id="matplotlib.axis_19"/>
   <g id="matplotlib.axis_20">
    <g id="ytick_19">
     <g id="line2d_64"/>
     <g id="text_28">
      <!-- 0.0 -->
      <g transform="translate(341.060381 132.488574) scale(0.1 -0.1)">
       <use xlink:href="#DejaVuSans-30"/>
       <use xlink:href="#DejaVuSans-2e" x="63.623047"/>
       <use xlink:href="#DejaVuSans-30" x="95.410156"/>
      </g>
     </g>
    </g>
    <g id="ytick_20">
     <g id="line2d_65"/>
     <g id="text_29">
      <!-- 4.2 -->
      <g transform="translate(341.060381 90.736635) scale(0.1 -0.1)">
       <use xlink:href="#DejaVuSans-34"/>
       <use xlink:href="#DejaVuSans-2e" x="63.623047"/>
       <use xlink:href="#DejaVuSans-32" x="95.410156"/>
      </g>
     </g>
    </g>
   </g>
   <g id="line2d_66">
    <path d="M 364.597477 128.003457 
L 365.175655 127.024398 
L 365.753833 126.423027 
L 366.332011 124.673914 
L 366.910188 123.473169 
L 367.488366 121.505485 
L 368.066544 116.148049 
L 368.644722 118.506607 
L 369.2229 122.629132 
L 369.801077 123.977642 
L 370.379255 124.67631 
L 372.691966 125.877016 
L 375.582855 126.149188 
L 377.895567 126.306948 
L 378.473744 126.633308 
L 379.051922 127.286521 
L 379.6301 127.603892 
L 380.786456 127.909776 
L 382.520989 128.099241 
L 386.568234 128.215646 
L 400.444501 128.258714 
L 447.276903 128.263777 
L 447.276903 128.263777 
" clip-path="url(#p3a05dbb4fe)" style="fill: none; stroke: #000000; stroke-opacity: 0.6; stroke-width: 1.5; stroke-linecap: square"/>
   </g>
   <g id="line2d_67">
    <path d="M 364.597477 128.003457 
L 365.175655 127.024398 
L 365.753833 126.423052 
L 366.332011 124.674126 
L 366.910188 123.473219 
L 367.488366 121.510763 
L 368.066544 104.846754 
L 368.644722 109.829822 
L 369.2229 122.858503 
L 369.801077 124.041213 
L 370.379255 124.694561 
L 372.691966 125.86713 
L 374.4265 126.037805 
L 377.317389 126.270795 
L 377.895567 126.308578 
L 378.473744 126.709148 
L 379.051922 127.306133 
L 380.208278 127.812232 
L 381.942811 128.064857 
L 385.411878 128.200602 
L 395.819079 128.254882 
L 447.276903 128.263778 
L 447.276903 128.263778 
" clip-path="url(#p3a05dbb4fe)" style="fill: none; stroke: #0000ff; stroke-opacity: 0.6; stroke-width: 1.5; stroke-linecap: square"/>
   </g>
   <g id="line2d_68">
    <path d="M 364.597477 128.05868 
L 365.175655 127.124807 
L 365.753833 126.574246 
L 366.332011 124.91009 
L 366.910188 123.840921 
L 367.488366 119.58728 
L 368.066544 94.49671 
L 368.644722 107.911001 
L 369.2229 116.859248 
L 369.801077 123.94491 
L 370.379255 125.033583 
L 371.535611 125.669121 
L 372.691966 126.030552 
L 374.4265 126.194973 
L 377.895567 126.445439 
L 378.473744 126.785609 
L 379.051922 127.378411 
L 380.208278 127.832496 
L 381.942811 128.081685 
L 385.411878 128.216336 
L 395.819079 128.268533 
L 447.276903 128.277129 
L 447.276903 128.277129 
" clip-path="url(#p3a05dbb4fe)" style="fill: none; stroke: #008000; stroke-opacity: 0.6; stroke-width: 1.5; stroke-linecap: square"/>
   </g>
   <g id="line2d_69">
    <path d="M 364.597477 128.058261 
L 365.175655 127.124546 
L 365.753833 126.574523 
L 366.332011 124.910954 
L 366.910188 123.840988 
L 367.488366 119.469543 
L 368.066544 95.071364 
L 368.644722 108.225292 
L 369.2229 118.212362 
L 369.801077 124.122675 
L 370.379255 125.03951 
L 371.535611 125.702808 
L 372.691966 126.031603 
L 374.4265 126.19933 
L 377.317389 126.408763 
L 377.895567 126.439939 
L 378.473744 126.792139 
L 379.051922 127.382482 
L 380.208278 127.834522 
L 381.942811 128.08231 
L 385.411878 128.216136 
L 395.240901 128.267748 
L 447.276903 128.277124 
L 447.276903 128.277124 
" clip-path="url(#p3a05dbb4fe)" style="fill: none; stroke: #ff0000; stroke-opacity: 0.6; stroke-width: 1.5; stroke-linecap: square"/>
   </g>
   <g id="line2d_70">
    <path d="M 364.597477 86.937416 
L 447.276903 86.937416 
L 447.276903 86.937416 
" clip-path="url(#p3a05dbb4fe)" style="fill: none; stroke-dasharray: 5.55,2.4; stroke-dashoffset: 0; stroke: #ff0000; stroke-width: 1.5"/>
   </g>
   <g id="text_30">
    <!-- J2 -->
    <g transform="translate(400.34969 78.870431) scale(0.12 -0.12)">
     <use xlink:href="#DejaVuSans-4a"/>
     <use xlink:href="#DejaVuSans-32" x="29.492188"/>
    </g>
   </g>
  </g>
  <g id="axes_12">
   <g id="patch_22">
    <path d="M 913.851936 313.616842 
L 1004.799304 313.616842 
L 1004.799304 268.143158 
L 913.851936 268.143158 
z
" style="fill: #ffffff"/>
   </g>
   <g id="matplotlib.axis_21"/>
   <g id="matplotlib.axis_22">
    <g id="ytick_21">
     <g id="line2d_71"/>
     <g id="text_31">
      <!-- 0.0 -->
      <g transform="translate(894.448811 315.379164) scale(0.1 -0.1)">
       <use xlink:href="#DejaVuSans-30"/>
       <use xlink:href="#DejaVuSans-2e" x="63.623047"/>
       <use xlink:href="#DejaVuSans-30" x="95.410156"/>
      </g>
     </g>
    </g>
    <g id="ytick_22">
     <g id="line2d_72"/>
     <g id="text_32">
      <!-- 5.2 -->
      <g transform="translate(894.448811 274.009362) scale(0.1 -0.1)">
       <use xlink:href="#DejaVuSans-35"/>
       <use xlink:href="#DejaVuSans-2e" x="63.623047"/>
       <use xlink:href="#DejaVuSans-32" x="95.410156"/>
      </g>
     </g>
    </g>
   </g>
   <g id="line2d_73">
    <path d="M 917.985907 311.549856 
L 919.142263 311.097923 
L 919.72044 310.514294 
L 920.876796 308.855259 
L 921.454974 307.665802 
L 922.033152 307.516812 
L 922.611329 308.775342 
L 923.189507 309.543777 
L 923.767685 310.006926 
L 925.502218 310.587411 
L 927.236752 310.739049 
L 931.862174 310.924385 
L 933.01853 311.283683 
L 934.753063 311.436672 
L 939.378486 311.506038 
L 972.33462 311.520659 
L 1000.665333 311.520864 
L 1000.665333 311.520864 
" clip-path="url(#pbeac3cfa4a)" style="fill: none; stroke: #000000; stroke-opacity: 0.6; stroke-width: 1.5; stroke-linecap: square"/>
   </g>
   <g id="line2d_74">
    <path d="M 917.985907 311.549856 
L 919.142263 311.097974 
L 919.72044 310.514555 
L 920.876796 308.833747 
L 921.454974 307.301648 
L 922.033152 306.760915 
L 922.611329 308.815828 
L 923.189507 309.590912 
L 923.767685 310.026401 
L 925.502218 310.586217 
L 927.236752 310.741118 
L 931.862174 310.944196 
L 933.01853 311.28813 
L 934.753063 311.440809 
L 939.956663 311.508578 
L 981.007287 311.520768 
L 1000.665333 311.520865 
L 1000.665333 311.520865 
" clip-path="url(#pbeac3cfa4a)" style="fill: none; stroke: #0000ff; stroke-opacity: 0.6; stroke-width: 1.5; stroke-linecap: square"/>
   </g>
   <g id="line2d_75">
    <path d="M 917.985907 311.545587 
L 919.142263 310.799499 
L 919.72044 309.729869 
L 920.298618 306.877307 
L 920.876796 301.343214 
L 921.454974 288.865885 
L 922.033152 287.748103 
L 922.611329 290.217432 
L 923.189507 293.97632 
L 923.767685 300.701575 
L 924.345863 305.08248 
L 924.924041 307.56331 
L 925.502218 309.408547 
L 926.080396 310.046121 
L 931.862174 310.44246 
L 933.01853 311.066658 
L 934.174885 311.277839 
L 936.487597 311.410057 
L 943.42573 311.468649 
L 1000.665333 311.478803 
L 1000.665333 311.478803 
" clip-path="url(#pbeac3cfa4a)" style="fill: none; stroke: #008000; stroke-opacity: 0.6; stroke-width: 1.5; stroke-linecap: square"/>
   </g>
   <g id="line2d_76">
    <path d="M 917.985907 311.54543 
L 919.142263 310.79421 
L 919.72044 309.740911 
L 920.298618 306.872346 
L 920.876796 301.551408 
L 921.454974 289.037942 
L 922.033152 288.014282 
L 922.611329 290.424948 
L 923.189507 293.907615 
L 923.767685 300.662045 
L 924.345863 304.869874 
L 924.924041 307.496503 
L 925.502218 309.482872 
L 926.080396 310.062813 
L 928.393107 310.229921 
L 931.283996 310.385238 
L 931.862174 310.467269 
L 933.01853 311.075397 
L 934.174885 311.284231 
L 936.487597 311.413722 
L 943.42573 311.470367 
L 1000.665333 311.478265 
L 1000.665333 311.478265 
" clip-path="url(#pbeac3cfa4a)" style="fill: none; stroke: #ff0000; stroke-opacity: 0.6; stroke-width: 1.5; stroke-linecap: square"/>
   </g>
   <g id="line2d_77">
    <path d="M 917.985907 270.210144 
L 1000.665333 270.210144 
L 1000.665333 270.210144 
" clip-path="url(#pbeac3cfa4a)" style="fill: none; stroke-dasharray: 5.55,2.4; stroke-dashoffset: 0; stroke: #ff0000; stroke-width: 1.5"/>
   </g>
   <g id="text_33">
    <!-- R5 -->
    <g transform="translate(951.339057 262.143158) scale(0.12 -0.12)">
     <use xlink:href="#DejaVuSans-52"/>
     <use xlink:href="#DejaVuSans-35" x="69.482422"/>
    </g>
   </g>
  </g>
  <g id="axes_13">
   <g id="patch_23">
    <path d="M 176.000696 313.616842 
L 266.948064 313.616842 
L 266.948064 268.143158 
L 176.000696 268.143158 
z
" style="fill: #ffffff"/>
   </g>
   <g id="matplotlib.axis_23"/>
   <g id="matplotlib.axis_24">
    <g id="ytick_23">
     <g id="line2d_78"/>
     <g id="text_34">
      <!-- 0.0 -->
      <g transform="translate(156.597571 315.361716) scale(0.1 -0.1)">
       <use xlink:href="#DejaVuSans-30"/>
       <use xlink:href="#DejaVuSans-2e" x="63.623047"/>
       <use xlink:href="#DejaVuSans-30" x="95.410156"/>
      </g>
     </g>
    </g>
    <g id="ytick_24">
     <g id="line2d_79"/>
     <g id="text_35">
      <!-- 7.2 -->
      <g transform="translate(156.597571 274.009362) scale(0.1 -0.1)">
       <defs>
        <path id="DejaVuSans-37" d="M 525 4666 
L 3525 4666 
L 3525 4397 
L 1831 0 
L 1172 0 
L 2766 4134 
L 525 4134 
L 525 4666 
z
" transform="scale(0.015625)"/>
       </defs>
       <use xlink:href="#DejaVuSans-37"/>
       <use xlink:href="#DejaVuSans-2e" x="63.623047"/>
       <use xlink:href="#DejaVuSans-32" x="95.410156"/>
      </g>
     </g>
    </g>
   </g>
   <g id="line2d_80">
    <path d="M 180.134667 311.549856 
L 181.291023 311.319553 
L 182.447378 310.672406 
L 183.025556 310.290289 
L 183.603734 307.871226 
L 184.181912 307.169641 
L 184.76009 309.497979 
L 185.338267 310.665806 
L 185.916445 310.872452 
L 188.229156 311.157579 
L 204.996313 311.538307 
L 262.814093 311.53936 
L 262.814093 311.53936 
" clip-path="url(#pb8a8a2d4ea)" style="fill: none; stroke: #000000; stroke-opacity: 0.6; stroke-width: 1.5; stroke-linecap: square"/>
   </g>
   <g id="line2d_81">
    <path d="M 180.134667 311.549856 
L 181.291023 311.328654 
L 182.447378 310.659056 
L 183.025556 310.066499 
L 183.603734 303.101104 
L 184.181912 289.084138 
L 184.76009 283.582245 
L 185.338267 282.557391 
L 185.916445 283.263137 
L 186.494623 284.51906 
L 187.650979 288.755835 
L 189.385512 295.782353 
L 191.698223 301.781875 
L 192.854579 306.658592 
L 193.432757 309.223575 
L 194.010935 311.160934 
L 194.589112 311.397581 
L 196.901824 311.51371 
L 207.309024 311.538572 
L 262.814093 311.539361 
L 262.814093 311.539361 
" clip-path="url(#pb8a8a2d4ea)" style="fill: none; stroke: #0000ff; stroke-opacity: 0.6; stroke-width: 1.5; stroke-linecap: square"/>
   </g>
   <g id="line2d_82">
    <path d="M 180.134667 311.546241 
L 181.291023 311.144322 
L 181.869201 310.557766 
L 182.447378 309.265482 
L 183.025556 306.985497 
L 184.181912 292.097616 
L 184.76009 292.29495 
L 185.916445 298.083888 
L 186.494623 300.501455 
L 187.650979 306.080013 
L 188.229156 308.414359 
L 188.807334 310.016019 
L 189.385512 310.786206 
L 192.276401 310.873381 
L 194.010935 310.944457 
L 195.16729 311.293301 
L 196.901824 311.453701 
L 203.261779 311.508544 
L 256.454137 311.51449 
L 262.814093 311.51441 
L 262.814093 311.51441 
" clip-path="url(#pb8a8a2d4ea)" style="fill: none; stroke: #008000; stroke-opacity: 0.6; stroke-width: 1.5; stroke-linecap: square"/>
   </g>
   <g id="line2d_83">
    <path d="M 180.134667 311.54637 
L 181.291023 311.142664 
L 181.869201 310.559788 
L 182.447378 309.263262 
L 183.025556 307.10445 
L 183.603734 300.351408 
L 184.181912 292.248592 
L 184.76009 292.565188 
L 185.916445 298.164128 
L 186.494623 300.579886 
L 187.650979 306.186925 
L 188.229156 308.496853 
L 188.807334 310.083589 
L 189.385512 310.808609 
L 194.010935 310.954169 
L 195.16729 311.295572 
L 196.901824 311.454011 
L 202.683602 311.508136 
L 262.814093 311.51433 
L 262.814093 311.51433 
" clip-path="url(#pb8a8a2d4ea)" style="fill: none; stroke: #ff0000; stroke-opacity: 0.6; stroke-width: 1.5; stroke-linecap: square"/>
   </g>
   <g id="line2d_84">
    <path d="M 180.134667 270.210144 
L 262.814093 270.210144 
L 262.814093 270.210144 
" clip-path="url(#pb8a8a2d4ea)" style="fill: none; stroke-dasharray: 5.55,2.4; stroke-dashoffset: 0; stroke: #ff0000; stroke-width: 1.5"/>
   </g>
   <g id="text_36">
    <!-- R1 -->
    <g transform="translate(213.487818 262.143158) scale(0.12 -0.12)">
     <use xlink:href="#DejaVuSans-52"/>
     <use xlink:href="#DejaVuSans-31" x="69.482422"/>
    </g>
   </g>
  </g>
  <g id="axes_14">
   <g id="patch_24">
    <path d="M 360.463506 313.616842 
L 451.410874 313.616842 
L 451.410874 268.143158 
L 360.463506 268.143158 
z
" style="fill: #ffffff"/>
   </g>
   <g id="matplotlib.axis_25"/>
   <g id="matplotlib.axis_26">
    <g id="ytick_25">
     <g id="line2d_85"/>
     <g id="text_37">
      <!-- 0.0 -->
      <g transform="translate(341.060381 315.39321) scale(0.1 -0.1)">
       <use xlink:href="#DejaVuSans-30"/>
       <use xlink:href="#DejaVuSans-2e" x="63.623047"/>
       <use xlink:href="#DejaVuSans-30" x="95.410156"/>
      </g>
     </g>
    </g>
    <g id="ytick_26">
     <g id="line2d_86"/>
     <g id="text_38">
      <!-- 6.0 -->
      <g transform="translate(341.060381 274.009362) scale(0.1 -0.1)">
       <defs>
        <path id="DejaVuSans-36" d="M 2113 2584 
Q 1688 2584 1439 2293 
Q 1191 2003 1191 1497 
Q 1191 994 1439 701 
Q 1688 409 2113 409 
Q 2538 409 2786 701 
Q 3034 994 3034 1497 
Q 3034 2003 2786 2293 
Q 2538 2584 2113 2584 
z
M 3366 4563 
L 3366 3988 
Q 3128 4100 2886 4159 
Q 2644 4219 2406 4219 
Q 1781 4219 1451 3797 
Q 1122 3375 1075 2522 
Q 1259 2794 1537 2939 
Q 1816 3084 2150 3084 
Q 2853 3084 3261 2657 
Q 3669 2231 3669 1497 
Q 3669 778 3244 343 
Q 2819 -91 2113 -91 
Q 1303 -91 875 529 
Q 447 1150 447 2328 
Q 447 3434 972 4092 
Q 1497 4750 2381 4750 
Q 2619 4750 2861 4703 
Q 3103 4656 3366 4563 
z
" transform="scale(0.015625)"/>
       </defs>
       <use xlink:href="#DejaVuSans-36"/>
       <use xlink:href="#DejaVuSans-2e" x="63.623047"/>
       <use xlink:href="#DejaVuSans-30" x="95.410156"/>
      </g>
     </g>
    </g>
   </g>
   <g id="line2d_87">
    <path d="M 364.597477 311.493201 
L 365.753833 311.089265 
L 367.488366 309.23219 
L 368.066544 307.391299 
L 368.644722 307.780514 
L 369.2229 309.574958 
L 369.801077 310.137796 
L 370.379255 310.434472 
L 372.691966 310.894293 
L 378.473744 311.139406 
L 379.6301 311.416645 
L 382.520989 311.522086 
L 396.397256 311.54861 
L 447.276903 311.549856 
L 447.276903 311.549856 
" clip-path="url(#p3e9237c7c6)" style="fill: none; stroke: #000000; stroke-opacity: 0.6; stroke-width: 1.5; stroke-linecap: square"/>
   </g>
   <g id="line2d_88">
    <path d="M 364.597477 311.493201 
L 365.753833 311.089276 
L 367.488366 309.165132 
L 368.066544 296.280913 
L 368.644722 292.540016 
L 369.2229 308.03047 
L 369.801077 310.173889 
L 370.379255 310.44805 
L 372.691966 310.892563 
L 376.739211 311.017344 
L 378.473744 311.163634 
L 379.6301 311.419366 
L 381.942811 311.515739 
L 392.92819 311.547816 
L 447.276903 311.549856 
L 447.276903 311.549856 
" clip-path="url(#p3e9237c7c6)" style="fill: none; stroke: #0000ff; stroke-opacity: 0.6; stroke-width: 1.5; stroke-linecap: square"/>
   </g>
   <g id="line2d_89">
    <path d="M 364.597477 311.445097 
L 365.753833 310.763821 
L 366.332011 309.205111 
L 366.910188 305.917217 
L 368.066544 288.56163 
L 368.644722 289.463008 
L 369.2229 291.702672 
L 370.379255 306.524693 
L 370.957433 308.66133 
L 371.535611 309.957379 
L 372.113789 310.340846 
L 373.848322 310.468146 
L 377.895567 310.642759 
L 378.473744 310.816059 
L 379.051922 311.152234 
L 380.208278 311.360884 
L 383.099167 311.479509 
L 394.084545 311.514863 
L 447.276903 311.517698 
L 447.276903 311.517698 
" clip-path="url(#p3e9237c7c6)" style="fill: none; stroke: #008000; stroke-opacity: 0.6; stroke-width: 1.5; stroke-linecap: square"/>
   </g>
   <g id="line2d_90">
    <path d="M 364.597477 311.446941 
L 365.753833 310.764015 
L 366.332011 309.206737 
L 366.910188 305.726925 
L 368.066544 288.624439 
L 368.644722 289.537954 
L 369.2229 292.405049 
L 370.379255 307.004506 
L 370.957433 308.233864 
L 371.535611 309.797572 
L 372.113789 310.335198 
L 373.848322 310.472593 
L 377.895567 310.663821 
L 378.473744 310.821348 
L 379.051922 311.15467 
L 380.208278 311.361557 
L 383.099167 311.482543 
L 401.600857 311.516552 
L 432.822458 311.51899 
L 447.276903 311.517696 
L 447.276903 311.517696 
" clip-path="url(#p3e9237c7c6)" style="fill: none; stroke: #ff0000; stroke-opacity: 0.6; stroke-width: 1.5; stroke-linecap: square"/>
   </g>
   <g id="line2d_91">
    <path d="M 364.597477 270.210144 
L 447.276903 270.210144 
L 447.276903 270.210144 
" clip-path="url(#p3e9237c7c6)" style="fill: none; stroke-dasharray: 5.55,2.4; stroke-dashoffset: 0; stroke: #ff0000; stroke-width: 1.5"/>
   </g>
   <g id="text_39">
    <!-- R2 -->
    <g transform="translate(397.950628 262.143158) scale(0.12 -0.12)">
     <use xlink:href="#DejaVuSans-52"/>
     <use xlink:href="#DejaVuSans-32" x="69.482422"/>
    </g>
   </g>
  </g>
  <g id="axes_15">
   <g id="patch_25">
    <path d="M 729.389126 313.616842 
L 820.336494 313.616842 
L 820.336494 268.143158 
L 729.389126 268.143158 
z
" style="fill: #ffffff"/>
   </g>
   <g id="matplotlib.axis_27"/>
   <g id="matplotlib.axis_28">
    <g id="ytick_27">
     <g id="line2d_92"/>
     <g id="text_40">
      <!-- 0.0 -->
      <g transform="translate(709.986001 315.406671) scale(0.1 -0.1)">
       <use xlink:href="#DejaVuSans-30"/>
       <use xlink:href="#DejaVuSans-2e" x="63.623047"/>
       <use xlink:href="#DejaVuSans-30" x="95.410156"/>
      </g>
     </g>
    </g>
    <g id="ytick_28">
     <g id="line2d_93"/>
     <g id="text_41">
      <!-- 6.2 -->
      <g transform="translate(709.986001 274.009362) scale(0.1 -0.1)">
       <use xlink:href="#DejaVuSans-36"/>
       <use xlink:href="#DejaVuSans-2e" x="63.623047"/>
       <use xlink:href="#DejaVuSans-32" x="95.410156"/>
      </g>
     </g>
    </g>
   </g>
   <g id="line2d_94">
    <path d="M 733.523097 311.544157 
L 734.679453 311.069838 
L 735.835808 309.622254 
L 736.413986 308.715276 
L 736.992164 307.273227 
L 737.570342 307.240774 
L 738.148519 308.719485 
L 738.726697 309.483871 
L 739.304875 309.950285 
L 741.039408 310.562027 
L 742.773942 310.720442 
L 747.399364 310.938118 
L 748.55572 311.299109 
L 750.290253 311.449438 
L 754.915676 311.528705 
L 780.933677 311.549227 
L 816.202523 311.549855 
L 816.202523 311.549855 
" clip-path="url(#p9a5bb43842)" style="fill: none; stroke: #000000; stroke-opacity: 0.6; stroke-width: 1.5; stroke-linecap: square"/>
   </g>
   <g id="line2d_95">
    <path d="M 733.523097 311.544157 
L 734.679453 311.069856 
L 735.835808 309.622276 
L 736.413986 308.656571 
L 736.992164 305.905169 
L 737.570342 299.152667 
L 738.148519 306.467307 
L 738.726697 309.541631 
L 739.304875 309.970085 
L 741.039408 310.56092 
L 742.773942 310.72246 
L 747.399364 310.961931 
L 748.55572 311.303378 
L 750.290253 311.453822 
L 755.493854 311.532035 
L 787.87181 311.549508 
L 816.202523 311.549856 
L 816.202523 311.549856 
" clip-path="url(#p9a5bb43842)" style="fill: none; stroke: #0000ff; stroke-opacity: 0.6; stroke-width: 1.5; stroke-linecap: square"/>
   </g>
   <g id="line2d_96">
    <path d="M 733.523097 311.530851 
L 734.679453 310.804476 
L 735.25763 309.660761 
L 735.835808 306.811153 
L 736.413986 300.409118 
L 736.992164 291.369401 
L 737.570342 291.580664 
L 738.148519 293.726368 
L 738.726697 296.443623 
L 739.304875 301.962753 
L 739.883053 305.636947 
L 740.461231 307.900465 
L 741.039408 309.630064 
L 741.617586 310.103268 
L 743.930297 310.271728 
L 747.399364 310.550485 
L 747.977542 310.908664 
L 749.133898 311.226895 
L 750.868431 311.390569 
L 755.493854 311.487176 
L 778.042788 311.51547 
L 816.202523 311.516314 
L 816.202523 311.516314 
" clip-path="url(#p9a5bb43842)" style="fill: none; stroke: #008000; stroke-opacity: 0.6; stroke-width: 1.5; stroke-linecap: square"/>
   </g>
   <g id="line2d_97">
    <path d="M 733.523097 311.531625 
L 734.679453 310.827236 
L 735.25763 309.665664 
L 735.835808 306.809635 
L 736.413986 300.561844 
L 736.992164 291.436053 
L 737.570342 291.741372 
L 738.148519 293.826167 
L 738.726697 296.544753 
L 739.304875 301.781243 
L 739.883053 305.490949 
L 740.461231 308.079212 
L 741.039408 309.655709 
L 741.617586 310.080152 
L 743.930297 310.273849 
L 747.399364 310.542228 
L 747.977542 310.910068 
L 749.133898 311.227872 
L 750.868431 311.395533 
L 755.493854 311.487127 
L 770.526476 311.514289 
L 816.202523 311.518863 
L 816.202523 311.518863 
" clip-path="url(#p9a5bb43842)" style="fill: none; stroke: #ff0000; stroke-opacity: 0.6; stroke-width: 1.5; stroke-linecap: square"/>
   </g>
   <g id="line2d_98">
    <path d="M 733.523097 270.210144 
L 816.202523 270.210144 
L 816.202523 270.210144 
" clip-path="url(#p9a5bb43842)" style="fill: none; stroke-dasharray: 5.55,2.4; stroke-dashoffset: 0; stroke: #ff0000; stroke-width: 1.5"/>
   </g>
   <g id="text_42">
    <!-- R4 -->
    <g transform="translate(766.876247 262.143158) scale(0.12 -0.12)">
     <use xlink:href="#DejaVuSans-52"/>
     <use xlink:href="#DejaVuSans-34" x="69.482422"/>
    </g>
   </g>
  </g>
  <g id="axes_16">
   <g id="patch_26">
    <path d="M 913.851936 496.889569 
L 1004.799304 496.889569 
L 1004.799304 451.415885 
L 913.851936 451.415885 
z
" style="fill: #ffffff"/>
   </g>
   <g id="matplotlib.axis_29"/>
   <g id="matplotlib.axis_30">
    <g id="ytick_29">
     <g id="line2d_99"/>
     <g id="text_43">
      <!-- 0.0 -->
      <g transform="translate(894.448811 498.629599) scale(0.1 -0.1)">
       <use xlink:href="#DejaVuSans-30"/>
       <use xlink:href="#DejaVuSans-2e" x="63.623047"/>
       <use xlink:href="#DejaVuSans-30" x="95.410156"/>
      </g>
     </g>
    </g>
    <g id="ytick_30">
     <g id="line2d_100"/>
     <g id="text_44">
      <!-- 4.8 -->
      <g transform="translate(894.448811 457.28209) scale(0.1 -0.1)">
       <use xlink:href="#DejaVuSans-34"/>
       <use xlink:href="#DejaVuSans-2e" x="63.623047"/>
       <use xlink:href="#DejaVuSans-38" x="95.410156"/>
      </g>
     </g>
    </g>
   </g>
   <g id="line2d_101">
    <path d="M 917.985907 494.779875 
L 919.142263 493.993707 
L 920.876796 491.819057 
L 921.454974 490.343349 
L 922.033152 489.267165 
L 922.611329 488.704852 
L 923.189507 489.463505 
L 923.767685 490.76628 
L 924.345863 491.682975 
L 924.924041 492.364878 
L 925.502218 492.808909 
L 926.658574 493.200984 
L 928.393107 493.449943 
L 931.862174 493.682551 
L 933.01853 494.040516 
L 935.331241 494.361283 
L 939.378486 494.570091 
L 947.472975 494.709464 
L 974.069154 494.802654 
L 1000.665333 494.822187 
L 1000.665333 494.822187 
" clip-path="url(#pd79d3636e5)" style="fill: none; stroke: #000000; stroke-opacity: 0.6; stroke-width: 1.5; stroke-linecap: square"/>
   </g>
   <g id="line2d_102">
    <path d="M 917.985907 494.779875 
L 919.142263 493.993719 
L 920.876796 491.836474 
L 921.454974 490.688133 
L 922.033152 490.845796 
L 923.189507 490.226889 
L 924.345863 491.894786 
L 924.924041 492.500459 
L 925.502218 492.886008 
L 926.658574 493.25625 
L 928.393107 493.470223 
L 931.862174 493.708787 
L 933.01853 494.055144 
L 934.753063 494.326627 
L 938.22213 494.543056 
L 945.160264 494.693071 
L 963.083776 494.783369 
L 1000.665333 494.822584 
L 1000.665333 494.822584 
" clip-path="url(#pd79d3636e5)" style="fill: none; stroke: #0000ff; stroke-opacity: 0.6; stroke-width: 1.5; stroke-linecap: square"/>
   </g>
   <g id="line2d_103">
    <path d="M 917.985907 494.786492 
L 919.142263 494.013003 
L 920.876796 491.88861 
L 921.454974 489.301285 
L 922.033152 487.224721 
L 922.611329 487.975145 
L 923.767685 490.817821 
L 924.345863 491.697812 
L 925.502218 492.726477 
L 926.080396 493.023862 
L 927.236752 493.303213 
L 929.549463 493.531633 
L 931.862174 493.691398 
L 933.01853 494.046976 
L 935.331241 494.365546 
L 939.378486 494.573938 
L 947.472975 494.711567 
L 974.069154 494.803403 
L 1000.665333 494.822429 
L 1000.665333 494.822429 
" clip-path="url(#pd79d3636e5)" style="fill: none; stroke: #008000; stroke-opacity: 0.6; stroke-width: 1.5; stroke-linecap: square"/>
   </g>
   <g id="line2d_104">
    <path d="M 917.985907 494.786503 
L 919.142263 494.013142 
L 920.876796 491.904794 
L 922.033152 487.251287 
L 922.611329 488.052874 
L 923.767685 490.87983 
L 924.345863 491.735987 
L 924.924041 492.322379 
L 926.080396 493.034964 
L 927.236752 493.30821 
L 929.549463 493.529533 
L 931.862174 493.693472 
L 933.01853 494.048771 
L 935.331241 494.366363 
L 939.378486 494.574294 
L 947.472975 494.711674 
L 974.069154 494.803423 
L 1000.665333 494.822435 
L 1000.665333 494.822435 
" clip-path="url(#pd79d3636e5)" style="fill: none; stroke: #ff0000; stroke-opacity: 0.6; stroke-width: 1.5; stroke-linecap: square"/>
   </g>
   <g id="line2d_105">
    <path d="M 917.985907 453.482871 
L 1000.665333 453.482871 
L 1000.665333 453.482871 
" clip-path="url(#pd79d3636e5)" style="fill: none; stroke-dasharray: 5.55,2.4; stroke-dashoffset: 0; stroke: #ff0000; stroke-width: 1.5"/>
   </g>
   <g id="text_45">
    <!-- JC5 -->
    <g transform="translate(949.548432 445.415885) scale(0.12 -0.12)">
     <use xlink:href="#DejaVuSans-4a"/>
     <use xlink:href="#DejaVuSans-43" x="29.492188"/>
     <use xlink:href="#DejaVuSans-35" x="99.316406"/>
    </g>
   </g>
   <g id="legend_1">
    <g id="patch_27">
     <path d="M 827.58812 538.793188 
L 1091.06312 538.793188 
Q 1093.06312 538.793188 1093.06312 536.793188 
L 1093.06312 508.436938 
Q 1093.06312 506.436938 1091.06312 506.436938 
L 827.58812 506.436938 
Q 825.58812 506.436938 825.58812 508.436938 
L 825.58812 536.793188 
Q 825.58812 538.793188 827.58812 538.793188 
z
" style="fill: #ffffff; opacity: 0.8; stroke: #cccccc; stroke-linejoin: miter"/>
    </g>
    <g id="patch_28">
     <path d="M 829.58812 518.035375 
L 849.58812 518.035375 
L 849.58812 511.035375 
L 829.58812 511.035375 
z
" style="stroke: #000000; stroke-linejoin: miter"/>
    </g>
    <g id="text_46">
     <!-- Uncontrolled -->
     <g transform="translate(857.58812 518.035375) scale(0.1 -0.1)">
      <defs>
       <path id="DejaVuSans-55" d="M 556 4666 
L 1191 4666 
L 1191 1831 
Q 1191 1081 1462 751 
Q 1734 422 2344 422 
Q 2950 422 3222 751 
Q 3494 1081 3494 1831 
L 3494 4666 
L 4128 4666 
L 4128 1753 
Q 4128 841 3676 375 
Q 3225 -91 2344 -91 
Q 1459 -91 1007 375 
Q 556 841 556 1753 
L 556 4666 
z
" transform="scale(0.015625)"/>
       <path id="DejaVuSans-6e" d="M 3513 2113 
L 3513 0 
L 2938 0 
L 2938 2094 
Q 2938 2591 2744 2837 
Q 2550 3084 2163 3084 
Q 1697 3084 1428 2787 
Q 1159 2491 1159 1978 
L 1159 0 
L 581 0 
L 581 3500 
L 1159 3500 
L 1159 2956 
Q 1366 3272 1645 3428 
Q 1925 3584 2291 3584 
Q 2894 3584 3203 3211 
Q 3513 2838 3513 2113 
z
" transform="scale(0.015625)"/>
       <path id="DejaVuSans-6f" d="M 1959 3097 
Q 1497 3097 1228 2736 
Q 959 2375 959 1747 
Q 959 1119 1226 758 
Q 1494 397 1959 397 
Q 2419 397 2687 759 
Q 2956 1122 2956 1747 
Q 2956 2369 2687 2733 
Q 2419 3097 1959 3097 
z
M 1959 3584 
Q 2709 3584 3137 3096 
Q 3566 2609 3566 1747 
Q 3566 888 3137 398 
Q 2709 -91 1959 -91 
Q 1206 -91 779 398 
Q 353 888 353 1747 
Q 353 2609 779 3096 
Q 1206 3584 1959 3584 
z
" transform="scale(0.015625)"/>
       <path id="DejaVuSans-74" d="M 1172 4494 
L 1172 3500 
L 2356 3500 
L 2356 3053 
L 1172 3053 
L 1172 1153 
Q 1172 725 1289 603 
Q 1406 481 1766 481 
L 2356 481 
L 2356 0 
L 1766 0 
Q 1100 0 847 248 
Q 594 497 594 1153 
L 594 3053 
L 172 3053 
L 172 3500 
L 594 3500 
L 594 4494 
L 1172 4494 
z
" transform="scale(0.015625)"/>
       <path id="DejaVuSans-72" d="M 2631 2963 
Q 2534 3019 2420 3045 
Q 2306 3072 2169 3072 
Q 1681 3072 1420 2755 
Q 1159 2438 1159 1844 
L 1159 0 
L 581 0 
L 581 3500 
L 1159 3500 
L 1159 2956 
Q 1341 3275 1631 3429 
Q 1922 3584 2338 3584 
Q 2397 3584 2469 3576 
Q 2541 3569 2628 3553 
L 2631 2963 
z
" transform="scale(0.015625)"/>
       <path id="DejaVuSans-6c" d="M 603 4863 
L 1178 4863 
L 1178 0 
L 603 0 
L 603 4863 
z
" transform="scale(0.015625)"/>
       <path id="DejaVuSans-65" d="M 3597 1894 
L 3597 1613 
L 953 1613 
Q 991 1019 1311 708 
Q 1631 397 2203 397 
Q 2534 397 2845 478 
Q 3156 559 3463 722 
L 3463 178 
Q 3153 47 2828 -22 
Q 2503 -91 2169 -91 
Q 1331 -91 842 396 
Q 353 884 353 1716 
Q 353 2575 817 3079 
Q 1281 3584 2069 3584 
Q 2775 3584 3186 3129 
Q 3597 2675 3597 1894 
z
M 3022 2063 
Q 3016 2534 2758 2815 
Q 2500 3097 2075 3097 
Q 1594 3097 1305 2825 
Q 1016 2553 972 2059 
L 3022 2063 
z
" transform="scale(0.015625)"/>
       <path id="DejaVuSans-64" d="M 2906 2969 
L 2906 4863 
L 3481 4863 
L 3481 0 
L 2906 0 
L 2906 525 
Q 2725 213 2448 61 
Q 2172 -91 1784 -91 
Q 1150 -91 751 415 
Q 353 922 353 1747 
Q 353 2572 751 3078 
Q 1150 3584 1784 3584 
Q 2172 3584 2448 3432 
Q 2725 3281 2906 2969 
z
M 947 1747 
Q 947 1113 1208 752 
Q 1469 391 1925 391 
Q 2381 391 2643 752 
Q 2906 1113 2906 1747 
Q 2906 2381 2643 2742 
Q 2381 3103 1925 3103 
Q 1469 3103 1208 2742 
Q 947 2381 947 1747 
z
" transform="scale(0.015625)"/>
      </defs>
      <use xlink:href="#DejaVuSans-55"/>
      <use xlink:href="#DejaVuSans-6e" x="73.193359"/>
      <use xlink:href="#DejaVuSans-63" x="136.572266"/>
      <use xlink:href="#DejaVuSans-6f" x="191.552734"/>
      <use xlink:href="#DejaVuSans-6e" x="252.734375"/>
      <use xlink:href="#DejaVuSans-74" x="316.113281"/>
      <use xlink:href="#DejaVuSans-72" x="355.322266"/>
      <use xlink:href="#DejaVuSans-6f" x="394.185547"/>
      <use xlink:href="#DejaVuSans-6c" x="455.367188"/>
      <use xlink:href="#DejaVuSans-6c" x="483.150391"/>
      <use xlink:href="#DejaVuSans-65" x="510.933594"/>
      <use xlink:href="#DejaVuSans-64" x="572.457031"/>
     </g>
    </g>
    <g id="patch_29">
     <path d="M 829.58812 532.7135 
L 849.58812 532.7135 
L 849.58812 525.7135 
L 829.58812 525.7135 
z
" style="fill: #0000ff; stroke: #0000ff; stroke-linejoin: miter"/>
    </g>
    <g id="text_47">
     <!-- Level 1 -->
     <g transform="translate(857.58812 532.7135) scale(0.1 -0.1)">
      <defs>
       <path id="DejaVuSans-4c" d="M 628 4666 
L 1259 4666 
L 1259 531 
L 3531 531 
L 3531 0 
L 628 0 
L 628 4666 
z
" transform="scale(0.015625)"/>
       <path id="DejaVuSans-76" d="M 191 3500 
L 800 3500 
L 1894 563 
L 2988 3500 
L 3597 3500 
L 2284 0 
L 1503 0 
L 191 3500 
z
" transform="scale(0.015625)"/>
       <path id="DejaVuSans-20" transform="scale(0.015625)"/>
      </defs>
      <use xlink:href="#DejaVuSans-4c"/>
      <use xlink:href="#DejaVuSans-65" x="53.962891"/>
      <use xlink:href="#DejaVuSans-76" x="115.486328"/>
      <use xlink:href="#DejaVuSans-65" x="174.666016"/>
      <use xlink:href="#DejaVuSans-6c" x="236.189453"/>
      <use xlink:href="#DejaVuSans-20" x="263.972656"/>
      <use xlink:href="#DejaVuSans-31" x="295.759766"/>
     </g>
    </g>
    <g id="patch_30">
     <path d="M 941.18187 518.035375 
L 961.18187 518.035375 
L 961.18187 511.035375 
L 941.18187 511.035375 
z
" style="fill: #008000; stroke: #008000; stroke-linejoin: miter"/>
    </g>
    <g id="text_48">
     <!-- Level 2 -->
     <g transform="translate(969.18187 518.035375) scale(0.1 -0.1)">
      <use xlink:href="#DejaVuSans-4c"/>
      <use xlink:href="#DejaVuSans-65" x="53.962891"/>
      <use xlink:href="#DejaVuSans-76" x="115.486328"/>
      <use xlink:href="#DejaVuSans-65" x="174.666016"/>
      <use xlink:href="#DejaVuSans-6c" x="236.189453"/>
      <use xlink:href="#DejaVuSans-20" x="263.972656"/>
      <use xlink:href="#DejaVuSans-32" x="295.759766"/>
     </g>
    </g>
    <g id="patch_31">
     <path d="M 1025.122495 518.035375 
L 1045.122495 518.035375 
L 1045.122495 511.035375 
L 1025.122495 511.035375 
z
" style="fill: #ff0000; stroke: #ff0000; stroke-linejoin: miter"/>
    </g>
    <g id="text_49">
     <!-- Level 3 -->
     <g transform="translate(1053.122495 518.035375) scale(0.1 -0.1)">
      <use xlink:href="#DejaVuSans-4c"/>
      <use xlink:href="#DejaVuSans-65" x="53.962891"/>
      <use xlink:href="#DejaVuSans-76" x="115.486328"/>
      <use xlink:href="#DejaVuSans-65" x="174.666016"/>
      <use xlink:href="#DejaVuSans-6c" x="236.189453"/>
      <use xlink:href="#DejaVuSans-20" x="263.972656"/>
      <use xlink:href="#DejaVuSans-33" x="295.759766"/>
     </g>
    </g>
   </g>
  </g>
 </g>
 <defs>
  <clipPath id="pdcb56c619b">
   <rect x="144" y="69.12" width="892.8" height="443.52"/>
  </clipPath>
  <clipPath id="p1ad2be1a3f">
   <rect x="544.926316" y="84.870431" width="90.947368" height="45.473684"/>
  </clipPath>
  <clipPath id="p534c11aade">
   <rect x="176.000696" y="84.870431" width="90.947368" height="45.473684"/>
  </clipPath>
  <clipPath id="pdd7b548c8a">
   <rect x="729.389126" y="84.870431" width="90.947368" height="45.473684"/>
  </clipPath>
  <clipPath id="pba255411ff">
   <rect x="913.851936" y="84.870431" width="90.947368" height="45.473684"/>
  </clipPath>
  <clipPath id="p5e82408d5d">
   <rect x="176.000696" y="451.415885" width="90.947368" height="45.473684"/>
  </clipPath>
  <clipPath id="p8f3e0dc853">
   <rect x="360.463506" y="451.415885" width="90.947368" height="45.473684"/>
  </clipPath>
  <clipPath id="p0821a3bd42">
   <rect x="729.389126" y="451.415885" width="90.947368" height="45.473684"/>
  </clipPath>
  <clipPath id="p7444a9bab8">
   <rect x="544.926316" y="268.143158" width="90.947368" height="45.473684"/>
  </clipPath>
  <clipPath id="p4d50146b00">
   <rect x="544.926316" y="451.415885" width="90.947368" height="45.473684"/>
  </clipPath>
  <clipPath id="p3a05dbb4fe">
   <rect x="360.463506" y="84.870431" width="90.947368" height="45.473684"/>
  </clipPath>
  <clipPath id="pbeac3cfa4a">
   <rect x="913.851936" y="268.143158" width="90.947368" height="45.473684"/>
  </clipPath>
  <clipPath id="pb8a8a2d4ea">
   <rect x="176.000696" y="268.143158" width="90.947368" height="45.473684"/>
  </clipPath>
  <clipPath id="p3e9237c7c6">
   <rect x="360.463506" y="268.143158" width="90.947368" height="45.473684"/>
  </clipPath>
  <clipPath id="p9a5bb43842">
   <rect x="729.389126" y="268.143158" width="90.947368" height="45.473684"/>
  </clipPath>
  <clipPath id="pd79d3636e5">
   <rect x="913.851936" y="451.415885" width="90.947368" height="45.473684"/>
  </clipPath>
 </defs>
</svg>
