<?xml version="1.0" encoding="utf-8" standalone="no"?>
<!DOCTYPE svg PUBLIC "-//W3C//DTD SVG 1.1//EN"
  "http://www.w3.org/Graphics/SVG/1.1/DTD/svg11.dtd">
<svg xmlns:xlink="http://www.w3.org/1999/xlink" width="1152pt" height="576pt" viewBox="0 0 1152 576" xmlns="http://www.w3.org/2000/svg" version="1.1">
 <metadata>
  <rdf:RDF xmlns:dc="http://purl.org/dc/elements/1.1/" xmlns:cc="http://creativecommons.org/ns#" xmlns:rdf="http://www.w3.org/1999/02/22-rdf-syntax-ns#">
   <cc:Work>
    <dc:type rdf:resource="http://purl.org/dc/dcmitype/StillImage"/>
    <dc:date>2025-03-06T20:08:55.491474</dc:date>
    <dc:format>image/svg+xml</dc:format>
    <dc:creator>
     <cc:Agent>
      <dc:title>Matplotlib v3.9.4, https://matplotlib.org/</dc:title>
     </cc:Agent>
    </dc:creator>
   </cc:Work>
  </rdf:RDF>
 </metadata>
 <defs>
  <style type="text/css">*{stroke-linejoin: round; stroke-linecap: butt}</style>
 </defs>
 <g id="figure_1">
  <g id="patch_1">
   <path d="M 0 576 
L 1152 576 
L 1152 0 
L 0 0 
z
" style="fill: #ffffff"/>
  </g>
  <g id="axes_1">
   <g id="patch_2">
    <path d="M 959.32562 340.878979 
Q 959.32562 372.515632 959.32562 403.034251 
" clip-path="url(#p4e94568a42)" style="fill: none; stroke: #000000; stroke-opacity: 0.5; stroke-linecap: round"/>
    <path d="M 963.32562 395.034251 
L 959.32562 403.034251 
L 955.32562 395.034251 
z
" clip-path="url(#p4e94568a42)" style="fill-opacity: 0.5; stroke: #000000; stroke-opacity: 0.5; stroke-linecap: round"/>
   </g>
   <g id="patch_3">
    <path d="M 774.86281 340.878979 
Q 774.86281 372.515632 774.86281 403.034251 
" clip-path="url(#p4e94568a42)" style="fill: none; stroke: #000000; stroke-opacity: 0.5; stroke-linecap: round"/>
    <path d="M 778.86281 395.034251 
L 774.86281 403.034251 
L 770.86281 395.034251 
z
" clip-path="url(#p4e94568a42)" style="fill-opacity: 0.5; stroke: #000000; stroke-opacity: 0.5; stroke-linecap: round"/>
   </g>
   <g id="patch_4">
    <path d="M 221.47438 157.606252 
Q 221.47438 189.242905 221.47438 219.761524 
" clip-path="url(#p4e94568a42)" style="fill: none; stroke: #000000; stroke-opacity: 0.5; stroke-linecap: round"/>
    <path d="M 225.47438 211.761524 
L 221.47438 219.761524 
L 217.47438 211.761524 
z
" clip-path="url(#p4e94568a42)" style="fill-opacity: 0.5; stroke: #000000; stroke-opacity: 0.5; stroke-linecap: round"/>
   </g>
   <g id="patch_5">
    <path d="M 590.4 157.606252 
Q 590.4 189.242905 590.4 219.761524 
" clip-path="url(#p4e94568a42)" style="fill: none; stroke: #000000; stroke-opacity: 0.5; stroke-linecap: round"/>
    <path d="M 594.4 211.761524 
L 590.4 219.761524 
L 586.4 211.761524 
z
" clip-path="url(#p4e94568a42)" style="fill-opacity: 0.5; stroke: #000000; stroke-opacity: 0.5; stroke-linecap: round"/>
   </g>
   <g id="patch_6">
    <path d="M 405.93719 157.606252 
Q 405.93719 189.242905 405.93719 219.761524 
" clip-path="url(#p4e94568a42)" style="fill: none; stroke: #000000; stroke-opacity: 0.5; stroke-linecap: round"/>
    <path d="M 409.93719 211.761524 
L 405.93719 219.761524 
L 401.93719 211.761524 
z
" clip-path="url(#p4e94568a42)" style="fill-opacity: 0.5; stroke: #000000; stroke-opacity: 0.5; stroke-linecap: round"/>
   </g>
   <g id="patch_7">
    <path d="M 774.86281 157.606252 
Q 774.86281 189.242905 774.86281 219.761524 
" clip-path="url(#p4e94568a42)" style="fill: none; stroke: #000000; stroke-opacity: 0.5; stroke-linecap: round"/>
    <path d="M 778.86281 211.761524 
L 774.86281 219.761524 
L 770.86281 211.761524 
z
" clip-path="url(#p4e94568a42)" style="fill-opacity: 0.5; stroke: #000000; stroke-opacity: 0.5; stroke-linecap: round"/>
   </g>
   <g id="patch_8">
    <path d="M 221.47438 340.878979 
Q 221.47438 372.515632 221.47438 403.034251 
" clip-path="url(#p4e94568a42)" style="fill: none; stroke: #000000; stroke-opacity: 0.5; stroke-linecap: round"/>
    <path d="M 225.47438 395.034251 
L 221.47438 403.034251 
L 217.47438 395.034251 
z
" clip-path="url(#p4e94568a42)" style="fill-opacity: 0.5; stroke: #000000; stroke-opacity: 0.5; stroke-linecap: round"/>
   </g>
   <g id="patch_9">
    <path d="M 959.32562 157.606252 
Q 959.32562 189.242905 959.32562 219.761524 
" clip-path="url(#p4e94568a42)" style="fill: none; stroke: #000000; stroke-opacity: 0.5; stroke-linecap: round"/>
    <path d="M 963.32562 211.761524 
L 959.32562 219.761524 
L 955.32562 211.761524 
z
" clip-path="url(#p4e94568a42)" style="fill-opacity: 0.5; stroke: #000000; stroke-opacity: 0.5; stroke-linecap: round"/>
   </g>
   <g id="patch_10">
    <path d="M 590.4 340.878979 
Q 590.4 372.515632 590.4 403.034251 
" clip-path="url(#p4e94568a42)" style="fill: none; stroke: #000000; stroke-opacity: 0.5; stroke-linecap: round"/>
    <path d="M 594.4 395.034251 
L 590.4 403.034251 
L 586.4 395.034251 
z
" clip-path="url(#p4e94568a42)" style="fill-opacity: 0.5; stroke: #000000; stroke-opacity: 0.5; stroke-linecap: round"/>
   </g>
   <g id="patch_11">
    <path d="M 405.93719 340.878979 
Q 405.93719 372.515632 405.93719 403.034251 
" clip-path="url(#p4e94568a42)" style="fill: none; stroke: #000000; stroke-opacity: 0.5; stroke-linecap: round"/>
    <path d="M 409.93719 395.034251 
L 405.93719 403.034251 
L 401.93719 395.034251 
z
" clip-path="url(#p4e94568a42)" style="fill-opacity: 0.5; stroke: #000000; stroke-opacity: 0.5; stroke-linecap: round"/>
   </g>
  </g>
  <g id="axes_2">
   <g id="patch_12">
    <path d="M 176.000696 496.889569 
L 266.948064 496.889569 
L 266.948064 451.415885 
L 176.000696 451.415885 
z
" style="fill: #ffffff"/>
   </g>
   <g id="matplotlib.axis_1"/>
   <g id="matplotlib.axis_2">
    <g id="ytick_1">
     <g id="line2d_1"/>
     <g id="text_1">
      <!-- 0.0 -->
      <g transform="translate(156.597571 498.621802) scale(0.1 -0.1)">
       <defs>
        <path id="DejaVuSans-30" d="M 2034 4250 
Q 1547 4250 1301 3770 
Q 1056 3291 1056 2328 
Q 1056 1369 1301 889 
Q 1547 409 2034 409 
Q 2525 409 2770 889 
Q 3016 1369 3016 2328 
Q 3016 3291 2770 3770 
Q 2525 4250 2034 4250 
z
M 2034 4750 
Q 2819 4750 3233 4129 
Q 3647 3509 3647 2328 
Q 3647 1150 3233 529 
Q 2819 -91 2034 -91 
Q 1250 -91 836 529 
Q 422 1150 422 2328 
Q 422 3509 836 4129 
Q 1250 4750 2034 4750 
z
" transform="scale(0.015625)"/>
        <path id="DejaVuSans-2e" d="M 684 794 
L 1344 794 
L 1344 0 
L 684 0 
L 684 794 
z
" transform="scale(0.015625)"/>
       </defs>
       <use xlink:href="#DejaVuSans-30"/>
       <use xlink:href="#DejaVuSans-2e" x="63.623047"/>
       <use xlink:href="#DejaVuSans-30" x="95.410156"/>
      </g>
     </g>
    </g>
    <g id="ytick_2">
     <g id="line2d_2"/>
     <g id="text_2">
      <!-- 3.0 -->
      <g transform="translate(156.597571 457.28209) scale(0.1 -0.1)">
       <defs>
        <path id="DejaVuSans-33" d="M 2597 2516 
Q 3050 2419 3304 2112 
Q 3559 1806 3559 1356 
Q 3559 666 3084 287 
Q 2609 -91 1734 -91 
Q 1441 -91 1130 -33 
Q 819 25 488 141 
L 488 750 
Q 750 597 1062 519 
Q 1375 441 1716 441 
Q 2309 441 2620 675 
Q 2931 909 2931 1356 
Q 2931 1769 2642 2001 
Q 2353 2234 1838 2234 
L 1294 2234 
L 1294 2753 
L 1863 2753 
Q 2328 2753 2575 2939 
Q 2822 3125 2822 3475 
Q 2822 3834 2567 4026 
Q 2313 4219 1838 4219 
Q 1578 4219 1281 4162 
Q 984 4106 628 3988 
L 628 4550 
Q 988 4650 1302 4700 
Q 1616 4750 1894 4750 
Q 2613 4750 3031 4423 
Q 3450 4097 3450 3541 
Q 3450 3153 3228 2886 
Q 3006 2619 2597 2516 
z
" transform="scale(0.015625)"/>
       </defs>
       <use xlink:href="#DejaVuSans-33"/>
       <use xlink:href="#DejaVuSans-2e" x="63.623047"/>
       <use xlink:href="#DejaVuSans-30" x="95.410156"/>
      </g>
     </g>
    </g>
   </g>
   <g id="line2d_3">
    <path d="M 180.134667 494.822584 
L 183.025556 494.822584 
L 183.603734 493.053383 
L 184.181912 490.547872 
L 184.76009 493.233911 
L 185.338267 494.461952 
L 185.916445 494.657459 
L 187.650979 494.776109 
L 195.745468 494.815889 
L 262.814093 494.821207 
L 262.814093 494.821207 
" clip-path="url(#p536f26a622)" style="fill: none; stroke: #000000; stroke-opacity: 0.6; stroke-width: 1.5; stroke-linecap: square"/>
   </g>
   <g id="line2d_4">
    <path d="M 180.134667 494.822584 
L 262.814093 494.822584 
L 262.814093 494.822584 
" clip-path="url(#p536f26a622)" style="fill: none; stroke: #0000ff; stroke-opacity: 0.6; stroke-width: 1.5; stroke-linecap: square"/>
   </g>
   <g id="line2d_5">
    <path d="M 180.134667 494.822584 
L 262.814093 494.822584 
L 262.814093 494.822584 
" clip-path="url(#p536f26a622)" style="fill: none; stroke: #008000; stroke-opacity: 0.6; stroke-width: 1.5; stroke-linecap: square"/>
   </g>
   <g id="line2d_6">
    <path d="M 180.134667 494.822584 
L 262.814093 494.822584 
L 262.814093 494.822584 
" clip-path="url(#p536f26a622)" style="fill: none; stroke: #ff0000; stroke-opacity: 0.6; stroke-width: 1.5; stroke-linecap: square"/>
   </g>
   <g id="line2d_7">
    <path d="M 180.134667 453.482871 
L 262.814093 453.482871 
L 262.814093 453.482871 
" clip-path="url(#p536f26a622)" style="fill: none; stroke-dasharray: 5.55,2.4; stroke-dashoffset: 0; stroke: #ff0000; stroke-width: 1.5"/>
   </g>
   <g id="text_3">
    <!-- JC1b -->
    <g transform="translate(207.88813 445.415885) scale(0.12 -0.12)">
     <defs>
      <path id="DejaVuSans-4a" d="M 628 4666 
L 1259 4666 
L 1259 325 
Q 1259 -519 939 -900 
Q 619 -1281 -91 -1281 
L -331 -1281 
L -331 -750 
L -134 -750 
Q 284 -750 456 -515 
Q 628 -281 628 325 
L 628 4666 
z
" transform="scale(0.015625)"/>
      <path id="DejaVuSans-43" d="M 4122 4306 
L 4122 3641 
Q 3803 3938 3442 4084 
Q 3081 4231 2675 4231 
Q 1875 4231 1450 3742 
Q 1025 3253 1025 2328 
Q 1025 1406 1450 917 
Q 1875 428 2675 428 
Q 3081 428 3442 575 
Q 3803 722 4122 1019 
L 4122 359 
Q 3791 134 3420 21 
Q 3050 -91 2638 -91 
Q 1578 -91 968 557 
Q 359 1206 359 2328 
Q 359 3453 968 4101 
Q 1578 4750 2638 4750 
Q 3056 4750 3426 4639 
Q 3797 4528 4122 4306 
z
" transform="scale(0.015625)"/>
      <path id="DejaVuSans-31" d="M 794 531 
L 1825 531 
L 1825 4091 
L 703 3866 
L 703 4441 
L 1819 4666 
L 2450 4666 
L 2450 531 
L 3481 531 
L 3481 0 
L 794 0 
L 794 531 
z
" transform="scale(0.015625)"/>
      <path id="DejaVuSans-62" d="M 3116 1747 
Q 3116 2381 2855 2742 
Q 2594 3103 2138 3103 
Q 1681 3103 1420 2742 
Q 1159 2381 1159 1747 
Q 1159 1113 1420 752 
Q 1681 391 2138 391 
Q 2594 391 2855 752 
Q 3116 1113 3116 1747 
z
M 1159 2969 
Q 1341 3281 1617 3432 
Q 1894 3584 2278 3584 
Q 2916 3584 3314 3078 
Q 3713 2572 3713 1747 
Q 3713 922 3314 415 
Q 2916 -91 2278 -91 
Q 1894 -91 1617 61 
Q 1341 213 1159 525 
L 1159 0 
L 581 0 
L 581 4863 
L 1159 4863 
L 1159 2969 
z
" transform="scale(0.015625)"/>
     </defs>
     <use xlink:href="#DejaVuSans-4a"/>
     <use xlink:href="#DejaVuSans-43" x="29.492188"/>
     <use xlink:href="#DejaVuSans-31" x="99.316406"/>
     <use xlink:href="#DejaVuSans-62" x="162.939453"/>
    </g>
   </g>
  </g>
  <g id="axes_3">
   <g id="patch_13">
    <path d="M 913.851936 313.616842 
L 1004.799304 313.616842 
L 1004.799304 268.143158 
L 913.851936 268.143158 
z
" style="fill: #ffffff"/>
   </g>
   <g id="matplotlib.axis_3"/>
   <g id="matplotlib.axis_4">
    <g id="ytick_3">
     <g id="line2d_8"/>
     <g id="text_4">
      <!-- 0.0 -->
      <g transform="translate(894.448811 315.378941) scale(0.1 -0.1)">
       <use xlink:href="#DejaVuSans-30"/>
       <use xlink:href="#DejaVuSans-2e" x="63.623047"/>
       <use xlink:href="#DejaVuSans-30" x="95.410156"/>
      </g>
     </g>
    </g>
    <g id="ytick_4">
     <g id="line2d_9"/>
     <g id="text_5">
      <!-- 5.2 -->
      <g transform="translate(894.448811 274.009362) scale(0.1 -0.1)">
       <defs>
        <path id="DejaVuSans-35" d="M 691 4666 
L 3169 4666 
L 3169 4134 
L 1269 4134 
L 1269 2991 
Q 1406 3038 1543 3061 
Q 1681 3084 1819 3084 
Q 2600 3084 3056 2656 
Q 3513 2228 3513 1497 
Q 3513 744 3044 326 
Q 2575 -91 1722 -91 
Q 1428 -91 1123 -41 
Q 819 9 494 109 
L 494 744 
Q 775 591 1075 516 
Q 1375 441 1709 441 
Q 2250 441 2565 725 
Q 2881 1009 2881 1497 
Q 2881 1984 2565 2268 
Q 2250 2553 1709 2553 
Q 1456 2553 1204 2497 
Q 953 2441 691 2322 
L 691 4666 
z
" transform="scale(0.015625)"/>
        <path id="DejaVuSans-32" d="M 1228 531 
L 3431 531 
L 3431 0 
L 469 0 
L 469 531 
Q 828 903 1448 1529 
Q 2069 2156 2228 2338 
Q 2531 2678 2651 2914 
Q 2772 3150 2772 3378 
Q 2772 3750 2511 3984 
Q 2250 4219 1831 4219 
Q 1534 4219 1204 4116 
Q 875 4013 500 3803 
L 500 4441 
Q 881 4594 1212 4672 
Q 1544 4750 1819 4750 
Q 2544 4750 2975 4387 
Q 3406 4025 3406 3419 
Q 3406 3131 3298 2873 
Q 3191 2616 2906 2266 
Q 2828 2175 2409 1742 
Q 1991 1309 1228 531 
z
" transform="scale(0.015625)"/>
       </defs>
       <use xlink:href="#DejaVuSans-35"/>
       <use xlink:href="#DejaVuSans-2e" x="63.623047"/>
       <use xlink:href="#DejaVuSans-32" x="95.410156"/>
      </g>
     </g>
    </g>
   </g>
   <g id="line2d_10">
    <path d="M 917.985907 311.549634 
L 919.142263 311.097703 
L 919.72044 310.514077 
L 920.876796 308.855051 
L 921.454974 307.6656 
L 922.033152 307.516611 
L 922.611329 308.775134 
L 923.189507 309.543565 
L 923.767685 310.006711 
L 925.502218 310.587194 
L 927.236752 310.738831 
L 931.862174 310.924166 
L 933.01853 311.283462 
L 934.753063 311.436451 
L 939.378486 311.505816 
L 972.33462 311.520437 
L 1000.665333 311.520642 
L 1000.665333 311.520642 
" clip-path="url(#p6191f5b8b0)" style="fill: none; stroke: #000000; stroke-opacity: 0.6; stroke-width: 1.5; stroke-linecap: square"/>
   </g>
   <g id="line2d_11">
    <path d="M 917.985907 311.549634 
L 919.142263 311.099186 
L 919.72044 310.519282 
L 920.876796 308.880446 
L 921.454974 306.862005 
L 922.033152 291.156231 
L 922.611329 306.004975 
L 923.189507 309.633419 
L 923.767685 310.085324 
L 925.502218 310.606632 
L 927.236752 310.74225 
L 931.862174 310.9304 
L 933.01853 311.287187 
L 934.753063 311.437289 
L 939.956663 311.508117 
L 979.850932 311.52057 
L 1000.665333 311.520679 
L 1000.665333 311.520679 
" clip-path="url(#p6191f5b8b0)" style="fill: none; stroke: #0000ff; stroke-opacity: 0.6; stroke-width: 1.5; stroke-linecap: square"/>
   </g>
   <g id="line2d_12">
    <path d="M 917.985907 311.549856 
L 919.142263 311.107897 
L 919.72044 310.519535 
L 920.876796 308.910415 
L 921.454974 306.902124 
L 922.033152 290.302067 
L 922.611329 304.156979 
L 923.189507 309.594932 
L 923.767685 310.089861 
L 925.502218 310.597739 
L 927.236752 310.749133 
L 931.283996 310.882063 
L 931.862174 310.949699 
L 933.01853 311.288769 
L 934.753063 311.441861 
L 939.956663 311.508644 
L 983.898176 311.520567 
L 1000.665333 311.521626 
L 1000.665333 311.521626 
" clip-path="url(#p6191f5b8b0)" style="fill: none; stroke: #008000; stroke-opacity: 0.6; stroke-width: 1.5; stroke-linecap: square"/>
   </g>
   <g id="line2d_13">
    <path d="M 917.985907 311.54973 
L 919.142263 311.112592 
L 919.72044 310.514895 
L 920.876796 308.935273 
L 921.454974 307.386163 
L 922.033152 299.813155 
L 922.611329 305.898036 
L 923.189507 309.670251 
L 923.767685 310.08238 
L 925.502218 310.609275 
L 926.658574 310.749316 
L 931.283996 310.902035 
L 931.862174 310.93307 
L 933.01853 311.281676 
L 934.753063 311.435867 
L 939.378486 311.505756 
L 972.33462 311.521162 
L 1000.665333 311.520602 
L 1000.665333 311.520602 
" clip-path="url(#p6191f5b8b0)" style="fill: none; stroke: #ff0000; stroke-opacity: 0.6; stroke-width: 1.5; stroke-linecap: square"/>
   </g>
   <g id="line2d_14">
    <path d="M 917.985907 270.210144 
L 1000.665333 270.210144 
L 1000.665333 270.210144 
" clip-path="url(#p6191f5b8b0)" style="fill: none; stroke-dasharray: 5.55,2.4; stroke-dashoffset: 0; stroke: #ff0000; stroke-width: 1.5"/>
   </g>
   <g id="text_6">
    <!-- R5 -->
    <g transform="translate(951.339057 262.143158) scale(0.12 -0.12)">
     <defs>
      <path id="DejaVuSans-52" d="M 2841 2188 
Q 3044 2119 3236 1894 
Q 3428 1669 3622 1275 
L 4263 0 
L 3584 0 
L 2988 1197 
Q 2756 1666 2539 1819 
Q 2322 1972 1947 1972 
L 1259 1972 
L 1259 0 
L 628 0 
L 628 4666 
L 2053 4666 
Q 2853 4666 3247 4331 
Q 3641 3997 3641 3322 
Q 3641 2881 3436 2590 
Q 3231 2300 2841 2188 
z
M 1259 4147 
L 1259 2491 
L 2053 2491 
Q 2509 2491 2742 2702 
Q 2975 2913 2975 3322 
Q 2975 3731 2742 3939 
Q 2509 4147 2053 4147 
L 1259 4147 
z
" transform="scale(0.015625)"/>
     </defs>
     <use xlink:href="#DejaVuSans-52"/>
     <use xlink:href="#DejaVuSans-35" x="69.482422"/>
    </g>
   </g>
  </g>
  <g id="axes_4">
   <g id="patch_14">
    <path d="M 729.389126 496.889569 
L 820.336494 496.889569 
L 820.336494 451.415885 
L 729.389126 451.415885 
z
" style="fill: #ffffff"/>
   </g>
   <g id="matplotlib.axis_5"/>
   <g id="matplotlib.axis_6">
    <g id="ytick_5">
     <g id="line2d_15"/>
     <g id="text_7">
      <!-- 0.0 -->
      <g transform="translate(709.986001 498.621802) scale(0.1 -0.1)">
       <use xlink:href="#DejaVuSans-30"/>
       <use xlink:href="#DejaVuSans-2e" x="63.623047"/>
       <use xlink:href="#DejaVuSans-30" x="95.410156"/>
      </g>
     </g>
    </g>
    <g id="ytick_6">
     <g id="line2d_16"/>
     <g id="text_8">
      <!-- 3.0 -->
      <g transform="translate(709.986001 457.28209) scale(0.1 -0.1)">
       <use xlink:href="#DejaVuSans-33"/>
       <use xlink:href="#DejaVuSans-2e" x="63.623047"/>
       <use xlink:href="#DejaVuSans-30" x="95.410156"/>
      </g>
     </g>
    </g>
   </g>
   <g id="line2d_17">
    <path d="M 733.523097 494.822584 
L 735.835808 494.822584 
L 736.413986 494.699717 
L 736.992164 493.151902 
L 737.570342 488.945112 
L 738.148519 485.65309 
L 738.726697 487.012442 
L 739.304875 489.368845 
L 739.883053 491.064005 
L 740.461231 492.251505 
L 741.039408 492.946535 
L 741.617586 493.364412 
L 742.773942 493.847384 
L 744.508475 494.210363 
L 746.821186 494.431025 
L 752.024787 494.622554 
L 763.588343 494.739724 
L 800.013544 494.803145 
L 816.202523 494.809913 
L 816.202523 494.809913 
" clip-path="url(#pb869f860bd)" style="fill: none; stroke: #000000; stroke-opacity: 0.6; stroke-width: 1.5; stroke-linecap: square"/>
   </g>
   <g id="line2d_18">
    <path d="M 733.523097 494.822584 
L 736.992164 494.82247 
L 737.570342 494.178242 
L 738.148519 489.68457 
L 738.726697 488.425423 
L 739.883053 491.384935 
L 740.461231 492.454362 
L 741.039408 493.056541 
L 742.195764 493.744832 
L 743.35212 494.071251 
L 745.086653 494.330252 
L 749.133898 494.564461 
L 756.650209 494.698593 
L 777.46461 494.782568 
L 816.202523 494.810336 
L 816.202523 494.810336 
" clip-path="url(#pb869f860bd)" style="fill: none; stroke: #0000ff; stroke-opacity: 0.6; stroke-width: 1.5; stroke-linecap: square"/>
   </g>
   <g id="line2d_19">
    <path d="M 733.523097 494.822584 
L 736.992164 494.815083 
L 737.570342 493.28009 
L 738.148519 488.446098 
L 738.726697 488.052159 
L 739.304875 490.01171 
L 739.883053 491.475011 
L 740.461231 492.432579 
L 741.039408 493.091734 
L 742.195764 493.736591 
L 743.35212 494.080025 
L 745.086653 494.327412 
L 747.977542 494.5223 
L 754.337498 494.674009 
L 771.104654 494.769915 
L 816.202523 494.810362 
L 816.202523 494.810362 
" clip-path="url(#pb869f860bd)" style="fill: none; stroke: #008000; stroke-opacity: 0.6; stroke-width: 1.5; stroke-linecap: square"/>
   </g>
   <g id="line2d_20">
    <path d="M 733.523097 494.822584 
L 736.992164 494.822456 
L 737.570342 493.906675 
L 738.148519 488.839038 
L 738.726697 488.183029 
L 739.883053 491.367478 
L 740.461231 492.441638 
L 741.039408 493.055147 
L 742.195764 493.741505 
L 743.35212 494.068224 
L 745.086653 494.327907 
L 748.55572 494.542506 
L 756.072031 494.692023 
L 775.730077 494.779392 
L 816.202523 494.810306 
L 816.202523 494.810306 
" clip-path="url(#pb869f860bd)" style="fill: none; stroke: #ff0000; stroke-opacity: 0.6; stroke-width: 1.5; stroke-linecap: square"/>
   </g>
   <g id="line2d_21">
    <path d="M 733.523097 453.482871 
L 816.202523 453.482871 
L 816.202523 453.482871 
" clip-path="url(#pb869f860bd)" style="fill: none; stroke-dasharray: 5.55,2.4; stroke-dashoffset: 0; stroke: #ff0000; stroke-width: 1.5"/>
   </g>
   <g id="text_9">
    <!-- JC4c -->
    <g transform="translate(761.78656 445.415885) scale(0.12 -0.12)">
     <defs>
      <path id="DejaVuSans-34" d="M 2419 4116 
L 825 1625 
L 2419 1625 
L 2419 4116 
z
M 2253 4666 
L 3047 4666 
L 3047 1625 
L 3713 1625 
L 3713 1100 
L 3047 1100 
L 3047 0 
L 2419 0 
L 2419 1100 
L 313 1100 
L 313 1709 
L 2253 4666 
z
" transform="scale(0.015625)"/>
      <path id="DejaVuSans-63" d="M 3122 3366 
L 3122 2828 
Q 2878 2963 2633 3030 
Q 2388 3097 2138 3097 
Q 1578 3097 1268 2742 
Q 959 2388 959 1747 
Q 959 1106 1268 751 
Q 1578 397 2138 397 
Q 2388 397 2633 464 
Q 2878 531 3122 666 
L 3122 134 
Q 2881 22 2623 -34 
Q 2366 -91 2075 -91 
Q 1284 -91 818 406 
Q 353 903 353 1747 
Q 353 2603 823 3093 
Q 1294 3584 2113 3584 
Q 2378 3584 2631 3529 
Q 2884 3475 3122 3366 
z
" transform="scale(0.015625)"/>
     </defs>
     <use xlink:href="#DejaVuSans-4a"/>
     <use xlink:href="#DejaVuSans-43" x="29.492188"/>
     <use xlink:href="#DejaVuSans-34" x="99.316406"/>
     <use xlink:href="#DejaVuSans-63" x="162.939453"/>
    </g>
   </g>
  </g>
  <g id="axes_5">
   <g id="patch_15">
    <path d="M 729.389126 313.616842 
L 820.336494 313.616842 
L 820.336494 268.143158 
L 729.389126 268.143158 
z
" style="fill: #ffffff"/>
   </g>
   <g id="matplotlib.axis_7"/>
   <g id="matplotlib.axis_8">
    <g id="ytick_7">
     <g id="line2d_22"/>
     <g id="text_10">
      <!-- 0.0 -->
      <g transform="translate(709.986001 315.404371) scale(0.1 -0.1)">
       <use xlink:href="#DejaVuSans-30"/>
       <use xlink:href="#DejaVuSans-2e" x="63.623047"/>
       <use xlink:href="#DejaVuSans-30" x="95.410156"/>
      </g>
     </g>
    </g>
    <g id="ytick_8">
     <g id="line2d_23"/>
     <g id="text_11">
      <!-- 6.2 -->
      <g transform="translate(709.986001 274.009362) scale(0.1 -0.1)">
       <defs>
        <path id="DejaVuSans-36" d="M 2113 2584 
Q 1688 2584 1439 2293 
Q 1191 2003 1191 1497 
Q 1191 994 1439 701 
Q 1688 409 2113 409 
Q 2538 409 2786 701 
Q 3034 994 3034 1497 
Q 3034 2003 2786 2293 
Q 2538 2584 2113 2584 
z
M 3366 4563 
L 3366 3988 
Q 3128 4100 2886 4159 
Q 2644 4219 2406 4219 
Q 1781 4219 1451 3797 
Q 1122 3375 1075 2522 
Q 1259 2794 1537 2939 
Q 1816 3084 2150 3084 
Q 2853 3084 3261 2657 
Q 3669 2231 3669 1497 
Q 3669 778 3244 343 
Q 2819 -91 2113 -91 
Q 1303 -91 875 529 
Q 447 1150 447 2328 
Q 447 3434 972 4092 
Q 1497 4750 2381 4750 
Q 2619 4750 2861 4703 
Q 3103 4656 3366 4563 
z
" transform="scale(0.015625)"/>
       </defs>
       <use xlink:href="#DejaVuSans-36"/>
       <use xlink:href="#DejaVuSans-2e" x="63.623047"/>
       <use xlink:href="#DejaVuSans-32" x="95.410156"/>
      </g>
     </g>
    </g>
   </g>
   <g id="line2d_24">
    <path d="M 733.523097 311.54186 
L 734.679453 311.067568 
L 735.835808 309.620064 
L 736.413986 308.713136 
L 736.992164 307.271168 
L 737.570342 307.238716 
L 738.148519 308.717345 
L 738.726697 309.481688 
L 739.304875 309.948076 
L 741.039408 310.559785 
L 742.773942 310.718191 
L 747.399364 310.935855 
L 748.55572 311.296826 
L 750.290253 311.447147 
L 754.915676 311.526409 
L 780.933677 311.54693 
L 816.202523 311.547558 
L 816.202523 311.547558 
" clip-path="url(#p50c4dd8b0e)" style="fill: none; stroke: #000000; stroke-opacity: 0.6; stroke-width: 1.5; stroke-linecap: square"/>
   </g>
   <g id="line2d_25">
    <path d="M 733.523097 311.54186 
L 734.679453 311.068379 
L 735.835808 309.626703 
L 736.413986 308.691552 
L 736.992164 304.672999 
L 737.570342 296.533867 
L 738.148519 305.275817 
L 738.726697 309.566501 
L 739.304875 310.031436 
L 741.039408 310.579604 
L 742.773942 310.719568 
L 747.399364 310.94199 
L 748.55572 311.300097 
L 750.868431 311.469721 
L 757.228387 311.53533 
L 808.108034 311.547543 
L 816.202523 311.54759 
L 816.202523 311.54759 
" clip-path="url(#p50c4dd8b0e)" style="fill: none; stroke: #0000ff; stroke-opacity: 0.6; stroke-width: 1.5; stroke-linecap: square"/>
   </g>
   <g id="line2d_26">
    <path d="M 733.523097 311.541851 
L 734.679453 311.070041 
L 735.25763 310.437412 
L 736.413986 308.672672 
L 736.992164 305.11157 
L 737.570342 296.094265 
L 738.148519 304.554864 
L 738.726697 309.456279 
L 739.304875 310.03779 
L 741.039408 310.582984 
L 742.773942 310.722989 
L 746.821186 310.867727 
L 747.399364 310.95868 
L 748.55572 311.29925 
L 750.290253 311.451523 
L 755.493854 311.530107 
L 794.231766 311.547347 
L 816.202523 311.547554 
L 816.202523 311.547554 
" clip-path="url(#p50c4dd8b0e)" style="fill: none; stroke: #008000; stroke-opacity: 0.6; stroke-width: 1.5; stroke-linecap: square"/>
   </g>
   <g id="line2d_27">
    <path d="M 733.523097 311.543538 
L 734.679453 311.067628 
L 735.835808 309.63453 
L 736.413986 308.6674 
L 736.992164 304.136752 
L 737.570342 295.528574 
L 738.148519 305.743362 
L 738.726697 309.572162 
L 739.304875 310.030419 
L 741.039408 310.551475 
L 742.773942 310.718621 
L 745.664831 310.82975 
L 747.399364 310.950139 
L 748.55572 311.29517 
L 750.868431 311.47347 
L 757.228387 311.537187 
L 811.5771 311.549167 
L 816.202523 311.549856 
L 816.202523 311.549856 
" clip-path="url(#p50c4dd8b0e)" style="fill: none; stroke: #ff0000; stroke-opacity: 0.6; stroke-width: 1.5; stroke-linecap: square"/>
   </g>
   <g id="line2d_28">
    <path d="M 733.523097 270.210144 
L 816.202523 270.210144 
L 816.202523 270.210144 
" clip-path="url(#p50c4dd8b0e)" style="fill: none; stroke-dasharray: 5.55,2.4; stroke-dashoffset: 0; stroke: #ff0000; stroke-width: 1.5"/>
   </g>
   <g id="text_12">
    <!-- R4 -->
    <g transform="translate(766.876247 262.143158) scale(0.12 -0.12)">
     <use xlink:href="#DejaVuSans-52"/>
     <use xlink:href="#DejaVuSans-34" x="69.482422"/>
    </g>
   </g>
  </g>
  <g id="axes_6">
   <g id="patch_16">
    <path d="M 176.000696 130.344115 
L 266.948064 130.344115 
L 266.948064 84.870431 
L 176.000696 84.870431 
z
" style="fill: #ffffff"/>
   </g>
   <g id="matplotlib.axis_9"/>
   <g id="matplotlib.axis_10">
    <g id="ytick_9">
     <g id="line2d_29"/>
     <g id="text_13">
      <!-- 0.0 -->
      <g transform="translate(156.597571 132.287479) scale(0.1 -0.1)">
       <use xlink:href="#DejaVuSans-30"/>
       <use xlink:href="#DejaVuSans-2e" x="63.623047"/>
       <use xlink:href="#DejaVuSans-30" x="95.410156"/>
      </g>
     </g>
    </g>
    <g id="ytick_10">
     <g id="line2d_30"/>
     <g id="text_14">
      <!-- 9.0 -->
      <g transform="translate(156.597571 90.736635) scale(0.1 -0.1)">
       <defs>
        <path id="DejaVuSans-39" d="M 703 97 
L 703 672 
Q 941 559 1184 500 
Q 1428 441 1663 441 
Q 2288 441 2617 861 
Q 2947 1281 2994 2138 
Q 2813 1869 2534 1725 
Q 2256 1581 1919 1581 
Q 1219 1581 811 2004 
Q 403 2428 403 3163 
Q 403 3881 828 4315 
Q 1253 4750 1959 4750 
Q 2769 4750 3195 4129 
Q 3622 3509 3622 2328 
Q 3622 1225 3098 567 
Q 2575 -91 1691 -91 
Q 1453 -91 1209 -44 
Q 966 3 703 97 
z
M 1959 2075 
Q 2384 2075 2632 2365 
Q 2881 2656 2881 3163 
Q 2881 3666 2632 3958 
Q 2384 4250 1959 4250 
Q 1534 4250 1286 3958 
Q 1038 3666 1038 3163 
Q 1038 2656 1286 2365 
Q 1534 2075 1959 2075 
z
" transform="scale(0.015625)"/>
       </defs>
       <use xlink:href="#DejaVuSans-39"/>
       <use xlink:href="#DejaVuSans-2e" x="63.623047"/>
       <use xlink:href="#DejaVuSans-30" x="95.410156"/>
      </g>
     </g>
    </g>
   </g>
   <g id="line2d_31">
    <path d="M 180.134667 128.276805 
L 180.712845 127.749135 
L 181.291023 127.485856 
L 183.025556 125.331749 
L 183.603734 123.922342 
L 184.181912 124.330108 
L 184.76009 125.636744 
L 185.338267 126.230137 
L 185.916445 126.581025 
L 188.229156 127.152927 
L 192.854579 127.337356 
L 194.010935 127.450227 
L 195.16729 127.936988 
L 196.901824 128.169461 
L 199.214535 128.236424 
L 203.839957 128.187307 
L 262.814093 128.196111 
L 262.814093 128.196111 
" clip-path="url(#pc5f9a39a6f)" style="fill: none; stroke: #000000; stroke-opacity: 0.6; stroke-width: 1.5; stroke-linecap: square"/>
   </g>
   <g id="line2d_32">
    <path d="M 180.134667 128.276805 
L 180.712845 127.749117 
L 181.291023 127.48567 
L 183.025556 125.326544 
L 183.603734 123.6777 
L 184.181912 115.852831 
L 184.76009 113.474663 
L 185.338267 120.40907 
L 185.916445 125.955592 
L 186.494623 126.849559 
L 187.072801 127.033003 
L 189.385512 127.21319 
L 193.432757 127.355963 
L 194.010935 127.456391 
L 195.16729 127.941632 
L 196.901824 128.170683 
L 199.214535 128.236205 
L 203.839957 128.18732 
L 262.814093 128.196085 
L 262.814093 128.196085 
" clip-path="url(#pc5f9a39a6f)" style="fill: none; stroke: #0000ff; stroke-opacity: 0.6; stroke-width: 1.5; stroke-linecap: square"/>
   </g>
   <g id="line2d_33">
    <path d="M 180.134667 128.276782 
L 180.712845 127.748966 
L 181.291023 127.485093 
L 183.025556 125.334105 
L 183.603734 123.777814 
L 184.181912 116.160805 
L 184.76009 112.786062 
L 185.916445 125.711366 
L 186.494623 126.835905 
L 187.650979 127.100093 
L 190.541868 127.256363 
L 194.010935 127.476286 
L 195.16729 127.939963 
L 196.323646 128.1296 
L 198.636357 128.243768 
L 207.309024 128.189753 
L 262.814093 128.19595 
L 262.814093 128.19595 
" clip-path="url(#pc5f9a39a6f)" style="fill: none; stroke: #008000; stroke-opacity: 0.6; stroke-width: 1.5; stroke-linecap: square"/>
   </g>
   <g id="line2d_34">
    <path d="M 180.134667 128.277129 
L 180.712845 127.74935 
L 181.291023 127.48551 
L 183.025556 125.334849 
L 183.603734 124.075517 
L 184.181912 117.066488 
L 184.76009 114.001972 
L 185.338267 120.855005 
L 185.916445 126.034657 
L 186.494623 126.845031 
L 189.385512 127.211827 
L 193.432757 127.356051 
L 194.010935 127.467752 
L 195.16729 127.933692 
L 196.901824 128.168313 
L 199.214535 128.242354 
L 203.839957 128.18779 
L 262.814093 128.195968 
L 262.814093 128.195968 
" clip-path="url(#pc5f9a39a6f)" style="fill: none; stroke: #ff0000; stroke-opacity: 0.6; stroke-width: 1.5; stroke-linecap: square"/>
   </g>
   <g id="line2d_35">
    <path d="M 180.134667 86.937416 
L 262.814093 86.937416 
L 262.814093 86.937416 
" clip-path="url(#pc5f9a39a6f)" style="fill: none; stroke-dasharray: 5.55,2.4; stroke-dashoffset: 0; stroke: #ff0000; stroke-width: 1.5"/>
   </g>
   <g id="text_15">
    <!-- J1 -->
    <g transform="translate(215.88688 78.870431) scale(0.12 -0.12)">
     <use xlink:href="#DejaVuSans-4a"/>
     <use xlink:href="#DejaVuSans-31" x="29.492188"/>
    </g>
   </g>
  </g>
  <g id="axes_7">
   <g id="patch_17">
    <path d="M 544.926316 130.344115 
L 635.873684 130.344115 
L 635.873684 84.870431 
L 544.926316 84.870431 
z
" style="fill: #ffffff"/>
   </g>
   <g id="matplotlib.axis_11"/>
   <g id="matplotlib.axis_12">
    <g id="ytick_11">
     <g id="line2d_36"/>
     <g id="text_16">
      <!-- 0.0 -->
      <g transform="translate(525.523191 132.381464) scale(0.1 -0.1)">
       <use xlink:href="#DejaVuSans-30"/>
       <use xlink:href="#DejaVuSans-2e" x="63.623047"/>
       <use xlink:href="#DejaVuSans-30" x="95.410156"/>
      </g>
     </g>
    </g>
    <g id="ytick_12">
     <g id="line2d_37"/>
     <g id="text_17">
      <!-- 4.8 -->
      <g transform="translate(525.523191 90.736635) scale(0.1 -0.1)">
       <defs>
        <path id="DejaVuSans-38" d="M 2034 2216 
Q 1584 2216 1326 1975 
Q 1069 1734 1069 1313 
Q 1069 891 1326 650 
Q 1584 409 2034 409 
Q 2484 409 2743 651 
Q 3003 894 3003 1313 
Q 3003 1734 2745 1975 
Q 2488 2216 2034 2216 
z
M 1403 2484 
Q 997 2584 770 2862 
Q 544 3141 544 3541 
Q 544 4100 942 4425 
Q 1341 4750 2034 4750 
Q 2731 4750 3128 4425 
Q 3525 4100 3525 3541 
Q 3525 3141 3298 2862 
Q 3072 2584 2669 2484 
Q 3125 2378 3379 2068 
Q 3634 1759 3634 1313 
Q 3634 634 3220 271 
Q 2806 -91 2034 -91 
Q 1263 -91 848 271 
Q 434 634 434 1313 
Q 434 1759 690 2068 
Q 947 2378 1403 2484 
z
M 1172 3481 
Q 1172 3119 1398 2916 
Q 1625 2713 2034 2713 
Q 2441 2713 2670 2916 
Q 2900 3119 2900 3481 
Q 2900 3844 2670 4047 
Q 2441 4250 2034 4250 
Q 1625 4250 1398 4047 
Q 1172 3844 1172 3481 
z
" transform="scale(0.015625)"/>
       </defs>
       <use xlink:href="#DejaVuSans-34"/>
       <use xlink:href="#DejaVuSans-2e" x="63.623047"/>
       <use xlink:href="#DejaVuSans-38" x="95.410156"/>
      </g>
     </g>
    </g>
   </g>
   <g id="line2d_38">
    <path d="M 549.060287 128.05626 
L 549.638465 127.380085 
L 550.216643 126.950147 
L 550.79482 125.631123 
L 551.372998 124.821734 
L 551.951176 123.486293 
L 552.529354 120.868827 
L 553.107532 122.198251 
L 553.68571 124.31333 
L 554.263887 125.258056 
L 554.842065 125.758195 
L 557.154776 126.612487 
L 560.623843 126.831053 
L 562.358377 126.918002 
L 562.936554 127.156549 
L 563.514732 127.665116 
L 564.671088 128.016143 
L 566.405621 128.177051 
L 571.031044 128.257696 
L 598.2054 128.276615 
L 631.739713 128.277129 
L 631.739713 128.277129 
" clip-path="url(#p2c6e56097c)" style="fill: none; stroke: #000000; stroke-opacity: 0.6; stroke-width: 1.5; stroke-linecap: square"/>
   </g>
   <g id="line2d_39">
    <path d="M 549.060287 128.05626 
L 549.638465 127.380085 
L 550.216643 126.950168 
L 550.79482 125.631237 
L 551.372998 124.821815 
L 551.951176 123.488585 
L 552.529354 108.487303 
L 553.107532 119.253696 
L 553.68571 124.325007 
L 554.263887 125.2894 
L 554.842065 125.767758 
L 557.154776 126.605229 
L 560.045665 126.803375 
L 562.358377 126.918396 
L 562.936554 127.172549 
L 563.514732 127.673987 
L 564.671088 128.019146 
L 566.405621 128.177862 
L 571.031044 128.257785 
L 598.783578 128.276641 
L 631.739713 128.277129 
L 631.739713 128.277129 
" clip-path="url(#p2c6e56097c)" style="fill: none; stroke: #0000ff; stroke-opacity: 0.6; stroke-width: 1.5; stroke-linecap: square"/>
   </g>
   <g id="line2d_40">
    <path d="M 549.060287 128.056204 
L 549.638465 127.380065 
L 550.216643 126.950196 
L 550.79482 125.631318 
L 551.372998 124.821833 
L 551.951176 123.49633 
L 552.529354 108.587627 
L 553.107532 118.746064 
L 553.68571 124.257341 
L 554.263887 125.237632 
L 554.842065 125.770899 
L 557.154776 126.608585 
L 560.623843 126.828415 
L 562.358377 126.918464 
L 562.936554 127.217016 
L 563.514732 127.67303 
L 564.671088 128.030769 
L 566.405621 128.181334 
L 571.031044 128.258167 
L 599.361756 128.276667 
L 631.739713 128.277129 
L 631.739713 128.277129 
" clip-path="url(#p2c6e56097c)" style="fill: none; stroke: #008000; stroke-opacity: 0.6; stroke-width: 1.5; stroke-linecap: square"/>
   </g>
   <g id="line2d_41">
    <path d="M 549.060287 128.056906 
L 549.638465 127.380309 
L 550.216643 126.95079 
L 550.79482 125.63201 
L 551.372998 124.821981 
L 551.951176 123.492505 
L 552.529354 112.793779 
L 553.107532 113.175008 
L 553.68571 124.320634 
L 554.263887 125.283059 
L 554.842065 125.765163 
L 557.154776 126.605 
L 560.045665 126.803338 
L 562.358377 126.919408 
L 562.936554 127.207462 
L 563.514732 127.660411 
L 564.671088 128.014058 
L 566.405621 128.176366 
L 571.031044 128.257622 
L 598.2054 128.276615 
L 631.739713 128.277129 
L 631.739713 128.277129 
" clip-path="url(#p2c6e56097c)" style="fill: none; stroke: #ff0000; stroke-opacity: 0.6; stroke-width: 1.5; stroke-linecap: square"/>
   </g>
   <g id="line2d_42">
    <path d="M 549.060287 86.937416 
L 631.739713 86.937416 
L 631.739713 86.937416 
" clip-path="url(#p2c6e56097c)" style="fill: none; stroke-dasharray: 5.55,2.4; stroke-dashoffset: 0; stroke: #ff0000; stroke-width: 1.5"/>
   </g>
   <g id="text_18">
    <!-- J3 -->
    <g transform="translate(584.8125 78.870431) scale(0.12 -0.12)">
     <use xlink:href="#DejaVuSans-4a"/>
     <use xlink:href="#DejaVuSans-33" x="29.492188"/>
    </g>
   </g>
  </g>
  <g id="axes_8">
   <g id="patch_18">
    <path d="M 360.463506 496.889569 
L 451.410874 496.889569 
L 451.410874 451.415885 
L 360.463506 451.415885 
z
" style="fill: #ffffff"/>
   </g>
   <g id="matplotlib.axis_13"/>
   <g id="matplotlib.axis_14">
    <g id="ytick_13">
     <g id="line2d_43"/>
     <g id="text_19">
      <!-- 0.0 -->
      <g transform="translate(341.060381 498.621802) scale(0.1 -0.1)">
       <use xlink:href="#DejaVuSans-30"/>
       <use xlink:href="#DejaVuSans-2e" x="63.623047"/>
       <use xlink:href="#DejaVuSans-30" x="95.410156"/>
      </g>
     </g>
    </g>
    <g id="ytick_14">
     <g id="line2d_44"/>
     <g id="text_20">
      <!-- 3.0 -->
      <g transform="translate(341.060381 457.28209) scale(0.1 -0.1)">
       <use xlink:href="#DejaVuSans-33"/>
       <use xlink:href="#DejaVuSans-2e" x="63.623047"/>
       <use xlink:href="#DejaVuSans-30" x="95.410156"/>
      </g>
     </g>
    </g>
   </g>
   <g id="line2d_45">
    <path d="M 364.597477 494.822584 
L 367.488366 494.713721 
L 368.066544 491.860492 
L 368.644722 487.236466 
L 369.2229 490.496906 
L 369.801077 492.843322 
L 370.379255 493.710792 
L 370.957433 494.097699 
L 372.113789 494.458884 
L 374.4265 494.657658 
L 379.6301 494.76292 
L 400.444501 494.810988 
L 447.276903 494.818544 
L 447.276903 494.818544 
" clip-path="url(#p2fbb41c203)" style="fill: none; stroke: #000000; stroke-opacity: 0.6; stroke-width: 1.5; stroke-linecap: square"/>
   </g>
   <g id="line2d_46">
    <path d="M 364.597477 494.822584 
L 367.488366 494.822584 
L 368.066544 494.302575 
L 368.644722 492.363639 
L 369.2229 493.525212 
L 369.801077 494.049246 
L 370.957433 494.427993 
L 372.691966 494.625242 
L 376.161033 494.738551 
L 388.880945 494.802402 
L 447.276903 494.818794 
L 447.276903 494.818794 
" clip-path="url(#p2fbb41c203)" style="fill: none; stroke: #0000ff; stroke-opacity: 0.6; stroke-width: 1.5; stroke-linecap: square"/>
   </g>
   <g id="line2d_47">
    <path d="M 364.597477 494.822584 
L 367.488366 494.822584 
L 368.066544 494.380927 
L 368.644722 492.372746 
L 369.2229 493.509446 
L 369.801077 494.041981 
L 370.379255 494.30134 
L 371.535611 494.522731 
L 373.848322 494.683831 
L 380.208278 494.777441 
L 407.960812 494.814844 
L 447.276903 494.818802 
L 447.276903 494.818802 
" clip-path="url(#p2fbb41c203)" style="fill: none; stroke: #008000; stroke-opacity: 0.6; stroke-width: 1.5; stroke-linecap: square"/>
   </g>
   <g id="line2d_48">
    <path d="M 364.597477 494.822584 
L 367.488366 494.822584 
L 368.066544 494.675472 
L 368.644722 492.132719 
L 369.2229 493.38364 
L 369.801077 493.988544 
L 370.957433 494.406805 
L 372.691966 494.619157 
L 376.161033 494.73707 
L 388.880945 494.802221 
L 447.276903 494.818784 
L 447.276903 494.818784 
" clip-path="url(#p2fbb41c203)" style="fill: none; stroke: #ff0000; stroke-opacity: 0.6; stroke-width: 1.5; stroke-linecap: square"/>
   </g>
   <g id="line2d_49">
    <path d="M 364.597477 453.482871 
L 447.276903 453.482871 
L 447.276903 453.482871 
" clip-path="url(#p2fbb41c203)" style="fill: none; stroke-dasharray: 5.55,2.4; stroke-dashoffset: 0; stroke: #ff0000; stroke-width: 1.5"/>
   </g>
   <g id="text_21">
    <!-- JC2 -->
    <g transform="translate(396.160003 445.415885) scale(0.12 -0.12)">
     <use xlink:href="#DejaVuSans-4a"/>
     <use xlink:href="#DejaVuSans-43" x="29.492188"/>
     <use xlink:href="#DejaVuSans-32" x="99.316406"/>
    </g>
   </g>
  </g>
  <g id="axes_9">
   <g id="patch_19">
    <path d="M 360.463506 130.344115 
L 451.410874 130.344115 
L 451.410874 84.870431 
L 360.463506 84.870431 
z
" style="fill: #ffffff"/>
   </g>
   <g id="matplotlib.axis_15"/>
   <g id="matplotlib.axis_16">
    <g id="ytick_15">
     <g id="line2d_50"/>
     <g id="text_22">
      <!-- 0.0 -->
      <g transform="translate(341.060381 132.502063) scale(0.1 -0.1)">
       <use xlink:href="#DejaVuSans-30"/>
       <use xlink:href="#DejaVuSans-2e" x="63.623047"/>
       <use xlink:href="#DejaVuSans-30" x="95.410156"/>
      </g>
     </g>
    </g>
    <g id="ytick_16">
     <g id="line2d_51"/>
     <g id="text_23">
      <!-- 4.2 -->
      <g transform="translate(341.060381 90.736635) scale(0.1 -0.1)">
       <use xlink:href="#DejaVuSans-34"/>
       <use xlink:href="#DejaVuSans-2e" x="63.623047"/>
       <use xlink:href="#DejaVuSans-32" x="95.410156"/>
      </g>
     </g>
    </g>
   </g>
   <g id="line2d_52">
    <path d="M 364.597477 128.016724 
L 365.175655 127.037349 
L 365.753833 126.435784 
L 366.332011 124.686106 
L 366.910188 123.484972 
L 367.488366 121.516653 
L 368.066544 116.157486 
L 368.644722 118.516806 
L 369.2229 122.640663 
L 369.801077 123.989608 
L 370.379255 124.688502 
L 372.691966 125.889597 
L 375.582855 126.161856 
L 377.895567 126.319667 
L 378.473744 126.646133 
L 379.051922 127.299557 
L 379.6301 127.61703 
L 380.786456 127.923013 
L 382.520989 128.112539 
L 386.568234 128.228981 
L 400.444501 128.272064 
L 447.276903 128.277129 
L 447.276903 128.277129 
" clip-path="url(#pecdfffae08)" style="fill: none; stroke: #000000; stroke-opacity: 0.6; stroke-width: 1.5; stroke-linecap: square"/>
   </g>
   <g id="line2d_53">
    <path d="M 364.597477 128.016724 
L 365.175655 127.037349 
L 365.753833 126.435786 
L 366.332011 124.686263 
L 366.910188 123.485086 
L 367.488366 121.523252 
L 368.066544 103.466194 
L 369.2229 123.016198 
L 369.801077 124.235432 
L 370.957433 125.008761 
L 372.113789 125.749158 
L 373.270144 125.96711 
L 377.895567 126.319923 
L 378.473744 126.66742 
L 379.051922 127.31057 
L 379.6301 127.625546 
L 380.786456 127.925923 
L 382.520989 128.113585 
L 386.568234 128.229168 
L 401.022679 128.272382 
L 447.276903 128.277119 
L 447.276903 128.277119 
" clip-path="url(#pecdfffae08)" style="fill: none; stroke: #0000ff; stroke-opacity: 0.6; stroke-width: 1.5; stroke-linecap: square"/>
   </g>
   <g id="line2d_54">
    <path d="M 364.597477 128.016566 
L 365.175655 127.037308 
L 365.753833 126.435837 
L 366.332011 124.686381 
L 366.910188 123.480442 
L 367.488366 121.533981 
L 368.066544 103.786193 
L 368.644722 111.446399 
L 369.2229 122.90582 
L 369.801077 124.120006 
L 370.379255 124.690004 
L 372.113789 125.748905 
L 373.270144 125.962106 
L 377.895567 126.320424 
L 378.473744 126.724719 
L 379.051922 127.307227 
L 380.208278 127.823066 
L 381.942811 128.077353 
L 385.411878 128.213512 
L 395.819079 128.268086 
L 447.276903 128.277129 
L 447.276903 128.277129 
" clip-path="url(#pecdfffae08)" style="fill: none; stroke: #008000; stroke-opacity: 0.6; stroke-width: 1.5; stroke-linecap: square"/>
   </g>
   <g id="line2d_55">
    <path d="M 364.597477 128.016527 
L 365.175655 127.03754 
L 365.753833 126.430775 
L 366.332011 124.687189 
L 366.910188 123.46783 
L 367.488366 121.52031 
L 368.066544 106.613141 
L 368.644722 107.025727 
L 369.2229 123.015861 
L 369.801077 124.205207 
L 370.379255 124.70636 
L 372.691966 125.871448 
L 374.4265 126.051326 
L 377.317389 126.278565 
L 377.895567 126.314145 
L 378.473744 126.70912 
L 379.051922 127.290782 
L 379.6301 127.612658 
L 380.786456 127.920475 
L 382.520989 128.111175 
L 386.568234 128.228808 
L 400.444501 128.272045 
L 447.276903 128.277128 
L 447.276903 128.277128 
" clip-path="url(#pecdfffae08)" style="fill: none; stroke: #ff0000; stroke-opacity: 0.6; stroke-width: 1.5; stroke-linecap: square"/>
   </g>
   <g id="line2d_56">
    <path d="M 364.597477 86.937416 
L 447.276903 86.937416 
L 447.276903 86.937416 
" clip-path="url(#pecdfffae08)" style="fill: none; stroke-dasharray: 5.55,2.4; stroke-dashoffset: 0; stroke: #ff0000; stroke-width: 1.5"/>
   </g>
   <g id="text_24">
    <!-- J2 -->
    <g transform="translate(400.34969 78.870431) scale(0.12 -0.12)">
     <use xlink:href="#DejaVuSans-4a"/>
     <use xlink:href="#DejaVuSans-32" x="29.492188"/>
    </g>
   </g>
  </g>
  <g id="axes_10">
   <g id="patch_20">
    <path d="M 729.389126 130.344115 
L 820.336494 130.344115 
L 820.336494 84.870431 
L 729.389126 84.870431 
z
" style="fill: #ffffff"/>
   </g>
   <g id="matplotlib.axis_17"/>
   <g id="matplotlib.axis_18">
    <g id="ytick_17">
     <g id="line2d_57"/>
     <g id="text_25">
      <!-- 0.0 -->
      <g transform="translate(709.986001 132.557031) scale(0.1 -0.1)">
       <use xlink:href="#DejaVuSans-30"/>
       <use xlink:href="#DejaVuSans-2e" x="63.623047"/>
       <use xlink:href="#DejaVuSans-30" x="95.410156"/>
      </g>
     </g>
    </g>
    <g id="ytick_18">
     <g id="line2d_58"/>
     <g id="text_26">
      <!-- 4.2 -->
      <g transform="translate(709.986001 90.736635) scale(0.1 -0.1)">
       <use xlink:href="#DejaVuSans-34"/>
       <use xlink:href="#DejaVuSans-2e" x="63.623047"/>
       <use xlink:href="#DejaVuSans-32" x="95.410156"/>
      </g>
     </g>
    </g>
   </g>
   <g id="line2d_59">
    <path d="M 733.523097 128.23335 
L 734.101275 127.131698 
L 734.679453 126.456803 
L 736.413986 120.941722 
L 736.992164 117.008545 
L 737.570342 118.00025 
L 738.148519 121.453355 
L 738.726697 123.087545 
L 739.304875 123.982526 
L 741.039408 125.297114 
L 742.195764 125.579538 
L 745.664831 125.920989 
L 746.821186 126.011051 
L 747.399364 126.261216 
L 747.977542 126.913082 
L 748.55572 127.28995 
L 749.712075 127.695932 
L 751.446609 127.975281 
L 754.337498 128.146165 
L 761.275632 128.244222 
L 789.606344 128.275361 
L 816.202523 128.277129 
L 816.202523 128.277129 
" clip-path="url(#p1cf66063e2)" style="fill: none; stroke: #000000; stroke-opacity: 0.6; stroke-width: 1.5; stroke-linecap: square"/>
   </g>
   <g id="line2d_60">
    <path d="M 733.523097 128.23335 
L 734.101275 127.131617 
L 734.679453 126.456556 
L 736.413986 120.950976 
L 736.992164 117.23394 
L 737.570342 119.273731 
L 738.148519 121.964013 
L 738.726697 123.165038 
L 739.304875 123.973502 
L 741.039408 125.267814 
L 742.195764 125.581219 
L 745.664831 125.918403 
L 746.821186 126.011654 
L 747.399364 126.278262 
L 747.977542 126.92651 
L 748.55572 127.300246 
L 749.712075 127.700017 
L 751.446609 127.977021 
L 754.337498 128.146717 
L 761.275632 128.244298 
L 789.606344 128.275349 
L 816.202523 128.277116 
L 816.202523 128.277116 
" clip-path="url(#p1cf66063e2)" style="fill: none; stroke: #0000ff; stroke-opacity: 0.6; stroke-width: 1.5; stroke-linecap: square"/>
   </g>
   <g id="line2d_61">
    <path d="M 733.523097 128.233299 
L 734.101275 127.131657 
L 734.679453 126.456161 
L 736.413986 120.97762 
L 736.992164 117.253573 
L 737.570342 119.075954 
L 738.148519 121.85849 
L 738.726697 123.117329 
L 739.304875 123.985194 
L 741.039408 125.272871 
L 742.195764 125.569665 
L 744.508475 125.825802 
L 746.821186 126.009833 
L 747.399364 126.328191 
L 747.977542 126.923033 
L 749.133898 127.558483 
L 750.290253 127.83162 
L 752.602964 128.072688 
L 757.228387 128.209656 
L 769.948299 128.266653 
L 816.202523 128.277109 
L 816.202523 128.277109 
" clip-path="url(#p1cf66063e2)" style="fill: none; stroke: #008000; stroke-opacity: 0.6; stroke-width: 1.5; stroke-linecap: square"/>
   </g>
   <g id="line2d_62">
    <path d="M 733.523097 128.233794 
L 734.101275 127.12846 
L 734.679453 126.455767 
L 736.413986 120.968533 
L 736.992164 117.652634 
L 737.570342 118.643627 
L 738.148519 121.924829 
L 738.726697 123.119311 
L 739.304875 123.969235 
L 741.039408 125.278211 
L 742.195764 125.582478 
L 745.664831 125.913559 
L 746.821186 126.012729 
L 747.399364 126.312135 
L 747.977542 126.906181 
L 748.55572 127.285025 
L 749.712075 127.692538 
L 751.446609 127.971826 
L 754.337498 128.144554 
L 760.697454 128.240067 
L 787.87181 128.274731 
L 816.202523 128.276374 
L 816.202523 128.276374 
" clip-path="url(#p1cf66063e2)" style="fill: none; stroke: #ff0000; stroke-opacity: 0.6; stroke-width: 1.5; stroke-linecap: square"/>
   </g>
   <g id="line2d_63">
    <path d="M 733.523097 86.937416 
L 816.202523 86.937416 
L 816.202523 86.937416 
" clip-path="url(#p1cf66063e2)" style="fill: none; stroke-dasharray: 5.55,2.4; stroke-dashoffset: 0; stroke: #ff0000; stroke-width: 1.5"/>
   </g>
   <g id="text_27">
    <!-- J4 -->
    <g transform="translate(769.27531 78.870431) scale(0.12 -0.12)">
     <use xlink:href="#DejaVuSans-4a"/>
     <use xlink:href="#DejaVuSans-34" x="29.492188"/>
    </g>
   </g>
  </g>
  <g id="axes_11">
   <g id="patch_21">
    <path d="M 544.926316 496.889569 
L 635.873684 496.889569 
L 635.873684 451.415885 
L 544.926316 451.415885 
z
" style="fill: #ffffff"/>
   </g>
   <g id="matplotlib.axis_19"/>
   <g id="matplotlib.axis_20">
    <g id="ytick_19">
     <g id="line2d_64"/>
     <g id="text_28">
      <!-- 0.0 -->
      <g transform="translate(525.523191 498.621802) scale(0.1 -0.1)">
       <use xlink:href="#DejaVuSans-30"/>
       <use xlink:href="#DejaVuSans-2e" x="63.623047"/>
       <use xlink:href="#DejaVuSans-30" x="95.410156"/>
      </g>
     </g>
    </g>
    <g id="ytick_20">
     <g id="line2d_65"/>
     <g id="text_29">
      <!-- 12.0 -->
      <g transform="translate(519.160691 457.28209) scale(0.1 -0.1)">
       <use xlink:href="#DejaVuSans-31"/>
       <use xlink:href="#DejaVuSans-32" x="63.623047"/>
       <use xlink:href="#DejaVuSans-2e" x="127.246094"/>
       <use xlink:href="#DejaVuSans-30" x="159.033203"/>
      </g>
     </g>
    </g>
   </g>
   <g id="line2d_66">
    <path d="M 549.060287 494.822584 
L 551.951176 494.822584 
L 552.529354 475.430497 
L 553.107532 475.712473 
L 553.68571 476.614692 
L 554.263887 477.273309 
L 554.842065 477.505994 
L 557.154776 477.583739 
L 581.438244 477.597152 
L 631.739713 477.597362 
L 631.739713 477.597362 
" clip-path="url(#p36d99919ea)" style="fill: none; stroke: #000000; stroke-opacity: 0.6; stroke-width: 1.5; stroke-linecap: square"/>
   </g>
   <g id="line2d_67">
    <path d="M 549.060287 494.822584 
L 551.951176 494.822584 
L 552.529354 479.531932 
L 553.107532 475.684851 
L 553.68571 476.579128 
L 554.263887 477.224277 
L 554.842065 477.496087 
L 556.576599 477.577883 
L 571.031044 477.596568 
L 631.739713 477.597362 
L 631.739713 477.597362 
" clip-path="url(#p36d99919ea)" style="fill: none; stroke: #0000ff; stroke-opacity: 0.6; stroke-width: 1.5; stroke-linecap: square"/>
   </g>
   <g id="line2d_68">
    <path d="M 549.060287 494.822584 
L 551.951176 494.822584 
L 552.529354 478.912896 
L 553.107532 475.681841 
L 554.263887 477.209364 
L 554.842065 477.498808 
L 556.576599 477.578162 
L 571.031044 477.596576 
L 631.739713 477.597362 
L 631.739713 477.597362 
" clip-path="url(#p36d99919ea)" style="fill: none; stroke: #008000; stroke-opacity: 0.6; stroke-width: 1.5; stroke-linecap: square"/>
   </g>
   <g id="line2d_69">
    <path d="M 549.060287 494.822584 
L 551.951176 494.822584 
L 552.529354 480.143817 
L 553.107532 475.57866 
L 553.68571 476.58307 
L 554.263887 477.221152 
L 554.842065 477.495368 
L 556.576599 477.577867 
L 571.031044 477.596565 
L 631.739713 477.597362 
L 631.739713 477.597362 
" clip-path="url(#p36d99919ea)" style="fill: none; stroke: #ff0000; stroke-opacity: 0.6; stroke-width: 1.5; stroke-linecap: square"/>
   </g>
   <g id="line2d_70">
    <path d="M 549.060287 453.482871 
L 631.739713 453.482871 
L 631.739713 453.482871 
" clip-path="url(#p36d99919ea)" style="fill: none; stroke-dasharray: 5.55,2.4; stroke-dashoffset: 0; stroke: #ff0000; stroke-width: 1.5"/>
   </g>
   <g id="text_30">
    <!-- JC3a -->
    <g transform="translate(576.945938 445.415885) scale(0.12 -0.12)">
     <defs>
      <path id="DejaVuSans-61" d="M 2194 1759 
Q 1497 1759 1228 1600 
Q 959 1441 959 1056 
Q 959 750 1161 570 
Q 1363 391 1709 391 
Q 2188 391 2477 730 
Q 2766 1069 2766 1631 
L 2766 1759 
L 2194 1759 
z
M 3341 1997 
L 3341 0 
L 2766 0 
L 2766 531 
Q 2569 213 2275 61 
Q 1981 -91 1556 -91 
Q 1019 -91 701 211 
Q 384 513 384 1019 
Q 384 1609 779 1909 
Q 1175 2209 1959 2209 
L 2766 2209 
L 2766 2266 
Q 2766 2663 2505 2880 
Q 2244 3097 1772 3097 
Q 1472 3097 1187 3025 
Q 903 2953 641 2809 
L 641 3341 
Q 956 3463 1253 3523 
Q 1550 3584 1831 3584 
Q 2591 3584 2966 3190 
Q 3341 2797 3341 1997 
z
" transform="scale(0.015625)"/>
     </defs>
     <use xlink:href="#DejaVuSans-4a"/>
     <use xlink:href="#DejaVuSans-43" x="29.492188"/>
     <use xlink:href="#DejaVuSans-33" x="99.316406"/>
     <use xlink:href="#DejaVuSans-61" x="162.939453"/>
    </g>
   </g>
  </g>
  <g id="axes_12">
   <g id="patch_22">
    <path d="M 176.000696 313.616842 
L 266.948064 313.616842 
L 266.948064 268.143158 
L 176.000696 268.143158 
z
" style="fill: #ffffff"/>
   </g>
   <g id="matplotlib.axis_21"/>
   <g id="matplotlib.axis_22">
    <g id="ytick_21">
     <g id="line2d_71"/>
     <g id="text_31">
      <!-- 0.0 -->
      <g transform="translate(156.597571 315.361437) scale(0.1 -0.1)">
       <use xlink:href="#DejaVuSans-30"/>
       <use xlink:href="#DejaVuSans-2e" x="63.623047"/>
       <use xlink:href="#DejaVuSans-30" x="95.410156"/>
      </g>
     </g>
    </g>
    <g id="ytick_22">
     <g id="line2d_72"/>
     <g id="text_32">
      <!-- 7.2 -->
      <g transform="translate(156.597571 274.009362) scale(0.1 -0.1)">
       <defs>
        <path id="DejaVuSans-37" d="M 525 4666 
L 3525 4666 
L 3525 4397 
L 1831 0 
L 1172 0 
L 2766 4134 
L 525 4134 
L 525 4666 
z
" transform="scale(0.015625)"/>
       </defs>
       <use xlink:href="#DejaVuSans-37"/>
       <use xlink:href="#DejaVuSans-2e" x="63.623047"/>
       <use xlink:href="#DejaVuSans-32" x="95.410156"/>
      </g>
     </g>
    </g>
   </g>
   <g id="line2d_73">
    <path d="M 180.134667 311.549578 
L 181.291023 311.319276 
L 182.447378 310.672133 
L 183.025556 310.290019 
L 183.603734 307.870972 
L 184.181912 307.169391 
L 184.76009 309.497714 
L 185.338267 310.665533 
L 185.916445 310.872177 
L 188.229156 311.157303 
L 204.996313 311.538028 
L 262.814093 311.539081 
L 262.814093 311.539081 
" clip-path="url(#pcb6f04c05a)" style="fill: none; stroke: #000000; stroke-opacity: 0.6; stroke-width: 1.5; stroke-linecap: square"/>
   </g>
   <g id="line2d_74">
    <path d="M 180.134667 311.549578 
L 181.291023 311.320925 
L 183.025556 310.326768 
L 183.603734 302.327844 
L 184.181912 287.666327 
L 184.76009 285.067126 
L 185.338267 294.411571 
L 185.916445 301.165994 
L 187.072801 310.247715 
L 187.650979 311.141483 
L 192.276401 311.234066 
L 194.010935 311.277684 
L 195.16729 311.447409 
L 198.058179 311.52489 
L 215.981691 311.53889 
L 262.814093 311.539114 
L 262.814093 311.539114 
" clip-path="url(#pcb6f04c05a)" style="fill: none; stroke: #0000ff; stroke-opacity: 0.6; stroke-width: 1.5; stroke-linecap: square"/>
   </g>
   <g id="line2d_75">
    <path d="M 180.134667 311.549576 
L 181.291023 311.324218 
L 183.025556 310.344979 
L 183.603734 302.639562 
L 184.181912 288.095853 
L 184.76009 283.942557 
L 185.916445 300.739892 
L 187.072801 309.947788 
L 187.650979 311.141804 
L 191.120046 311.219877 
L 194.589112 311.382752 
L 196.323646 311.50152 
L 203.261779 311.538042 
L 262.814093 311.539779 
L 262.814093 311.539779 
" clip-path="url(#pcb6f04c05a)" style="fill: none; stroke: #008000; stroke-opacity: 0.6; stroke-width: 1.5; stroke-linecap: square"/>
   </g>
   <g id="line2d_76">
    <path d="M 180.134667 311.549856 
L 181.291023 311.326311 
L 182.447378 310.708545 
L 183.025556 310.288705 
L 183.603734 304.284785 
L 184.181912 288.90834 
L 184.76009 285.847467 
L 185.916445 302.409883 
L 186.494623 308.354664 
L 187.072801 311.057385 
L 188.807334 311.191699 
L 194.010935 311.283002 
L 195.745468 311.478412 
L 199.792713 311.543225 
L 232.17067 311.539649 
L 262.814093 311.538618 
L 262.814093 311.538618 
" clip-path="url(#pcb6f04c05a)" style="fill: none; stroke: #ff0000; stroke-opacity: 0.6; stroke-width: 1.5; stroke-linecap: square"/>
   </g>
   <g id="line2d_77">
    <path d="M 180.134667 270.210144 
L 262.814093 270.210144 
L 262.814093 270.210144 
" clip-path="url(#pcb6f04c05a)" style="fill: none; stroke-dasharray: 5.55,2.4; stroke-dashoffset: 0; stroke: #ff0000; stroke-width: 1.5"/>
   </g>
   <g id="text_33">
    <!-- R1 -->
    <g transform="translate(213.487818 262.143158) scale(0.12 -0.12)">
     <use xlink:href="#DejaVuSans-52"/>
     <use xlink:href="#DejaVuSans-31" x="69.482422"/>
    </g>
   </g>
  </g>
  <g id="axes_13">
   <g id="patch_23">
    <path d="M 913.851936 130.344115 
L 1004.799304 130.344115 
L 1004.799304 84.870431 
L 913.851936 84.870431 
z
" style="fill: #ffffff"/>
   </g>
   <g id="matplotlib.axis_23"/>
   <g id="matplotlib.axis_24">
    <g id="ytick_23">
     <g id="line2d_78"/>
     <g id="text_34">
      <!-- 0.0 -->
      <g transform="translate(894.448811 132.474637) scale(0.1 -0.1)">
       <use xlink:href="#DejaVuSans-30"/>
       <use xlink:href="#DejaVuSans-2e" x="63.623047"/>
       <use xlink:href="#DejaVuSans-30" x="95.410156"/>
      </g>
     </g>
    </g>
    <g id="ytick_24">
     <g id="line2d_79"/>
     <g id="text_35">
      <!-- 4.0 -->
      <g transform="translate(894.448811 90.736635) scale(0.1 -0.1)">
       <use xlink:href="#DejaVuSans-34"/>
       <use xlink:href="#DejaVuSans-2e" x="63.623047"/>
       <use xlink:href="#DejaVuSans-30" x="95.410156"/>
      </g>
     </g>
    </g>
   </g>
   <g id="line2d_80">
    <path d="M 917.985907 127.947604 
L 918.564085 127.083926 
L 919.142263 126.511231 
L 919.72044 124.765121 
L 920.298618 123.532332 
L 920.876796 121.526326 
L 921.454974 117.795334 
L 922.033152 119.632411 
L 922.611329 122.563898 
L 923.189507 123.970016 
L 923.767685 124.707981 
L 925.502218 125.819238 
L 926.658574 126.02953 
L 931.283996 126.387268 
L 931.862174 126.710681 
L 932.440352 127.33593 
L 933.01853 127.638645 
L 934.174885 127.936763 
L 936.487597 128.144868 
L 941.113019 128.24121 
L 960.192887 128.274549 
L 1000.665333 128.277128 
L 1000.665333 128.277128 
" clip-path="url(#pea72cd4efc)" style="fill: none; stroke: #000000; stroke-opacity: 0.6; stroke-width: 1.5; stroke-linecap: square"/>
   </g>
   <g id="line2d_81">
    <path d="M 917.985907 127.947604 
L 918.564085 127.083934 
L 919.142263 126.511291 
L 919.72044 124.765383 
L 920.298618 123.532459 
L 920.876796 121.530696 
L 921.454974 117.6602 
L 922.611329 122.586118 
L 923.189507 124.015527 
L 923.767685 124.72296 
L 925.502218 125.807788 
L 926.658574 126.031983 
L 931.283996 126.387831 
L 931.862174 126.732029 
L 932.440352 127.34645 
L 933.01853 127.647014 
L 934.174885 127.939584 
L 936.487597 128.145668 
L 941.113019 128.241348 
L 960.192887 128.274553 
L 1000.665333 128.277128 
L 1000.665333 128.277128 
" clip-path="url(#pea72cd4efc)" style="fill: none; stroke: #0000ff; stroke-opacity: 0.6; stroke-width: 1.5; stroke-linecap: square"/>
   </g>
   <g id="line2d_82">
    <path d="M 917.985907 127.947557 
L 918.564085 127.083998 
L 919.142263 126.511534 
L 919.72044 124.765722 
L 920.298618 123.532486 
L 920.876796 121.542375 
L 921.454974 117.711438 
L 922.611329 122.492878 
L 923.189507 123.940696 
L 923.767685 124.727136 
L 925.502218 125.810742 
L 926.658574 126.026601 
L 931.283996 126.388036 
L 931.862174 126.786684 
L 932.440352 127.344612 
L 933.596708 127.838115 
L 935.331241 128.078924 
L 938.800308 128.214725 
L 949.207508 128.268412 
L 1000.665333 128.277129 
L 1000.665333 128.277129 
" clip-path="url(#pea72cd4efc)" style="fill: none; stroke: #008000; stroke-opacity: 0.6; stroke-width: 1.5; stroke-linecap: square"/>
   </g>
   <g id="line2d_83">
    <path d="M 917.985907 127.948431 
L 918.564085 127.084277 
L 919.142263 126.512393 
L 919.72044 124.766853 
L 920.298618 123.532712 
L 920.876796 121.53691 
L 921.454974 117.869671 
L 922.033152 119.545719 
L 922.611329 122.579193 
L 923.189507 124.00636 
L 923.767685 124.71869 
L 925.502218 125.807204 
L 926.658574 126.031737 
L 931.283996 126.38945 
L 931.862174 126.780045 
L 932.440352 127.329607 
L 933.01853 127.635311 
L 934.174885 127.934344 
L 936.487597 128.144195 
L 941.113019 128.241094 
L 960.192887 128.274545 
L 1000.665333 128.277128 
L 1000.665333 128.277128 
" clip-path="url(#pea72cd4efc)" style="fill: none; stroke: #ff0000; stroke-opacity: 0.6; stroke-width: 1.5; stroke-linecap: square"/>
   </g>
   <g id="line2d_84">
    <path d="M 917.985907 86.937416 
L 1000.665333 86.937416 
L 1000.665333 86.937416 
" clip-path="url(#pea72cd4efc)" style="fill: none; stroke-dasharray: 5.55,2.4; stroke-dashoffset: 0; stroke: #ff0000; stroke-width: 1.5"/>
   </g>
   <g id="text_36">
    <!-- J5a -->
    <g transform="translate(950.061245 78.870431) scale(0.12 -0.12)">
     <use xlink:href="#DejaVuSans-4a"/>
     <use xlink:href="#DejaVuSans-35" x="29.492188"/>
     <use xlink:href="#DejaVuSans-61" x="93.115234"/>
    </g>
   </g>
  </g>
  <g id="axes_14">
   <g id="patch_24">
    <path d="M 544.926316 313.616842 
L 635.873684 313.616842 
L 635.873684 268.143158 
L 544.926316 268.143158 
z
" style="fill: #ffffff"/>
   </g>
   <g id="matplotlib.axis_25"/>
   <g id="matplotlib.axis_26">
    <g id="ytick_25">
     <g id="line2d_85"/>
     <g id="text_37">
      <!-- 0.0 -->
      <g transform="translate(525.523191 315.47907) scale(0.1 -0.1)">
       <use xlink:href="#DejaVuSans-30"/>
       <use xlink:href="#DejaVuSans-2e" x="63.623047"/>
       <use xlink:href="#DejaVuSans-30" x="95.410156"/>
      </g>
     </g>
    </g>
    <g id="ytick_26">
     <g id="line2d_86"/>
     <g id="text_38">
      <!-- 12.0 -->
      <g transform="translate(519.160691 274.009362) scale(0.1 -0.1)">
       <use xlink:href="#DejaVuSans-31"/>
       <use xlink:href="#DejaVuSans-32" x="63.623047"/>
       <use xlink:href="#DejaVuSans-2e" x="127.246094"/>
       <use xlink:href="#DejaVuSans-30" x="159.033203"/>
      </g>
     </g>
    </g>
   </g>
   <g id="line2d_87">
    <path d="M 549.060287 311.549522 
L 549.638465 311.014483 
L 550.216643 310.699292 
L 550.79482 309.697527 
L 551.372998 308.054955 
L 551.951176 301.413985 
L 552.529354 291.644126 
L 553.107532 291.92975 
L 554.263887 294.409833 
L 554.842065 297.062308 
L 555.420243 300.623846 
L 556.576599 308.692703 
L 557.154776 310.07123 
L 558.311132 310.26673 
L 562.358377 310.462312 
L 562.936554 310.55823 
L 563.514732 310.930947 
L 564.671088 311.273839 
L 566.405621 311.420352 
L 571.609221 311.490787 
L 613.238023 311.502894 
L 631.739713 311.502988 
L 631.739713 311.502988 
" clip-path="url(#p45bead4e84)" style="fill: none; stroke: #000000; stroke-opacity: 0.6; stroke-width: 1.5; stroke-linecap: square"/>
   </g>
   <g id="line2d_88">
    <path d="M 549.060287 311.549522 
L 549.638465 311.014483 
L 550.216643 310.699305 
L 550.79482 309.697667 
L 551.372998 308.055269 
L 551.951176 301.465627 
L 552.529354 283.596943 
L 553.107532 285.276779 
L 553.68571 289.037002 
L 554.263887 290.134717 
L 554.842065 292.875275 
L 555.998421 301.794162 
L 556.576599 306.339496 
L 557.154776 309.377203 
L 557.732954 310.190505 
L 559.467488 310.325261 
L 562.936554 310.565863 
L 563.514732 310.940143 
L 564.671088 311.277179 
L 566.405621 311.421065 
L 571.609221 311.490843 
L 613.238023 311.502894 
L 631.739713 311.502988 
L 631.739713 311.502988 
" clip-path="url(#p45bead4e84)" style="fill: none; stroke: #0000ff; stroke-opacity: 0.6; stroke-width: 1.5; stroke-linecap: square"/>
   </g>
   <g id="line2d_89">
    <path d="M 549.060287 311.549535 
L 549.638465 311.014494 
L 550.216643 310.699329 
L 550.79482 309.697781 
L 551.372998 308.055322 
L 551.951176 301.600692 
L 552.529354 283.65372 
L 553.107532 284.887594 
L 553.68571 289.01666 
L 554.263887 290.048947 
L 554.842065 293.007389 
L 555.998421 301.426239 
L 556.576599 306.424277 
L 557.154776 309.50748 
L 557.732954 310.176298 
L 558.88931 310.289011 
L 562.936554 310.590068 
L 564.09291 311.159787 
L 565.249266 311.354522 
L 568.140155 311.466281 
L 579.125533 311.500331 
L 631.739713 311.503058 
L 631.739713 311.503058 
" clip-path="url(#p45bead4e84)" style="fill: none; stroke: #008000; stroke-opacity: 0.6; stroke-width: 1.5; stroke-linecap: square"/>
   </g>
   <g id="line2d_90">
    <path d="M 549.060287 311.549856 
L 549.638465 311.014839 
L 550.216643 310.699647 
L 550.79482 309.703339 
L 551.372998 308.062363 
L 551.951176 301.533338 
L 552.529354 284.918426 
L 553.107532 283.718438 
L 553.68571 289.087308 
L 554.263887 290.142326 
L 554.842065 292.857697 
L 555.998421 301.736854 
L 556.576599 306.38013 
L 557.154776 309.392844 
L 557.732954 310.191016 
L 559.467488 310.325112 
L 562.936554 310.57611 
L 564.09291 311.15322 
L 565.249266 311.344685 
L 568.140155 311.464675 
L 578.547355 311.500002 
L 631.739713 311.503311 
L 631.739713 311.503311 
" clip-path="url(#p45bead4e84)" style="fill: none; stroke: #ff0000; stroke-opacity: 0.6; stroke-width: 1.5; stroke-linecap: square"/>
   </g>
   <g id="line2d_91">
    <path d="M 549.060287 270.210144 
L 631.739713 270.210144 
L 631.739713 270.210144 
" clip-path="url(#p45bead4e84)" style="fill: none; stroke-dasharray: 5.55,2.4; stroke-dashoffset: 0; stroke: #ff0000; stroke-width: 1.5"/>
   </g>
   <g id="text_39">
    <!-- R3 -->
    <g transform="translate(582.413437 262.143158) scale(0.12 -0.12)">
     <use xlink:href="#DejaVuSans-52"/>
     <use xlink:href="#DejaVuSans-33" x="69.482422"/>
    </g>
   </g>
  </g>
  <g id="axes_15">
   <g id="patch_25">
    <path d="M 360.463506 313.616842 
L 451.410874 313.616842 
L 451.410874 268.143158 
L 360.463506 268.143158 
z
" style="fill: #ffffff"/>
   </g>
   <g id="matplotlib.axis_27"/>
   <g id="matplotlib.axis_28">
    <g id="ytick_27">
     <g id="line2d_92"/>
     <g id="text_40">
      <!-- 0.0 -->
      <g transform="translate(341.060381 315.391398) scale(0.1 -0.1)">
       <use xlink:href="#DejaVuSans-30"/>
       <use xlink:href="#DejaVuSans-2e" x="63.623047"/>
       <use xlink:href="#DejaVuSans-30" x="95.410156"/>
      </g>
     </g>
    </g>
    <g id="ytick_28">
     <g id="line2d_93"/>
     <g id="text_41">
      <!-- 6.0 -->
      <g transform="translate(341.060381 274.009362) scale(0.1 -0.1)">
       <use xlink:href="#DejaVuSans-36"/>
       <use xlink:href="#DejaVuSans-2e" x="63.623047"/>
       <use xlink:href="#DejaVuSans-30" x="95.410156"/>
      </g>
     </g>
    </g>
   </g>
   <g id="line2d_94">
    <path d="M 364.597477 311.491393 
L 365.753833 311.087475 
L 367.488366 309.230481 
L 368.066544 307.389671 
L 368.644722 307.778869 
L 369.2229 309.573234 
L 369.801077 310.136048 
L 370.379255 310.432711 
L 372.691966 310.892512 
L 378.473744 311.137614 
L 379.6301 311.414841 
L 382.520989 311.520278 
L 396.397256 311.5468 
L 447.276903 311.548046 
L 447.276903 311.548046 
" clip-path="url(#p58a59638ce)" style="fill: none; stroke: #000000; stroke-opacity: 0.6; stroke-width: 1.5; stroke-linecap: square"/>
   </g>
   <g id="line2d_95">
    <path d="M 364.597477 311.491393 
L 365.753833 311.087551 
L 367.488366 309.216579 
L 368.066544 296.273682 
L 368.644722 292.463637 
L 369.801077 309.085274 
L 370.379255 310.488998 
L 372.691966 310.89934 
L 378.473744 311.144698 
L 379.6301 311.417215 
L 382.520989 311.520533 
L 396.397256 311.546828 
L 447.276903 311.54807 
L 447.276903 311.54807 
" clip-path="url(#p58a59638ce)" style="fill: none; stroke: #0000ff; stroke-opacity: 0.6; stroke-width: 1.5; stroke-linecap: square"/>
   </g>
   <g id="line2d_96">
    <path d="M 364.597477 311.491715 
L 365.753833 311.087494 
L 367.488366 309.223527 
L 368.066544 296.591172 
L 368.644722 291.868346 
L 369.2229 302.193699 
L 369.801077 309.283144 
L 370.379255 310.493071 
L 372.691966 310.898479 
L 378.473744 311.16225 
L 379.6301 311.416591 
L 381.942811 311.51378 
L 390.615478 311.545918 
L 447.276903 311.548046 
L 447.276903 311.548046 
" clip-path="url(#p58a59638ce)" style="fill: none; stroke: #008000; stroke-opacity: 0.6; stroke-width: 1.5; stroke-linecap: square"/>
   </g>
   <g id="line2d_97">
    <path d="M 364.597477 311.495127 
L 365.753833 311.104868 
L 366.332011 310.465161 
L 366.910188 310.028959 
L 367.488366 309.247871 
L 368.066544 297.954673 
L 368.644722 290.835704 
L 369.2229 298.878383 
L 369.801077 308.829264 
L 370.379255 310.414542 
L 372.113789 310.877224 
L 376.739211 311.029384 
L 377.895567 311.065626 
L 380.208278 311.457023 
L 384.255522 311.533477 
L 401.022679 311.547337 
L 447.276903 311.548046 
L 447.276903 311.548046 
" clip-path="url(#p58a59638ce)" style="fill: none; stroke: #ff0000; stroke-opacity: 0.6; stroke-width: 1.5; stroke-linecap: square"/>
   </g>
   <g id="line2d_98">
    <path d="M 364.597477 270.210144 
L 447.276903 270.210144 
L 447.276903 270.210144 
" clip-path="url(#p58a59638ce)" style="fill: none; stroke-dasharray: 5.55,2.4; stroke-dashoffset: 0; stroke: #ff0000; stroke-width: 1.5"/>
   </g>
   <g id="text_42">
    <!-- R2 -->
    <g transform="translate(397.950628 262.143158) scale(0.12 -0.12)">
     <use xlink:href="#DejaVuSans-52"/>
     <use xlink:href="#DejaVuSans-32" x="69.482422"/>
    </g>
   </g>
  </g>
  <g id="axes_16">
   <g id="patch_26">
    <path d="M 913.851936 496.889569 
L 1004.799304 496.889569 
L 1004.799304 451.415885 
L 913.851936 451.415885 
z
" style="fill: #ffffff"/>
   </g>
   <g id="matplotlib.axis_29"/>
   <g id="matplotlib.axis_30">
    <g id="ytick_29">
     <g id="line2d_99"/>
     <g id="text_43">
      <!-- 0.0 -->
      <g transform="translate(894.448811 498.629567) scale(0.1 -0.1)">
       <use xlink:href="#DejaVuSans-30"/>
       <use xlink:href="#DejaVuSans-2e" x="63.623047"/>
       <use xlink:href="#DejaVuSans-30" x="95.410156"/>
      </g>
     </g>
    </g>
    <g id="ytick_30">
     <g id="line2d_100"/>
     <g id="text_44">
      <!-- 4.8 -->
      <g transform="translate(894.448811 457.28209) scale(0.1 -0.1)">
       <use xlink:href="#DejaVuSans-34"/>
       <use xlink:href="#DejaVuSans-2e" x="63.623047"/>
       <use xlink:href="#DejaVuSans-38" x="95.410156"/>
      </g>
     </g>
    </g>
   </g>
   <g id="line2d_101">
    <path d="M 917.985907 494.779843 
L 919.142263 493.993676 
L 920.876796 491.819027 
L 921.454974 490.34332 
L 922.033152 489.267137 
L 922.611329 488.704825 
L 923.189507 489.463477 
L 923.767685 490.766251 
L 924.345863 491.682945 
L 924.924041 492.364847 
L 925.502218 492.808878 
L 926.658574 493.200953 
L 928.393107 493.449912 
L 931.862174 493.68252 
L 933.01853 494.040485 
L 935.331241 494.361251 
L 939.378486 494.570059 
L 947.472975 494.709432 
L 974.069154 494.802622 
L 1000.665333 494.822155 
L 1000.665333 494.822155 
" clip-path="url(#p1169776de9)" style="fill: none; stroke: #000000; stroke-opacity: 0.6; stroke-width: 1.5; stroke-linecap: square"/>
   </g>
   <g id="line2d_102">
    <path d="M 917.985907 494.779843 
L 919.142263 493.993687 
L 920.876796 491.840939 
L 921.454974 490.650303 
L 922.033152 490.932727 
L 922.611329 490.68331 
L 923.189507 490.274471 
L 924.924041 492.457878 
L 925.502218 492.850476 
L 926.658574 493.241894 
L 928.393107 493.467919 
L 931.862174 493.693283 
L 933.01853 494.052944 
L 934.753063 494.317991 
L 938.22213 494.540235 
L 945.160264 494.692461 
L 962.505598 494.78179 
L 1000.665333 494.822554 
L 1000.665333 494.822554 
" clip-path="url(#p1169776de9)" style="fill: none; stroke: #0000ff; stroke-opacity: 0.6; stroke-width: 1.5; stroke-linecap: square"/>
   </g>
   <g id="line2d_103">
    <path d="M 917.985907 494.779834 
L 919.142263 493.993699 
L 920.876796 491.848329 
L 921.454974 490.669368 
L 922.033152 490.786567 
L 922.611329 490.136047 
L 923.189507 490.039891 
L 923.767685 491.101136 
L 924.345863 491.885713 
L 925.502218 492.867569 
L 926.658574 493.236111 
L 928.393107 493.470174 
L 931.862174 493.708116 
L 933.596708 494.174006 
L 935.909419 494.424125 
L 940.534841 494.613635 
L 950.363864 494.733611 
L 983.898176 494.813978 
L 1000.665333 494.822584 
L 1000.665333 494.822584 
" clip-path="url(#p1169776de9)" style="fill: none; stroke: #008000; stroke-opacity: 0.6; stroke-width: 1.5; stroke-linecap: square"/>
   </g>
   <g id="line2d_104">
    <path d="M 917.985907 494.779978 
L 919.142263 493.994038 
L 920.876796 491.844965 
L 921.454974 490.73541 
L 922.033152 490.755537 
L 922.611329 490.336819 
L 923.189507 490.125933 
L 924.345863 491.831071 
L 924.924041 492.449496 
L 925.502218 492.849277 
L 926.658574 493.240601 
L 928.393107 493.467098 
L 931.862174 493.701722 
L 933.01853 494.045856 
L 934.753063 494.314031 
L 938.22213 494.538402 
L 945.160264 494.691674 
L 962.505598 494.781568 
L 1000.665333 494.822524 
L 1000.665333 494.822524 
" clip-path="url(#p1169776de9)" style="fill: none; stroke: #ff0000; stroke-opacity: 0.6; stroke-width: 1.5; stroke-linecap: square"/>
   </g>
   <g id="line2d_105">
    <path d="M 917.985907 453.482871 
L 1000.665333 453.482871 
L 1000.665333 453.482871 
" clip-path="url(#p1169776de9)" style="fill: none; stroke-dasharray: 5.55,2.4; stroke-dashoffset: 0; stroke: #ff0000; stroke-width: 1.5"/>
   </g>
   <g id="text_45">
    <!-- JC5 -->
    <g transform="translate(949.548432 445.415885) scale(0.12 -0.12)">
     <use xlink:href="#DejaVuSans-4a"/>
     <use xlink:href="#DejaVuSans-43" x="29.492188"/>
     <use xlink:href="#DejaVuSans-35" x="99.316406"/>
    </g>
   </g>
   <g id="legend_1">
    <g id="patch_27">
     <path d="M 827.58812 538.793188 
L 1091.06312 538.793188 
Q 1093.06312 538.793188 1093.06312 536.793188 
L 1093.06312 508.436938 
Q 1093.06312 506.436938 1091.06312 506.436938 
L 827.58812 506.436938 
Q 825.58812 506.436938 825.58812 508.436938 
L 825.58812 536.793188 
Q 825.58812 538.793188 827.58812 538.793188 
z
" style="fill: #ffffff; opacity: 0.8; stroke: #cccccc; stroke-linejoin: miter"/>
    </g>
    <g id="patch_28">
     <path d="M 829.58812 518.035375 
L 849.58812 518.035375 
L 849.58812 511.035375 
L 829.58812 511.035375 
z
" style="stroke: #000000; stroke-linejoin: miter"/>
    </g>
    <g id="text_46">
     <!-- Uncontrolled -->
     <g transform="translate(857.58812 518.035375) scale(0.1 -0.1)">
      <defs>
       <path id="DejaVuSans-55" d="M 556 4666 
L 1191 4666 
L 1191 1831 
Q 1191 1081 1462 751 
Q 1734 422 2344 422 
Q 2950 422 3222 751 
Q 3494 1081 3494 1831 
L 3494 4666 
L 4128 4666 
L 4128 1753 
Q 4128 841 3676 375 
Q 3225 -91 2344 -91 
Q 1459 -91 1007 375 
Q 556 841 556 1753 
L 556 4666 
z
" transform="scale(0.015625)"/>
       <path id="DejaVuSans-6e" d="M 3513 2113 
L 3513 0 
L 2938 0 
L 2938 2094 
Q 2938 2591 2744 2837 
Q 2550 3084 2163 3084 
Q 1697 3084 1428 2787 
Q 1159 2491 1159 1978 
L 1159 0 
L 581 0 
L 581 3500 
L 1159 3500 
L 1159 2956 
Q 1366 3272 1645 3428 
Q 1925 3584 2291 3584 
Q 2894 3584 3203 3211 
Q 3513 2838 3513 2113 
z
" transform="scale(0.015625)"/>
       <path id="DejaVuSans-6f" d="M 1959 3097 
Q 1497 3097 1228 2736 
Q 959 2375 959 1747 
Q 959 1119 1226 758 
Q 1494 397 1959 397 
Q 2419 397 2687 759 
Q 2956 1122 2956 1747 
Q 2956 2369 2687 2733 
Q 2419 3097 1959 3097 
z
M 1959 3584 
Q 2709 3584 3137 3096 
Q 3566 2609 3566 1747 
Q 3566 888 3137 398 
Q 2709 -91 1959 -91 
Q 1206 -91 779 398 
Q 353 888 353 1747 
Q 353 2609 779 3096 
Q 1206 3584 1959 3584 
z
" transform="scale(0.015625)"/>
       <path id="DejaVuSans-74" d="M 1172 4494 
L 1172 3500 
L 2356 3500 
L 2356 3053 
L 1172 3053 
L 1172 1153 
Q 1172 725 1289 603 
Q 1406 481 1766 481 
L 2356 481 
L 2356 0 
L 1766 0 
Q 1100 0 847 248 
Q 594 497 594 1153 
L 594 3053 
L 172 3053 
L 172 3500 
L 594 3500 
L 594 4494 
L 1172 4494 
z
" transform="scale(0.015625)"/>
       <path id="DejaVuSans-72" d="M 2631 2963 
Q 2534 3019 2420 3045 
Q 2306 3072 2169 3072 
Q 1681 3072 1420 2755 
Q 1159 2438 1159 1844 
L 1159 0 
L 581 0 
L 581 3500 
L 1159 3500 
L 1159 2956 
Q 1341 3275 1631 3429 
Q 1922 3584 2338 3584 
Q 2397 3584 2469 3576 
Q 2541 3569 2628 3553 
L 2631 2963 
z
" transform="scale(0.015625)"/>
       <path id="DejaVuSans-6c" d="M 603 4863 
L 1178 4863 
L 1178 0 
L 603 0 
L 603 4863 
z
" transform="scale(0.015625)"/>
       <path id="DejaVuSans-65" d="M 3597 1894 
L 3597 1613 
L 953 1613 
Q 991 1019 1311 708 
Q 1631 397 2203 397 
Q 2534 397 2845 478 
Q 3156 559 3463 722 
L 3463 178 
Q 3153 47 2828 -22 
Q 2503 -91 2169 -91 
Q 1331 -91 842 396 
Q 353 884 353 1716 
Q 353 2575 817 3079 
Q 1281 3584 2069 3584 
Q 2775 3584 3186 3129 
Q 3597 2675 3597 1894 
z
M 3022 2063 
Q 3016 2534 2758 2815 
Q 2500 3097 2075 3097 
Q 1594 3097 1305 2825 
Q 1016 2553 972 2059 
L 3022 2063 
z
" transform="scale(0.015625)"/>
       <path id="DejaVuSans-64" d="M 2906 2969 
L 2906 4863 
L 3481 4863 
L 3481 0 
L 2906 0 
L 2906 525 
Q 2725 213 2448 61 
Q 2172 -91 1784 -91 
Q 1150 -91 751 415 
Q 353 922 353 1747 
Q 353 2572 751 3078 
Q 1150 3584 1784 3584 
Q 2172 3584 2448 3432 
Q 2725 3281 2906 2969 
z
M 947 1747 
Q 947 1113 1208 752 
Q 1469 391 1925 391 
Q 2381 391 2643 752 
Q 2906 1113 2906 1747 
Q 2906 2381 2643 2742 
Q 2381 3103 1925 3103 
Q 1469 3103 1208 2742 
Q 947 2381 947 1747 
z
" transform="scale(0.015625)"/>
      </defs>
      <use xlink:href="#DejaVuSans-55"/>
      <use xlink:href="#DejaVuSans-6e" x="73.193359"/>
      <use xlink:href="#DejaVuSans-63" x="136.572266"/>
      <use xlink:href="#DejaVuSans-6f" x="191.552734"/>
      <use xlink:href="#DejaVuSans-6e" x="252.734375"/>
      <use xlink:href="#DejaVuSans-74" x="316.113281"/>
      <use xlink:href="#DejaVuSans-72" x="355.322266"/>
      <use xlink:href="#DejaVuSans-6f" x="394.185547"/>
      <use xlink:href="#DejaVuSans-6c" x="455.367188"/>
      <use xlink:href="#DejaVuSans-6c" x="483.150391"/>
      <use xlink:href="#DejaVuSans-65" x="510.933594"/>
      <use xlink:href="#DejaVuSans-64" x="572.457031"/>
     </g>
    </g>
    <g id="patch_29">
     <path d="M 829.58812 532.7135 
L 849.58812 532.7135 
L 849.58812 525.7135 
L 829.58812 525.7135 
z
" style="fill: #0000ff; stroke: #0000ff; stroke-linejoin: miter"/>
    </g>
    <g id="text_47">
     <!-- Level 1 -->
     <g transform="translate(857.58812 532.7135) scale(0.1 -0.1)">
      <defs>
       <path id="DejaVuSans-4c" d="M 628 4666 
L 1259 4666 
L 1259 531 
L 3531 531 
L 3531 0 
L 628 0 
L 628 4666 
z
" transform="scale(0.015625)"/>
       <path id="DejaVuSans-76" d="M 191 3500 
L 800 3500 
L 1894 563 
L 2988 3500 
L 3597 3500 
L 2284 0 
L 1503 0 
L 191 3500 
z
" transform="scale(0.015625)"/>
       <path id="DejaVuSans-20" transform="scale(0.015625)"/>
      </defs>
      <use xlink:href="#DejaVuSans-4c"/>
      <use xlink:href="#DejaVuSans-65" x="53.962891"/>
      <use xlink:href="#DejaVuSans-76" x="115.486328"/>
      <use xlink:href="#DejaVuSans-65" x="174.666016"/>
      <use xlink:href="#DejaVuSans-6c" x="236.189453"/>
      <use xlink:href="#DejaVuSans-20" x="263.972656"/>
      <use xlink:href="#DejaVuSans-31" x="295.759766"/>
     </g>
    </g>
    <g id="patch_30">
     <path d="M 941.18187 518.035375 
L 961.18187 518.035375 
L 961.18187 511.035375 
L 941.18187 511.035375 
z
" style="fill: #008000; stroke: #008000; stroke-linejoin: miter"/>
    </g>
    <g id="text_48">
     <!-- Level 2 -->
     <g transform="translate(969.18187 518.035375) scale(0.1 -0.1)">
      <use xlink:href="#DejaVuSans-4c"/>
      <use xlink:href="#DejaVuSans-65" x="53.962891"/>
      <use xlink:href="#DejaVuSans-76" x="115.486328"/>
      <use xlink:href="#DejaVuSans-65" x="174.666016"/>
      <use xlink:href="#DejaVuSans-6c" x="236.189453"/>
      <use xlink:href="#DejaVuSans-20" x="263.972656"/>
      <use xlink:href="#DejaVuSans-32" x="295.759766"/>
     </g>
    </g>
    <g id="patch_31">
     <path d="M 1025.122495 518.035375 
L 1045.122495 518.035375 
L 1045.122495 511.035375 
L 1025.122495 511.035375 
z
" style="fill: #ff0000; stroke: #ff0000; stroke-linejoin: miter"/>
    </g>
    <g id="text_49">
     <!-- Level 3 -->
     <g transform="translate(1053.122495 518.035375) scale(0.1 -0.1)">
      <use xlink:href="#DejaVuSans-4c"/>
      <use xlink:href="#DejaVuSans-65" x="53.962891"/>
      <use xlink:href="#DejaVuSans-76" x="115.486328"/>
      <use xlink:href="#DejaVuSans-65" x="174.666016"/>
      <use xlink:href="#DejaVuSans-6c" x="236.189453"/>
      <use xlink:href="#DejaVuSans-20" x="263.972656"/>
      <use xlink:href="#DejaVuSans-33" x="295.759766"/>
     </g>
    </g>
   </g>
  </g>
 </g>
 <defs>
  <clipPath id="p4e94568a42">
   <rect x="144" y="69.12" width="892.8" height="443.52"/>
  </clipPath>
  <clipPath id="p536f26a622">
   <rect x="176.000696" y="451.415885" width="90.947368" height="45.473684"/>
  </clipPath>
  <clipPath id="p6191f5b8b0">
   <rect x="913.851936" y="268.143158" width="90.947368" height="45.473684"/>
  </clipPath>
  <clipPath id="pb869f860bd">
   <rect x="729.389126" y="451.415885" width="90.947368" height="45.473684"/>
  </clipPath>
  <clipPath id="p50c4dd8b0e">
   <rect x="729.389126" y="268.143158" width="90.947368" height="45.473684"/>
  </clipPath>
  <clipPath id="pc5f9a39a6f">
   <rect x="176.000696" y="84.870431" width="90.947368" height="45.473684"/>
  </clipPath>
  <clipPath id="p2c6e56097c">
   <rect x="544.926316" y="84.870431" width="90.947368" height="45.473684"/>
  </clipPath>
  <clipPath id="p2fbb41c203">
   <rect x="360.463506" y="451.415885" width="90.947368" height="45.473684"/>
  </clipPath>
  <clipPath id="pecdfffae08">
   <rect x="360.463506" y="84.870431" width="90.947368" height="45.473684"/>
  </clipPath>
  <clipPath id="p1cf66063e2">
   <rect x="729.389126" y="84.870431" width="90.947368" height="45.473684"/>
  </clipPath>
  <clipPath id="p36d99919ea">
   <rect x="544.926316" y="451.415885" width="90.947368" height="45.473684"/>
  </clipPath>
  <clipPath id="pcb6f04c05a">
   <rect x="176.000696" y="268.143158" width="90.947368" height="45.473684"/>
  </clipPath>
  <clipPath id="pea72cd4efc">
   <rect x="913.851936" y="84.870431" width="90.947368" height="45.473684"/>
  </clipPath>
  <clipPath id="p45bead4e84">
   <rect x="544.926316" y="268.143158" width="90.947368" height="45.473684"/>
  </clipPath>
  <clipPath id="p58a59638ce">
   <rect x="360.463506" y="268.143158" width="90.947368" height="45.473684"/>
  </clipPath>
  <clipPath id="p1169776de9">
   <rect x="913.851936" y="451.415885" width="90.947368" height="45.473684"/>
  </clipPath>
 </defs>
</svg>
