<?xml version="1.0" encoding="utf-8" standalone="no"?>
<!DOCTYPE svg PUBLIC "-//W3C//DTD SVG 1.1//EN"
  "http://www.w3.org/Graphics/SVG/1.1/DTD/svg11.dtd">
<svg xmlns:xlink="http://www.w3.org/1999/xlink" width="720pt" height="432pt" viewBox="0 0 720 432" xmlns="http://www.w3.org/2000/svg" version="1.1">
 <metadata>
  <rdf:RDF xmlns:dc="http://purl.org/dc/elements/1.1/" xmlns:cc="http://creativecommons.org/ns#" xmlns:rdf="http://www.w3.org/1999/02/22-rdf-syntax-ns#">
   <cc:Work>
    <dc:type rdf:resource="http://purl.org/dc/dcmitype/StillImage"/>
    <dc:date>2025-03-27T09:27:07.432825</dc:date>
    <dc:format>image/svg+xml</dc:format>
    <dc:creator>
     <cc:Agent>
      <dc:title>Matplotlib v3.9.4, https://matplotlib.org/</dc:title>
     </cc:Agent>
    </dc:creator>
   </cc:Work>
  </rdf:RDF>
 </metadata>
 <defs>
  <style type="text/css">*{stroke-linejoin: round; stroke-linecap: butt}</style>
 </defs>
 <g id="figure_1">
  <g id="patch_1">
   <path d="M 0 432 
L 720 432 
L 720 0 
L 0 0 
z
" style="fill: #ffffff"/>
  </g>
  <g id="axes_1">
   <g id="patch_2">
    <path d="M 144 388.8 
L 252 388.8 
L 252 324 
L 144 324 
z
" style="fill: #ffffff"/>
   </g>
   <g id="PolyCollection_1">
    <defs>
     <path id="mf816936bad" d="M 148.909091 -61.858637 
L 148.909091 -46.145455 
L 149.105848 -46.201235 
L 149.302605 -46.260119 
L 149.499362 -46.322121 
L 149.69612 -46.387255 
L 149.892877 -46.455529 
L 150.089634 -46.526946 
L 150.286391 -46.601505 
L 150.483148 -46.679199 
L 150.679905 -46.760014 
L 150.876662 -46.843929 
L 151.07342 -46.930917 
L 151.270177 -47.020939 
L 151.466934 -47.113947 
L 151.663691 -47.209883 
L 151.860448 -47.308672 
L 152.057205 -47.410226 
L 152.253962 -47.514439 
L 152.45072 -47.621183 
L 152.647477 -47.730306 
L 152.844234 -47.841628 
L 153.040991 -47.954934 
L 153.237748 -48.069966 
L 153.434505 -48.18642 
L 153.631263 -48.30393 
L 153.82802 -48.422059 
L 154.024777 -48.540283 
L 154.221534 -48.657969 
L 154.418291 -48.774355 
L 154.615048 -48.888523 
L 154.811805 -48.999365 
L 155.008563 -49.105553 
L 155.20532 -49.20551 
L 155.402077 -49.29739 
L 155.598834 -49.379091 
L 155.795591 -49.448307 
L 155.992348 -49.502658 
L 156.189105 -49.539896 
L 156.385863 -49.558194 
L 156.58262 -49.556431 
L 156.779377 -49.534422 
L 156.976134 -49.49297 
L 157.172891 -49.43374 
L 157.369648 -49.358987 
L 157.566406 -49.271256 
L 157.763163 -49.17311 
L 157.95992 -49.066955 
L 158.156677 -48.954939 
L 158.353434 -48.838919 
L 158.550191 -48.720465 
L 158.746948 -48.600892 
L 158.943706 -48.481294 
L 159.140463 -48.362573 
L 159.33722 -48.245481 
L 159.533977 -48.130638 
L 159.730734 -48.018565 
L 159.927491 -47.909692 
L 160.124248 -47.804384 
L 160.321006 -47.702945 
L 160.517763 -47.605634 
L 160.71452 -47.512669 
L 160.911277 -47.424235 
L 161.108034 -47.340489 
L 161.304791 -47.261566 
L 161.501549 -47.18758 
L 161.698306 -47.118627 
L 161.895063 -47.054789 
L 162.09182 -46.996136 
L 162.288577 -46.942725 
L 162.485334 -46.894605 
L 162.682091 -46.851815 
L 162.878849 -46.814388 
L 163.075606 -46.782349 
L 163.272363 -46.755716 
L 163.46912 -46.734505 
L 163.665877 -46.718725 
L 163.862634 -46.708379 
L 164.059392 -46.70347 
L 164.256149 -46.703994 
L 164.452906 -46.709946 
L 164.649663 -46.721317 
L 164.84642 -46.738095 
L 165.043177 -46.760267 
L 165.239934 -46.787817 
L 165.436692 -46.820725 
L 165.633449 -46.858973 
L 165.830206 -46.902538 
L 166.026963 -46.951396 
L 166.22372 -47.005523 
L 166.420477 -47.064893 
L 166.617234 -47.129477 
L 166.813992 -47.199246 
L 167.010749 -47.274171 
L 167.207506 -47.35422 
L 167.404263 -47.43936 
L 167.60102 -47.529559 
L 167.797777 -47.624782 
L 167.994535 -47.724993 
L 168.191292 -47.830157 
L 168.388049 -47.940237 
L 168.584806 -48.055194 
L 168.781563 -48.17499 
L 168.97832 -48.299584 
L 169.175077 -48.428937 
L 169.371835 -48.563007 
L 169.568592 -48.70175 
L 169.765349 -48.845125 
L 169.962106 -48.993086 
L 170.158863 -49.145587 
L 170.35562 -49.302583 
L 170.552377 -49.464026 
L 170.749135 -49.629865 
L 170.945892 -49.800053 
L 171.142649 -49.974536 
L 171.339406 -50.153261 
L 171.536163 -50.336175 
L 171.73292 -50.52322 
L 171.929678 -50.714339 
L 172.126435 -50.909471 
L 172.323192 -51.108554 
L 172.519949 -51.311524 
L 172.716706 -51.518313 
L 172.913463 -51.728851 
L 173.11022 -51.943066 
L 173.306978 -52.160881 
L 173.503735 -52.382215 
L 173.700492 -52.606985 
L 173.897249 -52.835102 
L 174.094006 -53.066472 
L 174.290763 -53.300996 
L 174.48752 -53.538567 
L 174.684278 -53.779073 
L 174.881035 -54.022391 
L 175.077792 -54.268391 
L 175.274549 -54.516931 
L 175.471306 -54.767858 
L 175.668063 -55.021003 
L 175.864821 -55.27618 
L 176.061578 -55.533186 
L 176.258335 -55.791792 
L 176.455092 -56.051744 
L 176.651849 -56.312753 
L 176.848606 -56.574493 
L 177.045363 -56.836591 
L 177.242121 -57.098615 
L 177.438878 -57.360066 
L 177.635635 -57.62036 
L 177.832392 -57.878811 
L 178.029149 -58.134609 
L 178.225906 -58.386794 
L 178.422664 -58.634224 
L 178.619421 -58.875551 
L 178.816178 -59.109187 
L 179.012935 -59.333289 
L 179.209692 -59.545767 
L 179.406449 -59.74433 
L 179.603206 -59.926596 
L 179.799964 -60.090274 
L 179.996721 -60.233413 
L 180.193478 -60.354667 
L 180.390235 -60.453513 
L 180.586992 -60.530324 
L 180.783749 -60.586296 
L 180.980506 -60.623233 
L 181.177264 -60.643285 
L 181.374021 -60.648705 
L 181.570778 -60.641671 
L 181.767535 -60.624175 
L 181.964292 -60.597979 
L 182.161049 -60.564603 
L 182.357807 -60.525342 
L 182.554564 -60.481291 
L 182.751321 -60.433376 
L 182.948078 -60.382377 
L 183.144835 -60.328954 
L 183.341592 -60.27367 
L 183.538349 -60.217007 
L 183.735107 -60.15938 
L 183.931864 -60.101146 
L 184.128621 -60.04262 
L 184.325378 -59.984077 
L 184.522135 -59.925759 
L 184.718892 -59.867884 
L 184.915649 -59.810645 
L 185.112407 -59.754215 
L 185.309164 -59.698751 
L 185.505921 -59.644398 
L 185.702678 -59.591284 
L 185.899435 -59.539529 
L 186.096192 -59.489243 
L 186.29295 -59.440527 
L 186.489707 -59.393476 
L 186.686464 -59.348175 
L 186.883221 -59.304707 
L 187.079978 -59.263146 
L 187.276735 -59.223564 
L 187.473492 -59.186026 
L 187.67025 -59.150595 
L 187.867007 -59.11733 
L 188.063764 -59.086285 
L 188.260521 -59.057513 
L 188.457278 -59.031062 
L 188.654035 -59.00698 
L 188.850792 -58.98531 
L 189.04755 -58.966093 
L 189.244307 -58.949371 
L 189.441064 -58.93518 
L 189.637821 -58.923555 
L 189.834578 -58.914533 
L 190.031335 -58.908143 
L 190.228093 -58.904419 
L 190.42485 -58.903389 
L 190.621607 -58.905081 
L 190.818364 -58.909523 
L 191.015121 -58.916741 
L 191.211878 -58.92676 
L 191.408635 -58.939603 
L 191.605393 -58.955293 
L 191.80215 -58.973852 
L 191.998907 -58.995303 
L 192.195664 -59.019664 
L 192.392421 -59.046955 
L 192.589178 -59.077197 
L 192.785936 -59.110406 
L 192.982693 -59.146602 
L 193.17945 -59.1858 
L 193.376207 -59.228018 
L 193.572964 -59.273272 
L 193.769721 -59.321577 
L 193.966478 -59.372949 
L 194.163236 -59.427403 
L 194.359993 -59.484953 
L 194.55675 -59.545613 
L 194.753507 -59.609398 
L 194.950264 -59.676319 
L 195.147021 -59.746391 
L 195.343778 -59.819626 
L 195.540536 -59.896037 
L 195.737293 -59.975636 
L 195.93405 -60.058434 
L 196.130807 -60.144445 
L 196.327564 -60.233678 
L 196.524321 -60.326145 
L 196.721079 -60.421858 
L 196.917836 -60.520826 
L 197.114593 -60.623061 
L 197.31135 -60.728572 
L 197.508107 -60.837369 
L 197.704864 -60.949462 
L 197.901621 -61.064861 
L 198.098379 -61.183574 
L 198.295136 -61.30561 
L 198.491893 -61.430978 
L 198.68865 -61.559686 
L 198.885407 -61.691741 
L 199.082164 -61.827152 
L 199.278921 -61.965926 
L 199.475679 -62.108068 
L 199.672436 -62.253587 
L 199.869193 -62.402486 
L 200.06595 -62.554773 
L 200.262707 -62.710451 
L 200.459464 -62.869525 
L 200.656222 -63.032 
L 200.852979 -63.197878 
L 201.049736 -63.367162 
L 201.246493 -63.539854 
L 201.44325 -63.715955 
L 201.640007 -63.895467 
L 201.836764 -64.078388 
L 202.033522 -64.264717 
L 202.230279 -64.454453 
L 202.427036 -64.647593 
L 202.623793 -64.844132 
L 202.82055 -65.044066 
L 203.017307 -65.247389 
L 203.214064 -65.454093 
L 203.410822 -65.66417 
L 203.607579 -65.877609 
L 203.804336 -66.094401 
L 204.001093 -66.314531 
L 204.19785 -66.537985 
L 204.394607 -66.764747 
L 204.591365 -66.9948 
L 204.788122 -67.228123 
L 204.984879 -67.464695 
L 205.181636 -67.704492 
L 205.378393 -67.947487 
L 205.57515 -68.193651 
L 205.771907 -68.442954 
L 205.968665 -68.695361 
L 206.165422 -68.950836 
L 206.362179 -69.209337 
L 206.558936 -69.470821 
L 206.755693 -69.73524 
L 206.95245 -70.002544 
L 207.149208 -70.272675 
L 207.345965 -70.545574 
L 207.542722 -70.821175 
L 207.739479 -71.099407 
L 207.936236 -71.380191 
L 208.132993 -71.663444 
L 208.32975 -71.949072 
L 208.526508 -72.236976 
L 208.723265 -72.527046 
L 208.920022 -72.819159 
L 209.116779 -73.113184 
L 209.313536 -73.408973 
L 209.510293 -73.706363 
L 209.70705 -74.005172 
L 209.903808 -74.305198 
L 210.100565 -74.606212 
L 210.297322 -74.907956 
L 210.494079 -75.210139 
L 210.690836 -75.512427 
L 210.887593 -75.814435 
L 211.084351 -76.11572 
L 211.281108 -76.415768 
L 211.477865 -76.713975 
L 211.674622 -77.009637 
L 211.871379 -77.30192 
L 212.068136 -77.589845 
L 212.264893 -77.872259 
L 212.461651 -78.147808 
L 212.658408 -78.414927 
L 212.855165 -78.671834 
L 213.051922 -78.916559 
L 213.248679 -79.147019 
L 213.445436 -79.361147 
L 213.642193 -79.557093 
L 213.838951 -79.733451 
L 214.035708 -79.889482 
L 214.232465 -80.025253 
L 214.429222 -80.14164 
L 214.625979 -80.240193 
L 214.822736 -80.322919 
L 215.019494 -80.392037 
L 215.216251 -80.449778 
L 215.413008 -80.498243 
L 215.609765 -80.53933 
L 215.806522 -80.574697 
L 216.003279 -80.605772 
L 216.200036 -80.633767 
L 216.396794 -80.659707 
L 216.593551 -80.684456 
L 216.790308 -80.708742 
L 216.987065 -80.733184 
L 217.183822 -80.758303 
L 217.380579 -80.784549 
L 217.577336 -80.812303 
L 217.774094 -80.841897 
L 217.970851 -80.873614 
L 218.167608 -80.907705 
L 218.364365 -80.944385 
L 218.561122 -80.983845 
L 218.757879 -81.026251 
L 218.954637 -81.071751 
L 219.151394 -81.120473 
L 219.348151 -81.172532 
L 219.544908 -81.228029 
L 219.741665 -81.287052 
L 219.938422 -81.34968 
L 220.135179 -81.415981 
L 220.331937 -81.486015 
L 220.528694 -81.559833 
L 220.725451 -81.637479 
L 220.922208 -81.71899 
L 221.118965 -81.804397 
L 221.315722 -81.893725 
L 221.51248 -81.986992 
L 221.709237 -82.084213 
L 221.905994 -82.185395 
L 222.102751 -82.290544 
L 222.299508 -82.399656 
L 222.496265 -82.512728 
L 222.693022 -82.629749 
L 222.88978 -82.750705 
L 223.086537 -82.875578 
L 223.283294 -83.004347 
L 223.480051 -83.136984 
L 223.676808 -83.27346 
L 223.873565 -83.413742 
L 224.070322 -83.557793 
L 224.26708 -83.705571 
L 224.463837 -83.857033 
L 224.660594 -84.01213 
L 224.857351 -84.170812 
L 225.054108 -84.333022 
L 225.250865 -84.498704 
L 225.447623 -84.667794 
L 225.64438 -84.840229 
L 225.841137 -85.015938 
L 226.037894 -85.194851 
L 226.234651 -85.376891 
L 226.431408 -85.56198 
L 226.628165 -85.750034 
L 226.824923 -85.940968 
L 227.02168 -86.134692 
L 227.218437 -86.331111 
L 227.415194 -86.53013 
L 227.611951 -86.731648 
L 227.808708 -86.935558 
L 228.005465 -87.141752 
L 228.202223 -87.350118 
L 228.39898 -87.560537 
L 228.595737 -87.772888 
L 228.792494 -87.987044 
L 228.989251 -88.202874 
L 229.186008 -88.420241 
L 229.382766 -88.639001 
L 229.579523 -88.859008 
L 229.77628 -89.080105 
L 229.973037 -89.302131 
L 230.169794 -89.524917 
L 230.366551 -89.748282 
L 230.563308 -89.972041 
L 230.760066 -90.195993 
L 230.956823 -90.419929 
L 231.15358 -90.643623 
L 231.350337 -90.866835 
L 231.547094 -91.089305 
L 231.743851 -91.310752 
L 231.940608 -91.53087 
L 232.137366 -91.74932 
L 232.334123 -91.96573 
L 232.53088 -92.179681 
L 232.727637 -92.390702 
L 232.924394 -92.598259 
L 233.121151 -92.801736 
L 233.317909 -93.000424 
L 233.514666 -93.193494 
L 233.711423 -93.379975 
L 233.90818 -93.558725 
L 234.104937 -93.728398 
L 234.301694 -93.887414 
L 234.498451 -94.033938 
L 234.695209 -94.16587 
L 234.891966 -94.280887 
L 235.088723 -94.376524 
L 235.28548 -94.450341 
L 235.482237 -94.500154 
L 235.678994 -94.524318 
L 235.875752 -94.521961 
L 236.072509 -94.493124 
L 236.269266 -94.438725 
L 236.466023 -94.360378 
L 236.66278 -94.260137 
L 236.859537 -94.140235 
L 237.056294 -94.002885 
L 237.253052 -93.850149 
L 237.449809 -93.683873 
L 237.646566 -93.505669 
L 237.843323 -93.316923 
L 238.04008 -93.118818 
L 238.236837 -92.912362 
L 238.433594 -92.698419 
L 238.630352 -92.477725 
L 238.827109 -92.250918 
L 239.023866 -92.018552 
L 239.220623 -91.781114 
L 239.41738 -91.539033 
L 239.614137 -91.292691 
L 239.810895 -91.042433 
L 240.007652 -90.78857 
L 240.204409 -90.531386 
L 240.401166 -90.271144 
L 240.597923 -90.008084 
L 240.79468 -89.742432 
L 240.991437 -89.474397 
L 241.188195 -89.204177 
L 241.384952 -88.931957 
L 241.581709 -88.657914 
L 241.778466 -88.382215 
L 241.975223 -88.105018 
L 242.17198 -87.826476 
L 242.368737 -87.546734 
L 242.565495 -87.26593 
L 242.762252 -86.984198 
L 242.959009 -86.701666 
L 243.155766 -86.418457 
L 243.352523 -86.13469 
L 243.54928 -85.850479 
L 243.746038 -85.565935 
L 243.942795 -85.281163 
L 244.139552 -84.996265 
L 244.336309 -84.711342 
L 244.533066 -84.426487 
L 244.729823 -84.141794 
L 244.92658 -83.857351 
L 245.123338 -83.573243 
L 245.320095 -83.289555 
L 245.516852 -83.006365 
L 245.713609 -82.72375 
L 245.910366 -82.441786 
L 246.107123 -82.160543 
L 246.30388 -81.880091 
L 246.500638 -81.600496 
L 246.697395 -81.321823 
L 246.894152 -81.044132 
L 247.090909 -80.767484 
L 247.090909 -102.047026 
L 247.090909 -102.047026 
L 246.894152 -102.054002 
L 246.697395 -102.058314 
L 246.500638 -102.059906 
L 246.30388 -102.058724 
L 246.107123 -102.054714 
L 245.910366 -102.047822 
L 245.713609 -102.037996 
L 245.516852 -102.025183 
L 245.320095 -102.009331 
L 245.123338 -101.990392 
L 244.92658 -101.968314 
L 244.729823 -101.943051 
L 244.533066 -101.914555 
L 244.336309 -101.882781 
L 244.139552 -101.847686 
L 243.942795 -101.809228 
L 243.746038 -101.767368 
L 243.54928 -101.722069 
L 243.352523 -101.673295 
L 243.155766 -101.621015 
L 242.959009 -101.5652 
L 242.762252 -101.505825 
L 242.565495 -101.442869 
L 242.368737 -101.376315 
L 242.17198 -101.306149 
L 241.975223 -101.232366 
L 241.778466 -101.154963 
L 241.581709 -101.073945 
L 241.384952 -100.989326 
L 241.188195 -100.901126 
L 240.991437 -100.809376 
L 240.79468 -100.714115 
L 240.597923 -100.615398 
L 240.401166 -100.51329 
L 240.204409 -100.407874 
L 240.007652 -100.299252 
L 239.810895 -100.187545 
L 239.614137 -100.072902 
L 239.41738 -99.9555 
L 239.220623 -99.835551 
L 239.023866 -99.713308 
L 238.827109 -99.589075 
L 238.630352 -99.463215 
L 238.433594 -99.336166 
L 238.236837 -99.208449 
L 238.04008 -99.080694 
L 237.843323 -98.953658 
L 237.646566 -98.82825 
L 237.449809 -98.705562 
L 237.253052 -98.586893 
L 237.056294 -98.473775 
L 236.859537 -98.367982 
L 236.66278 -98.271511 
L 236.466023 -98.18652 
L 236.269266 -98.115196 
L 236.072509 -98.059554 
L 235.875752 -98.021185 
L 235.678994 -98.000989 
L 235.482237 -97.999002 
L 235.28548 -98.014363 
L 235.088723 -98.045443 
L 234.891966 -98.090091 
L 234.695209 -98.145907 
L 234.498451 -98.210474 
L 234.301694 -98.281526 
L 234.104937 -98.357032 
L 233.90818 -98.43523 
L 233.711423 -98.514623 
L 233.514666 -98.593951 
L 233.317909 -98.672167 
L 233.121151 -98.7484 
L 232.924394 -98.821927 
L 232.727637 -98.892148 
L 232.53088 -98.958564 
L 232.334123 -99.020757 
L 232.137366 -99.078379 
L 231.940608 -99.13114 
L 231.743851 -99.178793 
L 231.547094 -99.221134 
L 231.350337 -99.25799 
L 231.15358 -99.289217 
L 230.956823 -99.314693 
L 230.760066 -99.334318 
L 230.563308 -99.348009 
L 230.366551 -99.355697 
L 230.169794 -99.357328 
L 229.973037 -99.352859 
L 229.77628 -99.342255 
L 229.579523 -99.325492 
L 229.382766 -99.302555 
L 229.186008 -99.273433 
L 228.989251 -99.238124 
L 228.792494 -99.19663 
L 228.595737 -99.148961 
L 228.39898 -99.095127 
L 228.202223 -99.035147 
L 228.005465 -98.969041 
L 227.808708 -98.896834 
L 227.611951 -98.818554 
L 227.415194 -98.734231 
L 227.218437 -98.6439 
L 227.02168 -98.547597 
L 226.824923 -98.44536 
L 226.628165 -98.337232 
L 226.431408 -98.223255 
L 226.234651 -98.103475 
L 226.037894 -97.97794 
L 225.841137 -97.846698 
L 225.64438 -97.709802 
L 225.447623 -97.567303 
L 225.250865 -97.419257 
L 225.054108 -97.26572 
L 224.857351 -97.106749 
L 224.660594 -96.942403 
L 224.463837 -96.772745 
L 224.26708 -96.597836 
L 224.070322 -96.417739 
L 223.873565 -96.232522 
L 223.676808 -96.042251 
L 223.480051 -95.846994 
L 223.283294 -95.646823 
L 223.086537 -95.441809 
L 222.88978 -95.232027 
L 222.693022 -95.017552 
L 222.496265 -94.798462 
L 222.299508 -94.574837 
L 222.102751 -94.346759 
L 221.905994 -94.114313 
L 221.709237 -93.877585 
L 221.51248 -93.636665 
L 221.315722 -93.391645 
L 221.118965 -93.14262 
L 220.922208 -92.88969 
L 220.725451 -92.632958 
L 220.528694 -92.372529 
L 220.331937 -92.108515 
L 220.135179 -91.841031 
L 219.938422 -91.5702 
L 219.741665 -91.296149 
L 219.544908 -91.019013 
L 219.348151 -90.738934 
L 219.151394 -90.456063 
L 218.954637 -90.170561 
L 218.757879 -89.882602 
L 218.561122 -89.592372 
L 218.364365 -89.300073 
L 218.167608 -89.005924 
L 217.970851 -88.710167 
L 217.774094 -88.413068 
L 217.577336 -88.114923 
L 217.380579 -87.816064 
L 217.183822 -87.516865 
L 216.987065 -87.217751 
L 216.790308 -86.91921 
L 216.593551 -86.621805 
L 216.396794 -86.32619 
L 216.200036 -86.033129 
L 216.003279 -85.74352 
L 215.806522 -85.458419 
L 215.609765 -85.17907 
L 215.413008 -84.906926 
L 215.216251 -84.643676 
L 215.019494 -84.39124 
L 214.822736 -84.151743 
L 214.625979 -83.927438 
L 214.429222 -83.720565 
L 214.232465 -83.533146 
L 214.035708 -83.36675 
L 213.838951 -83.222266 
L 213.642193 -83.099775 
L 213.445436 -82.998548 
L 213.248679 -82.917191 
L 213.051922 -82.853858 
L 212.855165 -82.806492 
L 212.658408 -82.773012 
L 212.461651 -82.751453 
L 212.264893 -82.740034 
L 212.068136 -82.737191 
L 211.871379 -82.74157 
L 211.674622 -82.752015 
L 211.477865 -82.767544 
L 211.281108 -82.78732 
L 211.084351 -82.810631 
L 210.887593 -82.836869 
L 210.690836 -82.865512 
L 210.494079 -82.896107 
L 210.297322 -82.928261 
L 210.100565 -82.96163 
L 209.903808 -82.99591 
L 209.70705 -83.030832 
L 209.510293 -83.066154 
L 209.313536 -83.101661 
L 209.116779 -83.137155 
L 208.920022 -83.172458 
L 208.723265 -83.207409 
L 208.526508 -83.241857 
L 208.32975 -83.275664 
L 208.132993 -83.308702 
L 207.936236 -83.340853 
L 207.739479 -83.372005 
L 207.542722 -83.402055 
L 207.345965 -83.430906 
L 207.149208 -83.458465 
L 206.95245 -83.484647 
L 206.755693 -83.50937 
L 206.558936 -83.532557 
L 206.362179 -83.554133 
L 206.165422 -83.574031 
L 205.968665 -83.592183 
L 205.771907 -83.608526 
L 205.57515 -83.623001 
L 205.378393 -83.63555 
L 205.181636 -83.646118 
L 204.984879 -83.654652 
L 204.788122 -83.661103 
L 204.591365 -83.665422 
L 204.394607 -83.667563 
L 204.19785 -83.667482 
L 204.001093 -83.665137 
L 203.804336 -83.660486 
L 203.607579 -83.65349 
L 203.410822 -83.644111 
L 203.214064 -83.632314 
L 203.017307 -83.618064 
L 202.82055 -83.601325 
L 202.623793 -83.582067 
L 202.427036 -83.560258 
L 202.230279 -83.535868 
L 202.033522 -83.508867 
L 201.836764 -83.479228 
L 201.640007 -83.446923 
L 201.44325 -83.411927 
L 201.246493 -83.374214 
L 201.049736 -83.33376 
L 200.852979 -83.290541 
L 200.656222 -83.244534 
L 200.459464 -83.195717 
L 200.262707 -83.144069 
L 200.06595 -83.08957 
L 199.869193 -83.0322 
L 199.672436 -82.971938 
L 199.475679 -82.908767 
L 199.278921 -82.842669 
L 199.082164 -82.773626 
L 198.885407 -82.701622 
L 198.68865 -82.62664 
L 198.491893 -82.548664 
L 198.295136 -82.46768 
L 198.098379 -82.383673 
L 197.901621 -82.296629 
L 197.704864 -82.206535 
L 197.508107 -82.113377 
L 197.31135 -82.017143 
L 197.114593 -81.917822 
L 196.917836 -81.815401 
L 196.721079 -81.70987 
L 196.524321 -81.60122 
L 196.327564 -81.489439 
L 196.130807 -81.374519 
L 195.93405 -81.25645 
L 195.737293 -81.135226 
L 195.540536 -81.010839 
L 195.343778 -80.883281 
L 195.147021 -80.752546 
L 194.950264 -80.618628 
L 194.753507 -80.481523 
L 194.55675 -80.341225 
L 194.359993 -80.197732 
L 194.163236 -80.051039 
L 193.966478 -79.901146 
L 193.769721 -79.748049 
L 193.572964 -79.591748 
L 193.376207 -79.432244 
L 193.17945 -79.269537 
L 192.982693 -79.103628 
L 192.785936 -78.93452 
L 192.589178 -78.762217 
L 192.392421 -78.586724 
L 192.195664 -78.408045 
L 191.998907 -78.226187 
L 191.80215 -78.041158 
L 191.605393 -77.852967 
L 191.408635 -77.661624 
L 191.211878 -77.46714 
L 191.015121 -77.269528 
L 190.818364 -77.068802 
L 190.621607 -76.864978 
L 190.42485 -76.658072 
L 190.228093 -76.448103 
L 190.031335 -76.235092 
L 189.834578 -76.019061 
L 189.637821 -75.800033 
L 189.441064 -75.578036 
L 189.244307 -75.353095 
L 189.04755 -75.125243 
L 188.850792 -74.894511 
L 188.654035 -74.660934 
L 188.457278 -74.42455 
L 188.260521 -74.185399 
L 188.063764 -73.943525 
L 187.867007 -73.698973 
L 187.67025 -73.451793 
L 187.473492 -73.202038 
L 187.276735 -72.949767 
L 187.079978 -72.695038 
L 186.883221 -72.43792 
L 186.686464 -72.178481 
L 186.489707 -71.916798 
L 186.29295 -71.652952 
L 186.096192 -71.387033 
L 185.899435 -71.119134 
L 185.702678 -70.84936 
L 185.505921 -70.577822 
L 185.309164 -70.304643 
L 185.112407 -70.029955 
L 184.915649 -69.753905 
L 184.718892 -69.476653 
L 184.522135 -69.198379 
L 184.325378 -68.919278 
L 184.128621 -68.639573 
L 183.931864 -68.359511 
L 183.735107 -68.079373 
L 183.538349 -67.799476 
L 183.341592 -67.520187 
L 183.144835 -67.241923 
L 182.948078 -66.965174 
L 182.751321 -66.690506 
L 182.554564 -66.418588 
L 182.357807 -66.150205 
L 182.161049 -65.886288 
L 181.964292 -65.627937 
L 181.767535 -65.376455 
L 181.570778 -65.133367 
L 181.374021 -64.90044 
L 181.177264 -64.679671 
L 180.980506 -64.473243 
L 180.783749 -64.283414 
L 180.586992 -64.112339 
L 180.390235 -63.961824 
L 180.193478 -63.833069 
L 179.996721 -63.726451 
L 179.799964 -63.641447 
L 179.603206 -63.576713 
L 179.406449 -63.530301 
L 179.209692 -63.499919 
L 179.012935 -63.483186 
L 178.816178 -63.477812 
L 178.619421 -63.481706 
L 178.422664 -63.493026 
L 178.225906 -63.510185 
L 178.029149 -63.531834 
L 177.832392 -63.556834 
L 177.635635 -63.584226 
L 177.438878 -63.6132 
L 177.242121 -63.643073 
L 177.045363 -63.673264 
L 176.848606 -63.703276 
L 176.651849 -63.732683 
L 176.455092 -63.761115 
L 176.258335 -63.788252 
L 176.061578 -63.813811 
L 175.864821 -63.837546 
L 175.668063 -63.859237 
L 175.471306 -63.878688 
L 175.274549 -63.895725 
L 175.077792 -63.910191 
L 174.881035 -63.921945 
L 174.684278 -63.930858 
L 174.48752 -63.936816 
L 174.290763 -63.939713 
L 174.094006 -63.939454 
L 173.897249 -63.935952 
L 173.700492 -63.929129 
L 173.503735 -63.918913 
L 173.306978 -63.905239 
L 173.11022 -63.888048 
L 172.913463 -63.867287 
L 172.716706 -63.842908 
L 172.519949 -63.814869 
L 172.323192 -63.783131 
L 172.126435 -63.74766 
L 171.929678 -63.708429 
L 171.73292 -63.665411 
L 171.536163 -63.618585 
L 171.339406 -63.567934 
L 171.142649 -63.513445 
L 170.945892 -63.455107 
L 170.749135 -63.392913 
L 170.552377 -63.326861 
L 170.35562 -63.256951 
L 170.158863 -63.183185 
L 169.962106 -63.105571 
L 169.765349 -63.024117 
L 169.568592 -62.938837 
L 169.371835 -62.849746 
L 169.175077 -62.756863 
L 168.97832 -62.660209 
L 168.781563 -62.55981 
L 168.584806 -62.455692 
L 168.388049 -62.347886 
L 168.191292 -62.236425 
L 167.994535 -62.121345 
L 167.797777 -62.002687 
L 167.60102 -61.88049 
L 167.404263 -61.754801 
L 167.207506 -61.625667 
L 167.010749 -61.493138 
L 166.813992 -61.357268 
L 166.617234 -61.218113 
L 166.420477 -61.075734 
L 166.22372 -60.930191 
L 166.026963 -60.781552 
L 165.830206 -60.629883 
L 165.633449 -60.475257 
L 165.436692 -60.317749 
L 165.239934 -60.157436 
L 165.043177 -59.9944 
L 164.84642 -59.828726 
L 164.649663 -59.660501 
L 164.452906 -59.489818 
L 164.256149 -59.316773 
L 164.059392 -59.141464 
L 163.862634 -58.963996 
L 163.665877 -58.784476 
L 163.46912 -58.603016 
L 163.272363 -58.419734 
L 163.075606 -58.234751 
L 162.878849 -58.048195 
L 162.682091 -57.8602 
L 162.485334 -57.670905 
L 162.288577 -57.480457 
L 162.09182 -57.289011 
L 161.895063 -57.096729 
L 161.698306 -56.903784 
L 161.501549 -56.710358 
L 161.304791 -56.516648 
L 161.108034 -56.322863 
L 160.911277 -56.129229 
L 160.71452 -55.935989 
L 160.517763 -55.743411 
L 160.321006 -55.551787 
L 160.124248 -55.361441 
L 159.927491 -55.172735 
L 159.730734 -54.986075 
L 159.533977 -54.801923 
L 159.33722 -54.620806 
L 159.140463 -54.443335 
L 158.943706 -54.270221 
L 158.746948 -54.102299 
L 158.550191 -53.940552 
L 158.353434 -53.786149 
L 158.156677 -53.640474 
L 157.95992 -53.505165 
L 157.763163 -53.382138 
L 157.566406 -53.273591 
L 157.369648 -53.181978 
L 157.172891 -53.109901 
L 156.976134 -53.059934 
L 156.779377 -53.034357 
L 156.58262 -53.034847 
L 156.385863 -53.062211 
L 156.189105 -53.116258 
L 155.992348 -53.195855 
L 155.795591 -53.299147 
L 155.598834 -53.423855 
L 155.402077 -53.567557 
L 155.20532 -53.727901 
L 155.008563 -53.902727 
L 154.811805 -54.090129 
L 154.615048 -54.288461 
L 154.418291 -54.496323 
L 154.221534 -54.712528 
L 154.024777 -54.936073 
L 153.82802 -55.166109 
L 153.631263 -55.401911 
L 153.434505 -55.642858 
L 153.237748 -55.888415 
L 153.040991 -56.138113 
L 152.844234 -56.39154 
L 152.647477 -56.648334 
L 152.45072 -56.908168 
L 152.253962 -57.170749 
L 152.057205 -57.43581 
L 151.860448 -57.703109 
L 151.663691 -57.972422 
L 151.466934 -58.243541 
L 151.270177 -58.516275 
L 151.07342 -58.790443 
L 150.876662 -59.065877 
L 150.679905 -59.342418 
L 150.483148 -59.619916 
L 150.286391 -59.898229 
L 150.089634 -60.177221 
L 149.892877 -60.456764 
L 149.69612 -60.736736 
L 149.499362 -61.017019 
L 149.302605 -61.297501 
L 149.105848 -61.578075 
L 148.909091 -61.858637 
z
" style="stroke: #000000; stroke-opacity: 0.2"/>
    </defs>
    <g clip-path="url(#p74ea218dc2)">
     <use xlink:href="#mf816936bad" x="0" y="432" style="fill-opacity: 0.2; stroke: #000000; stroke-opacity: 0.2"/>
    </g>
   </g>
   <g id="matplotlib.axis_1">
    <g id="xtick_1">
     <g id="line2d_1">
      <defs>
       <path id="m18c07c9412" d="M 0 0 
L 0 3.5 
" style="stroke: #000000; stroke-width: 0.8"/>
      </defs>
      <g>
       <use xlink:href="#m18c07c9412" x="148.909091" y="388.8" style="stroke: #000000; stroke-width: 0.8"/>
      </g>
     </g>
     <g id="text_1">
      <!-- 1.0 -->
      <g transform="translate(140.957528 403.398438) scale(0.1 -0.1)">
       <defs>
        <path id="DejaVuSans-31" d="M 794 531 
L 1825 531 
L 1825 4091 
L 703 3866 
L 703 4441 
L 1819 4666 
L 2450 4666 
L 2450 531 
L 3481 531 
L 3481 0 
L 794 0 
L 794 531 
z
" transform="scale(0.015625)"/>
        <path id="DejaVuSans-2e" d="M 684 794 
L 1344 794 
L 1344 0 
L 684 0 
L 684 794 
z
" transform="scale(0.015625)"/>
        <path id="DejaVuSans-30" d="M 2034 4250 
Q 1547 4250 1301 3770 
Q 1056 3291 1056 2328 
Q 1056 1369 1301 889 
Q 1547 409 2034 409 
Q 2525 409 2770 889 
Q 3016 1369 3016 2328 
Q 3016 3291 2770 3770 
Q 2525 4250 2034 4250 
z
M 2034 4750 
Q 2819 4750 3233 4129 
Q 3647 3509 3647 2328 
Q 3647 1150 3233 529 
Q 2819 -91 2034 -91 
Q 1250 -91 836 529 
Q 422 1150 422 2328 
Q 422 3509 836 4129 
Q 1250 4750 2034 4750 
z
" transform="scale(0.015625)"/>
       </defs>
       <use xlink:href="#DejaVuSans-31"/>
       <use xlink:href="#DejaVuSans-2e" x="63.623047"/>
       <use xlink:href="#DejaVuSans-30" x="95.410156"/>
      </g>
     </g>
    </g>
    <g id="xtick_2">
     <g id="line2d_2">
      <g>
       <use xlink:href="#m18c07c9412" x="198" y="388.8" style="stroke: #000000; stroke-width: 0.8"/>
      </g>
     </g>
     <g id="text_2">
      <!-- 1.5 -->
      <g transform="translate(190.048438 403.398438) scale(0.1 -0.1)">
       <defs>
        <path id="DejaVuSans-35" d="M 691 4666 
L 3169 4666 
L 3169 4134 
L 1269 4134 
L 1269 2991 
Q 1406 3038 1543 3061 
Q 1681 3084 1819 3084 
Q 2600 3084 3056 2656 
Q 3513 2228 3513 1497 
Q 3513 744 3044 326 
Q 2575 -91 1722 -91 
Q 1428 -91 1123 -41 
Q 819 9 494 109 
L 494 744 
Q 775 591 1075 516 
Q 1375 441 1709 441 
Q 2250 441 2565 725 
Q 2881 1009 2881 1497 
Q 2881 1984 2565 2268 
Q 2250 2553 1709 2553 
Q 1456 2553 1204 2497 
Q 953 2441 691 2322 
L 691 4666 
z
" transform="scale(0.015625)"/>
       </defs>
       <use xlink:href="#DejaVuSans-31"/>
       <use xlink:href="#DejaVuSans-2e" x="63.623047"/>
       <use xlink:href="#DejaVuSans-35" x="95.410156"/>
      </g>
     </g>
    </g>
    <g id="xtick_3">
     <g id="line2d_3">
      <g>
       <use xlink:href="#m18c07c9412" x="247.090909" y="388.8" style="stroke: #000000; stroke-width: 0.8"/>
      </g>
     </g>
     <g id="text_3">
      <!-- 2.0 -->
      <g transform="translate(239.139347 403.398438) scale(0.1 -0.1)">
       <defs>
        <path id="DejaVuSans-32" d="M 1228 531 
L 3431 531 
L 3431 0 
L 469 0 
L 469 531 
Q 828 903 1448 1529 
Q 2069 2156 2228 2338 
Q 2531 2678 2651 2914 
Q 2772 3150 2772 3378 
Q 2772 3750 2511 3984 
Q 2250 4219 1831 4219 
Q 1534 4219 1204 4116 
Q 875 4013 500 3803 
L 500 4441 
Q 881 4594 1212 4672 
Q 1544 4750 1819 4750 
Q 2544 4750 2975 4387 
Q 3406 4025 3406 3419 
Q 3406 3131 3298 2873 
Q 3191 2616 2906 2266 
Q 2828 2175 2409 1742 
Q 1991 1309 1228 531 
z
" transform="scale(0.015625)"/>
       </defs>
       <use xlink:href="#DejaVuSans-32"/>
       <use xlink:href="#DejaVuSans-2e" x="63.623047"/>
       <use xlink:href="#DejaVuSans-30" x="95.410156"/>
      </g>
     </g>
    </g>
    <g id="text_4">
     <!-- $x$ -->
     <g transform="translate(194.4 418.59625) scale(0.12 -0.12)">
      <defs>
       <path id="DejaVuSans-Oblique-78" d="M 3841 3500 
L 2234 1784 
L 3219 0 
L 2559 0 
L 1819 1388 
L 531 0 
L -166 0 
L 1556 1844 
L 641 3500 
L 1300 3500 
L 1972 2234 
L 3144 3500 
L 3841 3500 
z
" transform="scale(0.015625)"/>
      </defs>
      <use xlink:href="#DejaVuSans-Oblique-78" transform="translate(0 0.3125)"/>
     </g>
    </g>
   </g>
   <g id="matplotlib.axis_2">
    <g id="ytick_1">
     <g id="line2d_4">
      <defs>
       <path id="mbf8624b586" d="M 0 0 
L -3.5 0 
" style="stroke: #000000; stroke-width: 0.8"/>
      </defs>
      <g>
       <use xlink:href="#mbf8624b586" x="144" y="364.969933" style="stroke: #000000; stroke-width: 0.8"/>
      </g>
     </g>
     <g id="text_5">
      <!-- 2 -->
      <g transform="translate(130.6375 368.769152) scale(0.1 -0.1)">
       <use xlink:href="#DejaVuSans-32"/>
      </g>
     </g>
    </g>
    <g id="ytick_2">
     <g id="line2d_5">
      <g>
       <use xlink:href="#mbf8624b586" x="144" y="326.945455" style="stroke: #000000; stroke-width: 0.8"/>
      </g>
     </g>
     <g id="text_6">
      <!-- 4 -->
      <g transform="translate(130.6375 330.744673) scale(0.1 -0.1)">
       <defs>
        <path id="DejaVuSans-34" d="M 2419 4116 
L 825 1625 
L 2419 1625 
L 2419 4116 
z
M 2253 4666 
L 3047 4666 
L 3047 1625 
L 3713 1625 
L 3713 1100 
L 3047 1100 
L 3047 0 
L 2419 0 
L 2419 1100 
L 313 1100 
L 313 1709 
L 2253 4666 
z
" transform="scale(0.015625)"/>
       </defs>
       <use xlink:href="#DejaVuSans-34"/>
      </g>
     </g>
    </g>
   </g>
   <g id="line2d_6">
    <path d="M 148.909091 383.982172 
L 156.779377 380.811951 
L 164.649663 377.397398 
L 172.519949 373.738511 
L 180.390235 369.835291 
L 188.260521 365.687738 
L 196.327564 361.182924 
L 204.394607 356.421408 
L 212.461651 351.40319 
L 220.725451 345.996405 
L 228.989251 340.320244 
L 237.253052 334.374705 
L 245.713609 328.008532 
L 247.090909 326.945455 
L 247.090909 326.945455 
" clip-path="url(#p74ea218dc2)" style="fill: none; stroke: #000000; stroke-opacity: 0.5; stroke-width: 1.5; stroke-linecap: square"/>
   </g>
   <g id="line2d_7">
    <path d="M 148.909091 377.997954 
L 151.270177 379.231393 
L 153.237748 380.020809 
L 155.008563 380.49586 
L 156.58262 380.704361 
L 158.156677 380.702293 
L 159.927491 380.458786 
L 161.698306 379.988795 
L 163.862634 379.163812 
L 166.420477 377.929687 
L 169.962106 375.950672 
L 188.260521 365.378544 
L 196.524321 361.036318 
L 203.607579 357.23445 
L 207.739479 354.764294 
L 211.281108 352.398456 
L 214.822736 349.762669 
L 218.757879 346.545573 
L 227.218437 339.512494 
L 229.579523 337.90775 
L 231.547094 336.84478 
L 233.121151 336.224932 
L 234.695209 335.844112 
L 236.072509 335.723661 
L 237.449809 335.805282 
L 239.023866 336.13407 
L 240.597923 336.688259 
L 242.368737 337.538476 
L 244.533066 338.829479 
L 247.090909 340.592745 
L 247.090909 340.592745 
" clip-path="url(#p74ea218dc2)" style="fill: none; stroke-dasharray: 5.55,2.4; stroke-dashoffset: 0; stroke: #000000; stroke-opacity: 0.5; stroke-width: 1.5"/>
   </g>
   <g id="line2d_8">
    <path d="M 144 364.969933 
L 252 364.969933 
" clip-path="url(#p74ea218dc2)" style="fill: none; stroke-dasharray: 5.55,2.4; stroke-dashoffset: 0; stroke: #ff0000; stroke-width: 1.5"/>
   </g>
   <g id="patch_3">
    <path d="M 144 388.8 
L 144 324 
" style="fill: none; stroke: #000000; stroke-width: 0.8; stroke-linejoin: miter; stroke-linecap: square"/>
   </g>
   <g id="patch_4">
    <path d="M 252 388.8 
L 252 324 
" style="fill: none; stroke: #000000; stroke-width: 0.8; stroke-linejoin: miter; stroke-linecap: square"/>
   </g>
   <g id="patch_5">
    <path d="M 144 388.8 
L 252 388.8 
" style="fill: none; stroke: #000000; stroke-width: 0.8; stroke-linejoin: miter; stroke-linecap: square"/>
   </g>
   <g id="patch_6">
    <path d="M 144 324 
L 252 324 
" style="fill: none; stroke: #000000; stroke-width: 0.8; stroke-linejoin: miter; stroke-linecap: square"/>
   </g>
   <g id="text_7">
    <!-- $c(x)$ -->
    <g transform="translate(186.42 318) scale(0.12 -0.12)">
     <defs>
      <path id="DejaVuSans-Oblique-63" d="M 3431 3366 
L 3316 2797 
Q 3109 2947 2876 3022 
Q 2644 3097 2394 3097 
Q 2119 3097 1870 3000 
Q 1622 2903 1453 2725 
Q 1184 2453 1037 2087 
Q 891 1722 891 1331 
Q 891 859 1127 628 
Q 1363 397 1844 397 
Q 2081 397 2348 469 
Q 2616 541 2906 684 
L 2797 116 
Q 2547 13 2283 -39 
Q 2019 -91 1741 -91 
Q 1044 -91 669 257 
Q 294 606 294 1253 
Q 294 1797 489 2255 
Q 684 2713 1069 3078 
Q 1331 3328 1684 3456 
Q 2038 3584 2456 3584 
Q 2700 3584 2940 3529 
Q 3181 3475 3431 3366 
z
" transform="scale(0.015625)"/>
      <path id="DejaVuSans-28" d="M 1984 4856 
Q 1566 4138 1362 3434 
Q 1159 2731 1159 2009 
Q 1159 1288 1364 580 
Q 1569 -128 1984 -844 
L 1484 -844 
Q 1016 -109 783 600 
Q 550 1309 550 2009 
Q 550 2706 781 3412 
Q 1013 4119 1484 4856 
L 1984 4856 
z
" transform="scale(0.015625)"/>
      <path id="DejaVuSans-29" d="M 513 4856 
L 1013 4856 
Q 1481 4119 1714 3412 
Q 1947 2706 1947 2009 
Q 1947 1309 1714 600 
Q 1481 -109 1013 -844 
L 513 -844 
Q 928 -128 1133 580 
Q 1338 1288 1338 2009 
Q 1338 2731 1133 3434 
Q 928 4138 513 4856 
z
" transform="scale(0.015625)"/>
     </defs>
     <use xlink:href="#DejaVuSans-Oblique-63" transform="translate(0 0.125)"/>
     <use xlink:href="#DejaVuSans-28" transform="translate(54.980469 0.125)"/>
     <use xlink:href="#DejaVuSans-Oblique-78" transform="translate(93.994141 0.125)"/>
     <use xlink:href="#DejaVuSans-29" transform="translate(153.173828 0.125)"/>
    </g>
   </g>
  </g>
  <g id="axes_2">
   <g id="patch_7">
    <path d="M 324 388.8 
L 432 388.8 
L 432 324 
L 324 324 
z
" style="fill: #ffffff"/>
   </g>
   <g id="matplotlib.axis_3">
    <g id="xtick_4">
     <g id="line2d_9">
      <g>
       <use xlink:href="#m18c07c9412" x="328.909091" y="388.8" style="stroke: #000000; stroke-width: 0.8"/>
      </g>
     </g>
     <g id="text_8">
      <!-- 1.0 -->
      <g transform="translate(320.957528 403.398438) scale(0.1 -0.1)">
       <use xlink:href="#DejaVuSans-31"/>
       <use xlink:href="#DejaVuSans-2e" x="63.623047"/>
       <use xlink:href="#DejaVuSans-30" x="95.410156"/>
      </g>
     </g>
    </g>
    <g id="xtick_5">
     <g id="line2d_10">
      <g>
       <use xlink:href="#m18c07c9412" x="378" y="388.8" style="stroke: #000000; stroke-width: 0.8"/>
      </g>
     </g>
     <g id="text_9">
      <!-- 1.5 -->
      <g transform="translate(370.048437 403.398438) scale(0.1 -0.1)">
       <use xlink:href="#DejaVuSans-31"/>
       <use xlink:href="#DejaVuSans-2e" x="63.623047"/>
       <use xlink:href="#DejaVuSans-35" x="95.410156"/>
      </g>
     </g>
    </g>
    <g id="xtick_6">
     <g id="line2d_11">
      <g>
       <use xlink:href="#m18c07c9412" x="427.090909" y="388.8" style="stroke: #000000; stroke-width: 0.8"/>
      </g>
     </g>
     <g id="text_10">
      <!-- 2.0 -->
      <g transform="translate(419.139347 403.398438) scale(0.1 -0.1)">
       <use xlink:href="#DejaVuSans-32"/>
       <use xlink:href="#DejaVuSans-2e" x="63.623047"/>
       <use xlink:href="#DejaVuSans-30" x="95.410156"/>
      </g>
     </g>
    </g>
    <g id="text_11">
     <!-- $x$ -->
     <g transform="translate(374.4 418.59625) scale(0.12 -0.12)">
      <use xlink:href="#DejaVuSans-Oblique-78" transform="translate(0 0.3125)"/>
     </g>
    </g>
   </g>
   <g id="matplotlib.axis_4">
    <g id="ytick_3">
     <g id="line2d_12">
      <g>
       <use xlink:href="#mbf8624b586" x="324" y="385.854545" style="stroke: #000000; stroke-width: 0.8"/>
      </g>
     </g>
     <g id="text_12">
      <!-- 0.0 -->
      <g transform="translate(301.096875 389.653764) scale(0.1 -0.1)">
       <use xlink:href="#DejaVuSans-30"/>
       <use xlink:href="#DejaVuSans-2e" x="63.623047"/>
       <use xlink:href="#DejaVuSans-30" x="95.410156"/>
      </g>
     </g>
    </g>
    <g id="ytick_4">
     <g id="line2d_13">
      <g>
       <use xlink:href="#mbf8624b586" x="324" y="356.4" style="stroke: #000000; stroke-width: 0.8"/>
      </g>
     </g>
     <g id="text_13">
      <!-- 0.5 -->
      <g transform="translate(301.096875 360.199219) scale(0.1 -0.1)">
       <use xlink:href="#DejaVuSans-30"/>
       <use xlink:href="#DejaVuSans-2e" x="63.623047"/>
       <use xlink:href="#DejaVuSans-35" x="95.410156"/>
      </g>
     </g>
    </g>
    <g id="ytick_5">
     <g id="line2d_14">
      <g>
       <use xlink:href="#mbf8624b586" x="324" y="326.945455" style="stroke: #000000; stroke-width: 0.8"/>
      </g>
     </g>
     <g id="text_14">
      <!-- 1.0 -->
      <g transform="translate(301.096875 330.744673) scale(0.1 -0.1)">
       <use xlink:href="#DejaVuSans-31"/>
       <use xlink:href="#DejaVuSans-2e" x="63.623047"/>
       <use xlink:href="#DejaVuSans-30" x="95.410156"/>
      </g>
     </g>
    </g>
   </g>
   <g id="line2d_15">
    <path d="M 328.909091 329.81054 
L 329.892877 328.492 
L 330.679905 327.719681 
L 331.466934 327.237354 
L 332.253962 327.014665 
L 333.631263 326.946014 
L 341.895063 327.03081 
L 343.075606 327.27574 
L 344.452906 327.807177 
L 346.617234 328.948147 
L 348.97832 330.117894 
L 350.35562 330.579277 
L 351.536163 330.777666 
L 352.716706 330.751437 
L 353.700492 330.52945 
L 354.684278 330.105119 
L 355.864821 329.326744 
L 358.619421 327.271308 
L 359.406449 327.074711 
L 360.193478 327.079086 
L 360.586992 327.197619 
L 360.980506 327.531618 
L 361.374021 328.280029 
L 361.767535 329.593429 
L 362.357807 332.519268 
L 364.522135 344.456322 
L 365.505921 348.316759 
L 366.489707 351.280769 
L 367.473492 353.602996 
L 368.654035 355.81122 
L 370.031335 357.868104 
L 371.605393 359.805588 
L 373.966478 362.305545 
L 378.295136 366.819778 
L 380.262707 369.248044 
L 381.836764 371.521773 
L 383.410822 374.1787 
L 385.181636 377.663424 
L 388.132993 383.718097 
L 388.920022 384.848704 
L 389.510293 385.405616 
L 390.100565 385.710188 
L 390.887593 385.840934 
L 394.035708 385.854545 
L 424.729823 385.752279 
L 426.30388 385.458637 
L 427.090909 385.207859 
L 427.090909 385.207859 
" clip-path="url(#pbb8fb321f5)" style="fill: none; stroke: #000000; stroke-opacity: 0.5; stroke-width: 1.5; stroke-linecap: square"/>
   </g>
   <g id="patch_8">
    <path d="M 324 388.8 
L 324 324 
" style="fill: none; stroke: #000000; stroke-width: 0.8; stroke-linejoin: miter; stroke-linecap: square"/>
   </g>
   <g id="patch_9">
    <path d="M 432 388.8 
L 432 324 
" style="fill: none; stroke: #000000; stroke-width: 0.8; stroke-linejoin: miter; stroke-linecap: square"/>
   </g>
   <g id="patch_10">
    <path d="M 324 388.8 
L 432 388.8 
" style="fill: none; stroke: #000000; stroke-width: 0.8; stroke-linejoin: miter; stroke-linecap: square"/>
   </g>
   <g id="patch_11">
    <path d="M 324 324 
L 432 324 
" style="fill: none; stroke: #000000; stroke-width: 0.8; stroke-linejoin: miter; stroke-linecap: square"/>
   </g>
   <g id="patch_12">
    <path d="M 261.197314 356.4 
Q 275.398471 356.4 287.922577 356.4 
" style="fill: none; stroke: #000000; stroke-width: 1.5; stroke-linecap: round"/>
    <path d="M 283.922577 354.4 
L 287.922577 356.4 
L 283.922577 358.4 
" style="fill: none; stroke: #000000; stroke-width: 1.5; stroke-linecap: round"/>
   </g>
   <g id="text_15">
    <!-- $Pr(c(x) \leq 2)$ -->
    <g transform="translate(344.46 318) scale(0.12 -0.12)">
     <defs>
      <path id="DejaVuSans-Oblique-50" d="M 1081 4666 
L 2541 4666 
Q 3178 4666 3512 4369 
Q 3847 4072 3847 3500 
Q 3847 2731 3353 2303 
Q 2859 1875 1966 1875 
L 1172 1875 
L 806 0 
L 172 0 
L 1081 4666 
z
M 1613 4147 
L 1275 2394 
L 2069 2394 
Q 2606 2394 2893 2669 
Q 3181 2944 3181 3456 
Q 3181 3784 2986 3965 
Q 2791 4147 2438 4147 
L 1613 4147 
z
" transform="scale(0.015625)"/>
      <path id="DejaVuSans-Oblique-72" d="M 2853 2969 
Q 2766 3016 2653 3041 
Q 2541 3066 2413 3066 
Q 1953 3066 1609 2717 
Q 1266 2369 1153 1784 
L 800 0 
L 225 0 
L 909 3500 
L 1484 3500 
L 1375 2956 
Q 1603 3259 1920 3421 
Q 2238 3584 2597 3584 
Q 2691 3584 2781 3573 
Q 2872 3563 2963 3538 
L 2853 2969 
z
" transform="scale(0.015625)"/>
      <path id="DejaVuSans-2264" d="M 4684 3175 
L 1684 2309 
L 4684 1453 
L 4684 897 
L 678 2047 
L 678 2578 
L 4684 3725 
L 4684 3175 
z
M 678 531 
L 4684 531 
L 4684 0 
L 678 0 
L 678 531 
z
" transform="scale(0.015625)"/>
     </defs>
     <use xlink:href="#DejaVuSans-Oblique-50" transform="translate(0 0.125)"/>
     <use xlink:href="#DejaVuSans-Oblique-72" transform="translate(60.302734 0.125)"/>
     <use xlink:href="#DejaVuSans-28" transform="translate(101.416016 0.125)"/>
     <use xlink:href="#DejaVuSans-Oblique-63" transform="translate(140.429688 0.125)"/>
     <use xlink:href="#DejaVuSans-28" transform="translate(195.410156 0.125)"/>
     <use xlink:href="#DejaVuSans-Oblique-78" transform="translate(234.423828 0.125)"/>
     <use xlink:href="#DejaVuSans-29" transform="translate(293.603516 0.125)"/>
     <use xlink:href="#DejaVuSans-2264" transform="translate(352.099609 0.125)"/>
     <use xlink:href="#DejaVuSans-32" transform="translate(455.371094 0.125)"/>
     <use xlink:href="#DejaVuSans-29" transform="translate(518.994141 0.125)"/>
    </g>
   </g>
  </g>
  <g id="axes_3">
   <g id="patch_13">
    <path d="M 144 259.2 
L 252 259.2 
L 252 194.4 
L 144 194.4 
z
" style="fill: #ffffff"/>
   </g>
   <g id="PolyCollection_2">
    <defs>
     <path id="mc2a5e61b01" d="M 148.909091 -233.154421 
L 148.909091 -217.095305 
L 149.105848 -217.390556 
L 149.302605 -217.68518 
L 149.499362 -217.979053 
L 149.69612 -218.27205 
L 149.892877 -218.56404 
L 150.089634 -218.854885 
L 150.286391 -219.144443 
L 150.483148 -219.432565 
L 150.679905 -219.719097 
L 150.876662 -220.003876 
L 151.07342 -220.286732 
L 151.270177 -220.567486 
L 151.466934 -220.845949 
L 151.663691 -221.12192 
L 151.860448 -221.395186 
L 152.057205 -221.665519 
L 152.253962 -221.932674 
L 152.45072 -222.196388 
L 152.647477 -222.456372 
L 152.844234 -222.712311 
L 153.040991 -222.963858 
L 153.237748 -223.210626 
L 153.434505 -223.45218 
L 153.631263 -223.688028 
L 153.82802 -223.917609 
L 154.024777 -224.140276 
L 154.221534 -224.355275 
L 154.418291 -224.561727 
L 154.615048 -224.758597 
L 154.811805 -224.944661 
L 155.008563 -225.118479 
L 155.20532 -225.278359 
L 155.402077 -225.422345 
L 155.598834 -225.548225 
L 155.795591 -225.653587 
L 155.992348 -225.735951 
L 156.189105 -225.792985 
L 156.385863 -225.822791 
L 156.58262 -225.82421 
L 156.779377 -225.797045 
L 156.976134 -225.742124 
L 157.172891 -225.661163 
L 157.369648 -225.556497 
L 157.566406 -225.430761 
L 157.763163 -225.286623 
L 157.95992 -225.126595 
L 158.156677 -224.952935 
L 158.353434 -224.76761 
L 158.550191 -224.572303 
L 158.746948 -224.368441 
L 158.943706 -224.157229 
L 159.140463 -223.939687 
L 159.33722 -223.71668 
L 159.533977 -223.48895 
L 159.730734 -223.257135 
L 159.927491 -223.021789 
L 160.124248 -222.783401 
L 160.321006 -222.542401 
L 160.517763 -222.299177 
L 160.71452 -222.054076 
L 160.911277 -221.807415 
L 161.108034 -221.559485 
L 161.304791 -221.310554 
L 161.501549 -221.060871 
L 161.698306 -220.81067 
L 161.895063 -220.560168 
L 162.09182 -220.309573 
L 162.288577 -220.059081 
L 162.485334 -219.808879 
L 162.682091 -219.559144 
L 162.878849 -219.310046 
L 163.075606 -219.06175 
L 163.272363 -218.814411 
L 163.46912 -218.568181 
L 163.665877 -218.323207 
L 163.862634 -218.079627 
L 164.059392 -217.837579 
L 164.256149 -217.597194 
L 164.452906 -217.358599 
L 164.649663 -217.121916 
L 164.84642 -216.887266 
L 165.043177 -216.654763 
L 165.239934 -216.424519 
L 165.436692 -216.196642 
L 165.633449 -215.971237 
L 165.830206 -215.748406 
L 166.026963 -215.528246 
L 166.22372 -215.310852 
L 166.420477 -215.096317 
L 166.617234 -214.884728 
L 166.813992 -214.676171 
L 167.010749 -214.470729 
L 167.207506 -214.26848 
L 167.404263 -214.069502 
L 167.60102 -213.873867 
L 167.797777 -213.681647 
L 167.994535 -213.492908 
L 168.191292 -213.307715 
L 168.388049 -213.126131 
L 168.584806 -212.948212 
L 168.781563 -212.774015 
L 168.97832 -212.603594 
L 169.175077 -212.436996 
L 169.371835 -212.27427 
L 169.568592 -212.115458 
L 169.765349 -211.960602 
L 169.962106 -211.809739 
L 170.158863 -211.662903 
L 170.35562 -211.520125 
L 170.552377 -211.381435 
L 170.749135 -211.246855 
L 170.945892 -211.116408 
L 171.142649 -210.990112 
L 171.339406 -210.867981 
L 171.536163 -210.750026 
L 171.73292 -210.636253 
L 171.929678 -210.526668 
L 172.126435 -210.421268 
L 172.323192 -210.320049 
L 172.519949 -210.223002 
L 172.716706 -210.130113 
L 172.913463 -210.041365 
L 173.11022 -209.956734 
L 173.306978 -209.876191 
L 173.503735 -209.799704 
L 173.700492 -209.72723 
L 173.897249 -209.658725 
L 174.094006 -209.594135 
L 174.290763 -209.533399 
L 174.48752 -209.476449 
L 174.684278 -209.423205 
L 174.881035 -209.37358 
L 175.077792 -209.327474 
L 175.274549 -209.284776 
L 175.471306 -209.24536 
L 175.668063 -209.209084 
L 175.864821 -209.175786 
L 176.061578 -209.145285 
L 176.258335 -209.117373 
L 176.455092 -209.091814 
L 176.651849 -209.068337 
L 176.848606 -209.046629 
L 177.045363 -209.026329 
L 177.242121 -209.007016 
L 177.438878 -208.988196 
L 177.635635 -208.969291 
L 177.832392 -208.949613 
L 178.029149 -208.928349 
L 178.225906 -208.904532 
L 178.422664 -208.877007 
L 178.619421 -208.844406 
L 178.816178 -208.805118 
L 179.012935 -208.757268 
L 179.209692 -208.698728 
L 179.406449 -208.627165 
L 179.603206 -208.540149 
L 179.799964 -208.435347 
L 179.996721 -208.310768 
L 180.193478 -208.165042 
L 180.390235 -207.997636 
L 180.586992 -207.808936 
L 180.783749 -207.600166 
L 180.980506 -207.373171 
L 181.177264 -207.130149 
L 181.374021 -206.873403 
L 181.570778 -206.605158 
L 181.767535 -206.32745 
L 181.964292 -206.042076 
L 182.161049 -205.750589 
L 182.357807 -205.454309 
L 182.554564 -205.154352 
L 182.751321 -204.851659 
L 182.948078 -204.547023 
L 183.144835 -204.241114 
L 183.341592 -203.934502 
L 183.538349 -203.627671 
L 183.735107 -203.321039 
L 183.931864 -203.014964 
L 184.128621 -202.709761 
L 184.325378 -202.4057 
L 184.522135 -202.103021 
L 184.718892 -201.801937 
L 184.915649 -201.502634 
L 185.112407 -201.20528 
L 185.309164 -200.910024 
L 185.505921 -200.617002 
L 185.702678 -200.326335 
L 185.899435 -200.038131 
L 186.096192 -199.752491 
L 186.29295 -199.469506 
L 186.489707 -199.189256 
L 186.686464 -198.911818 
L 186.883221 -198.63726 
L 187.079978 -198.365645 
L 187.276735 -198.097029 
L 187.473492 -197.831465 
L 187.67025 -197.569001 
L 187.867007 -197.30968 
L 188.063764 -197.053543 
L 188.260521 -196.800626 
L 188.457278 -196.550962 
L 188.654035 -196.304581 
L 188.850792 -196.06151 
L 189.04755 -195.821775 
L 189.244307 -195.585397 
L 189.441064 -195.352397 
L 189.637821 -195.122793 
L 189.834578 -194.896599 
L 190.031335 -194.673831 
L 190.228093 -194.454501 
L 190.42485 -194.238619 
L 190.621607 -194.026194 
L 190.818364 -193.817234 
L 191.015121 -193.611746 
L 191.211878 -193.409733 
L 191.408635 -193.211201 
L 191.605393 -193.01615 
L 191.80215 -192.824584 
L 191.998907 -192.636503 
L 192.195664 -192.451905 
L 192.392421 -192.270791 
L 192.589178 -192.093157 
L 192.785936 -191.919002 
L 192.982693 -191.748321 
L 193.17945 -191.58111 
L 193.376207 -191.417364 
L 193.572964 -191.257078 
L 193.769721 -191.100246 
L 193.966478 -190.946861 
L 194.163236 -190.796915 
L 194.359993 -190.650403 
L 194.55675 -190.507314 
L 194.753507 -190.367642 
L 194.950264 -190.231377 
L 195.147021 -190.098511 
L 195.343778 -189.969033 
L 195.540536 -189.842935 
L 195.737293 -189.720206 
L 195.93405 -189.600836 
L 196.130807 -189.484814 
L 196.327564 -189.372129 
L 196.524321 -189.262772 
L 196.721079 -189.156729 
L 196.917836 -189.053991 
L 197.114593 -188.954545 
L 197.31135 -188.858379 
L 197.508107 -188.765482 
L 197.704864 -188.675841 
L 197.901621 -188.589443 
L 198.098379 -188.506277 
L 198.295136 -188.426328 
L 198.491893 -188.349585 
L 198.68865 -188.276034 
L 198.885407 -188.205661 
L 199.082164 -188.138453 
L 199.278921 -188.074395 
L 199.475679 -188.013474 
L 199.672436 -187.955675 
L 199.869193 -187.900983 
L 200.06595 -187.849383 
L 200.262707 -187.800859 
L 200.459464 -187.755397 
L 200.656222 -187.712979 
L 200.852979 -187.673589 
L 201.049736 -187.637211 
L 201.246493 -187.603826 
L 201.44325 -187.573417 
L 201.640007 -187.545965 
L 201.836764 -187.521451 
L 202.033522 -187.499856 
L 202.230279 -187.481158 
L 202.427036 -187.465338 
L 202.623793 -187.452373 
L 202.82055 -187.442241 
L 203.017307 -187.434918 
L 203.214064 -187.430379 
L 203.410822 -187.4286 
L 203.607579 -187.429554 
L 203.804336 -187.433214 
L 204.001093 -187.43955 
L 204.19785 -187.448532 
L 204.394607 -187.46013 
L 204.591365 -187.47431 
L 204.788122 -187.491037 
L 204.984879 -187.510276 
L 205.181636 -187.531988 
L 205.378393 -187.556134 
L 205.57515 -187.582671 
L 205.771907 -187.611556 
L 205.968665 -187.64274 
L 206.165422 -187.676175 
L 206.362179 -187.711809 
L 206.558936 -187.749586 
L 206.755693 -187.789447 
L 206.95245 -187.831331 
L 207.149208 -187.87517 
L 207.345965 -187.920895 
L 207.542722 -187.96843 
L 207.739479 -188.017694 
L 207.936236 -188.0686 
L 208.132993 -188.121055 
L 208.32975 -188.174959 
L 208.526508 -188.230203 
L 208.723265 -188.28667 
L 208.920022 -188.344231 
L 209.116779 -188.402746 
L 209.313536 -188.462061 
L 209.510293 -188.522006 
L 209.70705 -188.582394 
L 209.903808 -188.643015 
L 210.100565 -188.703635 
L 210.297322 -188.76399 
L 210.494079 -188.82378 
L 210.690836 -188.882666 
L 210.887593 -188.940256 
L 211.084351 -188.996099 
L 211.281108 -189.04967 
L 211.477865 -189.100357 
L 211.674622 -189.147442 
L 211.871379 -189.19008 
L 212.068136 -189.227273 
L 212.264893 -189.257847 
L 212.461651 -189.280427 
L 212.658408 -189.293419 
L 212.855165 -189.295008 
L 213.051922 -189.283191 
L 213.248679 -189.255846 
L 213.445436 -189.210871 
L 213.642193 -189.146383 
L 213.838951 -189.060957 
L 214.035708 -188.953849 
L 214.232465 -188.825139 
L 214.429222 -188.675735 
L 214.625979 -188.507233 
L 214.822736 -188.321699 
L 215.019494 -188.121414 
L 215.216251 -187.908675 
L 215.413008 -187.685646 
L 215.609765 -187.454281 
L 215.806522 -187.216296 
L 216.003279 -186.973167 
L 216.200036 -186.726153 
L 216.396794 -186.476324 
L 216.593551 -186.224585 
L 216.790308 -185.971703 
L 216.987065 -185.718335 
L 217.183822 -185.465041 
L 217.380579 -185.212306 
L 217.577336 -184.960549 
L 217.774094 -184.710139 
L 217.970851 -184.461397 
L 218.167608 -184.214611 
L 218.364365 -183.970036 
L 218.561122 -183.727902 
L 218.757879 -183.488417 
L 218.954637 -183.251768 
L 219.151394 -183.01813 
L 219.348151 -182.787659 
L 219.544908 -182.560504 
L 219.741665 -182.3368 
L 219.938422 -182.116673 
L 220.135179 -181.900242 
L 220.331937 -181.687619 
L 220.528694 -181.478907 
L 220.725451 -181.274206 
L 220.922208 -181.07361 
L 221.118965 -180.877207 
L 221.315722 -180.685082 
L 221.51248 -180.497316 
L 221.709237 -180.313987 
L 221.905994 -180.135166 
L 222.102751 -179.960927 
L 222.299508 -179.791335 
L 222.496265 -179.626458 
L 222.693022 -179.466357 
L 222.88978 -179.311093 
L 223.086537 -179.160724 
L 223.283294 -179.015307 
L 223.480051 -178.874895 
L 223.676808 -178.739541 
L 223.873565 -178.609296 
L 224.070322 -178.484208 
L 224.26708 -178.364324 
L 224.463837 -178.249689 
L 224.660594 -178.140347 
L 224.857351 -178.03634 
L 225.054108 -177.937709 
L 225.250865 -177.844491 
L 225.447623 -177.756724 
L 225.64438 -177.674444 
L 225.841137 -177.597685 
L 226.037894 -177.526477 
L 226.234651 -177.460851 
L 226.431408 -177.400837 
L 226.628165 -177.346459 
L 226.824923 -177.297743 
L 227.02168 -177.25471 
L 227.218437 -177.217381 
L 227.415194 -177.185774 
L 227.611951 -177.159903 
L 227.808708 -177.139781 
L 228.005465 -177.125418 
L 228.202223 -177.11682 
L 228.39898 -177.113991 
L 228.595737 -177.11693 
L 228.792494 -177.125632 
L 228.989251 -177.14009 
L 229.186008 -177.16029 
L 229.382766 -177.186212 
L 229.579523 -177.217834 
L 229.77628 -177.255123 
L 229.973037 -177.298043 
L 230.169794 -177.346548 
L 230.366551 -177.400582 
L 230.563308 -177.460082 
L 230.760066 -177.524971 
L 230.956823 -177.595158 
L 231.15358 -177.670541 
L 231.350337 -177.750995 
L 231.547094 -177.836379 
L 231.743851 -177.926527 
L 231.940608 -178.021243 
L 232.137366 -178.120299 
L 232.334123 -178.223429 
L 232.53088 -178.330317 
L 232.727637 -178.44059 
L 232.924394 -178.553807 
L 233.121151 -178.669442 
L 233.317909 -178.786867 
L 233.514666 -178.905328 
L 233.711423 -179.023922 
L 233.90818 -179.141566 
L 234.104937 -179.256962 
L 234.301694 -179.368568 
L 234.498451 -179.474571 
L 234.695209 -179.572889 
L 234.891966 -179.661195 
L 235.088723 -179.737015 
L 235.28548 -179.797889 
L 235.482237 -179.841612 
L 235.678994 -179.866518 
L 235.875752 -179.871722 
L 236.072509 -179.857262 
L 236.269266 -179.82406 
L 236.466023 -179.77374 
L 236.66278 -179.708367 
L 236.859537 -179.630179 
L 237.056294 -179.541388 
L 237.253052 -179.44404 
L 237.449809 -179.339957 
L 237.646566 -179.23071 
L 237.843323 -179.117639 
L 238.04008 -179.001867 
L 238.236837 -178.884334 
L 238.433594 -178.765826 
L 238.630352 -178.646997 
L 238.827109 -178.528393 
L 239.023866 -178.410474 
L 239.220623 -178.293624 
L 239.41738 -178.178167 
L 239.614137 -178.064376 
L 239.810895 -177.952484 
L 240.007652 -177.842685 
L 240.204409 -177.735147 
L 240.401166 -177.630009 
L 240.597923 -177.52739 
L 240.79468 -177.427391 
L 240.991437 -177.330097 
L 241.188195 -177.235577 
L 241.384952 -177.143889 
L 241.581709 -177.055081 
L 241.778466 -176.96919 
L 241.975223 -176.886247 
L 242.17198 -176.806272 
L 242.368737 -176.729282 
L 242.565495 -176.655286 
L 242.762252 -176.584287 
L 242.959009 -176.516286 
L 243.155766 -176.451275 
L 243.352523 -176.389247 
L 243.54928 -176.330189 
L 243.746038 -176.274084 
L 243.942795 -176.220913 
L 244.139552 -176.170655 
L 244.336309 -176.123285 
L 244.533066 -176.078777 
L 244.729823 -176.037102 
L 244.92658 -175.99823 
L 245.123338 -175.962128 
L 245.320095 -175.928762 
L 245.516852 -175.898099 
L 245.713609 -175.8701 
L 245.910366 -175.844729 
L 246.107123 -175.821946 
L 246.30388 -175.801713 
L 246.500638 -175.783989 
L 246.697395 -175.768733 
L 246.894152 -175.755902 
L 247.090909 -175.745455 
L 247.090909 -197.493475 
L 247.090909 -197.493475 
L 246.894152 -197.228313 
L 246.697395 -196.961747 
L 246.500638 -196.693822 
L 246.30388 -196.424588 
L 246.107123 -196.154096 
L 245.910366 -195.882401 
L 245.713609 -195.609557 
L 245.516852 -195.335624 
L 245.320095 -195.060663 
L 245.123338 -194.784738 
L 244.92658 -194.507914 
L 244.729823 -194.230262 
L 244.533066 -193.951852 
L 244.336309 -193.672762 
L 244.139552 -193.393068 
L 243.942795 -193.112852 
L 243.746038 -192.832199 
L 243.54928 -192.551198 
L 243.352523 -192.269941 
L 243.155766 -191.988524 
L 242.959009 -191.707047 
L 242.762252 -191.425615 
L 242.565495 -191.144337 
L 242.368737 -190.863328 
L 242.17198 -190.582707 
L 241.975223 -190.302599 
L 241.778466 -190.023136 
L 241.581709 -189.744456 
L 241.384952 -189.466706 
L 241.188195 -189.19004 
L 240.991437 -188.91462 
L 240.79468 -188.640621 
L 240.597923 -188.368228 
L 240.401166 -188.09764 
L 240.204409 -187.82907 
L 240.007652 -187.562749 
L 239.810895 -187.29893 
L 239.614137 -187.037888 
L 239.41738 -186.779926 
L 239.220623 -186.525382 
L 239.023866 -186.274632 
L 238.827109 -186.028103 
L 238.630352 -185.786276 
L 238.433594 -185.549706 
L 238.236837 -185.319032 
L 238.04008 -185.094997 
L 237.843323 -184.878469 
L 237.646566 -184.670471 
L 237.449809 -184.4722 
L 237.253052 -184.285066 
L 237.056294 -184.110707 
L 236.859537 -183.951003 
L 236.66278 -183.808054 
L 236.466023 -183.684116 
L 236.269266 -183.58147 
L 236.072509 -183.502209 
L 235.875752 -183.447983 
L 235.678994 -183.419729 
L 235.482237 -183.417488 
L 235.28548 -183.440374 
L 235.088723 -183.486707 
L 234.891966 -183.554261 
L 234.695209 -183.640547 
L 234.498451 -183.743056 
L 234.301694 -183.859417 
L 234.104937 -183.987497 
L 233.90818 -184.12543 
L 233.711423 -184.271612 
L 233.514666 -184.424679 
L 233.317909 -184.583476 
L 233.121151 -184.747024 
L 232.924394 -184.914493 
L 232.727637 -185.085169 
L 232.53088 -185.25844 
L 232.334123 -185.433776 
L 232.137366 -185.610711 
L 231.940608 -185.788836 
L 231.743851 -185.967786 
L 231.547094 -186.147234 
L 231.350337 -186.326886 
L 231.15358 -186.506471 
L 230.956823 -186.685745 
L 230.760066 -186.86448 
L 230.563308 -187.042466 
L 230.366551 -187.219509 
L 230.169794 -187.395424 
L 229.973037 -187.570041 
L 229.77628 -187.743198 
L 229.579523 -187.914742 
L 229.382766 -188.084528 
L 229.186008 -188.252419 
L 228.989251 -188.418286 
L 228.792494 -188.582002 
L 228.595737 -188.743451 
L 228.39898 -188.90252 
L 228.202223 -189.0591 
L 228.005465 -189.21309 
L 227.808708 -189.36439 
L 227.611951 -189.512907 
L 227.415194 -189.658553 
L 227.218437 -189.801241 
L 227.02168 -189.94089 
L 226.824923 -190.077424 
L 226.628165 -190.210769 
L 226.431408 -190.340855 
L 226.234651 -190.467616 
L 226.037894 -190.590991 
L 225.841137 -190.710919 
L 225.64438 -190.827347 
L 225.447623 -190.940222 
L 225.250865 -191.049496 
L 225.054108 -191.155125 
L 224.857351 -191.257068 
L 224.660594 -191.355286 
L 224.463837 -191.449746 
L 224.26708 -191.540417 
L 224.070322 -191.627272 
L 223.873565 -191.710287 
L 223.676808 -191.789442 
L 223.480051 -191.864722 
L 223.283294 -191.936113 
L 223.086537 -192.003606 
L 222.88978 -192.067196 
L 222.693022 -192.126882 
L 222.496265 -192.182667 
L 222.299508 -192.234558 
L 222.102751 -192.282565 
L 221.905994 -192.326704 
L 221.709237 -192.366995 
L 221.51248 -192.403462 
L 221.315722 -192.436134 
L 221.118965 -192.465047 
L 220.922208 -192.490239 
L 220.725451 -192.511756 
L 220.528694 -192.529649 
L 220.331937 -192.543977 
L 220.135179 -192.554804 
L 219.938422 -192.562202 
L 219.741665 -192.566252 
L 219.544908 -192.567041 
L 219.348151 -192.56467 
L 219.151394 -192.559247 
L 218.954637 -192.550893 
L 218.757879 -192.539744 
L 218.561122 -192.52595 
L 218.364365 -192.509678 
L 218.167608 -192.491116 
L 217.970851 -192.470475 
L 217.774094 -192.447993 
L 217.577336 -192.42394 
L 217.380579 -192.398623 
L 217.183822 -192.372395 
L 216.987065 -192.345663 
L 216.790308 -192.318898 
L 216.593551 -192.292648 
L 216.396794 -192.267558 
L 216.200036 -192.244385 
L 216.003279 -192.224025 
L 215.806522 -192.207535 
L 215.609765 -192.196167 
L 215.413008 -192.191388 
L 215.216251 -192.194905 
L 215.019494 -192.208662 
L 214.822736 -192.234817 
L 214.625979 -192.275655 
L 214.429222 -192.333451 
L 214.232465 -192.41026 
L 214.035708 -192.507671 
L 213.838951 -192.62658 
L 213.642193 -192.767058 
L 213.445436 -192.928351 
L 213.248679 -193.10902 
L 213.051922 -193.307172 
L 212.855165 -193.520693 
L 212.658408 -193.747449 
L 212.461651 -193.985423 
L 212.264893 -194.232789 
L 212.068136 -194.48794 
L 211.871379 -194.749486 
L 211.674622 -195.016242 
L 211.477865 -195.287198 
L 211.281108 -195.561494 
L 211.084351 -195.838401 
L 210.887593 -196.117292 
L 210.690836 -196.397633 
L 210.494079 -196.678958 
L 210.297322 -196.960865 
L 210.100565 -197.243002 
L 209.903808 -197.525058 
L 209.70705 -197.806758 
L 209.510293 -198.087858 
L 209.313536 -198.368137 
L 209.116779 -198.647398 
L 208.920022 -198.925462 
L 208.723265 -199.202166 
L 208.526508 -199.477361 
L 208.32975 -199.75091 
L 208.132993 -200.022689 
L 207.936236 -200.29258 
L 207.739479 -200.560478 
L 207.542722 -200.826283 
L 207.345965 -201.089903 
L 207.149208 -201.351252 
L 206.95245 -201.610249 
L 206.755693 -201.866821 
L 206.558936 -202.120897 
L 206.362179 -202.372413 
L 206.165422 -202.621306 
L 205.968665 -202.867521 
L 205.771907 -203.111004 
L 205.57515 -203.351705 
L 205.378393 -203.589577 
L 205.181636 -203.824576 
L 204.984879 -204.056662 
L 204.788122 -204.285796 
L 204.591365 -204.511943 
L 204.394607 -204.735069 
L 204.19785 -204.955143 
L 204.001093 -205.172137 
L 203.804336 -205.386024 
L 203.607579 -205.596778 
L 203.410822 -205.804378 
L 203.214064 -206.008802 
L 203.017307 -206.210031 
L 202.82055 -206.408046 
L 202.623793 -206.602832 
L 202.427036 -206.794374 
L 202.230279 -206.982659 
L 202.033522 -207.167674 
L 201.836764 -207.34941 
L 201.640007 -207.527856 
L 201.44325 -207.703004 
L 201.246493 -207.874848 
L 201.049736 -208.043382 
L 200.852979 -208.208601 
L 200.656222 -208.370501 
L 200.459464 -208.529079 
L 200.262707 -208.684333 
L 200.06595 -208.836263 
L 199.869193 -208.984868 
L 199.672436 -209.13015 
L 199.475679 -209.272109 
L 199.278921 -209.410749 
L 199.082164 -209.546073 
L 198.885407 -209.678083 
L 198.68865 -209.806786 
L 198.491893 -209.932187 
L 198.295136 -210.054291 
L 198.098379 -210.173106 
L 197.901621 -210.288639 
L 197.704864 -210.400897 
L 197.508107 -210.509891 
L 197.31135 -210.615628 
L 197.114593 -210.718119 
L 196.917836 -210.817375 
L 196.721079 -210.913407 
L 196.524321 -211.006226 
L 196.327564 -211.095845 
L 196.130807 -211.182277 
L 195.93405 -211.265535 
L 195.737293 -211.345634 
L 195.540536 -211.422588 
L 195.343778 -211.496413 
L 195.147021 -211.567125 
L 194.950264 -211.63474 
L 194.753507 -211.699276 
L 194.55675 -211.760751 
L 194.359993 -211.819182 
L 194.163236 -211.87459 
L 193.966478 -211.926994 
L 193.769721 -211.976415 
L 193.572964 -212.022875 
L 193.376207 -212.066395 
L 193.17945 -212.106999 
L 192.982693 -212.14471 
L 192.785936 -212.179553 
L 192.589178 -212.211552 
L 192.392421 -212.240736 
L 192.195664 -212.26713 
L 191.998907 -212.290763 
L 191.80215 -212.311665 
L 191.605393 -212.329865 
L 191.408635 -212.345396 
L 191.211878 -212.358288 
L 191.015121 -212.368578 
L 190.818364 -212.376298 
L 190.621607 -212.381486 
L 190.42485 -212.38418 
L 190.228093 -212.384418 
L 190.031335 -212.382241 
L 189.834578 -212.377692 
L 189.637821 -212.370814 
L 189.441064 -212.361653 
L 189.244307 -212.350257 
L 189.04755 -212.336675 
L 188.850792 -212.320959 
L 188.654035 -212.303164 
L 188.457278 -212.283344 
L 188.260521 -212.261559 
L 188.063764 -212.237871 
L 187.867007 -212.212344 
L 187.67025 -212.185045 
L 187.473492 -212.156046 
L 187.276735 -212.12542 
L 187.079978 -212.093246 
L 186.883221 -212.059606 
L 186.686464 -212.024589 
L 186.489707 -211.988285 
L 186.29295 -211.950793 
L 186.096192 -211.912216 
L 185.899435 -211.872667 
L 185.702678 -211.832262 
L 185.505921 -211.791131 
L 185.309164 -211.749409 
L 185.112407 -211.707245 
L 184.915649 -211.664799 
L 184.718892 -211.622247 
L 184.522135 -211.579781 
L 184.325378 -211.537614 
L 184.128621 -211.495979 
L 183.931864 -211.455141 
L 183.735107 -211.415394 
L 183.538349 -211.377071 
L 183.341592 -211.340553 
L 183.144835 -211.306276 
L 182.948078 -211.274744 
L 182.751321 -211.246543 
L 182.554564 -211.222361 
L 182.357807 -211.203006 
L 182.161049 -211.189433 
L 181.964292 -211.182771 
L 181.767535 -211.184353 
L 181.570778 -211.195741 
L 181.374021 -211.218741 
L 181.177264 -211.255398 
L 180.980506 -211.307941 
L 180.783749 -211.378678 
L 180.586992 -211.46981 
L 180.390235 -211.583184 
L 180.193478 -211.720022 
L 179.996721 -211.880707 
L 179.799964 -212.0647 
L 179.603206 -212.270626 
L 179.406449 -212.496485 
L 179.209692 -212.739932 
L 179.012935 -212.998527 
L 178.816178 -213.26992 
L 178.619421 -213.551967 
L 178.422664 -213.842777 
L 178.225906 -214.140717 
L 178.029149 -214.444396 
L 177.832392 -214.75264 
L 177.635635 -215.064454 
L 177.438878 -215.378997 
L 177.242121 -215.695554 
L 177.045363 -216.013515 
L 176.848606 -216.332356 
L 176.651849 -216.65162 
L 176.455092 -216.970911 
L 176.258335 -217.289878 
L 176.061578 -217.608212 
L 175.864821 -217.925634 
L 175.668063 -218.241896 
L 175.471306 -218.55677 
L 175.274549 -218.870049 
L 175.077792 -219.181543 
L 174.881035 -219.491076 
L 174.684278 -219.798486 
L 174.48752 -220.103619 
L 174.290763 -220.406332 
L 174.094006 -220.70649 
L 173.897249 -221.003965 
L 173.700492 -221.298636 
L 173.503735 -221.590387 
L 173.306978 -221.879107 
L 173.11022 -222.16469 
L 172.913463 -222.447034 
L 172.716706 -222.72604 
L 172.519949 -223.001613 
L 172.323192 -223.273662 
L 172.126435 -223.542095 
L 171.929678 -223.806828 
L 171.73292 -224.067775 
L 171.536163 -224.324854 
L 171.339406 -224.577984 
L 171.142649 -224.827086 
L 170.945892 -225.072084 
L 170.749135 -225.312902 
L 170.552377 -225.549467 
L 170.35562 -225.781705 
L 170.158863 -226.009544 
L 169.962106 -226.232916 
L 169.765349 -226.451751 
L 169.568592 -226.66598 
L 169.371835 -226.875538 
L 169.175077 -227.080357 
L 168.97832 -227.280374 
L 168.781563 -227.475524 
L 168.584806 -227.665743 
L 168.388049 -227.85097 
L 168.191292 -228.031143 
L 167.994535 -228.206202 
L 167.797777 -228.376088 
L 167.60102 -228.540741 
L 167.404263 -228.700103 
L 167.207506 -228.854119 
L 167.010749 -229.002732 
L 166.813992 -229.145888 
L 166.617234 -229.283532 
L 166.420477 -229.415613 
L 166.22372 -229.542078 
L 166.026963 -229.662879 
L 165.830206 -229.777965 
L 165.633449 -229.88729 
L 165.436692 -229.990809 
L 165.239934 -230.088476 
L 165.043177 -230.180251 
L 164.84642 -230.266092 
L 164.649663 -230.345962 
L 164.452906 -230.419826 
L 164.256149 -230.487649 
L 164.059392 -230.549402 
L 163.862634 -230.605057 
L 163.665877 -230.654591 
L 163.46912 -230.697983 
L 163.272363 -230.735217 
L 163.075606 -230.766282 
L 162.878849 -230.791171 
L 162.682091 -230.809883 
L 162.485334 -230.822424 
L 162.288577 -230.828807 
L 162.09182 -230.829051 
L 161.895063 -230.823185 
L 161.698306 -230.811251 
L 161.501549 -230.793298 
L 161.304791 -230.769391 
L 161.108034 -230.739611 
L 160.911277 -230.704054 
L 160.71452 -230.66284 
L 160.517763 -230.616111 
L 160.321006 -230.564039 
L 160.124248 -230.50683 
L 159.927491 -230.444731 
L 159.730734 -230.378038 
L 159.533977 -230.307106 
L 159.33722 -230.232361 
L 159.140463 -230.154319 
L 158.943706 -230.073602 
L 158.746948 -229.990963 
L 158.550191 -229.907312 
L 158.353434 -229.823755 
L 158.156677 -229.741624 
L 157.95992 -229.662514 
L 157.763163 -229.588314 
L 157.566406 -229.52121 
L 157.369648 -229.463652 
L 157.172891 -229.418256 
L 156.976134 -229.387616 
L 156.779377 -229.374033 
L 156.58262 -229.379205 
L 156.385863 -229.403951 
L 156.189105 -229.448082 
L 155.992348 -229.510456 
L 155.795591 -229.589204 
L 155.598834 -229.682036 
L 155.402077 -229.786522 
L 155.20532 -229.900312 
L 155.008563 -230.021264 
L 154.811805 -230.147501 
L 154.615048 -230.277418 
L 154.418291 -230.409667 
L 154.221534 -230.543128 
L 154.024777 -230.676872 
L 153.82802 -230.810132 
L 153.631263 -230.942274 
L 153.434505 -231.072775 
L 153.237748 -231.201201 
L 153.040991 -231.327193 
L 152.844234 -231.450453 
L 152.647477 -231.570734 
L 152.45072 -231.68783 
L 152.253962 -231.801572 
L 152.057205 -231.911821 
L 151.860448 -232.018461 
L 151.663691 -232.121401 
L 151.466934 -232.220566 
L 151.270177 -232.315897 
L 151.07342 -232.407352 
L 150.876662 -232.494896 
L 150.679905 -232.578509 
L 150.483148 -232.658178 
L 150.286391 -232.7339 
L 150.089634 -232.805677 
L 149.892877 -232.873519 
L 149.69612 -232.937441 
L 149.499362 -232.997466 
L 149.302605 -233.053617 
L 149.105848 -233.105924 
L 148.909091 -233.154421 
z
" style="stroke: #000000; stroke-opacity: 0.2"/>
    </defs>
    <g clip-path="url(#pcaacd8e1c0)">
     <use xlink:href="#mc2a5e61b01" x="0" y="432" style="fill-opacity: 0.2; stroke: #000000; stroke-opacity: 0.2"/>
    </g>
   </g>
   <g id="matplotlib.axis_5">
    <g id="xtick_7">
     <g id="line2d_16">
      <g>
       <use xlink:href="#m18c07c9412" x="148.909091" y="259.2" style="stroke: #000000; stroke-width: 0.8"/>
      </g>
     </g>
     <g id="text_16">
      <!-- 1.0 -->
      <g transform="translate(140.957528 273.798437) scale(0.1 -0.1)">
       <use xlink:href="#DejaVuSans-31"/>
       <use xlink:href="#DejaVuSans-2e" x="63.623047"/>
       <use xlink:href="#DejaVuSans-30" x="95.410156"/>
      </g>
     </g>
    </g>
    <g id="xtick_8">
     <g id="line2d_17">
      <g>
       <use xlink:href="#m18c07c9412" x="198" y="259.2" style="stroke: #000000; stroke-width: 0.8"/>
      </g>
     </g>
     <g id="text_17">
      <!-- 1.5 -->
      <g transform="translate(190.048438 273.798437) scale(0.1 -0.1)">
       <use xlink:href="#DejaVuSans-31"/>
       <use xlink:href="#DejaVuSans-2e" x="63.623047"/>
       <use xlink:href="#DejaVuSans-35" x="95.410156"/>
      </g>
     </g>
    </g>
    <g id="xtick_9">
     <g id="line2d_18">
      <g>
       <use xlink:href="#m18c07c9412" x="247.090909" y="259.2" style="stroke: #000000; stroke-width: 0.8"/>
      </g>
     </g>
     <g id="text_18">
      <!-- 2.0 -->
      <g transform="translate(239.139347 273.798437) scale(0.1 -0.1)">
       <use xlink:href="#DejaVuSans-32"/>
       <use xlink:href="#DejaVuSans-2e" x="63.623047"/>
       <use xlink:href="#DejaVuSans-30" x="95.410156"/>
      </g>
     </g>
    </g>
   </g>
   <g id="matplotlib.axis_6">
    <g id="ytick_6">
     <g id="line2d_19">
      <g>
       <use xlink:href="#mbf8624b586" x="144" y="238.707005" style="stroke: #000000; stroke-width: 0.8"/>
      </g>
     </g>
     <g id="text_19">
      <!-- 0.2 -->
      <g transform="translate(121.096875 242.506223) scale(0.1 -0.1)">
       <use xlink:href="#DejaVuSans-30"/>
       <use xlink:href="#DejaVuSans-2e" x="63.623047"/>
       <use xlink:href="#DejaVuSans-32" x="95.410156"/>
      </g>
     </g>
    </g>
    <g id="ytick_7">
     <g id="line2d_20">
      <g>
       <use xlink:href="#mbf8624b586" x="144" y="214.069354" style="stroke: #000000; stroke-width: 0.8"/>
      </g>
     </g>
     <g id="text_20">
      <!-- 0.3 -->
      <g transform="translate(121.096875 217.868573) scale(0.1 -0.1)">
       <defs>
        <path id="DejaVuSans-33" d="M 2597 2516 
Q 3050 2419 3304 2112 
Q 3559 1806 3559 1356 
Q 3559 666 3084 287 
Q 2609 -91 1734 -91 
Q 1441 -91 1130 -33 
Q 819 25 488 141 
L 488 750 
Q 750 597 1062 519 
Q 1375 441 1716 441 
Q 2309 441 2620 675 
Q 2931 909 2931 1356 
Q 2931 1769 2642 2001 
Q 2353 2234 1838 2234 
L 1294 2234 
L 1294 2753 
L 1863 2753 
Q 2328 2753 2575 2939 
Q 2822 3125 2822 3475 
Q 2822 3834 2567 4026 
Q 2313 4219 1838 4219 
Q 1578 4219 1281 4162 
Q 984 4106 628 3988 
L 628 4550 
Q 988 4650 1302 4700 
Q 1616 4750 1894 4750 
Q 2613 4750 3031 4423 
Q 3450 4097 3450 3541 
Q 3450 3153 3228 2886 
Q 3006 2619 2597 2516 
z
" transform="scale(0.015625)"/>
       </defs>
       <use xlink:href="#DejaVuSans-30"/>
       <use xlink:href="#DejaVuSans-2e" x="63.623047"/>
       <use xlink:href="#DejaVuSans-33" x="95.410156"/>
      </g>
     </g>
    </g>
   </g>
   <g id="line2d_21">
    <path d="M 148.909091 197.345455 
L 154.615048 202.462787 
L 160.517763 207.452739 
L 166.420477 212.151534 
L 172.519949 216.719116 
L 178.619421 221.011575 
L 184.915649 225.171482 
L 191.408635 229.190932 
L 198.098379 233.063333 
L 204.788122 236.680672 
L 211.674622 240.155689 
L 218.757879 243.484582 
L 226.037894 246.664657 
L 233.711423 249.770924 
L 241.581709 252.714409 
L 247.090909 254.638871 
L 247.090909 254.638871 
" clip-path="url(#pcaacd8e1c0)" style="fill: none; stroke: #000000; stroke-opacity: 0.5; stroke-width: 1.5; stroke-linecap: square"/>
   </g>
   <g id="line2d_22">
    <path d="M 148.909091 206.875137 
L 150.876662 205.750614 
L 152.647477 204.986447 
L 154.221534 204.550799 
L 155.598834 204.38487 
L 156.976134 204.43513 
L 158.353434 204.704318 
L 159.927491 205.26674 
L 161.501549 206.072915 
L 163.272363 207.225186 
L 165.436692 208.906275 
L 168.388049 211.51145 
L 178.422664 220.640108 
L 181.570778 223.099551 
L 184.718892 225.287908 
L 188.260521 227.468907 
L 192.589178 229.847645 
L 201.44325 234.361789 
L 208.132993 237.928128 
L 216.396794 242.628059 
L 224.463837 247.150283 
L 227.611951 248.663595 
L 229.973037 249.565958 
L 231.940608 250.094961 
L 233.711423 250.352233 
L 235.482237 250.37045 
L 237.056294 250.173952 
L 238.827109 249.721752 
L 240.79468 248.965994 
L 242.959009 247.888334 
L 245.713609 246.260171 
L 247.090909 245.380535 
L 247.090909 245.380535 
" clip-path="url(#pcaacd8e1c0)" style="fill: none; stroke-dasharray: 5.55,2.4; stroke-dashoffset: 0; stroke: #000000; stroke-opacity: 0.5; stroke-width: 1.5"/>
   </g>
   <g id="patch_14">
    <path d="M 144 259.2 
L 144 194.4 
" style="fill: none; stroke: #000000; stroke-width: 0.8; stroke-linejoin: miter; stroke-linecap: square"/>
   </g>
   <g id="patch_15">
    <path d="M 252 259.2 
L 252 194.4 
" style="fill: none; stroke: #000000; stroke-width: 0.8; stroke-linejoin: miter; stroke-linecap: square"/>
   </g>
   <g id="patch_16">
    <path d="M 144 259.2 
L 252 259.2 
" style="fill: none; stroke: #000000; stroke-width: 0.8; stroke-linejoin: miter; stroke-linecap: square"/>
   </g>
   <g id="patch_17">
    <path d="M 144 194.4 
L 252 194.4 
" style="fill: none; stroke: #000000; stroke-width: 0.8; stroke-linejoin: miter; stroke-linecap: square"/>
   </g>
   <g id="text_21">
    <!-- $f(x)$ -->
    <g transform="translate(187.62 188.4) scale(0.12 -0.12)">
     <defs>
      <path id="DejaVuSans-Oblique-66" d="M 3059 4863 
L 2969 4384 
L 2419 4384 
Q 2106 4384 1964 4261 
Q 1822 4138 1753 3809 
L 1691 3500 
L 2638 3500 
L 2553 3053 
L 1606 3053 
L 1013 0 
L 434 0 
L 1031 3053 
L 481 3053 
L 563 3500 
L 1113 3500 
L 1159 3744 
Q 1278 4363 1576 4613 
Q 1875 4863 2516 4863 
L 3059 4863 
z
" transform="scale(0.015625)"/>
     </defs>
     <use xlink:href="#DejaVuSans-Oblique-66" transform="translate(0 0.015625)"/>
     <use xlink:href="#DejaVuSans-28" transform="translate(35.205078 0.015625)"/>
     <use xlink:href="#DejaVuSans-Oblique-78" transform="translate(74.21875 0.015625)"/>
     <use xlink:href="#DejaVuSans-29" transform="translate(133.398438 0.015625)"/>
    </g>
   </g>
  </g>
  <g id="axes_4">
   <g id="patch_18">
    <path d="M 324 259.2 
L 432 259.2 
L 432 194.4 
L 324 194.4 
z
" style="fill: #ffffff"/>
   </g>
   <g id="matplotlib.axis_7">
    <g id="xtick_10">
     <g id="line2d_23">
      <g>
       <use xlink:href="#m18c07c9412" x="328.909091" y="259.2" style="stroke: #000000; stroke-width: 0.8"/>
      </g>
     </g>
     <g id="text_22">
      <!-- 1.0 -->
      <g transform="translate(320.957528 273.798437) scale(0.1 -0.1)">
       <use xlink:href="#DejaVuSans-31"/>
       <use xlink:href="#DejaVuSans-2e" x="63.623047"/>
       <use xlink:href="#DejaVuSans-30" x="95.410156"/>
      </g>
     </g>
    </g>
    <g id="xtick_11">
     <g id="line2d_24">
      <g>
       <use xlink:href="#m18c07c9412" x="378" y="259.2" style="stroke: #000000; stroke-width: 0.8"/>
      </g>
     </g>
     <g id="text_23">
      <!-- 1.5 -->
      <g transform="translate(370.048437 273.798437) scale(0.1 -0.1)">
       <use xlink:href="#DejaVuSans-31"/>
       <use xlink:href="#DejaVuSans-2e" x="63.623047"/>
       <use xlink:href="#DejaVuSans-35" x="95.410156"/>
      </g>
     </g>
    </g>
    <g id="xtick_12">
     <g id="line2d_25">
      <g>
       <use xlink:href="#m18c07c9412" x="427.090909" y="259.2" style="stroke: #000000; stroke-width: 0.8"/>
      </g>
     </g>
     <g id="text_24">
      <!-- 2.0 -->
      <g transform="translate(419.139347 273.798437) scale(0.1 -0.1)">
       <use xlink:href="#DejaVuSans-32"/>
       <use xlink:href="#DejaVuSans-2e" x="63.623047"/>
       <use xlink:href="#DejaVuSans-30" x="95.410156"/>
      </g>
     </g>
    </g>
   </g>
   <g id="matplotlib.axis_8">
    <g id="ytick_8">
     <g id="line2d_26">
      <g>
       <use xlink:href="#mbf8624b586" x="324" y="256.254545" style="stroke: #000000; stroke-width: 0.8"/>
      </g>
     </g>
     <g id="text_25">
      <!-- 0.000 -->
      <g transform="translate(288.371875 260.053764) scale(0.1 -0.1)">
       <use xlink:href="#DejaVuSans-30"/>
       <use xlink:href="#DejaVuSans-2e" x="63.623047"/>
       <use xlink:href="#DejaVuSans-30" x="95.410156"/>
       <use xlink:href="#DejaVuSans-30" x="159.033203"/>
       <use xlink:href="#DejaVuSans-30" x="222.65625"/>
      </g>
     </g>
    </g>
    <g id="ytick_9">
     <g id="line2d_27">
      <g>
       <use xlink:href="#mbf8624b586" x="324" y="223.780686" style="stroke: #000000; stroke-width: 0.8"/>
      </g>
     </g>
     <g id="text_26">
      <!-- 0.005 -->
      <g transform="translate(288.371875 227.579905) scale(0.1 -0.1)">
       <use xlink:href="#DejaVuSans-30"/>
       <use xlink:href="#DejaVuSans-2e" x="63.623047"/>
       <use xlink:href="#DejaVuSans-30" x="95.410156"/>
       <use xlink:href="#DejaVuSans-30" x="159.033203"/>
       <use xlink:href="#DejaVuSans-35" x="222.65625"/>
      </g>
     </g>
    </g>
   </g>
   <g id="line2d_28">
    <path d="M 328.909091 256.254545 
L 368.457278 256.156776 
L 369.834578 255.853496 
L 371.015121 255.357084 
L 372.589178 254.338663 
L 374.753507 252.600418 
L 377.114593 250.899944 
L 378.098379 250.383687 
L 379.082164 250.085002 
L 380.06595 250.00104 
L 381.049736 250.1283 
L 382.033522 250.462458 
L 383.214064 251.12884 
L 384.394607 252.073106 
L 388.723265 255.654684 
L 389.70705 256.047962 
L 390.690836 256.216793 
L 392.658408 256.254545 
L 396.396794 256.18521 
L 396.987065 255.927713 
L 397.380579 255.548441 
L 397.970851 254.556009 
L 398.561122 252.997782 
L 399.348151 250.050293 
L 400.331937 245.283111 
L 401.709237 237.558214 
L 403.873565 225.48186 
L 405.054108 220.054197 
L 405.841137 217.176837 
L 406.824923 214.4364 
L 407.415194 213.413963 
L 408.005465 212.801235 
L 408.39898 212.623134 
L 408.792494 212.682707 
L 409.186008 212.979572 
L 409.579523 213.512581 
L 410.366551 215.14936 
L 410.956823 216.968249 
L 411.743851 220.181204 
L 412.727637 225.282328 
L 415.088723 238.576645 
L 415.482237 239.713449 
L 415.678994 239.99063 
L 415.875752 240.064959 
L 416.072509 239.938577 
L 416.466023 239.129314 
L 417.056294 236.830037 
L 418.04008 231.487351 
L 420.79468 215.827837 
L 422.17198 209.572302 
L 423.352523 205.242956 
L 424.336309 202.429413 
L 425.713609 199.32491 
L 426.500638 198.055552 
L 427.090909 197.345455 
L 427.090909 197.345455 
" clip-path="url(#p5e9af631da)" style="fill: none; stroke: #000000; stroke-opacity: 0.5; stroke-width: 1.5; stroke-linecap: square"/>
   </g>
   <g id="patch_19">
    <path d="M 324 259.2 
L 324 194.4 
" style="fill: none; stroke: #000000; stroke-width: 0.8; stroke-linejoin: miter; stroke-linecap: square"/>
   </g>
   <g id="patch_20">
    <path d="M 432 259.2 
L 432 194.4 
" style="fill: none; stroke: #000000; stroke-width: 0.8; stroke-linejoin: miter; stroke-linecap: square"/>
   </g>
   <g id="patch_21">
    <path d="M 324 259.2 
L 432 259.2 
" style="fill: none; stroke: #000000; stroke-width: 0.8; stroke-linejoin: miter; stroke-linecap: square"/>
   </g>
   <g id="patch_22">
    <path d="M 324 194.4 
L 432 194.4 
" style="fill: none; stroke: #000000; stroke-width: 0.8; stroke-linejoin: miter; stroke-linecap: square"/>
   </g>
   <g id="patch_23">
    <path d="M 261.197314 226.8 
Q 275.398471 226.8 287.922577 226.8 
" style="fill: none; stroke: #000000; stroke-width: 1.5; stroke-linecap: round"/>
    <path d="M 283.922577 224.8 
L 287.922577 226.8 
L 283.922577 228.8 
" style="fill: none; stroke: #000000; stroke-width: 1.5; stroke-linecap: round"/>
   </g>
   <g id="text_27">
    <!-- $EI(x)$ -->
    <g transform="translate(364.2 188.4) scale(0.12 -0.12)">
     <defs>
      <path id="DejaVuSans-Oblique-45" d="M 1081 4666 
L 4031 4666 
L 3928 4134 
L 1606 4134 
L 1338 2753 
L 3566 2753 
L 3463 2222 
L 1234 2222 
L 909 531 
L 3284 531 
L 3181 0 
L 172 0 
L 1081 4666 
z
" transform="scale(0.015625)"/>
      <path id="DejaVuSans-Oblique-49" d="M 1081 4666 
L 1716 4666 
L 806 0 
L 172 0 
L 1081 4666 
z
" transform="scale(0.015625)"/>
     </defs>
     <use xlink:href="#DejaVuSans-Oblique-45" transform="translate(0 0.125)"/>
     <use xlink:href="#DejaVuSans-Oblique-49" transform="translate(63.183594 0.125)"/>
     <use xlink:href="#DejaVuSans-28" transform="translate(92.675781 0.125)"/>
     <use xlink:href="#DejaVuSans-Oblique-78" transform="translate(131.689453 0.125)"/>
     <use xlink:href="#DejaVuSans-29" transform="translate(190.869141 0.125)"/>
    </g>
   </g>
  </g>
  <g id="axes_5">
   <g id="patch_24">
    <path d="M 504 324 
L 612 324 
L 612 259.2 
L 504 259.2 
z
" style="fill: #ffffff"/>
   </g>
   <g id="matplotlib.axis_9">
    <g id="xtick_13">
     <g id="line2d_29">
      <g>
       <use xlink:href="#m18c07c9412" x="508.909091" y="324" style="stroke: #000000; stroke-width: 0.8"/>
      </g>
     </g>
     <g id="text_28">
      <!-- 1.0 -->
      <g transform="translate(500.957528 338.598437) scale(0.1 -0.1)">
       <use xlink:href="#DejaVuSans-31"/>
       <use xlink:href="#DejaVuSans-2e" x="63.623047"/>
       <use xlink:href="#DejaVuSans-30" x="95.410156"/>
      </g>
     </g>
    </g>
    <g id="xtick_14">
     <g id="line2d_30">
      <g>
       <use xlink:href="#m18c07c9412" x="558" y="324" style="stroke: #000000; stroke-width: 0.8"/>
      </g>
     </g>
     <g id="text_29">
      <!-- 1.5 -->
      <g transform="translate(550.048437 338.598437) scale(0.1 -0.1)">
       <use xlink:href="#DejaVuSans-31"/>
       <use xlink:href="#DejaVuSans-2e" x="63.623047"/>
       <use xlink:href="#DejaVuSans-35" x="95.410156"/>
      </g>
     </g>
    </g>
    <g id="xtick_15">
     <g id="line2d_31">
      <g>
       <use xlink:href="#m18c07c9412" x="607.090909" y="324" style="stroke: #000000; stroke-width: 0.8"/>
      </g>
     </g>
     <g id="text_30">
      <!-- 2.0 -->
      <g transform="translate(599.139347 338.598437) scale(0.1 -0.1)">
       <use xlink:href="#DejaVuSans-32"/>
       <use xlink:href="#DejaVuSans-2e" x="63.623047"/>
       <use xlink:href="#DejaVuSans-30" x="95.410156"/>
      </g>
     </g>
    </g>
    <g id="text_31">
     <!-- $x$ -->
     <g transform="translate(554.4 353.79625) scale(0.12 -0.12)">
      <use xlink:href="#DejaVuSans-Oblique-78" transform="translate(0 0.3125)"/>
     </g>
    </g>
   </g>
   <g id="matplotlib.axis_10">
    <g id="ytick_10">
     <g id="line2d_32">
      <g>
       <use xlink:href="#mbf8624b586" x="504" y="321.054545" style="stroke: #000000; stroke-width: 0.8"/>
      </g>
     </g>
     <g id="text_32">
      <!-- 0.0000 -->
      <g transform="translate(462.009375 324.853764) scale(0.1 -0.1)">
       <use xlink:href="#DejaVuSans-30"/>
       <use xlink:href="#DejaVuSans-2e" x="63.623047"/>
       <use xlink:href="#DejaVuSans-30" x="95.410156"/>
       <use xlink:href="#DejaVuSans-30" x="159.033203"/>
       <use xlink:href="#DejaVuSans-30" x="222.65625"/>
       <use xlink:href="#DejaVuSans-30" x="286.279297"/>
      </g>
     </g>
    </g>
    <g id="ytick_11">
     <g id="line2d_33">
      <g>
       <use xlink:href="#mbf8624b586" x="504" y="281.239612" style="stroke: #000000; stroke-width: 0.8"/>
      </g>
     </g>
     <g id="text_33">
      <!-- 0.0002 -->
      <g transform="translate(462.009375 285.038831) scale(0.1 -0.1)">
       <use xlink:href="#DejaVuSans-30"/>
       <use xlink:href="#DejaVuSans-2e" x="63.623047"/>
       <use xlink:href="#DejaVuSans-30" x="95.410156"/>
       <use xlink:href="#DejaVuSans-30" x="159.033203"/>
       <use xlink:href="#DejaVuSans-30" x="222.65625"/>
       <use xlink:href="#DejaVuSans-32" x="286.279297"/>
      </g>
     </g>
    </g>
   </g>
   <g id="line2d_34">
    <path d="M 508.909091 321.054545 
L 546.883221 320.96818 
L 547.473492 320.711628 
L 547.867007 320.371376 
L 548.457278 319.509215 
L 549.04755 318.079651 
L 549.637821 316.02823 
L 550.42485 312.206998 
L 551.605393 304.339023 
L 555.540536 272.15932 
L 556.327564 267.521034 
L 557.114593 264.394557 
L 557.704864 262.733112 
L 558.098379 262.225864 
L 558.491893 262.177361 
L 558.885407 262.568335 
L 559.278921 263.378583 
L 559.869193 265.333029 
L 560.459464 268.104393 
L 561.246493 272.91861 
L 562.230279 280.395353 
L 563.804336 294.359133 
L 565.181636 306.141981 
L 566.165422 312.88484 
L 566.95245 316.774597 
L 567.542722 318.756862 
L 568.132993 319.999131 
L 568.723265 320.664551 
L 569.313536 320.949867 
L 570.297322 321.050709 
L 579.348151 321.04732 
L 587.02168 321.02518 
L 591.350337 321.054545 
L 602.565495 320.968897 
L 603.155766 320.757967 
L 603.746038 320.247482 
L 604.139552 319.637278 
L 604.533066 318.729134 
L 605.123338 316.642732 
L 605.713609 313.496484 
L 606.30388 309.12372 
L 607.090909 301.232617 
L 607.090909 301.232617 
" clip-path="url(#p0f1671bb52)" style="fill: none; stroke: #000000; stroke-opacity: 0.5; stroke-width: 1.5; stroke-linecap: square"/>
   </g>
   <g id="line2d_35">
    <defs>
     <path id="m58d27033d2" d="M 0 4 
C 1.060812 4 2.078319 3.578535 2.828427 2.828427 
C 3.578535 2.078319 4 1.060812 4 0 
C 4 -1.060812 3.578535 -2.078319 2.828427 -2.828427 
C 2.078319 -3.578535 1.060812 -4 0 -4 
C -1.060812 -4 -2.078319 -3.578535 -2.828427 -2.828427 
C -3.578535 -2.078319 -4 -1.060812 -4 0 
C -4 1.060812 -3.578535 2.078319 -2.828427 2.828427 
C -2.078319 3.578535 -1.060812 4 0 4 
z
" style="stroke: #ff0000; stroke-opacity: 0.5"/>
    </defs>
    <g clip-path="url(#p0f1671bb52)">
     <use xlink:href="#m58d27033d2" x="558.295136" y="262.145455" style="fill-opacity: 0; stroke: #ff0000; stroke-opacity: 0.5"/>
    </g>
   </g>
   <g id="patch_25">
    <path d="M 504 324 
L 504 259.2 
" style="fill: none; stroke: #000000; stroke-width: 0.8; stroke-linejoin: miter; stroke-linecap: square"/>
   </g>
   <g id="patch_26">
    <path d="M 612 324 
L 612 259.2 
" style="fill: none; stroke: #000000; stroke-width: 0.8; stroke-linejoin: miter; stroke-linecap: square"/>
   </g>
   <g id="patch_27">
    <path d="M 504 324 
L 612 324 
" style="fill: none; stroke: #000000; stroke-width: 0.8; stroke-linejoin: miter; stroke-linecap: square"/>
   </g>
   <g id="patch_28">
    <path d="M 504 259.2 
L 612 259.2 
" style="fill: none; stroke: #000000; stroke-width: 0.8; stroke-linejoin: miter; stroke-linecap: square"/>
   </g>
   <g id="patch_29">
    <path d="M 440.824878 316.350088 
Q 452.70243 307.79825 463.218997 300.226322 
" style="fill: none; stroke: #000000; stroke-width: 1.5; stroke-linecap: round"/>
    <path d="M 458.804251 300.940472 
L 463.218997 300.226322 
L 461.141469 304.186609 
" style="fill: none; stroke: #000000; stroke-width: 1.5; stroke-linecap: round"/>
   </g>
   <g id="patch_30">
    <path d="M 440.824878 266.849912 
Q 452.70243 275.40175 463.218997 282.973678 
" style="fill: none; stroke: #000000; stroke-width: 1.5; stroke-linecap: round"/>
    <path d="M 461.141469 279.013391 
L 463.218997 282.973678 
L 458.804251 282.259528 
" style="fill: none; stroke: #000000; stroke-width: 1.5; stroke-linecap: round"/>
   </g>
   <g id="text_34">
    <!-- $ECI(x)$ -->
    <g transform="translate(540 253.2) scale(0.12 -0.12)">
     <defs>
      <path id="DejaVuSans-Oblique-43" d="M 4447 4306 
L 4319 3641 
Q 4019 3944 3683 4091 
Q 3347 4238 2956 4238 
Q 2422 4238 2017 3981 
Q 1613 3725 1319 3200 
Q 1131 2863 1032 2486 
Q 934 2109 934 1728 
Q 934 1091 1264 756 
Q 1594 422 2222 422 
Q 2656 422 3056 561 
Q 3456 700 3834 978 
L 3688 231 
Q 3316 72 2936 -9 
Q 2556 -91 2175 -91 
Q 1278 -91 773 396 
Q 269 884 269 1753 
Q 269 2309 461 2846 
Q 653 3384 1013 3828 
Q 1394 4300 1883 4525 
Q 2372 4750 3022 4750 
Q 3422 4750 3780 4639 
Q 4138 4528 4447 4306 
z
" transform="scale(0.015625)"/>
     </defs>
     <use xlink:href="#DejaVuSans-Oblique-45" transform="translate(0 0.125)"/>
     <use xlink:href="#DejaVuSans-Oblique-43" transform="translate(63.183594 0.125)"/>
     <use xlink:href="#DejaVuSans-Oblique-49" transform="translate(133.007812 0.125)"/>
     <use xlink:href="#DejaVuSans-28" transform="translate(162.5 0.125)"/>
     <use xlink:href="#DejaVuSans-Oblique-78" transform="translate(201.513672 0.125)"/>
     <use xlink:href="#DejaVuSans-29" transform="translate(260.693359 0.125)"/>
    </g>
   </g>
  </g>
 </g>
 <defs>
  <clipPath id="p74ea218dc2">
   <rect x="144" y="324" width="108" height="64.8"/>
  </clipPath>
  <clipPath id="pbb8fb321f5">
   <rect x="324" y="324" width="108" height="64.8"/>
  </clipPath>
  <clipPath id="pcaacd8e1c0">
   <rect x="144" y="194.4" width="108" height="64.8"/>
  </clipPath>
  <clipPath id="p5e9af631da">
   <rect x="324" y="194.4" width="108" height="64.8"/>
  </clipPath>
  <clipPath id="p0f1671bb52">
   <rect x="504" y="259.2" width="108" height="64.8"/>
  </clipPath>
 </defs>
</svg>
