<?xml version="1.0" encoding="utf-8" standalone="no"?>
<!DOCTYPE svg PUBLIC "-//W3C//DTD SVG 1.1//EN"
  "http://www.w3.org/Graphics/SVG/1.1/DTD/svg11.dtd">
<svg xmlns:xlink="http://www.w3.org/1999/xlink" width="1152pt" height="576pt" viewBox="0 0 1152 576" xmlns="http://www.w3.org/2000/svg" version="1.1">
 <metadata>
  <rdf:RDF xmlns:dc="http://purl.org/dc/elements/1.1/" xmlns:cc="http://creativecommons.org/ns#" xmlns:rdf="http://www.w3.org/1999/02/22-rdf-syntax-ns#">
   <cc:Work>
    <dc:type rdf:resource="http://purl.org/dc/dcmitype/StillImage"/>
    <dc:date>2025-03-03T16:48:13.714252</dc:date>
    <dc:format>image/svg+xml</dc:format>
    <dc:creator>
     <cc:Agent>
      <dc:title>Matplotlib v3.9.4, https://matplotlib.org/</dc:title>
     </cc:Agent>
    </dc:creator>
   </cc:Work>
  </rdf:RDF>
 </metadata>
 <defs>
  <style type="text/css">*{stroke-linejoin: round; stroke-linecap: butt}</style>
 </defs>
 <g id="figure_1">
  <g id="patch_1">
   <path d="M 0 576 
L 1152 576 
L 1152 0 
L 0 0 
z
" style="fill: #ffffff"/>
  </g>
  <g id="axes_1">
   <g id="patch_2">
    <path d="M 774.86281 157.606252 
Q 774.86281 189.242905 774.86281 219.761524 
" clip-path="url(#pcad57051d7)" style="fill: none; stroke: #000000; stroke-opacity: 0.5; stroke-linecap: round"/>
    <path d="M 778.86281 211.761524 
L 774.86281 219.761524 
L 770.86281 211.761524 
z
" clip-path="url(#pcad57051d7)" style="fill-opacity: 0.5; stroke: #000000; stroke-opacity: 0.5; stroke-linecap: round"/>
   </g>
   <g id="patch_3">
    <path d="M 774.86281 340.878979 
Q 774.86281 372.515632 774.86281 403.034251 
" clip-path="url(#pcad57051d7)" style="fill: none; stroke: #000000; stroke-opacity: 0.5; stroke-linecap: round"/>
    <path d="M 778.86281 395.034251 
L 774.86281 403.034251 
L 770.86281 395.034251 
z
" clip-path="url(#pcad57051d7)" style="fill-opacity: 0.5; stroke: #000000; stroke-opacity: 0.5; stroke-linecap: round"/>
   </g>
   <g id="patch_4">
    <path d="M 221.47438 340.878979 
Q 221.47438 372.515632 221.47438 403.034251 
" clip-path="url(#pcad57051d7)" style="fill: none; stroke: #000000; stroke-opacity: 0.5; stroke-linecap: round"/>
    <path d="M 225.47438 395.034251 
L 221.47438 403.034251 
L 217.47438 395.034251 
z
" clip-path="url(#pcad57051d7)" style="fill-opacity: 0.5; stroke: #000000; stroke-opacity: 0.5; stroke-linecap: round"/>
   </g>
   <g id="patch_5">
    <path d="M 221.47438 157.606252 
Q 221.47438 189.242905 221.47438 219.761524 
" clip-path="url(#pcad57051d7)" style="fill: none; stroke: #000000; stroke-opacity: 0.5; stroke-linecap: round"/>
    <path d="M 225.47438 211.761524 
L 221.47438 219.761524 
L 217.47438 211.761524 
z
" clip-path="url(#pcad57051d7)" style="fill-opacity: 0.5; stroke: #000000; stroke-opacity: 0.5; stroke-linecap: round"/>
   </g>
   <g id="patch_6">
    <path d="M 959.32562 157.606252 
Q 959.32562 189.242905 959.32562 219.761524 
" clip-path="url(#pcad57051d7)" style="fill: none; stroke: #000000; stroke-opacity: 0.5; stroke-linecap: round"/>
    <path d="M 963.32562 211.761524 
L 959.32562 219.761524 
L 955.32562 211.761524 
z
" clip-path="url(#pcad57051d7)" style="fill-opacity: 0.5; stroke: #000000; stroke-opacity: 0.5; stroke-linecap: round"/>
   </g>
   <g id="patch_7">
    <path d="M 405.93719 157.606252 
Q 405.93719 189.242905 405.93719 219.761524 
" clip-path="url(#pcad57051d7)" style="fill: none; stroke: #000000; stroke-opacity: 0.5; stroke-linecap: round"/>
    <path d="M 409.93719 211.761524 
L 405.93719 219.761524 
L 401.93719 211.761524 
z
" clip-path="url(#pcad57051d7)" style="fill-opacity: 0.5; stroke: #000000; stroke-opacity: 0.5; stroke-linecap: round"/>
   </g>
   <g id="patch_8">
    <path d="M 590.4 157.606252 
Q 590.4 189.242905 590.4 219.761524 
" clip-path="url(#pcad57051d7)" style="fill: none; stroke: #000000; stroke-opacity: 0.5; stroke-linecap: round"/>
    <path d="M 594.4 211.761524 
L 590.4 219.761524 
L 586.4 211.761524 
z
" clip-path="url(#pcad57051d7)" style="fill-opacity: 0.5; stroke: #000000; stroke-opacity: 0.5; stroke-linecap: round"/>
   </g>
   <g id="patch_9">
    <path d="M 590.4 340.878979 
Q 590.4 372.515632 590.4 403.034251 
" clip-path="url(#pcad57051d7)" style="fill: none; stroke: #000000; stroke-opacity: 0.5; stroke-linecap: round"/>
    <path d="M 594.4 395.034251 
L 590.4 403.034251 
L 586.4 395.034251 
z
" clip-path="url(#pcad57051d7)" style="fill-opacity: 0.5; stroke: #000000; stroke-opacity: 0.5; stroke-linecap: round"/>
   </g>
   <g id="patch_10">
    <path d="M 405.93719 340.878979 
Q 405.93719 372.515632 405.93719 403.034251 
" clip-path="url(#pcad57051d7)" style="fill: none; stroke: #000000; stroke-opacity: 0.5; stroke-linecap: round"/>
    <path d="M 409.93719 395.034251 
L 405.93719 403.034251 
L 401.93719 395.034251 
z
" clip-path="url(#pcad57051d7)" style="fill-opacity: 0.5; stroke: #000000; stroke-opacity: 0.5; stroke-linecap: round"/>
   </g>
   <g id="patch_11">
    <path d="M 959.32562 340.878979 
Q 959.32562 372.515632 959.32562 403.034251 
" clip-path="url(#pcad57051d7)" style="fill: none; stroke: #000000; stroke-opacity: 0.5; stroke-linecap: round"/>
    <path d="M 963.32562 395.034251 
L 959.32562 403.034251 
L 955.32562 395.034251 
z
" clip-path="url(#pcad57051d7)" style="fill-opacity: 0.5; stroke: #000000; stroke-opacity: 0.5; stroke-linecap: round"/>
   </g>
  </g>
  <g id="axes_2">
   <g id="patch_12">
    <path d="M 729.389126 130.344115 
L 820.336494 130.344115 
L 820.336494 84.870431 
L 729.389126 84.870431 
z
" style="fill: #ffffff"/>
   </g>
   <g id="matplotlib.axis_1"/>
   <g id="matplotlib.axis_2">
    <g id="ytick_1">
     <g id="line2d_1"/>
     <g id="text_1">
      <!-- 0.0 -->
      <g transform="translate(709.986001 132.542568) scale(0.1 -0.1)">
       <defs>
        <path id="DejaVuSans-30" d="M 2034 4250 
Q 1547 4250 1301 3770 
Q 1056 3291 1056 2328 
Q 1056 1369 1301 889 
Q 1547 409 2034 409 
Q 2525 409 2770 889 
Q 3016 1369 3016 2328 
Q 3016 3291 2770 3770 
Q 2525 4250 2034 4250 
z
M 2034 4750 
Q 2819 4750 3233 4129 
Q 3647 3509 3647 2328 
Q 3647 1150 3233 529 
Q 2819 -91 2034 -91 
Q 1250 -91 836 529 
Q 422 1150 422 2328 
Q 422 3509 836 4129 
Q 1250 4750 2034 4750 
z
" transform="scale(0.015625)"/>
        <path id="DejaVuSans-2e" d="M 684 794 
L 1344 794 
L 1344 0 
L 684 0 
L 684 794 
z
" transform="scale(0.015625)"/>
       </defs>
       <use xlink:href="#DejaVuSans-30"/>
       <use xlink:href="#DejaVuSans-2e" x="63.623047"/>
       <use xlink:href="#DejaVuSans-30" x="95.410156"/>
      </g>
     </g>
    </g>
    <g id="ytick_2">
     <g id="line2d_2"/>
     <g id="text_2">
      <!-- 4.2 -->
      <g transform="translate(709.986001 90.736635) scale(0.1 -0.1)">
       <defs>
        <path id="DejaVuSans-34" d="M 2419 4116 
L 825 1625 
L 2419 1625 
L 2419 4116 
z
M 2253 4666 
L 3047 4666 
L 3047 1625 
L 3713 1625 
L 3713 1100 
L 3047 1100 
L 3047 0 
L 2419 0 
L 2419 1100 
L 313 1100 
L 313 1709 
L 2253 4666 
z
" transform="scale(0.015625)"/>
        <path id="DejaVuSans-32" d="M 1228 531 
L 3431 531 
L 3431 0 
L 469 0 
L 469 531 
Q 828 903 1448 1529 
Q 2069 2156 2228 2338 
Q 2531 2678 2651 2914 
Q 2772 3150 2772 3378 
Q 2772 3750 2511 3984 
Q 2250 4219 1831 4219 
Q 1534 4219 1204 4116 
Q 875 4013 500 3803 
L 500 4441 
Q 881 4594 1212 4672 
Q 1544 4750 1819 4750 
Q 2544 4750 2975 4387 
Q 3406 4025 3406 3419 
Q 3406 3131 3298 2873 
Q 3191 2616 2906 2266 
Q 2828 2175 2409 1742 
Q 1991 1309 1228 531 
z
" transform="scale(0.015625)"/>
       </defs>
       <use xlink:href="#DejaVuSans-34"/>
       <use xlink:href="#DejaVuSans-2e" x="63.623047"/>
       <use xlink:href="#DejaVuSans-32" x="95.410156"/>
      </g>
     </g>
    </g>
   </g>
   <g id="line2d_3">
    <path d="M 733.523097 128.25958 
L 734.101275 127.198616 
L 734.679453 126.578097 
L 735.25763 124.817678 
L 735.835808 123.484491 
L 736.413986 121.718299 
L 736.992164 117.922237 
L 737.570342 119.048615 
L 738.148519 122.082356 
L 738.726697 123.501058 
L 739.304875 124.339044 
L 740.461231 125.254871 
L 741.039408 125.537797 
L 742.773942 125.831259 
L 746.821186 126.161429 
L 747.399364 126.415964 
L 747.977542 127.024172 
L 749.133898 127.574793 
L 750.290253 127.844027 
L 752.602964 128.078983 
L 757.228387 128.213156 
L 771.104654 128.268323 
L 816.202523 128.277128 
L 816.202523 128.277128 
" clip-path="url(#p536ddc3178)" style="fill: none; stroke: #000000; stroke-opacity: 0.6; stroke-width: 1.5; stroke-linecap: square"/>
   </g>
   <g id="line2d_4">
    <path d="M 733.523097 128.25958 
L 734.101275 127.198616 
L 734.679453 126.578097 
L 735.25763 124.817678 
L 735.835808 123.484491 
L 736.413986 121.718299 
L 736.992164 117.918176 
L 737.570342 119.065161 
L 738.148519 121.925548 
L 738.726697 123.373072 
L 739.304875 124.352279 
L 740.461231 125.26974 
L 741.039408 125.54086 
L 742.773942 125.831161 
L 746.821186 126.16165 
L 747.399364 126.413963 
L 747.977542 127.026232 
L 748.55572 127.373026 
L 749.712075 127.738766 
L 751.446609 127.995284 
L 754.337498 128.154975 
L 761.275632 128.245976 
L 790.7627 128.2756 
L 816.202523 128.277129 
L 816.202523 128.277129 
" clip-path="url(#p536ddc3178)" style="fill: none; stroke: #ff0000; stroke-opacity: 0.6; stroke-width: 1.5; stroke-linecap: square"/>
   </g>
   <g id="line2d_5">
    <path d="M 733.523097 128.25943 
L 734.101275 127.196253 
L 734.679453 126.570675 
L 735.25763 124.815441 
L 735.835808 123.482471 
L 736.413986 121.718144 
L 736.992164 117.657636 
L 737.570342 118.848397 
L 738.148519 122.026237 
L 738.726697 123.41435 
L 739.304875 124.373301 
L 740.461231 125.240611 
L 741.039408 125.571256 
L 743.930297 125.939852 
L 746.821186 126.16086 
L 747.399364 126.435325 
L 747.977542 127.040343 
L 749.133898 127.584266 
L 750.290253 127.848921 
L 752.602964 128.080574 
L 757.228387 128.2125 
L 770.526476 128.267331 
L 816.202523 128.276653 
L 816.202523 128.276653 
" clip-path="url(#p536ddc3178)" style="fill: none; stroke: #0000ff; stroke-opacity: 0.6; stroke-width: 1.5; stroke-linecap: square"/>
   </g>
   <g id="line2d_6">
    <path d="M 733.523097 86.937416 
L 816.202523 86.937416 
L 816.202523 86.937416 
" clip-path="url(#p536ddc3178)" style="fill: none; stroke-dasharray: 5.55,2.4; stroke-dashoffset: 0; stroke: #ff0000; stroke-width: 1.5"/>
   </g>
   <g id="text_3">
    <!-- J4 -->
    <g transform="translate(769.27531 78.870431) scale(0.12 -0.12)">
     <defs>
      <path id="DejaVuSans-4a" d="M 628 4666 
L 1259 4666 
L 1259 325 
Q 1259 -519 939 -900 
Q 619 -1281 -91 -1281 
L -331 -1281 
L -331 -750 
L -134 -750 
Q 284 -750 456 -515 
Q 628 -281 628 325 
L 628 4666 
z
" transform="scale(0.015625)"/>
     </defs>
     <use xlink:href="#DejaVuSans-4a"/>
     <use xlink:href="#DejaVuSans-34" x="29.492188"/>
    </g>
   </g>
  </g>
  <g id="axes_3">
   <g id="patch_13">
    <path d="M 913.851936 496.889569 
L 1004.799304 496.889569 
L 1004.799304 451.415885 
L 913.851936 451.415885 
z
" style="fill: #ffffff"/>
   </g>
   <g id="matplotlib.axis_3"/>
   <g id="matplotlib.axis_4">
    <g id="ytick_3">
     <g id="line2d_7"/>
     <g id="text_4">
      <!-- 0.0 -->
      <g transform="translate(894.448811 498.629747) scale(0.1 -0.1)">
       <use xlink:href="#DejaVuSans-30"/>
       <use xlink:href="#DejaVuSans-2e" x="63.623047"/>
       <use xlink:href="#DejaVuSans-30" x="95.410156"/>
      </g>
     </g>
    </g>
    <g id="ytick_4">
     <g id="line2d_8"/>
     <g id="text_5">
      <!-- 4.8 -->
      <g transform="translate(894.448811 457.28209) scale(0.1 -0.1)">
       <defs>
        <path id="DejaVuSans-38" d="M 2034 2216 
Q 1584 2216 1326 1975 
Q 1069 1734 1069 1313 
Q 1069 891 1326 650 
Q 1584 409 2034 409 
Q 2484 409 2743 651 
Q 3003 894 3003 1313 
Q 3003 1734 2745 1975 
Q 2488 2216 2034 2216 
z
M 1403 2484 
Q 997 2584 770 2862 
Q 544 3141 544 3541 
Q 544 4100 942 4425 
Q 1341 4750 2034 4750 
Q 2731 4750 3128 4425 
Q 3525 4100 3525 3541 
Q 3525 3141 3298 2862 
Q 3072 2584 2669 2484 
Q 3125 2378 3379 2068 
Q 3634 1759 3634 1313 
Q 3634 634 3220 271 
Q 2806 -91 2034 -91 
Q 1263 -91 848 271 
Q 434 634 434 1313 
Q 434 1759 690 2068 
Q 947 2378 1403 2484 
z
M 1172 3481 
Q 1172 3119 1398 2916 
Q 1625 2713 2034 2713 
Q 2441 2713 2670 2916 
Q 2900 3119 2900 3481 
Q 2900 3844 2670 4047 
Q 2441 4250 2034 4250 
Q 1625 4250 1398 4047 
Q 1172 3844 1172 3481 
z
" transform="scale(0.015625)"/>
       </defs>
       <use xlink:href="#DejaVuSans-34"/>
       <use xlink:href="#DejaVuSans-2e" x="63.623047"/>
       <use xlink:href="#DejaVuSans-38" x="95.410156"/>
      </g>
     </g>
    </g>
   </g>
   <g id="line2d_9">
    <path d="M 917.985907 494.786647 
L 919.142263 494.013117 
L 920.876796 491.904484 
L 921.454974 489.200394 
L 922.033152 487.253371 
L 922.611329 488.245969 
L 923.767685 491.038462 
L 924.345863 491.905982 
L 924.924041 492.480674 
L 925.502218 492.856719 
L 926.658574 493.239404 
L 928.393107 493.46379 
L 931.862174 493.689511 
L 933.01853 494.045074 
L 935.331241 494.365819 
L 939.378486 494.574616 
L 947.472975 494.711861 
L 974.069154 494.803552 
L 1000.665333 494.822575 
L 1000.665333 494.822575 
" clip-path="url(#p7991526056)" style="fill: none; stroke: #000000; stroke-opacity: 0.6; stroke-width: 1.5; stroke-linecap: square"/>
   </g>
   <g id="line2d_10">
    <path d="M 917.985907 494.786647 
L 919.142263 494.013117 
L 920.876796 491.904484 
L 921.454974 489.196767 
L 922.033152 487.252196 
L 922.611329 488.079682 
L 923.767685 491.06073 
L 924.345863 491.923148 
L 924.924041 492.494383 
L 925.502218 492.865099 
L 926.658574 493.240676 
L 928.393107 493.463689 
L 931.862174 493.688949 
L 933.01853 494.050521 
L 935.331241 494.368195 
L 939.378486 494.575454 
L 947.472975 494.712069 
L 974.069154 494.803588 
L 1000.665333 494.822584 
L 1000.665333 494.822584 
" clip-path="url(#p7991526056)" style="fill: none; stroke: #ff0000; stroke-opacity: 0.6; stroke-width: 1.5; stroke-linecap: square"/>
   </g>
   <g id="line2d_11">
    <path d="M 917.985907 494.78665 
L 919.142263 494.013286 
L 920.876796 491.904931 
L 922.033152 487.251408 
L 922.611329 488.052997 
L 923.767685 490.879963 
L 924.345863 491.736124 
L 924.924041 492.322517 
L 926.080396 493.035105 
L 927.236752 493.308352 
L 929.549463 493.529675 
L 931.862174 493.693616 
L 933.01853 494.048915 
L 935.331241 494.366508 
L 939.378486 494.57444 
L 947.472975 494.711821 
L 974.069154 494.803571 
L 1000.665333 494.822582 
L 1000.665333 494.822582 
" clip-path="url(#p7991526056)" style="fill: none; stroke: #0000ff; stroke-opacity: 0.6; stroke-width: 1.5; stroke-linecap: square"/>
   </g>
   <g id="line2d_12">
    <path d="M 917.985907 453.482871 
L 1000.665333 453.482871 
L 1000.665333 453.482871 
" clip-path="url(#p7991526056)" style="fill: none; stroke-dasharray: 5.55,2.4; stroke-dashoffset: 0; stroke: #ff0000; stroke-width: 1.5"/>
   </g>
   <g id="text_6">
    <!-- JC5 -->
    <g transform="translate(949.548432 445.415885) scale(0.12 -0.12)">
     <defs>
      <path id="DejaVuSans-43" d="M 4122 4306 
L 4122 3641 
Q 3803 3938 3442 4084 
Q 3081 4231 2675 4231 
Q 1875 4231 1450 3742 
Q 1025 3253 1025 2328 
Q 1025 1406 1450 917 
Q 1875 428 2675 428 
Q 3081 428 3442 575 
Q 3803 722 4122 1019 
L 4122 359 
Q 3791 134 3420 21 
Q 3050 -91 2638 -91 
Q 1578 -91 968 557 
Q 359 1206 359 2328 
Q 359 3453 968 4101 
Q 1578 4750 2638 4750 
Q 3056 4750 3426 4639 
Q 3797 4528 4122 4306 
z
" transform="scale(0.015625)"/>
      <path id="DejaVuSans-35" d="M 691 4666 
L 3169 4666 
L 3169 4134 
L 1269 4134 
L 1269 2991 
Q 1406 3038 1543 3061 
Q 1681 3084 1819 3084 
Q 2600 3084 3056 2656 
Q 3513 2228 3513 1497 
Q 3513 744 3044 326 
Q 2575 -91 1722 -91 
Q 1428 -91 1123 -41 
Q 819 9 494 109 
L 494 744 
Q 775 591 1075 516 
Q 1375 441 1709 441 
Q 2250 441 2565 725 
Q 2881 1009 2881 1497 
Q 2881 1984 2565 2268 
Q 2250 2553 1709 2553 
Q 1456 2553 1204 2497 
Q 953 2441 691 2322 
L 691 4666 
z
" transform="scale(0.015625)"/>
     </defs>
     <use xlink:href="#DejaVuSans-4a"/>
     <use xlink:href="#DejaVuSans-43" x="29.492188"/>
     <use xlink:href="#DejaVuSans-35" x="99.316406"/>
    </g>
   </g>
  </g>
  <g id="axes_4">
   <g id="patch_14">
    <path d="M 729.389126 313.616842 
L 820.336494 313.616842 
L 820.336494 268.143158 
L 729.389126 268.143158 
z
" style="fill: #ffffff"/>
   </g>
   <g id="matplotlib.axis_5"/>
   <g id="matplotlib.axis_6">
    <g id="ytick_5">
     <g id="line2d_13"/>
     <g id="text_7">
      <!-- 0.0 -->
      <g transform="translate(709.986001 315.424936) scale(0.1 -0.1)">
       <use xlink:href="#DejaVuSans-30"/>
       <use xlink:href="#DejaVuSans-2e" x="63.623047"/>
       <use xlink:href="#DejaVuSans-30" x="95.410156"/>
      </g>
     </g>
    </g>
    <g id="ytick_6">
     <g id="line2d_14"/>
     <g id="text_8">
      <!-- 6.2 -->
      <g transform="translate(709.986001 274.009362) scale(0.1 -0.1)">
       <defs>
        <path id="DejaVuSans-36" d="M 2113 2584 
Q 1688 2584 1439 2293 
Q 1191 2003 1191 1497 
Q 1191 994 1439 701 
Q 1688 409 2113 409 
Q 2538 409 2786 701 
Q 3034 994 3034 1497 
Q 3034 2003 2786 2293 
Q 2538 2584 2113 2584 
z
M 3366 4563 
L 3366 3988 
Q 3128 4100 2886 4159 
Q 2644 4219 2406 4219 
Q 1781 4219 1451 3797 
Q 1122 3375 1075 2522 
Q 1259 2794 1537 2939 
Q 1816 3084 2150 3084 
Q 2853 3084 3261 2657 
Q 3669 2231 3669 1497 
Q 3669 778 3244 343 
Q 2819 -91 2113 -91 
Q 1303 -91 875 529 
Q 447 1150 447 2328 
Q 447 3434 972 4092 
Q 1497 4750 2381 4750 
Q 2619 4750 2861 4703 
Q 3103 4656 3366 4563 
z
" transform="scale(0.015625)"/>
       </defs>
       <use xlink:href="#DejaVuSans-36"/>
       <use xlink:href="#DejaVuSans-2e" x="63.623047"/>
       <use xlink:href="#DejaVuSans-32" x="95.410156"/>
      </g>
     </g>
    </g>
   </g>
   <g id="line2d_15">
    <path d="M 733.523097 311.549094 
L 734.679453 310.81948 
L 735.25763 309.677032 
L 735.835808 306.838614 
L 736.992164 294.853227 
L 737.570342 295.238559 
L 738.726697 299.211494 
L 739.883053 306.302751 
L 740.461231 308.605967 
L 741.039408 309.905562 
L 742.195764 310.1675 
L 746.243009 310.412538 
L 747.399364 310.550208 
L 747.977542 310.917364 
L 749.133898 311.241175 
L 750.868431 311.407051 
L 754.915676 311.50022 
L 772.26101 311.531984 
L 816.202523 311.534247 
L 816.202523 311.534247 
" clip-path="url(#pbf6beb64af)" style="fill: none; stroke: #000000; stroke-opacity: 0.6; stroke-width: 1.5; stroke-linecap: square"/>
   </g>
   <g id="line2d_16">
    <path d="M 733.523097 311.549094 
L 734.679453 310.81948 
L 735.25763 309.677032 
L 735.835808 306.838614 
L 736.992164 294.851612 
L 737.570342 295.246367 
L 738.726697 299.027992 
L 739.883053 306.373293 
L 740.461231 308.662221 
L 741.039408 309.92084 
L 742.195764 310.168209 
L 746.243009 310.412738 
L 747.399364 310.549369 
L 747.977542 310.918457 
L 749.133898 311.245664 
L 750.868431 311.408504 
L 755.493854 311.505073 
L 776.308254 311.532732 
L 816.202523 311.534247 
L 816.202523 311.534247 
" clip-path="url(#pbf6beb64af)" style="fill: none; stroke: #ff0000; stroke-opacity: 0.6; stroke-width: 1.5; stroke-linecap: square"/>
   </g>
   <g id="line2d_17">
    <path d="M 733.523097 311.549856 
L 734.679453 310.845157 
L 735.25763 309.683072 
L 735.835808 306.825783 
L 736.413986 300.575236 
L 736.992164 291.445418 
L 737.570342 291.750872 
L 738.148519 293.836586 
L 738.726697 296.556372 
L 739.304875 301.795172 
L 739.883053 305.506516 
L 740.461231 308.09592 
L 741.039408 309.673113 
L 741.617586 310.097743 
L 743.930297 310.291525 
L 747.399364 310.560023 
L 747.977542 310.928025 
L 749.133898 311.24597 
L 750.868431 311.413705 
L 755.493854 311.505338 
L 770.526476 311.532512 
L 816.202523 311.537089 
L 816.202523 311.537089 
" clip-path="url(#pbf6beb64af)" style="fill: none; stroke: #0000ff; stroke-opacity: 0.6; stroke-width: 1.5; stroke-linecap: square"/>
   </g>
   <g id="line2d_18">
    <path d="M 733.523097 270.210144 
L 816.202523 270.210144 
L 816.202523 270.210144 
" clip-path="url(#pbf6beb64af)" style="fill: none; stroke-dasharray: 5.55,2.4; stroke-dashoffset: 0; stroke: #ff0000; stroke-width: 1.5"/>
   </g>
   <g id="text_9">
    <!-- R4 -->
    <g transform="translate(766.876247 262.143158) scale(0.12 -0.12)">
     <defs>
      <path id="DejaVuSans-52" d="M 2841 2188 
Q 3044 2119 3236 1894 
Q 3428 1669 3622 1275 
L 4263 0 
L 3584 0 
L 2988 1197 
Q 2756 1666 2539 1819 
Q 2322 1972 1947 1972 
L 1259 1972 
L 1259 0 
L 628 0 
L 628 4666 
L 2053 4666 
Q 2853 4666 3247 4331 
Q 3641 3997 3641 3322 
Q 3641 2881 3436 2590 
Q 3231 2300 2841 2188 
z
M 1259 4147 
L 1259 2491 
L 2053 2491 
Q 2509 2491 2742 2702 
Q 2975 2913 2975 3322 
Q 2975 3731 2742 3939 
Q 2509 4147 2053 4147 
L 1259 4147 
z
" transform="scale(0.015625)"/>
     </defs>
     <use xlink:href="#DejaVuSans-52"/>
     <use xlink:href="#DejaVuSans-34" x="69.482422"/>
    </g>
   </g>
  </g>
  <g id="axes_5">
   <g id="patch_15">
    <path d="M 176.000696 313.616842 
L 266.948064 313.616842 
L 266.948064 268.143158 
L 176.000696 268.143158 
z
" style="fill: #ffffff"/>
   </g>
   <g id="matplotlib.axis_7"/>
   <g id="matplotlib.axis_8">
    <g id="ytick_7">
     <g id="line2d_19"/>
     <g id="text_10">
      <!-- 0.0 -->
      <g transform="translate(156.597571 315.365203) scale(0.1 -0.1)">
       <use xlink:href="#DejaVuSans-30"/>
       <use xlink:href="#DejaVuSans-2e" x="63.623047"/>
       <use xlink:href="#DejaVuSans-30" x="95.410156"/>
      </g>
     </g>
    </g>
    <g id="ytick_8">
     <g id="line2d_20"/>
     <g id="text_11">
      <!-- 7.2 -->
      <g transform="translate(156.597571 274.009362) scale(0.1 -0.1)">
       <defs>
        <path id="DejaVuSans-37" d="M 525 4666 
L 3525 4666 
L 3525 4397 
L 1831 0 
L 1172 0 
L 2766 4134 
L 525 4134 
L 525 4666 
z
" transform="scale(0.015625)"/>
       </defs>
       <use xlink:href="#DejaVuSans-37"/>
       <use xlink:href="#DejaVuSans-2e" x="63.623047"/>
       <use xlink:href="#DejaVuSans-32" x="95.410156"/>
      </g>
     </g>
    </g>
   </g>
   <g id="line2d_21">
    <path d="M 180.134667 311.54973 
L 181.291023 311.146043 
L 181.869201 310.557127 
L 182.447378 309.283799 
L 183.025556 307.141495 
L 184.181912 294.413975 
L 184.76009 294.816816 
L 185.916445 298.91889 
L 186.494623 301.413212 
L 187.072801 304.575067 
L 187.650979 306.936859 
L 188.807334 310.382013 
L 189.385512 310.823099 
L 191.698223 310.854507 
L 194.010935 310.942805 
L 195.16729 311.29094 
L 196.901824 311.456431 
L 203.261779 311.512029 
L 262.814093 311.517853 
L 262.814093 311.517853 
" clip-path="url(#p7af8467e6f)" style="fill: none; stroke: #000000; stroke-opacity: 0.6; stroke-width: 1.5; stroke-linecap: square"/>
   </g>
   <g id="line2d_22">
    <path d="M 180.134667 311.54973 
L 181.291023 311.146043 
L 181.869201 310.557127 
L 182.447378 309.283799 
L 183.025556 307.141495 
L 184.181912 294.402343 
L 184.76009 294.601055 
L 185.916445 298.965563 
L 186.494623 301.491028 
L 187.072801 304.653894 
L 187.650979 306.999125 
L 188.807334 310.395152 
L 189.385512 310.82306 
L 191.698223 310.854469 
L 194.010935 310.942514 
L 195.16729 311.295746 
L 196.901824 311.457405 
L 203.261779 311.512078 
L 262.814093 311.517853 
L 262.814093 311.517853 
" clip-path="url(#p7af8467e6f)" style="fill: none; stroke: #ff0000; stroke-opacity: 0.6; stroke-width: 1.5; stroke-linecap: square"/>
   </g>
   <g id="line2d_23">
    <path d="M 180.134667 311.549856 
L 181.291023 311.146116 
L 181.869201 310.563191 
L 182.447378 309.266556 
L 183.025556 307.107561 
L 183.603734 300.35395 
L 184.181912 292.250451 
L 184.76009 292.567074 
L 185.916445 298.166485 
L 186.494623 300.582448 
L 187.650979 306.189959 
L 188.229156 308.500082 
L 188.807334 310.086952 
L 189.385512 310.812033 
L 194.010935 310.957605 
L 195.16729 311.299037 
L 196.901824 311.45749 
L 202.683602 311.511619 
L 262.814093 311.517813 
L 262.814093 311.517813 
" clip-path="url(#p7af8467e6f)" style="fill: none; stroke: #0000ff; stroke-opacity: 0.6; stroke-width: 1.5; stroke-linecap: square"/>
   </g>
   <g id="line2d_24">
    <path d="M 180.134667 270.210144 
L 262.814093 270.210144 
L 262.814093 270.210144 
" clip-path="url(#p7af8467e6f)" style="fill: none; stroke-dasharray: 5.55,2.4; stroke-dashoffset: 0; stroke: #ff0000; stroke-width: 1.5"/>
   </g>
   <g id="text_12">
    <!-- R1 -->
    <g transform="translate(213.487818 262.143158) scale(0.12 -0.12)">
     <defs>
      <path id="DejaVuSans-31" d="M 794 531 
L 1825 531 
L 1825 4091 
L 703 3866 
L 703 4441 
L 1819 4666 
L 2450 4666 
L 2450 531 
L 3481 531 
L 3481 0 
L 794 0 
L 794 531 
z
" transform="scale(0.015625)"/>
     </defs>
     <use xlink:href="#DejaVuSans-52"/>
     <use xlink:href="#DejaVuSans-31" x="69.482422"/>
    </g>
   </g>
  </g>
  <g id="axes_6">
   <g id="patch_16">
    <path d="M 176.000696 130.344115 
L 266.948064 130.344115 
L 266.948064 84.870431 
L 176.000696 84.870431 
z
" style="fill: #ffffff"/>
   </g>
   <g id="matplotlib.axis_9"/>
   <g id="matplotlib.axis_10">
    <g id="ytick_9">
     <g id="line2d_25"/>
     <g id="text_13">
      <!-- 0.0 -->
      <g transform="translate(156.597571 132.270619) scale(0.1 -0.1)">
       <use xlink:href="#DejaVuSans-30"/>
       <use xlink:href="#DejaVuSans-2e" x="63.623047"/>
       <use xlink:href="#DejaVuSans-30" x="95.410156"/>
      </g>
     </g>
    </g>
    <g id="ytick_10">
     <g id="line2d_26"/>
     <g id="text_14">
      <!-- 9.0 -->
      <g transform="translate(156.597571 90.736635) scale(0.1 -0.1)">
       <defs>
        <path id="DejaVuSans-39" d="M 703 97 
L 703 672 
Q 941 559 1184 500 
Q 1428 441 1663 441 
Q 2288 441 2617 861 
Q 2947 1281 2994 2138 
Q 2813 1869 2534 1725 
Q 2256 1581 1919 1581 
Q 1219 1581 811 2004 
Q 403 2428 403 3163 
Q 403 3881 828 4315 
Q 1253 4750 1959 4750 
Q 2769 4750 3195 4129 
Q 3622 3509 3622 2328 
Q 3622 1225 3098 567 
Q 2575 -91 1691 -91 
Q 1453 -91 1209 -44 
Q 966 3 703 97 
z
M 1959 2075 
Q 2384 2075 2632 2365 
Q 2881 2656 2881 3163 
Q 2881 3666 2632 3958 
Q 2384 4250 1959 4250 
Q 1534 4250 1286 3958 
Q 1038 3666 1038 3163 
Q 1038 2656 1286 2365 
Q 1534 2075 1959 2075 
z
" transform="scale(0.015625)"/>
       </defs>
       <use xlink:href="#DejaVuSans-39"/>
       <use xlink:href="#DejaVuSans-2e" x="63.623047"/>
       <use xlink:href="#DejaVuSans-30" x="95.410156"/>
      </g>
     </g>
    </g>
   </g>
   <g id="line2d_27">
    <path d="M 180.134667 128.277129 
L 180.712845 127.753047 
L 181.291023 127.466129 
L 181.869201 126.624032 
L 183.025556 125.616282 
L 183.603734 124.108656 
L 184.181912 120.929137 
L 184.76009 121.539253 
L 186.494623 126.509817 
L 187.072801 127.040623 
L 188.229156 127.296345 
L 188.807334 127.302244 
L 189.96369 127.159891 
L 194.010935 127.374613 
L 195.16729 127.839907 
L 196.901824 128.040612 
L 201.527246 128.167789 
L 216.559869 128.197721 
L 262.814093 128.199138 
L 262.814093 128.199138 
" clip-path="url(#pe81e689644)" style="fill: none; stroke: #000000; stroke-opacity: 0.6; stroke-width: 1.5; stroke-linecap: square"/>
   </g>
   <g id="line2d_28">
    <path d="M 180.134667 128.277129 
L 180.712845 127.753047 
L 181.291023 127.466129 
L 181.869201 126.624032 
L 183.025556 125.616282 
L 183.603734 124.103209 
L 184.181912 120.919973 
L 184.76009 121.356297 
L 186.494623 126.535775 
L 187.072801 127.048646 
L 188.229156 127.297609 
L 188.807334 127.302679 
L 189.96369 127.159881 
L 194.010935 127.373873 
L 195.16729 127.845469 
L 196.901824 128.042134 
L 201.527246 128.168071 
L 216.559869 128.197726 
L 262.814093 128.199138 
L 262.814093 128.199138 
" clip-path="url(#pe81e689644)" style="fill: none; stroke: #ff0000; stroke-opacity: 0.6; stroke-width: 1.5; stroke-linecap: square"/>
   </g>
   <g id="line2d_29">
    <path d="M 180.134667 128.27712 
L 180.712845 127.752978 
L 181.291023 127.466311 
L 181.869201 126.626756 
L 183.025556 125.618225 
L 183.603734 123.880914 
L 184.181912 119.101298 
L 184.76009 119.679382 
L 185.916445 124.33918 
L 186.494623 126.148752 
L 187.072801 126.982962 
L 187.650979 127.211163 
L 188.807334 127.331167 
L 189.96369 127.165612 
L 194.010935 127.382896 
L 195.16729 127.845791 
L 196.901824 128.042233 
L 201.527246 128.167521 
L 217.138047 128.197404 
L 262.814093 128.198758 
L 262.814093 128.198758 
" clip-path="url(#pe81e689644)" style="fill: none; stroke: #0000ff; stroke-opacity: 0.6; stroke-width: 1.5; stroke-linecap: square"/>
   </g>
   <g id="line2d_30">
    <path d="M 180.134667 86.937416 
L 262.814093 86.937416 
L 262.814093 86.937416 
" clip-path="url(#pe81e689644)" style="fill: none; stroke-dasharray: 5.55,2.4; stroke-dashoffset: 0; stroke: #ff0000; stroke-width: 1.5"/>
   </g>
   <g id="text_15">
    <!-- J1 -->
    <g transform="translate(215.88688 78.870431) scale(0.12 -0.12)">
     <use xlink:href="#DejaVuSans-4a"/>
     <use xlink:href="#DejaVuSans-31" x="29.492188"/>
    </g>
   </g>
  </g>
  <g id="axes_7">
   <g id="patch_17">
    <path d="M 913.851936 130.344115 
L 1004.799304 130.344115 
L 1004.799304 84.870431 
L 913.851936 84.870431 
z
" style="fill: #ffffff"/>
   </g>
   <g id="matplotlib.axis_11"/>
   <g id="matplotlib.axis_12">
    <g id="ytick_11">
     <g id="line2d_31"/>
     <g id="text_16">
      <!-- 0.0 -->
      <g transform="translate(894.448811 132.474638) scale(0.1 -0.1)">
       <use xlink:href="#DejaVuSans-30"/>
       <use xlink:href="#DejaVuSans-2e" x="63.623047"/>
       <use xlink:href="#DejaVuSans-30" x="95.410156"/>
      </g>
     </g>
    </g>
    <g id="ytick_12">
     <g id="line2d_32"/>
     <g id="text_17">
      <!-- 4.0 -->
      <g transform="translate(894.448811 90.736635) scale(0.1 -0.1)">
       <use xlink:href="#DejaVuSans-34"/>
       <use xlink:href="#DejaVuSans-2e" x="63.623047"/>
       <use xlink:href="#DejaVuSans-30" x="95.410156"/>
      </g>
     </g>
    </g>
   </g>
   <g id="line2d_33">
    <path d="M 917.985907 127.984085 
L 918.564085 127.098837 
L 919.142263 126.544665 
L 919.72044 124.71199 
L 920.298618 123.468488 
L 920.876796 121.659065 
L 921.454974 117.908649 
L 922.033152 119.431868 
L 922.611329 122.694239 
L 923.189507 123.992252 
L 923.767685 124.68078 
L 925.502218 125.811461 
L 926.658574 126.035218 
L 931.283996 126.388373 
L 931.862174 126.727416 
L 932.440352 127.341875 
L 933.596708 127.812937 
L 935.331241 128.070475 
L 938.800308 128.212923 
L 948.62933 128.267552 
L 1000.665333 128.277129 
L 1000.665333 128.277129 
" clip-path="url(#p081549c3d5)" style="fill: none; stroke: #000000; stroke-opacity: 0.6; stroke-width: 1.5; stroke-linecap: square"/>
   </g>
   <g id="line2d_34">
    <path d="M 917.985907 127.984085 
L 918.564085 127.098837 
L 919.142263 126.544665 
L 919.72044 124.71199 
L 920.298618 123.468488 
L 920.876796 121.659065 
L 921.454974 117.907467 
L 922.033152 119.389419 
L 922.611329 122.573171 
L 923.189507 123.859209 
L 923.767685 124.691016 
L 925.502218 125.817688 
L 927.236752 126.08091 
L 931.283996 126.388558 
L 931.862174 126.724504 
L 932.440352 127.343669 
L 933.01853 127.649657 
L 934.174885 127.939565 
L 936.487597 128.145659 
L 941.113019 128.241347 
L 960.192887 128.274554 
L 1000.665333 128.277129 
L 1000.665333 128.277129 
" clip-path="url(#p081549c3d5)" style="fill: none; stroke: #ff0000; stroke-opacity: 0.6; stroke-width: 1.5; stroke-linecap: square"/>
   </g>
   <g id="line2d_35">
    <path d="M 917.985907 127.984097 
L 918.564085 127.098843 
L 919.142263 126.545028 
L 919.72044 124.713604 
L 920.298618 123.466727 
L 920.876796 121.658868 
L 921.454974 117.880968 
L 922.033152 119.281139 
L 922.611329 122.668061 
L 923.189507 123.893901 
L 923.767685 124.707165 
L 925.502218 125.801836 
L 926.658574 126.035136 
L 931.283996 126.389141 
L 931.862174 126.749128 
L 932.440352 127.356104 
L 933.596708 127.820279 
L 935.331241 128.072926 
L 938.800308 128.213446 
L 949.207508 128.268325 
L 1000.665333 128.277129 
L 1000.665333 128.277129 
" clip-path="url(#p081549c3d5)" style="fill: none; stroke: #0000ff; stroke-opacity: 0.6; stroke-width: 1.5; stroke-linecap: square"/>
   </g>
   <g id="line2d_36">
    <path d="M 917.985907 86.937416 
L 1000.665333 86.937416 
L 1000.665333 86.937416 
" clip-path="url(#p081549c3d5)" style="fill: none; stroke-dasharray: 5.55,2.4; stroke-dashoffset: 0; stroke: #ff0000; stroke-width: 1.5"/>
   </g>
   <g id="text_18">
    <!-- J5a -->
    <g transform="translate(950.061245 78.870431) scale(0.12 -0.12)">
     <defs>
      <path id="DejaVuSans-61" d="M 2194 1759 
Q 1497 1759 1228 1600 
Q 959 1441 959 1056 
Q 959 750 1161 570 
Q 1363 391 1709 391 
Q 2188 391 2477 730 
Q 2766 1069 2766 1631 
L 2766 1759 
L 2194 1759 
z
M 3341 1997 
L 3341 0 
L 2766 0 
L 2766 531 
Q 2569 213 2275 61 
Q 1981 -91 1556 -91 
Q 1019 -91 701 211 
Q 384 513 384 1019 
Q 384 1609 779 1909 
Q 1175 2209 1959 2209 
L 2766 2209 
L 2766 2266 
Q 2766 2663 2505 2880 
Q 2244 3097 1772 3097 
Q 1472 3097 1187 3025 
Q 903 2953 641 2809 
L 641 3341 
Q 956 3463 1253 3523 
Q 1550 3584 1831 3584 
Q 2591 3584 2966 3190 
Q 3341 2797 3341 1997 
z
" transform="scale(0.015625)"/>
     </defs>
     <use xlink:href="#DejaVuSans-4a"/>
     <use xlink:href="#DejaVuSans-35" x="29.492188"/>
     <use xlink:href="#DejaVuSans-61" x="93.115234"/>
    </g>
   </g>
  </g>
  <g id="axes_8">
   <g id="patch_18">
    <path d="M 544.926316 496.889569 
L 635.873684 496.889569 
L 635.873684 451.415885 
L 544.926316 451.415885 
z
" style="fill: #ffffff"/>
   </g>
   <g id="matplotlib.axis_13"/>
   <g id="matplotlib.axis_14">
    <g id="ytick_13">
     <g id="line2d_37"/>
     <g id="text_19">
      <!-- 0.0 -->
      <g transform="translate(525.523191 498.621802) scale(0.1 -0.1)">
       <use xlink:href="#DejaVuSans-30"/>
       <use xlink:href="#DejaVuSans-2e" x="63.623047"/>
       <use xlink:href="#DejaVuSans-30" x="95.410156"/>
      </g>
     </g>
    </g>
    <g id="ytick_14">
     <g id="line2d_38"/>
     <g id="text_20">
      <!-- 12.0 -->
      <g transform="translate(519.160691 457.28209) scale(0.1 -0.1)">
       <use xlink:href="#DejaVuSans-31"/>
       <use xlink:href="#DejaVuSans-32" x="63.623047"/>
       <use xlink:href="#DejaVuSans-2e" x="127.246094"/>
       <use xlink:href="#DejaVuSans-30" x="159.033203"/>
      </g>
     </g>
    </g>
   </g>
   <g id="line2d_39">
    <path d="M 549.060287 494.822584 
L 551.951176 494.822584 
L 552.529354 479.483964 
L 553.107532 475.900692 
L 553.68571 476.773312 
L 554.263887 477.289693 
L 554.842065 477.501702 
L 556.576599 477.578855 
L 572.187399 477.596679 
L 631.739713 477.597362 
L 631.739713 477.597362 
" clip-path="url(#pfb1a02cc29)" style="fill: none; stroke: #000000; stroke-opacity: 0.6; stroke-width: 1.5; stroke-linecap: square"/>
   </g>
   <g id="line2d_40">
    <path d="M 549.060287 494.822584 
L 551.951176 494.822584 
L 552.529354 479.48559 
L 553.107532 475.905541 
L 553.68571 476.708665 
L 554.263887 477.248108 
L 554.842065 477.503633 
L 556.576599 477.57903 
L 572.765577 477.596728 
L 631.739713 477.597362 
L 631.739713 477.597362 
" clip-path="url(#pfb1a02cc29)" style="fill: none; stroke: #ff0000; stroke-opacity: 0.6; stroke-width: 1.5; stroke-linecap: square"/>
   </g>
   <g id="line2d_41">
    <path d="M 549.060287 494.822584 
L 551.951176 494.822584 
L 552.529354 475.680294 
L 553.107532 475.776215 
L 553.68571 476.471964 
L 554.842065 477.372189 
L 555.420243 477.527107 
L 558.311132 477.587416 
L 593.0018 477.597362 
L 631.739713 477.597362 
L 631.739713 477.597362 
" clip-path="url(#pfb1a02cc29)" style="fill: none; stroke: #0000ff; stroke-opacity: 0.6; stroke-width: 1.5; stroke-linecap: square"/>
   </g>
   <g id="line2d_42">
    <path d="M 549.060287 453.482871 
L 631.739713 453.482871 
L 631.739713 453.482871 
" clip-path="url(#pfb1a02cc29)" style="fill: none; stroke-dasharray: 5.55,2.4; stroke-dashoffset: 0; stroke: #ff0000; stroke-width: 1.5"/>
   </g>
   <g id="text_21">
    <!-- JC3a -->
    <g transform="translate(576.945938 445.415885) scale(0.12 -0.12)">
     <defs>
      <path id="DejaVuSans-33" d="M 2597 2516 
Q 3050 2419 3304 2112 
Q 3559 1806 3559 1356 
Q 3559 666 3084 287 
Q 2609 -91 1734 -91 
Q 1441 -91 1130 -33 
Q 819 25 488 141 
L 488 750 
Q 750 597 1062 519 
Q 1375 441 1716 441 
Q 2309 441 2620 675 
Q 2931 909 2931 1356 
Q 2931 1769 2642 2001 
Q 2353 2234 1838 2234 
L 1294 2234 
L 1294 2753 
L 1863 2753 
Q 2328 2753 2575 2939 
Q 2822 3125 2822 3475 
Q 2822 3834 2567 4026 
Q 2313 4219 1838 4219 
Q 1578 4219 1281 4162 
Q 984 4106 628 3988 
L 628 4550 
Q 988 4650 1302 4700 
Q 1616 4750 1894 4750 
Q 2613 4750 3031 4423 
Q 3450 4097 3450 3541 
Q 3450 3153 3228 2886 
Q 3006 2619 2597 2516 
z
" transform="scale(0.015625)"/>
     </defs>
     <use xlink:href="#DejaVuSans-4a"/>
     <use xlink:href="#DejaVuSans-43" x="29.492188"/>
     <use xlink:href="#DejaVuSans-33" x="99.316406"/>
     <use xlink:href="#DejaVuSans-61" x="162.939453"/>
    </g>
   </g>
  </g>
  <g id="axes_9">
   <g id="patch_19">
    <path d="M 360.463506 496.889569 
L 451.410874 496.889569 
L 451.410874 451.415885 
L 360.463506 451.415885 
z
" style="fill: #ffffff"/>
   </g>
   <g id="matplotlib.axis_15"/>
   <g id="matplotlib.axis_16">
    <g id="ytick_15">
     <g id="line2d_43"/>
     <g id="text_22">
      <!-- 0.0 -->
      <g transform="translate(341.060381 498.621802) scale(0.1 -0.1)">
       <use xlink:href="#DejaVuSans-30"/>
       <use xlink:href="#DejaVuSans-2e" x="63.623047"/>
       <use xlink:href="#DejaVuSans-30" x="95.410156"/>
      </g>
     </g>
    </g>
    <g id="ytick_16">
     <g id="line2d_44"/>
     <g id="text_23">
      <!-- 3.0 -->
      <g transform="translate(341.060381 457.28209) scale(0.1 -0.1)">
       <use xlink:href="#DejaVuSans-33"/>
       <use xlink:href="#DejaVuSans-2e" x="63.623047"/>
       <use xlink:href="#DejaVuSans-30" x="95.410156"/>
      </g>
     </g>
    </g>
   </g>
   <g id="line2d_45">
    <path d="M 364.597477 494.822584 
L 366.910188 494.822584 
L 367.488366 494.367196 
L 368.066544 489.773513 
L 368.644722 488.761116 
L 369.2229 491.811524 
L 369.801077 493.356965 
L 370.379255 493.9389 
L 370.957433 494.251985 
L 372.113789 494.512628 
L 374.4265 494.679814 
L 380.208278 494.772701 
L 404.491746 494.813643 
L 447.276903 494.818733 
L 447.276903 494.818733 
" clip-path="url(#pb3cc62af2c)" style="fill: none; stroke: #000000; stroke-opacity: 0.6; stroke-width: 1.5; stroke-linecap: square"/>
   </g>
   <g id="line2d_46">
    <path d="M 364.597477 494.822584 
L 366.910188 494.822584 
L 367.488366 494.367196 
L 368.066544 489.756285 
L 368.644722 488.757261 
L 369.2229 491.57225 
L 369.801077 493.255019 
L 370.379255 493.947003 
L 370.957433 494.257081 
L 372.113789 494.51465 
L 374.4265 494.679732 
L 380.208278 494.772871 
L 404.491746 494.813652 
L 447.276903 494.818734 
L 447.276903 494.818734 
" clip-path="url(#pb3cc62af2c)" style="fill: none; stroke: #ff0000; stroke-opacity: 0.6; stroke-width: 1.5; stroke-linecap: square"/>
   </g>
   <g id="line2d_47">
    <path d="M 364.597477 494.822584 
L 367.488366 494.806665 
L 368.066544 490.954459 
L 368.644722 489.34512 
L 369.2229 492.085661 
L 369.801077 493.421345 
L 370.379255 494.009465 
L 370.957433 494.284745 
L 372.113789 494.517871 
L 374.4265 494.683212 
L 380.786456 494.776813 
L 407.960812 494.814679 
L 447.276903 494.818743 
L 447.276903 494.818743 
" clip-path="url(#pb3cc62af2c)" style="fill: none; stroke: #0000ff; stroke-opacity: 0.6; stroke-width: 1.5; stroke-linecap: square"/>
   </g>
   <g id="line2d_48">
    <path d="M 364.597477 453.482871 
L 447.276903 453.482871 
L 447.276903 453.482871 
" clip-path="url(#pb3cc62af2c)" style="fill: none; stroke-dasharray: 5.55,2.4; stroke-dashoffset: 0; stroke: #ff0000; stroke-width: 1.5"/>
   </g>
   <g id="text_24">
    <!-- JC2 -->
    <g transform="translate(396.160003 445.415885) scale(0.12 -0.12)">
     <use xlink:href="#DejaVuSans-4a"/>
     <use xlink:href="#DejaVuSans-43" x="29.492188"/>
     <use xlink:href="#DejaVuSans-32" x="99.316406"/>
    </g>
   </g>
  </g>
  <g id="axes_10">
   <g id="patch_20">
    <path d="M 360.463506 130.344115 
L 451.410874 130.344115 
L 451.410874 84.870431 
L 360.463506 84.870431 
z
" style="fill: #ffffff"/>
   </g>
   <g id="matplotlib.axis_17"/>
   <g id="matplotlib.axis_18">
    <g id="ytick_17">
     <g id="line2d_49"/>
     <g id="text_25">
      <!-- 0.0 -->
      <g transform="translate(341.060381 132.488574) scale(0.1 -0.1)">
       <use xlink:href="#DejaVuSans-30"/>
       <use xlink:href="#DejaVuSans-2e" x="63.623047"/>
       <use xlink:href="#DejaVuSans-30" x="95.410156"/>
      </g>
     </g>
    </g>
    <g id="ytick_18">
     <g id="line2d_50"/>
     <g id="text_26">
      <!-- 4.2 -->
      <g transform="translate(341.060381 90.736635) scale(0.1 -0.1)">
       <use xlink:href="#DejaVuSans-34"/>
       <use xlink:href="#DejaVuSans-2e" x="63.623047"/>
       <use xlink:href="#DejaVuSans-32" x="95.410156"/>
      </g>
     </g>
    </g>
   </g>
   <g id="line2d_51">
    <path d="M 364.597477 128.058818 
L 365.175655 127.124893 
L 365.753833 126.574185 
L 366.332011 124.909867 
L 366.910188 123.842457 
L 367.488366 121.915183 
L 368.066544 105.247043 
L 368.644722 116.83772 
L 369.2229 123.155037 
L 369.801077 124.375368 
L 370.379255 125.015763 
L 372.691966 126.035284 
L 374.4265 126.197042 
L 377.317389 126.40785 
L 377.895567 126.445188 
L 378.473744 126.77199 
L 379.051922 127.369912 
L 380.208278 127.827858 
L 381.942811 128.080352 
L 385.411878 128.216258 
L 395.819079 128.268722 
L 447.276903 128.277129 
L 447.276903 128.277129 
" clip-path="url(#p40b419c5ee)" style="fill: none; stroke: #000000; stroke-opacity: 0.6; stroke-width: 1.5; stroke-linecap: square"/>
   </g>
   <g id="line2d_52">
    <path d="M 364.597477 128.058818 
L 365.175655 127.124893 
L 365.753833 126.574185 
L 366.332011 124.909867 
L 366.910188 123.842457 
L 367.488366 121.915183 
L 368.066544 105.279115 
L 368.644722 116.881079 
L 369.2229 123.041309 
L 369.801077 124.250164 
L 370.379255 125.024828 
L 371.535611 125.656747 
L 372.113789 125.929259 
L 373.848322 126.160227 
L 377.895567 126.445352 
L 378.473744 126.769328 
L 379.051922 127.371577 
L 379.6301 127.667181 
L 380.786456 127.946743 
L 382.520989 128.122602 
L 386.568234 128.232658 
L 401.022679 128.272625 
L 447.276903 128.277129 
L 447.276903 128.277129 
" clip-path="url(#p40b419c5ee)" style="fill: none; stroke: #ff0000; stroke-opacity: 0.6; stroke-width: 1.5; stroke-linecap: square"/>
   </g>
   <g id="line2d_53">
    <path d="M 364.597477 128.058261 
L 365.175655 127.124546 
L 365.753833 126.574523 
L 366.332011 124.910954 
L 366.910188 123.840988 
L 367.488366 119.469543 
L 368.066544 95.071364 
L 368.644722 108.225292 
L 369.2229 118.212362 
L 369.801077 124.122675 
L 370.379255 125.03951 
L 371.535611 125.702808 
L 372.691966 126.031603 
L 374.4265 126.19933 
L 377.317389 126.408763 
L 377.895567 126.439939 
L 378.473744 126.792139 
L 379.051922 127.382482 
L 380.208278 127.834522 
L 381.942811 128.08231 
L 385.411878 128.216136 
L 395.240901 128.267748 
L 447.276903 128.277124 
L 447.276903 128.277124 
" clip-path="url(#p40b419c5ee)" style="fill: none; stroke: #0000ff; stroke-opacity: 0.6; stroke-width: 1.5; stroke-linecap: square"/>
   </g>
   <g id="line2d_54">
    <path d="M 364.597477 86.937416 
L 447.276903 86.937416 
L 447.276903 86.937416 
" clip-path="url(#p40b419c5ee)" style="fill: none; stroke-dasharray: 5.55,2.4; stroke-dashoffset: 0; stroke: #ff0000; stroke-width: 1.5"/>
   </g>
   <g id="text_27">
    <!-- J2 -->
    <g transform="translate(400.34969 78.870431) scale(0.12 -0.12)">
     <use xlink:href="#DejaVuSans-4a"/>
     <use xlink:href="#DejaVuSans-32" x="29.492188"/>
    </g>
   </g>
  </g>
  <g id="axes_11">
   <g id="patch_21">
    <path d="M 176.000696 496.889569 
L 266.948064 496.889569 
L 266.948064 451.415885 
L 176.000696 451.415885 
z
" style="fill: #ffffff"/>
   </g>
   <g id="matplotlib.axis_19"/>
   <g id="matplotlib.axis_20">
    <g id="ytick_19">
     <g id="line2d_55"/>
     <g id="text_28">
      <!-- 0.0 -->
      <g transform="translate(156.597571 498.621802) scale(0.1 -0.1)">
       <use xlink:href="#DejaVuSans-30"/>
       <use xlink:href="#DejaVuSans-2e" x="63.623047"/>
       <use xlink:href="#DejaVuSans-30" x="95.410156"/>
      </g>
     </g>
    </g>
    <g id="ytick_20">
     <g id="line2d_56"/>
     <g id="text_29">
      <!-- 3.0 -->
      <g transform="translate(156.597571 457.28209) scale(0.1 -0.1)">
       <use xlink:href="#DejaVuSans-33"/>
       <use xlink:href="#DejaVuSans-2e" x="63.623047"/>
       <use xlink:href="#DejaVuSans-30" x="95.410156"/>
      </g>
     </g>
    </g>
   </g>
   <g id="line2d_57">
    <path d="M 180.134667 494.822584 
L 262.814093 494.822584 
L 262.814093 494.822584 
" clip-path="url(#p39140cd5aa)" style="fill: none; stroke: #000000; stroke-opacity: 0.6; stroke-width: 1.5; stroke-linecap: square"/>
   </g>
   <g id="line2d_58">
    <path d="M 180.134667 494.822584 
L 262.814093 494.822584 
L 262.814093 494.822584 
" clip-path="url(#p39140cd5aa)" style="fill: none; stroke: #ff0000; stroke-opacity: 0.6; stroke-width: 1.5; stroke-linecap: square"/>
   </g>
   <g id="line2d_59">
    <path d="M 180.134667 494.822584 
L 262.814093 494.822584 
L 262.814093 494.822584 
" clip-path="url(#p39140cd5aa)" style="fill: none; stroke: #0000ff; stroke-opacity: 0.6; stroke-width: 1.5; stroke-linecap: square"/>
   </g>
   <g id="line2d_60">
    <path d="M 180.134667 453.482871 
L 262.814093 453.482871 
L 262.814093 453.482871 
" clip-path="url(#p39140cd5aa)" style="fill: none; stroke-dasharray: 5.55,2.4; stroke-dashoffset: 0; stroke: #ff0000; stroke-width: 1.5"/>
   </g>
   <g id="text_30">
    <!-- JC1b -->
    <g transform="translate(207.88813 445.415885) scale(0.12 -0.12)">
     <defs>
      <path id="DejaVuSans-62" d="M 3116 1747 
Q 3116 2381 2855 2742 
Q 2594 3103 2138 3103 
Q 1681 3103 1420 2742 
Q 1159 2381 1159 1747 
Q 1159 1113 1420 752 
Q 1681 391 2138 391 
Q 2594 391 2855 752 
Q 3116 1113 3116 1747 
z
M 1159 2969 
Q 1341 3281 1617 3432 
Q 1894 3584 2278 3584 
Q 2916 3584 3314 3078 
Q 3713 2572 3713 1747 
Q 3713 922 3314 415 
Q 2916 -91 2278 -91 
Q 1894 -91 1617 61 
Q 1341 213 1159 525 
L 1159 0 
L 581 0 
L 581 4863 
L 1159 4863 
L 1159 2969 
z
" transform="scale(0.015625)"/>
     </defs>
     <use xlink:href="#DejaVuSans-4a"/>
     <use xlink:href="#DejaVuSans-43" x="29.492188"/>
     <use xlink:href="#DejaVuSans-31" x="99.316406"/>
     <use xlink:href="#DejaVuSans-62" x="162.939453"/>
    </g>
   </g>
  </g>
  <g id="axes_12">
   <g id="patch_22">
    <path d="M 544.926316 130.344115 
L 635.873684 130.344115 
L 635.873684 84.870431 
L 544.926316 84.870431 
z
" style="fill: #ffffff"/>
   </g>
   <g id="matplotlib.axis_21"/>
   <g id="matplotlib.axis_22">
    <g id="ytick_21">
     <g id="line2d_61"/>
     <g id="text_31">
      <!-- 0.0 -->
      <g transform="translate(525.523191 132.381464) scale(0.1 -0.1)">
       <use xlink:href="#DejaVuSans-30"/>
       <use xlink:href="#DejaVuSans-2e" x="63.623047"/>
       <use xlink:href="#DejaVuSans-30" x="95.410156"/>
      </g>
     </g>
    </g>
    <g id="ytick_22">
     <g id="line2d_62"/>
     <g id="text_32">
      <!-- 4.8 -->
      <g transform="translate(525.523191 90.736635) scale(0.1 -0.1)">
       <use xlink:href="#DejaVuSans-34"/>
       <use xlink:href="#DejaVuSans-2e" x="63.623047"/>
       <use xlink:href="#DejaVuSans-38" x="95.410156"/>
      </g>
     </g>
    </g>
   </g>
   <g id="line2d_63">
    <path d="M 549.060287 128.088024 
L 549.638465 127.394783 
L 550.216643 126.983848 
L 550.79482 125.604637 
L 551.372998 124.788661 
L 551.951176 123.597505 
L 552.529354 115.377882 
L 553.68571 124.397605 
L 554.263887 125.271774 
L 554.842065 125.740367 
L 556.576599 126.525802 
L 558.311132 126.698487 
L 562.358377 126.918685 
L 562.936554 127.166218 
L 563.514732 127.666952 
L 564.671088 128.013784 
L 566.405621 128.176202 
L 571.031044 128.257609 
L 598.2054 128.276615 
L 631.739713 128.277129 
L 631.739713 128.277129 
" clip-path="url(#p4fc7160a53)" style="fill: none; stroke: #000000; stroke-opacity: 0.6; stroke-width: 1.5; stroke-linecap: square"/>
   </g>
   <g id="line2d_64">
    <path d="M 549.060287 128.088024 
L 549.638465 127.394783 
L 550.216643 126.983848 
L 550.79482 125.604637 
L 551.372998 124.788661 
L 551.951176 123.597505 
L 552.529354 115.369257 
L 553.68571 124.318505 
L 554.263887 125.180447 
L 554.842065 125.747176 
L 556.576599 126.529544 
L 558.311132 126.698449 
L 562.358377 126.918799 
L 562.936554 127.164264 
L 563.514732 127.668271 
L 564.671088 128.018218 
L 566.405621 128.17753 
L 571.031044 128.257754 
L 598.783578 128.276641 
L 631.739713 128.277129 
L 631.739713 128.277129 
" clip-path="url(#p4fc7160a53)" style="fill: none; stroke: #ff0000; stroke-opacity: 0.6; stroke-width: 1.5; stroke-linecap: square"/>
   </g>
   <g id="line2d_65">
    <path d="M 549.060287 128.088034 
L 549.638465 127.394778 
L 550.216643 126.984043 
L 550.79482 125.60548 
L 551.372998 124.787804 
L 551.951176 123.597316 
L 552.529354 120.23592 
L 553.68571 124.379984 
L 554.263887 125.204883 
L 554.842065 125.757753 
L 556.576599 126.519151 
L 558.311132 126.697709 
L 562.358377 126.919167 
L 562.936554 127.184237 
L 563.514732 127.678888 
L 564.671088 128.018625 
L 566.405621 128.177643 
L 571.031044 128.257765 
L 598.783578 128.276641 
L 631.739713 128.277129 
L 631.739713 128.277129 
" clip-path="url(#p4fc7160a53)" style="fill: none; stroke: #0000ff; stroke-opacity: 0.6; stroke-width: 1.5; stroke-linecap: square"/>
   </g>
   <g id="line2d_66">
    <path d="M 549.060287 86.937416 
L 631.739713 86.937416 
L 631.739713 86.937416 
" clip-path="url(#p4fc7160a53)" style="fill: none; stroke-dasharray: 5.55,2.4; stroke-dashoffset: 0; stroke: #ff0000; stroke-width: 1.5"/>
   </g>
   <g id="text_33">
    <!-- J3 -->
    <g transform="translate(584.8125 78.870431) scale(0.12 -0.12)">
     <use xlink:href="#DejaVuSans-4a"/>
     <use xlink:href="#DejaVuSans-33" x="29.492188"/>
    </g>
   </g>
  </g>
  <g id="axes_13">
   <g id="patch_23">
    <path d="M 544.926316 313.616842 
L 635.873684 313.616842 
L 635.873684 268.143158 
L 544.926316 268.143158 
z
" style="fill: #ffffff"/>
   </g>
   <g id="matplotlib.axis_23"/>
   <g id="matplotlib.axis_24">
    <g id="ytick_23">
     <g id="line2d_67"/>
     <g id="text_34">
      <!-- 0.0 -->
      <g transform="translate(525.523191 315.469582) scale(0.1 -0.1)">
       <use xlink:href="#DejaVuSans-30"/>
       <use xlink:href="#DejaVuSans-2e" x="63.623047"/>
       <use xlink:href="#DejaVuSans-30" x="95.410156"/>
      </g>
     </g>
    </g>
    <g id="ytick_24">
     <g id="line2d_68"/>
     <g id="text_35">
      <!-- 12.0 -->
      <g transform="translate(519.160691 274.009362) scale(0.1 -0.1)">
       <use xlink:href="#DejaVuSans-31"/>
       <use xlink:href="#DejaVuSans-32" x="63.623047"/>
       <use xlink:href="#DejaVuSans-2e" x="127.246094"/>
       <use xlink:href="#DejaVuSans-30" x="159.033203"/>
      </g>
     </g>
    </g>
   </g>
   <g id="line2d_69">
    <path d="M 549.060287 311.549848 
L 549.638465 310.96317 
L 550.216643 310.56422 
L 550.79482 309.253898 
L 551.372998 306.803855 
L 551.951176 300.401897 
L 552.529354 286.001858 
L 553.107532 286.787358 
L 553.68571 289.494217 
L 554.263887 290.340666 
L 554.842065 293.09118 
L 556.576599 306.260712 
L 557.154776 308.829302 
L 557.732954 309.819296 
L 558.88931 309.983369 
L 562.936554 310.308027 
L 563.514732 310.737313 
L 564.09291 311.018441 
L 565.249266 311.268012 
L 567.561977 311.409692 
L 574.50011 311.462578 
L 631.739713 311.470019 
L 631.739713 311.470019 
" clip-path="url(#p28e7194581)" style="fill: none; stroke: #000000; stroke-opacity: 0.6; stroke-width: 1.5; stroke-linecap: square"/>
   </g>
   <g id="line2d_70">
    <path d="M 549.060287 311.549848 
L 549.638465 310.96317 
L 550.216643 310.56422 
L 550.79482 309.253898 
L 551.372998 306.803855 
L 551.951176 300.401897 
L 552.529354 286.002765 
L 553.107532 286.814117 
L 553.68571 289.438041 
L 554.263887 290.252872 
L 554.842065 293.17416 
L 556.576599 306.377811 
L 557.154776 308.873647 
L 557.732954 309.823458 
L 558.88931 309.983316 
L 562.936554 310.307185 
L 563.514732 310.738653 
L 564.09291 311.027216 
L 565.249266 311.271502 
L 567.561977 311.41042 
L 574.50011 311.462621 
L 631.739713 311.470019 
L 631.739713 311.470019 
" clip-path="url(#p28e7194581)" style="fill: none; stroke: #ff0000; stroke-opacity: 0.6; stroke-width: 1.5; stroke-linecap: square"/>
   </g>
   <g id="line2d_71">
    <path d="M 549.060287 311.549856 
L 549.638465 310.964754 
L 550.216643 310.572933 
L 550.79482 309.260186 
L 551.372998 305.982639 
L 552.529354 289.002732 
L 553.107532 289.408091 
L 553.68571 290.296322 
L 554.263887 290.764596 
L 554.842065 292.043816 
L 555.998421 298.630992 
L 557.154776 306.12331 
L 557.732954 307.893816 
L 558.311132 309.023571 
L 558.88931 309.743842 
L 559.467488 310.030941 
L 562.936554 310.342508 
L 563.514732 310.770261 
L 564.09291 311.040922 
L 565.249266 311.278632 
L 567.561977 311.413925 
L 574.50011 311.465012 
L 631.739713 311.470097 
L 631.739713 311.470097 
" clip-path="url(#p28e7194581)" style="fill: none; stroke: #0000ff; stroke-opacity: 0.6; stroke-width: 1.5; stroke-linecap: square"/>
   </g>
   <g id="line2d_72">
    <path d="M 549.060287 270.210144 
L 631.739713 270.210144 
L 631.739713 270.210144 
" clip-path="url(#p28e7194581)" style="fill: none; stroke-dasharray: 5.55,2.4; stroke-dashoffset: 0; stroke: #ff0000; stroke-width: 1.5"/>
   </g>
   <g id="text_36">
    <!-- R3 -->
    <g transform="translate(582.413437 262.143158) scale(0.12 -0.12)">
     <use xlink:href="#DejaVuSans-52"/>
     <use xlink:href="#DejaVuSans-33" x="69.482422"/>
    </g>
   </g>
  </g>
  <g id="axes_14">
   <g id="patch_24">
    <path d="M 729.389126 496.889569 
L 820.336494 496.889569 
L 820.336494 451.415885 
L 729.389126 451.415885 
z
" style="fill: #ffffff"/>
   </g>
   <g id="matplotlib.axis_25"/>
   <g id="matplotlib.axis_26">
    <g id="ytick_25">
     <g id="line2d_73"/>
     <g id="text_37">
      <!-- 0.0 -->
      <g transform="translate(709.986001 498.621802) scale(0.1 -0.1)">
       <use xlink:href="#DejaVuSans-30"/>
       <use xlink:href="#DejaVuSans-2e" x="63.623047"/>
       <use xlink:href="#DejaVuSans-30" x="95.410156"/>
      </g>
     </g>
    </g>
    <g id="ytick_26">
     <g id="line2d_74"/>
     <g id="text_38">
      <!-- 3.0 -->
      <g transform="translate(709.986001 457.28209) scale(0.1 -0.1)">
       <use xlink:href="#DejaVuSans-33"/>
       <use xlink:href="#DejaVuSans-2e" x="63.623047"/>
       <use xlink:href="#DejaVuSans-30" x="95.410156"/>
      </g>
     </g>
    </g>
   </g>
   <g id="line2d_75">
    <path d="M 733.523097 494.822584 
L 735.835808 494.822584 
L 736.413986 494.670738 
L 737.570342 485.596552 
L 738.148519 485.295455 
L 739.304875 489.9205 
L 739.883053 491.509414 
L 740.461231 492.491378 
L 741.039408 493.061363 
L 742.195764 493.731236 
L 743.35212 494.051399 
L 745.086653 494.313193 
L 748.55572 494.533109 
L 756.072031 494.688302 
L 775.151899 494.777478 
L 816.202523 494.81017 
L 816.202523 494.81017 
" clip-path="url(#p1aa9968c39)" style="fill: none; stroke: #000000; stroke-opacity: 0.6; stroke-width: 1.5; stroke-linecap: square"/>
   </g>
   <g id="line2d_76">
    <path d="M 733.523097 494.822584 
L 735.835808 494.822584 
L 736.413986 494.670738 
L 737.570342 485.587776 
L 738.148519 485.054484 
L 739.304875 489.960775 
L 739.883053 491.5403 
L 740.461231 492.512257 
L 741.039408 493.074469 
L 742.195764 493.733521 
L 743.930297 494.15927 
L 746.243009 494.411041 
L 750.290253 494.589645 
L 759.541098 494.718749 
L 786.715455 494.793759 
L 816.202523 494.810178 
L 816.202523 494.810178 
" clip-path="url(#p1aa9968c39)" style="fill: none; stroke: #ff0000; stroke-opacity: 0.6; stroke-width: 1.5; stroke-linecap: square"/>
   </g>
   <g id="line2d_77">
    <path d="M 733.523097 494.822584 
L 736.413986 494.820978 
L 736.992164 490.802271 
L 737.570342 485.457313 
L 738.148519 484.940169 
L 739.304875 489.54017 
L 739.883053 491.126718 
L 740.461231 492.156875 
L 741.039408 492.829083 
L 741.617586 493.325874 
L 742.773942 493.844076 
L 743.930297 494.129546 
L 746.821186 494.44083 
L 752.024787 494.627899 
L 763.588343 494.741904 
L 800.591722 494.803904 
L 816.202523 494.810176 
L 816.202523 494.810176 
" clip-path="url(#p1aa9968c39)" style="fill: none; stroke: #0000ff; stroke-opacity: 0.6; stroke-width: 1.5; stroke-linecap: square"/>
   </g>
   <g id="line2d_78">
    <path d="M 733.523097 453.482871 
L 816.202523 453.482871 
L 816.202523 453.482871 
" clip-path="url(#p1aa9968c39)" style="fill: none; stroke-dasharray: 5.55,2.4; stroke-dashoffset: 0; stroke: #ff0000; stroke-width: 1.5"/>
   </g>
   <g id="text_39">
    <!-- JC4c -->
    <g transform="translate(761.78656 445.415885) scale(0.12 -0.12)">
     <defs>
      <path id="DejaVuSans-63" d="M 3122 3366 
L 3122 2828 
Q 2878 2963 2633 3030 
Q 2388 3097 2138 3097 
Q 1578 3097 1268 2742 
Q 959 2388 959 1747 
Q 959 1106 1268 751 
Q 1578 397 2138 397 
Q 2388 397 2633 464 
Q 2878 531 3122 666 
L 3122 134 
Q 2881 22 2623 -34 
Q 2366 -91 2075 -91 
Q 1284 -91 818 406 
Q 353 903 353 1747 
Q 353 2603 823 3093 
Q 1294 3584 2113 3584 
Q 2378 3584 2631 3529 
Q 2884 3475 3122 3366 
z
" transform="scale(0.015625)"/>
     </defs>
     <use xlink:href="#DejaVuSans-4a"/>
     <use xlink:href="#DejaVuSans-43" x="29.492188"/>
     <use xlink:href="#DejaVuSans-34" x="99.316406"/>
     <use xlink:href="#DejaVuSans-63" x="162.939453"/>
    </g>
   </g>
  </g>
  <g id="axes_15">
   <g id="patch_25">
    <path d="M 360.463506 313.616842 
L 451.410874 313.616842 
L 451.410874 268.143158 
L 360.463506 268.143158 
z
" style="fill: #ffffff"/>
   </g>
   <g id="matplotlib.axis_27"/>
   <g id="matplotlib.axis_28">
    <g id="ytick_27">
     <g id="line2d_79"/>
     <g id="text_40">
      <!-- 0.0 -->
      <g transform="translate(341.060381 315.42268) scale(0.1 -0.1)">
       <use xlink:href="#DejaVuSans-30"/>
       <use xlink:href="#DejaVuSans-2e" x="63.623047"/>
       <use xlink:href="#DejaVuSans-30" x="95.410156"/>
      </g>
     </g>
    </g>
    <g id="ytick_28">
     <g id="line2d_80"/>
     <g id="text_41">
      <!-- 6.0 -->
      <g transform="translate(341.060381 274.009362) scale(0.1 -0.1)">
       <use xlink:href="#DejaVuSans-36"/>
       <use xlink:href="#DejaVuSans-2e" x="63.623047"/>
       <use xlink:href="#DejaVuSans-30" x="95.410156"/>
      </g>
     </g>
    </g>
   </g>
   <g id="line2d_81">
    <path d="M 364.597477 311.474107 
L 365.753833 310.79265 
L 366.332011 309.232629 
L 366.910188 305.950375 
L 367.488366 299.226016 
L 368.066544 295.101448 
L 368.644722 295.970341 
L 369.2229 298.691355 
L 369.801077 304.430245 
L 370.379255 308.337613 
L 370.957433 309.751231 
L 371.535611 310.119573 
L 372.113789 310.327159 
L 373.848322 310.491199 
L 377.895567 310.671405 
L 378.473744 310.834658 
L 379.051922 311.171634 
L 380.208278 311.387749 
L 382.520989 311.498503 
L 391.193656 311.54228 
L 447.276903 311.547114 
L 447.276903 311.547114 
" clip-path="url(#pf93bd29cad)" style="fill: none; stroke: #000000; stroke-opacity: 0.6; stroke-width: 1.5; stroke-linecap: square"/>
   </g>
   <g id="line2d_82">
    <path d="M 364.597477 311.474107 
L 365.753833 310.79265 
L 366.332011 309.232629 
L 366.910188 305.950375 
L 367.488366 299.226016 
L 368.066544 295.093192 
L 368.644722 295.971651 
L 369.2229 298.121602 
L 369.801077 303.86014 
L 370.379255 308.390935 
L 370.957433 309.766548 
L 371.535611 310.128963 
L 372.113789 310.330626 
L 373.848322 310.491168 
L 377.895567 310.671502 
L 378.473744 310.833626 
L 379.051922 311.172458 
L 380.208278 311.390591 
L 383.099167 311.508976 
L 394.662723 311.544367 
L 447.276903 311.547114 
L 447.276903 311.547114 
" clip-path="url(#pf93bd29cad)" style="fill: none; stroke: #ff0000; stroke-opacity: 0.6; stroke-width: 1.5; stroke-linecap: square"/>
   </g>
   <g id="line2d_83">
    <path d="M 364.597477 311.476307 
L 365.753833 310.792894 
L 366.332011 309.234507 
L 366.910188 305.752218 
L 368.066544 288.637553 
L 368.644722 289.551718 
L 369.2229 292.420854 
L 370.379255 307.030708 
L 370.957433 308.260942 
L 371.535611 309.825763 
L 372.113789 310.363772 
L 373.848322 310.501265 
L 377.895567 310.692629 
L 378.473744 310.850268 
L 379.051922 311.183827 
L 380.208278 311.390862 
L 383.099167 311.511934 
L 401.600857 311.545967 
L 432.822458 311.548407 
L 447.276903 311.547112 
L 447.276903 311.547112 
" clip-path="url(#pf93bd29cad)" style="fill: none; stroke: #0000ff; stroke-opacity: 0.6; stroke-width: 1.5; stroke-linecap: square"/>
   </g>
   <g id="line2d_84">
    <path d="M 364.597477 270.210144 
L 447.276903 270.210144 
L 447.276903 270.210144 
" clip-path="url(#pf93bd29cad)" style="fill: none; stroke-dasharray: 5.55,2.4; stroke-dashoffset: 0; stroke: #ff0000; stroke-width: 1.5"/>
   </g>
   <g id="text_42">
    <!-- R2 -->
    <g transform="translate(397.950628 262.143158) scale(0.12 -0.12)">
     <use xlink:href="#DejaVuSans-52"/>
     <use xlink:href="#DejaVuSans-32" x="69.482422"/>
    </g>
   </g>
  </g>
  <g id="axes_16">
   <g id="patch_26">
    <path d="M 913.851936 313.616842 
L 1004.799304 313.616842 
L 1004.799304 268.143158 
L 913.851936 268.143158 
z
" style="fill: #ffffff"/>
   </g>
   <g id="matplotlib.axis_29"/>
   <g id="matplotlib.axis_30">
    <g id="ytick_29">
     <g id="line2d_85"/>
     <g id="text_43">
      <!-- 0.0 -->
      <g transform="translate(894.448811 315.383594) scale(0.1 -0.1)">
       <use xlink:href="#DejaVuSans-30"/>
       <use xlink:href="#DejaVuSans-2e" x="63.623047"/>
       <use xlink:href="#DejaVuSans-30" x="95.410156"/>
      </g>
     </g>
    </g>
    <g id="ytick_30">
     <g id="line2d_86"/>
     <g id="text_44">
      <!-- 5.2 -->
      <g transform="translate(894.448811 274.009362) scale(0.1 -0.1)">
       <use xlink:href="#DejaVuSans-35"/>
       <use xlink:href="#DejaVuSans-2e" x="63.623047"/>
       <use xlink:href="#DejaVuSans-32" x="95.410156"/>
      </g>
     </g>
    </g>
   </g>
   <g id="line2d_87">
    <path d="M 917.985907 311.549854 
L 919.142263 310.798391 
L 919.72044 309.732322 
L 920.298618 306.889169 
L 920.876796 301.571511 
L 921.454974 289.575652 
L 922.033152 288.674986 
L 922.611329 291.233759 
L 923.189507 294.662477 
L 923.767685 300.664569 
L 924.345863 305.090221 
L 924.924041 307.925789 
L 925.502218 309.684846 
L 926.080396 309.998877 
L 927.81493 310.15775 
L 931.862174 310.438092 
L 933.01853 311.06028 
L 934.174885 311.278732 
L 936.487597 311.4138 
L 943.42573 311.472431 
L 1000.665333 311.482236 
L 1000.665333 311.482236 
" clip-path="url(#p9f919cf7f2)" style="fill: none; stroke: #000000; stroke-opacity: 0.6; stroke-width: 1.5; stroke-linecap: square"/>
   </g>
   <g id="line2d_88">
    <path d="M 917.985907 311.549854 
L 919.142263 310.798391 
L 919.72044 309.732322 
L 920.298618 306.889169 
L 920.876796 301.571511 
L 921.454974 289.574505 
L 922.033152 288.678287 
L 922.611329 290.993291 
L 923.189507 294.27211 
L 923.767685 300.787035 
L 924.345863 305.178175 
L 924.924041 307.99425 
L 925.502218 309.7137 
L 926.080396 310.00113 
L 927.81493 310.157703 
L 931.862174 310.437454 
L 933.01853 311.068003 
L 934.174885 311.281961 
L 936.487597 311.414554 
L 943.42573 311.472486 
L 1000.665333 311.482236 
L 1000.665333 311.482236 
" clip-path="url(#p9f919cf7f2)" style="fill: none; stroke: #ff0000; stroke-opacity: 0.6; stroke-width: 1.5; stroke-linecap: square"/>
   </g>
   <g id="line2d_89">
    <path d="M 917.985907 311.549856 
L 919.142263 310.798556 
L 919.72044 309.745144 
L 920.298618 306.876272 
L 920.876796 301.554764 
L 921.454974 289.039958 
L 922.033152 288.016189 
L 922.611329 290.427113 
L 923.189507 293.910153 
L 923.767685 300.665306 
L 924.345863 304.873586 
L 924.924041 307.500496 
L 925.502218 309.487077 
L 926.080396 310.06708 
L 928.393107 310.234206 
L 931.283996 310.38954 
L 931.862174 310.47158 
L 933.01853 311.079772 
L 934.174885 311.288629 
L 936.487597 311.418134 
L 943.42573 311.474786 
L 1000.665333 311.482685 
L 1000.665333 311.482685 
" clip-path="url(#p9f919cf7f2)" style="fill: none; stroke: #0000ff; stroke-opacity: 0.6; stroke-width: 1.5; stroke-linecap: square"/>
   </g>
   <g id="line2d_90">
    <path d="M 917.985907 270.210144 
L 1000.665333 270.210144 
L 1000.665333 270.210144 
" clip-path="url(#p9f919cf7f2)" style="fill: none; stroke-dasharray: 5.55,2.4; stroke-dashoffset: 0; stroke: #ff0000; stroke-width: 1.5"/>
   </g>
   <g id="text_45">
    <!-- R5 -->
    <g transform="translate(951.339057 262.143158) scale(0.12 -0.12)">
     <use xlink:href="#DejaVuSans-52"/>
     <use xlink:href="#DejaVuSans-35" x="69.482422"/>
    </g>
   </g>
   <g id="legend_1">
    <g id="patch_27">
     <path d="M 798.092026 340.842336 
L 1120.559214 340.842336 
Q 1122.559214 340.842336 1122.559214 338.842336 
L 1122.559214 325.164211 
Q 1122.559214 323.164211 1120.559214 323.164211 
L 798.092026 323.164211 
Q 796.092026 323.164211 796.092026 325.164211 
L 796.092026 338.842336 
Q 796.092026 340.842336 798.092026 340.842336 
z
" style="fill: #ffffff; opacity: 0.8; stroke: #cccccc; stroke-linejoin: miter"/>
    </g>
    <g id="patch_28">
     <path d="M 800.092026 334.762648 
L 820.092026 334.762648 
L 820.092026 327.762648 
L 800.092026 327.762648 
z
" style="stroke: #000000; stroke-linejoin: miter"/>
    </g>
    <g id="text_46">
     <!-- Uncontrolled -->
     <g transform="translate(828.092026 334.762648) scale(0.1 -0.1)">
      <defs>
       <path id="DejaVuSans-55" d="M 556 4666 
L 1191 4666 
L 1191 1831 
Q 1191 1081 1462 751 
Q 1734 422 2344 422 
Q 2950 422 3222 751 
Q 3494 1081 3494 1831 
L 3494 4666 
L 4128 4666 
L 4128 1753 
Q 4128 841 3676 375 
Q 3225 -91 2344 -91 
Q 1459 -91 1007 375 
Q 556 841 556 1753 
L 556 4666 
z
" transform="scale(0.015625)"/>
       <path id="DejaVuSans-6e" d="M 3513 2113 
L 3513 0 
L 2938 0 
L 2938 2094 
Q 2938 2591 2744 2837 
Q 2550 3084 2163 3084 
Q 1697 3084 1428 2787 
Q 1159 2491 1159 1978 
L 1159 0 
L 581 0 
L 581 3500 
L 1159 3500 
L 1159 2956 
Q 1366 3272 1645 3428 
Q 1925 3584 2291 3584 
Q 2894 3584 3203 3211 
Q 3513 2838 3513 2113 
z
" transform="scale(0.015625)"/>
       <path id="DejaVuSans-6f" d="M 1959 3097 
Q 1497 3097 1228 2736 
Q 959 2375 959 1747 
Q 959 1119 1226 758 
Q 1494 397 1959 397 
Q 2419 397 2687 759 
Q 2956 1122 2956 1747 
Q 2956 2369 2687 2733 
Q 2419 3097 1959 3097 
z
M 1959 3584 
Q 2709 3584 3137 3096 
Q 3566 2609 3566 1747 
Q 3566 888 3137 398 
Q 2709 -91 1959 -91 
Q 1206 -91 779 398 
Q 353 888 353 1747 
Q 353 2609 779 3096 
Q 1206 3584 1959 3584 
z
" transform="scale(0.015625)"/>
       <path id="DejaVuSans-74" d="M 1172 4494 
L 1172 3500 
L 2356 3500 
L 2356 3053 
L 1172 3053 
L 1172 1153 
Q 1172 725 1289 603 
Q 1406 481 1766 481 
L 2356 481 
L 2356 0 
L 1766 0 
Q 1100 0 847 248 
Q 594 497 594 1153 
L 594 3053 
L 172 3053 
L 172 3500 
L 594 3500 
L 594 4494 
L 1172 4494 
z
" transform="scale(0.015625)"/>
       <path id="DejaVuSans-72" d="M 2631 2963 
Q 2534 3019 2420 3045 
Q 2306 3072 2169 3072 
Q 1681 3072 1420 2755 
Q 1159 2438 1159 1844 
L 1159 0 
L 581 0 
L 581 3500 
L 1159 3500 
L 1159 2956 
Q 1341 3275 1631 3429 
Q 1922 3584 2338 3584 
Q 2397 3584 2469 3576 
Q 2541 3569 2628 3553 
L 2631 2963 
z
" transform="scale(0.015625)"/>
       <path id="DejaVuSans-6c" d="M 603 4863 
L 1178 4863 
L 1178 0 
L 603 0 
L 603 4863 
z
" transform="scale(0.015625)"/>
       <path id="DejaVuSans-65" d="M 3597 1894 
L 3597 1613 
L 953 1613 
Q 991 1019 1311 708 
Q 1631 397 2203 397 
Q 2534 397 2845 478 
Q 3156 559 3463 722 
L 3463 178 
Q 3153 47 2828 -22 
Q 2503 -91 2169 -91 
Q 1331 -91 842 396 
Q 353 884 353 1716 
Q 353 2575 817 3079 
Q 1281 3584 2069 3584 
Q 2775 3584 3186 3129 
Q 3597 2675 3597 1894 
z
M 3022 2063 
Q 3016 2534 2758 2815 
Q 2500 3097 2075 3097 
Q 1594 3097 1305 2825 
Q 1016 2553 972 2059 
L 3022 2063 
z
" transform="scale(0.015625)"/>
       <path id="DejaVuSans-64" d="M 2906 2969 
L 2906 4863 
L 3481 4863 
L 3481 0 
L 2906 0 
L 2906 525 
Q 2725 213 2448 61 
Q 2172 -91 1784 -91 
Q 1150 -91 751 415 
Q 353 922 353 1747 
Q 353 2572 751 3078 
Q 1150 3584 1784 3584 
Q 2172 3584 2448 3432 
Q 2725 3281 2906 2969 
z
M 947 1747 
Q 947 1113 1208 752 
Q 1469 391 1925 391 
Q 2381 391 2643 752 
Q 2906 1113 2906 1747 
Q 2906 2381 2643 2742 
Q 2381 3103 1925 3103 
Q 1469 3103 1208 2742 
Q 947 2381 947 1747 
z
" transform="scale(0.015625)"/>
      </defs>
      <use xlink:href="#DejaVuSans-55"/>
      <use xlink:href="#DejaVuSans-6e" x="73.193359"/>
      <use xlink:href="#DejaVuSans-63" x="136.572266"/>
      <use xlink:href="#DejaVuSans-6f" x="191.552734"/>
      <use xlink:href="#DejaVuSans-6e" x="252.734375"/>
      <use xlink:href="#DejaVuSans-74" x="316.113281"/>
      <use xlink:href="#DejaVuSans-72" x="355.322266"/>
      <use xlink:href="#DejaVuSans-6f" x="394.185547"/>
      <use xlink:href="#DejaVuSans-6c" x="455.367188"/>
      <use xlink:href="#DejaVuSans-6c" x="483.150391"/>
      <use xlink:href="#DejaVuSans-65" x="510.933594"/>
      <use xlink:href="#DejaVuSans-64" x="572.457031"/>
     </g>
    </g>
    <g id="patch_29">
     <path d="M 911.685776 334.762648 
L 931.685776 334.762648 
L 931.685776 327.762648 
L 911.685776 327.762648 
z
" style="fill: #ff0000; stroke: #ff0000; stroke-linejoin: miter"/>
    </g>
    <g id="text_47">
     <!-- Constant Flow -->
     <g transform="translate(939.685776 334.762648) scale(0.1 -0.1)">
      <defs>
       <path id="DejaVuSans-73" d="M 2834 3397 
L 2834 2853 
Q 2591 2978 2328 3040 
Q 2066 3103 1784 3103 
Q 1356 3103 1142 2972 
Q 928 2841 928 2578 
Q 928 2378 1081 2264 
Q 1234 2150 1697 2047 
L 1894 2003 
Q 2506 1872 2764 1633 
Q 3022 1394 3022 966 
Q 3022 478 2636 193 
Q 2250 -91 1575 -91 
Q 1294 -91 989 -36 
Q 684 19 347 128 
L 347 722 
Q 666 556 975 473 
Q 1284 391 1588 391 
Q 1994 391 2212 530 
Q 2431 669 2431 922 
Q 2431 1156 2273 1281 
Q 2116 1406 1581 1522 
L 1381 1569 
Q 847 1681 609 1914 
Q 372 2147 372 2553 
Q 372 3047 722 3315 
Q 1072 3584 1716 3584 
Q 2034 3584 2315 3537 
Q 2597 3491 2834 3397 
z
" transform="scale(0.015625)"/>
       <path id="DejaVuSans-20" transform="scale(0.015625)"/>
       <path id="DejaVuSans-46" d="M 628 4666 
L 3309 4666 
L 3309 4134 
L 1259 4134 
L 1259 2759 
L 3109 2759 
L 3109 2228 
L 1259 2228 
L 1259 0 
L 628 0 
L 628 4666 
z
" transform="scale(0.015625)"/>
       <path id="DejaVuSans-77" d="M 269 3500 
L 844 3500 
L 1563 769 
L 2278 3500 
L 2956 3500 
L 3675 769 
L 4391 3500 
L 4966 3500 
L 4050 0 
L 3372 0 
L 2619 2869 
L 1863 0 
L 1184 0 
L 269 3500 
z
" transform="scale(0.015625)"/>
      </defs>
      <use xlink:href="#DejaVuSans-43"/>
      <use xlink:href="#DejaVuSans-6f" x="69.824219"/>
      <use xlink:href="#DejaVuSans-6e" x="131.005859"/>
      <use xlink:href="#DejaVuSans-73" x="194.384766"/>
      <use xlink:href="#DejaVuSans-74" x="246.484375"/>
      <use xlink:href="#DejaVuSans-61" x="285.693359"/>
      <use xlink:href="#DejaVuSans-6e" x="346.972656"/>
      <use xlink:href="#DejaVuSans-74" x="410.351562"/>
      <use xlink:href="#DejaVuSans-20" x="449.560547"/>
      <use xlink:href="#DejaVuSans-46" x="481.347656"/>
      <use xlink:href="#DejaVuSans-6c" x="538.867188"/>
      <use xlink:href="#DejaVuSans-6f" x="566.650391"/>
      <use xlink:href="#DejaVuSans-77" x="627.832031"/>
     </g>
    </g>
    <g id="patch_30">
     <path d="M 1030.645151 334.762648 
L 1050.645151 334.762648 
L 1050.645151 327.762648 
L 1030.645151 327.762648 
z
" style="fill: #0000ff; stroke: #0000ff; stroke-linejoin: miter"/>
    </g>
    <g id="text_48">
     <!-- Equal Filling -->
     <g transform="translate(1058.645151 334.762648) scale(0.1 -0.1)">
      <defs>
       <path id="DejaVuSans-45" d="M 628 4666 
L 3578 4666 
L 3578 4134 
L 1259 4134 
L 1259 2753 
L 3481 2753 
L 3481 2222 
L 1259 2222 
L 1259 531 
L 3634 531 
L 3634 0 
L 628 0 
L 628 4666 
z
" transform="scale(0.015625)"/>
       <path id="DejaVuSans-71" d="M 947 1747 
Q 947 1113 1208 752 
Q 1469 391 1925 391 
Q 2381 391 2643 752 
Q 2906 1113 2906 1747 
Q 2906 2381 2643 2742 
Q 2381 3103 1925 3103 
Q 1469 3103 1208 2742 
Q 947 2381 947 1747 
z
M 2906 525 
Q 2725 213 2448 61 
Q 2172 -91 1784 -91 
Q 1150 -91 751 415 
Q 353 922 353 1747 
Q 353 2572 751 3078 
Q 1150 3584 1784 3584 
Q 2172 3584 2448 3432 
Q 2725 3281 2906 2969 
L 2906 3500 
L 3481 3500 
L 3481 -1331 
L 2906 -1331 
L 2906 525 
z
" transform="scale(0.015625)"/>
       <path id="DejaVuSans-75" d="M 544 1381 
L 544 3500 
L 1119 3500 
L 1119 1403 
Q 1119 906 1312 657 
Q 1506 409 1894 409 
Q 2359 409 2629 706 
Q 2900 1003 2900 1516 
L 2900 3500 
L 3475 3500 
L 3475 0 
L 2900 0 
L 2900 538 
Q 2691 219 2414 64 
Q 2138 -91 1772 -91 
Q 1169 -91 856 284 
Q 544 659 544 1381 
z
M 1991 3584 
L 1991 3584 
z
" transform="scale(0.015625)"/>
       <path id="DejaVuSans-69" d="M 603 3500 
L 1178 3500 
L 1178 0 
L 603 0 
L 603 3500 
z
M 603 4863 
L 1178 4863 
L 1178 4134 
L 603 4134 
L 603 4863 
z
" transform="scale(0.015625)"/>
       <path id="DejaVuSans-67" d="M 2906 1791 
Q 2906 2416 2648 2759 
Q 2391 3103 1925 3103 
Q 1463 3103 1205 2759 
Q 947 2416 947 1791 
Q 947 1169 1205 825 
Q 1463 481 1925 481 
Q 2391 481 2648 825 
Q 2906 1169 2906 1791 
z
M 3481 434 
Q 3481 -459 3084 -895 
Q 2688 -1331 1869 -1331 
Q 1566 -1331 1297 -1286 
Q 1028 -1241 775 -1147 
L 775 -588 
Q 1028 -725 1275 -790 
Q 1522 -856 1778 -856 
Q 2344 -856 2625 -561 
Q 2906 -266 2906 331 
L 2906 616 
Q 2728 306 2450 153 
Q 2172 0 1784 0 
Q 1141 0 747 490 
Q 353 981 353 1791 
Q 353 2603 747 3093 
Q 1141 3584 1784 3584 
Q 2172 3584 2450 3431 
Q 2728 3278 2906 2969 
L 2906 3500 
L 3481 3500 
L 3481 434 
z
" transform="scale(0.015625)"/>
      </defs>
      <use xlink:href="#DejaVuSans-45"/>
      <use xlink:href="#DejaVuSans-71" x="63.183594"/>
      <use xlink:href="#DejaVuSans-75" x="126.660156"/>
      <use xlink:href="#DejaVuSans-61" x="190.039062"/>
      <use xlink:href="#DejaVuSans-6c" x="251.318359"/>
      <use xlink:href="#DejaVuSans-20" x="279.101562"/>
      <use xlink:href="#DejaVuSans-46" x="310.888672"/>
      <use xlink:href="#DejaVuSans-69" x="361.158203"/>
      <use xlink:href="#DejaVuSans-6c" x="388.941406"/>
      <use xlink:href="#DejaVuSans-6c" x="416.724609"/>
      <use xlink:href="#DejaVuSans-69" x="444.507812"/>
      <use xlink:href="#DejaVuSans-6e" x="472.291016"/>
      <use xlink:href="#DejaVuSans-67" x="535.669922"/>
     </g>
    </g>
   </g>
  </g>
 </g>
 <defs>
  <clipPath id="pcad57051d7">
   <rect x="144" y="69.12" width="892.8" height="443.52"/>
  </clipPath>
  <clipPath id="p536ddc3178">
   <rect x="729.389126" y="84.870431" width="90.947368" height="45.473684"/>
  </clipPath>
  <clipPath id="p7991526056">
   <rect x="913.851936" y="451.415885" width="90.947368" height="45.473684"/>
  </clipPath>
  <clipPath id="pbf6beb64af">
   <rect x="729.389126" y="268.143158" width="90.947368" height="45.473684"/>
  </clipPath>
  <clipPath id="p7af8467e6f">
   <rect x="176.000696" y="268.143158" width="90.947368" height="45.473684"/>
  </clipPath>
  <clipPath id="pe81e689644">
   <rect x="176.000696" y="84.870431" width="90.947368" height="45.473684"/>
  </clipPath>
  <clipPath id="p081549c3d5">
   <rect x="913.851936" y="84.870431" width="90.947368" height="45.473684"/>
  </clipPath>
  <clipPath id="pfb1a02cc29">
   <rect x="544.926316" y="451.415885" width="90.947368" height="45.473684"/>
  </clipPath>
  <clipPath id="pb3cc62af2c">
   <rect x="360.463506" y="451.415885" width="90.947368" height="45.473684"/>
  </clipPath>
  <clipPath id="p40b419c5ee">
   <rect x="360.463506" y="84.870431" width="90.947368" height="45.473684"/>
  </clipPath>
  <clipPath id="p39140cd5aa">
   <rect x="176.000696" y="451.415885" width="90.947368" height="45.473684"/>
  </clipPath>
  <clipPath id="p4fc7160a53">
   <rect x="544.926316" y="84.870431" width="90.947368" height="45.473684"/>
  </clipPath>
  <clipPath id="p28e7194581">
   <rect x="544.926316" y="268.143158" width="90.947368" height="45.473684"/>
  </clipPath>
  <clipPath id="p1aa9968c39">
   <rect x="729.389126" y="451.415885" width="90.947368" height="45.473684"/>
  </clipPath>
  <clipPath id="pf93bd29cad">
   <rect x="360.463506" y="268.143158" width="90.947368" height="45.473684"/>
  </clipPath>
  <clipPath id="p9f919cf7f2">
   <rect x="913.851936" y="268.143158" width="90.947368" height="45.473684"/>
  </clipPath>
 </defs>
</svg>
