<?xml version="1.0" encoding="utf-8" standalone="no"?>
<!DOCTYPE svg PUBLIC "-//W3C//DTD SVG 1.1//EN"
  "http://www.w3.org/Graphics/SVG/1.1/DTD/svg11.dtd">
<svg xmlns:xlink="http://www.w3.org/1999/xlink" width="864pt" height="576pt" viewBox="0 0 864 576" xmlns="http://www.w3.org/2000/svg" version="1.1">
 <metadata>
  <rdf:RDF xmlns:dc="http://purl.org/dc/elements/1.1/" xmlns:cc="http://creativecommons.org/ns#" xmlns:rdf="http://www.w3.org/1999/02/22-rdf-syntax-ns#">
   <cc:Work>
    <dc:type rdf:resource="http://purl.org/dc/dcmitype/StillImage"/>
    <dc:date>2025-08-20T04:16:39.394751</dc:date>
    <dc:format>image/svg+xml</dc:format>
    <dc:creator>
     <cc:Agent>
      <dc:title>Matplotlib v3.9.4, https://matplotlib.org/</dc:title>
     </cc:Agent>
    </dc:creator>
   </cc:Work>
  </rdf:RDF>
 </metadata>
 <defs>
  <style type="text/css">*{stroke-linejoin: round; stroke-linecap: butt}</style>
 </defs>
 <g id="figure_1">
  <g id="patch_1">
   <path d="M 0 576 
L 864 576 
L 864 0 
L 0 0 
z
" style="fill: #ffffff"/>
  </g>
  <g id="axes_1">
   <g id="patch_2">
    <path d="M 73.46 530.44 
L 853.2 530.44 
L 853.2 28.32 
L 73.46 28.32 
z
" style="fill: #ffffff"/>
   </g>
   <g id="matplotlib.axis_1">
    <g id="xtick_1">
     <g id="line2d_1">
      <path d="M 101.74258 530.44 
L 101.74258 28.32 
" clip-path="url(#pbbdc1b44ac)" style="fill: none; stroke: #b0b0b0; stroke-opacity: 0.3; stroke-width: 0.8; stroke-linecap: square"/>
     </g>
     <g id="line2d_2">
      <defs>
       <path id="mf5c8315d37" d="M 0 0 
L 0 3.5 
" style="stroke: #000000; stroke-width: 0.8"/>
      </defs>
      <g>
       <use xlink:href="#mf5c8315d37" x="101.74258" y="530.44" style="stroke: #000000; stroke-width: 0.8"/>
      </g>
     </g>
     <g id="text_1">
      <!-- 0 -->
      <g transform="translate(98.56133 545.038437) scale(0.1 -0.1)">
       <defs>
        <path id="DejaVuSans-30" d="M 2034 4250 
Q 1547 4250 1301 3770 
Q 1056 3291 1056 2328 
Q 1056 1369 1301 889 
Q 1547 409 2034 409 
Q 2525 409 2770 889 
Q 3016 1369 3016 2328 
Q 3016 3291 2770 3770 
Q 2525 4250 2034 4250 
z
M 2034 4750 
Q 2819 4750 3233 4129 
Q 3647 3509 3647 2328 
Q 3647 1150 3233 529 
Q 2819 -91 2034 -91 
Q 1250 -91 836 529 
Q 422 1150 422 2328 
Q 422 3509 836 4129 
Q 1250 4750 2034 4750 
z
" transform="scale(0.015625)"/>
       </defs>
       <use xlink:href="#DejaVuSans-30"/>
      </g>
     </g>
    </g>
    <g id="xtick_2">
     <g id="line2d_3">
      <path d="M 244.945519 530.44 
L 244.945519 28.32 
" clip-path="url(#pbbdc1b44ac)" style="fill: none; stroke: #b0b0b0; stroke-opacity: 0.3; stroke-width: 0.8; stroke-linecap: square"/>
     </g>
     <g id="line2d_4">
      <g>
       <use xlink:href="#mf5c8315d37" x="244.945519" y="530.44" style="stroke: #000000; stroke-width: 0.8"/>
      </g>
     </g>
     <g id="text_2">
      <!-- 20 -->
      <g transform="translate(238.583019 545.038437) scale(0.1 -0.1)">
       <defs>
        <path id="DejaVuSans-32" d="M 1228 531 
L 3431 531 
L 3431 0 
L 469 0 
L 469 531 
Q 828 903 1448 1529 
Q 2069 2156 2228 2338 
Q 2531 2678 2651 2914 
Q 2772 3150 2772 3378 
Q 2772 3750 2511 3984 
Q 2250 4219 1831 4219 
Q 1534 4219 1204 4116 
Q 875 4013 500 3803 
L 500 4441 
Q 881 4594 1212 4672 
Q 1544 4750 1819 4750 
Q 2544 4750 2975 4387 
Q 3406 4025 3406 3419 
Q 3406 3131 3298 2873 
Q 3191 2616 2906 2266 
Q 2828 2175 2409 1742 
Q 1991 1309 1228 531 
z
" transform="scale(0.015625)"/>
       </defs>
       <use xlink:href="#DejaVuSans-32"/>
       <use xlink:href="#DejaVuSans-30" x="63.623047"/>
      </g>
     </g>
    </g>
    <g id="xtick_3">
     <g id="line2d_5">
      <path d="M 388.148457 530.44 
L 388.148457 28.32 
" clip-path="url(#pbbdc1b44ac)" style="fill: none; stroke: #b0b0b0; stroke-opacity: 0.3; stroke-width: 0.8; stroke-linecap: square"/>
     </g>
     <g id="line2d_6">
      <g>
       <use xlink:href="#mf5c8315d37" x="388.148457" y="530.44" style="stroke: #000000; stroke-width: 0.8"/>
      </g>
     </g>
     <g id="text_3">
      <!-- 40 -->
      <g transform="translate(381.785957 545.038437) scale(0.1 -0.1)">
       <defs>
        <path id="DejaVuSans-34" d="M 2419 4116 
L 825 1625 
L 2419 1625 
L 2419 4116 
z
M 2253 4666 
L 3047 4666 
L 3047 1625 
L 3713 1625 
L 3713 1100 
L 3047 1100 
L 3047 0 
L 2419 0 
L 2419 1100 
L 313 1100 
L 313 1709 
L 2253 4666 
z
" transform="scale(0.015625)"/>
       </defs>
       <use xlink:href="#DejaVuSans-34"/>
       <use xlink:href="#DejaVuSans-30" x="63.623047"/>
      </g>
     </g>
    </g>
    <g id="xtick_4">
     <g id="line2d_7">
      <path d="M 531.351396 530.44 
L 531.351396 28.32 
" clip-path="url(#pbbdc1b44ac)" style="fill: none; stroke: #b0b0b0; stroke-opacity: 0.3; stroke-width: 0.8; stroke-linecap: square"/>
     </g>
     <g id="line2d_8">
      <g>
       <use xlink:href="#mf5c8315d37" x="531.351396" y="530.44" style="stroke: #000000; stroke-width: 0.8"/>
      </g>
     </g>
     <g id="text_4">
      <!-- 60 -->
      <g transform="translate(524.988896 545.038437) scale(0.1 -0.1)">
       <defs>
        <path id="DejaVuSans-36" d="M 2113 2584 
Q 1688 2584 1439 2293 
Q 1191 2003 1191 1497 
Q 1191 994 1439 701 
Q 1688 409 2113 409 
Q 2538 409 2786 701 
Q 3034 994 3034 1497 
Q 3034 2003 2786 2293 
Q 2538 2584 2113 2584 
z
M 3366 4563 
L 3366 3988 
Q 3128 4100 2886 4159 
Q 2644 4219 2406 4219 
Q 1781 4219 1451 3797 
Q 1122 3375 1075 2522 
Q 1259 2794 1537 2939 
Q 1816 3084 2150 3084 
Q 2853 3084 3261 2657 
Q 3669 2231 3669 1497 
Q 3669 778 3244 343 
Q 2819 -91 2113 -91 
Q 1303 -91 875 529 
Q 447 1150 447 2328 
Q 447 3434 972 4092 
Q 1497 4750 2381 4750 
Q 2619 4750 2861 4703 
Q 3103 4656 3366 4563 
z
" transform="scale(0.015625)"/>
       </defs>
       <use xlink:href="#DejaVuSans-36"/>
       <use xlink:href="#DejaVuSans-30" x="63.623047"/>
      </g>
     </g>
    </g>
    <g id="xtick_5">
     <g id="line2d_9">
      <path d="M 674.554334 530.44 
L 674.554334 28.32 
" clip-path="url(#pbbdc1b44ac)" style="fill: none; stroke: #b0b0b0; stroke-opacity: 0.3; stroke-width: 0.8; stroke-linecap: square"/>
     </g>
     <g id="line2d_10">
      <g>
       <use xlink:href="#mf5c8315d37" x="674.554334" y="530.44" style="stroke: #000000; stroke-width: 0.8"/>
      </g>
     </g>
     <g id="text_5">
      <!-- 80 -->
      <g transform="translate(668.191834 545.038437) scale(0.1 -0.1)">
       <defs>
        <path id="DejaVuSans-38" d="M 2034 2216 
Q 1584 2216 1326 1975 
Q 1069 1734 1069 1313 
Q 1069 891 1326 650 
Q 1584 409 2034 409 
Q 2484 409 2743 651 
Q 3003 894 3003 1313 
Q 3003 1734 2745 1975 
Q 2488 2216 2034 2216 
z
M 1403 2484 
Q 997 2584 770 2862 
Q 544 3141 544 3541 
Q 544 4100 942 4425 
Q 1341 4750 2034 4750 
Q 2731 4750 3128 4425 
Q 3525 4100 3525 3541 
Q 3525 3141 3298 2862 
Q 3072 2584 2669 2484 
Q 3125 2378 3379 2068 
Q 3634 1759 3634 1313 
Q 3634 634 3220 271 
Q 2806 -91 2034 -91 
Q 1263 -91 848 271 
Q 434 634 434 1313 
Q 434 1759 690 2068 
Q 947 2378 1403 2484 
z
M 1172 3481 
Q 1172 3119 1398 2916 
Q 1625 2713 2034 2713 
Q 2441 2713 2670 2916 
Q 2900 3119 2900 3481 
Q 2900 3844 2670 4047 
Q 2441 4250 2034 4250 
Q 1625 4250 1398 4047 
Q 1172 3844 1172 3481 
z
" transform="scale(0.015625)"/>
       </defs>
       <use xlink:href="#DejaVuSans-38"/>
       <use xlink:href="#DejaVuSans-30" x="63.623047"/>
      </g>
     </g>
    </g>
    <g id="xtick_6">
     <g id="line2d_11">
      <path d="M 817.757273 530.44 
L 817.757273 28.32 
" clip-path="url(#pbbdc1b44ac)" style="fill: none; stroke: #b0b0b0; stroke-opacity: 0.3; stroke-width: 0.8; stroke-linecap: square"/>
     </g>
     <g id="line2d_12">
      <g>
       <use xlink:href="#mf5c8315d37" x="817.757273" y="530.44" style="stroke: #000000; stroke-width: 0.8"/>
      </g>
     </g>
     <g id="text_6">
      <!-- 100 -->
      <g transform="translate(808.213523 545.038437) scale(0.1 -0.1)">
       <defs>
        <path id="DejaVuSans-31" d="M 794 531 
L 1825 531 
L 1825 4091 
L 703 3866 
L 703 4441 
L 1819 4666 
L 2450 4666 
L 2450 531 
L 3481 531 
L 3481 0 
L 794 0 
L 794 531 
z
" transform="scale(0.015625)"/>
       </defs>
       <use xlink:href="#DejaVuSans-31"/>
       <use xlink:href="#DejaVuSans-30" x="63.623047"/>
       <use xlink:href="#DejaVuSans-30" x="127.246094"/>
      </g>
     </g>
    </g>
    <g id="text_7">
     <!-- Function Evaluations -->
     <g transform="translate(390.753125 561.755937) scale(0.14 -0.14)">
      <defs>
       <path id="DejaVuSans-46" d="M 628 4666 
L 3309 4666 
L 3309 4134 
L 1259 4134 
L 1259 2759 
L 3109 2759 
L 3109 2228 
L 1259 2228 
L 1259 0 
L 628 0 
L 628 4666 
z
" transform="scale(0.015625)"/>
       <path id="DejaVuSans-75" d="M 544 1381 
L 544 3500 
L 1119 3500 
L 1119 1403 
Q 1119 906 1312 657 
Q 1506 409 1894 409 
Q 2359 409 2629 706 
Q 2900 1003 2900 1516 
L 2900 3500 
L 3475 3500 
L 3475 0 
L 2900 0 
L 2900 538 
Q 2691 219 2414 64 
Q 2138 -91 1772 -91 
Q 1169 -91 856 284 
Q 544 659 544 1381 
z
M 1991 3584 
L 1991 3584 
z
" transform="scale(0.015625)"/>
       <path id="DejaVuSans-6e" d="M 3513 2113 
L 3513 0 
L 2938 0 
L 2938 2094 
Q 2938 2591 2744 2837 
Q 2550 3084 2163 3084 
Q 1697 3084 1428 2787 
Q 1159 2491 1159 1978 
L 1159 0 
L 581 0 
L 581 3500 
L 1159 3500 
L 1159 2956 
Q 1366 3272 1645 3428 
Q 1925 3584 2291 3584 
Q 2894 3584 3203 3211 
Q 3513 2838 3513 2113 
z
" transform="scale(0.015625)"/>
       <path id="DejaVuSans-63" d="M 3122 3366 
L 3122 2828 
Q 2878 2963 2633 3030 
Q 2388 3097 2138 3097 
Q 1578 3097 1268 2742 
Q 959 2388 959 1747 
Q 959 1106 1268 751 
Q 1578 397 2138 397 
Q 2388 397 2633 464 
Q 2878 531 3122 666 
L 3122 134 
Q 2881 22 2623 -34 
Q 2366 -91 2075 -91 
Q 1284 -91 818 406 
Q 353 903 353 1747 
Q 353 2603 823 3093 
Q 1294 3584 2113 3584 
Q 2378 3584 2631 3529 
Q 2884 3475 3122 3366 
z
" transform="scale(0.015625)"/>
       <path id="DejaVuSans-74" d="M 1172 4494 
L 1172 3500 
L 2356 3500 
L 2356 3053 
L 1172 3053 
L 1172 1153 
Q 1172 725 1289 603 
Q 1406 481 1766 481 
L 2356 481 
L 2356 0 
L 1766 0 
Q 1100 0 847 248 
Q 594 497 594 1153 
L 594 3053 
L 172 3053 
L 172 3500 
L 594 3500 
L 594 4494 
L 1172 4494 
z
" transform="scale(0.015625)"/>
       <path id="DejaVuSans-69" d="M 603 3500 
L 1178 3500 
L 1178 0 
L 603 0 
L 603 3500 
z
M 603 4863 
L 1178 4863 
L 1178 4134 
L 603 4134 
L 603 4863 
z
" transform="scale(0.015625)"/>
       <path id="DejaVuSans-6f" d="M 1959 3097 
Q 1497 3097 1228 2736 
Q 959 2375 959 1747 
Q 959 1119 1226 758 
Q 1494 397 1959 397 
Q 2419 397 2687 759 
Q 2956 1122 2956 1747 
Q 2956 2369 2687 2733 
Q 2419 3097 1959 3097 
z
M 1959 3584 
Q 2709 3584 3137 3096 
Q 3566 2609 3566 1747 
Q 3566 888 3137 398 
Q 2709 -91 1959 -91 
Q 1206 -91 779 398 
Q 353 888 353 1747 
Q 353 2609 779 3096 
Q 1206 3584 1959 3584 
z
" transform="scale(0.015625)"/>
       <path id="DejaVuSans-20" transform="scale(0.015625)"/>
       <path id="DejaVuSans-45" d="M 628 4666 
L 3578 4666 
L 3578 4134 
L 1259 4134 
L 1259 2753 
L 3481 2753 
L 3481 2222 
L 1259 2222 
L 1259 531 
L 3634 531 
L 3634 0 
L 628 0 
L 628 4666 
z
" transform="scale(0.015625)"/>
       <path id="DejaVuSans-76" d="M 191 3500 
L 800 3500 
L 1894 563 
L 2988 3500 
L 3597 3500 
L 2284 0 
L 1503 0 
L 191 3500 
z
" transform="scale(0.015625)"/>
       <path id="DejaVuSans-61" d="M 2194 1759 
Q 1497 1759 1228 1600 
Q 959 1441 959 1056 
Q 959 750 1161 570 
Q 1363 391 1709 391 
Q 2188 391 2477 730 
Q 2766 1069 2766 1631 
L 2766 1759 
L 2194 1759 
z
M 3341 1997 
L 3341 0 
L 2766 0 
L 2766 531 
Q 2569 213 2275 61 
Q 1981 -91 1556 -91 
Q 1019 -91 701 211 
Q 384 513 384 1019 
Q 384 1609 779 1909 
Q 1175 2209 1959 2209 
L 2766 2209 
L 2766 2266 
Q 2766 2663 2505 2880 
Q 2244 3097 1772 3097 
Q 1472 3097 1187 3025 
Q 903 2953 641 2809 
L 641 3341 
Q 956 3463 1253 3523 
Q 1550 3584 1831 3584 
Q 2591 3584 2966 3190 
Q 3341 2797 3341 1997 
z
" transform="scale(0.015625)"/>
       <path id="DejaVuSans-6c" d="M 603 4863 
L 1178 4863 
L 1178 0 
L 603 0 
L 603 4863 
z
" transform="scale(0.015625)"/>
       <path id="DejaVuSans-73" d="M 2834 3397 
L 2834 2853 
Q 2591 2978 2328 3040 
Q 2066 3103 1784 3103 
Q 1356 3103 1142 2972 
Q 928 2841 928 2578 
Q 928 2378 1081 2264 
Q 1234 2150 1697 2047 
L 1894 2003 
Q 2506 1872 2764 1633 
Q 3022 1394 3022 966 
Q 3022 478 2636 193 
Q 2250 -91 1575 -91 
Q 1294 -91 989 -36 
Q 684 19 347 128 
L 347 722 
Q 666 556 975 473 
Q 1284 391 1588 391 
Q 1994 391 2212 530 
Q 2431 669 2431 922 
Q 2431 1156 2273 1281 
Q 2116 1406 1581 1522 
L 1381 1569 
Q 847 1681 609 1914 
Q 372 2147 372 2553 
Q 372 3047 722 3315 
Q 1072 3584 1716 3584 
Q 2034 3584 2315 3537 
Q 2597 3491 2834 3397 
z
" transform="scale(0.015625)"/>
      </defs>
      <use xlink:href="#DejaVuSans-46"/>
      <use xlink:href="#DejaVuSans-75" x="52.019531"/>
      <use xlink:href="#DejaVuSans-6e" x="115.398438"/>
      <use xlink:href="#DejaVuSans-63" x="178.777344"/>
      <use xlink:href="#DejaVuSans-74" x="233.757812"/>
      <use xlink:href="#DejaVuSans-69" x="272.966797"/>
      <use xlink:href="#DejaVuSans-6f" x="300.75"/>
      <use xlink:href="#DejaVuSans-6e" x="361.931641"/>
      <use xlink:href="#DejaVuSans-20" x="425.310547"/>
      <use xlink:href="#DejaVuSans-45" x="457.097656"/>
      <use xlink:href="#DejaVuSans-76" x="520.28125"/>
      <use xlink:href="#DejaVuSans-61" x="579.460938"/>
      <use xlink:href="#DejaVuSans-6c" x="640.740234"/>
      <use xlink:href="#DejaVuSans-75" x="668.523438"/>
      <use xlink:href="#DejaVuSans-61" x="731.902344"/>
      <use xlink:href="#DejaVuSans-74" x="793.181641"/>
      <use xlink:href="#DejaVuSans-69" x="832.390625"/>
      <use xlink:href="#DejaVuSans-6f" x="860.173828"/>
      <use xlink:href="#DejaVuSans-6e" x="921.355469"/>
      <use xlink:href="#DejaVuSans-73" x="984.734375"/>
     </g>
    </g>
   </g>
   <g id="matplotlib.axis_2">
    <g id="ytick_1">
     <g id="line2d_13">
      <path d="M 73.46 499.388765 
L 853.2 499.388765 
" clip-path="url(#pbbdc1b44ac)" style="fill: none; stroke: #b0b0b0; stroke-opacity: 0.3; stroke-width: 0.8; stroke-linecap: square"/>
     </g>
     <g id="line2d_14">
      <defs>
       <path id="mec7f09692e" d="M 0 0 
L -3.5 0 
" style="stroke: #000000; stroke-width: 0.8"/>
      </defs>
      <g>
       <use xlink:href="#mec7f09692e" x="73.46" y="499.388765" style="stroke: #000000; stroke-width: 0.8"/>
      </g>
     </g>
     <g id="text_8">
      <!-- 70000 -->
      <g transform="translate(34.6475 503.187984) scale(0.1 -0.1)">
       <defs>
        <path id="DejaVuSans-37" d="M 525 4666 
L 3525 4666 
L 3525 4397 
L 1831 0 
L 1172 0 
L 2766 4134 
L 525 4134 
L 525 4666 
z
" transform="scale(0.015625)"/>
       </defs>
       <use xlink:href="#DejaVuSans-37"/>
       <use xlink:href="#DejaVuSans-30" x="63.623047"/>
       <use xlink:href="#DejaVuSans-30" x="127.246094"/>
       <use xlink:href="#DejaVuSans-30" x="190.869141"/>
       <use xlink:href="#DejaVuSans-30" x="254.492188"/>
      </g>
     </g>
    </g>
    <g id="ytick_2">
     <g id="line2d_15">
      <path d="M 73.46 430.053011 
L 853.2 430.053011 
" clip-path="url(#pbbdc1b44ac)" style="fill: none; stroke: #b0b0b0; stroke-opacity: 0.3; stroke-width: 0.8; stroke-linecap: square"/>
     </g>
     <g id="line2d_16">
      <g>
       <use xlink:href="#mec7f09692e" x="73.46" y="430.053011" style="stroke: #000000; stroke-width: 0.8"/>
      </g>
     </g>
     <g id="text_9">
      <!-- 80000 -->
      <g transform="translate(34.6475 433.852229) scale(0.1 -0.1)">
       <use xlink:href="#DejaVuSans-38"/>
       <use xlink:href="#DejaVuSans-30" x="63.623047"/>
       <use xlink:href="#DejaVuSans-30" x="127.246094"/>
       <use xlink:href="#DejaVuSans-30" x="190.869141"/>
       <use xlink:href="#DejaVuSans-30" x="254.492188"/>
      </g>
     </g>
    </g>
    <g id="ytick_3">
     <g id="line2d_17">
      <path d="M 73.46 360.717256 
L 853.2 360.717256 
" clip-path="url(#pbbdc1b44ac)" style="fill: none; stroke: #b0b0b0; stroke-opacity: 0.3; stroke-width: 0.8; stroke-linecap: square"/>
     </g>
     <g id="line2d_18">
      <g>
       <use xlink:href="#mec7f09692e" x="73.46" y="360.717256" style="stroke: #000000; stroke-width: 0.8"/>
      </g>
     </g>
     <g id="text_10">
      <!-- 90000 -->
      <g transform="translate(34.6475 364.516475) scale(0.1 -0.1)">
       <defs>
        <path id="DejaVuSans-39" d="M 703 97 
L 703 672 
Q 941 559 1184 500 
Q 1428 441 1663 441 
Q 2288 441 2617 861 
Q 2947 1281 2994 2138 
Q 2813 1869 2534 1725 
Q 2256 1581 1919 1581 
Q 1219 1581 811 2004 
Q 403 2428 403 3163 
Q 403 3881 828 4315 
Q 1253 4750 1959 4750 
Q 2769 4750 3195 4129 
Q 3622 3509 3622 2328 
Q 3622 1225 3098 567 
Q 2575 -91 1691 -91 
Q 1453 -91 1209 -44 
Q 966 3 703 97 
z
M 1959 2075 
Q 2384 2075 2632 2365 
Q 2881 2656 2881 3163 
Q 2881 3666 2632 3958 
Q 2384 4250 1959 4250 
Q 1534 4250 1286 3958 
Q 1038 3666 1038 3163 
Q 1038 2656 1286 2365 
Q 1534 2075 1959 2075 
z
" transform="scale(0.015625)"/>
       </defs>
       <use xlink:href="#DejaVuSans-39"/>
       <use xlink:href="#DejaVuSans-30" x="63.623047"/>
       <use xlink:href="#DejaVuSans-30" x="127.246094"/>
       <use xlink:href="#DejaVuSans-30" x="190.869141"/>
       <use xlink:href="#DejaVuSans-30" x="254.492188"/>
      </g>
     </g>
    </g>
    <g id="ytick_4">
     <g id="line2d_19">
      <path d="M 73.46 291.381501 
L 853.2 291.381501 
" clip-path="url(#pbbdc1b44ac)" style="fill: none; stroke: #b0b0b0; stroke-opacity: 0.3; stroke-width: 0.8; stroke-linecap: square"/>
     </g>
     <g id="line2d_20">
      <g>
       <use xlink:href="#mec7f09692e" x="73.46" y="291.381501" style="stroke: #000000; stroke-width: 0.8"/>
      </g>
     </g>
     <g id="text_11">
      <!-- 100000 -->
      <g transform="translate(28.285 295.18072) scale(0.1 -0.1)">
       <use xlink:href="#DejaVuSans-31"/>
       <use xlink:href="#DejaVuSans-30" x="63.623047"/>
       <use xlink:href="#DejaVuSans-30" x="127.246094"/>
       <use xlink:href="#DejaVuSans-30" x="190.869141"/>
       <use xlink:href="#DejaVuSans-30" x="254.492188"/>
       <use xlink:href="#DejaVuSans-30" x="318.115234"/>
      </g>
     </g>
    </g>
    <g id="ytick_5">
     <g id="line2d_21">
      <path d="M 73.46 222.045747 
L 853.2 222.045747 
" clip-path="url(#pbbdc1b44ac)" style="fill: none; stroke: #b0b0b0; stroke-opacity: 0.3; stroke-width: 0.8; stroke-linecap: square"/>
     </g>
     <g id="line2d_22">
      <g>
       <use xlink:href="#mec7f09692e" x="73.46" y="222.045747" style="stroke: #000000; stroke-width: 0.8"/>
      </g>
     </g>
     <g id="text_12">
      <!-- 110000 -->
      <g transform="translate(28.285 225.844965) scale(0.1 -0.1)">
       <use xlink:href="#DejaVuSans-31"/>
       <use xlink:href="#DejaVuSans-31" x="63.623047"/>
       <use xlink:href="#DejaVuSans-30" x="127.246094"/>
       <use xlink:href="#DejaVuSans-30" x="190.869141"/>
       <use xlink:href="#DejaVuSans-30" x="254.492188"/>
       <use xlink:href="#DejaVuSans-30" x="318.115234"/>
      </g>
     </g>
    </g>
    <g id="ytick_6">
     <g id="line2d_23">
      <path d="M 73.46 152.709992 
L 853.2 152.709992 
" clip-path="url(#pbbdc1b44ac)" style="fill: none; stroke: #b0b0b0; stroke-opacity: 0.3; stroke-width: 0.8; stroke-linecap: square"/>
     </g>
     <g id="line2d_24">
      <g>
       <use xlink:href="#mec7f09692e" x="73.46" y="152.709992" style="stroke: #000000; stroke-width: 0.8"/>
      </g>
     </g>
     <g id="text_13">
      <!-- 120000 -->
      <g transform="translate(28.285 156.509211) scale(0.1 -0.1)">
       <use xlink:href="#DejaVuSans-31"/>
       <use xlink:href="#DejaVuSans-32" x="63.623047"/>
       <use xlink:href="#DejaVuSans-30" x="127.246094"/>
       <use xlink:href="#DejaVuSans-30" x="190.869141"/>
       <use xlink:href="#DejaVuSans-30" x="254.492188"/>
       <use xlink:href="#DejaVuSans-30" x="318.115234"/>
      </g>
     </g>
    </g>
    <g id="ytick_7">
     <g id="line2d_25">
      <path d="M 73.46 83.374237 
L 853.2 83.374237 
" clip-path="url(#pbbdc1b44ac)" style="fill: none; stroke: #b0b0b0; stroke-opacity: 0.3; stroke-width: 0.8; stroke-linecap: square"/>
     </g>
     <g id="line2d_26">
      <g>
       <use xlink:href="#mec7f09692e" x="73.46" y="83.374237" style="stroke: #000000; stroke-width: 0.8"/>
      </g>
     </g>
     <g id="text_14">
      <!-- 130000 -->
      <g transform="translate(28.285 87.173456) scale(0.1 -0.1)">
       <defs>
        <path id="DejaVuSans-33" d="M 2597 2516 
Q 3050 2419 3304 2112 
Q 3559 1806 3559 1356 
Q 3559 666 3084 287 
Q 2609 -91 1734 -91 
Q 1441 -91 1130 -33 
Q 819 25 488 141 
L 488 750 
Q 750 597 1062 519 
Q 1375 441 1716 441 
Q 2309 441 2620 675 
Q 2931 909 2931 1356 
Q 2931 1769 2642 2001 
Q 2353 2234 1838 2234 
L 1294 2234 
L 1294 2753 
L 1863 2753 
Q 2328 2753 2575 2939 
Q 2822 3125 2822 3475 
Q 2822 3834 2567 4026 
Q 2313 4219 1838 4219 
Q 1578 4219 1281 4162 
Q 984 4106 628 3988 
L 628 4550 
Q 988 4650 1302 4700 
Q 1616 4750 1894 4750 
Q 2613 4750 3031 4423 
Q 3450 4097 3450 3541 
Q 3450 3153 3228 2886 
Q 3006 2619 2597 2516 
z
" transform="scale(0.015625)"/>
       </defs>
       <use xlink:href="#DejaVuSans-31"/>
       <use xlink:href="#DejaVuSans-33" x="63.623047"/>
       <use xlink:href="#DejaVuSans-30" x="127.246094"/>
       <use xlink:href="#DejaVuSans-30" x="190.869141"/>
       <use xlink:href="#DejaVuSans-30" x="254.492188"/>
       <use xlink:href="#DejaVuSans-30" x="318.115234"/>
      </g>
     </g>
    </g>
    <g id="text_15">
     <!-- Best Cost Found -->
     <g transform="translate(21.373437 336.26375) rotate(-90) scale(0.14 -0.14)">
      <defs>
       <path id="DejaVuSans-42" d="M 1259 2228 
L 1259 519 
L 2272 519 
Q 2781 519 3026 730 
Q 3272 941 3272 1375 
Q 3272 1813 3026 2020 
Q 2781 2228 2272 2228 
L 1259 2228 
z
M 1259 4147 
L 1259 2741 
L 2194 2741 
Q 2656 2741 2882 2914 
Q 3109 3088 3109 3444 
Q 3109 3797 2882 3972 
Q 2656 4147 2194 4147 
L 1259 4147 
z
M 628 4666 
L 2241 4666 
Q 2963 4666 3353 4366 
Q 3744 4066 3744 3513 
Q 3744 3084 3544 2831 
Q 3344 2578 2956 2516 
Q 3422 2416 3680 2098 
Q 3938 1781 3938 1306 
Q 3938 681 3513 340 
Q 3088 0 2303 0 
L 628 0 
L 628 4666 
z
" transform="scale(0.015625)"/>
       <path id="DejaVuSans-65" d="M 3597 1894 
L 3597 1613 
L 953 1613 
Q 991 1019 1311 708 
Q 1631 397 2203 397 
Q 2534 397 2845 478 
Q 3156 559 3463 722 
L 3463 178 
Q 3153 47 2828 -22 
Q 2503 -91 2169 -91 
Q 1331 -91 842 396 
Q 353 884 353 1716 
Q 353 2575 817 3079 
Q 1281 3584 2069 3584 
Q 2775 3584 3186 3129 
Q 3597 2675 3597 1894 
z
M 3022 2063 
Q 3016 2534 2758 2815 
Q 2500 3097 2075 3097 
Q 1594 3097 1305 2825 
Q 1016 2553 972 2059 
L 3022 2063 
z
" transform="scale(0.015625)"/>
       <path id="DejaVuSans-43" d="M 4122 4306 
L 4122 3641 
Q 3803 3938 3442 4084 
Q 3081 4231 2675 4231 
Q 1875 4231 1450 3742 
Q 1025 3253 1025 2328 
Q 1025 1406 1450 917 
Q 1875 428 2675 428 
Q 3081 428 3442 575 
Q 3803 722 4122 1019 
L 4122 359 
Q 3791 134 3420 21 
Q 3050 -91 2638 -91 
Q 1578 -91 968 557 
Q 359 1206 359 2328 
Q 359 3453 968 4101 
Q 1578 4750 2638 4750 
Q 3056 4750 3426 4639 
Q 3797 4528 4122 4306 
z
" transform="scale(0.015625)"/>
       <path id="DejaVuSans-64" d="M 2906 2969 
L 2906 4863 
L 3481 4863 
L 3481 0 
L 2906 0 
L 2906 525 
Q 2725 213 2448 61 
Q 2172 -91 1784 -91 
Q 1150 -91 751 415 
Q 353 922 353 1747 
Q 353 2572 751 3078 
Q 1150 3584 1784 3584 
Q 2172 3584 2448 3432 
Q 2725 3281 2906 2969 
z
M 947 1747 
Q 947 1113 1208 752 
Q 1469 391 1925 391 
Q 2381 391 2643 752 
Q 2906 1113 2906 1747 
Q 2906 2381 2643 2742 
Q 2381 3103 1925 3103 
Q 1469 3103 1208 2742 
Q 947 2381 947 1747 
z
" transform="scale(0.015625)"/>
      </defs>
      <use xlink:href="#DejaVuSans-42"/>
      <use xlink:href="#DejaVuSans-65" x="68.603516"/>
      <use xlink:href="#DejaVuSans-73" x="130.126953"/>
      <use xlink:href="#DejaVuSans-74" x="182.226562"/>
      <use xlink:href="#DejaVuSans-20" x="221.435547"/>
      <use xlink:href="#DejaVuSans-43" x="253.222656"/>
      <use xlink:href="#DejaVuSans-6f" x="323.046875"/>
      <use xlink:href="#DejaVuSans-73" x="384.228516"/>
      <use xlink:href="#DejaVuSans-74" x="436.328125"/>
      <use xlink:href="#DejaVuSans-20" x="475.537109"/>
      <use xlink:href="#DejaVuSans-46" x="507.324219"/>
      <use xlink:href="#DejaVuSans-6f" x="561.21875"/>
      <use xlink:href="#DejaVuSans-75" x="622.400391"/>
      <use xlink:href="#DejaVuSans-6e" x="685.779297"/>
      <use xlink:href="#DejaVuSans-64" x="749.158203"/>
     </g>
    </g>
   </g>
   <g id="line2d_27">
    <path d="M 108.902727 296.299674 
L 116.062874 296.299674 
L 123.223021 296.299674 
L 130.383168 296.299674 
L 137.543315 296.299674 
L 144.703462 296.299674 
L 151.863609 296.299674 
L 159.023756 296.299674 
L 166.183903 296.299674 
L 173.34405 296.299674 
L 180.504197 296.299674 
L 187.664343 296.299674 
L 194.82449 296.299674 
L 201.984637 296.299674 
L 209.144784 296.299674 
L 216.304931 296.299674 
L 223.465078 296.299674 
L 230.625225 296.299674 
L 237.785372 296.299674 
L 244.945519 296.299674 
L 252.105666 296.299674 
L 259.265813 296.299674 
L 266.42596 296.299674 
L 273.586107 296.299674 
L 280.746253 296.299674 
L 287.9064 296.299674 
L 295.066547 296.299674 
L 302.226694 296.299674 
L 309.386841 296.299674 
L 316.546988 296.299674 
L 323.707135 296.299674 
L 330.867282 296.299674 
L 338.027429 296.299674 
L 345.187576 296.299674 
L 352.347723 296.299674 
L 359.50787 296.299674 
L 366.668017 296.299674 
L 373.828163 296.299674 
L 380.98831 296.299674 
L 388.148457 296.299674 
L 395.308604 296.299674 
L 402.468751 296.299674 
L 409.628898 296.299674 
L 416.789045 296.299674 
L 423.949192 296.299674 
L 431.109339 296.299674 
L 438.269486 296.299674 
L 445.429633 296.299674 
L 452.58978 296.299674 
L 459.749927 296.299674 
" clip-path="url(#pbbdc1b44ac)" style="fill: none; stroke: #1f77b4; stroke-width: 1.5; stroke-linecap: square"/>
    <defs>
     <path id="m79efa45e52" d="M 0 4 
C 1.060812 4 2.078319 3.578535 2.828427 2.828427 
C 3.578535 2.078319 4 1.060812 4 0 
C 4 -1.060812 3.578535 -2.078319 2.828427 -2.828427 
C 2.078319 -3.578535 1.060812 -4 0 -4 
C -1.060812 -4 -2.078319 -3.578535 -2.828427 -2.828427 
C -3.578535 -2.078319 -4 -1.060812 -4 0 
C -4 1.060812 -3.578535 2.078319 -2.828427 2.828427 
C -2.078319 3.578535 -1.060812 4 0 4 
z
" style="stroke: #1f77b4"/>
    </defs>
    <g clip-path="url(#pbbdc1b44ac)">
     <use xlink:href="#m79efa45e52" x="108.902727" y="296.299674" style="fill: #1f77b4; stroke: #1f77b4"/>
     <use xlink:href="#m79efa45e52" x="116.062874" y="296.299674" style="fill: #1f77b4; stroke: #1f77b4"/>
     <use xlink:href="#m79efa45e52" x="123.223021" y="296.299674" style="fill: #1f77b4; stroke: #1f77b4"/>
     <use xlink:href="#m79efa45e52" x="130.383168" y="296.299674" style="fill: #1f77b4; stroke: #1f77b4"/>
     <use xlink:href="#m79efa45e52" x="137.543315" y="296.299674" style="fill: #1f77b4; stroke: #1f77b4"/>
     <use xlink:href="#m79efa45e52" x="144.703462" y="296.299674" style="fill: #1f77b4; stroke: #1f77b4"/>
     <use xlink:href="#m79efa45e52" x="151.863609" y="296.299674" style="fill: #1f77b4; stroke: #1f77b4"/>
     <use xlink:href="#m79efa45e52" x="159.023756" y="296.299674" style="fill: #1f77b4; stroke: #1f77b4"/>
     <use xlink:href="#m79efa45e52" x="166.183903" y="296.299674" style="fill: #1f77b4; stroke: #1f77b4"/>
     <use xlink:href="#m79efa45e52" x="173.34405" y="296.299674" style="fill: #1f77b4; stroke: #1f77b4"/>
     <use xlink:href="#m79efa45e52" x="180.504197" y="296.299674" style="fill: #1f77b4; stroke: #1f77b4"/>
     <use xlink:href="#m79efa45e52" x="187.664343" y="296.299674" style="fill: #1f77b4; stroke: #1f77b4"/>
     <use xlink:href="#m79efa45e52" x="194.82449" y="296.299674" style="fill: #1f77b4; stroke: #1f77b4"/>
     <use xlink:href="#m79efa45e52" x="201.984637" y="296.299674" style="fill: #1f77b4; stroke: #1f77b4"/>
     <use xlink:href="#m79efa45e52" x="209.144784" y="296.299674" style="fill: #1f77b4; stroke: #1f77b4"/>
     <use xlink:href="#m79efa45e52" x="216.304931" y="296.299674" style="fill: #1f77b4; stroke: #1f77b4"/>
     <use xlink:href="#m79efa45e52" x="223.465078" y="296.299674" style="fill: #1f77b4; stroke: #1f77b4"/>
     <use xlink:href="#m79efa45e52" x="230.625225" y="296.299674" style="fill: #1f77b4; stroke: #1f77b4"/>
     <use xlink:href="#m79efa45e52" x="237.785372" y="296.299674" style="fill: #1f77b4; stroke: #1f77b4"/>
     <use xlink:href="#m79efa45e52" x="244.945519" y="296.299674" style="fill: #1f77b4; stroke: #1f77b4"/>
     <use xlink:href="#m79efa45e52" x="252.105666" y="296.299674" style="fill: #1f77b4; stroke: #1f77b4"/>
     <use xlink:href="#m79efa45e52" x="259.265813" y="296.299674" style="fill: #1f77b4; stroke: #1f77b4"/>
     <use xlink:href="#m79efa45e52" x="266.42596" y="296.299674" style="fill: #1f77b4; stroke: #1f77b4"/>
     <use xlink:href="#m79efa45e52" x="273.586107" y="296.299674" style="fill: #1f77b4; stroke: #1f77b4"/>
     <use xlink:href="#m79efa45e52" x="280.746253" y="296.299674" style="fill: #1f77b4; stroke: #1f77b4"/>
     <use xlink:href="#m79efa45e52" x="287.9064" y="296.299674" style="fill: #1f77b4; stroke: #1f77b4"/>
     <use xlink:href="#m79efa45e52" x="295.066547" y="296.299674" style="fill: #1f77b4; stroke: #1f77b4"/>
     <use xlink:href="#m79efa45e52" x="302.226694" y="296.299674" style="fill: #1f77b4; stroke: #1f77b4"/>
     <use xlink:href="#m79efa45e52" x="309.386841" y="296.299674" style="fill: #1f77b4; stroke: #1f77b4"/>
     <use xlink:href="#m79efa45e52" x="316.546988" y="296.299674" style="fill: #1f77b4; stroke: #1f77b4"/>
     <use xlink:href="#m79efa45e52" x="323.707135" y="296.299674" style="fill: #1f77b4; stroke: #1f77b4"/>
     <use xlink:href="#m79efa45e52" x="330.867282" y="296.299674" style="fill: #1f77b4; stroke: #1f77b4"/>
     <use xlink:href="#m79efa45e52" x="338.027429" y="296.299674" style="fill: #1f77b4; stroke: #1f77b4"/>
     <use xlink:href="#m79efa45e52" x="345.187576" y="296.299674" style="fill: #1f77b4; stroke: #1f77b4"/>
     <use xlink:href="#m79efa45e52" x="352.347723" y="296.299674" style="fill: #1f77b4; stroke: #1f77b4"/>
     <use xlink:href="#m79efa45e52" x="359.50787" y="296.299674" style="fill: #1f77b4; stroke: #1f77b4"/>
     <use xlink:href="#m79efa45e52" x="366.668017" y="296.299674" style="fill: #1f77b4; stroke: #1f77b4"/>
     <use xlink:href="#m79efa45e52" x="373.828163" y="296.299674" style="fill: #1f77b4; stroke: #1f77b4"/>
     <use xlink:href="#m79efa45e52" x="380.98831" y="296.299674" style="fill: #1f77b4; stroke: #1f77b4"/>
     <use xlink:href="#m79efa45e52" x="388.148457" y="296.299674" style="fill: #1f77b4; stroke: #1f77b4"/>
     <use xlink:href="#m79efa45e52" x="395.308604" y="296.299674" style="fill: #1f77b4; stroke: #1f77b4"/>
     <use xlink:href="#m79efa45e52" x="402.468751" y="296.299674" style="fill: #1f77b4; stroke: #1f77b4"/>
     <use xlink:href="#m79efa45e52" x="409.628898" y="296.299674" style="fill: #1f77b4; stroke: #1f77b4"/>
     <use xlink:href="#m79efa45e52" x="416.789045" y="296.299674" style="fill: #1f77b4; stroke: #1f77b4"/>
     <use xlink:href="#m79efa45e52" x="423.949192" y="296.299674" style="fill: #1f77b4; stroke: #1f77b4"/>
     <use xlink:href="#m79efa45e52" x="431.109339" y="296.299674" style="fill: #1f77b4; stroke: #1f77b4"/>
     <use xlink:href="#m79efa45e52" x="438.269486" y="296.299674" style="fill: #1f77b4; stroke: #1f77b4"/>
     <use xlink:href="#m79efa45e52" x="445.429633" y="296.299674" style="fill: #1f77b4; stroke: #1f77b4"/>
     <use xlink:href="#m79efa45e52" x="452.58978" y="296.299674" style="fill: #1f77b4; stroke: #1f77b4"/>
     <use xlink:href="#m79efa45e52" x="459.749927" y="296.299674" style="fill: #1f77b4; stroke: #1f77b4"/>
    </g>
   </g>
   <g id="line2d_28">
    <path d="M 108.902727 296.299674 
L 116.062874 296.299674 
L 123.223021 296.299674 
L 130.383168 296.299674 
L 137.543315 296.299674 
L 144.703462 296.299674 
L 151.863609 296.299674 
L 159.023756 296.299674 
L 166.183903 296.299674 
L 173.34405 296.299674 
L 180.504197 296.299674 
L 187.664343 296.299674 
L 194.82449 296.299674 
L 201.984637 296.299674 
L 209.144784 296.299674 
L 216.304931 296.299674 
L 223.465078 296.299674 
L 230.625225 296.299674 
L 237.785372 296.299674 
L 244.945519 296.299674 
L 252.105666 296.299674 
L 259.265813 296.299674 
L 266.42596 296.299674 
L 273.586107 296.299674 
L 280.746253 296.299674 
L 287.9064 296.299674 
L 295.066547 296.299674 
L 302.226694 296.299674 
L 309.386841 296.299674 
L 316.546988 296.299674 
L 323.707135 296.299674 
L 330.867282 296.299674 
L 338.027429 296.299674 
L 345.187576 302.631205 
L 352.347723 302.631205 
L 359.50787 302.631205 
L 366.668017 302.631205 
L 373.828163 302.631205 
L 380.98831 302.631205 
L 388.148457 302.631205 
L 395.308604 302.631205 
L 402.468751 302.631205 
L 409.628898 302.631205 
L 416.789045 302.631205 
L 423.949192 302.631205 
L 431.109339 302.631205 
L 438.269486 302.631205 
L 445.429633 302.631205 
L 452.58978 302.631205 
L 459.749927 302.631205 
" clip-path="url(#pbbdc1b44ac)" style="fill: none; stroke: #ff7f0e; stroke-width: 1.5; stroke-linecap: square"/>
    <defs>
     <path id="mb72a3e634b" d="M 0 4 
C 1.060812 4 2.078319 3.578535 2.828427 2.828427 
C 3.578535 2.078319 4 1.060812 4 0 
C 4 -1.060812 3.578535 -2.078319 2.828427 -2.828427 
C 2.078319 -3.578535 1.060812 -4 0 -4 
C -1.060812 -4 -2.078319 -3.578535 -2.828427 -2.828427 
C -3.578535 -2.078319 -4 -1.060812 -4 0 
C -4 1.060812 -3.578535 2.078319 -2.828427 2.828427 
C -2.078319 3.578535 -1.060812 4 0 4 
z
" style="stroke: #ff7f0e"/>
    </defs>
    <g clip-path="url(#pbbdc1b44ac)">
     <use xlink:href="#mb72a3e634b" x="108.902727" y="296.299674" style="fill: #ff7f0e; stroke: #ff7f0e"/>
     <use xlink:href="#mb72a3e634b" x="116.062874" y="296.299674" style="fill: #ff7f0e; stroke: #ff7f0e"/>
     <use xlink:href="#mb72a3e634b" x="123.223021" y="296.299674" style="fill: #ff7f0e; stroke: #ff7f0e"/>
     <use xlink:href="#mb72a3e634b" x="130.383168" y="296.299674" style="fill: #ff7f0e; stroke: #ff7f0e"/>
     <use xlink:href="#mb72a3e634b" x="137.543315" y="296.299674" style="fill: #ff7f0e; stroke: #ff7f0e"/>
     <use xlink:href="#mb72a3e634b" x="144.703462" y="296.299674" style="fill: #ff7f0e; stroke: #ff7f0e"/>
     <use xlink:href="#mb72a3e634b" x="151.863609" y="296.299674" style="fill: #ff7f0e; stroke: #ff7f0e"/>
     <use xlink:href="#mb72a3e634b" x="159.023756" y="296.299674" style="fill: #ff7f0e; stroke: #ff7f0e"/>
     <use xlink:href="#mb72a3e634b" x="166.183903" y="296.299674" style="fill: #ff7f0e; stroke: #ff7f0e"/>
     <use xlink:href="#mb72a3e634b" x="173.34405" y="296.299674" style="fill: #ff7f0e; stroke: #ff7f0e"/>
     <use xlink:href="#mb72a3e634b" x="180.504197" y="296.299674" style="fill: #ff7f0e; stroke: #ff7f0e"/>
     <use xlink:href="#mb72a3e634b" x="187.664343" y="296.299674" style="fill: #ff7f0e; stroke: #ff7f0e"/>
     <use xlink:href="#mb72a3e634b" x="194.82449" y="296.299674" style="fill: #ff7f0e; stroke: #ff7f0e"/>
     <use xlink:href="#mb72a3e634b" x="201.984637" y="296.299674" style="fill: #ff7f0e; stroke: #ff7f0e"/>
     <use xlink:href="#mb72a3e634b" x="209.144784" y="296.299674" style="fill: #ff7f0e; stroke: #ff7f0e"/>
     <use xlink:href="#mb72a3e634b" x="216.304931" y="296.299674" style="fill: #ff7f0e; stroke: #ff7f0e"/>
     <use xlink:href="#mb72a3e634b" x="223.465078" y="296.299674" style="fill: #ff7f0e; stroke: #ff7f0e"/>
     <use xlink:href="#mb72a3e634b" x="230.625225" y="296.299674" style="fill: #ff7f0e; stroke: #ff7f0e"/>
     <use xlink:href="#mb72a3e634b" x="237.785372" y="296.299674" style="fill: #ff7f0e; stroke: #ff7f0e"/>
     <use xlink:href="#mb72a3e634b" x="244.945519" y="296.299674" style="fill: #ff7f0e; stroke: #ff7f0e"/>
     <use xlink:href="#mb72a3e634b" x="252.105666" y="296.299674" style="fill: #ff7f0e; stroke: #ff7f0e"/>
     <use xlink:href="#mb72a3e634b" x="259.265813" y="296.299674" style="fill: #ff7f0e; stroke: #ff7f0e"/>
     <use xlink:href="#mb72a3e634b" x="266.42596" y="296.299674" style="fill: #ff7f0e; stroke: #ff7f0e"/>
     <use xlink:href="#mb72a3e634b" x="273.586107" y="296.299674" style="fill: #ff7f0e; stroke: #ff7f0e"/>
     <use xlink:href="#mb72a3e634b" x="280.746253" y="296.299674" style="fill: #ff7f0e; stroke: #ff7f0e"/>
     <use xlink:href="#mb72a3e634b" x="287.9064" y="296.299674" style="fill: #ff7f0e; stroke: #ff7f0e"/>
     <use xlink:href="#mb72a3e634b" x="295.066547" y="296.299674" style="fill: #ff7f0e; stroke: #ff7f0e"/>
     <use xlink:href="#mb72a3e634b" x="302.226694" y="296.299674" style="fill: #ff7f0e; stroke: #ff7f0e"/>
     <use xlink:href="#mb72a3e634b" x="309.386841" y="296.299674" style="fill: #ff7f0e; stroke: #ff7f0e"/>
     <use xlink:href="#mb72a3e634b" x="316.546988" y="296.299674" style="fill: #ff7f0e; stroke: #ff7f0e"/>
     <use xlink:href="#mb72a3e634b" x="323.707135" y="296.299674" style="fill: #ff7f0e; stroke: #ff7f0e"/>
     <use xlink:href="#mb72a3e634b" x="330.867282" y="296.299674" style="fill: #ff7f0e; stroke: #ff7f0e"/>
     <use xlink:href="#mb72a3e634b" x="338.027429" y="296.299674" style="fill: #ff7f0e; stroke: #ff7f0e"/>
     <use xlink:href="#mb72a3e634b" x="345.187576" y="302.631205" style="fill: #ff7f0e; stroke: #ff7f0e"/>
     <use xlink:href="#mb72a3e634b" x="352.347723" y="302.631205" style="fill: #ff7f0e; stroke: #ff7f0e"/>
     <use xlink:href="#mb72a3e634b" x="359.50787" y="302.631205" style="fill: #ff7f0e; stroke: #ff7f0e"/>
     <use xlink:href="#mb72a3e634b" x="366.668017" y="302.631205" style="fill: #ff7f0e; stroke: #ff7f0e"/>
     <use xlink:href="#mb72a3e634b" x="373.828163" y="302.631205" style="fill: #ff7f0e; stroke: #ff7f0e"/>
     <use xlink:href="#mb72a3e634b" x="380.98831" y="302.631205" style="fill: #ff7f0e; stroke: #ff7f0e"/>
     <use xlink:href="#mb72a3e634b" x="388.148457" y="302.631205" style="fill: #ff7f0e; stroke: #ff7f0e"/>
     <use xlink:href="#mb72a3e634b" x="395.308604" y="302.631205" style="fill: #ff7f0e; stroke: #ff7f0e"/>
     <use xlink:href="#mb72a3e634b" x="402.468751" y="302.631205" style="fill: #ff7f0e; stroke: #ff7f0e"/>
     <use xlink:href="#mb72a3e634b" x="409.628898" y="302.631205" style="fill: #ff7f0e; stroke: #ff7f0e"/>
     <use xlink:href="#mb72a3e634b" x="416.789045" y="302.631205" style="fill: #ff7f0e; stroke: #ff7f0e"/>
     <use xlink:href="#mb72a3e634b" x="423.949192" y="302.631205" style="fill: #ff7f0e; stroke: #ff7f0e"/>
     <use xlink:href="#mb72a3e634b" x="431.109339" y="302.631205" style="fill: #ff7f0e; stroke: #ff7f0e"/>
     <use xlink:href="#mb72a3e634b" x="438.269486" y="302.631205" style="fill: #ff7f0e; stroke: #ff7f0e"/>
     <use xlink:href="#mb72a3e634b" x="445.429633" y="302.631205" style="fill: #ff7f0e; stroke: #ff7f0e"/>
     <use xlink:href="#mb72a3e634b" x="452.58978" y="302.631205" style="fill: #ff7f0e; stroke: #ff7f0e"/>
     <use xlink:href="#mb72a3e634b" x="459.749927" y="302.631205" style="fill: #ff7f0e; stroke: #ff7f0e"/>
    </g>
   </g>
   <g id="line2d_29">
    <path d="M 108.902727 296.299674 
L 116.062874 296.299674 
L 123.223021 296.299674 
L 130.383168 296.299674 
L 137.543315 296.299674 
L 144.703462 296.299674 
L 151.863609 296.299674 
L 159.023756 296.299674 
L 166.183903 296.299674 
L 173.34405 296.299674 
L 180.504197 296.299674 
L 187.664343 296.299674 
L 194.82449 296.299674 
L 201.984637 296.299674 
L 209.144784 296.299674 
L 216.304931 296.299674 
L 223.465078 296.299674 
L 230.625225 296.299674 
L 237.785372 296.299674 
L 244.945519 296.299674 
L 252.105666 296.299674 
L 259.265813 296.299674 
L 266.42596 296.299674 
L 273.586107 296.299674 
L 280.746253 296.299674 
L 345.187576 410.635186 
L 388.148457 415.881635 
L 409.628898 500.89653 
L 416.789045 501.567315 
L 524.191249 504.294294 
L 624.433306 506.529524 
L 638.7536 506.529524 
" clip-path="url(#pbbdc1b44ac)" style="fill: none; stroke: #2ca02c; stroke-width: 1.5; stroke-linecap: square"/>
    <defs>
     <path id="mcf289e8d9d" d="M 0 4 
C 1.060812 4 2.078319 3.578535 2.828427 2.828427 
C 3.578535 2.078319 4 1.060812 4 0 
C 4 -1.060812 3.578535 -2.078319 2.828427 -2.828427 
C 2.078319 -3.578535 1.060812 -4 0 -4 
C -1.060812 -4 -2.078319 -3.578535 -2.828427 -2.828427 
C -3.578535 -2.078319 -4 -1.060812 -4 0 
C -4 1.060812 -3.578535 2.078319 -2.828427 2.828427 
C -2.078319 3.578535 -1.060812 4 0 4 
z
" style="stroke: #2ca02c"/>
    </defs>
    <g clip-path="url(#pbbdc1b44ac)">
     <use xlink:href="#mcf289e8d9d" x="108.902727" y="296.299674" style="fill: #2ca02c; stroke: #2ca02c"/>
     <use xlink:href="#mcf289e8d9d" x="116.062874" y="296.299674" style="fill: #2ca02c; stroke: #2ca02c"/>
     <use xlink:href="#mcf289e8d9d" x="123.223021" y="296.299674" style="fill: #2ca02c; stroke: #2ca02c"/>
     <use xlink:href="#mcf289e8d9d" x="130.383168" y="296.299674" style="fill: #2ca02c; stroke: #2ca02c"/>
     <use xlink:href="#mcf289e8d9d" x="137.543315" y="296.299674" style="fill: #2ca02c; stroke: #2ca02c"/>
     <use xlink:href="#mcf289e8d9d" x="144.703462" y="296.299674" style="fill: #2ca02c; stroke: #2ca02c"/>
     <use xlink:href="#mcf289e8d9d" x="151.863609" y="296.299674" style="fill: #2ca02c; stroke: #2ca02c"/>
     <use xlink:href="#mcf289e8d9d" x="159.023756" y="296.299674" style="fill: #2ca02c; stroke: #2ca02c"/>
     <use xlink:href="#mcf289e8d9d" x="166.183903" y="296.299674" style="fill: #2ca02c; stroke: #2ca02c"/>
     <use xlink:href="#mcf289e8d9d" x="173.34405" y="296.299674" style="fill: #2ca02c; stroke: #2ca02c"/>
     <use xlink:href="#mcf289e8d9d" x="180.504197" y="296.299674" style="fill: #2ca02c; stroke: #2ca02c"/>
     <use xlink:href="#mcf289e8d9d" x="187.664343" y="296.299674" style="fill: #2ca02c; stroke: #2ca02c"/>
     <use xlink:href="#mcf289e8d9d" x="194.82449" y="296.299674" style="fill: #2ca02c; stroke: #2ca02c"/>
     <use xlink:href="#mcf289e8d9d" x="201.984637" y="296.299674" style="fill: #2ca02c; stroke: #2ca02c"/>
     <use xlink:href="#mcf289e8d9d" x="209.144784" y="296.299674" style="fill: #2ca02c; stroke: #2ca02c"/>
     <use xlink:href="#mcf289e8d9d" x="216.304931" y="296.299674" style="fill: #2ca02c; stroke: #2ca02c"/>
     <use xlink:href="#mcf289e8d9d" x="223.465078" y="296.299674" style="fill: #2ca02c; stroke: #2ca02c"/>
     <use xlink:href="#mcf289e8d9d" x="230.625225" y="296.299674" style="fill: #2ca02c; stroke: #2ca02c"/>
     <use xlink:href="#mcf289e8d9d" x="237.785372" y="296.299674" style="fill: #2ca02c; stroke: #2ca02c"/>
     <use xlink:href="#mcf289e8d9d" x="244.945519" y="296.299674" style="fill: #2ca02c; stroke: #2ca02c"/>
     <use xlink:href="#mcf289e8d9d" x="252.105666" y="296.299674" style="fill: #2ca02c; stroke: #2ca02c"/>
     <use xlink:href="#mcf289e8d9d" x="259.265813" y="296.299674" style="fill: #2ca02c; stroke: #2ca02c"/>
     <use xlink:href="#mcf289e8d9d" x="266.42596" y="296.299674" style="fill: #2ca02c; stroke: #2ca02c"/>
     <use xlink:href="#mcf289e8d9d" x="273.586107" y="296.299674" style="fill: #2ca02c; stroke: #2ca02c"/>
     <use xlink:href="#mcf289e8d9d" x="280.746253" y="296.299674" style="fill: #2ca02c; stroke: #2ca02c"/>
     <use xlink:href="#mcf289e8d9d" x="345.187576" y="410.635186" style="fill: #2ca02c; stroke: #2ca02c"/>
     <use xlink:href="#mcf289e8d9d" x="388.148457" y="415.881635" style="fill: #2ca02c; stroke: #2ca02c"/>
     <use xlink:href="#mcf289e8d9d" x="409.628898" y="500.89653" style="fill: #2ca02c; stroke: #2ca02c"/>
     <use xlink:href="#mcf289e8d9d" x="416.789045" y="501.567315" style="fill: #2ca02c; stroke: #2ca02c"/>
     <use xlink:href="#mcf289e8d9d" x="524.191249" y="504.294294" style="fill: #2ca02c; stroke: #2ca02c"/>
     <use xlink:href="#mcf289e8d9d" x="624.433306" y="506.529524" style="fill: #2ca02c; stroke: #2ca02c"/>
     <use xlink:href="#mcf289e8d9d" x="638.7536" y="506.529524" style="fill: #2ca02c; stroke: #2ca02c"/>
    </g>
   </g>
   <g id="line2d_30">
    <path d="M 108.902727 296.299674 
L 116.062874 296.299674 
L 123.223021 296.299674 
L 130.383168 296.299674 
L 137.543315 296.299674 
L 144.703462 296.299674 
L 151.863609 296.299674 
L 159.023756 296.299674 
L 166.183903 296.299674 
L 173.34405 296.299674 
L 180.504197 296.299674 
L 187.664343 296.299674 
L 194.82449 296.299674 
L 201.984637 296.299674 
L 209.144784 296.299674 
L 216.304931 296.299674 
L 223.465078 296.299674 
L 230.625225 296.299674 
L 237.785372 296.299674 
L 244.945519 296.299674 
L 252.105666 296.299674 
L 259.265813 296.299674 
L 266.42596 296.299674 
L 273.586107 296.299674 
L 280.746253 296.299674 
L 638.7536 296.299674 
L 817.757273 378.427682 
" clip-path="url(#pbbdc1b44ac)" style="fill: none; stroke: #d62728; stroke-width: 1.5; stroke-linecap: square"/>
    <defs>
     <path id="m11badd233b" d="M 0 4 
C 1.060812 4 2.078319 3.578535 2.828427 2.828427 
C 3.578535 2.078319 4 1.060812 4 0 
C 4 -1.060812 3.578535 -2.078319 2.828427 -2.828427 
C 2.078319 -3.578535 1.060812 -4 0 -4 
C -1.060812 -4 -2.078319 -3.578535 -2.828427 -2.828427 
C -3.578535 -2.078319 -4 -1.060812 -4 0 
C -4 1.060812 -3.578535 2.078319 -2.828427 2.828427 
C -2.078319 3.578535 -1.060812 4 0 4 
z
" style="stroke: #d62728"/>
    </defs>
    <g clip-path="url(#pbbdc1b44ac)">
     <use xlink:href="#m11badd233b" x="108.902727" y="296.299674" style="fill: #d62728; stroke: #d62728"/>
     <use xlink:href="#m11badd233b" x="116.062874" y="296.299674" style="fill: #d62728; stroke: #d62728"/>
     <use xlink:href="#m11badd233b" x="123.223021" y="296.299674" style="fill: #d62728; stroke: #d62728"/>
     <use xlink:href="#m11badd233b" x="130.383168" y="296.299674" style="fill: #d62728; stroke: #d62728"/>
     <use xlink:href="#m11badd233b" x="137.543315" y="296.299674" style="fill: #d62728; stroke: #d62728"/>
     <use xlink:href="#m11badd233b" x="144.703462" y="296.299674" style="fill: #d62728; stroke: #d62728"/>
     <use xlink:href="#m11badd233b" x="151.863609" y="296.299674" style="fill: #d62728; stroke: #d62728"/>
     <use xlink:href="#m11badd233b" x="159.023756" y="296.299674" style="fill: #d62728; stroke: #d62728"/>
     <use xlink:href="#m11badd233b" x="166.183903" y="296.299674" style="fill: #d62728; stroke: #d62728"/>
     <use xlink:href="#m11badd233b" x="173.34405" y="296.299674" style="fill: #d62728; stroke: #d62728"/>
     <use xlink:href="#m11badd233b" x="180.504197" y="296.299674" style="fill: #d62728; stroke: #d62728"/>
     <use xlink:href="#m11badd233b" x="187.664343" y="296.299674" style="fill: #d62728; stroke: #d62728"/>
     <use xlink:href="#m11badd233b" x="194.82449" y="296.299674" style="fill: #d62728; stroke: #d62728"/>
     <use xlink:href="#m11badd233b" x="201.984637" y="296.299674" style="fill: #d62728; stroke: #d62728"/>
     <use xlink:href="#m11badd233b" x="209.144784" y="296.299674" style="fill: #d62728; stroke: #d62728"/>
     <use xlink:href="#m11badd233b" x="216.304931" y="296.299674" style="fill: #d62728; stroke: #d62728"/>
     <use xlink:href="#m11badd233b" x="223.465078" y="296.299674" style="fill: #d62728; stroke: #d62728"/>
     <use xlink:href="#m11badd233b" x="230.625225" y="296.299674" style="fill: #d62728; stroke: #d62728"/>
     <use xlink:href="#m11badd233b" x="237.785372" y="296.299674" style="fill: #d62728; stroke: #d62728"/>
     <use xlink:href="#m11badd233b" x="244.945519" y="296.299674" style="fill: #d62728; stroke: #d62728"/>
     <use xlink:href="#m11badd233b" x="252.105666" y="296.299674" style="fill: #d62728; stroke: #d62728"/>
     <use xlink:href="#m11badd233b" x="259.265813" y="296.299674" style="fill: #d62728; stroke: #d62728"/>
     <use xlink:href="#m11badd233b" x="266.42596" y="296.299674" style="fill: #d62728; stroke: #d62728"/>
     <use xlink:href="#m11badd233b" x="273.586107" y="296.299674" style="fill: #d62728; stroke: #d62728"/>
     <use xlink:href="#m11badd233b" x="280.746253" y="296.299674" style="fill: #d62728; stroke: #d62728"/>
     <use xlink:href="#m11badd233b" x="638.7536" y="296.299674" style="fill: #d62728; stroke: #d62728"/>
     <use xlink:href="#m11badd233b" x="817.757273" y="378.427682" style="fill: #d62728; stroke: #d62728"/>
    </g>
   </g>
   <g id="patch_3">
    <path d="M 73.46 530.44 
L 73.46 28.32 
" style="fill: none; stroke: #000000; stroke-width: 0.8; stroke-linejoin: miter; stroke-linecap: square"/>
   </g>
   <g id="patch_4">
    <path d="M 853.2 530.44 
L 853.2 28.32 
" style="fill: none; stroke: #000000; stroke-width: 0.8; stroke-linejoin: miter; stroke-linecap: square"/>
   </g>
   <g id="patch_5">
    <path d="M 73.46 530.44 
L 853.2 530.44 
" style="fill: none; stroke: #000000; stroke-width: 0.8; stroke-linejoin: miter; stroke-linecap: square"/>
   </g>
   <g id="patch_6">
    <path d="M 73.46 28.32 
L 853.2 28.32 
" style="fill: none; stroke: #000000; stroke-width: 0.8; stroke-linejoin: miter; stroke-linecap: square"/>
   </g>
   <g id="text_16">
    <!-- Optimization Methods Comparison (Zoomed) - Gamma Scenario -->
    <g transform="translate(206.26875 22.32) scale(0.16 -0.16)">
     <defs>
      <path id="DejaVuSans-4f" d="M 2522 4238 
Q 1834 4238 1429 3725 
Q 1025 3213 1025 2328 
Q 1025 1447 1429 934 
Q 1834 422 2522 422 
Q 3209 422 3611 934 
Q 4013 1447 4013 2328 
Q 4013 3213 3611 3725 
Q 3209 4238 2522 4238 
z
M 2522 4750 
Q 3503 4750 4090 4092 
Q 4678 3434 4678 2328 
Q 4678 1225 4090 567 
Q 3503 -91 2522 -91 
Q 1538 -91 948 565 
Q 359 1222 359 2328 
Q 359 3434 948 4092 
Q 1538 4750 2522 4750 
z
" transform="scale(0.015625)"/>
      <path id="DejaVuSans-70" d="M 1159 525 
L 1159 -1331 
L 581 -1331 
L 581 3500 
L 1159 3500 
L 1159 2969 
Q 1341 3281 1617 3432 
Q 1894 3584 2278 3584 
Q 2916 3584 3314 3078 
Q 3713 2572 3713 1747 
Q 3713 922 3314 415 
Q 2916 -91 2278 -91 
Q 1894 -91 1617 61 
Q 1341 213 1159 525 
z
M 3116 1747 
Q 3116 2381 2855 2742 
Q 2594 3103 2138 3103 
Q 1681 3103 1420 2742 
Q 1159 2381 1159 1747 
Q 1159 1113 1420 752 
Q 1681 391 2138 391 
Q 2594 391 2855 752 
Q 3116 1113 3116 1747 
z
" transform="scale(0.015625)"/>
      <path id="DejaVuSans-6d" d="M 3328 2828 
Q 3544 3216 3844 3400 
Q 4144 3584 4550 3584 
Q 5097 3584 5394 3201 
Q 5691 2819 5691 2113 
L 5691 0 
L 5113 0 
L 5113 2094 
Q 5113 2597 4934 2840 
Q 4756 3084 4391 3084 
Q 3944 3084 3684 2787 
Q 3425 2491 3425 1978 
L 3425 0 
L 2847 0 
L 2847 2094 
Q 2847 2600 2669 2842 
Q 2491 3084 2119 3084 
Q 1678 3084 1418 2786 
Q 1159 2488 1159 1978 
L 1159 0 
L 581 0 
L 581 3500 
L 1159 3500 
L 1159 2956 
Q 1356 3278 1631 3431 
Q 1906 3584 2284 3584 
Q 2666 3584 2933 3390 
Q 3200 3197 3328 2828 
z
" transform="scale(0.015625)"/>
      <path id="DejaVuSans-7a" d="M 353 3500 
L 3084 3500 
L 3084 2975 
L 922 459 
L 3084 459 
L 3084 0 
L 275 0 
L 275 525 
L 2438 3041 
L 353 3041 
L 353 3500 
z
" transform="scale(0.015625)"/>
      <path id="DejaVuSans-4d" d="M 628 4666 
L 1569 4666 
L 2759 1491 
L 3956 4666 
L 4897 4666 
L 4897 0 
L 4281 0 
L 4281 4097 
L 3078 897 
L 2444 897 
L 1241 4097 
L 1241 0 
L 628 0 
L 628 4666 
z
" transform="scale(0.015625)"/>
      <path id="DejaVuSans-68" d="M 3513 2113 
L 3513 0 
L 2938 0 
L 2938 2094 
Q 2938 2591 2744 2837 
Q 2550 3084 2163 3084 
Q 1697 3084 1428 2787 
Q 1159 2491 1159 1978 
L 1159 0 
L 581 0 
L 581 4863 
L 1159 4863 
L 1159 2956 
Q 1366 3272 1645 3428 
Q 1925 3584 2291 3584 
Q 2894 3584 3203 3211 
Q 3513 2838 3513 2113 
z
" transform="scale(0.015625)"/>
      <path id="DejaVuSans-72" d="M 2631 2963 
Q 2534 3019 2420 3045 
Q 2306 3072 2169 3072 
Q 1681 3072 1420 2755 
Q 1159 2438 1159 1844 
L 1159 0 
L 581 0 
L 581 3500 
L 1159 3500 
L 1159 2956 
Q 1341 3275 1631 3429 
Q 1922 3584 2338 3584 
Q 2397 3584 2469 3576 
Q 2541 3569 2628 3553 
L 2631 2963 
z
" transform="scale(0.015625)"/>
      <path id="DejaVuSans-28" d="M 1984 4856 
Q 1566 4138 1362 3434 
Q 1159 2731 1159 2009 
Q 1159 1288 1364 580 
Q 1569 -128 1984 -844 
L 1484 -844 
Q 1016 -109 783 600 
Q 550 1309 550 2009 
Q 550 2706 781 3412 
Q 1013 4119 1484 4856 
L 1984 4856 
z
" transform="scale(0.015625)"/>
      <path id="DejaVuSans-5a" d="M 359 4666 
L 4025 4666 
L 4025 4184 
L 1075 531 
L 4097 531 
L 4097 0 
L 288 0 
L 288 481 
L 3238 4134 
L 359 4134 
L 359 4666 
z
" transform="scale(0.015625)"/>
      <path id="DejaVuSans-29" d="M 513 4856 
L 1013 4856 
Q 1481 4119 1714 3412 
Q 1947 2706 1947 2009 
Q 1947 1309 1714 600 
Q 1481 -109 1013 -844 
L 513 -844 
Q 928 -128 1133 580 
Q 1338 1288 1338 2009 
Q 1338 2731 1133 3434 
Q 928 4138 513 4856 
z
" transform="scale(0.015625)"/>
      <path id="DejaVuSans-2d" d="M 313 2009 
L 1997 2009 
L 1997 1497 
L 313 1497 
L 313 2009 
z
" transform="scale(0.015625)"/>
      <path id="DejaVuSans-47" d="M 3809 666 
L 3809 1919 
L 2778 1919 
L 2778 2438 
L 4434 2438 
L 4434 434 
Q 4069 175 3628 42 
Q 3188 -91 2688 -91 
Q 1594 -91 976 548 
Q 359 1188 359 2328 
Q 359 3472 976 4111 
Q 1594 4750 2688 4750 
Q 3144 4750 3555 4637 
Q 3966 4525 4313 4306 
L 4313 3634 
Q 3963 3931 3569 4081 
Q 3175 4231 2741 4231 
Q 1884 4231 1454 3753 
Q 1025 3275 1025 2328 
Q 1025 1384 1454 906 
Q 1884 428 2741 428 
Q 3075 428 3337 486 
Q 3600 544 3809 666 
z
" transform="scale(0.015625)"/>
      <path id="DejaVuSans-53" d="M 3425 4513 
L 3425 3897 
Q 3066 4069 2747 4153 
Q 2428 4238 2131 4238 
Q 1616 4238 1336 4038 
Q 1056 3838 1056 3469 
Q 1056 3159 1242 3001 
Q 1428 2844 1947 2747 
L 2328 2669 
Q 3034 2534 3370 2195 
Q 3706 1856 3706 1288 
Q 3706 609 3251 259 
Q 2797 -91 1919 -91 
Q 1588 -91 1214 -16 
Q 841 59 441 206 
L 441 856 
Q 825 641 1194 531 
Q 1563 422 1919 422 
Q 2459 422 2753 634 
Q 3047 847 3047 1241 
Q 3047 1584 2836 1778 
Q 2625 1972 2144 2069 
L 1759 2144 
Q 1053 2284 737 2584 
Q 422 2884 422 3419 
Q 422 4038 858 4394 
Q 1294 4750 2059 4750 
Q 2388 4750 2728 4690 
Q 3069 4631 3425 4513 
z
" transform="scale(0.015625)"/>
     </defs>
     <use xlink:href="#DejaVuSans-4f"/>
     <use xlink:href="#DejaVuSans-70" x="78.710938"/>
     <use xlink:href="#DejaVuSans-74" x="142.1875"/>
     <use xlink:href="#DejaVuSans-69" x="181.396484"/>
     <use xlink:href="#DejaVuSans-6d" x="209.179688"/>
     <use xlink:href="#DejaVuSans-69" x="306.591797"/>
     <use xlink:href="#DejaVuSans-7a" x="334.375"/>
     <use xlink:href="#DejaVuSans-61" x="386.865234"/>
     <use xlink:href="#DejaVuSans-74" x="448.144531"/>
     <use xlink:href="#DejaVuSans-69" x="487.353516"/>
     <use xlink:href="#DejaVuSans-6f" x="515.136719"/>
     <use xlink:href="#DejaVuSans-6e" x="576.318359"/>
     <use xlink:href="#DejaVuSans-20" x="639.697266"/>
     <use xlink:href="#DejaVuSans-4d" x="671.484375"/>
     <use xlink:href="#DejaVuSans-65" x="757.763672"/>
     <use xlink:href="#DejaVuSans-74" x="819.287109"/>
     <use xlink:href="#DejaVuSans-68" x="858.496094"/>
     <use xlink:href="#DejaVuSans-6f" x="921.875"/>
     <use xlink:href="#DejaVuSans-64" x="983.056641"/>
     <use xlink:href="#DejaVuSans-73" x="1046.533203"/>
     <use xlink:href="#DejaVuSans-20" x="1098.632812"/>
     <use xlink:href="#DejaVuSans-43" x="1130.419922"/>
     <use xlink:href="#DejaVuSans-6f" x="1200.244141"/>
     <use xlink:href="#DejaVuSans-6d" x="1261.425781"/>
     <use xlink:href="#DejaVuSans-70" x="1358.837891"/>
     <use xlink:href="#DejaVuSans-61" x="1422.314453"/>
     <use xlink:href="#DejaVuSans-72" x="1483.59375"/>
     <use xlink:href="#DejaVuSans-69" x="1524.707031"/>
     <use xlink:href="#DejaVuSans-73" x="1552.490234"/>
     <use xlink:href="#DejaVuSans-6f" x="1604.589844"/>
     <use xlink:href="#DejaVuSans-6e" x="1665.771484"/>
     <use xlink:href="#DejaVuSans-20" x="1729.150391"/>
     <use xlink:href="#DejaVuSans-28" x="1760.9375"/>
     <use xlink:href="#DejaVuSans-5a" x="1799.951172"/>
     <use xlink:href="#DejaVuSans-6f" x="1868.457031"/>
     <use xlink:href="#DejaVuSans-6f" x="1929.638672"/>
     <use xlink:href="#DejaVuSans-6d" x="1990.820312"/>
     <use xlink:href="#DejaVuSans-65" x="2088.232422"/>
     <use xlink:href="#DejaVuSans-64" x="2149.755859"/>
     <use xlink:href="#DejaVuSans-29" x="2213.232422"/>
     <use xlink:href="#DejaVuSans-20" x="2252.246094"/>
     <use xlink:href="#DejaVuSans-2d" x="2284.033203"/>
     <use xlink:href="#DejaVuSans-20" x="2320.117188"/>
     <use xlink:href="#DejaVuSans-47" x="2351.904297"/>
     <use xlink:href="#DejaVuSans-61" x="2429.394531"/>
     <use xlink:href="#DejaVuSans-6d" x="2490.673828"/>
     <use xlink:href="#DejaVuSans-6d" x="2588.085938"/>
     <use xlink:href="#DejaVuSans-61" x="2685.498047"/>
     <use xlink:href="#DejaVuSans-20" x="2746.777344"/>
     <use xlink:href="#DejaVuSans-53" x="2778.564453"/>
     <use xlink:href="#DejaVuSans-63" x="2842.041016"/>
     <use xlink:href="#DejaVuSans-65" x="2897.021484"/>
     <use xlink:href="#DejaVuSans-6e" x="2958.544922"/>
     <use xlink:href="#DejaVuSans-61" x="3021.923828"/>
     <use xlink:href="#DejaVuSans-72" x="3083.203125"/>
     <use xlink:href="#DejaVuSans-69" x="3124.316406"/>
     <use xlink:href="#DejaVuSans-6f" x="3152.099609"/>
    </g>
   </g>
   <g id="legend_1">
    <g id="patch_7">
     <path d="M 671.292 124.386 
L 843.12 124.386 
Q 846 124.386 846 121.506 
L 846 38.4 
Q 846 35.52 843.12 35.52 
L 671.292 35.52 
Q 668.412 35.52 668.412 38.4 
L 668.412 121.506 
Q 668.412 124.386 671.292 124.386 
z
" style="fill: #ffffff; opacity: 0.8; stroke: #cccccc; stroke-linejoin: miter"/>
    </g>
    <g id="line2d_31">
     <path d="M 674.172 47.18175 
L 688.572 47.18175 
L 702.972 47.18175 
" style="fill: none; stroke: #1f77b4; stroke-width: 1.5; stroke-linecap: square"/>
     <g>
      <use xlink:href="#m79efa45e52" x="688.572" y="47.18175" style="fill: #1f77b4; stroke: #1f77b4"/>
     </g>
    </g>
    <g id="text_17">
     <!-- BOUC (574.6min) -->
     <g transform="translate(714.492 52.22175) scale(0.144 -0.144)">
      <defs>
       <path id="DejaVuSans-55" d="M 556 4666 
L 1191 4666 
L 1191 1831 
Q 1191 1081 1462 751 
Q 1734 422 2344 422 
Q 2950 422 3222 751 
Q 3494 1081 3494 1831 
L 3494 4666 
L 4128 4666 
L 4128 1753 
Q 4128 841 3676 375 
Q 3225 -91 2344 -91 
Q 1459 -91 1007 375 
Q 556 841 556 1753 
L 556 4666 
z
" transform="scale(0.015625)"/>
       <path id="DejaVuSans-35" d="M 691 4666 
L 3169 4666 
L 3169 4134 
L 1269 4134 
L 1269 2991 
Q 1406 3038 1543 3061 
Q 1681 3084 1819 3084 
Q 2600 3084 3056 2656 
Q 3513 2228 3513 1497 
Q 3513 744 3044 326 
Q 2575 -91 1722 -91 
Q 1428 -91 1123 -41 
Q 819 9 494 109 
L 494 744 
Q 775 591 1075 516 
Q 1375 441 1709 441 
Q 2250 441 2565 725 
Q 2881 1009 2881 1497 
Q 2881 1984 2565 2268 
Q 2250 2553 1709 2553 
Q 1456 2553 1204 2497 
Q 953 2441 691 2322 
L 691 4666 
z
" transform="scale(0.015625)"/>
       <path id="DejaVuSans-2e" d="M 684 794 
L 1344 794 
L 1344 0 
L 684 0 
L 684 794 
z
" transform="scale(0.015625)"/>
      </defs>
      <use xlink:href="#DejaVuSans-42"/>
      <use xlink:href="#DejaVuSans-4f" x="66.853516"/>
      <use xlink:href="#DejaVuSans-55" x="145.564453"/>
      <use xlink:href="#DejaVuSans-43" x="218.757812"/>
      <use xlink:href="#DejaVuSans-20" x="288.582031"/>
      <use xlink:href="#DejaVuSans-28" x="320.369141"/>
      <use xlink:href="#DejaVuSans-35" x="359.382812"/>
      <use xlink:href="#DejaVuSans-37" x="423.005859"/>
      <use xlink:href="#DejaVuSans-34" x="486.628906"/>
      <use xlink:href="#DejaVuSans-2e" x="550.251953"/>
      <use xlink:href="#DejaVuSans-36" x="582.039062"/>
      <use xlink:href="#DejaVuSans-6d" x="645.662109"/>
      <use xlink:href="#DejaVuSans-69" x="743.074219"/>
      <use xlink:href="#DejaVuSans-6e" x="770.857422"/>
      <use xlink:href="#DejaVuSans-29" x="834.236328"/>
     </g>
    </g>
    <g id="line2d_32">
     <path d="M 674.172 68.31825 
L 688.572 68.31825 
L 702.972 68.31825 
" style="fill: none; stroke: #ff7f0e; stroke-width: 1.5; stroke-linecap: square"/>
     <g>
      <use xlink:href="#mb72a3e634b" x="688.572" y="68.31825" style="fill: #ff7f0e; stroke: #ff7f0e"/>
     </g>
    </g>
    <g id="text_18">
     <!-- BO (8.9min) -->
     <g transform="translate(714.492 73.35825) scale(0.144 -0.144)">
      <use xlink:href="#DejaVuSans-42"/>
      <use xlink:href="#DejaVuSans-4f" x="66.853516"/>
      <use xlink:href="#DejaVuSans-20" x="145.564453"/>
      <use xlink:href="#DejaVuSans-28" x="177.351562"/>
      <use xlink:href="#DejaVuSans-38" x="216.365234"/>
      <use xlink:href="#DejaVuSans-2e" x="279.988281"/>
      <use xlink:href="#DejaVuSans-39" x="311.775391"/>
      <use xlink:href="#DejaVuSans-6d" x="375.398438"/>
      <use xlink:href="#DejaVuSans-69" x="472.810547"/>
      <use xlink:href="#DejaVuSans-6e" x="500.59375"/>
      <use xlink:href="#DejaVuSans-29" x="563.972656"/>
     </g>
    </g>
    <g id="line2d_33">
     <path d="M 674.172 89.45475 
L 688.572 89.45475 
L 702.972 89.45475 
" style="fill: none; stroke: #2ca02c; stroke-width: 1.5; stroke-linecap: square"/>
     <g>
      <use xlink:href="#mcf289e8d9d" x="688.572" y="89.45475" style="fill: #2ca02c; stroke: #2ca02c"/>
     </g>
    </g>
    <g id="text_19">
     <!-- DA (15.0min) -->
     <g transform="translate(714.492 94.49475) scale(0.144 -0.144)">
      <defs>
       <path id="DejaVuSans-44" d="M 1259 4147 
L 1259 519 
L 2022 519 
Q 2988 519 3436 956 
Q 3884 1394 3884 2338 
Q 3884 3275 3436 3711 
Q 2988 4147 2022 4147 
L 1259 4147 
z
M 628 4666 
L 1925 4666 
Q 3281 4666 3915 4102 
Q 4550 3538 4550 2338 
Q 4550 1131 3912 565 
Q 3275 0 1925 0 
L 628 0 
L 628 4666 
z
" transform="scale(0.015625)"/>
       <path id="DejaVuSans-41" d="M 2188 4044 
L 1331 1722 
L 3047 1722 
L 2188 4044 
z
M 1831 4666 
L 2547 4666 
L 4325 0 
L 3669 0 
L 3244 1197 
L 1141 1197 
L 716 0 
L 50 0 
L 1831 4666 
z
" transform="scale(0.015625)"/>
      </defs>
      <use xlink:href="#DejaVuSans-44"/>
      <use xlink:href="#DejaVuSans-41" x="75.251953"/>
      <use xlink:href="#DejaVuSans-20" x="143.660156"/>
      <use xlink:href="#DejaVuSans-28" x="175.447266"/>
      <use xlink:href="#DejaVuSans-31" x="214.460938"/>
      <use xlink:href="#DejaVuSans-35" x="278.083984"/>
      <use xlink:href="#DejaVuSans-2e" x="341.707031"/>
      <use xlink:href="#DejaVuSans-30" x="373.494141"/>
      <use xlink:href="#DejaVuSans-6d" x="437.117188"/>
      <use xlink:href="#DejaVuSans-69" x="534.529297"/>
      <use xlink:href="#DejaVuSans-6e" x="562.3125"/>
      <use xlink:href="#DejaVuSans-29" x="625.691406"/>
     </g>
    </g>
    <g id="line2d_34">
     <path d="M 674.172 110.59125 
L 688.572 110.59125 
L 702.972 110.59125 
" style="fill: none; stroke: #d62728; stroke-width: 1.5; stroke-linecap: square"/>
     <g>
      <use xlink:href="#m11badd233b" x="688.572" y="110.59125" style="fill: #d62728; stroke: #d62728"/>
     </g>
    </g>
    <g id="text_20">
     <!-- DE (15.9min) -->
     <g transform="translate(714.492 115.63125) scale(0.144 -0.144)">
      <use xlink:href="#DejaVuSans-44"/>
      <use xlink:href="#DejaVuSans-45" x="77.001953"/>
      <use xlink:href="#DejaVuSans-20" x="140.185547"/>
      <use xlink:href="#DejaVuSans-28" x="171.972656"/>
      <use xlink:href="#DejaVuSans-31" x="210.986328"/>
      <use xlink:href="#DejaVuSans-35" x="274.609375"/>
      <use xlink:href="#DejaVuSans-2e" x="338.232422"/>
      <use xlink:href="#DejaVuSans-39" x="370.019531"/>
      <use xlink:href="#DejaVuSans-6d" x="433.642578"/>
      <use xlink:href="#DejaVuSans-69" x="531.054688"/>
      <use xlink:href="#DejaVuSans-6e" x="558.837891"/>
      <use xlink:href="#DejaVuSans-29" x="622.216797"/>
     </g>
    </g>
   </g>
  </g>
 </g>
 <defs>
  <clipPath id="pbbdc1b44ac">
   <rect x="73.46" y="28.32" width="779.74" height="502.12"/>
  </clipPath>
 </defs>
</svg>
