<?xml version="1.0" encoding="utf-8" standalone="no"?>
<!DOCTYPE svg PUBLIC "-//W3C//DTD SVG 1.1//EN"
  "http://www.w3.org/Graphics/SVG/1.1/DTD/svg11.dtd">
<svg xmlns:xlink="http://www.w3.org/1999/xlink" width="864pt" height="432pt" viewBox="0 0 864 432" xmlns="http://www.w3.org/2000/svg" version="1.1">
 <metadata>
  <rdf:RDF xmlns:dc="http://purl.org/dc/elements/1.1/" xmlns:cc="http://creativecommons.org/ns#" xmlns:rdf="http://www.w3.org/1999/02/22-rdf-syntax-ns#">
   <cc:Work>
    <dc:type rdf:resource="http://purl.org/dc/dcmitype/StillImage"/>
    <dc:date>2025-02-11T09:31:47.027887</dc:date>
    <dc:format>image/svg+xml</dc:format>
    <dc:creator>
     <cc:Agent>
      <dc:title>Matplotlib v3.9.4, https://matplotlib.org/</dc:title>
     </cc:Agent>
    </dc:creator>
   </cc:Work>
  </rdf:RDF>
 </metadata>
 <defs>
  <style type="text/css">*{stroke-linejoin: round; stroke-linecap: butt}</style>
 </defs>
 <g id="figure_1">
  <g id="patch_1">
   <path d="M 0 432 
L 864 432 
L 864 0 
L 0 0 
z
" style="fill: #ffffff"/>
  </g>
  <g id="axes_1">
   <g id="patch_2">
    <path d="M 108 384.48 
L 412.363636 384.48 
L 412.363636 51.84 
L 108 51.84 
z
" style="fill: #ffffff"/>
   </g>
   <g id="PathCollection_1">
    <defs>
     <path id="m1010d40623" d="M 0 3 
C 0.795609 3 1.55874 2.683901 2.12132 2.12132 
C 2.683901 1.55874 3 0.795609 3 0 
C 3 -0.795609 2.683901 -1.55874 2.12132 -2.12132 
C 1.55874 -2.683901 0.795609 -3 0 -3 
C -0.795609 -3 -1.55874 -2.683901 -2.12132 -2.12132 
C -2.683901 -1.55874 -3 -0.795609 -3 0 
C -3 0.795609 -2.683901 1.55874 -2.12132 2.12132 
C -1.55874 2.683901 -0.795609 3 0 3 
z
" style="stroke: #1f77b4"/>
    </defs>
    <g clip-path="url(#p5054bf40a0)">
     <use xlink:href="#m1010d40623" x="344.753306" y="87.244855" style="fill: #1f77b4; stroke: #1f77b4"/>
     <use xlink:href="#m1010d40623" x="132.647856" y="355.201756" style="fill: #1f77b4; stroke: #1f77b4"/>
     <use xlink:href="#m1010d40623" x="281.204309" y="88.218322" style="fill: #1f77b4; stroke: #1f77b4"/>
     <use xlink:href="#m1010d40623" x="296.505324" y="87.688845" style="fill: #1f77b4; stroke: #1f77b4"/>
     <use xlink:href="#m1010d40623" x="254.724026" y="90.399932" style="fill: #1f77b4; stroke: #1f77b4"/>
     <use xlink:href="#m1010d40623" x="337.773342" y="87.250914" style="fill: #1f77b4; stroke: #1f77b4"/>
     <use xlink:href="#m1010d40623" x="249.716948" y="91.164443" style="fill: #1f77b4; stroke: #1f77b4"/>
     <use xlink:href="#m1010d40623" x="242.575534" y="92.69161" style="fill: #1f77b4; stroke: #1f77b4"/>
     <use xlink:href="#m1010d40623" x="250.60749" y="91.011959" style="fill: #1f77b4; stroke: #1f77b4"/>
     <use xlink:href="#m1010d40623" x="169.495502" y="340.795198" style="fill: #1f77b4; stroke: #1f77b4"/>
     <use xlink:href="#m1010d40623" x="272.790907" y="88.673775" style="fill: #1f77b4; stroke: #1f77b4"/>
     <use xlink:href="#m1010d40623" x="170.864849" y="339.887999" style="fill: #1f77b4; stroke: #1f77b4"/>
     <use xlink:href="#m1010d40623" x="347.23067" y="87.242829" style="fill: #1f77b4; stroke: #1f77b4"/>
     <use xlink:href="#m1010d40623" x="219.559351" y="115.392937" style="fill: #1f77b4; stroke: #1f77b4"/>
     <use xlink:href="#m1010d40623" x="130.246185" y="355.730032" style="fill: #1f77b4; stroke: #1f77b4"/>
     <use xlink:href="#m1010d40623" x="152.271654" y="349.234774" style="fill: #1f77b4; stroke: #1f77b4"/>
     <use xlink:href="#m1010d40623" x="357.399438" y="87.255616" style="fill: #1f77b4; stroke: #1f77b4"/>
     <use xlink:href="#m1010d40623" x="230.141211" y="98.371404" style="fill: #1f77b4; stroke: #1f77b4"/>
     <use xlink:href="#m1010d40623" x="289.240734" y="87.899798" style="fill: #1f77b4; stroke: #1f77b4"/>
     <use xlink:href="#m1010d40623" x="139.182419" y="353.473126" style="fill: #1f77b4; stroke: #1f77b4"/>
     <use xlink:href="#m1010d40623" x="155.4426" y="347.935365" style="fill: #1f77b4; stroke: #1f77b4"/>
     <use xlink:href="#m1010d40623" x="167.03075" y="342.286736" style="fill: #1f77b4; stroke: #1f77b4"/>
     <use xlink:href="#m1010d40623" x="394.669589" y="87.356632" style="fill: #1f77b4; stroke: #1f77b4"/>
     <use xlink:href="#m1010d40623" x="218.742694" y="118.091846" style="fill: #1f77b4; stroke: #1f77b4"/>
     <use xlink:href="#m1010d40623" x="303.392341" y="87.535812" style="fill: #1f77b4; stroke: #1f77b4"/>
     <use xlink:href="#m1010d40623" x="222.605022" y="107.854288" style="fill: #1f77b4; stroke: #1f77b4"/>
     <use xlink:href="#m1010d40623" x="220.225611" y="113.438516" style="fill: #1f77b4; stroke: #1f77b4"/>
     <use xlink:href="#m1010d40623" x="220.262622" y="113.335914" style="fill: #1f77b4; stroke: #1f77b4"/>
     <use xlink:href="#m1010d40623" x="220.307559" y="113.211727" style="fill: #1f77b4; stroke: #1f77b4"/>
     <use xlink:href="#m1010d40623" x="220.352468" y="113.088181" style="fill: #1f77b4; stroke: #1f77b4"/>
     <use xlink:href="#m1010d40623" x="220.394919" y="112.972938" style="fill: #1f77b4; stroke: #1f77b4"/>
     <use xlink:href="#m1010d40623" x="220.416512" y="112.914274" style="fill: #1f77b4; stroke: #1f77b4"/>
     <use xlink:href="#m1010d40623" x="220.45286" y="112.815768" style="fill: #1f77b4; stroke: #1f77b4"/>
     <use xlink:href="#m1010d40623" x="220.486359" y="112.725419" style="fill: #1f77b4; stroke: #1f77b4"/>
     <use xlink:href="#m1010d40623" x="220.521399" y="112.632504" style="fill: #1f77b4; stroke: #1f77b4"/>
     <use xlink:href="#m1010d40623" x="220.550124" y="112.556021" style="fill: #1f77b4; stroke: #1f77b4"/>
     <use xlink:href="#m1010d40623" x="220.576769" y="112.485746" style="fill: #1f77b4; stroke: #1f77b4"/>
     <use xlink:href="#m1010d40623" x="220.601564" y="112.420704" style="fill: #1f77b4; stroke: #1f77b4"/>
     <use xlink:href="#m1010d40623" x="220.624709" y="112.359861" style="fill: #1f77b4; stroke: #1f77b4"/>
     <use xlink:href="#m1010d40623" x="220.646348" y="112.303461" style="fill: #1f77b4; stroke: #1f77b4"/>
     <use xlink:href="#m1010d40623" x="220.663929" y="112.257448" style="fill: #1f77b4; stroke: #1f77b4"/>
     <use xlink:href="#m1010d40623" x="220.683066" y="112.208556" style="fill: #1f77b4; stroke: #1f77b4"/>
     <use xlink:href="#m1010d40623" x="220.700941" y="112.162268" style="fill: #1f77b4; stroke: #1f77b4"/>
     <use xlink:href="#m1010d40623" x="220.718054" y="112.118588" style="fill: #1f77b4; stroke: #1f77b4"/>
     <use xlink:href="#m1010d40623" x="220.734275" y="112.076743" style="fill: #1f77b4; stroke: #1f77b4"/>
     <use xlink:href="#m1010d40623" x="220.749682" y="112.037186" style="fill: #1f77b4; stroke: #1f77b4"/>
     <use xlink:href="#m1010d40623" x="220.764342" y="111.999597" style="fill: #1f77b4; stroke: #1f77b4"/>
     <use xlink:href="#m1010d40623" x="219.800189" y="114.664023" style="fill: #1f77b4; stroke: #1f77b4"/>
     <use xlink:href="#m1010d40623" x="219.76831" y="114.758828" style="fill: #1f77b4; stroke: #1f77b4"/>
     <use xlink:href="#m1010d40623" x="219.744499" y="114.8304" style="fill: #1f77b4; stroke: #1f77b4"/>
     <use xlink:href="#m1010d40623" x="219.719192" y="114.906138" style="fill: #1f77b4; stroke: #1f77b4"/>
     <use xlink:href="#m1010d40623" x="219.687441" y="115.001412" style="fill: #1f77b4; stroke: #1f77b4"/>
     <use xlink:href="#m1010d40623" x="219.670638" y="115.052305" style="fill: #1f77b4; stroke: #1f77b4"/>
     <use xlink:href="#m1010d40623" x="219.652376" y="115.107796" style="fill: #1f77b4; stroke: #1f77b4"/>
     <use xlink:href="#m1010d40623" x="219.632414" y="115.1688" style="fill: #1f77b4; stroke: #1f77b4"/>
     <use xlink:href="#m1010d40623" x="219.607372" y="115.245491" style="fill: #1f77b4; stroke: #1f77b4"/>
     <use xlink:href="#m1010d40623" x="219.583214" y="115.319012" style="fill: #1f77b4; stroke: #1f77b4"/>
     <use xlink:href="#m1010d40623" x="219.556482" y="115.401917" style="fill: #1f77b4; stroke: #1f77b4"/>
     <use xlink:href="#m1010d40623" x="219.541173" y="115.449053" style="fill: #1f77b4; stroke: #1f77b4"/>
     <use xlink:href="#m1010d40623" x="219.542984" y="115.443411" style="fill: #1f77b4; stroke: #1f77b4"/>
     <use xlink:href="#m1010d40623" x="219.511243" y="115.541988" style="fill: #1f77b4; stroke: #1f77b4"/>
     <use xlink:href="#m1010d40623" x="219.476802" y="115.649624" style="fill: #1f77b4; stroke: #1f77b4"/>
     <use xlink:href="#m1010d40623" x="219.478421" y="115.644642" style="fill: #1f77b4; stroke: #1f77b4"/>
     <use xlink:href="#m1010d40623" x="219.443565" y="115.753892" style="fill: #1f77b4; stroke: #1f77b4"/>
     <use xlink:href="#m1010d40623" x="219.445124" y="115.748871" style="fill: #1f77b4; stroke: #1f77b4"/>
     <use xlink:href="#m1010d40623" x="219.416404" y="115.840056" style="fill: #1f77b4; stroke: #1f77b4"/>
     <use xlink:href="#m1010d40623" x="219.417935" y="115.8353" style="fill: #1f77b4; stroke: #1f77b4"/>
     <use xlink:href="#m1010d40623" x="219.419535" y="115.830308" style="fill: #1f77b4; stroke: #1f77b4"/>
     <use xlink:href="#m1010d40623" x="219.421195" y="115.824919" style="fill: #1f77b4; stroke: #1f77b4"/>
     <use xlink:href="#m1010d40623" x="219.422903" y="115.819511" style="fill: #1f77b4; stroke: #1f77b4"/>
     <use xlink:href="#m1010d40623" x="219.424653" y="115.813883" style="fill: #1f77b4; stroke: #1f77b4"/>
     <use xlink:href="#m1010d40623" x="219.426437" y="115.807929" style="fill: #1f77b4; stroke: #1f77b4"/>
     <use xlink:href="#m1010d40623" x="219.428247" y="115.802325" style="fill: #1f77b4; stroke: #1f77b4"/>
     <use xlink:href="#m1010d40623" x="219.430079" y="115.796595" style="fill: #1f77b4; stroke: #1f77b4"/>
     <use xlink:href="#m1010d40623" x="219.431927" y="115.790644" style="fill: #1f77b4; stroke: #1f77b4"/>
     <use xlink:href="#m1010d40623" x="219.433787" y="115.784728" style="fill: #1f77b4; stroke: #1f77b4"/>
     <use xlink:href="#m1010d40623" x="219.435655" y="115.77894" style="fill: #1f77b4; stroke: #1f77b4"/>
     <use xlink:href="#m1010d40623" x="219.437529" y="115.772997" style="fill: #1f77b4; stroke: #1f77b4"/>
     <use xlink:href="#m1010d40623" x="219.439404" y="115.766867" style="fill: #1f77b4; stroke: #1f77b4"/>
     <use xlink:href="#m1010d40623" x="219.441279" y="115.761014" style="fill: #1f77b4; stroke: #1f77b4"/>
     <use xlink:href="#m1010d40623" x="219.44315" y="115.755212" style="fill: #1f77b4; stroke: #1f77b4"/>
     <use xlink:href="#m1010d40623" x="219.444978" y="115.749322" style="fill: #1f77b4; stroke: #1f77b4"/>
     <use xlink:href="#m1010d40623" x="219.446845" y="115.743459" style="fill: #1f77b4; stroke: #1f77b4"/>
     <use xlink:href="#m1010d40623" x="219.448698" y="115.737677" style="fill: #1f77b4; stroke: #1f77b4"/>
     <use xlink:href="#m1010d40623" x="219.450542" y="115.731685" style="fill: #1f77b4; stroke: #1f77b4"/>
     <use xlink:href="#m1010d40623" x="219.452375" y="115.725886" style="fill: #1f77b4; stroke: #1f77b4"/>
     <use xlink:href="#m1010d40623" x="219.454196" y="115.720253" style="fill: #1f77b4; stroke: #1f77b4"/>
     <use xlink:href="#m1010d40623" x="219.456006" y="115.714487" style="fill: #1f77b4; stroke: #1f77b4"/>
     <use xlink:href="#m1010d40623" x="219.457802" y="115.708815" style="fill: #1f77b4; stroke: #1f77b4"/>
     <use xlink:href="#m1010d40623" x="219.459585" y="115.70312" style="fill: #1f77b4; stroke: #1f77b4"/>
     <use xlink:href="#m1010d40623" x="219.461297" y="115.697752" style="fill: #1f77b4; stroke: #1f77b4"/>
     <use xlink:href="#m1010d40623" x="219.463051" y="115.692306" style="fill: #1f77b4; stroke: #1f77b4"/>
     <use xlink:href="#m1010d40623" x="219.46479" y="115.686701" style="fill: #1f77b4; stroke: #1f77b4"/>
     <use xlink:href="#m1010d40623" x="219.466514" y="115.681477" style="fill: #1f77b4; stroke: #1f77b4"/>
     <use xlink:href="#m1010d40623" x="219.468222" y="115.675958" style="fill: #1f77b4; stroke: #1f77b4"/>
     <use xlink:href="#m1010d40623" x="219.469914" y="115.670691" style="fill: #1f77b4; stroke: #1f77b4"/>
     <use xlink:href="#m1010d40623" x="219.47159" y="115.665566" style="fill: #1f77b4; stroke: #1f77b4"/>
     <use xlink:href="#m1010d40623" x="219.47325" y="115.660391" style="fill: #1f77b4; stroke: #1f77b4"/>
     <use xlink:href="#m1010d40623" x="219.474895" y="115.655872" style="fill: #1f77b4; stroke: #1f77b4"/>
     <use xlink:href="#m1010d40623" x="219.476522" y="115.650564" style="fill: #1f77b4; stroke: #1f77b4"/>
     <use xlink:href="#m1010d40623" x="219.478134" y="115.645564" style="fill: #1f77b4; stroke: #1f77b4"/>
     <use xlink:href="#m1010d40623" x="219.47973" y="115.640685" style="fill: #1f77b4; stroke: #1f77b4"/>
     <use xlink:href="#m1010d40623" x="219.48131" y="115.635736" style="fill: #1f77b4; stroke: #1f77b4"/>
     <use xlink:href="#m1010d40623" x="219.482873" y="115.630683" style="fill: #1f77b4; stroke: #1f77b4"/>
     <use xlink:href="#m1010d40623" x="219.484421" y="115.625858" style="fill: #1f77b4; stroke: #1f77b4"/>
     <use xlink:href="#m1010d40623" x="219.153454" y="116.691267" style="fill: #1f77b4; stroke: #1f77b4"/>
     <use xlink:href="#m1010d40623" x="219.154129" y="116.689054" style="fill: #1f77b4; stroke: #1f77b4"/>
     <use xlink:href="#m1010d40623" x="219.154863" y="116.686554" style="fill: #1f77b4; stroke: #1f77b4"/>
     <use xlink:href="#m1010d40623" x="219.155607" y="116.684027" style="fill: #1f77b4; stroke: #1f77b4"/>
     <use xlink:href="#m1010d40623" x="219.126184" y="116.781659" style="fill: #1f77b4; stroke: #1f77b4"/>
     <use xlink:href="#m1010d40623" x="219.12688" y="116.779336" style="fill: #1f77b4; stroke: #1f77b4"/>
     <use xlink:href="#m1010d40623" x="219.127596" y="116.776878" style="fill: #1f77b4; stroke: #1f77b4"/>
     <use xlink:href="#m1010d40623" x="219.105471" y="116.850383" style="fill: #1f77b4; stroke: #1f77b4"/>
     <use xlink:href="#m1010d40623" x="219.106159" y="116.848016" style="fill: #1f77b4; stroke: #1f77b4"/>
     <use xlink:href="#m1010d40623" x="219.106864" y="116.845646" style="fill: #1f77b4; stroke: #1f77b4"/>
     <use xlink:href="#m1010d40623" x="219.083021" y="116.925073" style="fill: #1f77b4; stroke: #1f77b4"/>
     <use xlink:href="#m1010d40623" x="219.083694" y="116.92288" style="fill: #1f77b4; stroke: #1f77b4"/>
     <use xlink:href="#m1010d40623" x="219.084385" y="116.920624" style="fill: #1f77b4; stroke: #1f77b4"/>
     <use xlink:href="#m1010d40623" x="219.085087" y="116.918287" style="fill: #1f77b4; stroke: #1f77b4"/>
     <use xlink:href="#m1010d40623" x="219.054634" y="117.020398" style="fill: #1f77b4; stroke: #1f77b4"/>
     <use xlink:href="#m1010d40623" x="219.055291" y="117.018134" style="fill: #1f77b4; stroke: #1f77b4"/>
     <use xlink:href="#m1010d40623" x="219.039167" y="117.07235" style="fill: #1f77b4; stroke: #1f77b4"/>
     <use xlink:href="#m1010d40623" x="219.039816" y="117.069965" style="fill: #1f77b4; stroke: #1f77b4"/>
     <use xlink:href="#m1010d40623" x="219.022028" y="117.13043" style="fill: #1f77b4; stroke: #1f77b4"/>
     <use xlink:href="#m1010d40623" x="219.022664" y="117.12832" style="fill: #1f77b4; stroke: #1f77b4"/>
    </g>
   </g>
   <g id="PolyCollection_1">
    <path d="M 121.834711 326.542302 
L 121.834711 365.621357 
L 124.629602 365.805348 
L 127.424493 366.133231 
L 130.219384 366.640958 
L 133.014275 367.298329 
L 135.809166 368.010382 
L 138.604057 368.656404 
L 141.398948 369.131212 
L 144.193839 369.36 
L 146.98873 369.294601 
L 149.783621 368.899676 
L 152.578512 368.131787 
L 155.373403 366.91607 
L 158.168295 365.132282 
L 160.963186 362.625904 
L 163.758077 359.239525 
L 166.552968 354.841702 
L 169.347859 349.338593 
L 172.14275 342.66815 
L 174.937641 334.78931 
L 177.732532 325.676991 
L 180.527423 315.328595 
L 183.322314 303.776472 
L 186.117205 291.096349 
L 188.912096 277.40921 
L 191.706987 262.878683 
L 194.501878 247.706411 
L 197.296769 232.126982 
L 200.09166 216.403106 
L 202.886551 200.82112 
L 205.681443 185.686336 
L 208.476334 171.31667 
L 211.271225 158.030892 
L 214.066116 146.125019 
L 216.861007 135.831383 
L 219.655898 127.268139 
L 222.450789 120.407566 
L 225.24568 115.093455 
L 228.040571 111.102455 
L 230.835462 108.198434 
L 233.630353 106.160085 
L 236.425244 104.792092 
L 239.220135 103.930694 
L 242.015026 103.446395 
L 244.809917 103.242272 
L 247.604808 103.247404 
L 250.399699 103.406207 
L 253.194591 103.66471 
L 255.989482 103.960425 
L 258.784373 104.224068 
L 261.579264 104.391752 
L 264.374155 104.42041 
L 267.169046 104.297009 
L 269.963937 104.038547 
L 272.758828 103.683582 
L 275.553719 103.277967 
L 278.34861 102.861861 
L 281.143501 102.466025 
L 283.938392 102.111806 
L 286.733283 101.81311 
L 289.528174 101.583301 
L 292.323065 101.440031 
L 295.117956 101.405723 
L 297.912847 101.505307 
L 300.707739 101.75693 
L 303.50263 102.160327 
L 306.297521 102.688009 
L 309.092412 103.282956 
L 311.887303 103.869706 
L 314.682194 104.370581 
L 317.477085 104.71911 
L 320.271976 104.86879 
L 323.066867 104.797794 
L 325.861758 104.510751 
L 328.656649 104.038252 
L 331.45154 103.434018 
L 334.246431 102.769019 
L 337.041322 102.121649 
L 339.836213 101.564155 
L 342.631104 101.149911 
L 345.425995 100.91001 
L 348.220887 100.85477 
L 351.015778 100.977025 
L 353.810669 101.260159 
L 356.60556 101.683876 
L 359.400451 102.220226 
L 362.195342 102.82469 
L 364.990233 103.436675 
L 367.785124 103.989835 
L 370.580015 104.423568 
L 373.374906 104.692479 
L 376.169797 104.773681 
L 378.964688 104.673098 
L 381.759579 104.432201 
L 384.55447 104.136274 
L 387.349361 103.923712 
L 390.144252 103.991158 
L 392.939144 104.579976 
L 395.734035 105.924119 
L 398.528926 108.165736 
L 398.528926 72.089068 
L 398.528926 72.089068 
L 395.734035 72.081697 
L 392.939144 71.554111 
L 390.144252 70.641229 
L 387.349361 69.557655 
L 384.55447 68.516298 
L 381.759579 67.679017 
L 378.964688 67.145428 
L 376.169797 66.96 
L 373.374906 67.122991 
L 370.580015 67.600116 
L 367.785124 68.330484 
L 364.990233 69.233955 
L 362.195342 70.219386 
L 359.400451 71.19498 
L 356.60556 72.080629 
L 353.810669 72.819015 
L 351.015778 73.376001 
L 348.220887 73.73031 
L 345.425995 73.867832 
L 342.631104 73.785668 
L 339.836213 73.498717 
L 337.041322 73.042113 
L 334.246431 72.472086 
L 331.45154 71.862415 
L 328.656649 71.292368 
L 325.861758 70.833867 
L 323.066867 70.542223 
L 320.271976 70.450682 
L 317.477085 70.567875 
L 314.682194 70.877477 
L 311.887303 71.34002 
L 309.092412 71.897504 
L 306.297521 72.481936 
L 303.50263 73.028382 
L 300.707739 73.49068 
L 297.912847 73.851914 
L 295.117956 74.121503 
L 292.323065 74.325666 
L 289.528174 74.494917 
L 286.733283 74.653711 
L 283.938392 74.817007 
L 281.143501 74.989771 
L 278.34861 75.170758 
L 275.553719 75.358686 
L 272.758828 75.554812 
L 269.963937 75.763835 
L 267.169046 75.99209 
L 264.374155 76.239416 
L 261.579264 76.490853 
L 258.784373 76.714265 
L 255.989482 76.86667 
L 253.194591 76.910242 
L 250.399699 76.835158 
L 247.604808 76.679892 
L 244.809917 76.5398 
L 242.015026 76.558592 
L 239.220135 76.913881 
L 236.425244 77.801579 
L 233.630353 79.416315 
L 230.835462 81.934827 
L 228.040571 85.503642 
L 225.24568 90.22699 
L 222.450789 96.150714 
L 219.655898 103.255215 
L 216.861007 111.473353 
L 214.066116 120.733282 
L 211.271225 130.991818 
L 208.476334 142.225959 
L 205.681443 154.402302 
L 202.886551 167.453063 
L 200.09166 181.267121 
L 197.296769 195.691154 
L 194.501878 210.534947 
L 191.706987 225.577705 
L 188.912096 240.574314 
L 186.117205 255.261534 
L 183.322314 269.364718 
L 180.527423 282.60625 
L 177.732532 294.717811 
L 174.937641 305.45955 
L 172.14275 314.648826 
L 169.347859 322.196716 
L 166.552968 328.13929 
L 163.758077 332.632358 
L 160.963186 335.903823 
L 158.168295 338.200412 
L 155.373403 339.752686 
L 152.578512 340.758723 
L 149.783621 341.377771 
L 146.98873 341.726241 
L 144.193839 341.871502 
L 141.398948 341.823431 
L 138.604057 341.527379 
L 135.809166 340.863438 
L 133.014275 339.658429 
L 130.219384 337.72191 
L 127.424493 334.908451 
L 124.629602 331.167594 
L 121.834711 326.542302 
z
" clip-path="url(#p5054bf40a0)" style="fill: #ff7f0e; fill-opacity: 0.2"/>
   </g>
   <g id="matplotlib.axis_1">
    <g id="xtick_1">
     <g id="line2d_1">
      <defs>
       <path id="m5d457cb158" d="M 0 0 
L 0 3.5 
" style="stroke: #000000; stroke-width: 0.8"/>
      </defs>
      <g>
       <use xlink:href="#m5d457cb158" x="140.280992" y="384.48" style="stroke: #000000; stroke-width: 0.8"/>
      </g>
     </g>
     <g id="text_1">
      <!-- −0.4 -->
      <g transform="translate(128.139585 399.078438) scale(0.1 -0.1)">
       <defs>
        <path id="DejaVuSans-2212" d="M 678 2272 
L 4684 2272 
L 4684 1741 
L 678 1741 
L 678 2272 
z
" transform="scale(0.015625)"/>
        <path id="DejaVuSans-30" d="M 2034 4250 
Q 1547 4250 1301 3770 
Q 1056 3291 1056 2328 
Q 1056 1369 1301 889 
Q 1547 409 2034 409 
Q 2525 409 2770 889 
Q 3016 1369 3016 2328 
Q 3016 3291 2770 3770 
Q 2525 4250 2034 4250 
z
M 2034 4750 
Q 2819 4750 3233 4129 
Q 3647 3509 3647 2328 
Q 3647 1150 3233 529 
Q 2819 -91 2034 -91 
Q 1250 -91 836 529 
Q 422 1150 422 2328 
Q 422 3509 836 4129 
Q 1250 4750 2034 4750 
z
" transform="scale(0.015625)"/>
        <path id="DejaVuSans-2e" d="M 684 794 
L 1344 794 
L 1344 0 
L 684 0 
L 684 794 
z
" transform="scale(0.015625)"/>
        <path id="DejaVuSans-34" d="M 2419 4116 
L 825 1625 
L 2419 1625 
L 2419 4116 
z
M 2253 4666 
L 3047 4666 
L 3047 1625 
L 3713 1625 
L 3713 1100 
L 3047 1100 
L 3047 0 
L 2419 0 
L 2419 1100 
L 313 1100 
L 313 1709 
L 2253 4666 
z
" transform="scale(0.015625)"/>
       </defs>
       <use xlink:href="#DejaVuSans-2212"/>
       <use xlink:href="#DejaVuSans-30" x="83.789062"/>
       <use xlink:href="#DejaVuSans-2e" x="147.412109"/>
       <use xlink:href="#DejaVuSans-34" x="179.199219"/>
      </g>
     </g>
    </g>
    <g id="xtick_2">
     <g id="line2d_2">
      <g>
       <use xlink:href="#m5d457cb158" x="177.173554" y="384.48" style="stroke: #000000; stroke-width: 0.8"/>
      </g>
     </g>
     <g id="text_2">
      <!-- −0.2 -->
      <g transform="translate(165.032147 399.078438) scale(0.1 -0.1)">
       <defs>
        <path id="DejaVuSans-32" d="M 1228 531 
L 3431 531 
L 3431 0 
L 469 0 
L 469 531 
Q 828 903 1448 1529 
Q 2069 2156 2228 2338 
Q 2531 2678 2651 2914 
Q 2772 3150 2772 3378 
Q 2772 3750 2511 3984 
Q 2250 4219 1831 4219 
Q 1534 4219 1204 4116 
Q 875 4013 500 3803 
L 500 4441 
Q 881 4594 1212 4672 
Q 1544 4750 1819 4750 
Q 2544 4750 2975 4387 
Q 3406 4025 3406 3419 
Q 3406 3131 3298 2873 
Q 3191 2616 2906 2266 
Q 2828 2175 2409 1742 
Q 1991 1309 1228 531 
z
" transform="scale(0.015625)"/>
       </defs>
       <use xlink:href="#DejaVuSans-2212"/>
       <use xlink:href="#DejaVuSans-30" x="83.789062"/>
       <use xlink:href="#DejaVuSans-2e" x="147.412109"/>
       <use xlink:href="#DejaVuSans-32" x="179.199219"/>
      </g>
     </g>
    </g>
    <g id="xtick_3">
     <g id="line2d_3">
      <g>
       <use xlink:href="#m5d457cb158" x="214.066116" y="384.48" style="stroke: #000000; stroke-width: 0.8"/>
      </g>
     </g>
     <g id="text_3">
      <!-- 0.0 -->
      <g transform="translate(206.114553 399.078438) scale(0.1 -0.1)">
       <use xlink:href="#DejaVuSans-30"/>
       <use xlink:href="#DejaVuSans-2e" x="63.623047"/>
       <use xlink:href="#DejaVuSans-30" x="95.410156"/>
      </g>
     </g>
    </g>
    <g id="xtick_4">
     <g id="line2d_4">
      <g>
       <use xlink:href="#m5d457cb158" x="250.958678" y="384.48" style="stroke: #000000; stroke-width: 0.8"/>
      </g>
     </g>
     <g id="text_4">
      <!-- 0.2 -->
      <g transform="translate(243.007115 399.078438) scale(0.1 -0.1)">
       <use xlink:href="#DejaVuSans-30"/>
       <use xlink:href="#DejaVuSans-2e" x="63.623047"/>
       <use xlink:href="#DejaVuSans-32" x="95.410156"/>
      </g>
     </g>
    </g>
    <g id="xtick_5">
     <g id="line2d_5">
      <g>
       <use xlink:href="#m5d457cb158" x="287.85124" y="384.48" style="stroke: #000000; stroke-width: 0.8"/>
      </g>
     </g>
     <g id="text_5">
      <!-- 0.4 -->
      <g transform="translate(279.899677 399.078438) scale(0.1 -0.1)">
       <use xlink:href="#DejaVuSans-30"/>
       <use xlink:href="#DejaVuSans-2e" x="63.623047"/>
       <use xlink:href="#DejaVuSans-34" x="95.410156"/>
      </g>
     </g>
    </g>
    <g id="xtick_6">
     <g id="line2d_6">
      <g>
       <use xlink:href="#m5d457cb158" x="324.743802" y="384.48" style="stroke: #000000; stroke-width: 0.8"/>
      </g>
     </g>
     <g id="text_6">
      <!-- 0.6 -->
      <g transform="translate(316.792239 399.078438) scale(0.1 -0.1)">
       <defs>
        <path id="DejaVuSans-36" d="M 2113 2584 
Q 1688 2584 1439 2293 
Q 1191 2003 1191 1497 
Q 1191 994 1439 701 
Q 1688 409 2113 409 
Q 2538 409 2786 701 
Q 3034 994 3034 1497 
Q 3034 2003 2786 2293 
Q 2538 2584 2113 2584 
z
M 3366 4563 
L 3366 3988 
Q 3128 4100 2886 4159 
Q 2644 4219 2406 4219 
Q 1781 4219 1451 3797 
Q 1122 3375 1075 2522 
Q 1259 2794 1537 2939 
Q 1816 3084 2150 3084 
Q 2853 3084 3261 2657 
Q 3669 2231 3669 1497 
Q 3669 778 3244 343 
Q 2819 -91 2113 -91 
Q 1303 -91 875 529 
Q 447 1150 447 2328 
Q 447 3434 972 4092 
Q 1497 4750 2381 4750 
Q 2619 4750 2861 4703 
Q 3103 4656 3366 4563 
z
" transform="scale(0.015625)"/>
       </defs>
       <use xlink:href="#DejaVuSans-30"/>
       <use xlink:href="#DejaVuSans-2e" x="63.623047"/>
       <use xlink:href="#DejaVuSans-36" x="95.410156"/>
      </g>
     </g>
    </g>
    <g id="xtick_7">
     <g id="line2d_7">
      <g>
       <use xlink:href="#m5d457cb158" x="361.636364" y="384.48" style="stroke: #000000; stroke-width: 0.8"/>
      </g>
     </g>
     <g id="text_7">
      <!-- 0.8 -->
      <g transform="translate(353.684801 399.078438) scale(0.1 -0.1)">
       <defs>
        <path id="DejaVuSans-38" d="M 2034 2216 
Q 1584 2216 1326 1975 
Q 1069 1734 1069 1313 
Q 1069 891 1326 650 
Q 1584 409 2034 409 
Q 2484 409 2743 651 
Q 3003 894 3003 1313 
Q 3003 1734 2745 1975 
Q 2488 2216 2034 2216 
z
M 1403 2484 
Q 997 2584 770 2862 
Q 544 3141 544 3541 
Q 544 4100 942 4425 
Q 1341 4750 2034 4750 
Q 2731 4750 3128 4425 
Q 3525 4100 3525 3541 
Q 3525 3141 3298 2862 
Q 3072 2584 2669 2484 
Q 3125 2378 3379 2068 
Q 3634 1759 3634 1313 
Q 3634 634 3220 271 
Q 2806 -91 2034 -91 
Q 1263 -91 848 271 
Q 434 634 434 1313 
Q 434 1759 690 2068 
Q 947 2378 1403 2484 
z
M 1172 3481 
Q 1172 3119 1398 2916 
Q 1625 2713 2034 2713 
Q 2441 2713 2670 2916 
Q 2900 3119 2900 3481 
Q 2900 3844 2670 4047 
Q 2441 4250 2034 4250 
Q 1625 4250 1398 4047 
Q 1172 3844 1172 3481 
z
" transform="scale(0.015625)"/>
       </defs>
       <use xlink:href="#DejaVuSans-30"/>
       <use xlink:href="#DejaVuSans-2e" x="63.623047"/>
       <use xlink:href="#DejaVuSans-38" x="95.410156"/>
      </g>
     </g>
    </g>
    <g id="xtick_8">
     <g id="line2d_8">
      <g>
       <use xlink:href="#m5d457cb158" x="398.528926" y="384.48" style="stroke: #000000; stroke-width: 0.8"/>
      </g>
     </g>
     <g id="text_8">
      <!-- 1.0 -->
      <g transform="translate(390.577363 399.078438) scale(0.1 -0.1)">
       <defs>
        <path id="DejaVuSans-31" d="M 794 531 
L 1825 531 
L 1825 4091 
L 703 3866 
L 703 4441 
L 1819 4666 
L 2450 4666 
L 2450 531 
L 3481 531 
L 3481 0 
L 794 0 
L 794 531 
z
" transform="scale(0.015625)"/>
       </defs>
       <use xlink:href="#DejaVuSans-31"/>
       <use xlink:href="#DejaVuSans-2e" x="63.623047"/>
       <use xlink:href="#DejaVuSans-30" x="95.410156"/>
      </g>
     </g>
    </g>
    <g id="text_9">
     <!-- efd_gain -->
     <g transform="translate(238.874787 412.756563) scale(0.1 -0.1)">
      <defs>
       <path id="DejaVuSans-65" d="M 3597 1894 
L 3597 1613 
L 953 1613 
Q 991 1019 1311 708 
Q 1631 397 2203 397 
Q 2534 397 2845 478 
Q 3156 559 3463 722 
L 3463 178 
Q 3153 47 2828 -22 
Q 2503 -91 2169 -91 
Q 1331 -91 842 396 
Q 353 884 353 1716 
Q 353 2575 817 3079 
Q 1281 3584 2069 3584 
Q 2775 3584 3186 3129 
Q 3597 2675 3597 1894 
z
M 3022 2063 
Q 3016 2534 2758 2815 
Q 2500 3097 2075 3097 
Q 1594 3097 1305 2825 
Q 1016 2553 972 2059 
L 3022 2063 
z
" transform="scale(0.015625)"/>
       <path id="DejaVuSans-66" d="M 2375 4863 
L 2375 4384 
L 1825 4384 
Q 1516 4384 1395 4259 
Q 1275 4134 1275 3809 
L 1275 3500 
L 2222 3500 
L 2222 3053 
L 1275 3053 
L 1275 0 
L 697 0 
L 697 3053 
L 147 3053 
L 147 3500 
L 697 3500 
L 697 3744 
Q 697 4328 969 4595 
Q 1241 4863 1831 4863 
L 2375 4863 
z
" transform="scale(0.015625)"/>
       <path id="DejaVuSans-64" d="M 2906 2969 
L 2906 4863 
L 3481 4863 
L 3481 0 
L 2906 0 
L 2906 525 
Q 2725 213 2448 61 
Q 2172 -91 1784 -91 
Q 1150 -91 751 415 
Q 353 922 353 1747 
Q 353 2572 751 3078 
Q 1150 3584 1784 3584 
Q 2172 3584 2448 3432 
Q 2725 3281 2906 2969 
z
M 947 1747 
Q 947 1113 1208 752 
Q 1469 391 1925 391 
Q 2381 391 2643 752 
Q 2906 1113 2906 1747 
Q 2906 2381 2643 2742 
Q 2381 3103 1925 3103 
Q 1469 3103 1208 2742 
Q 947 2381 947 1747 
z
" transform="scale(0.015625)"/>
       <path id="DejaVuSans-5f" d="M 3263 -1063 
L 3263 -1509 
L -63 -1509 
L -63 -1063 
L 3263 -1063 
z
" transform="scale(0.015625)"/>
       <path id="DejaVuSans-67" d="M 2906 1791 
Q 2906 2416 2648 2759 
Q 2391 3103 1925 3103 
Q 1463 3103 1205 2759 
Q 947 2416 947 1791 
Q 947 1169 1205 825 
Q 1463 481 1925 481 
Q 2391 481 2648 825 
Q 2906 1169 2906 1791 
z
M 3481 434 
Q 3481 -459 3084 -895 
Q 2688 -1331 1869 -1331 
Q 1566 -1331 1297 -1286 
Q 1028 -1241 775 -1147 
L 775 -588 
Q 1028 -725 1275 -790 
Q 1522 -856 1778 -856 
Q 2344 -856 2625 -561 
Q 2906 -266 2906 331 
L 2906 616 
Q 2728 306 2450 153 
Q 2172 0 1784 0 
Q 1141 0 747 490 
Q 353 981 353 1791 
Q 353 2603 747 3093 
Q 1141 3584 1784 3584 
Q 2172 3584 2450 3431 
Q 2728 3278 2906 2969 
L 2906 3500 
L 3481 3500 
L 3481 434 
z
" transform="scale(0.015625)"/>
       <path id="DejaVuSans-61" d="M 2194 1759 
Q 1497 1759 1228 1600 
Q 959 1441 959 1056 
Q 959 750 1161 570 
Q 1363 391 1709 391 
Q 2188 391 2477 730 
Q 2766 1069 2766 1631 
L 2766 1759 
L 2194 1759 
z
M 3341 1997 
L 3341 0 
L 2766 0 
L 2766 531 
Q 2569 213 2275 61 
Q 1981 -91 1556 -91 
Q 1019 -91 701 211 
Q 384 513 384 1019 
Q 384 1609 779 1909 
Q 1175 2209 1959 2209 
L 2766 2209 
L 2766 2266 
Q 2766 2663 2505 2880 
Q 2244 3097 1772 3097 
Q 1472 3097 1187 3025 
Q 903 2953 641 2809 
L 641 3341 
Q 956 3463 1253 3523 
Q 1550 3584 1831 3584 
Q 2591 3584 2966 3190 
Q 3341 2797 3341 1997 
z
" transform="scale(0.015625)"/>
       <path id="DejaVuSans-69" d="M 603 3500 
L 1178 3500 
L 1178 0 
L 603 0 
L 603 3500 
z
M 603 4863 
L 1178 4863 
L 1178 4134 
L 603 4134 
L 603 4863 
z
" transform="scale(0.015625)"/>
       <path id="DejaVuSans-6e" d="M 3513 2113 
L 3513 0 
L 2938 0 
L 2938 2094 
Q 2938 2591 2744 2837 
Q 2550 3084 2163 3084 
Q 1697 3084 1428 2787 
Q 1159 2491 1159 1978 
L 1159 0 
L 581 0 
L 581 3500 
L 1159 3500 
L 1159 2956 
Q 1366 3272 1645 3428 
Q 1925 3584 2291 3584 
Q 2894 3584 3203 3211 
Q 3513 2838 3513 2113 
z
" transform="scale(0.015625)"/>
      </defs>
      <use xlink:href="#DejaVuSans-65"/>
      <use xlink:href="#DejaVuSans-66" x="61.523438"/>
      <use xlink:href="#DejaVuSans-64" x="96.728516"/>
      <use xlink:href="#DejaVuSans-5f" x="160.205078"/>
      <use xlink:href="#DejaVuSans-67" x="210.205078"/>
      <use xlink:href="#DejaVuSans-61" x="273.681641"/>
      <use xlink:href="#DejaVuSans-69" x="334.960938"/>
      <use xlink:href="#DejaVuSans-6e" x="362.744141"/>
     </g>
    </g>
   </g>
   <g id="matplotlib.axis_2">
    <g id="ytick_1">
     <g id="line2d_9">
      <defs>
       <path id="m18dca12437" d="M 0 0 
L -3.5 0 
" style="stroke: #000000; stroke-width: 0.8"/>
      </defs>
      <g>
       <use xlink:href="#m18dca12437" x="108" y="359.992999" style="stroke: #000000; stroke-width: 0.8"/>
      </g>
     </g>
     <g id="text_10">
      <!-- 100 -->
      <g transform="translate(81.9125 363.792218) scale(0.1 -0.1)">
       <use xlink:href="#DejaVuSans-31"/>
       <use xlink:href="#DejaVuSans-30" x="63.623047"/>
       <use xlink:href="#DejaVuSans-30" x="127.246094"/>
      </g>
     </g>
    </g>
    <g id="ytick_2">
     <g id="line2d_10">
      <g>
       <use xlink:href="#m18dca12437" x="108" y="312.273985" style="stroke: #000000; stroke-width: 0.8"/>
      </g>
     </g>
     <g id="text_11">
      <!-- 200 -->
      <g transform="translate(81.9125 316.073203) scale(0.1 -0.1)">
       <use xlink:href="#DejaVuSans-32"/>
       <use xlink:href="#DejaVuSans-30" x="63.623047"/>
       <use xlink:href="#DejaVuSans-30" x="127.246094"/>
      </g>
     </g>
    </g>
    <g id="ytick_3">
     <g id="line2d_11">
      <g>
       <use xlink:href="#m18dca12437" x="108" y="264.55497" style="stroke: #000000; stroke-width: 0.8"/>
      </g>
     </g>
     <g id="text_12">
      <!-- 300 -->
      <g transform="translate(81.9125 268.354189) scale(0.1 -0.1)">
       <defs>
        <path id="DejaVuSans-33" d="M 2597 2516 
Q 3050 2419 3304 2112 
Q 3559 1806 3559 1356 
Q 3559 666 3084 287 
Q 2609 -91 1734 -91 
Q 1441 -91 1130 -33 
Q 819 25 488 141 
L 488 750 
Q 750 597 1062 519 
Q 1375 441 1716 441 
Q 2309 441 2620 675 
Q 2931 909 2931 1356 
Q 2931 1769 2642 2001 
Q 2353 2234 1838 2234 
L 1294 2234 
L 1294 2753 
L 1863 2753 
Q 2328 2753 2575 2939 
Q 2822 3125 2822 3475 
Q 2822 3834 2567 4026 
Q 2313 4219 1838 4219 
Q 1578 4219 1281 4162 
Q 984 4106 628 3988 
L 628 4550 
Q 988 4650 1302 4700 
Q 1616 4750 1894 4750 
Q 2613 4750 3031 4423 
Q 3450 4097 3450 3541 
Q 3450 3153 3228 2886 
Q 3006 2619 2597 2516 
z
" transform="scale(0.015625)"/>
       </defs>
       <use xlink:href="#DejaVuSans-33"/>
       <use xlink:href="#DejaVuSans-30" x="63.623047"/>
       <use xlink:href="#DejaVuSans-30" x="127.246094"/>
      </g>
     </g>
    </g>
    <g id="ytick_4">
     <g id="line2d_12">
      <g>
       <use xlink:href="#m18dca12437" x="108" y="216.835955" style="stroke: #000000; stroke-width: 0.8"/>
      </g>
     </g>
     <g id="text_13">
      <!-- 400 -->
      <g transform="translate(81.9125 220.635174) scale(0.1 -0.1)">
       <use xlink:href="#DejaVuSans-34"/>
       <use xlink:href="#DejaVuSans-30" x="63.623047"/>
       <use xlink:href="#DejaVuSans-30" x="127.246094"/>
      </g>
     </g>
    </g>
    <g id="ytick_5">
     <g id="line2d_13">
      <g>
       <use xlink:href="#m18dca12437" x="108" y="169.116941" style="stroke: #000000; stroke-width: 0.8"/>
      </g>
     </g>
     <g id="text_14">
      <!-- 500 -->
      <g transform="translate(81.9125 172.916159) scale(0.1 -0.1)">
       <defs>
        <path id="DejaVuSans-35" d="M 691 4666 
L 3169 4666 
L 3169 4134 
L 1269 4134 
L 1269 2991 
Q 1406 3038 1543 3061 
Q 1681 3084 1819 3084 
Q 2600 3084 3056 2656 
Q 3513 2228 3513 1497 
Q 3513 744 3044 326 
Q 2575 -91 1722 -91 
Q 1428 -91 1123 -41 
Q 819 9 494 109 
L 494 744 
Q 775 591 1075 516 
Q 1375 441 1709 441 
Q 2250 441 2565 725 
Q 2881 1009 2881 1497 
Q 2881 1984 2565 2268 
Q 2250 2553 1709 2553 
Q 1456 2553 1204 2497 
Q 953 2441 691 2322 
L 691 4666 
z
" transform="scale(0.015625)"/>
       </defs>
       <use xlink:href="#DejaVuSans-35"/>
       <use xlink:href="#DejaVuSans-30" x="63.623047"/>
       <use xlink:href="#DejaVuSans-30" x="127.246094"/>
      </g>
     </g>
    </g>
    <g id="ytick_6">
     <g id="line2d_14">
      <g>
       <use xlink:href="#m18dca12437" x="108" y="121.397926" style="stroke: #000000; stroke-width: 0.8"/>
      </g>
     </g>
     <g id="text_15">
      <!-- 600 -->
      <g transform="translate(81.9125 125.197145) scale(0.1 -0.1)">
       <use xlink:href="#DejaVuSans-36"/>
       <use xlink:href="#DejaVuSans-30" x="63.623047"/>
       <use xlink:href="#DejaVuSans-30" x="127.246094"/>
      </g>
     </g>
    </g>
    <g id="ytick_7">
     <g id="line2d_15">
      <g>
       <use xlink:href="#m18dca12437" x="108" y="73.678911" style="stroke: #000000; stroke-width: 0.8"/>
      </g>
     </g>
     <g id="text_16">
      <!-- 700 -->
      <g transform="translate(81.9125 77.47813) scale(0.1 -0.1)">
       <defs>
        <path id="DejaVuSans-37" d="M 525 4666 
L 3525 4666 
L 3525 4397 
L 1831 0 
L 1172 0 
L 2766 4134 
L 525 4134 
L 525 4666 
z
" transform="scale(0.015625)"/>
       </defs>
       <use xlink:href="#DejaVuSans-37"/>
       <use xlink:href="#DejaVuSans-30" x="63.623047"/>
       <use xlink:href="#DejaVuSans-30" x="127.246094"/>
      </g>
     </g>
    </g>
    <g id="text_17">
     <!-- Objective function -->
     <g transform="translate(75.832812 263.883437) rotate(-90) scale(0.1 -0.1)">
      <defs>
       <path id="DejaVuSans-4f" d="M 2522 4238 
Q 1834 4238 1429 3725 
Q 1025 3213 1025 2328 
Q 1025 1447 1429 934 
Q 1834 422 2522 422 
Q 3209 422 3611 934 
Q 4013 1447 4013 2328 
Q 4013 3213 3611 3725 
Q 3209 4238 2522 4238 
z
M 2522 4750 
Q 3503 4750 4090 4092 
Q 4678 3434 4678 2328 
Q 4678 1225 4090 567 
Q 3503 -91 2522 -91 
Q 1538 -91 948 565 
Q 359 1222 359 2328 
Q 359 3434 948 4092 
Q 1538 4750 2522 4750 
z
" transform="scale(0.015625)"/>
       <path id="DejaVuSans-62" d="M 3116 1747 
Q 3116 2381 2855 2742 
Q 2594 3103 2138 3103 
Q 1681 3103 1420 2742 
Q 1159 2381 1159 1747 
Q 1159 1113 1420 752 
Q 1681 391 2138 391 
Q 2594 391 2855 752 
Q 3116 1113 3116 1747 
z
M 1159 2969 
Q 1341 3281 1617 3432 
Q 1894 3584 2278 3584 
Q 2916 3584 3314 3078 
Q 3713 2572 3713 1747 
Q 3713 922 3314 415 
Q 2916 -91 2278 -91 
Q 1894 -91 1617 61 
Q 1341 213 1159 525 
L 1159 0 
L 581 0 
L 581 4863 
L 1159 4863 
L 1159 2969 
z
" transform="scale(0.015625)"/>
       <path id="DejaVuSans-6a" d="M 603 3500 
L 1178 3500 
L 1178 -63 
Q 1178 -731 923 -1031 
Q 669 -1331 103 -1331 
L -116 -1331 
L -116 -844 
L 38 -844 
Q 366 -844 484 -692 
Q 603 -541 603 -63 
L 603 3500 
z
M 603 4863 
L 1178 4863 
L 1178 4134 
L 603 4134 
L 603 4863 
z
" transform="scale(0.015625)"/>
       <path id="DejaVuSans-63" d="M 3122 3366 
L 3122 2828 
Q 2878 2963 2633 3030 
Q 2388 3097 2138 3097 
Q 1578 3097 1268 2742 
Q 959 2388 959 1747 
Q 959 1106 1268 751 
Q 1578 397 2138 397 
Q 2388 397 2633 464 
Q 2878 531 3122 666 
L 3122 134 
Q 2881 22 2623 -34 
Q 2366 -91 2075 -91 
Q 1284 -91 818 406 
Q 353 903 353 1747 
Q 353 2603 823 3093 
Q 1294 3584 2113 3584 
Q 2378 3584 2631 3529 
Q 2884 3475 3122 3366 
z
" transform="scale(0.015625)"/>
       <path id="DejaVuSans-74" d="M 1172 4494 
L 1172 3500 
L 2356 3500 
L 2356 3053 
L 1172 3053 
L 1172 1153 
Q 1172 725 1289 603 
Q 1406 481 1766 481 
L 2356 481 
L 2356 0 
L 1766 0 
Q 1100 0 847 248 
Q 594 497 594 1153 
L 594 3053 
L 172 3053 
L 172 3500 
L 594 3500 
L 594 4494 
L 1172 4494 
z
" transform="scale(0.015625)"/>
       <path id="DejaVuSans-76" d="M 191 3500 
L 800 3500 
L 1894 563 
L 2988 3500 
L 3597 3500 
L 2284 0 
L 1503 0 
L 191 3500 
z
" transform="scale(0.015625)"/>
       <path id="DejaVuSans-20" transform="scale(0.015625)"/>
       <path id="DejaVuSans-75" d="M 544 1381 
L 544 3500 
L 1119 3500 
L 1119 1403 
Q 1119 906 1312 657 
Q 1506 409 1894 409 
Q 2359 409 2629 706 
Q 2900 1003 2900 1516 
L 2900 3500 
L 3475 3500 
L 3475 0 
L 2900 0 
L 2900 538 
Q 2691 219 2414 64 
Q 2138 -91 1772 -91 
Q 1169 -91 856 284 
Q 544 659 544 1381 
z
M 1991 3584 
L 1991 3584 
z
" transform="scale(0.015625)"/>
       <path id="DejaVuSans-6f" d="M 1959 3097 
Q 1497 3097 1228 2736 
Q 959 2375 959 1747 
Q 959 1119 1226 758 
Q 1494 397 1959 397 
Q 2419 397 2687 759 
Q 2956 1122 2956 1747 
Q 2956 2369 2687 2733 
Q 2419 3097 1959 3097 
z
M 1959 3584 
Q 2709 3584 3137 3096 
Q 3566 2609 3566 1747 
Q 3566 888 3137 398 
Q 2709 -91 1959 -91 
Q 1206 -91 779 398 
Q 353 888 353 1747 
Q 353 2609 779 3096 
Q 1206 3584 1959 3584 
z
" transform="scale(0.015625)"/>
      </defs>
      <use xlink:href="#DejaVuSans-4f"/>
      <use xlink:href="#DejaVuSans-62" x="78.710938"/>
      <use xlink:href="#DejaVuSans-6a" x="142.1875"/>
      <use xlink:href="#DejaVuSans-65" x="169.970703"/>
      <use xlink:href="#DejaVuSans-63" x="231.494141"/>
      <use xlink:href="#DejaVuSans-74" x="286.474609"/>
      <use xlink:href="#DejaVuSans-69" x="325.683594"/>
      <use xlink:href="#DejaVuSans-76" x="353.466797"/>
      <use xlink:href="#DejaVuSans-65" x="412.646484"/>
      <use xlink:href="#DejaVuSans-20" x="474.169922"/>
      <use xlink:href="#DejaVuSans-66" x="505.957031"/>
      <use xlink:href="#DejaVuSans-75" x="541.162109"/>
      <use xlink:href="#DejaVuSans-6e" x="604.541016"/>
      <use xlink:href="#DejaVuSans-63" x="667.919922"/>
      <use xlink:href="#DejaVuSans-74" x="722.900391"/>
      <use xlink:href="#DejaVuSans-69" x="762.109375"/>
      <use xlink:href="#DejaVuSans-6f" x="789.892578"/>
      <use xlink:href="#DejaVuSans-6e" x="851.074219"/>
     </g>
    </g>
   </g>
   <g id="line2d_16">
    <path d="M 121.834711 346.081829 
L 124.629602 348.486471 
L 127.424493 350.520841 
L 130.219384 352.181434 
L 133.014275 353.478379 
L 135.809166 354.43691 
L 138.604057 355.091891 
L 141.398948 355.477322 
L 144.193839 355.615751 
L 146.98873 355.510421 
L 149.783621 355.138723 
L 152.578512 354.445255 
L 155.373403 353.334378 
L 158.168295 351.666347 
L 160.963186 349.264864 
L 163.758077 345.935941 
L 166.552968 341.490496 
L 169.347859 335.767655 
L 172.14275 328.658488 
L 174.937641 320.12443 
L 177.732532 310.197401 
L 180.527423 298.967422 
L 183.322314 286.570595 
L 186.117205 273.178941 
L 188.912096 258.991762 
L 191.706987 244.228194 
L 194.501878 229.120679 
L 197.296769 213.909068 
L 200.09166 198.835114 
L 202.886551 184.137092 
L 205.681443 170.044319 
L 208.476334 156.771315 
L 211.271225 144.511355 
L 214.066116 133.42915 
L 216.861007 123.652368 
L 219.655898 115.261677 
L 222.450789 108.27914 
L 225.24568 102.660223 
L 228.040571 98.303048 
L 230.835462 95.06663 
L 233.630353 92.7882 
L 236.425244 91.296836 
L 239.220135 90.422288 
L 242.015026 90.002494 
L 244.809917 89.891036 
L 247.604808 89.963648 
L 250.399699 90.120683 
L 253.194591 90.287476 
L 255.989482 90.413547 
L 258.784373 90.469167 
L 261.579264 90.441303 
L 264.374155 90.329913 
L 267.169046 90.14455 
L 269.963937 89.901191 
L 272.758828 89.619197 
L 275.553719 89.318326 
L 278.34861 89.01631 
L 281.143501 88.727898 
L 283.938392 88.464407 
L 286.733283 88.233411 
L 289.528174 88.039109 
L 292.323065 87.882849 
L 295.117956 87.763613 
L 297.912847 87.678611 
L 300.707739 87.623805 
L 303.50263 87.594354 
L 306.297521 87.584972 
L 309.092412 87.59023 
L 311.887303 87.604863 
L 314.682194 87.624029 
L 317.477085 87.643493 
L 320.271976 87.659736 
L 323.066867 87.670008 
L 325.861758 87.672309 
L 328.656649 87.66531 
L 331.45154 87.648217 
L 334.246431 87.620553 
L 337.041322 87.581881 
L 339.836213 87.531436 
L 342.631104 87.467789 
L 345.425995 87.388921 
L 348.220887 87.29254 
L 351.015778 87.176513 
L 353.810669 87.039587 
L 356.60556 86.882252 
L 359.400451 86.707603 
L 362.195342 86.522038 
L 364.990233 86.335315 
L 367.785124 86.16016 
L 370.580015 86.011842 
L 373.374906 85.907735 
L 376.169797 85.86684 
L 378.964688 85.909263 
L 381.759579 86.055609 
L 384.55447 86.326286 
L 387.349361 86.740684 
L 390.144252 87.316193 
L 392.939144 88.067044 
L 395.734035 89.002908 
L 398.528926 90.127402 
" clip-path="url(#p5054bf40a0)" style="fill: none; stroke: #1f77b4; stroke-width: 1.5; stroke-linecap: square"/>
   </g>
   <g id="patch_3">
    <path d="M 108 384.48 
L 108 51.84 
" style="fill: none; stroke: #000000; stroke-width: 0.8; stroke-linejoin: miter; stroke-linecap: square"/>
   </g>
   <g id="patch_4">
    <path d="M 412.363636 384.48 
L 412.363636 51.84 
" style="fill: none; stroke: #000000; stroke-width: 0.8; stroke-linejoin: miter; stroke-linecap: square"/>
   </g>
   <g id="patch_5">
    <path d="M 108 384.48 
L 412.363636 384.48 
" style="fill: none; stroke: #000000; stroke-width: 0.8; stroke-linejoin: miter; stroke-linecap: square"/>
   </g>
   <g id="patch_6">
    <path d="M 108 51.84 
L 412.363636 51.84 
" style="fill: none; stroke: #000000; stroke-width: 0.8; stroke-linejoin: miter; stroke-linecap: square"/>
   </g>
   <g id="text_18">
    <!-- Objective observations and gp model -->
    <g transform="translate(147.901193 45.84) scale(0.12 -0.12)">
     <defs>
      <path id="DejaVuSans-73" d="M 2834 3397 
L 2834 2853 
Q 2591 2978 2328 3040 
Q 2066 3103 1784 3103 
Q 1356 3103 1142 2972 
Q 928 2841 928 2578 
Q 928 2378 1081 2264 
Q 1234 2150 1697 2047 
L 1894 2003 
Q 2506 1872 2764 1633 
Q 3022 1394 3022 966 
Q 3022 478 2636 193 
Q 2250 -91 1575 -91 
Q 1294 -91 989 -36 
Q 684 19 347 128 
L 347 722 
Q 666 556 975 473 
Q 1284 391 1588 391 
Q 1994 391 2212 530 
Q 2431 669 2431 922 
Q 2431 1156 2273 1281 
Q 2116 1406 1581 1522 
L 1381 1569 
Q 847 1681 609 1914 
Q 372 2147 372 2553 
Q 372 3047 722 3315 
Q 1072 3584 1716 3584 
Q 2034 3584 2315 3537 
Q 2597 3491 2834 3397 
z
" transform="scale(0.015625)"/>
      <path id="DejaVuSans-72" d="M 2631 2963 
Q 2534 3019 2420 3045 
Q 2306 3072 2169 3072 
Q 1681 3072 1420 2755 
Q 1159 2438 1159 1844 
L 1159 0 
L 581 0 
L 581 3500 
L 1159 3500 
L 1159 2956 
Q 1341 3275 1631 3429 
Q 1922 3584 2338 3584 
Q 2397 3584 2469 3576 
Q 2541 3569 2628 3553 
L 2631 2963 
z
" transform="scale(0.015625)"/>
      <path id="DejaVuSans-70" d="M 1159 525 
L 1159 -1331 
L 581 -1331 
L 581 3500 
L 1159 3500 
L 1159 2969 
Q 1341 3281 1617 3432 
Q 1894 3584 2278 3584 
Q 2916 3584 3314 3078 
Q 3713 2572 3713 1747 
Q 3713 922 3314 415 
Q 2916 -91 2278 -91 
Q 1894 -91 1617 61 
Q 1341 213 1159 525 
z
M 3116 1747 
Q 3116 2381 2855 2742 
Q 2594 3103 2138 3103 
Q 1681 3103 1420 2742 
Q 1159 2381 1159 1747 
Q 1159 1113 1420 752 
Q 1681 391 2138 391 
Q 2594 391 2855 752 
Q 3116 1113 3116 1747 
z
" transform="scale(0.015625)"/>
      <path id="DejaVuSans-6d" d="M 3328 2828 
Q 3544 3216 3844 3400 
Q 4144 3584 4550 3584 
Q 5097 3584 5394 3201 
Q 5691 2819 5691 2113 
L 5691 0 
L 5113 0 
L 5113 2094 
Q 5113 2597 4934 2840 
Q 4756 3084 4391 3084 
Q 3944 3084 3684 2787 
Q 3425 2491 3425 1978 
L 3425 0 
L 2847 0 
L 2847 2094 
Q 2847 2600 2669 2842 
Q 2491 3084 2119 3084 
Q 1678 3084 1418 2786 
Q 1159 2488 1159 1978 
L 1159 0 
L 581 0 
L 581 3500 
L 1159 3500 
L 1159 2956 
Q 1356 3278 1631 3431 
Q 1906 3584 2284 3584 
Q 2666 3584 2933 3390 
Q 3200 3197 3328 2828 
z
" transform="scale(0.015625)"/>
      <path id="DejaVuSans-6c" d="M 603 4863 
L 1178 4863 
L 1178 0 
L 603 0 
L 603 4863 
z
" transform="scale(0.015625)"/>
     </defs>
     <use xlink:href="#DejaVuSans-4f"/>
     <use xlink:href="#DejaVuSans-62" x="78.710938"/>
     <use xlink:href="#DejaVuSans-6a" x="142.1875"/>
     <use xlink:href="#DejaVuSans-65" x="169.970703"/>
     <use xlink:href="#DejaVuSans-63" x="231.494141"/>
     <use xlink:href="#DejaVuSans-74" x="286.474609"/>
     <use xlink:href="#DejaVuSans-69" x="325.683594"/>
     <use xlink:href="#DejaVuSans-76" x="353.466797"/>
     <use xlink:href="#DejaVuSans-65" x="412.646484"/>
     <use xlink:href="#DejaVuSans-20" x="474.169922"/>
     <use xlink:href="#DejaVuSans-6f" x="505.957031"/>
     <use xlink:href="#DejaVuSans-62" x="567.138672"/>
     <use xlink:href="#DejaVuSans-73" x="630.615234"/>
     <use xlink:href="#DejaVuSans-65" x="682.714844"/>
     <use xlink:href="#DejaVuSans-72" x="744.238281"/>
     <use xlink:href="#DejaVuSans-76" x="785.351562"/>
     <use xlink:href="#DejaVuSans-61" x="844.53125"/>
     <use xlink:href="#DejaVuSans-74" x="905.810547"/>
     <use xlink:href="#DejaVuSans-69" x="945.019531"/>
     <use xlink:href="#DejaVuSans-6f" x="972.802734"/>
     <use xlink:href="#DejaVuSans-6e" x="1033.984375"/>
     <use xlink:href="#DejaVuSans-73" x="1097.363281"/>
     <use xlink:href="#DejaVuSans-20" x="1149.462891"/>
     <use xlink:href="#DejaVuSans-61" x="1181.25"/>
     <use xlink:href="#DejaVuSans-6e" x="1242.529297"/>
     <use xlink:href="#DejaVuSans-64" x="1305.908203"/>
     <use xlink:href="#DejaVuSans-20" x="1369.384766"/>
     <use xlink:href="#DejaVuSans-67" x="1401.171875"/>
     <use xlink:href="#DejaVuSans-70" x="1464.648438"/>
     <use xlink:href="#DejaVuSans-20" x="1528.125"/>
     <use xlink:href="#DejaVuSans-6d" x="1559.912109"/>
     <use xlink:href="#DejaVuSans-6f" x="1657.324219"/>
     <use xlink:href="#DejaVuSans-64" x="1718.505859"/>
     <use xlink:href="#DejaVuSans-65" x="1781.982422"/>
     <use xlink:href="#DejaVuSans-6c" x="1843.505859"/>
    </g>
   </g>
  </g>
  <g id="axes_2">
   <g id="patch_7">
    <path d="M 473.236364 384.48 
L 777.6 384.48 
L 777.6 51.84 
L 473.236364 51.84 
z
" style="fill: #ffffff"/>
   </g>
   <g id="PathCollection_2">
    <g clip-path="url(#p9caa1440bd)">
     <use xlink:href="#m1010d40623" x="709.98967" y="346.435985" style="fill: #1f77b4; stroke: #1f77b4"/>
     <use xlink:href="#m1010d40623" x="497.88422" y="80.118845" style="fill: #1f77b4; stroke: #1f77b4"/>
     <use xlink:href="#m1010d40623" x="646.440672" y="346.432437" style="fill: #1f77b4; stroke: #1f77b4"/>
     <use xlink:href="#m1010d40623" x="661.741688" y="346.434227" style="fill: #1f77b4; stroke: #1f77b4"/>
     <use xlink:href="#m1010d40623" x="619.96039" y="346.423216" style="fill: #1f77b4; stroke: #1f77b4"/>
     <use xlink:href="#m1010d40623" x="703.009706" y="346.435909" style="fill: #1f77b4; stroke: #1f77b4"/>
     <use xlink:href="#m1010d40623" x="614.953312" y="346.41918" style="fill: #1f77b4; stroke: #1f77b4"/>
     <use xlink:href="#m1010d40623" x="607.811898" y="346.410395" style="fill: #1f77b4; stroke: #1f77b4"/>
     <use xlink:href="#m1010d40623" x="615.843854" y="346.420009" style="fill: #1f77b4; stroke: #1f77b4"/>
     <use xlink:href="#m1010d40623" x="534.731865" y="96.820676" style="fill: #1f77b4; stroke: #1f77b4"/>
     <use xlink:href="#m1010d40623" x="638.02727" y="346.430779" style="fill: #1f77b4; stroke: #1f77b4"/>
     <use xlink:href="#m1010d40623" x="536.101213" y="97.760537" style="fill: #1f77b4; stroke: #1f77b4"/>
     <use xlink:href="#m1010d40623" x="712.467033" y="346.435998" style="fill: #1f77b4; stroke: #1f77b4"/>
     <use xlink:href="#m1010d40623" x="584.795715" y="346.305431" style="fill: #1f77b4; stroke: #1f77b4"/>
     <use xlink:href="#m1010d40623" x="495.482548" y="79.511732" style="fill: #1f77b4; stroke: #1f77b4"/>
     <use xlink:href="#m1010d40623" x="517.508018" y="87.033744" style="fill: #1f77b4; stroke: #1f77b4"/>
     <use xlink:href="#m1010d40623" x="722.635802" y="346.436076" style="fill: #1f77b4; stroke: #1f77b4"/>
     <use xlink:href="#m1010d40623" x="595.377575" y="346.378115" style="fill: #1f77b4; stroke: #1f77b4"/>
     <use xlink:href="#m1010d40623" x="654.477097" y="346.433502" style="fill: #1f77b4; stroke: #1f77b4"/>
     <use xlink:href="#m1010d40623" x="504.418783" y="82.093317" style="fill: #1f77b4; stroke: #1f77b4"/>
     <use xlink:href="#m1010d40623" x="520.678964" y="88.603347" style="fill: #1f77b4; stroke: #1f77b4"/>
     <use xlink:href="#m1010d40623" x="532.267114" y="95.056902" style="fill: #1f77b4; stroke: #1f77b4"/>
     <use xlink:href="#m1010d40623" x="759.905953" y="346.436044" style="fill: #1f77b4; stroke: #1f77b4"/>
     <use xlink:href="#m1010d40623" x="583.979058" y="346.294772" style="fill: #1f77b4; stroke: #1f77b4"/>
     <use xlink:href="#m1010d40623" x="668.628705" y="346.434713" style="fill: #1f77b4; stroke: #1f77b4"/>
     <use xlink:href="#m1010d40623" x="587.841386" y="346.335058" style="fill: #1f77b4; stroke: #1f77b4"/>
     <use xlink:href="#m1010d40623" x="585.461975" y="346.313077" style="fill: #1f77b4; stroke: #1f77b4"/>
     <use xlink:href="#m1010d40623" x="585.498986" y="346.313478" style="fill: #1f77b4; stroke: #1f77b4"/>
     <use xlink:href="#m1010d40623" x="585.543922" y="346.313964" style="fill: #1f77b4; stroke: #1f77b4"/>
     <use xlink:href="#m1010d40623" x="585.588832" y="346.314448" style="fill: #1f77b4; stroke: #1f77b4"/>
     <use xlink:href="#m1010d40623" x="585.631283" y="346.314904" style="fill: #1f77b4; stroke: #1f77b4"/>
     <use xlink:href="#m1010d40623" x="585.652876" y="346.315135" style="fill: #1f77b4; stroke: #1f77b4"/>
     <use xlink:href="#m1010d40623" x="585.689223" y="346.315521" style="fill: #1f77b4; stroke: #1f77b4"/>
     <use xlink:href="#m1010d40623" x="585.722723" y="346.315869" style="fill: #1f77b4; stroke: #1f77b4"/>
     <use xlink:href="#m1010d40623" x="585.757762" y="346.316225" style="fill: #1f77b4; stroke: #1f77b4"/>
     <use xlink:href="#m1010d40623" x="585.786488" y="346.316516" style="fill: #1f77b4; stroke: #1f77b4"/>
     <use xlink:href="#m1010d40623" x="585.813133" y="346.316786" style="fill: #1f77b4; stroke: #1f77b4"/>
     <use xlink:href="#m1010d40623" x="585.837927" y="346.317035" style="fill: #1f77b4; stroke: #1f77b4"/>
     <use xlink:href="#m1010d40623" x="585.861072" y="346.317268" style="fill: #1f77b4; stroke: #1f77b4"/>
     <use xlink:href="#m1010d40623" x="585.882712" y="346.317485" style="fill: #1f77b4; stroke: #1f77b4"/>
     <use xlink:href="#m1010d40623" x="585.900293" y="346.31766" style="fill: #1f77b4; stroke: #1f77b4"/>
     <use xlink:href="#m1010d40623" x="585.91943" y="346.317851" style="fill: #1f77b4; stroke: #1f77b4"/>
     <use xlink:href="#m1010d40623" x="585.937305" y="346.318029" style="fill: #1f77b4; stroke: #1f77b4"/>
     <use xlink:href="#m1010d40623" x="585.954417" y="346.318197" style="fill: #1f77b4; stroke: #1f77b4"/>
     <use xlink:href="#m1010d40623" x="585.970639" y="346.318358" style="fill: #1f77b4; stroke: #1f77b4"/>
     <use xlink:href="#m1010d40623" x="585.986046" y="346.318512" style="fill: #1f77b4; stroke: #1f77b4"/>
     <use xlink:href="#m1010d40623" x="586.000706" y="346.318657" style="fill: #1f77b4; stroke: #1f77b4"/>
     <use xlink:href="#m1010d40623" x="585.036552" y="346.308324" style="fill: #1f77b4; stroke: #1f77b4"/>
     <use xlink:href="#m1010d40623" x="585.004674" y="346.307945" style="fill: #1f77b4; stroke: #1f77b4"/>
     <use xlink:href="#m1010d40623" x="584.980862" y="346.307662" style="fill: #1f77b4; stroke: #1f77b4"/>
     <use xlink:href="#m1010d40623" x="584.955555" y="346.30736" style="fill: #1f77b4; stroke: #1f77b4"/>
     <use xlink:href="#m1010d40623" x="584.923805" y="346.306979" style="fill: #1f77b4; stroke: #1f77b4"/>
     <use xlink:href="#m1010d40623" x="584.907001" y="346.306777" style="fill: #1f77b4; stroke: #1f77b4"/>
     <use xlink:href="#m1010d40623" x="584.88874" y="346.306557" style="fill: #1f77b4; stroke: #1f77b4"/>
     <use xlink:href="#m1010d40623" x="584.868778" y="346.306317" style="fill: #1f77b4; stroke: #1f77b4"/>
     <use xlink:href="#m1010d40623" x="584.843736" y="346.306014" style="fill: #1f77b4; stroke: #1f77b4"/>
     <use xlink:href="#m1010d40623" x="584.819577" y="346.305717" style="fill: #1f77b4; stroke: #1f77b4"/>
     <use xlink:href="#m1010d40623" x="584.792846" y="346.305392" style="fill: #1f77b4; stroke: #1f77b4"/>
     <use xlink:href="#m1010d40623" x="584.777536" y="346.305205" style="fill: #1f77b4; stroke: #1f77b4"/>
     <use xlink:href="#m1010d40623" x="584.779348" y="346.305227" style="fill: #1f77b4; stroke: #1f77b4"/>
     <use xlink:href="#m1010d40623" x="584.747607" y="346.304839" style="fill: #1f77b4; stroke: #1f77b4"/>
     <use xlink:href="#m1010d40623" x="584.713166" y="346.304418" style="fill: #1f77b4; stroke: #1f77b4"/>
     <use xlink:href="#m1010d40623" x="584.714784" y="346.304438" style="fill: #1f77b4; stroke: #1f77b4"/>
     <use xlink:href="#m1010d40623" x="584.679928" y="346.304009" style="fill: #1f77b4; stroke: #1f77b4"/>
     <use xlink:href="#m1010d40623" x="584.681487" y="346.304029" style="fill: #1f77b4; stroke: #1f77b4"/>
     <use xlink:href="#m1010d40623" x="584.652768" y="346.303674" style="fill: #1f77b4; stroke: #1f77b4"/>
     <use xlink:href="#m1010d40623" x="584.654298" y="346.303693" style="fill: #1f77b4; stroke: #1f77b4"/>
     <use xlink:href="#m1010d40623" x="584.655899" y="346.303713" style="fill: #1f77b4; stroke: #1f77b4"/>
     <use xlink:href="#m1010d40623" x="584.657558" y="346.303733" style="fill: #1f77b4; stroke: #1f77b4"/>
     <use xlink:href="#m1010d40623" x="584.659267" y="346.303754" style="fill: #1f77b4; stroke: #1f77b4"/>
     <use xlink:href="#m1010d40623" x="584.661017" y="346.303776" style="fill: #1f77b4; stroke: #1f77b4"/>
     <use xlink:href="#m1010d40623" x="584.6628" y="346.303798" style="fill: #1f77b4; stroke: #1f77b4"/>
     <use xlink:href="#m1010d40623" x="584.664611" y="346.30382" style="fill: #1f77b4; stroke: #1f77b4"/>
     <use xlink:href="#m1010d40623" x="584.666443" y="346.303843" style="fill: #1f77b4; stroke: #1f77b4"/>
     <use xlink:href="#m1010d40623" x="584.668291" y="346.303866" style="fill: #1f77b4; stroke: #1f77b4"/>
     <use xlink:href="#m1010d40623" x="584.670151" y="346.303889" style="fill: #1f77b4; stroke: #1f77b4"/>
     <use xlink:href="#m1010d40623" x="584.672019" y="346.303912" style="fill: #1f77b4; stroke: #1f77b4"/>
     <use xlink:href="#m1010d40623" x="584.673893" y="346.303935" style="fill: #1f77b4; stroke: #1f77b4"/>
     <use xlink:href="#m1010d40623" x="584.675768" y="346.303958" style="fill: #1f77b4; stroke: #1f77b4"/>
     <use xlink:href="#m1010d40623" x="584.677642" y="346.303981" style="fill: #1f77b4; stroke: #1f77b4"/>
     <use xlink:href="#m1010d40623" x="584.679514" y="346.304004" style="fill: #1f77b4; stroke: #1f77b4"/>
     <use xlink:href="#m1010d40623" x="584.681342" y="346.304027" style="fill: #1f77b4; stroke: #1f77b4"/>
     <use xlink:href="#m1010d40623" x="584.683208" y="346.30405" style="fill: #1f77b4; stroke: #1f77b4"/>
     <use xlink:href="#m1010d40623" x="584.685061" y="346.304073" style="fill: #1f77b4; stroke: #1f77b4"/>
     <use xlink:href="#m1010d40623" x="584.686905" y="346.304095" style="fill: #1f77b4; stroke: #1f77b4"/>
     <use xlink:href="#m1010d40623" x="584.688739" y="346.304118" style="fill: #1f77b4; stroke: #1f77b4"/>
     <use xlink:href="#m1010d40623" x="584.69056" y="346.30414" style="fill: #1f77b4; stroke: #1f77b4"/>
     <use xlink:href="#m1010d40623" x="584.69237" y="346.304163" style="fill: #1f77b4; stroke: #1f77b4"/>
     <use xlink:href="#m1010d40623" x="584.694166" y="346.304185" style="fill: #1f77b4; stroke: #1f77b4"/>
     <use xlink:href="#m1010d40623" x="584.695948" y="346.304207" style="fill: #1f77b4; stroke: #1f77b4"/>
     <use xlink:href="#m1010d40623" x="584.69766" y="346.304228" style="fill: #1f77b4; stroke: #1f77b4"/>
     <use xlink:href="#m1010d40623" x="584.699414" y="346.304249" style="fill: #1f77b4; stroke: #1f77b4"/>
     <use xlink:href="#m1010d40623" x="584.701153" y="346.304271" style="fill: #1f77b4; stroke: #1f77b4"/>
     <use xlink:href="#m1010d40623" x="584.702877" y="346.304292" style="fill: #1f77b4; stroke: #1f77b4"/>
     <use xlink:href="#m1010d40623" x="584.704585" y="346.304313" style="fill: #1f77b4; stroke: #1f77b4"/>
     <use xlink:href="#m1010d40623" x="584.706277" y="346.304334" style="fill: #1f77b4; stroke: #1f77b4"/>
     <use xlink:href="#m1010d40623" x="584.707954" y="346.304354" style="fill: #1f77b4; stroke: #1f77b4"/>
     <use xlink:href="#m1010d40623" x="584.709614" y="346.304375" style="fill: #1f77b4; stroke: #1f77b4"/>
     <use xlink:href="#m1010d40623" x="584.711258" y="346.304395" style="fill: #1f77b4; stroke: #1f77b4"/>
     <use xlink:href="#m1010d40623" x="584.712886" y="346.304415" style="fill: #1f77b4; stroke: #1f77b4"/>
     <use xlink:href="#m1010d40623" x="584.714498" y="346.304435" style="fill: #1f77b4; stroke: #1f77b4"/>
     <use xlink:href="#m1010d40623" x="584.716094" y="346.304454" style="fill: #1f77b4; stroke: #1f77b4"/>
     <use xlink:href="#m1010d40623" x="584.717673" y="346.304474" style="fill: #1f77b4; stroke: #1f77b4"/>
     <use xlink:href="#m1010d40623" x="584.719237" y="346.304493" style="fill: #1f77b4; stroke: #1f77b4"/>
     <use xlink:href="#m1010d40623" x="584.720785" y="346.304512" style="fill: #1f77b4; stroke: #1f77b4"/>
     <use xlink:href="#m1010d40623" x="584.389818" y="346.300308" style="fill: #1f77b4; stroke: #1f77b4"/>
     <use xlink:href="#m1010d40623" x="584.390493" y="346.300317" style="fill: #1f77b4; stroke: #1f77b4"/>
     <use xlink:href="#m1010d40623" x="584.391226" y="346.300327" style="fill: #1f77b4; stroke: #1f77b4"/>
     <use xlink:href="#m1010d40623" x="584.391971" y="346.300336" style="fill: #1f77b4; stroke: #1f77b4"/>
     <use xlink:href="#m1010d40623" x="584.362547" y="346.299948" style="fill: #1f77b4; stroke: #1f77b4"/>
     <use xlink:href="#m1010d40623" x="584.363244" y="346.299957" style="fill: #1f77b4; stroke: #1f77b4"/>
     <use xlink:href="#m1010d40623" x="584.363959" y="346.299966" style="fill: #1f77b4; stroke: #1f77b4"/>
     <use xlink:href="#m1010d40623" x="584.341834" y="346.299673" style="fill: #1f77b4; stroke: #1f77b4"/>
     <use xlink:href="#m1010d40623" x="584.342522" y="346.299682" style="fill: #1f77b4; stroke: #1f77b4"/>
     <use xlink:href="#m1010d40623" x="584.343228" y="346.299691" style="fill: #1f77b4; stroke: #1f77b4"/>
     <use xlink:href="#m1010d40623" x="584.319384" y="346.299375" style="fill: #1f77b4; stroke: #1f77b4"/>
     <use xlink:href="#m1010d40623" x="584.320058" y="346.299384" style="fill: #1f77b4; stroke: #1f77b4"/>
     <use xlink:href="#m1010d40623" x="584.320749" y="346.299393" style="fill: #1f77b4; stroke: #1f77b4"/>
     <use xlink:href="#m1010d40623" x="584.32145" y="346.299402" style="fill: #1f77b4; stroke: #1f77b4"/>
     <use xlink:href="#m1010d40623" x="584.290998" y="346.298996" style="fill: #1f77b4; stroke: #1f77b4"/>
     <use xlink:href="#m1010d40623" x="584.291654" y="346.299005" style="fill: #1f77b4; stroke: #1f77b4"/>
     <use xlink:href="#m1010d40623" x="584.27553" y="346.298791" style="fill: #1f77b4; stroke: #1f77b4"/>
     <use xlink:href="#m1010d40623" x="584.27618" y="346.2988" style="fill: #1f77b4; stroke: #1f77b4"/>
     <use xlink:href="#m1010d40623" x="584.258392" y="346.298563" style="fill: #1f77b4; stroke: #1f77b4"/>
     <use xlink:href="#m1010d40623" x="584.259028" y="346.298571" style="fill: #1f77b4; stroke: #1f77b4"/>
    </g>
   </g>
   <g id="PolyCollection_2">
    <path d="M 487.071074 68.175336 
L 487.071074 110.664973 
L 489.865965 105.063609 
L 492.660856 100.685547 
L 495.455748 97.629349 
L 498.250639 95.825257 
L 501.04553 95.016423 
L 503.840421 94.860459 
L 506.635312 95.052017 
L 509.430203 95.378854 
L 512.225094 95.734909 
L 515.019985 96.117623 
L 517.814876 96.614009 
L 520.609767 97.381212 
L 523.404658 98.634422 
L 526.199549 100.650944 
L 528.99444 103.779829 
L 531.789331 108.433235 
L 534.584222 115.031782 
L 537.379113 123.892734 
L 540.174005 135.111435 
L 542.968896 148.53886 
L 545.763787 163.853119 
L 548.558678 180.640709 
L 551.353569 198.451657 
L 554.14846 216.829978 
L 556.943351 235.330529 
L 559.738242 253.530214 
L 562.533133 271.037573 
L 565.328024 287.502694 
L 568.122915 302.628597 
L 570.917806 316.184785 
L 573.712697 328.022644 
L 576.507588 338.088929 
L 579.302479 346.425508 
L 582.09737 353.13629 
L 584.892261 358.326583 
L 587.687153 362.084324 
L 590.482044 364.517844 
L 593.276935 365.784189 
L 596.071826 366.097832 
L 598.866717 365.695973 
L 601.661608 364.802898 
L 604.456499 363.626972 
L 607.25139 362.363349 
L 610.046281 361.186454 
L 612.841172 360.234521 
L 615.636063 359.599506 
L 618.430954 359.311671 
L 621.225845 359.326667 
L 624.020736 359.54128 
L 626.815627 359.831307 
L 629.610518 360.092999 
L 632.405409 360.268329 
L 635.200301 360.349413 
L 637.995192 360.364669 
L 640.790083 360.352479 
L 643.584974 360.338113 
L 646.379865 360.330479 
L 649.174756 360.325582 
L 651.969647 360.312552 
L 654.764538 360.28913 
L 657.559429 360.27197 
L 660.35432 360.299301 
L 663.149211 360.430802 
L 665.944102 360.730375 
L 668.738993 361.23835 
L 671.533884 361.944263 
L 674.328775 362.773357 
L 677.123666 363.608302 
L 679.918557 364.324346 
L 682.713449 364.816029 
L 685.50834 365.012144 
L 688.303231 364.882455 
L 691.098122 364.439765 
L 693.893013 363.738987 
L 696.687904 362.872715 
L 699.482795 361.960862 
L 702.277686 361.131015 
L 705.072577 360.489578 
L 707.867468 360.097301 
L 710.662359 359.972165 
L 713.45725 360.106071 
L 716.252141 360.481859 
L 719.047032 361.093649 
L 721.841923 361.952349 
L 724.636814 363.058878 
L 727.431705 364.363341 
L 730.226597 365.756487 
L 733.021488 367.094288 
L 735.816379 368.226412 
L 738.61127 369.017323 
L 741.406161 369.36 
L 744.201052 369.186146 
L 746.995943 368.477119 
L 749.790834 367.279509 
L 752.585725 365.728241 
L 755.380616 364.073302 
L 758.175507 362.681403 
L 760.970398 361.945072 
L 763.765289 362.083729 
L 763.765289 324.948648 
L 763.765289 324.948648 
L 760.970398 327.715321 
L 758.175507 329.122528 
L 755.380616 329.398153 
L 752.585725 328.96363 
L 749.790834 328.229104 
L 746.995943 327.49724 
L 744.201052 326.960642 
L 741.406161 326.725214 
L 738.61127 326.830557 
L 735.816379 327.263396 
L 733.021488 327.96677 
L 730.226597 328.848805 
L 727.431705 329.795237 
L 724.636814 330.689448 
L 721.841923 331.439964 
L 719.047032 332.004207 
L 716.252141 332.380585 
L 713.45725 332.570507 
L 710.662359 332.55505 
L 707.867468 332.304019 
L 705.072577 331.799046 
L 702.277686 331.051878 
L 699.482795 330.121877 
L 696.687904 329.118751 
L 693.893013 328.176159 
L 691.098122 327.420913 
L 688.303231 326.951853 
L 685.50834 326.828394 
L 682.713449 327.065371 
L 679.918557 327.631684 
L 677.123666 328.452252 
L 674.328775 329.414902 
L 671.533884 330.385807 
L 668.738993 331.237013 
L 665.944102 331.882735 
L 663.149211 332.302109 
L 660.35432 332.525698 
L 657.559429 332.608075 
L 654.764538 332.600024 
L 651.969647 332.531528 
L 649.174756 332.41233 
L 646.379865 332.235902 
L 643.584974 331.991636 
L 640.790083 331.682442 
L 637.995192 331.332487 
L 635.200301 330.992697 
L 632.405409 330.738618 
L 629.610518 330.644915 
L 626.815627 330.755671 
L 624.020736 331.067766 
L 621.225845 331.533001 
L 618.430954 332.081434 
L 615.636063 332.660235 
L 612.841172 333.263344 
L 610.046281 333.932078 
L 607.25139 334.721862 
L 604.456499 335.663707 
L 601.661608 336.736483 
L 598.866717 337.84478 
L 596.071826 338.805003 
L 593.276935 339.338356 
L 590.482044 339.065172 
L 587.687153 337.507952 
L 584.892261 334.122577 
L 582.09737 328.398945 
L 579.302479 320.052472 
L 576.507588 309.114726 
L 573.712697 295.856645 
L 570.917806 280.673121 
L 568.122915 264.005475 
L 565.328024 246.304963 
L 562.533133 228.016408 
L 559.738242 209.568451 
L 556.943351 191.365161 
L 554.14846 173.777267 
L 551.353569 157.132356 
L 548.558678 141.703826 
L 545.763787 127.699176 
L 542.968896 115.250194 
L 540.174005 104.411462 
L 537.379113 95.176482 
L 534.584222 87.510976 
L 531.789331 81.373577 
L 528.99444 76.694973 
L 526.199549 73.333774 
L 523.404658 71.054195 
L 520.609767 69.55697 
L 517.814876 68.55346 
L 515.019985 67.843077 
L 512.225094 67.339551 
L 509.430203 67.037581 
L 506.635312 66.96 
L 503.840421 67.113347 
L 501.04553 67.456858 
L 498.250639 67.883657 
L 495.455748 68.236579 
L 492.660856 68.391104 
L 489.865965 68.338139 
L 487.071074 68.175336 
z
" clip-path="url(#p9caa1440bd)" style="fill: #ff7f0e; fill-opacity: 0.2"/>
   </g>
   <g id="matplotlib.axis_3">
    <g id="xtick_9">
     <g id="line2d_17">
      <g>
       <use xlink:href="#m5d457cb158" x="505.517355" y="384.48" style="stroke: #000000; stroke-width: 0.8"/>
      </g>
     </g>
     <g id="text_19">
      <!-- −0.4 -->
      <g transform="translate(493.375949 399.078438) scale(0.1 -0.1)">
       <use xlink:href="#DejaVuSans-2212"/>
       <use xlink:href="#DejaVuSans-30" x="83.789062"/>
       <use xlink:href="#DejaVuSans-2e" x="147.412109"/>
       <use xlink:href="#DejaVuSans-34" x="179.199219"/>
      </g>
     </g>
    </g>
    <g id="xtick_10">
     <g id="line2d_18">
      <g>
       <use xlink:href="#m5d457cb158" x="542.409917" y="384.48" style="stroke: #000000; stroke-width: 0.8"/>
      </g>
     </g>
     <g id="text_20">
      <!-- −0.2 -->
      <g transform="translate(530.268511 399.078438) scale(0.1 -0.1)">
       <use xlink:href="#DejaVuSans-2212"/>
       <use xlink:href="#DejaVuSans-30" x="83.789062"/>
       <use xlink:href="#DejaVuSans-2e" x="147.412109"/>
       <use xlink:href="#DejaVuSans-32" x="179.199219"/>
      </g>
     </g>
    </g>
    <g id="xtick_11">
     <g id="line2d_19">
      <g>
       <use xlink:href="#m5d457cb158" x="579.302479" y="384.48" style="stroke: #000000; stroke-width: 0.8"/>
      </g>
     </g>
     <g id="text_21">
      <!-- 0.0 -->
      <g transform="translate(571.350917 399.078438) scale(0.1 -0.1)">
       <use xlink:href="#DejaVuSans-30"/>
       <use xlink:href="#DejaVuSans-2e" x="63.623047"/>
       <use xlink:href="#DejaVuSans-30" x="95.410156"/>
      </g>
     </g>
    </g>
    <g id="xtick_12">
     <g id="line2d_20">
      <g>
       <use xlink:href="#m5d457cb158" x="616.195041" y="384.48" style="stroke: #000000; stroke-width: 0.8"/>
      </g>
     </g>
     <g id="text_22">
      <!-- 0.2 -->
      <g transform="translate(608.243479 399.078438) scale(0.1 -0.1)">
       <use xlink:href="#DejaVuSans-30"/>
       <use xlink:href="#DejaVuSans-2e" x="63.623047"/>
       <use xlink:href="#DejaVuSans-32" x="95.410156"/>
      </g>
     </g>
    </g>
    <g id="xtick_13">
     <g id="line2d_21">
      <g>
       <use xlink:href="#m5d457cb158" x="653.087603" y="384.48" style="stroke: #000000; stroke-width: 0.8"/>
      </g>
     </g>
     <g id="text_23">
      <!-- 0.4 -->
      <g transform="translate(645.136041 399.078438) scale(0.1 -0.1)">
       <use xlink:href="#DejaVuSans-30"/>
       <use xlink:href="#DejaVuSans-2e" x="63.623047"/>
       <use xlink:href="#DejaVuSans-34" x="95.410156"/>
      </g>
     </g>
    </g>
    <g id="xtick_14">
     <g id="line2d_22">
      <g>
       <use xlink:href="#m5d457cb158" x="689.980165" y="384.48" style="stroke: #000000; stroke-width: 0.8"/>
      </g>
     </g>
     <g id="text_24">
      <!-- 0.6 -->
      <g transform="translate(682.028603 399.078438) scale(0.1 -0.1)">
       <use xlink:href="#DejaVuSans-30"/>
       <use xlink:href="#DejaVuSans-2e" x="63.623047"/>
       <use xlink:href="#DejaVuSans-36" x="95.410156"/>
      </g>
     </g>
    </g>
    <g id="xtick_15">
     <g id="line2d_23">
      <g>
       <use xlink:href="#m5d457cb158" x="726.872727" y="384.48" style="stroke: #000000; stroke-width: 0.8"/>
      </g>
     </g>
     <g id="text_25">
      <!-- 0.8 -->
      <g transform="translate(718.921165 399.078438) scale(0.1 -0.1)">
       <use xlink:href="#DejaVuSans-30"/>
       <use xlink:href="#DejaVuSans-2e" x="63.623047"/>
       <use xlink:href="#DejaVuSans-38" x="95.410156"/>
      </g>
     </g>
    </g>
    <g id="xtick_16">
     <g id="line2d_24">
      <g>
       <use xlink:href="#m5d457cb158" x="763.765289" y="384.48" style="stroke: #000000; stroke-width: 0.8"/>
      </g>
     </g>
     <g id="text_26">
      <!-- 1.0 -->
      <g transform="translate(755.813727 399.078438) scale(0.1 -0.1)">
       <use xlink:href="#DejaVuSans-31"/>
       <use xlink:href="#DejaVuSans-2e" x="63.623047"/>
       <use xlink:href="#DejaVuSans-30" x="95.410156"/>
      </g>
     </g>
    </g>
    <g id="text_27">
     <!-- efd_gain -->
     <g transform="translate(604.111151 412.756563) scale(0.1 -0.1)">
      <use xlink:href="#DejaVuSans-65"/>
      <use xlink:href="#DejaVuSans-66" x="61.523438"/>
      <use xlink:href="#DejaVuSans-64" x="96.728516"/>
      <use xlink:href="#DejaVuSans-5f" x="160.205078"/>
      <use xlink:href="#DejaVuSans-67" x="210.205078"/>
      <use xlink:href="#DejaVuSans-61" x="273.681641"/>
      <use xlink:href="#DejaVuSans-69" x="334.960938"/>
      <use xlink:href="#DejaVuSans-6e" x="362.744141"/>
     </g>
    </g>
   </g>
   <g id="matplotlib.axis_4">
    <g id="ytick_8">
     <g id="line2d_25">
      <g>
       <use xlink:href="#m18dca12437" x="473.236364" y="346.772413" style="stroke: #000000; stroke-width: 0.8"/>
      </g>
     </g>
     <g id="text_28">
      <!-- 0 -->
      <g transform="translate(459.873864 350.571631) scale(0.1 -0.1)">
       <use xlink:href="#DejaVuSans-30"/>
      </g>
     </g>
    </g>
    <g id="ytick_9">
     <g id="line2d_26">
      <g>
       <use xlink:href="#m18dca12437" x="473.236364" y="288.380518" style="stroke: #000000; stroke-width: 0.8"/>
      </g>
     </g>
     <g id="text_29">
      <!-- 100 -->
      <g transform="translate(447.148864 292.179736) scale(0.1 -0.1)">
       <use xlink:href="#DejaVuSans-31"/>
       <use xlink:href="#DejaVuSans-30" x="63.623047"/>
       <use xlink:href="#DejaVuSans-30" x="127.246094"/>
      </g>
     </g>
    </g>
    <g id="ytick_10">
     <g id="line2d_27">
      <g>
       <use xlink:href="#m18dca12437" x="473.236364" y="229.988623" style="stroke: #000000; stroke-width: 0.8"/>
      </g>
     </g>
     <g id="text_30">
      <!-- 200 -->
      <g transform="translate(447.148864 233.787841) scale(0.1 -0.1)">
       <use xlink:href="#DejaVuSans-32"/>
       <use xlink:href="#DejaVuSans-30" x="63.623047"/>
       <use xlink:href="#DejaVuSans-30" x="127.246094"/>
      </g>
     </g>
    </g>
    <g id="ytick_11">
     <g id="line2d_28">
      <g>
       <use xlink:href="#m18dca12437" x="473.236364" y="171.596728" style="stroke: #000000; stroke-width: 0.8"/>
      </g>
     </g>
     <g id="text_31">
      <!-- 300 -->
      <g transform="translate(447.148864 175.395946) scale(0.1 -0.1)">
       <use xlink:href="#DejaVuSans-33"/>
       <use xlink:href="#DejaVuSans-30" x="63.623047"/>
       <use xlink:href="#DejaVuSans-30" x="127.246094"/>
      </g>
     </g>
    </g>
    <g id="ytick_12">
     <g id="line2d_29">
      <g>
       <use xlink:href="#m18dca12437" x="473.236364" y="113.204833" style="stroke: #000000; stroke-width: 0.8"/>
      </g>
     </g>
     <g id="text_32">
      <!-- 400 -->
      <g transform="translate(447.148864 117.004051) scale(0.1 -0.1)">
       <use xlink:href="#DejaVuSans-34"/>
       <use xlink:href="#DejaVuSans-30" x="63.623047"/>
       <use xlink:href="#DejaVuSans-30" x="127.246094"/>
      </g>
     </g>
    </g>
    <g id="ytick_13">
     <g id="line2d_30">
      <g>
       <use xlink:href="#m18dca12437" x="473.236364" y="54.812938" style="stroke: #000000; stroke-width: 0.8"/>
      </g>
     </g>
     <g id="text_33">
      <!-- 500 -->
      <g transform="translate(447.148864 58.612156) scale(0.1 -0.1)">
       <use xlink:href="#DejaVuSans-35"/>
       <use xlink:href="#DejaVuSans-30" x="63.623047"/>
       <use xlink:href="#DejaVuSans-30" x="127.246094"/>
      </g>
     </g>
    </g>
    <g id="text_34">
     <!-- Constraint function -->
     <g transform="translate(441.069176 266.095156) rotate(-90) scale(0.1 -0.1)">
      <defs>
       <path id="DejaVuSans-43" d="M 4122 4306 
L 4122 3641 
Q 3803 3938 3442 4084 
Q 3081 4231 2675 4231 
Q 1875 4231 1450 3742 
Q 1025 3253 1025 2328 
Q 1025 1406 1450 917 
Q 1875 428 2675 428 
Q 3081 428 3442 575 
Q 3803 722 4122 1019 
L 4122 359 
Q 3791 134 3420 21 
Q 3050 -91 2638 -91 
Q 1578 -91 968 557 
Q 359 1206 359 2328 
Q 359 3453 968 4101 
Q 1578 4750 2638 4750 
Q 3056 4750 3426 4639 
Q 3797 4528 4122 4306 
z
" transform="scale(0.015625)"/>
      </defs>
      <use xlink:href="#DejaVuSans-43"/>
      <use xlink:href="#DejaVuSans-6f" x="69.824219"/>
      <use xlink:href="#DejaVuSans-6e" x="131.005859"/>
      <use xlink:href="#DejaVuSans-73" x="194.384766"/>
      <use xlink:href="#DejaVuSans-74" x="246.484375"/>
      <use xlink:href="#DejaVuSans-72" x="285.693359"/>
      <use xlink:href="#DejaVuSans-61" x="326.806641"/>
      <use xlink:href="#DejaVuSans-69" x="388.085938"/>
      <use xlink:href="#DejaVuSans-6e" x="415.869141"/>
      <use xlink:href="#DejaVuSans-74" x="479.248047"/>
      <use xlink:href="#DejaVuSans-20" x="518.457031"/>
      <use xlink:href="#DejaVuSans-66" x="550.244141"/>
      <use xlink:href="#DejaVuSans-75" x="585.449219"/>
      <use xlink:href="#DejaVuSans-6e" x="648.828125"/>
      <use xlink:href="#DejaVuSans-63" x="712.207031"/>
      <use xlink:href="#DejaVuSans-74" x="767.1875"/>
      <use xlink:href="#DejaVuSans-69" x="806.396484"/>
      <use xlink:href="#DejaVuSans-6f" x="834.179688"/>
      <use xlink:href="#DejaVuSans-6e" x="895.361328"/>
     </g>
    </g>
   </g>
   <g id="line2d_31">
    <path d="M 487.071074 89.420155 
L 489.865965 86.700874 
L 492.660856 84.538325 
L 495.455748 82.932964 
L 498.250639 81.854457 
L 501.04553 81.236641 
L 503.840421 80.986903 
L 506.635312 81.006009 
L 509.430203 81.208217 
L 512.225094 81.53723 
L 515.019985 81.98035 
L 517.814876 82.583734 
L 520.609767 83.469091 
L 523.404658 84.844309 
L 526.199549 86.992359 
L 528.99444 90.237401 
L 531.789331 94.903406 
L 534.584222 101.271379 
L 537.379113 109.534608 
L 540.174005 119.761448 
L 542.968896 131.894527 
L 545.763787 145.776147 
L 548.558678 161.172268 
L 551.353569 177.792007 
L 554.14846 195.303623 
L 556.943351 213.347845 
L 559.738242 231.549332 
L 562.533133 249.52699 
L 565.328024 266.903828 
L 568.122915 283.317036 
L 570.917806 298.428953 
L 573.712697 311.939645 
L 576.507588 323.601828 
L 579.302479 333.23899 
L 582.09737 340.767617 
L 584.892261 346.22458 
L 587.687153 349.796138 
L 590.482044 351.791508 
L 593.276935 352.561273 
L 596.071826 352.451417 
L 598.866717 351.770376 
L 601.661608 350.769691 
L 604.456499 349.64534 
L 607.25139 348.542606 
L 610.046281 347.559266 
L 612.841172 346.748933 
L 615.636063 346.12987 
L 618.430954 345.696552 
L 621.225845 345.429834 
L 624.020736 345.304523 
L 626.815627 345.293489 
L 629.610518 345.368957 
L 632.405409 345.503473 
L 635.200301 345.671055 
L 637.995192 345.848578 
L 640.790083 346.017461 
L 643.584974 346.164875 
L 646.379865 346.28319 
L 649.174756 346.368956 
L 651.969647 346.42204 
L 654.764538 346.444577 
L 657.559429 346.440022 
L 660.35432 346.412499 
L 663.149211 346.366455 
L 665.944102 346.306555 
L 668.738993 346.237682 
L 671.533884 346.165035 
L 674.328775 346.094129 
L 677.123666 346.030277 
L 679.918557 345.978015 
L 682.713449 345.9407 
L 685.50834 345.920269 
L 688.303231 345.917154 
L 691.098122 345.930339 
L 693.893013 345.957573 
L 696.687904 345.995733 
L 699.482795 346.04137 
L 702.277686 346.091447 
L 705.072577 346.144312 
L 707.867468 346.20066 
L 710.662359 346.263607 
L 713.45725 346.338289 
L 716.252141 346.431222 
L 719.047032 346.548928 
L 721.841923 346.696157 
L 724.636814 346.874163 
L 727.431705 347.079289 
L 730.226597 347.302646 
L 733.021488 347.530529 
L 735.816379 347.744904 
L 738.61127 347.92394 
L 741.406161 348.042607 
L 744.201052 348.073394 
L 746.995943 347.987179 
L 749.790834 347.754307 
L 752.585725 347.345935 
L 755.380616 346.735728 
L 758.175507 345.901965 
L 760.970398 344.830196 
L 763.765289 343.516188 
" clip-path="url(#p9caa1440bd)" style="fill: none; stroke: #1f77b4; stroke-width: 1.5; stroke-linecap: square"/>
   </g>
   <g id="line2d_32">
    <path d="M 473.236364 346.194333 
L 777.6 346.194333 
" clip-path="url(#p9caa1440bd)" style="fill: none; stroke: #000000; stroke-width: 1.5; stroke-linecap: square"/>
   </g>
   <g id="patch_8">
    <path d="M 473.236364 384.48 
L 473.236364 51.84 
" style="fill: none; stroke: #000000; stroke-width: 0.8; stroke-linejoin: miter; stroke-linecap: square"/>
   </g>
   <g id="patch_9">
    <path d="M 777.6 384.48 
L 777.6 51.84 
" style="fill: none; stroke: #000000; stroke-width: 0.8; stroke-linejoin: miter; stroke-linecap: square"/>
   </g>
   <g id="patch_10">
    <path d="M 473.236364 384.48 
L 777.6 384.48 
" style="fill: none; stroke: #000000; stroke-width: 0.8; stroke-linejoin: miter; stroke-linecap: square"/>
   </g>
   <g id="patch_11">
    <path d="M 473.236364 51.84 
L 777.6 51.84 
" style="fill: none; stroke: #000000; stroke-width: 0.8; stroke-linejoin: miter; stroke-linecap: square"/>
   </g>
   <g id="text_35">
    <!-- Constraint observations and gp model -->
    <g transform="translate(510.483494 45.84) scale(0.12 -0.12)">
     <use xlink:href="#DejaVuSans-43"/>
     <use xlink:href="#DejaVuSans-6f" x="69.824219"/>
     <use xlink:href="#DejaVuSans-6e" x="131.005859"/>
     <use xlink:href="#DejaVuSans-73" x="194.384766"/>
     <use xlink:href="#DejaVuSans-74" x="246.484375"/>
     <use xlink:href="#DejaVuSans-72" x="285.693359"/>
     <use xlink:href="#DejaVuSans-61" x="326.806641"/>
     <use xlink:href="#DejaVuSans-69" x="388.085938"/>
     <use xlink:href="#DejaVuSans-6e" x="415.869141"/>
     <use xlink:href="#DejaVuSans-74" x="479.248047"/>
     <use xlink:href="#DejaVuSans-20" x="518.457031"/>
     <use xlink:href="#DejaVuSans-6f" x="550.244141"/>
     <use xlink:href="#DejaVuSans-62" x="611.425781"/>
     <use xlink:href="#DejaVuSans-73" x="674.902344"/>
     <use xlink:href="#DejaVuSans-65" x="727.001953"/>
     <use xlink:href="#DejaVuSans-72" x="788.525391"/>
     <use xlink:href="#DejaVuSans-76" x="829.638672"/>
     <use xlink:href="#DejaVuSans-61" x="888.818359"/>
     <use xlink:href="#DejaVuSans-74" x="950.097656"/>
     <use xlink:href="#DejaVuSans-69" x="989.306641"/>
     <use xlink:href="#DejaVuSans-6f" x="1017.089844"/>
     <use xlink:href="#DejaVuSans-6e" x="1078.271484"/>
     <use xlink:href="#DejaVuSans-73" x="1141.650391"/>
     <use xlink:href="#DejaVuSans-20" x="1193.75"/>
     <use xlink:href="#DejaVuSans-61" x="1225.537109"/>
     <use xlink:href="#DejaVuSans-6e" x="1286.816406"/>
     <use xlink:href="#DejaVuSans-64" x="1350.195312"/>
     <use xlink:href="#DejaVuSans-20" x="1413.671875"/>
     <use xlink:href="#DejaVuSans-67" x="1445.458984"/>
     <use xlink:href="#DejaVuSans-70" x="1508.935547"/>
     <use xlink:href="#DejaVuSans-20" x="1572.412109"/>
     <use xlink:href="#DejaVuSans-6d" x="1604.199219"/>
     <use xlink:href="#DejaVuSans-6f" x="1701.611328"/>
     <use xlink:href="#DejaVuSans-64" x="1762.792969"/>
     <use xlink:href="#DejaVuSans-65" x="1826.269531"/>
     <use xlink:href="#DejaVuSans-6c" x="1887.792969"/>
    </g>
   </g>
  </g>
 </g>
 <defs>
  <clipPath id="p5054bf40a0">
   <rect x="108" y="51.84" width="304.363636" height="332.64"/>
  </clipPath>
  <clipPath id="p9caa1440bd">
   <rect x="473.236364" y="51.84" width="304.363636" height="332.64"/>
  </clipPath>
 </defs>
</svg>
