<?xml version="1.0" encoding="utf-8" standalone="no"?>
<!DOCTYPE svg PUBLIC "-//W3C//DTD SVG 1.1//EN"
  "http://www.w3.org/Graphics/SVG/1.1/DTD/svg11.dtd">
<svg xmlns:xlink="http://www.w3.org/1999/xlink" width="720pt" height="288pt" viewBox="0 0 720 288" xmlns="http://www.w3.org/2000/svg" version="1.1">
 <metadata>
  <rdf:RDF xmlns:dc="http://purl.org/dc/elements/1.1/" xmlns:cc="http://creativecommons.org/ns#" xmlns:rdf="http://www.w3.org/1999/02/22-rdf-syntax-ns#">
   <cc:Work>
    <dc:type rdf:resource="http://purl.org/dc/dcmitype/StillImage"/>
    <dc:date>2025-03-03T16:15:06.734092</dc:date>
    <dc:format>image/svg+xml</dc:format>
    <dc:creator>
     <cc:Agent>
      <dc:title>Matplotlib v3.9.4, https://matplotlib.org/</dc:title>
     </cc:Agent>
    </dc:creator>
   </cc:Work>
  </rdf:RDF>
 </metadata>
 <defs>
  <style type="text/css">*{stroke-linejoin: round; stroke-linecap: butt}</style>
 </defs>
 <g id="figure_1">
  <g id="patch_1">
   <path d="M 0 288 
L 720 288 
L 720 0 
L 0 0 
z
" style="fill: #ffffff"/>
  </g>
  <g id="axes_1">
   <g id="patch_2">
    <path d="M 54.02 119.437061 
L 346.853908 119.437061 
L 346.853908 26.88 
L 54.02 26.88 
z
" style="fill: #ffffff"/>
   </g>
   <g id="matplotlib.axis_1">
    <g id="xtick_1">
     <g id="line2d_1">
      <defs>
       <path id="mb4690c8801" d="M 0 0 
L 0 3.5 
" style="stroke: #000000; stroke-width: 0.8"/>
      </defs>
      <g>
       <use xlink:href="#mb4690c8801" x="67.330632" y="119.437061" style="stroke: #000000; stroke-width: 0.8"/>
      </g>
     </g>
    </g>
    <g id="xtick_2">
     <g id="line2d_2">
      <g>
       <use xlink:href="#mb4690c8801" x="96.923287" y="119.437061" style="stroke: #000000; stroke-width: 0.8"/>
      </g>
     </g>
    </g>
    <g id="xtick_3">
     <g id="line2d_3">
      <g>
       <use xlink:href="#mb4690c8801" x="126.515941" y="119.437061" style="stroke: #000000; stroke-width: 0.8"/>
      </g>
     </g>
    </g>
    <g id="xtick_4">
     <g id="line2d_4">
      <g>
       <use xlink:href="#mb4690c8801" x="156.108596" y="119.437061" style="stroke: #000000; stroke-width: 0.8"/>
      </g>
     </g>
    </g>
    <g id="xtick_5">
     <g id="line2d_5">
      <g>
       <use xlink:href="#mb4690c8801" x="185.70125" y="119.437061" style="stroke: #000000; stroke-width: 0.8"/>
      </g>
     </g>
    </g>
    <g id="xtick_6">
     <g id="line2d_6">
      <g>
       <use xlink:href="#mb4690c8801" x="215.293905" y="119.437061" style="stroke: #000000; stroke-width: 0.8"/>
      </g>
     </g>
    </g>
    <g id="xtick_7">
     <g id="line2d_7">
      <g>
       <use xlink:href="#mb4690c8801" x="244.88656" y="119.437061" style="stroke: #000000; stroke-width: 0.8"/>
      </g>
     </g>
    </g>
    <g id="xtick_8">
     <g id="line2d_8">
      <g>
       <use xlink:href="#mb4690c8801" x="274.479214" y="119.437061" style="stroke: #000000; stroke-width: 0.8"/>
      </g>
     </g>
    </g>
    <g id="xtick_9">
     <g id="line2d_9">
      <g>
       <use xlink:href="#mb4690c8801" x="304.071869" y="119.437061" style="stroke: #000000; stroke-width: 0.8"/>
      </g>
     </g>
    </g>
    <g id="xtick_10">
     <g id="line2d_10">
      <g>
       <use xlink:href="#mb4690c8801" x="333.664523" y="119.437061" style="stroke: #000000; stroke-width: 0.8"/>
      </g>
     </g>
    </g>
    <g id="text_1">
     <!-- time -->
     <g transform="translate(189.14086 138.035498) scale(0.1 -0.1)">
      <defs>
       <path id="DejaVuSans-74" d="M 1172 4494 
L 1172 3500 
L 2356 3500 
L 2356 3053 
L 1172 3053 
L 1172 1153 
Q 1172 725 1289 603 
Q 1406 481 1766 481 
L 2356 481 
L 2356 0 
L 1766 0 
Q 1100 0 847 248 
Q 594 497 594 1153 
L 594 3053 
L 172 3053 
L 172 3500 
L 594 3500 
L 594 4494 
L 1172 4494 
z
" transform="scale(0.015625)"/>
       <path id="DejaVuSans-69" d="M 603 3500 
L 1178 3500 
L 1178 0 
L 603 0 
L 603 3500 
z
M 603 4863 
L 1178 4863 
L 1178 4134 
L 603 4134 
L 603 4863 
z
" transform="scale(0.015625)"/>
       <path id="DejaVuSans-6d" d="M 3328 2828 
Q 3544 3216 3844 3400 
Q 4144 3584 4550 3584 
Q 5097 3584 5394 3201 
Q 5691 2819 5691 2113 
L 5691 0 
L 5113 0 
L 5113 2094 
Q 5113 2597 4934 2840 
Q 4756 3084 4391 3084 
Q 3944 3084 3684 2787 
Q 3425 2491 3425 1978 
L 3425 0 
L 2847 0 
L 2847 2094 
Q 2847 2600 2669 2842 
Q 2491 3084 2119 3084 
Q 1678 3084 1418 2786 
Q 1159 2488 1159 1978 
L 1159 0 
L 581 0 
L 581 3500 
L 1159 3500 
L 1159 2956 
Q 1356 3278 1631 3431 
Q 1906 3584 2284 3584 
Q 2666 3584 2933 3390 
Q 3200 3197 3328 2828 
z
" transform="scale(0.015625)"/>
       <path id="DejaVuSans-65" d="M 3597 1894 
L 3597 1613 
L 953 1613 
Q 991 1019 1311 708 
Q 1631 397 2203 397 
Q 2534 397 2845 478 
Q 3156 559 3463 722 
L 3463 178 
Q 3153 47 2828 -22 
Q 2503 -91 2169 -91 
Q 1331 -91 842 396 
Q 353 884 353 1716 
Q 353 2575 817 3079 
Q 1281 3584 2069 3584 
Q 2775 3584 3186 3129 
Q 3597 2675 3597 1894 
z
M 3022 2063 
Q 3016 2534 2758 2815 
Q 2500 3097 2075 3097 
Q 1594 3097 1305 2825 
Q 1016 2553 972 2059 
L 3022 2063 
z
" transform="scale(0.015625)"/>
      </defs>
      <use xlink:href="#DejaVuSans-74"/>
      <use xlink:href="#DejaVuSans-69" x="39.208984"/>
      <use xlink:href="#DejaVuSans-6d" x="66.992188"/>
      <use xlink:href="#DejaVuSans-65" x="164.404297"/>
     </g>
    </g>
   </g>
   <g id="matplotlib.axis_2">
    <g id="ytick_1">
     <g id="line2d_11">
      <defs>
       <path id="m319b1ee4ba" d="M 0 0 
L -3.5 0 
" style="stroke: #000000; stroke-width: 0.8"/>
      </defs>
      <g>
       <use xlink:href="#m319b1ee4ba" x="54.02" y="115.229921" style="stroke: #000000; stroke-width: 0.8"/>
      </g>
     </g>
     <g id="text_2">
      <!-- 0.0 -->
      <g transform="translate(31.116875 119.02914) scale(0.1 -0.1)">
       <defs>
        <path id="DejaVuSans-30" d="M 2034 4250 
Q 1547 4250 1301 3770 
Q 1056 3291 1056 2328 
Q 1056 1369 1301 889 
Q 1547 409 2034 409 
Q 2525 409 2770 889 
Q 3016 1369 3016 2328 
Q 3016 3291 2770 3770 
Q 2525 4250 2034 4250 
z
M 2034 4750 
Q 2819 4750 3233 4129 
Q 3647 3509 3647 2328 
Q 3647 1150 3233 529 
Q 2819 -91 2034 -91 
Q 1250 -91 836 529 
Q 422 1150 422 2328 
Q 422 3509 836 4129 
Q 1250 4750 2034 4750 
z
" transform="scale(0.015625)"/>
        <path id="DejaVuSans-2e" d="M 684 794 
L 1344 794 
L 1344 0 
L 684 0 
L 684 794 
z
" transform="scale(0.015625)"/>
       </defs>
       <use xlink:href="#DejaVuSans-30"/>
       <use xlink:href="#DejaVuSans-2e" x="63.623047"/>
       <use xlink:href="#DejaVuSans-30" x="95.410156"/>
      </g>
     </g>
    </g>
    <g id="ytick_2">
     <g id="line2d_12">
      <g>
       <use xlink:href="#m319b1ee4ba" x="54.02" y="70.771108" style="stroke: #000000; stroke-width: 0.8"/>
      </g>
     </g>
     <g id="text_3">
      <!-- 0.2 -->
      <g transform="translate(31.116875 74.570327) scale(0.1 -0.1)">
       <defs>
        <path id="DejaVuSans-32" d="M 1228 531 
L 3431 531 
L 3431 0 
L 469 0 
L 469 531 
Q 828 903 1448 1529 
Q 2069 2156 2228 2338 
Q 2531 2678 2651 2914 
Q 2772 3150 2772 3378 
Q 2772 3750 2511 3984 
Q 2250 4219 1831 4219 
Q 1534 4219 1204 4116 
Q 875 4013 500 3803 
L 500 4441 
Q 881 4594 1212 4672 
Q 1544 4750 1819 4750 
Q 2544 4750 2975 4387 
Q 3406 4025 3406 3419 
Q 3406 3131 3298 2873 
Q 3191 2616 2906 2266 
Q 2828 2175 2409 1742 
Q 1991 1309 1228 531 
z
" transform="scale(0.015625)"/>
       </defs>
       <use xlink:href="#DejaVuSans-30"/>
       <use xlink:href="#DejaVuSans-2e" x="63.623047"/>
       <use xlink:href="#DejaVuSans-32" x="95.410156"/>
      </g>
     </g>
    </g>
    <g id="text_4">
     <!-- flow (cms) -->
     <g transform="translate(25.037188 99.17103) rotate(-90) scale(0.1 -0.1)">
      <defs>
       <path id="DejaVuSans-66" d="M 2375 4863 
L 2375 4384 
L 1825 4384 
Q 1516 4384 1395 4259 
Q 1275 4134 1275 3809 
L 1275 3500 
L 2222 3500 
L 2222 3053 
L 1275 3053 
L 1275 0 
L 697 0 
L 697 3053 
L 147 3053 
L 147 3500 
L 697 3500 
L 697 3744 
Q 697 4328 969 4595 
Q 1241 4863 1831 4863 
L 2375 4863 
z
" transform="scale(0.015625)"/>
       <path id="DejaVuSans-6c" d="M 603 4863 
L 1178 4863 
L 1178 0 
L 603 0 
L 603 4863 
z
" transform="scale(0.015625)"/>
       <path id="DejaVuSans-6f" d="M 1959 3097 
Q 1497 3097 1228 2736 
Q 959 2375 959 1747 
Q 959 1119 1226 758 
Q 1494 397 1959 397 
Q 2419 397 2687 759 
Q 2956 1122 2956 1747 
Q 2956 2369 2687 2733 
Q 2419 3097 1959 3097 
z
M 1959 3584 
Q 2709 3584 3137 3096 
Q 3566 2609 3566 1747 
Q 3566 888 3137 398 
Q 2709 -91 1959 -91 
Q 1206 -91 779 398 
Q 353 888 353 1747 
Q 353 2609 779 3096 
Q 1206 3584 1959 3584 
z
" transform="scale(0.015625)"/>
       <path id="DejaVuSans-77" d="M 269 3500 
L 844 3500 
L 1563 769 
L 2278 3500 
L 2956 3500 
L 3675 769 
L 4391 3500 
L 4966 3500 
L 4050 0 
L 3372 0 
L 2619 2869 
L 1863 0 
L 1184 0 
L 269 3500 
z
" transform="scale(0.015625)"/>
       <path id="DejaVuSans-20" transform="scale(0.015625)"/>
       <path id="DejaVuSans-28" d="M 1984 4856 
Q 1566 4138 1362 3434 
Q 1159 2731 1159 2009 
Q 1159 1288 1364 580 
Q 1569 -128 1984 -844 
L 1484 -844 
Q 1016 -109 783 600 
Q 550 1309 550 2009 
Q 550 2706 781 3412 
Q 1013 4119 1484 4856 
L 1984 4856 
z
" transform="scale(0.015625)"/>
       <path id="DejaVuSans-63" d="M 3122 3366 
L 3122 2828 
Q 2878 2963 2633 3030 
Q 2388 3097 2138 3097 
Q 1578 3097 1268 2742 
Q 959 2388 959 1747 
Q 959 1106 1268 751 
Q 1578 397 2138 397 
Q 2388 397 2633 464 
Q 2878 531 3122 666 
L 3122 134 
Q 2881 22 2623 -34 
Q 2366 -91 2075 -91 
Q 1284 -91 818 406 
Q 353 903 353 1747 
Q 353 2603 823 3093 
Q 1294 3584 2113 3584 
Q 2378 3584 2631 3529 
Q 2884 3475 3122 3366 
z
" transform="scale(0.015625)"/>
       <path id="DejaVuSans-73" d="M 2834 3397 
L 2834 2853 
Q 2591 2978 2328 3040 
Q 2066 3103 1784 3103 
Q 1356 3103 1142 2972 
Q 928 2841 928 2578 
Q 928 2378 1081 2264 
Q 1234 2150 1697 2047 
L 1894 2003 
Q 2506 1872 2764 1633 
Q 3022 1394 3022 966 
Q 3022 478 2636 193 
Q 2250 -91 1575 -91 
Q 1294 -91 989 -36 
Q 684 19 347 128 
L 347 722 
Q 666 556 975 473 
Q 1284 391 1588 391 
Q 1994 391 2212 530 
Q 2431 669 2431 922 
Q 2431 1156 2273 1281 
Q 2116 1406 1581 1522 
L 1381 1569 
Q 847 1681 609 1914 
Q 372 2147 372 2553 
Q 372 3047 722 3315 
Q 1072 3584 1716 3584 
Q 2034 3584 2315 3537 
Q 2597 3491 2834 3397 
z
" transform="scale(0.015625)"/>
       <path id="DejaVuSans-29" d="M 513 4856 
L 1013 4856 
Q 1481 4119 1714 3412 
Q 1947 2706 1947 2009 
Q 1947 1309 1714 600 
Q 1481 -109 1013 -844 
L 513 -844 
Q 928 -128 1133 580 
Q 1338 1288 1338 2009 
Q 1338 2731 1133 3434 
Q 928 4138 513 4856 
z
" transform="scale(0.015625)"/>
      </defs>
      <use xlink:href="#DejaVuSans-66"/>
      <use xlink:href="#DejaVuSans-6c" x="35.205078"/>
      <use xlink:href="#DejaVuSans-6f" x="62.988281"/>
      <use xlink:href="#DejaVuSans-77" x="124.169922"/>
      <use xlink:href="#DejaVuSans-20" x="205.957031"/>
      <use xlink:href="#DejaVuSans-28" x="237.744141"/>
      <use xlink:href="#DejaVuSans-63" x="276.757812"/>
      <use xlink:href="#DejaVuSans-6d" x="331.738281"/>
      <use xlink:href="#DejaVuSans-73" x="429.150391"/>
      <use xlink:href="#DejaVuSans-29" x="481.25"/>
     </g>
    </g>
   </g>
   <g id="line2d_13">
    <path d="M 67.330632 115.229921 
L 76.888649 115.146949 
L 77.628465 114.919326 
L 78.368281 114.479586 
L 79.64652 113.317089 
L 79.977382 112.730032 
L 80.861051 111.515775 
L 80.998739 111.761296 
L 81.26795 110.888009 
L 82.58729 108.821849 
L 83.189418 107.398997 
L 83.333271 107.001673 
L 83.616867 107.6834 
L 83.900464 106.594963 
L 84.17584 106.507066 
L 84.578629 104.806604 
L 84.708097 100.592427 
L 84.833454 103.996042 
L 85.388317 101.447714 
L 85.53628 101.479876 
L 85.97606 99.742573 
L 86.117858 99.69664 
L 86.401454 98.466797 
L 86.541197 94.963715 
L 86.67683 96.035842 
L 87.079619 94.8359 
L 87.34472 96.624424 
L 87.609821 95.386521 
L 87.741344 88.837462 
L 87.866701 92.601298 
L 88.24483 91.463409 
L 88.516096 84.368638 
L 88.943545 86.879629 
L 89.087398 93.118262 
L 89.527178 90.480426 
L 89.673086 91.581022 
L 89.81694 91.516783 
L 90.104646 89.633828 
L 90.246444 83.825569 
L 90.384132 86.463996 
L 90.661563 85.118148 
L 90.799251 83.290377 
L 90.934884 73.760346 
L 91.325343 75.966835 
L 91.454811 81.15278 
L 91.586334 75.672424 
L 91.843214 76.002589 
L 91.970627 75.967266 
L 92.100095 84.726978 
L 92.231618 84.783964 
L 92.626187 80.675356 
L 92.885122 76.147763 
L 93.137893 74.896728 
L 93.265306 75.417844 
L 93.390664 62.361939 
L 93.820168 66.17034 
L 93.945526 76.315365 
L 94.070884 65.563864 
L 94.352425 66.401414 
L 94.492168 72.033517 
L 94.636021 64.711377 
L 94.917562 65.296516 
L 95.057305 65.396355 
L 95.342957 79.042035 
L 95.468315 77.070832 
L 95.595727 75.285295 
L 95.721085 68.610312 
L 95.864938 71.091396 
L 96.292388 67.455239 
L 96.432131 66.368522 
L 96.573929 61.394084 
L 96.85136 61.416767 
L 96.989048 63.275091 
L 97.128791 67.545517 
L 97.548021 64.415603 
L 97.687764 58.650588 
L 97.95903 59.014673 
L 98.094663 59.000607 
L 98.228241 52.186327 
L 98.361819 60.46853 
L 98.772828 59.358712 
L 99.046149 42.131022 
L 99.177672 45.404316 
L 99.309194 47.947091 
L 99.442772 65.383903 
L 99.578405 48.042727 
L 99.845561 51.869524 
L 99.979139 52.719471 
L 100.114772 66.812955 
L 100.527836 61.828426 
L 100.665524 54.842049 
L 100.803213 60.106044 
L 101.212167 57.543888 
L 101.3478 59.897494 
L 101.619066 55.904196 
L 101.752644 55.365886 
L 101.888277 56.055611 
L 102.157487 54.220246 
L 102.422588 53.487047 
L 102.556166 58.39734 
L 102.689744 52.932387 
L 103.088423 52.050628 
L 103.219946 44.835637 
L 103.353524 51.331804 
L 103.618625 50.953266 
L 103.750148 51.039159 
L 103.883726 55.688414 
L 104.28446 52.805032 
L 104.547505 42.439633 
L 104.676973 43.642285 
L 104.935909 45.205617 
L 105.067432 42.117476 
L 105.198955 54.744503 
L 105.464056 52.455144 
L 105.597634 37.865169 
L 105.727101 46.772789 
L 105.858624 46.928888 
L 106.119615 46.734136 
L 106.251138 47.824202 
L 106.382661 40.324376 
L 106.771065 42.748362 
L 106.902587 45.471574 
L 107.03411 44.541285 
L 107.295101 44.530422 
L 107.426624 46.223472 
L 107.558147 54.051108 
L 107.956826 49.312784 
L 108.088349 43.690721 
L 108.219872 47.747298 
L 108.612385 45.535189 
L 108.871321 41.68254 
L 109.259725 41.683974 
L 109.389192 40.539367 
L 109.648128 40.800807 
L 109.777596 40.789715 
L 109.907064 34.353392 
L 110.166 38.27845 
L 110.42288 38.813432 
L 110.681816 47.051482 
L 111.07022 43.639648 
L 111.3271 34.505389 
L 111.709339 36.083729 
L 111.964164 39.675597 
L 112.221045 39.315071 
L 112.348458 39.263512 
L 112.477926 39.591398 
L 112.605339 40.503065 
L 112.862219 40.350435 
L 112.991687 38.34893 
L 113.121155 41.887209 
L 113.250623 41.400824 
L 113.507504 41.355481 
L 113.636971 40.754134 
L 113.766439 42.475465 
L 114.154843 42.349651 
L 114.284311 41.188728 
L 114.411724 31.679897 
L 114.91932 40.863795 
L 115.046733 47.429331 
L 115.307723 46.161402 
L 115.437191 45.970008 
L 115.566659 47.038061 
L 115.696127 46.840246 
L 115.957118 45.924177 
L 116.086586 34.926733 
L 116.216053 43.618491 
L 116.474989 44.000675 
L 116.604457 44.056265 
L 116.733925 43.236045 
L 116.861338 36.954027 
L 117.245631 40.533553 
L 117.375099 52.921625 
L 117.504567 52.364822 
L 117.897081 49.142425 
L 118.026549 45.391057 
L 118.156016 46.966508 
L 118.414952 46.268659 
L 118.54442 39.821065 
L 118.673888 46.722539 
L 118.932824 45.828794 
L 119.062291 45.645727 
L 119.191759 45.102244 
L 119.319172 38.374503 
L 119.703466 41.851328 
L 119.962401 51.455527 
L 120.093924 50.972649 
L 120.35697 50.217743 
L 120.615906 42.503737 
L 120.874842 45.026768 
L 121.133777 52.603298 
L 121.396823 52.06163 
L 121.528346 52.025519 
L 121.659869 50.394438 
L 121.791392 46.077314 
L 122.18185 49.035085 
L 122.313373 54.624995 
L 122.578474 54.400105 
L 122.709997 54.386885 
L 122.975098 55.806096 
L 123.240199 55.567416 
L 123.371722 55.551918 
L 123.5053 48.035072 
L 123.634768 31.087139 
L 123.889593 41.907464 
L 124.019061 45.105434 
L 124.148529 61.492262 
L 124.284162 64.034542 
L 124.691061 61.043143 
L 124.824639 61.530613 
L 124.958217 61.362048 
L 125.227428 60.301291 
L 125.361006 53.682336 
L 125.492529 57.466244 
L 125.893263 57.974859 
L 126.024785 61.059052 
L 126.158363 59.582115 
L 126.425519 59.467597 
L 126.559097 50.468656 
L 126.69062 58.286715 
L 127.093409 59.504158 
L 127.226987 58.570753 
L 127.360565 55.127019 
L 127.759244 58.992225 
L 127.894877 68.85477 
L 128.03051 69.39798 
L 128.305886 68.259071 
L 128.579207 46.855054 
L 129.245042 71.904587 
L 129.522473 71.06949 
L 129.660161 68.076038 
L 130.07117 69.252214 
L 130.208858 69.584503 
L 130.346546 71.792402 
L 130.486289 76.391293 
L 130.765775 75.19395 
L 130.905518 69.60401 
L 131.045261 76.851493 
L 131.464491 75.631541 
L 131.604234 65.305961 
L 132.013188 69.366851 
L 132.150876 75.224203 
L 132.290619 76.171822 
L 132.570105 76.100544 
L 132.709848 70.354664 
L 132.849591 77.15539 
L 132.989334 78.057128 
L 133.272931 77.815924 
L 133.412674 74.597039 
L 133.554472 77.170114 
L 133.836013 77.452231 
L 134.115499 64.069064 
L 134.524453 71.794842 
L 134.664197 81.543008 
L 134.80394 73.730143 
L 135.083426 76.086436 
L 135.223169 81.39687 
L 135.364967 77.354903 
L 135.646508 78.82791 
L 135.93216 85.533047 
L 136.217811 84.318948 
L 136.361664 84.00553 
L 136.505517 82.494806 
L 136.647315 77.451248 
L 136.928857 79.452998 
L 137.070655 83.065663 
L 137.196013 89.492056 
L 137.572086 87.57542 
L 137.841297 77.742906 
L 138.122838 80.190134 
L 138.408489 89.298068 
L 138.554398 88.648807 
L 138.825664 87.841693 
L 138.969517 83.700893 
L 139.094875 85.54035 
L 139.382581 85.778651 
L 139.526434 80.555542 
L 139.668232 80.441456 
L 140.099792 83.651458 
L 140.243645 93.582605 
L 140.625883 91.614623 
L 140.876599 80.886252 
L 141.306103 84.482503 
L 141.575314 91.658121 
L 141.83014 91.016426 
L 141.955498 91.129914 
L 142.082911 84.340153 
L 142.226764 84.323328 
L 142.516525 86.134811 
L 142.641883 90.776255 
L 142.767241 88.162871 
L 143.143314 88.959543 
L 143.268672 93.813142 
L 143.396085 91.769145 
L 143.776268 91.395753 
L 143.903681 88.869179 
L 144.029039 94.73485 
L 144.415387 93.655646 
L 144.5428 88.345048 
L 144.670213 87.670974 
L 144.939424 88.929256 
L 145.190139 94.350479 
L 145.576488 93.721689 
L 145.703901 92.422443 
L 145.831314 89.928771 
L 146.084084 90.921823 
L 146.211497 91.209191 
L 146.464268 88.385838 
L 146.842396 90.439701 
L 146.969809 96.525822 
L 147.099277 90.828004 
L 147.47946 92.009654 
L 147.606873 97.740636 
L 147.736341 94.950018 
L 147.995276 94.761376 
L 148.124744 95.369603 
L 148.381625 91.974762 
L 148.636451 92.748985 
L 148.763863 94.683845 
L 148.893331 94.581816 
L 149.277625 94.816119 
L 149.405038 96.293076 
L 149.53245 92.753602 
L 149.916744 93.918525 
L 150.044157 98.828818 
L 150.173625 96.399088 
L 150.43256 96.240263 
L 150.564083 96.221128 
L 150.693551 97.864045 
L 150.825074 94.076024 
L 151.08401 94.71072 
L 151.476523 96.346909 
L 151.739569 96.473859 
L 152.00056 99.368256 
L 152.263606 98.727093 
L 152.395129 98.547218 
L 152.526652 99.831075 
L 152.658175 98.686007 
L 152.919165 98.422231 
L 153.050688 97.155462 
L 153.311679 93.956954 
L 153.56856 95.067914 
L 153.698028 99.862274 
L 153.827495 95.343083 
L 154.217954 96.573377 
L 154.349477 97.029346 
L 154.483055 102.307304 
L 154.883789 101.166246 
L 155.017367 99.190308 
L 155.14889 99.685655 
L 155.416046 99.534352 
L 155.549623 96.059307 
L 155.683201 100.226624 
L 155.948302 99.867667 
L 156.083935 99.812505 
L 156.349036 95.627721 
L 156.74155 97.180655 
L 157.008706 100.435945 
L 157.277917 100.339133 
L 157.411495 100.487034 
L 157.545073 100.960707 
L 157.947862 100.812365 
L 158.212962 97.256156 
L 158.473953 98.151487 
L 158.736999 100.507541 
L 158.870577 101.349512 
L 159.273366 101.245223 
L 159.408999 99.008364 
L 159.809733 99.842754 
L 159.943311 104.387254 
L 160.218687 103.587099 
L 160.356375 103.368193 
L 160.633806 98.478651 
L 160.900962 99.505788 
L 161.170173 100.426154 
L 161.303751 100.184914 
L 161.708595 100.903258 
L 161.846283 102.940797 
L 161.981916 102.988823 
L 162.255237 102.857683 
L 162.39087 102.475726 
L 162.528558 101.500014 
L 162.799824 101.78628 
L 163.0752 101.330686 
L 163.632117 102.432247 
L 163.77186 102.149198 
L 164.053402 102.422691 
L 164.334943 106.556269 
L 164.768557 104.997327 
L 164.914466 101.616129 
L 165.33575 102.35418 
L 165.477548 104.163834 
L 165.619346 102.345902 
L 165.902942 102.768117 
L 166.046796 104.69787 
L 166.190649 102.720574 
L 166.478355 103.224927 
L 167.205841 103.81168 
L 167.477107 106.321839 
L 167.60452 106.164001 
L 167.733988 106.020724 
L 167.861401 105.204375 
L 167.990869 105.734373 
L 168.247749 105.326014 
L 168.377217 105.286139 
L 168.506685 105.675397 
L 168.638208 102.50228 
L 168.897144 103.309704 
L 169.026612 103.548584 
L 169.287602 107.487656 
L 169.696556 106.900363 
L 169.832189 104.3597 
L 170.234978 104.70779 
L 170.368556 105.993315 
L 170.504189 104.599158 
L 170.77751 104.9705 
L 170.913143 105.075409 
L 171.186464 104.177938 
L 171.597473 104.712862 
L 172.150281 105.339426 
L 172.290024 107.686968 
L 172.721583 107.311535 
L 172.865436 106.843913 
L 173.00929 105.514818 
L 173.424409 105.740898 
L 173.564152 107.383689 
L 173.853913 107.165948 
L 174.001877 107.134723 
L 174.147785 105.845158 
L 174.291638 105.641337 
L 174.579344 105.982306 
L 174.725253 106.988671 
L 174.873216 106.128716 
L 175.165032 106.396564 
L 175.460959 108.704857 
L 175.613032 108.575795 
L 175.765106 108.459204 
L 175.917179 106.3521 
L 176.067197 108.260713 
L 176.369289 108.008354 
L 176.521362 106.206082 
L 176.671381 107.211834 
L 176.971417 107.27799 
L 177.123491 107.048294 
L 177.273509 107.4506 
L 177.575601 107.486044 
L 177.727674 107.872973 
L 177.879747 106.744825 
L 178.333912 107.238396 
L 178.488041 109.901835 
L 178.868224 109.521586 
L 178.995637 108.957905 
L 179.120995 106.461711 
L 179.427197 107.112265 
L 179.581325 107.301271 
L 179.735453 109.340959 
L 179.988224 109.180474 
L 180.115637 109.138887 
L 180.24305 108.215137 
L 180.370462 108.855271 
L 180.623233 108.755332 
L 180.750646 108.765095 
L 180.878059 107.165309 
L 181.003416 109.326582 
L 181.260297 109.162878 
L 181.38771 109.151477 
L 181.515123 107.281392 
L 181.893251 107.89704 
L 182.018609 108.035412 
L 182.143967 109.076913 
L 182.530315 109.141215 
L 182.659783 109.348351 
L 182.920774 108.384286 
L 183.305067 108.685539 
L 183.434535 109.736373 
L 183.831159 109.664979 
L 184.094205 108.80356 
L 184.486719 109.067497 
L 184.618241 110.039626 
L 184.749764 109.803299 
L 185.01692 109.838829 
L 185.150498 109.690528 
L 185.286131 109.134911 
L 185.551232 109.384019 
L 186.217067 109.711496 
L 186.486278 110.123177 
L 186.621911 109.832561 
L 186.893177 109.923961 
L 187.02881 110.197017 
L 187.164443 109.943076 
L 187.70903 110.214996 
L 188.259782 110.333719 
L 188.814644 110.478564 
L 188.952332 110.690121 
L 189.092075 110.522035 
L 189.934644 110.723905 
L 190.074387 110.888101 
L 190.216185 111.667637 
L 190.651855 111.521762 
L 190.795708 111.11822 
L 190.939561 111.306472 
L 191.227268 111.30865 
L 191.371121 110.533184 
L 191.514974 111.66932 
L 191.80679 111.567108 
L 192.096552 110.659769 
L 192.382203 110.816392 
L 192.66991 111.114248 
L 192.959671 111.273362 
L 193.105579 111.309727 
L 193.253542 112.161294 
L 193.401506 111.665744 
L 193.847451 111.60453 
L 193.993359 111.154084 
L 194.281065 111.294866 
L 194.572882 112.380803 
L 194.877028 112.278282 
L 195.031157 111.94043 
L 195.181175 111.293729 
L 195.479157 111.438871 
L 195.629175 111.730439 
L 195.779193 111.493888 
L 196.231303 111.72323 
L 196.687523 111.852782 
L 198.389101 112.258352 
L 198.545284 112.291403 
L 198.703523 112.458798 
L 198.861761 112.28314 
L 199.338532 112.526858 
L 199.498826 113.199262 
L 199.992036 112.955479 
L 200.15644 112.290543 
L 200.477027 112.442561 
L 200.639376 112.838111 
L 200.799669 112.50922 
L 201.124367 112.603766 
L 201.286715 113.18856 
L 201.703889 113.231488 
L 201.829247 112.903564 
L 202.330678 112.965149 
L 202.456036 112.719376 
L 202.622495 113.426826 
L 203.006788 113.284744 
L 203.134201 112.667782 
L 204.22543 113.00138 
L 204.352843 113.194136 
L 204.480256 113.042773 
L 204.864549 113.237431 
L 204.991962 113.670631 
L 205.390641 113.666938 
L 205.524219 113.274937 
L 205.657797 113.492817 
L 206.054421 113.500628 
L 206.185943 113.314022 
L 206.319521 113.806322 
L 206.724365 113.611006 
L 206.859998 113.187487 
L 207.256622 113.337695 
L 207.924512 113.496479 
L 208.197833 113.946743 
L 208.477319 113.943838 
L 208.617062 113.607272 
L 208.756805 113.909055 
L 209.176035 113.816115 
L 209.315778 113.569834 
L 210.008328 113.740649 
L 211.136548 113.989041 
L 211.424254 114.100844 
L 211.716071 114.03566 
L 212.009942 114.009727 
L 216.615299 114.591939 
L 216.942051 114.55627 
L 217.928473 114.521605 
L 218.421684 114.530617 
L 218.588143 114.612446 
L 218.919005 114.579679 
L 222.579041 114.830452 
L 227.749535 115.032962 
L 237.737056 115.114524 
L 291.373743 115.185107 
L 333.543275 115.201812 
L 333.543275 115.201812 
" clip-path="url(#p59af2312f5)" style="fill: none; stroke: #1f77b4; stroke-width: 1.5; stroke-linecap: square"/>
   </g>
   <g id="patch_3">
    <path d="M 54.02 119.437061 
L 54.02 26.88 
" style="fill: none; stroke: #000000; stroke-width: 0.8; stroke-linejoin: miter; stroke-linecap: square"/>
   </g>
   <g id="patch_4">
    <path d="M 346.853908 119.437061 
L 346.853908 26.88 
" style="fill: none; stroke: #000000; stroke-width: 0.8; stroke-linejoin: miter; stroke-linecap: square"/>
   </g>
   <g id="patch_5">
    <path d="M 54.02 119.437061 
L 346.853908 119.437061 
" style="fill: none; stroke: #000000; stroke-width: 0.8; stroke-linejoin: miter; stroke-linecap: square"/>
   </g>
   <g id="patch_6">
    <path d="M 54.02 26.88 
L 346.853908 26.88 
" style="fill: none; stroke: #000000; stroke-width: 0.8; stroke-linejoin: miter; stroke-linecap: square"/>
   </g>
   <g id="text_5">
    <!-- 1 -->
    <g transform="translate(194.939754 50.159612) scale(0.1728 -0.1728)">
     <defs>
      <path id="DejaVuSans-31" d="M 794 531 
L 1825 531 
L 1825 4091 
L 703 3866 
L 703 4441 
L 1819 4666 
L 2450 4666 
L 2450 531 
L 3481 531 
L 3481 0 
L 794 0 
L 794 531 
z
" transform="scale(0.015625)"/>
     </defs>
     <use xlink:href="#DejaVuSans-31"/>
    </g>
   </g>
   <g id="text_6">
    <!-- flows -->
    <g transform="translate(184.954141 20.88) scale(0.12 -0.12)">
     <use xlink:href="#DejaVuSans-66"/>
     <use xlink:href="#DejaVuSans-6c" x="35.205078"/>
     <use xlink:href="#DejaVuSans-6f" x="62.988281"/>
     <use xlink:href="#DejaVuSans-77" x="124.169922"/>
     <use xlink:href="#DejaVuSans-73" x="205.957031"/>
    </g>
   </g>
  </g>
  <g id="axes_2">
   <g id="patch_7">
    <path d="M 405.47 119.437061 
L 698.303908 119.437061 
L 698.303908 26.88 
L 405.47 26.88 
z
" style="fill: #ffffff"/>
   </g>
   <g id="matplotlib.axis_3">
    <g id="xtick_11">
     <g id="line2d_14">
      <g>
       <use xlink:href="#mb4690c8801" x="418.780632" y="119.437061" style="stroke: #000000; stroke-width: 0.8"/>
      </g>
     </g>
    </g>
    <g id="xtick_12">
     <g id="line2d_15">
      <g>
       <use xlink:href="#mb4690c8801" x="448.373287" y="119.437061" style="stroke: #000000; stroke-width: 0.8"/>
      </g>
     </g>
    </g>
    <g id="xtick_13">
     <g id="line2d_16">
      <g>
       <use xlink:href="#mb4690c8801" x="477.965941" y="119.437061" style="stroke: #000000; stroke-width: 0.8"/>
      </g>
     </g>
    </g>
    <g id="xtick_14">
     <g id="line2d_17">
      <g>
       <use xlink:href="#mb4690c8801" x="507.558596" y="119.437061" style="stroke: #000000; stroke-width: 0.8"/>
      </g>
     </g>
    </g>
    <g id="xtick_15">
     <g id="line2d_18">
      <g>
       <use xlink:href="#mb4690c8801" x="537.15125" y="119.437061" style="stroke: #000000; stroke-width: 0.8"/>
      </g>
     </g>
    </g>
    <g id="xtick_16">
     <g id="line2d_19">
      <g>
       <use xlink:href="#mb4690c8801" x="566.743905" y="119.437061" style="stroke: #000000; stroke-width: 0.8"/>
      </g>
     </g>
    </g>
    <g id="xtick_17">
     <g id="line2d_20">
      <g>
       <use xlink:href="#mb4690c8801" x="596.33656" y="119.437061" style="stroke: #000000; stroke-width: 0.8"/>
      </g>
     </g>
    </g>
    <g id="xtick_18">
     <g id="line2d_21">
      <g>
       <use xlink:href="#mb4690c8801" x="625.929214" y="119.437061" style="stroke: #000000; stroke-width: 0.8"/>
      </g>
     </g>
    </g>
    <g id="xtick_19">
     <g id="line2d_22">
      <g>
       <use xlink:href="#mb4690c8801" x="655.521869" y="119.437061" style="stroke: #000000; stroke-width: 0.8"/>
      </g>
     </g>
    </g>
    <g id="xtick_20">
     <g id="line2d_23">
      <g>
       <use xlink:href="#mb4690c8801" x="685.114523" y="119.437061" style="stroke: #000000; stroke-width: 0.8"/>
      </g>
     </g>
    </g>
    <g id="text_7">
     <!-- time -->
     <g transform="translate(540.59086 138.035498) scale(0.1 -0.1)">
      <use xlink:href="#DejaVuSans-74"/>
      <use xlink:href="#DejaVuSans-69" x="39.208984"/>
      <use xlink:href="#DejaVuSans-6d" x="66.992188"/>
      <use xlink:href="#DejaVuSans-65" x="164.404297"/>
     </g>
    </g>
   </g>
   <g id="matplotlib.axis_4">
    <g id="ytick_3">
     <g id="line2d_24">
      <g>
       <use xlink:href="#m319b1ee4ba" x="405.47" y="115.229921" style="stroke: #000000; stroke-width: 0.8"/>
      </g>
     </g>
     <g id="text_8">
      <!-- 0.00 -->
      <g transform="translate(376.204375 119.02914) scale(0.1 -0.1)">
       <use xlink:href="#DejaVuSans-30"/>
       <use xlink:href="#DejaVuSans-2e" x="63.623047"/>
       <use xlink:href="#DejaVuSans-30" x="95.410156"/>
       <use xlink:href="#DejaVuSans-30" x="159.033203"/>
      </g>
     </g>
    </g>
    <g id="ytick_4">
     <g id="line2d_25">
      <g>
       <use xlink:href="#m319b1ee4ba" x="405.47" y="89.941259" style="stroke: #000000; stroke-width: 0.8"/>
      </g>
     </g>
     <g id="text_9">
      <!-- 0.05 -->
      <g transform="translate(376.204375 93.740478) scale(0.1 -0.1)">
       <defs>
        <path id="DejaVuSans-35" d="M 691 4666 
L 3169 4666 
L 3169 4134 
L 1269 4134 
L 1269 2991 
Q 1406 3038 1543 3061 
Q 1681 3084 1819 3084 
Q 2600 3084 3056 2656 
Q 3513 2228 3513 1497 
Q 3513 744 3044 326 
Q 2575 -91 1722 -91 
Q 1428 -91 1123 -41 
Q 819 9 494 109 
L 494 744 
Q 775 591 1075 516 
Q 1375 441 1709 441 
Q 2250 441 2565 725 
Q 2881 1009 2881 1497 
Q 2881 1984 2565 2268 
Q 2250 2553 1709 2553 
Q 1456 2553 1204 2497 
Q 953 2441 691 2322 
L 691 4666 
z
" transform="scale(0.015625)"/>
       </defs>
       <use xlink:href="#DejaVuSans-30"/>
       <use xlink:href="#DejaVuSans-2e" x="63.623047"/>
       <use xlink:href="#DejaVuSans-30" x="95.410156"/>
       <use xlink:href="#DejaVuSans-35" x="159.033203"/>
      </g>
     </g>
    </g>
    <g id="ytick_5">
     <g id="line2d_26">
      <g>
       <use xlink:href="#m319b1ee4ba" x="405.47" y="64.652596" style="stroke: #000000; stroke-width: 0.8"/>
      </g>
     </g>
     <g id="text_10">
      <!-- 0.10 -->
      <g transform="translate(376.204375 68.451815) scale(0.1 -0.1)">
       <use xlink:href="#DejaVuSans-30"/>
       <use xlink:href="#DejaVuSans-2e" x="63.623047"/>
       <use xlink:href="#DejaVuSans-31" x="95.410156"/>
       <use xlink:href="#DejaVuSans-30" x="159.033203"/>
      </g>
     </g>
    </g>
    <g id="ytick_6">
     <g id="line2d_27">
      <g>
       <use xlink:href="#m319b1ee4ba" x="405.47" y="39.363934" style="stroke: #000000; stroke-width: 0.8"/>
      </g>
     </g>
     <g id="text_11">
      <!-- 0.15 -->
      <g transform="translate(376.204375 43.163153) scale(0.1 -0.1)">
       <use xlink:href="#DejaVuSans-30"/>
       <use xlink:href="#DejaVuSans-2e" x="63.623047"/>
       <use xlink:href="#DejaVuSans-31" x="95.410156"/>
       <use xlink:href="#DejaVuSans-35" x="159.033203"/>
      </g>
     </g>
    </g>
    <g id="text_12">
     <!-- depth (m) -->
     <g transform="translate(370.124688 98.073374) rotate(-90) scale(0.1 -0.1)">
      <defs>
       <path id="DejaVuSans-64" d="M 2906 2969 
L 2906 4863 
L 3481 4863 
L 3481 0 
L 2906 0 
L 2906 525 
Q 2725 213 2448 61 
Q 2172 -91 1784 -91 
Q 1150 -91 751 415 
Q 353 922 353 1747 
Q 353 2572 751 3078 
Q 1150 3584 1784 3584 
Q 2172 3584 2448 3432 
Q 2725 3281 2906 2969 
z
M 947 1747 
Q 947 1113 1208 752 
Q 1469 391 1925 391 
Q 2381 391 2643 752 
Q 2906 1113 2906 1747 
Q 2906 2381 2643 2742 
Q 2381 3103 1925 3103 
Q 1469 3103 1208 2742 
Q 947 2381 947 1747 
z
" transform="scale(0.015625)"/>
       <path id="DejaVuSans-70" d="M 1159 525 
L 1159 -1331 
L 581 -1331 
L 581 3500 
L 1159 3500 
L 1159 2969 
Q 1341 3281 1617 3432 
Q 1894 3584 2278 3584 
Q 2916 3584 3314 3078 
Q 3713 2572 3713 1747 
Q 3713 922 3314 415 
Q 2916 -91 2278 -91 
Q 1894 -91 1617 61 
Q 1341 213 1159 525 
z
M 3116 1747 
Q 3116 2381 2855 2742 
Q 2594 3103 2138 3103 
Q 1681 3103 1420 2742 
Q 1159 2381 1159 1747 
Q 1159 1113 1420 752 
Q 1681 391 2138 391 
Q 2594 391 2855 752 
Q 3116 1113 3116 1747 
z
" transform="scale(0.015625)"/>
       <path id="DejaVuSans-68" d="M 3513 2113 
L 3513 0 
L 2938 0 
L 2938 2094 
Q 2938 2591 2744 2837 
Q 2550 3084 2163 3084 
Q 1697 3084 1428 2787 
Q 1159 2491 1159 1978 
L 1159 0 
L 581 0 
L 581 4863 
L 1159 4863 
L 1159 2956 
Q 1366 3272 1645 3428 
Q 1925 3584 2291 3584 
Q 2894 3584 3203 3211 
Q 3513 2838 3513 2113 
z
" transform="scale(0.015625)"/>
      </defs>
      <use xlink:href="#DejaVuSans-64"/>
      <use xlink:href="#DejaVuSans-65" x="63.476562"/>
      <use xlink:href="#DejaVuSans-70" x="125"/>
      <use xlink:href="#DejaVuSans-74" x="188.476562"/>
      <use xlink:href="#DejaVuSans-68" x="227.685547"/>
      <use xlink:href="#DejaVuSans-20" x="291.064453"/>
      <use xlink:href="#DejaVuSans-28" x="322.851562"/>
      <use xlink:href="#DejaVuSans-6d" x="361.865234"/>
      <use xlink:href="#DejaVuSans-29" x="459.277344"/>
     </g>
    </g>
   </g>
   <g id="line2d_28">
    <path d="M 418.780632 115.229921 
L 427.228924 115.131501 
L 427.783786 114.88011 
L 428.338649 114.408576 
L 429.078465 113.419366 
L 430.003235 111.685681 
L 431.265033 108.751337 
L 434.49351 101.171333 
L 435.066867 98.946026 
L 437.282206 87.811004 
L 437.42606 87.58082 
L 437.991197 84.940716 
L 438.529619 83.382733 
L 439.316701 80.107589 
L 439.820188 79.097887 
L 440.393545 80.701788 
L 441.410793 75.025536 
L 441.554646 74.037785 
L 441.696444 73.907866 
L 442.249251 71.359402 
L 442.384884 71.473397 
L 442.775343 73.132978 
L 442.904811 72.922385 
L 443.165802 73.058821 
L 443.420627 73.050109 
L 443.681618 70.633516 
L 444.205655 65.928428 
L 444.715306 63.77566 
L 444.840664 63.977349 
L 445.270168 66.404408 
L 445.395526 65.626222 
L 445.802425 66.502164 
L 445.942168 66.465659 
L 446.086021 65.3753 
L 446.367562 65.754324 
L 446.507305 65.805561 
L 446.647049 64.623044 
L 447.171085 57.456174 
L 447.314938 57.272409 
L 447.742388 54.403078 
L 447.882131 53.983045 
L 448.161617 54.074824 
L 448.439048 53.93595 
L 448.998021 50.275227 
L 449.137764 50.13683 
L 449.40903 50.219699 
L 449.544663 50.202296 
L 449.678241 50.448169 
L 449.947452 49.990107 
L 450.362571 49.271882 
L 450.759194 55.097167 
L 451.429139 57.822471 
L 451.70246 55.316971 
L 452.253213 50.860459 
L 452.662167 48.670371 
L 453.471854 46.066114 
L 454.538423 43.680216 
L 454.803524 43.474185 
L 455.200148 43.0159 
L 455.73446 40.217217 
L 455.865982 40.518581 
L 456.256441 42.835363 
L 456.385909 43.27432 
L 456.517432 43.02905 
L 456.914056 40.100644 
L 457.047634 40.000043 
L 457.177101 40.089815 
L 457.569615 39.892438 
L 457.701138 39.693151 
L 458.221065 41.774203 
L 458.352587 41.261654 
L 458.876624 41.128539 
L 459.008147 40.48237 
L 459.406826 37.185885 
L 460.062385 34.274592 
L 460.191853 34.790127 
L 460.580257 34.852339 
L 460.709725 34.8214 
L 460.839192 34.622584 
L 461.486532 34.80293 
L 461.87288 35.43873 
L 462.000293 35.193968 
L 462.52022 31.438069 
L 462.649688 31.087139 
L 463.159339 32.670857 
L 463.286752 32.647947 
L 463.671045 32.205665 
L 463.798458 32.178871 
L 463.927926 32.340566 
L 464.184806 32.14391 
L 464.312219 32.12315 
L 464.571155 32.229524 
L 464.957504 32.138883 
L 465.475375 32.324022 
L 465.734311 32.366598 
L 466.114494 36.516867 
L 466.36932 38.16349 
L 466.757723 36.661181 
L 467.407118 34.815607 
L 467.795521 35.294845 
L 468.054457 35.377466 
L 468.183925 35.638132 
L 468.695631 38.890306 
L 468.825099 38.640797 
L 469.217613 35.607435 
L 469.347081 34.916881 
L 469.476549 35.31832 
L 469.864952 34.453673 
L 469.99442 34.466524 
L 470.123888 34.609194 
L 470.641759 33.969034 
L 471.153466 37.455748 
L 471.282933 37.603861 
L 471.80697 36.218083 
L 472.065906 37.898955 
L 472.454309 40.261576 
L 472.583777 40.467361 
L 472.846823 40.251124 
L 473.109869 40.322692 
L 473.500328 43.350614 
L 473.763373 44.159495 
L 474.028474 44.002066 
L 474.821722 43.948015 
L 474.9553 44.221053 
L 475.469061 53.480827 
L 475.598529 53.255764 
L 476.005428 50.362074 
L 476.141061 49.771057 
L 476.274639 49.767173 
L 476.677428 48.36687 
L 476.811006 48.332665 
L 477.076107 48.773426 
L 477.343263 49.032528 
L 477.474785 49.456464 
L 477.875519 49.287316 
L 478.14062 49.851127 
L 478.676987 50.995696 
L 479.209244 54.735645 
L 479.344877 54.424233 
L 479.755886 52.753474 
L 479.893574 52.961072 
L 480.423776 61.138158 
L 480.557354 60.988181 
L 480.972473 59.7881 
L 481.110161 59.979691 
L 481.52117 60.89008 
L 481.658858 61.152979 
L 481.796546 61.792017 
L 482.215775 60.007115 
L 482.355518 59.872071 
L 482.914491 58.438658 
L 483.054234 59.131643 
L 483.463188 62.476445 
L 483.600876 62.857337 
L 483.880362 62.680477 
L 484.020105 62.689558 
L 484.159848 62.904327 
L 484.299591 63.6224 
L 484.581133 63.306315 
L 484.722931 63.235756 
L 485.286013 63.677025 
L 485.565499 65.603994 
L 485.974453 70.371555 
L 486.114197 70.609991 
L 486.533426 73.292899 
L 487.238306 74.919299 
L 487.811664 73.452097 
L 487.955517 73.367217 
L 488.378857 75.726001 
L 488.520655 76.13063 
L 489.022086 73.523002 
L 489.147444 73.505883 
L 489.714636 76.857895 
L 490.004398 75.967296 
L 490.275664 75.220374 
L 490.688728 75.566709 
L 490.832581 75.675607 
L 490.976434 75.969425 
L 491.549792 78.885471 
L 491.693645 78.445285 
L 492.075883 76.461643 
L 492.201241 76.296986 
L 492.756103 79.544025 
L 492.899957 79.60737 
L 493.405498 78.300111 
L 493.532911 78.5658 
L 493.966525 80.825681 
L 494.467956 81.705543 
L 494.718672 81.932061 
L 495.098855 81.504434 
L 495.226268 81.432765 
L 495.353681 81.633413 
L 495.865387 79.928415 
L 495.9928 80.068011 
L 496.389424 81.697318 
L 496.514782 81.965622 
L 496.89702 81.101909 
L 497.153901 80.820744 
L 497.408726 81.310383 
L 497.914268 82.736011 
L 498.292396 84.305401 
L 498.419809 84.198984 
L 498.92946 85.592746 
L 499.186341 85.242314 
L 499.702157 84.941544 
L 500.213863 86.191211 
L 500.343331 86.116318 
L 500.98245 86.335038 
L 501.366744 87.238964 
L 502.143551 87.026016 
L 502.665533 88.153838 
L 502.797056 88.045371 
L 503.321092 88.209066 
L 504.239697 86.827317 
L 504.500688 86.66931 
L 504.632211 86.75742 
L 505.01856 88.300824 
L 505.277495 88.678727 
L 505.799477 89.843218 
L 506.333789 88.171742 
L 506.467367 88.301842 
L 506.866046 88.014814 
L 507.133201 88.255825 
L 507.533935 88.014899 
L 507.667513 88.276759 
L 508.19155 90.214602 
L 508.325128 90.305147 
L 509.397862 89.655535 
L 509.531439 89.784385 
L 510.055476 91.397587 
L 510.589788 91.201267 
L 510.723366 91.150231 
L 511.259733 92.216231 
L 511.393311 92.099071 
L 511.806375 91.114972 
L 511.946118 91.060729 
L 513.158595 93.752836 
L 513.84087 93.559142 
L 514.387512 94.199898 
L 514.5252 94.24224 
L 514.942374 94.808301 
L 515.082117 94.846258 
L 515.503402 95.284434 
L 515.643145 95.229108 
L 515.928796 94.534139 
L 516.218557 93.842132 
L 516.78575 94.971923 
L 516.927548 95.026136 
L 517.496796 95.746889 
L 517.640649 95.780001 
L 518.218117 96.366041 
L 518.655841 96.752593 
L 518.927107 96.371688 
L 519.311401 95.839394 
L 519.827217 95.625129 
L 519.956685 95.564711 
L 520.088208 95.677639 
L 520.476612 96.510035 
L 520.606079 96.593959 
L 521.146556 95.55881 
L 522.636464 97.047485 
L 523.32285 98.132447 
L 523.600281 98.455689 
L 523.740024 98.438392 
L 524.315436 97.855327 
L 524.874409 98.499457 
L 525.014152 98.56305 
L 525.451877 98.404893 
L 526.615032 99.673891 
L 526.760941 99.747135 
L 527.215106 99.14458 
L 527.971362 99.040186 
L 528.421417 99.39257 
L 529.329747 100.119566 
L 529.783912 100.687355 
L 530.063399 100.36274 
L 530.445637 99.890033 
L 530.725123 100.306039 
L 531.031325 100.777711 
L 531.310811 100.688893 
L 531.69305 100.555916 
L 532.710297 100.715271 
L 532.83771 100.699371 
L 533.593967 101.780656 
L 534.241306 101.940084 
L 534.755067 102.502637 
L 535.281159 102.458577 
L 535.544205 102.637887 
L 536.068241 103.044289 
L 536.600498 103.112306 
L 538.071911 104.007581 
L 539.296718 104.557743 
L 541.103103 105.190095 
L 541.524387 105.32932 
L 542.101855 105.050249 
L 542.533414 105.066986 
L 543.402699 105.075479 
L 544.11991 105.625312 
L 544.703542 105.792635 
L 545.297451 105.858401 
L 545.874918 106.211515 
L 546.481157 106.034696 
L 547.229193 106.563674 
L 548.289597 107.114695 
L 550.788532 107.982337 
L 551.60644 107.857669 
L 552.574367 108.308075 
L 553.026477 108.261166 
L 553.404605 108.269611 
L 554.199907 108.372277 
L 554.584201 108.416455 
L 555.67543 109.031669 
L 556.840641 109.218986 
L 558.706622 109.679205 
L 559.510145 110.011767 
L 560.346548 110.07712 
L 560.765778 110.190781 
L 562.161154 110.746023 
L 563.459942 111.084227 
L 565.847905 111.745837 
L 566.937079 111.9093 
L 569.70728 112.329137 
L 571.542436 112.789889 
L 579.569444 114.032216 
L 584.008342 114.248348 
L 593.071092 114.423489 
L 619.704481 114.649578 
L 673.156214 114.874177 
L 684.993275 114.892799 
L 684.993275 114.892799 
" clip-path="url(#p1eca1ac096)" style="fill: none; stroke: #1f77b4; stroke-width: 1.5; stroke-linecap: square"/>
   </g>
   <g id="patch_8">
    <path d="M 405.47 119.437061 
L 405.47 26.88 
" style="fill: none; stroke: #000000; stroke-width: 0.8; stroke-linejoin: miter; stroke-linecap: square"/>
   </g>
   <g id="patch_9">
    <path d="M 698.303908 119.437061 
L 698.303908 26.88 
" style="fill: none; stroke: #000000; stroke-width: 0.8; stroke-linejoin: miter; stroke-linecap: square"/>
   </g>
   <g id="patch_10">
    <path d="M 405.47 119.437061 
L 698.303908 119.437061 
" style="fill: none; stroke: #000000; stroke-width: 0.8; stroke-linejoin: miter; stroke-linecap: square"/>
   </g>
   <g id="patch_11">
    <path d="M 405.47 26.88 
L 698.303908 26.88 
" style="fill: none; stroke: #000000; stroke-width: 0.8; stroke-linejoin: miter; stroke-linecap: square"/>
   </g>
   <g id="text_13">
    <!-- ('P1', 'depthN') -->
    <g transform="translate(487.834854 50.159612) scale(0.1728 -0.1728)">
     <defs>
      <path id="DejaVuSans-27" d="M 1147 4666 
L 1147 2931 
L 616 2931 
L 616 4666 
L 1147 4666 
z
" transform="scale(0.015625)"/>
      <path id="DejaVuSans-50" d="M 1259 4147 
L 1259 2394 
L 2053 2394 
Q 2494 2394 2734 2622 
Q 2975 2850 2975 3272 
Q 2975 3691 2734 3919 
Q 2494 4147 2053 4147 
L 1259 4147 
z
M 628 4666 
L 2053 4666 
Q 2838 4666 3239 4311 
Q 3641 3956 3641 3272 
Q 3641 2581 3239 2228 
Q 2838 1875 2053 1875 
L 1259 1875 
L 1259 0 
L 628 0 
L 628 4666 
z
" transform="scale(0.015625)"/>
      <path id="DejaVuSans-2c" d="M 750 794 
L 1409 794 
L 1409 256 
L 897 -744 
L 494 -744 
L 750 256 
L 750 794 
z
" transform="scale(0.015625)"/>
      <path id="DejaVuSans-4e" d="M 628 4666 
L 1478 4666 
L 3547 763 
L 3547 4666 
L 4159 4666 
L 4159 0 
L 3309 0 
L 1241 3903 
L 1241 0 
L 628 0 
L 628 4666 
z
" transform="scale(0.015625)"/>
     </defs>
     <use xlink:href="#DejaVuSans-28"/>
     <use xlink:href="#DejaVuSans-27" x="39.013672"/>
     <use xlink:href="#DejaVuSans-50" x="66.503906"/>
     <use xlink:href="#DejaVuSans-31" x="126.806641"/>
     <use xlink:href="#DejaVuSans-27" x="190.429688"/>
     <use xlink:href="#DejaVuSans-2c" x="217.919922"/>
     <use xlink:href="#DejaVuSans-20" x="249.707031"/>
     <use xlink:href="#DejaVuSans-27" x="281.494141"/>
     <use xlink:href="#DejaVuSans-64" x="308.984375"/>
     <use xlink:href="#DejaVuSans-65" x="372.460938"/>
     <use xlink:href="#DejaVuSans-70" x="433.984375"/>
     <use xlink:href="#DejaVuSans-74" x="497.460938"/>
     <use xlink:href="#DejaVuSans-68" x="536.669922"/>
     <use xlink:href="#DejaVuSans-4e" x="600.048828"/>
     <use xlink:href="#DejaVuSans-27" x="674.853516"/>
     <use xlink:href="#DejaVuSans-29" x="702.34375"/>
    </g>
   </g>
   <g id="text_14">
    <!-- depths -->
    <g transform="translate(531.296641 20.88) scale(0.12 -0.12)">
     <use xlink:href="#DejaVuSans-64"/>
     <use xlink:href="#DejaVuSans-65" x="63.476562"/>
     <use xlink:href="#DejaVuSans-70" x="125"/>
     <use xlink:href="#DejaVuSans-74" x="188.476562"/>
     <use xlink:href="#DejaVuSans-68" x="227.685547"/>
     <use xlink:href="#DejaVuSans-73" x="291.064453"/>
    </g>
   </g>
  </g>
  <g id="axes_3">
   <g id="patch_12">
    <path d="M 54.02 246.04 
L 346.853908 246.04 
L 346.853908 153.482939 
L 54.02 153.482939 
z
" style="fill: #ffffff"/>
   </g>
   <g id="matplotlib.axis_5">
    <g id="xtick_21">
     <g id="line2d_29">
      <g>
       <use xlink:href="#mb4690c8801" x="67.330632" y="246.04" style="stroke: #000000; stroke-width: 0.8"/>
      </g>
     </g>
     <g id="text_15">
      <!-- 02-25 00 -->
      <g transform="translate(44.850163 260.638438) scale(0.1 -0.1)">
       <defs>
        <path id="DejaVuSans-2d" d="M 313 2009 
L 1997 2009 
L 1997 1497 
L 313 1497 
L 313 2009 
z
" transform="scale(0.015625)"/>
       </defs>
       <use xlink:href="#DejaVuSans-30"/>
       <use xlink:href="#DejaVuSans-32" x="63.623047"/>
       <use xlink:href="#DejaVuSans-2d" x="127.246094"/>
       <use xlink:href="#DejaVuSans-32" x="163.330078"/>
       <use xlink:href="#DejaVuSans-35" x="226.953125"/>
       <use xlink:href="#DejaVuSans-20" x="290.576172"/>
       <use xlink:href="#DejaVuSans-30" x="322.363281"/>
       <use xlink:href="#DejaVuSans-30" x="385.986328"/>
      </g>
     </g>
    </g>
    <g id="xtick_22">
     <g id="line2d_30">
      <g>
       <use xlink:href="#mb4690c8801" x="96.923287" y="246.04" style="stroke: #000000; stroke-width: 0.8"/>
      </g>
     </g>
     <g id="text_16">
      <!-- 02-25 04 -->
      <g transform="translate(74.442818 260.638438) scale(0.1 -0.1)">
       <defs>
        <path id="DejaVuSans-34" d="M 2419 4116 
L 825 1625 
L 2419 1625 
L 2419 4116 
z
M 2253 4666 
L 3047 4666 
L 3047 1625 
L 3713 1625 
L 3713 1100 
L 3047 1100 
L 3047 0 
L 2419 0 
L 2419 1100 
L 313 1100 
L 313 1709 
L 2253 4666 
z
" transform="scale(0.015625)"/>
       </defs>
       <use xlink:href="#DejaVuSans-30"/>
       <use xlink:href="#DejaVuSans-32" x="63.623047"/>
       <use xlink:href="#DejaVuSans-2d" x="127.246094"/>
       <use xlink:href="#DejaVuSans-32" x="163.330078"/>
       <use xlink:href="#DejaVuSans-35" x="226.953125"/>
       <use xlink:href="#DejaVuSans-20" x="290.576172"/>
       <use xlink:href="#DejaVuSans-30" x="322.363281"/>
       <use xlink:href="#DejaVuSans-34" x="385.986328"/>
      </g>
     </g>
    </g>
    <g id="xtick_23">
     <g id="line2d_31">
      <g>
       <use xlink:href="#mb4690c8801" x="126.515941" y="246.04" style="stroke: #000000; stroke-width: 0.8"/>
      </g>
     </g>
     <g id="text_17">
      <!-- 02-25 08 -->
      <g transform="translate(104.035473 260.638438) scale(0.1 -0.1)">
       <defs>
        <path id="DejaVuSans-38" d="M 2034 2216 
Q 1584 2216 1326 1975 
Q 1069 1734 1069 1313 
Q 1069 891 1326 650 
Q 1584 409 2034 409 
Q 2484 409 2743 651 
Q 3003 894 3003 1313 
Q 3003 1734 2745 1975 
Q 2488 2216 2034 2216 
z
M 1403 2484 
Q 997 2584 770 2862 
Q 544 3141 544 3541 
Q 544 4100 942 4425 
Q 1341 4750 2034 4750 
Q 2731 4750 3128 4425 
Q 3525 4100 3525 3541 
Q 3525 3141 3298 2862 
Q 3072 2584 2669 2484 
Q 3125 2378 3379 2068 
Q 3634 1759 3634 1313 
Q 3634 634 3220 271 
Q 2806 -91 2034 -91 
Q 1263 -91 848 271 
Q 434 634 434 1313 
Q 434 1759 690 2068 
Q 947 2378 1403 2484 
z
M 1172 3481 
Q 1172 3119 1398 2916 
Q 1625 2713 2034 2713 
Q 2441 2713 2670 2916 
Q 2900 3119 2900 3481 
Q 2900 3844 2670 4047 
Q 2441 4250 2034 4250 
Q 1625 4250 1398 4047 
Q 1172 3844 1172 3481 
z
" transform="scale(0.015625)"/>
       </defs>
       <use xlink:href="#DejaVuSans-30"/>
       <use xlink:href="#DejaVuSans-32" x="63.623047"/>
       <use xlink:href="#DejaVuSans-2d" x="127.246094"/>
       <use xlink:href="#DejaVuSans-32" x="163.330078"/>
       <use xlink:href="#DejaVuSans-35" x="226.953125"/>
       <use xlink:href="#DejaVuSans-20" x="290.576172"/>
       <use xlink:href="#DejaVuSans-30" x="322.363281"/>
       <use xlink:href="#DejaVuSans-38" x="385.986328"/>
      </g>
     </g>
    </g>
    <g id="xtick_24">
     <g id="line2d_32">
      <g>
       <use xlink:href="#mb4690c8801" x="156.108596" y="246.04" style="stroke: #000000; stroke-width: 0.8"/>
      </g>
     </g>
     <g id="text_18">
      <!-- 02-25 12 -->
      <g transform="translate(133.628127 260.638438) scale(0.1 -0.1)">
       <use xlink:href="#DejaVuSans-30"/>
       <use xlink:href="#DejaVuSans-32" x="63.623047"/>
       <use xlink:href="#DejaVuSans-2d" x="127.246094"/>
       <use xlink:href="#DejaVuSans-32" x="163.330078"/>
       <use xlink:href="#DejaVuSans-35" x="226.953125"/>
       <use xlink:href="#DejaVuSans-20" x="290.576172"/>
       <use xlink:href="#DejaVuSans-31" x="322.363281"/>
       <use xlink:href="#DejaVuSans-32" x="385.986328"/>
      </g>
     </g>
    </g>
    <g id="xtick_25">
     <g id="line2d_33">
      <g>
       <use xlink:href="#mb4690c8801" x="185.70125" y="246.04" style="stroke: #000000; stroke-width: 0.8"/>
      </g>
     </g>
     <g id="text_19">
      <!-- 02-25 16 -->
      <g transform="translate(163.220782 260.638438) scale(0.1 -0.1)">
       <defs>
        <path id="DejaVuSans-36" d="M 2113 2584 
Q 1688 2584 1439 2293 
Q 1191 2003 1191 1497 
Q 1191 994 1439 701 
Q 1688 409 2113 409 
Q 2538 409 2786 701 
Q 3034 994 3034 1497 
Q 3034 2003 2786 2293 
Q 2538 2584 2113 2584 
z
M 3366 4563 
L 3366 3988 
Q 3128 4100 2886 4159 
Q 2644 4219 2406 4219 
Q 1781 4219 1451 3797 
Q 1122 3375 1075 2522 
Q 1259 2794 1537 2939 
Q 1816 3084 2150 3084 
Q 2853 3084 3261 2657 
Q 3669 2231 3669 1497 
Q 3669 778 3244 343 
Q 2819 -91 2113 -91 
Q 1303 -91 875 529 
Q 447 1150 447 2328 
Q 447 3434 972 4092 
Q 1497 4750 2381 4750 
Q 2619 4750 2861 4703 
Q 3103 4656 3366 4563 
z
" transform="scale(0.015625)"/>
       </defs>
       <use xlink:href="#DejaVuSans-30"/>
       <use xlink:href="#DejaVuSans-32" x="63.623047"/>
       <use xlink:href="#DejaVuSans-2d" x="127.246094"/>
       <use xlink:href="#DejaVuSans-32" x="163.330078"/>
       <use xlink:href="#DejaVuSans-35" x="226.953125"/>
       <use xlink:href="#DejaVuSans-20" x="290.576172"/>
       <use xlink:href="#DejaVuSans-31" x="322.363281"/>
       <use xlink:href="#DejaVuSans-36" x="385.986328"/>
      </g>
     </g>
    </g>
    <g id="xtick_26">
     <g id="line2d_34">
      <g>
       <use xlink:href="#mb4690c8801" x="215.293905" y="246.04" style="stroke: #000000; stroke-width: 0.8"/>
      </g>
     </g>
     <g id="text_20">
      <!-- 02-25 20 -->
      <g transform="translate(192.813436 260.638438) scale(0.1 -0.1)">
       <use xlink:href="#DejaVuSans-30"/>
       <use xlink:href="#DejaVuSans-32" x="63.623047"/>
       <use xlink:href="#DejaVuSans-2d" x="127.246094"/>
       <use xlink:href="#DejaVuSans-32" x="163.330078"/>
       <use xlink:href="#DejaVuSans-35" x="226.953125"/>
       <use xlink:href="#DejaVuSans-20" x="290.576172"/>
       <use xlink:href="#DejaVuSans-32" x="322.363281"/>
       <use xlink:href="#DejaVuSans-30" x="385.986328"/>
      </g>
     </g>
    </g>
    <g id="xtick_27">
     <g id="line2d_35">
      <g>
       <use xlink:href="#mb4690c8801" x="244.88656" y="246.04" style="stroke: #000000; stroke-width: 0.8"/>
      </g>
     </g>
     <g id="text_21">
      <!-- 02-26 00 -->
      <g transform="translate(222.406091 260.638438) scale(0.1 -0.1)">
       <use xlink:href="#DejaVuSans-30"/>
       <use xlink:href="#DejaVuSans-32" x="63.623047"/>
       <use xlink:href="#DejaVuSans-2d" x="127.246094"/>
       <use xlink:href="#DejaVuSans-32" x="163.330078"/>
       <use xlink:href="#DejaVuSans-36" x="226.953125"/>
       <use xlink:href="#DejaVuSans-20" x="290.576172"/>
       <use xlink:href="#DejaVuSans-30" x="322.363281"/>
       <use xlink:href="#DejaVuSans-30" x="385.986328"/>
      </g>
     </g>
    </g>
    <g id="xtick_28">
     <g id="line2d_36">
      <g>
       <use xlink:href="#mb4690c8801" x="274.479214" y="246.04" style="stroke: #000000; stroke-width: 0.8"/>
      </g>
     </g>
     <g id="text_22">
      <!-- 02-26 04 -->
      <g transform="translate(251.998745 260.638438) scale(0.1 -0.1)">
       <use xlink:href="#DejaVuSans-30"/>
       <use xlink:href="#DejaVuSans-32" x="63.623047"/>
       <use xlink:href="#DejaVuSans-2d" x="127.246094"/>
       <use xlink:href="#DejaVuSans-32" x="163.330078"/>
       <use xlink:href="#DejaVuSans-36" x="226.953125"/>
       <use xlink:href="#DejaVuSans-20" x="290.576172"/>
       <use xlink:href="#DejaVuSans-30" x="322.363281"/>
       <use xlink:href="#DejaVuSans-34" x="385.986328"/>
      </g>
     </g>
    </g>
    <g id="xtick_29">
     <g id="line2d_37">
      <g>
       <use xlink:href="#mb4690c8801" x="304.071869" y="246.04" style="stroke: #000000; stroke-width: 0.8"/>
      </g>
     </g>
     <g id="text_23">
      <!-- 02-26 08 -->
      <g transform="translate(281.5914 260.638438) scale(0.1 -0.1)">
       <use xlink:href="#DejaVuSans-30"/>
       <use xlink:href="#DejaVuSans-32" x="63.623047"/>
       <use xlink:href="#DejaVuSans-2d" x="127.246094"/>
       <use xlink:href="#DejaVuSans-32" x="163.330078"/>
       <use xlink:href="#DejaVuSans-36" x="226.953125"/>
       <use xlink:href="#DejaVuSans-20" x="290.576172"/>
       <use xlink:href="#DejaVuSans-30" x="322.363281"/>
       <use xlink:href="#DejaVuSans-38" x="385.986328"/>
      </g>
     </g>
    </g>
    <g id="xtick_30">
     <g id="line2d_38">
      <g>
       <use xlink:href="#mb4690c8801" x="333.664523" y="246.04" style="stroke: #000000; stroke-width: 0.8"/>
      </g>
     </g>
     <g id="text_24">
      <!-- 02-26 12 -->
      <g transform="translate(311.184054 260.638438) scale(0.1 -0.1)">
       <use xlink:href="#DejaVuSans-30"/>
       <use xlink:href="#DejaVuSans-32" x="63.623047"/>
       <use xlink:href="#DejaVuSans-2d" x="127.246094"/>
       <use xlink:href="#DejaVuSans-32" x="163.330078"/>
       <use xlink:href="#DejaVuSans-36" x="226.953125"/>
       <use xlink:href="#DejaVuSans-20" x="290.576172"/>
       <use xlink:href="#DejaVuSans-31" x="322.363281"/>
       <use xlink:href="#DejaVuSans-32" x="385.986328"/>
      </g>
     </g>
    </g>
    <g id="text_25">
     <!-- time -->
     <g transform="translate(189.14086 274.316563) scale(0.1 -0.1)">
      <use xlink:href="#DejaVuSans-74"/>
      <use xlink:href="#DejaVuSans-69" x="39.208984"/>
      <use xlink:href="#DejaVuSans-6d" x="66.992188"/>
      <use xlink:href="#DejaVuSans-65" x="164.404297"/>
     </g>
    </g>
   </g>
   <g id="matplotlib.axis_6">
    <g id="ytick_7">
     <g id="line2d_39">
      <g>
       <use xlink:href="#m319b1ee4ba" x="54.02" y="241.832861" style="stroke: #000000; stroke-width: 0.8"/>
      </g>
     </g>
     <g id="text_26">
      <!-- 0.0 -->
      <g transform="translate(31.116875 245.63208) scale(0.1 -0.1)">
       <use xlink:href="#DejaVuSans-30"/>
       <use xlink:href="#DejaVuSans-2e" x="63.623047"/>
       <use xlink:href="#DejaVuSans-30" x="95.410156"/>
      </g>
     </g>
    </g>
    <g id="ytick_8">
     <g id="line2d_40">
      <g>
       <use xlink:href="#m319b1ee4ba" x="54.02" y="203.587953" style="stroke: #000000; stroke-width: 0.8"/>
      </g>
     </g>
     <g id="text_27">
      <!-- 0.1 -->
      <g transform="translate(31.116875 207.387172) scale(0.1 -0.1)">
       <use xlink:href="#DejaVuSans-30"/>
       <use xlink:href="#DejaVuSans-2e" x="63.623047"/>
       <use xlink:href="#DejaVuSans-31" x="95.410156"/>
      </g>
     </g>
    </g>
    <g id="ytick_9">
     <g id="line2d_41">
      <g>
       <use xlink:href="#m319b1ee4ba" x="54.02" y="165.343045" style="stroke: #000000; stroke-width: 0.8"/>
      </g>
     </g>
     <g id="text_28">
      <!-- 0.2 -->
      <g transform="translate(31.116875 169.142263) scale(0.1 -0.1)">
       <use xlink:href="#DejaVuSans-30"/>
       <use xlink:href="#DejaVuSans-2e" x="63.623047"/>
       <use xlink:href="#DejaVuSans-32" x="95.410156"/>
      </g>
     </g>
    </g>
    <g id="text_29">
     <!-- flow (cms) -->
     <g transform="translate(25.037188 225.77397) rotate(-90) scale(0.1 -0.1)">
      <use xlink:href="#DejaVuSans-66"/>
      <use xlink:href="#DejaVuSans-6c" x="35.205078"/>
      <use xlink:href="#DejaVuSans-6f" x="62.988281"/>
      <use xlink:href="#DejaVuSans-77" x="124.169922"/>
      <use xlink:href="#DejaVuSans-20" x="205.957031"/>
      <use xlink:href="#DejaVuSans-28" x="237.744141"/>
      <use xlink:href="#DejaVuSans-63" x="276.757812"/>
      <use xlink:href="#DejaVuSans-6d" x="331.738281"/>
      <use xlink:href="#DejaVuSans-73" x="429.150391"/>
      <use xlink:href="#DejaVuSans-29" x="481.25"/>
     </g>
    </g>
   </g>
   <g id="line2d_42">
    <path d="M 67.330632 241.832861 
L 79.290997 241.731549 
L 80.283584 241.533375 
L 81.656354 240.810353 
L 82.110519 240.400363 
L 82.431106 240.315868 
L 82.893491 239.733959 
L 83.189418 239.010142 
L 83.333271 238.750432 
L 83.475069 238.768152 
L 83.760721 237.851434 
L 84.038152 237.162403 
L 84.17584 237.267753 
L 84.311473 237.09261 
L 84.578629 236.358475 
L 84.708097 235.591685 
L 84.833454 235.532476 
L 85.08417 234.822933 
L 86.259656 230.370229 
L 86.946041 226.706859 
L 89.527178 212.889515 
L 90.246444 208.223333 
L 90.384132 207.820726 
L 90.934884 203.660759 
L 91.586334 196.739932 
L 91.970627 192.492998 
L 92.363141 194.767712 
L 92.626187 193.598549 
L 92.755655 190.374043 
L 92.885122 191.155699 
L 93.012535 191.153661 
L 93.265306 190.111533 
L 93.390664 190.223146 
L 93.534517 194.807558 
L 93.676315 195.495565 
L 93.820168 195.189089 
L 93.945526 192.208409 
L 94.212682 179.125138 
L 94.492168 178.043073 
L 94.636021 181.109433 
L 94.917562 178.018811 
L 95.057305 177.565276 
L 95.342957 186.706638 
L 95.468315 186.979426 
L 95.721085 185.624266 
L 95.864938 183.933047 
L 96.006736 184.625996 
L 96.292388 183.330878 
L 96.432131 180.973501 
L 96.711617 181.79265 
L 96.85136 181.439599 
L 97.128791 179.203385 
L 97.408277 178.145566 
L 97.687764 176.74207 
L 97.95903 163.597295 
L 98.094663 162.881434 
L 98.228241 164.861602 
L 98.497452 179.945215 
L 98.63514 180.373673 
L 98.772828 179.971491 
L 99.046149 176.442894 
L 99.177672 176.897347 
L 99.442772 176.420396 
L 99.578405 175.816309 
L 99.845561 173.363513 
L 99.979139 172.960249 
L 100.114772 173.446806 
L 100.25246 175.130546 
L 100.803213 173.504863 
L 100.938846 174.389108 
L 101.076534 174.340254 
L 101.212167 173.961418 
L 101.3478 173.00077 
L 101.483433 173.71159 
L 101.619066 173.702254 
L 101.888277 172.719164 
L 102.422588 164.918668 
L 102.689744 169.037131 
L 102.954845 167.303894 
L 103.088423 166.866348 
L 103.219946 170.279385 
L 103.750148 167.518711 
L 103.883726 169.271205 
L 104.28446 167.628615 
L 104.415982 167.693317 
L 104.676973 164.958254 
L 104.935909 164.090445 
L 105.067432 167.856576 
L 105.597634 165.017436 
L 105.727101 167.90094 
L 106.119615 166.125167 
L 106.251138 166.480403 
L 106.641597 170.032182 
L 106.771065 169.840463 
L 107.295101 171.803167 
L 107.426624 171.458877 
L 107.691725 169.11928 
L 108.088349 167.439349 
L 108.351394 168.487004 
L 108.612385 167.974427 
L 108.741853 166.828392 
L 108.871321 166.747594 
L 109.259725 165.550637 
L 109.648128 168.965295 
L 109.777596 168.848787 
L 109.907064 168.415552 
L 110.036532 166.335992 
L 110.293412 167.259124 
L 110.42288 167.094635 
L 110.550293 166.613912 
L 111.07022 159.1568 
L 111.454513 164.836092 
L 111.581926 164.992636 
L 111.836752 164.417547 
L 112.093632 162.444941 
L 112.348458 161.686333 
L 112.477926 162.995248 
L 112.734806 166.217112 
L 112.862219 166.086863 
L 113.121155 164.959885 
L 113.250623 165.88725 
L 113.378036 165.96635 
L 113.507504 165.771017 
L 113.636971 165.255592 
L 113.766439 165.201231 
L 113.895907 165.372476 
L 114.154843 164.839112 
L 114.537081 161.508021 
L 114.791907 161.223401 
L 115.046733 162.453804 
L 115.307723 161.037169 
L 115.437191 160.78833 
L 115.696127 163.49142 
L 115.82765 163.501555 
L 116.086586 163.184342 
L 116.474989 161.831878 
L 116.604457 161.576758 
L 116.861338 162.016166 
L 117.118218 162.932011 
L 117.245631 162.843944 
L 117.375099 163.313785 
L 117.767613 157.997335 
L 117.897081 157.690079 
L 118.026549 159.491738 
L 118.156016 159.657461 
L 118.414952 158.758842 
L 118.54442 158.820039 
L 118.673888 160.617881 
L 119.062291 158.619439 
L 119.319172 160.042405 
L 119.576053 160.19346 
L 119.703466 160.085019 
L 120.093924 163.103575 
L 120.35697 162.688206 
L 120.486438 161.910134 
L 120.615906 161.811248 
L 120.874842 162.196714 
L 121.004309 162.167721 
L 121.133777 162.826639 
L 121.528346 161.763531 
L 121.791392 162.202852 
L 122.050328 163.864896 
L 122.18185 163.830339 
L 122.313373 163.194371 
L 122.444896 163.330829 
L 122.709997 163.181808 
L 122.843575 163.057515 
L 122.975098 162.390271 
L 123.240199 158.498076 
L 123.371722 158.153885 
L 123.5053 158.772152 
L 123.889593 162.095263 
L 124.019061 162.327382 
L 124.284162 164.029651 
L 124.691061 163.46198 
L 124.958217 160.802027 
L 125.227428 160.00577 
L 125.361006 160.389986 
L 125.492529 160.245694 
L 125.626107 160.587482 
L 126.024785 160.496058 
L 126.425519 158.794876 
L 126.559097 158.877999 
L 126.824198 162.01191 
L 126.957776 162.180392 
L 127.226987 162.248082 
L 127.360565 161.911653 
L 127.625666 162.476224 
L 127.759244 162.513685 
L 127.894877 163.476299 
L 128.03051 163.56422 
L 128.443574 162.210819 
L 128.579207 160.659381 
L 128.71073 160.980317 
L 129.107354 163.140933 
L 129.522473 161.859963 
L 129.660161 161.832589 
L 129.797849 161.938575 
L 130.07117 163.989239 
L 130.208858 164.079012 
L 130.346546 162.497206 
L 130.486289 163.311723 
L 130.765775 162.686557 
L 130.905518 162.584706 
L 131.324748 161.876936 
L 131.464491 161.843857 
L 131.741922 159.787761 
L 132.290619 161.744961 
L 132.430362 161.671557 
L 132.570105 161.657876 
L 132.709848 161.786472 
L 132.849591 162.277603 
L 132.989334 164.280078 
L 133.131133 164.445015 
L 133.272931 164.427068 
L 133.694215 161.052373 
L 133.836013 161.045468 
L 133.975756 160.911559 
L 134.115499 160.937557 
L 134.251132 160.444713 
L 134.664197 161.947918 
L 134.80394 161.724668 
L 135.083426 162.392453 
L 135.223169 162.543239 
L 135.506765 161.601879 
L 135.788306 161.985309 
L 135.93216 161.870326 
L 136.217811 160.443497 
L 136.361664 160.434734 
L 136.647315 162.649412 
L 136.928857 164.19858 
L 137.196013 163.898088 
L 137.446728 164.771126 
L 137.572086 164.825708 
L 137.841297 161.330615 
L 138.264636 162.167479 
L 138.408489 163.044851 
L 138.554398 163.122128 
L 138.679755 162.956155 
L 138.825664 162.967535 
L 138.969517 162.865032 
L 139.238728 159.926764 
L 139.382581 159.839573 
L 139.526434 160.835744 
L 139.812085 164.806515 
L 140.099792 165.719671 
L 140.498471 161.812128 
L 140.625883 161.638103 
L 140.751241 161.765897 
L 141.018397 162.396061 
L 141.575314 164.119299 
L 141.83014 164.011599 
L 141.955498 164.035853 
L 142.082911 163.298741 
L 142.226764 163.676811 
L 142.516525 164.923401 
L 142.767241 164.00107 
L 142.892599 164.034681 
L 143.143314 164.439291 
L 143.396085 163.917962 
L 143.523497 163.457733 
L 143.648855 163.436772 
L 143.776268 163.568746 
L 143.903681 162.481015 
L 144.158507 165.464493 
L 144.415387 165.758342 
L 144.5428 164.795115 
L 144.670213 161.467341 
L 144.814066 160.767056 
L 144.939424 160.901372 
L 145.064782 161.36745 
L 145.319607 165.108511 
L 145.576488 165.581101 
L 145.703901 165.0951 
L 145.958726 162.694772 
L 146.211497 163.025845 
L 146.336855 163.394938 
L 146.714983 166.524036 
L 146.842396 166.827914 
L 146.969809 166.326543 
L 147.099277 165.363108 
L 147.224634 165.318222 
L 147.47946 165.866533 
L 147.606873 164.735741 
L 147.995276 165.930918 
L 148.124744 166.00012 
L 148.381625 164.235371 
L 148.636451 164.770384 
L 148.763863 165.055227 
L 148.893331 164.621029 
L 149.148157 161.142225 
L 149.277625 161.23729 
L 149.53245 163.331355 
L 149.661918 163.14742 
L 149.916744 163.825932 
L 150.044157 163.852073 
L 150.43256 168.589882 
L 150.564083 168.920832 
L 150.693551 167.055363 
L 150.954542 170.455929 
L 151.215533 171.267736 
L 151.476523 168.866718 
L 151.739569 169.335257 
L 152.263606 166.062799 
L 152.395129 166.271793 
L 152.526652 166.747295 
L 152.789697 165.351827 
L 152.919165 165.422251 
L 153.050688 165.763755 
L 153.182211 166.584509 
L 153.311679 164.517211 
L 153.439092 164.427069 
L 153.56856 164.793836 
L 153.698028 165.538464 
L 154.217954 170.4614 
L 154.483055 169.351444 
L 154.750211 169.411681 
L 154.883789 169.654663 
L 155.017367 168.68605 
L 155.282468 171.272074 
L 155.416046 171.710765 
L 155.549623 171.753372 
L 155.683201 170.925521 
L 155.948302 171.965868 
L 156.083935 172.279953 
L 156.349036 169.604721 
L 156.74155 171.445584 
L 157.277917 173.161468 
L 157.545073 168.965686 
L 157.678651 169.482765 
L 157.947862 170.579732 
L 158.081439 170.719523 
L 158.344485 165.039955 
L 158.473953 165.356767 
L 158.605476 165.997985 
L 159.004155 172.064123 
L 159.139788 172.647331 
L 159.273366 172.627709 
L 159.542577 171.532418 
L 159.943311 172.591719 
L 160.218687 178.533949 
L 160.356375 179.209853 
L 160.496118 177.387319 
L 160.633806 172.654951 
L 160.767384 172.485508 
L 161.03454 173.880019 
L 161.170173 175.4369 
L 161.303751 173.994782 
L 161.439384 173.77586 
L 161.846283 175.388242 
L 161.981916 173.390026 
L 162.119604 173.317911 
L 162.528558 175.592517 
L 163.0752 180.527528 
L 163.492374 183.207402 
L 163.632117 182.995717 
L 163.77186 183.076078 
L 164.053402 184.567422 
L 164.334943 183.851261 
L 164.622649 189.096788 
L 164.768557 189.500096 
L 165.054209 184.222783 
L 165.33575 185.569088 
L 165.477548 187.779057 
L 165.619346 186.930411 
L 165.761144 186.776372 
L 166.046796 188.373036 
L 166.334502 190.861142 
L 166.624263 192.196121 
L 166.768117 189.950002 
L 167.057878 193.022392 
L 167.733988 201.750147 
L 168.506685 206.373302 
L 169.832189 211.86736 
L 170.234978 213.12149 
L 170.641877 214.263339 
L 171.735161 217.12741 
L 172.865436 219.680618 
L 173.00929 215.64183 
L 173.286721 216.317113 
L 173.424409 217.116569 
L 173.564152 220.754404 
L 173.853913 221.546945 
L 174.147785 221.861756 
L 174.291638 221.870633 
L 174.579344 222.259206 
L 174.725253 222.654484 
L 174.873216 222.589123 
L 175.165032 222.91659 
L 175.460959 223.466058 
L 175.917179 223.985946 
L 176.521362 224.652985 
L 176.671381 224.566229 
L 177.123491 225.019513 
L 177.273509 225.021472 
L 179.120995 226.611096 
L 179.275123 226.58852 
L 180.370462 227.56418 
L 180.750646 227.830614 
L 181.130829 227.76113 
L 183.831159 229.618195 
L 183.962682 229.46703 
L 184.355196 229.787996 
L 184.618241 229.88327 
L 184.883342 230.242552 
L 185.150498 230.264845 
L 185.417654 230.24437 
L 190.362093 232.492643 
L 190.795708 232.537895 
L 191.371121 232.757839 
L 191.952699 233.072168 
L 192.240405 233.07116 
L 193.697432 233.677927 
L 193.847451 233.450684 
L 193.993359 232.459827 
L 194.281065 232.607894 
L 194.572882 233.998678 
L 195.031157 234.270041 
L 195.331193 234.238808 
L 196.231303 234.52659 
L 196.53545 234.437889 
L 196.839597 234.549 
L 196.99167 234.844788 
L 197.454055 234.990263 
L 197.608184 234.938352 
L 197.920551 235.110986 
L 200.477027 235.861591 
L 200.799669 235.948221 
L 204.352843 236.866619 
L 204.607669 236.81387 
L 204.864549 236.879661 
L 205.123485 237.113934 
L 205.524219 237.198221 
L 205.78932 237.167633 
L 206.054421 237.22815 
L 206.185943 237.061649 
L 206.453099 237.415957 
L 207.3902 237.553812 
L 208.060145 237.727986 
L 208.477319 237.885198 
L 209.176035 237.962372 
L 209.315778 237.771864 
L 209.591154 238.01836 
L 210.429612 238.11291 
L 210.569355 237.988318 
L 210.852952 238.217019 
L 210.99475 238.247518 
L 211.136548 238.066174 
L 211.424254 238.421152 
L 212.891557 238.692141 
L 213.03952 238.572859 
L 213.337502 238.785224 
L 214.858235 238.960286 
L 215.328841 239.023457 
L 215.805611 239.175092 
L 217.268804 239.389033 
L 218.25728 239.523446 
L 219.087519 239.630543 
L 219.253978 239.39652 
L 219.586895 239.447884 
L 219.921867 239.645883 
L 220.437684 239.843273 
L 221.498087 239.994812 
L 221.859775 239.895029 
L 222.217353 240.026536 
L 222.579041 240.12974 
L 222.946894 240.056935 
L 223.312692 240.111535 
L 223.6826 240.02099 
L 223.867555 240.044659 
L 224.235408 240.272149 
L 225.160178 240.383861 
L 225.530086 240.23203 
L 225.899995 240.37232 
L 226.639811 240.514047 
L 227.749535 240.54002 
L 228.119444 240.467766 
L 228.304398 240.481804 
L 228.674306 240.642634 
L 229.599076 240.66611 
L 229.968985 240.605182 
L 231.263663 240.820322 
L 232.188434 240.742534 
L 232.743296 240.866304 
L 233.668066 240.93005 
L 234.222929 240.951893 
L 239.401643 241.105249 
L 239.771551 241.056466 
L 256.047511 241.430504 
L 256.602374 241.394798 
L 285.82512 241.61291 
L 333.543275 241.733986 
L 333.543275 241.733986 
" clip-path="url(#p493521e2d5)" style="fill: none; stroke: #1f77b4; stroke-width: 1.5; stroke-linecap: square"/>
   </g>
   <g id="patch_13">
    <path d="M 54.02 246.04 
L 54.02 153.482939 
" style="fill: none; stroke: #000000; stroke-width: 0.8; stroke-linejoin: miter; stroke-linecap: square"/>
   </g>
   <g id="patch_14">
    <path d="M 346.853908 246.04 
L 346.853908 153.482939 
" style="fill: none; stroke: #000000; stroke-width: 0.8; stroke-linejoin: miter; stroke-linecap: square"/>
   </g>
   <g id="patch_15">
    <path d="M 54.02 246.04 
L 346.853908 246.04 
" style="fill: none; stroke: #000000; stroke-width: 0.8; stroke-linejoin: miter; stroke-linecap: square"/>
   </g>
   <g id="patch_16">
    <path d="M 54.02 153.482939 
L 346.853908 153.482939 
" style="fill: none; stroke: #000000; stroke-width: 0.8; stroke-linejoin: miter; stroke-linecap: square"/>
   </g>
   <g id="text_30">
    <!-- 2 -->
    <g transform="translate(194.939754 176.762552) scale(0.1728 -0.1728)">
     <use xlink:href="#DejaVuSans-32"/>
    </g>
   </g>
  </g>
  <g id="axes_4">
   <g id="patch_17">
    <path d="M 405.47 246.04 
L 698.303908 246.04 
L 698.303908 153.482939 
L 405.47 153.482939 
z
" style="fill: #ffffff"/>
   </g>
   <g id="matplotlib.axis_7">
    <g id="xtick_31">
     <g id="line2d_43">
      <g>
       <use xlink:href="#mb4690c8801" x="418.780632" y="246.04" style="stroke: #000000; stroke-width: 0.8"/>
      </g>
     </g>
     <g id="text_31">
      <!-- 02-25 00 -->
      <g transform="translate(396.300163 260.638438) scale(0.1 -0.1)">
       <use xlink:href="#DejaVuSans-30"/>
       <use xlink:href="#DejaVuSans-32" x="63.623047"/>
       <use xlink:href="#DejaVuSans-2d" x="127.246094"/>
       <use xlink:href="#DejaVuSans-32" x="163.330078"/>
       <use xlink:href="#DejaVuSans-35" x="226.953125"/>
       <use xlink:href="#DejaVuSans-20" x="290.576172"/>
       <use xlink:href="#DejaVuSans-30" x="322.363281"/>
       <use xlink:href="#DejaVuSans-30" x="385.986328"/>
      </g>
     </g>
    </g>
    <g id="xtick_32">
     <g id="line2d_44">
      <g>
       <use xlink:href="#mb4690c8801" x="448.373287" y="246.04" style="stroke: #000000; stroke-width: 0.8"/>
      </g>
     </g>
     <g id="text_32">
      <!-- 02-25 04 -->
      <g transform="translate(425.892818 260.638438) scale(0.1 -0.1)">
       <use xlink:href="#DejaVuSans-30"/>
       <use xlink:href="#DejaVuSans-32" x="63.623047"/>
       <use xlink:href="#DejaVuSans-2d" x="127.246094"/>
       <use xlink:href="#DejaVuSans-32" x="163.330078"/>
       <use xlink:href="#DejaVuSans-35" x="226.953125"/>
       <use xlink:href="#DejaVuSans-20" x="290.576172"/>
       <use xlink:href="#DejaVuSans-30" x="322.363281"/>
       <use xlink:href="#DejaVuSans-34" x="385.986328"/>
      </g>
     </g>
    </g>
    <g id="xtick_33">
     <g id="line2d_45">
      <g>
       <use xlink:href="#mb4690c8801" x="477.965941" y="246.04" style="stroke: #000000; stroke-width: 0.8"/>
      </g>
     </g>
     <g id="text_33">
      <!-- 02-25 08 -->
      <g transform="translate(455.485473 260.638438) scale(0.1 -0.1)">
       <use xlink:href="#DejaVuSans-30"/>
       <use xlink:href="#DejaVuSans-32" x="63.623047"/>
       <use xlink:href="#DejaVuSans-2d" x="127.246094"/>
       <use xlink:href="#DejaVuSans-32" x="163.330078"/>
       <use xlink:href="#DejaVuSans-35" x="226.953125"/>
       <use xlink:href="#DejaVuSans-20" x="290.576172"/>
       <use xlink:href="#DejaVuSans-30" x="322.363281"/>
       <use xlink:href="#DejaVuSans-38" x="385.986328"/>
      </g>
     </g>
    </g>
    <g id="xtick_34">
     <g id="line2d_46">
      <g>
       <use xlink:href="#mb4690c8801" x="507.558596" y="246.04" style="stroke: #000000; stroke-width: 0.8"/>
      </g>
     </g>
     <g id="text_34">
      <!-- 02-25 12 -->
      <g transform="translate(485.078127 260.638438) scale(0.1 -0.1)">
       <use xlink:href="#DejaVuSans-30"/>
       <use xlink:href="#DejaVuSans-32" x="63.623047"/>
       <use xlink:href="#DejaVuSans-2d" x="127.246094"/>
       <use xlink:href="#DejaVuSans-32" x="163.330078"/>
       <use xlink:href="#DejaVuSans-35" x="226.953125"/>
       <use xlink:href="#DejaVuSans-20" x="290.576172"/>
       <use xlink:href="#DejaVuSans-31" x="322.363281"/>
       <use xlink:href="#DejaVuSans-32" x="385.986328"/>
      </g>
     </g>
    </g>
    <g id="xtick_35">
     <g id="line2d_47">
      <g>
       <use xlink:href="#mb4690c8801" x="537.15125" y="246.04" style="stroke: #000000; stroke-width: 0.8"/>
      </g>
     </g>
     <g id="text_35">
      <!-- 02-25 16 -->
      <g transform="translate(514.670782 260.638438) scale(0.1 -0.1)">
       <use xlink:href="#DejaVuSans-30"/>
       <use xlink:href="#DejaVuSans-32" x="63.623047"/>
       <use xlink:href="#DejaVuSans-2d" x="127.246094"/>
       <use xlink:href="#DejaVuSans-32" x="163.330078"/>
       <use xlink:href="#DejaVuSans-35" x="226.953125"/>
       <use xlink:href="#DejaVuSans-20" x="290.576172"/>
       <use xlink:href="#DejaVuSans-31" x="322.363281"/>
       <use xlink:href="#DejaVuSans-36" x="385.986328"/>
      </g>
     </g>
    </g>
    <g id="xtick_36">
     <g id="line2d_48">
      <g>
       <use xlink:href="#mb4690c8801" x="566.743905" y="246.04" style="stroke: #000000; stroke-width: 0.8"/>
      </g>
     </g>
     <g id="text_36">
      <!-- 02-25 20 -->
      <g transform="translate(544.263436 260.638438) scale(0.1 -0.1)">
       <use xlink:href="#DejaVuSans-30"/>
       <use xlink:href="#DejaVuSans-32" x="63.623047"/>
       <use xlink:href="#DejaVuSans-2d" x="127.246094"/>
       <use xlink:href="#DejaVuSans-32" x="163.330078"/>
       <use xlink:href="#DejaVuSans-35" x="226.953125"/>
       <use xlink:href="#DejaVuSans-20" x="290.576172"/>
       <use xlink:href="#DejaVuSans-32" x="322.363281"/>
       <use xlink:href="#DejaVuSans-30" x="385.986328"/>
      </g>
     </g>
    </g>
    <g id="xtick_37">
     <g id="line2d_49">
      <g>
       <use xlink:href="#mb4690c8801" x="596.33656" y="246.04" style="stroke: #000000; stroke-width: 0.8"/>
      </g>
     </g>
     <g id="text_37">
      <!-- 02-26 00 -->
      <g transform="translate(573.856091 260.638438) scale(0.1 -0.1)">
       <use xlink:href="#DejaVuSans-30"/>
       <use xlink:href="#DejaVuSans-32" x="63.623047"/>
       <use xlink:href="#DejaVuSans-2d" x="127.246094"/>
       <use xlink:href="#DejaVuSans-32" x="163.330078"/>
       <use xlink:href="#DejaVuSans-36" x="226.953125"/>
       <use xlink:href="#DejaVuSans-20" x="290.576172"/>
       <use xlink:href="#DejaVuSans-30" x="322.363281"/>
       <use xlink:href="#DejaVuSans-30" x="385.986328"/>
      </g>
     </g>
    </g>
    <g id="xtick_38">
     <g id="line2d_50">
      <g>
       <use xlink:href="#mb4690c8801" x="625.929214" y="246.04" style="stroke: #000000; stroke-width: 0.8"/>
      </g>
     </g>
     <g id="text_38">
      <!-- 02-26 04 -->
      <g transform="translate(603.448745 260.638438) scale(0.1 -0.1)">
       <use xlink:href="#DejaVuSans-30"/>
       <use xlink:href="#DejaVuSans-32" x="63.623047"/>
       <use xlink:href="#DejaVuSans-2d" x="127.246094"/>
       <use xlink:href="#DejaVuSans-32" x="163.330078"/>
       <use xlink:href="#DejaVuSans-36" x="226.953125"/>
       <use xlink:href="#DejaVuSans-20" x="290.576172"/>
       <use xlink:href="#DejaVuSans-30" x="322.363281"/>
       <use xlink:href="#DejaVuSans-34" x="385.986328"/>
      </g>
     </g>
    </g>
    <g id="xtick_39">
     <g id="line2d_51">
      <g>
       <use xlink:href="#mb4690c8801" x="655.521869" y="246.04" style="stroke: #000000; stroke-width: 0.8"/>
      </g>
     </g>
     <g id="text_39">
      <!-- 02-26 08 -->
      <g transform="translate(633.0414 260.638438) scale(0.1 -0.1)">
       <use xlink:href="#DejaVuSans-30"/>
       <use xlink:href="#DejaVuSans-32" x="63.623047"/>
       <use xlink:href="#DejaVuSans-2d" x="127.246094"/>
       <use xlink:href="#DejaVuSans-32" x="163.330078"/>
       <use xlink:href="#DejaVuSans-36" x="226.953125"/>
       <use xlink:href="#DejaVuSans-20" x="290.576172"/>
       <use xlink:href="#DejaVuSans-30" x="322.363281"/>
       <use xlink:href="#DejaVuSans-38" x="385.986328"/>
      </g>
     </g>
    </g>
    <g id="xtick_40">
     <g id="line2d_52">
      <g>
       <use xlink:href="#mb4690c8801" x="685.114523" y="246.04" style="stroke: #000000; stroke-width: 0.8"/>
      </g>
     </g>
     <g id="text_40">
      <!-- 02-26 12 -->
      <g transform="translate(662.634054 260.638438) scale(0.1 -0.1)">
       <use xlink:href="#DejaVuSans-30"/>
       <use xlink:href="#DejaVuSans-32" x="63.623047"/>
       <use xlink:href="#DejaVuSans-2d" x="127.246094"/>
       <use xlink:href="#DejaVuSans-32" x="163.330078"/>
       <use xlink:href="#DejaVuSans-36" x="226.953125"/>
       <use xlink:href="#DejaVuSans-20" x="290.576172"/>
       <use xlink:href="#DejaVuSans-31" x="322.363281"/>
       <use xlink:href="#DejaVuSans-32" x="385.986328"/>
      </g>
     </g>
    </g>
    <g id="text_41">
     <!-- time -->
     <g transform="translate(540.59086 274.316563) scale(0.1 -0.1)">
      <use xlink:href="#DejaVuSans-74"/>
      <use xlink:href="#DejaVuSans-69" x="39.208984"/>
      <use xlink:href="#DejaVuSans-6d" x="66.992188"/>
      <use xlink:href="#DejaVuSans-65" x="164.404297"/>
     </g>
    </g>
   </g>
   <g id="matplotlib.axis_8">
    <g id="ytick_10">
     <g id="line2d_53">
      <g>
       <use xlink:href="#m319b1ee4ba" x="405.47" y="241.832861" style="stroke: #000000; stroke-width: 0.8"/>
      </g>
     </g>
     <g id="text_42">
      <!-- 0 -->
      <g transform="translate(392.1075 245.63208) scale(0.1 -0.1)">
       <use xlink:href="#DejaVuSans-30"/>
      </g>
     </g>
    </g>
    <g id="ytick_11">
     <g id="line2d_54">
      <g>
       <use xlink:href="#m319b1ee4ba" x="405.47" y="198.481603" style="stroke: #000000; stroke-width: 0.8"/>
      </g>
     </g>
     <g id="text_43">
      <!-- 1 -->
      <g transform="translate(392.1075 202.280822) scale(0.1 -0.1)">
       <use xlink:href="#DejaVuSans-31"/>
      </g>
     </g>
    </g>
    <g id="ytick_12">
     <g id="line2d_55">
      <g>
       <use xlink:href="#m319b1ee4ba" x="405.47" y="155.130346" style="stroke: #000000; stroke-width: 0.8"/>
      </g>
     </g>
     <g id="text_44">
      <!-- 2 -->
      <g transform="translate(392.1075 158.929565) scale(0.1 -0.1)">
       <use xlink:href="#DejaVuSans-32"/>
      </g>
     </g>
    </g>
    <g id="text_45">
     <!-- depth (m) -->
     <g transform="translate(386.027813 224.676313) rotate(-90) scale(0.1 -0.1)">
      <use xlink:href="#DejaVuSans-64"/>
      <use xlink:href="#DejaVuSans-65" x="63.476562"/>
      <use xlink:href="#DejaVuSans-70" x="125"/>
      <use xlink:href="#DejaVuSans-74" x="188.476562"/>
      <use xlink:href="#DejaVuSans-68" x="227.685547"/>
      <use xlink:href="#DejaVuSans-20" x="291.064453"/>
      <use xlink:href="#DejaVuSans-28" x="322.851562"/>
      <use xlink:href="#DejaVuSans-6d" x="361.865234"/>
      <use xlink:href="#DejaVuSans-29" x="459.277344"/>
     </g>
    </g>
   </g>
   <g id="line2d_56">
    <path d="M 418.780632 241.832861 
L 428.523603 241.739609 
L 430.003235 241.464459 
L 431.427382 240.981136 
L 433.106354 240.145594 
L 434.343491 239.324892 
L 435.350464 238.428719 
L 436.53417 237.104679 
L 444.984517 226.70416 
L 445.520884 225.905622 
L 446.507305 224.824831 
L 447.456736 223.183044 
L 449.275452 220.17108 
L 449.678241 219.740413 
L 453.73901 211.701763 
L 454.538423 210.142395 
L 456.126973 206.698193 
L 457.440147 203.716799 
L 458.48411 200.989502 
L 466.757723 177.77921 
L 470.512291 169.295372 
L 472.065906 166.15086 
L 473.63185 163.55682 
L 474.821722 162.000807 
L 477.608363 159.112439 
L 479.344877 157.956385 
L 480.16073 157.719938 
L 481.110161 157.714052 
L 482.355518 157.961266 
L 483.191922 158.389018 
L 485.144215 159.810106 
L 486.673169 161.400196 
L 488.378857 163.555479 
L 490.004398 165.87631 
L 491.821058 168.870441 
L 495.353681 175.47277 
L 497.153901 179.209915 
L 501.111918 188.18846 
L 502.53401 191.417898 
L 503.713606 194.169375 
L 515.643145 223.120505 
L 517.640649 226.963696 
L 519.05452 229.195799 
L 520.217676 230.399327 
L 521.415767 231.326703 
L 522.909785 232.20797 
L 525.303913 233.296505 
L 528.121381 234.052999 
L 531.69305 234.769466 
L 539.572094 235.930739 
L 553.279247 237.562539 
L 577.534949 239.75182 
L 585.857883 240.170508 
L 592.146322 240.384718 
L 614.895675 240.826413 
L 674.635846 241.241422 
L 684.993275 241.279154 
L 684.993275 241.279154 
" clip-path="url(#pc0c6d23e60)" style="fill: none; stroke: #1f77b4; stroke-width: 1.5; stroke-linecap: square"/>
   </g>
   <g id="patch_18">
    <path d="M 405.47 246.04 
L 405.47 153.482939 
" style="fill: none; stroke: #000000; stroke-width: 0.8; stroke-linejoin: miter; stroke-linecap: square"/>
   </g>
   <g id="patch_19">
    <path d="M 698.303908 246.04 
L 698.303908 153.482939 
" style="fill: none; stroke: #000000; stroke-width: 0.8; stroke-linejoin: miter; stroke-linecap: square"/>
   </g>
   <g id="patch_20">
    <path d="M 405.47 246.04 
L 698.303908 246.04 
" style="fill: none; stroke: #000000; stroke-width: 0.8; stroke-linejoin: miter; stroke-linecap: square"/>
   </g>
   <g id="patch_21">
    <path d="M 405.47 153.482939 
L 698.303908 153.482939 
" style="fill: none; stroke: #000000; stroke-width: 0.8; stroke-linejoin: miter; stroke-linecap: square"/>
   </g>
   <g id="text_46">
    <!-- ('P2', 'depthN') -->
    <g transform="translate(487.834854 176.762552) scale(0.1728 -0.1728)">
     <use xlink:href="#DejaVuSans-28"/>
     <use xlink:href="#DejaVuSans-27" x="39.013672"/>
     <use xlink:href="#DejaVuSans-50" x="66.503906"/>
     <use xlink:href="#DejaVuSans-32" x="126.806641"/>
     <use xlink:href="#DejaVuSans-27" x="190.429688"/>
     <use xlink:href="#DejaVuSans-2c" x="217.919922"/>
     <use xlink:href="#DejaVuSans-20" x="249.707031"/>
     <use xlink:href="#DejaVuSans-27" x="281.494141"/>
     <use xlink:href="#DejaVuSans-64" x="308.984375"/>
     <use xlink:href="#DejaVuSans-65" x="372.460938"/>
     <use xlink:href="#DejaVuSans-70" x="433.984375"/>
     <use xlink:href="#DejaVuSans-74" x="497.460938"/>
     <use xlink:href="#DejaVuSans-68" x="536.669922"/>
     <use xlink:href="#DejaVuSans-4e" x="600.048828"/>
     <use xlink:href="#DejaVuSans-27" x="674.853516"/>
     <use xlink:href="#DejaVuSans-29" x="702.34375"/>
    </g>
   </g>
   <g id="text_47">
    <!-- cost: 5.50e+03 -->
    <g transform="translate(485.516904 204.52967) scale(0.1728 -0.1728)">
     <defs>
      <path id="DejaVuSans-3a" d="M 750 794 
L 1409 794 
L 1409 0 
L 750 0 
L 750 794 
z
M 750 3309 
L 1409 3309 
L 1409 2516 
L 750 2516 
L 750 3309 
z
" transform="scale(0.015625)"/>
      <path id="DejaVuSans-2b" d="M 2944 4013 
L 2944 2272 
L 4684 2272 
L 4684 1741 
L 2944 1741 
L 2944 0 
L 2419 0 
L 2419 1741 
L 678 1741 
L 678 2272 
L 2419 2272 
L 2419 4013 
L 2944 4013 
z
" transform="scale(0.015625)"/>
      <path id="DejaVuSans-33" d="M 2597 2516 
Q 3050 2419 3304 2112 
Q 3559 1806 3559 1356 
Q 3559 666 3084 287 
Q 2609 -91 1734 -91 
Q 1441 -91 1130 -33 
Q 819 25 488 141 
L 488 750 
Q 750 597 1062 519 
Q 1375 441 1716 441 
Q 2309 441 2620 675 
Q 2931 909 2931 1356 
Q 2931 1769 2642 2001 
Q 2353 2234 1838 2234 
L 1294 2234 
L 1294 2753 
L 1863 2753 
Q 2328 2753 2575 2939 
Q 2822 3125 2822 3475 
Q 2822 3834 2567 4026 
Q 2313 4219 1838 4219 
Q 1578 4219 1281 4162 
Q 984 4106 628 3988 
L 628 4550 
Q 988 4650 1302 4700 
Q 1616 4750 1894 4750 
Q 2613 4750 3031 4423 
Q 3450 4097 3450 3541 
Q 3450 3153 3228 2886 
Q 3006 2619 2597 2516 
z
" transform="scale(0.015625)"/>
     </defs>
     <use xlink:href="#DejaVuSans-63"/>
     <use xlink:href="#DejaVuSans-6f" x="54.980469"/>
     <use xlink:href="#DejaVuSans-73" x="116.162109"/>
     <use xlink:href="#DejaVuSans-74" x="168.261719"/>
     <use xlink:href="#DejaVuSans-3a" x="207.470703"/>
     <use xlink:href="#DejaVuSans-20" x="241.162109"/>
     <use xlink:href="#DejaVuSans-35" x="272.949219"/>
     <use xlink:href="#DejaVuSans-2e" x="336.572266"/>
     <use xlink:href="#DejaVuSans-35" x="368.359375"/>
     <use xlink:href="#DejaVuSans-30" x="431.982422"/>
     <use xlink:href="#DejaVuSans-65" x="495.605469"/>
     <use xlink:href="#DejaVuSans-2b" x="557.128906"/>
     <use xlink:href="#DejaVuSans-30" x="640.917969"/>
     <use xlink:href="#DejaVuSans-33" x="704.541016"/>
    </g>
   </g>
  </g>
 </g>
 <defs>
  <clipPath id="p59af2312f5">
   <rect x="54.02" y="26.88" width="292.833908" height="92.557061"/>
  </clipPath>
  <clipPath id="p1eca1ac096">
   <rect x="405.47" y="26.88" width="292.833908" height="92.557061"/>
  </clipPath>
  <clipPath id="p493521e2d5">
   <rect x="54.02" y="153.482939" width="292.833908" height="92.557061"/>
  </clipPath>
  <clipPath id="pc0c6d23e60">
   <rect x="405.47" y="153.482939" width="292.833908" height="92.557061"/>
  </clipPath>
 </defs>
</svg>
