<?xml version="1.0" encoding="utf-8" standalone="no"?>
<!DOCTYPE svg PUBLIC "-//W3C//DTD SVG 1.1//EN"
  "http://www.w3.org/Graphics/SVG/1.1/DTD/svg11.dtd">
<svg xmlns:xlink="http://www.w3.org/1999/xlink" width="720pt" height="288pt" viewBox="0 0 720 288" xmlns="http://www.w3.org/2000/svg" version="1.1">
 <metadata>
  <rdf:RDF xmlns:dc="http://purl.org/dc/elements/1.1/" xmlns:cc="http://creativecommons.org/ns#" xmlns:rdf="http://www.w3.org/1999/02/22-rdf-syntax-ns#">
   <cc:Work>
    <dc:type rdf:resource="http://purl.org/dc/dcmitype/StillImage"/>
    <dc:date>2025-02-17T13:35:41.184098</dc:date>
    <dc:format>image/svg+xml</dc:format>
    <dc:creator>
     <cc:Agent>
      <dc:title>Matplotlib v3.9.4, https://matplotlib.org/</dc:title>
     </cc:Agent>
    </dc:creator>
   </cc:Work>
  </rdf:RDF>
 </metadata>
 <defs>
  <style type="text/css">*{stroke-linejoin: round; stroke-linecap: butt}</style>
 </defs>
 <g id="figure_1">
  <g id="patch_1">
   <path d="M 0 288 
L 720 288 
L 720 0 
L 0 0 
z
" style="fill: #ffffff"/>
  </g>
  <g id="axes_1">
   <g id="patch_2">
    <path d="M 53.93 120.52 
L 354.555 120.52 
L 354.555 26.88 
L 53.93 26.88 
z
" style="fill: #ffffff"/>
   </g>
   <g id="matplotlib.axis_1">
    <g id="xtick_1">
     <g id="line2d_1">
      <defs>
       <path id="m8d8b7575d3" d="M 0 0 
L 0 3.5 
" style="stroke: #000000; stroke-width: 0.8"/>
      </defs>
      <g>
       <use xlink:href="#m8d8b7575d3" x="67.594773" y="120.52" style="stroke: #000000; stroke-width: 0.8"/>
      </g>
     </g>
    </g>
    <g id="xtick_2">
     <g id="line2d_2">
      <g>
       <use xlink:href="#m8d8b7575d3" x="109.649513" y="120.52" style="stroke: #000000; stroke-width: 0.8"/>
      </g>
     </g>
    </g>
    <g id="xtick_3">
     <g id="line2d_3">
      <g>
       <use xlink:href="#m8d8b7575d3" x="151.704253" y="120.52" style="stroke: #000000; stroke-width: 0.8"/>
      </g>
     </g>
    </g>
    <g id="xtick_4">
     <g id="line2d_4">
      <g>
       <use xlink:href="#m8d8b7575d3" x="193.758993" y="120.52" style="stroke: #000000; stroke-width: 0.8"/>
      </g>
     </g>
    </g>
    <g id="xtick_5">
     <g id="line2d_5">
      <g>
       <use xlink:href="#m8d8b7575d3" x="235.813733" y="120.52" style="stroke: #000000; stroke-width: 0.8"/>
      </g>
     </g>
    </g>
    <g id="xtick_6">
     <g id="line2d_6">
      <g>
       <use xlink:href="#m8d8b7575d3" x="277.868473" y="120.52" style="stroke: #000000; stroke-width: 0.8"/>
      </g>
     </g>
    </g>
    <g id="xtick_7">
     <g id="line2d_7">
      <g>
       <use xlink:href="#m8d8b7575d3" x="319.923214" y="120.52" style="stroke: #000000; stroke-width: 0.8"/>
      </g>
     </g>
    </g>
    <g id="text_1">
     <!-- time -->
     <g transform="translate(192.946406 139.118437) scale(0.1 -0.1)">
      <defs>
       <path id="DejaVuSans-74" d="M 1172 4494 
L 1172 3500 
L 2356 3500 
L 2356 3053 
L 1172 3053 
L 1172 1153 
Q 1172 725 1289 603 
Q 1406 481 1766 481 
L 2356 481 
L 2356 0 
L 1766 0 
Q 1100 0 847 248 
Q 594 497 594 1153 
L 594 3053 
L 172 3053 
L 172 3500 
L 594 3500 
L 594 4494 
L 1172 4494 
z
" transform="scale(0.015625)"/>
       <path id="DejaVuSans-69" d="M 603 3500 
L 1178 3500 
L 1178 0 
L 603 0 
L 603 3500 
z
M 603 4863 
L 1178 4863 
L 1178 4134 
L 603 4134 
L 603 4863 
z
" transform="scale(0.015625)"/>
       <path id="DejaVuSans-6d" d="M 3328 2828 
Q 3544 3216 3844 3400 
Q 4144 3584 4550 3584 
Q 5097 3584 5394 3201 
Q 5691 2819 5691 2113 
L 5691 0 
L 5113 0 
L 5113 2094 
Q 5113 2597 4934 2840 
Q 4756 3084 4391 3084 
Q 3944 3084 3684 2787 
Q 3425 2491 3425 1978 
L 3425 0 
L 2847 0 
L 2847 2094 
Q 2847 2600 2669 2842 
Q 2491 3084 2119 3084 
Q 1678 3084 1418 2786 
Q 1159 2488 1159 1978 
L 1159 0 
L 581 0 
L 581 3500 
L 1159 3500 
L 1159 2956 
Q 1356 3278 1631 3431 
Q 1906 3584 2284 3584 
Q 2666 3584 2933 3390 
Q 3200 3197 3328 2828 
z
" transform="scale(0.015625)"/>
       <path id="DejaVuSans-65" d="M 3597 1894 
L 3597 1613 
L 953 1613 
Q 991 1019 1311 708 
Q 1631 397 2203 397 
Q 2534 397 2845 478 
Q 3156 559 3463 722 
L 3463 178 
Q 3153 47 2828 -22 
Q 2503 -91 2169 -91 
Q 1331 -91 842 396 
Q 353 884 353 1716 
Q 353 2575 817 3079 
Q 1281 3584 2069 3584 
Q 2775 3584 3186 3129 
Q 3597 2675 3597 1894 
z
M 3022 2063 
Q 3016 2534 2758 2815 
Q 2500 3097 2075 3097 
Q 1594 3097 1305 2825 
Q 1016 2553 972 2059 
L 3022 2063 
z
" transform="scale(0.015625)"/>
      </defs>
      <use xlink:href="#DejaVuSans-74"/>
      <use xlink:href="#DejaVuSans-69" x="39.208984"/>
      <use xlink:href="#DejaVuSans-6d" x="66.992188"/>
      <use xlink:href="#DejaVuSans-65" x="164.404297"/>
     </g>
    </g>
   </g>
   <g id="matplotlib.axis_2">
    <g id="ytick_1">
     <g id="line2d_8">
      <defs>
       <path id="m84447278ed" d="M 0 0 
L -3.5 0 
" style="stroke: #000000; stroke-width: 0.8"/>
      </defs>
      <g>
       <use xlink:href="#m84447278ed" x="53.93" y="116.263636" style="stroke: #000000; stroke-width: 0.8"/>
      </g>
     </g>
     <g id="text_2">
      <!-- 0.0 -->
      <g transform="translate(31.026875 120.062855) scale(0.1 -0.1)">
       <defs>
        <path id="DejaVuSans-30" d="M 2034 4250 
Q 1547 4250 1301 3770 
Q 1056 3291 1056 2328 
Q 1056 1369 1301 889 
Q 1547 409 2034 409 
Q 2525 409 2770 889 
Q 3016 1369 3016 2328 
Q 3016 3291 2770 3770 
Q 2525 4250 2034 4250 
z
M 2034 4750 
Q 2819 4750 3233 4129 
Q 3647 3509 3647 2328 
Q 3647 1150 3233 529 
Q 2819 -91 2034 -91 
Q 1250 -91 836 529 
Q 422 1150 422 2328 
Q 422 3509 836 4129 
Q 1250 4750 2034 4750 
z
" transform="scale(0.015625)"/>
        <path id="DejaVuSans-2e" d="M 684 794 
L 1344 794 
L 1344 0 
L 684 0 
L 684 794 
z
" transform="scale(0.015625)"/>
       </defs>
       <use xlink:href="#DejaVuSans-30"/>
       <use xlink:href="#DejaVuSans-2e" x="63.623047"/>
       <use xlink:href="#DejaVuSans-30" x="95.410156"/>
      </g>
     </g>
    </g>
    <g id="ytick_2">
     <g id="line2d_9">
      <g>
       <use xlink:href="#m84447278ed" x="53.93" y="79.421063" style="stroke: #000000; stroke-width: 0.8"/>
      </g>
     </g>
     <g id="text_3">
      <!-- 0.2 -->
      <g transform="translate(31.026875 83.220282) scale(0.1 -0.1)">
       <defs>
        <path id="DejaVuSans-32" d="M 1228 531 
L 3431 531 
L 3431 0 
L 469 0 
L 469 531 
Q 828 903 1448 1529 
Q 2069 2156 2228 2338 
Q 2531 2678 2651 2914 
Q 2772 3150 2772 3378 
Q 2772 3750 2511 3984 
Q 2250 4219 1831 4219 
Q 1534 4219 1204 4116 
Q 875 4013 500 3803 
L 500 4441 
Q 881 4594 1212 4672 
Q 1544 4750 1819 4750 
Q 2544 4750 2975 4387 
Q 3406 4025 3406 3419 
Q 3406 3131 3298 2873 
Q 3191 2616 2906 2266 
Q 2828 2175 2409 1742 
Q 1991 1309 1228 531 
z
" transform="scale(0.015625)"/>
       </defs>
       <use xlink:href="#DejaVuSans-30"/>
       <use xlink:href="#DejaVuSans-2e" x="63.623047"/>
       <use xlink:href="#DejaVuSans-32" x="95.410156"/>
      </g>
     </g>
    </g>
    <g id="ytick_3">
     <g id="line2d_10">
      <g>
       <use xlink:href="#m84447278ed" x="53.93" y="42.57849" style="stroke: #000000; stroke-width: 0.8"/>
      </g>
     </g>
     <g id="text_4">
      <!-- 0.4 -->
      <g transform="translate(31.026875 46.377709) scale(0.1 -0.1)">
       <defs>
        <path id="DejaVuSans-34" d="M 2419 4116 
L 825 1625 
L 2419 1625 
L 2419 4116 
z
M 2253 4666 
L 3047 4666 
L 3047 1625 
L 3713 1625 
L 3713 1100 
L 3047 1100 
L 3047 0 
L 2419 0 
L 2419 1100 
L 313 1100 
L 313 1709 
L 2253 4666 
z
" transform="scale(0.015625)"/>
       </defs>
       <use xlink:href="#DejaVuSans-30"/>
       <use xlink:href="#DejaVuSans-2e" x="63.623047"/>
       <use xlink:href="#DejaVuSans-34" x="95.410156"/>
      </g>
     </g>
    </g>
    <g id="text_5">
     <!-- flow (cms) -->
     <g transform="translate(24.947188 99.7125) rotate(-90) scale(0.1 -0.1)">
      <defs>
       <path id="DejaVuSans-66" d="M 2375 4863 
L 2375 4384 
L 1825 4384 
Q 1516 4384 1395 4259 
Q 1275 4134 1275 3809 
L 1275 3500 
L 2222 3500 
L 2222 3053 
L 1275 3053 
L 1275 0 
L 697 0 
L 697 3053 
L 147 3053 
L 147 3500 
L 697 3500 
L 697 3744 
Q 697 4328 969 4595 
Q 1241 4863 1831 4863 
L 2375 4863 
z
" transform="scale(0.015625)"/>
       <path id="DejaVuSans-6c" d="M 603 4863 
L 1178 4863 
L 1178 0 
L 603 0 
L 603 4863 
z
" transform="scale(0.015625)"/>
       <path id="DejaVuSans-6f" d="M 1959 3097 
Q 1497 3097 1228 2736 
Q 959 2375 959 1747 
Q 959 1119 1226 758 
Q 1494 397 1959 397 
Q 2419 397 2687 759 
Q 2956 1122 2956 1747 
Q 2956 2369 2687 2733 
Q 2419 3097 1959 3097 
z
M 1959 3584 
Q 2709 3584 3137 3096 
Q 3566 2609 3566 1747 
Q 3566 888 3137 398 
Q 2709 -91 1959 -91 
Q 1206 -91 779 398 
Q 353 888 353 1747 
Q 353 2609 779 3096 
Q 1206 3584 1959 3584 
z
" transform="scale(0.015625)"/>
       <path id="DejaVuSans-77" d="M 269 3500 
L 844 3500 
L 1563 769 
L 2278 3500 
L 2956 3500 
L 3675 769 
L 4391 3500 
L 4966 3500 
L 4050 0 
L 3372 0 
L 2619 2869 
L 1863 0 
L 1184 0 
L 269 3500 
z
" transform="scale(0.015625)"/>
       <path id="DejaVuSans-20" transform="scale(0.015625)"/>
       <path id="DejaVuSans-28" d="M 1984 4856 
Q 1566 4138 1362 3434 
Q 1159 2731 1159 2009 
Q 1159 1288 1364 580 
Q 1569 -128 1984 -844 
L 1484 -844 
Q 1016 -109 783 600 
Q 550 1309 550 2009 
Q 550 2706 781 3412 
Q 1013 4119 1484 4856 
L 1984 4856 
z
" transform="scale(0.015625)"/>
       <path id="DejaVuSans-63" d="M 3122 3366 
L 3122 2828 
Q 2878 2963 2633 3030 
Q 2388 3097 2138 3097 
Q 1578 3097 1268 2742 
Q 959 2388 959 1747 
Q 959 1106 1268 751 
Q 1578 397 2138 397 
Q 2388 397 2633 464 
Q 2878 531 3122 666 
L 3122 134 
Q 2881 22 2623 -34 
Q 2366 -91 2075 -91 
Q 1284 -91 818 406 
Q 353 903 353 1747 
Q 353 2603 823 3093 
Q 1294 3584 2113 3584 
Q 2378 3584 2631 3529 
Q 2884 3475 3122 3366 
z
" transform="scale(0.015625)"/>
       <path id="DejaVuSans-73" d="M 2834 3397 
L 2834 2853 
Q 2591 2978 2328 3040 
Q 2066 3103 1784 3103 
Q 1356 3103 1142 2972 
Q 928 2841 928 2578 
Q 928 2378 1081 2264 
Q 1234 2150 1697 2047 
L 1894 2003 
Q 2506 1872 2764 1633 
Q 3022 1394 3022 966 
Q 3022 478 2636 193 
Q 2250 -91 1575 -91 
Q 1294 -91 989 -36 
Q 684 19 347 128 
L 347 722 
Q 666 556 975 473 
Q 1284 391 1588 391 
Q 1994 391 2212 530 
Q 2431 669 2431 922 
Q 2431 1156 2273 1281 
Q 2116 1406 1581 1522 
L 1381 1569 
Q 847 1681 609 1914 
Q 372 2147 372 2553 
Q 372 3047 722 3315 
Q 1072 3584 1716 3584 
Q 2034 3584 2315 3537 
Q 2597 3491 2834 3397 
z
" transform="scale(0.015625)"/>
       <path id="DejaVuSans-29" d="M 513 4856 
L 1013 4856 
Q 1481 4119 1714 3412 
Q 1947 2706 1947 2009 
Q 1947 1309 1714 600 
Q 1481 -109 1013 -844 
L 513 -844 
Q 928 -128 1133 580 
Q 1338 1288 1338 2009 
Q 1338 2731 1133 3434 
Q 928 4138 513 4856 
z
" transform="scale(0.015625)"/>
      </defs>
      <use xlink:href="#DejaVuSans-66"/>
      <use xlink:href="#DejaVuSans-6c" x="35.205078"/>
      <use xlink:href="#DejaVuSans-6f" x="62.988281"/>
      <use xlink:href="#DejaVuSans-77" x="124.169922"/>
      <use xlink:href="#DejaVuSans-20" x="205.957031"/>
      <use xlink:href="#DejaVuSans-28" x="237.744141"/>
      <use xlink:href="#DejaVuSans-63" x="276.757812"/>
      <use xlink:href="#DejaVuSans-6d" x="331.738281"/>
      <use xlink:href="#DejaVuSans-73" x="429.150391"/>
      <use xlink:href="#DejaVuSans-29" x="481.25"/>
     </g>
    </g>
   </g>
   <g id="line2d_11">
    <path d="M 67.594773 116.263636 
L 72.210086 116.161625 
L 72.648156 115.848468 
L 73.17384 115.129461 
L 73.725809 113.876916 
L 73.999359 113.204421 
L 74.064583 113.472727 
L 74.255387 112.519851 
L 74.316717 112.365257 
L 74.438403 113.192099 
L 74.500706 112.975266 
L 74.89789 111.782227 
L 75.110111 108.913658 
L 75.177281 108.692002 
L 75.242505 110.165711 
L 75.309676 109.798099 
L 75.509241 108.755672 
L 75.698098 106.447802 
L 75.758454 106.125301 
L 75.890849 104.114407 
L 76.032005 103.60208 
L 76.102096 105.533615 
L 76.173161 105.116019 
L 76.314317 103.986062 
L 76.383435 104.249981 
L 76.451579 99.995606 
L 76.517776 100.012891 
L 76.646277 99.717844 
L 76.774777 101.046421 
L 76.903278 100.157867 
L 77.029832 102.393198 
L 77.094082 101.675074 
L 77.220635 100.411217 
L 77.282939 97.352789 
L 77.344269 100.076536 
L 77.405598 99.49148 
L 77.527285 98.436257 
L 77.586667 91.969552 
L 77.656759 94.809587 
L 77.794994 94.486849 
L 77.863138 91.48114 
L 77.932256 97.585094 
L 78.001374 96.903527 
L 78.071465 96.286268 
L 78.140583 88.722718 
L 78.207754 95.760599 
L 78.275898 94.975644 
L 78.410239 93.760268 
L 78.541661 89.384471 
L 78.670161 89.040328 
L 78.734411 83.293684 
L 78.796715 89.721723 
L 78.860965 89.214514 
L 78.987519 88.22957 
L 79.114072 90.285245 
L 79.545328 85.299464 
L 79.606658 81.818327 
L 79.667014 84.884216 
L 79.726397 84.286063 
L 79.846136 83.174057 
L 79.905519 73.523933 
L 79.973663 80.640874 
L 80.033046 80.374073 
L 80.151812 79.805608 
L 80.219956 75.813386 
L 80.2881 81.582344 
L 80.356245 80.845297 
L 80.415628 80.2562 
L 80.483772 77.679425 
L 80.551916 78.094754 
L 80.754402 76.397735 
L 80.88777 78.773092 
L 81.091229 75.646227 
L 81.225571 76.013577 
L 81.291768 75.461766 
L 81.357965 69.446354 
L 81.424163 73.863509 
L 81.489386 73.532001 
L 81.619834 72.894922 
L 81.748334 58.299628 
L 81.936218 70.789299 
L 82.001442 81.74456 
L 82.068612 79.85496 
L 82.53102 67.357329 
L 82.660494 67.561629 
L 82.788995 67.656229 
L 82.853245 68.955154 
L 82.917495 67.15346 
L 82.981745 67.169137 
L 83.046969 67.141488 
L 83.11122 71.837661 
L 83.17547 65.47317 
L 83.23972 65.726979 
L 83.367247 65.884064 
L 83.430524 70.214316 
L 83.494774 67.771195 
L 83.622301 67.028783 
L 83.750802 70.410544 
L 83.815052 69.460187 
L 83.944526 67.957987 
L 84.07108 64.045527 
L 84.198607 64.000428 
L 84.324187 66.000487 
L 84.514018 64.455242 
L 84.577295 57.633105 
L 84.639598 65.361499 
L 84.703848 64.884218 
L 84.830402 64.032702 
L 84.893679 61.860661 
L 84.956955 64.438132 
L 85.020232 63.945881 
L 85.082536 63.515623 
L 85.145812 58.272408 
L 85.209089 63.105707 
L 85.271392 62.614591 
L 85.396973 62.006573 
L 85.460249 60.209602 
L 85.522553 63.608618 
L 85.585829 63.025762 
L 85.648133 62.506639 
L 85.71141 60.076792 
L 85.773713 61.801971 
L 85.961596 60.812109 
L 86.086203 57.283705 
L 86.147533 57.511535 
L 86.271166 57.79343 
L 86.332496 57.581345 
L 86.393826 57.811788 
L 86.455155 57.793031 
L 86.577815 57.721315 
L 86.639145 60.622762 
L 86.762778 57.683163 
L 86.887385 57.099678 
L 86.948715 54.699948 
L 87.010044 55.416639 
L 87.195007 56.013393 
L 87.256337 46.862821 
L 87.31572 48.339385 
L 87.436433 50.886026 
L 87.496789 49.395214 
L 87.557145 55.404412 
L 87.618475 55.232106 
L 87.741135 54.976136 
L 87.802465 62.141652 
L 87.864768 56.713456 
L 88.048758 55.501859 
L 88.110087 57.084726 
L 88.294077 54.609069 
L 88.354433 55.028844 
L 88.415763 31.136364 
L 88.482934 38.431001 
L 88.617275 44.586819 
L 88.739935 65.498967 
L 89.050478 57.163322 
L 89.173138 56.14027 
L 89.234468 56.788816 
L 89.295797 54.57051 
L 89.357127 54.609254 
L 89.479787 54.735282 
L 89.540143 53.025184 
L 89.601473 57.811748 
L 89.662803 57.452483 
L 89.785463 56.928727 
L 89.907149 54.761163 
L 90.334511 56.095822 
L 90.39584 55.966526 
L 90.456197 58.342215 
L 90.517527 57.838361 
L 90.64116 57.634352 
L 90.764793 55.419097 
L 90.826123 55.758498 
L 90.948782 56.327066 
L 91.071442 59.458077 
L 91.256405 58.678548 
L 91.318708 52.055265 
L 91.379065 52.361942 
L 91.500751 54.221024 
L 91.561107 49.586204 
L 91.745097 55.86995 
L 91.806426 56.243788 
L 91.866783 61.361787 
L 91.929086 58.96216 
L 92.114049 58.49384 
L 92.236709 62.08914 
L 92.299012 61.546102 
L 92.423619 60.83061 
L 92.545305 45.688453 
L 92.910363 60.007508 
L 92.971693 60.479656 
L 93.095326 66.695386 
L 93.284183 65.426252 
L 93.34746 65.847614 
L 93.410737 64.445114 
L 93.47304 64.474904 
L 93.535344 64.529696 
L 93.660924 60.052119 
L 93.723227 60.228984 
L 93.84686 62.162391 
L 93.909163 69.325437 
L 93.97244 62.46266 
L 94.034744 63.431764 
L 94.15935 64.562998 
L 94.285904 71.537485 
L 94.413431 70.253339 
L 94.539985 61.553301 
L 94.790171 68.497273 
L 94.853448 73.59287 
L 94.917698 72.682679 
L 95.046199 71.514193 
L 95.109476 68.906628 
L 95.173726 72.726414 
L 95.237976 72.161158 
L 95.301253 71.715055 
L 95.365504 64.664449 
L 95.427807 68.867862 
L 95.491084 68.862395 
L 95.617637 69.185411 
L 95.743217 53.672639 
L 95.927207 62.923751 
L 96.055708 78.241841 
L 96.186155 76.745841 
L 96.314656 63.327965 
L 96.376959 65.687501 
L 96.566789 71.40127 
L 96.632013 77.934483 
L 96.697237 77.682129 
L 96.762461 77.525888 
L 96.827685 74.590421 
L 96.957159 78.042628 
L 97.087606 78.109333 
L 97.15283 71.907209 
L 97.21708 75.211435 
L 97.410805 77.873341 
L 97.476028 82.96676 
L 97.542226 82.684274 
L 97.806041 81.532674 
L 97.871265 81.555761 
L 97.937462 81.615678 
L 98.00366 83.465178 
L 98.069857 78.532172 
L 98.135081 79.249587 
L 98.265528 80.476318 
L 98.331726 77.749801 
L 98.397923 78.969043 
L 98.52837 80.638243 
L 98.593594 87.370431 
L 98.659792 77.696494 
L 98.725989 79.114357 
L 98.791213 80.2543 
L 98.856436 83.666816 
L 98.923607 81.015045 
L 98.989804 82.117875 
L 99.122199 83.373126 
L 99.188396 92.845665 
L 99.256541 90.677842 
L 99.460973 87.857774 
L 99.528144 85.444544 
L 99.595315 85.709983 
L 99.728683 86.271645 
L 99.795854 81.394463 
L 99.862051 82.819527 
L 99.995419 84.739992 
L 100.061616 93.150841 
L 100.12976 85.370165 
L 100.196931 86.032519 
L 100.264102 86.611832 
L 100.399417 92.90917 
L 100.467561 92.066371 
L 100.595088 91.417803 
L 100.663233 88.855718 
L 100.731377 90.675402 
L 100.799521 90.620547 
L 100.867665 90.597457 
L 101.003954 85.752194 
L 101.071125 86.771369 
L 101.138295 87.610581 
L 101.205466 90.80277 
L 101.264849 87.839354 
L 101.332993 88.673246 
L 101.536453 90.876111 
L 101.595835 90.044995 
L 101.732124 90.817528 
L 101.791507 95.771959 
L 101.85089 90.13118 
L 101.919034 90.947109 
L 102.046561 91.589129 
L 102.105944 94.084812 
L 102.165327 91.597789 
L 102.233471 91.891575 
L 102.292854 92.149679 
L 102.360998 94.145215 
L 102.420381 92.845822 
L 102.479764 92.341817 
L 102.539147 92.597719 
L 102.598529 92.83203 
L 102.72703 99.018513 
L 102.909073 97.48713 
L 102.969429 94.356092 
L 103.028812 95.351096 
L 103.207934 95.221691 
L 103.267317 97.456243 
L 103.3267 90.101832 
L 103.394844 91.15755 
L 103.709281 93.650847 
L 104.066551 95.285122 
L 104.125934 98.308262 
L 104.186291 97.548095 
L 104.307977 97.438622 
L 104.368333 97.368316 
L 104.428689 98.821627 
L 104.489046 94.855903 
L 104.548429 95.204143 
L 104.668168 95.822096 
L 104.728524 99.335766 
L 104.788881 95.729731 
L 104.849237 96.078926 
L 104.968976 96.564424 
L 105.029332 99.737577 
L 105.090662 97.531737 
L 105.271731 97.755635 
L 105.333061 99.975286 
L 105.393417 96.990445 
L 105.453774 97.193168 
L 105.51413 97.400721 
L 105.573513 98.037434 
L 105.634843 102.269588 
L 105.696173 101.401885 
L 105.818832 100.822564 
L 105.880162 97.579773 
L 105.941492 102.090547 
L 106.002822 101.936273 
L 106.126455 101.367971 
L 106.187785 95.862457 
L 106.249115 101.887898 
L 106.310444 101.594518 
L 106.433104 101.19005 
L 106.494434 97.982559 
L 106.55479 99.893112 
L 106.736833 99.933933 
L 106.798163 98.999632 
L 106.919849 99.854979 
L 107.042508 100.027169 
L 107.103838 99.29646 
L 107.165168 99.350922 
L 107.288801 99.674807 
L 107.350131 97.613894 
L 107.470844 100.15078 
L 107.593503 100.36103 
L 107.654833 99.278318 
L 107.774572 101.020506 
L 107.898206 101.100645 
L 107.962456 100.507571 
L 108.02768 98.378015 
L 108.089009 98.846043 
L 108.21459 100.068491 
L 108.276893 103.811705 
L 108.339196 103.562819 
L 108.469644 103.20757 
L 108.535841 100.37603 
L 108.600091 103.551826 
L 108.665315 103.398382 
L 108.731512 103.264318 
L 108.798683 102.459267 
L 108.86488 99.846473 
L 108.930104 100.17297 
L 109.130643 101.133556 
L 109.197814 99.672118 
L 109.257197 100.112792 
L 109.375962 101.559414 
L 109.436319 105.501218 
L 109.498622 105.349646 
L 109.624202 104.895296 
L 109.688452 102.38924 
L 109.751729 104.576535 
L 109.81598 104.436524 
L 109.946427 104.217409 
L 110.010677 98.952425 
L 110.075901 99.863246 
L 110.274493 102.200877 
L 110.408835 102.037643 
L 110.476005 102.332247 
L 110.54415 103.249929 
L 110.613267 102.766655 
L 111.166209 104.525456 
L 111.225592 105.627258 
L 111.284975 105.49532 
L 111.405688 105.320754 
L 111.466044 106.430234 
L 111.5264 105.770981 
L 111.647113 105.585198 
L 111.706496 104.834653 
L 111.827209 106.597036 
L 111.888538 106.464652 
L 112.010225 106.092414 
L 112.071554 101.920925 
L 112.131911 102.681104 
L 112.311033 104.255608 
L 112.371389 106.58427 
L 112.433692 106.449695 
L 112.558299 106.282136 
L 112.681932 103.629847 
L 112.868842 104.460646 
L 112.932119 105.862408 
L 112.994422 104.746723 
L 113.057699 104.904093 
L 113.120002 105.066385 
L 113.183279 106.088796 
L 113.246556 105.859583 
L 113.435413 106.025371 
L 113.563914 108.23529 
L 113.629137 108.046407 
L 113.695335 107.885319 
L 113.826756 105.144056 
L 113.891006 105.404271 
L 114.02048 105.734932 
L 114.08473 105.692618 
L 114.148981 105.396246 
L 114.212257 105.619974 
L 114.339785 105.94701 
L 114.470232 108.487683 
L 114.602627 108.222307 
L 114.733074 105.634671 
L 114.798298 105.836165 
L 115.257785 107.523062 
L 115.324956 109.105339 
L 115.394074 108.975713 
L 115.463191 108.8409 
L 115.533283 107.257233 
L 115.601427 108.956144 
L 115.669571 108.70198 
L 115.738689 108.61403 
L 115.806833 107.804979 
L 115.874977 107.899585 
L 116.009319 107.847918 
L 116.07649 107.881355 
L 116.210831 106.472315 
L 116.278002 106.70673 
L 116.345173 106.92616 
L 116.481461 109.555557 
L 116.551552 109.408198 
L 116.622617 109.307635 
L 116.692708 107.848736 
L 116.7628 109.26929 
L 116.832891 109.167456 
L 116.902009 109.110825 
L 116.9721 108.30564 
L 117.041218 109.42355 
L 117.110335 109.166294 
L 117.251491 109.095283 
L 117.529909 109.25395 
L 117.6 107.08855 
L 117.739209 109.00125 
L 117.810274 109.020307 
L 117.881339 107.465116 
L 118.020548 108.856078 
L 118.089666 108.908998 
L 118.159757 107.660069 
L 118.228875 108.912218 
L 118.297992 108.880096 
L 118.368084 108.947662 
L 118.438175 108.512563 
L 118.508266 107.174043 
L 118.577384 107.675453 
L 118.784737 108.783733 
L 118.924919 108.669975 
L 118.995011 108.823782 
L 119.066075 109.929923 
L 119.138114 108.959345 
L 119.210152 109.073964 
L 119.283164 109.195544 
L 119.356175 109.96949 
L 119.428213 109.388073 
L 119.501225 109.470578 
L 119.574237 109.558255 
L 119.721234 110.227213 
L 119.867257 110.237207 
L 119.940269 110.022751 
L 119.999652 111.301598 
L 120.059035 111.217866 
L 120.118417 111.148234 
L 120.238157 109.488678 
L 120.383206 109.639153 
L 120.808621 110.495255 
L 120.868004 111.072571 
L 120.928361 111.043968 
L 121.049073 111.007652 
L 121.169786 110.202461 
L 121.229169 110.271721 
L 121.288552 110.346063 
L 121.470594 111.708237 
L 121.532897 111.657928 
L 121.594227 111.611019 
L 121.656531 110.893062 
L 121.71786 110.935813 
L 121.900876 110.981931 
L 122.022563 110.381189 
L 122.083892 110.487044 
L 122.204605 110.666361 
L 122.328238 112.412295 
L 122.519042 112.204284 
L 122.583292 110.303471 
L 122.644622 110.628052 
L 122.768255 110.826873 
L 122.830559 110.757254 
L 122.892862 110.727986 
L 123.140128 111.132771 
L 123.642449 111.582795 
L 123.769976 112.906275 
L 123.8352 112.759884 
L 123.967594 112.664184 
L 124.099015 112.449586 
L 124.230436 112.41371 
L 124.29566 111.439434 
L 124.360884 112.169658 
L 124.426108 112.123025 
L 124.556555 112.161069 
L 124.621779 111.394465 
L 124.686029 111.543954 
L 124.816477 111.727768 
L 124.881701 112.332938 
L 124.947898 111.848589 
L 125.012148 111.927189 
L 125.142596 112.054874 
L 125.208793 112.353274 
L 125.274017 112.129226 
L 125.340214 112.168926 
L 125.406412 112.221632 
L 125.538806 113.229219 
L 125.675095 113.140479 
L 125.878554 112.665835 
L 126.013869 112.707346 
L 126.08104 112.2313 
L 126.14821 112.332411 
L 126.620353 112.714442 
L 126.688497 113.630534 
L 126.758588 113.540708 
L 126.829653 113.510397 
L 127.038953 112.673603 
L 127.108071 112.723816 
L 127.45658 112.984971 
L 127.527645 113.428066 
L 127.59871 113.045158 
L 127.670748 113.093113 
L 127.741813 113.133587 
L 127.813851 113.514041 
L 127.885889 113.185716 
L 127.956954 113.226825 
L 128.028992 113.262525 
L 128.102004 113.935428 
L 128.175015 113.761235 
L 128.396971 113.854843 
L 128.470956 113.248806 
L 128.542994 113.295384 
L 128.616006 113.342677 
L 128.689018 113.780918 
L 128.762029 113.757971 
L 128.910973 113.758806 
L 128.985932 113.986424 
L 129.060891 113.439691 
L 129.133902 113.487722 
L 129.207887 113.532872 
L 129.356831 114.374583 
L 129.433737 114.343898 
L 129.665427 114.379835 
L 129.743307 114.361374 
L 129.896144 113.415742 
L 130.045088 113.552133 
L 130.644758 113.940733 
L 130.721663 113.98052 
L 130.798569 114.368215 
L 130.876448 114.348679 
L 130.995214 114.377718 
L 131.054597 114.235484 
L 131.11398 114.344746 
L 131.292128 114.283468 
L 131.351511 114.070627 
L 131.410894 114.12304 
L 131.607539 114.3141 
L 131.666922 114.843883 
L 131.727278 114.791108 
L 131.847991 114.775507 
L 131.968703 114.198218 
L 132.028086 114.248726 
L 132.147825 114.311486 
L 132.269512 114.881083 
L 132.331815 114.867743 
L 132.456421 114.750628 
L 132.518725 114.281388 
L 132.580055 114.361473 
L 132.701741 114.424333 
L 132.763071 114.66361 
L 132.8244 114.448527 
L 132.88573 114.504722 
L 133.006443 114.555135 
L 133.066799 114.707436 
L 133.128129 114.58395 
L 133.695673 115.066517 
L 133.824174 115.14903 
L 133.888424 115.145347 
L 134.017898 114.782208 
L 135.341844 115.303921 
L 135.478132 115.1055 
L 136.58791 115.43355 
L 136.73296 115.623053 
L 136.805972 115.622966 
L 136.879957 115.479985 
L 136.952969 115.577775 
L 137.100939 115.575352 
L 137.247936 115.41132 
L 138.595245 115.65443 
L 140.787543 115.911384 
L 142.970107 116.103152 
L 143.232949 116.077686 
L 143.846247 116.111794 
L 144.897615 116.128253 
L 153.220949 116.188905 
L 154.359932 116.186432 
L 184.499162 116.239034 
L 186.514285 116.236168 
L 188.704636 116.242323 
L 207.278813 116.249374 
L 211.922358 116.247863 
L 219.106709 116.249838 
L 340.890227 116.2617 
L 340.890227 116.2617 
" clip-path="url(#p44510f924b)" style="fill: none; stroke: #1f77b4; stroke-width: 1.5; stroke-linecap: square"/>
   </g>
   <g id="patch_3">
    <path d="M 53.93 120.52 
L 53.93 26.88 
" style="fill: none; stroke: #000000; stroke-width: 0.8; stroke-linejoin: miter; stroke-linecap: square"/>
   </g>
   <g id="patch_4">
    <path d="M 354.555 120.52 
L 354.555 26.88 
" style="fill: none; stroke: #000000; stroke-width: 0.8; stroke-linejoin: miter; stroke-linecap: square"/>
   </g>
   <g id="patch_5">
    <path d="M 53.93 120.52 
L 354.555 120.52 
" style="fill: none; stroke: #000000; stroke-width: 0.8; stroke-linejoin: miter; stroke-linecap: square"/>
   </g>
   <g id="patch_6">
    <path d="M 53.93 26.88 
L 354.555 26.88 
" style="fill: none; stroke: #000000; stroke-width: 0.8; stroke-linejoin: miter; stroke-linecap: square"/>
   </g>
   <g id="text_6">
    <!-- 1 -->
    <g transform="translate(198.7453 50.3762) scale(0.1728 -0.1728)">
     <defs>
      <path id="DejaVuSans-31" d="M 794 531 
L 1825 531 
L 1825 4091 
L 703 3866 
L 703 4441 
L 1819 4666 
L 2450 4666 
L 2450 531 
L 3481 531 
L 3481 0 
L 794 0 
L 794 531 
z
" transform="scale(0.015625)"/>
     </defs>
     <use xlink:href="#DejaVuSans-31"/>
    </g>
   </g>
   <g id="text_7">
    <!-- flows -->
    <g transform="translate(188.759688 20.88) scale(0.12 -0.12)">
     <use xlink:href="#DejaVuSans-66"/>
     <use xlink:href="#DejaVuSans-6c" x="35.205078"/>
     <use xlink:href="#DejaVuSans-6f" x="62.988281"/>
     <use xlink:href="#DejaVuSans-77" x="124.169922"/>
     <use xlink:href="#DejaVuSans-73" x="205.957031"/>
    </g>
   </g>
  </g>
  <g id="axes_2">
   <g id="patch_7">
    <path d="M 408.575 120.52 
L 709.2 120.52 
L 709.2 26.88 
L 408.575 26.88 
z
" style="fill: #ffffff"/>
   </g>
   <g id="matplotlib.axis_3">
    <g id="xtick_8">
     <g id="line2d_12">
      <g>
       <use xlink:href="#m8d8b7575d3" x="422.239773" y="120.52" style="stroke: #000000; stroke-width: 0.8"/>
      </g>
     </g>
    </g>
    <g id="xtick_9">
     <g id="line2d_13">
      <g>
       <use xlink:href="#m8d8b7575d3" x="464.294513" y="120.52" style="stroke: #000000; stroke-width: 0.8"/>
      </g>
     </g>
    </g>
    <g id="xtick_10">
     <g id="line2d_14">
      <g>
       <use xlink:href="#m8d8b7575d3" x="506.349253" y="120.52" style="stroke: #000000; stroke-width: 0.8"/>
      </g>
     </g>
    </g>
    <g id="xtick_11">
     <g id="line2d_15">
      <g>
       <use xlink:href="#m8d8b7575d3" x="548.403993" y="120.52" style="stroke: #000000; stroke-width: 0.8"/>
      </g>
     </g>
    </g>
    <g id="xtick_12">
     <g id="line2d_16">
      <g>
       <use xlink:href="#m8d8b7575d3" x="590.458733" y="120.52" style="stroke: #000000; stroke-width: 0.8"/>
      </g>
     </g>
    </g>
    <g id="xtick_13">
     <g id="line2d_17">
      <g>
       <use xlink:href="#m8d8b7575d3" x="632.513473" y="120.52" style="stroke: #000000; stroke-width: 0.8"/>
      </g>
     </g>
    </g>
    <g id="xtick_14">
     <g id="line2d_18">
      <g>
       <use xlink:href="#m8d8b7575d3" x="674.568214" y="120.52" style="stroke: #000000; stroke-width: 0.8"/>
      </g>
     </g>
    </g>
    <g id="text_8">
     <!-- time -->
     <g transform="translate(547.591406 139.118437) scale(0.1 -0.1)">
      <use xlink:href="#DejaVuSans-74"/>
      <use xlink:href="#DejaVuSans-69" x="39.208984"/>
      <use xlink:href="#DejaVuSans-6d" x="66.992188"/>
      <use xlink:href="#DejaVuSans-65" x="164.404297"/>
     </g>
    </g>
   </g>
   <g id="matplotlib.axis_4">
    <g id="ytick_4">
     <g id="line2d_19">
      <g>
       <use xlink:href="#m84447278ed" x="408.575" y="116.263636" style="stroke: #000000; stroke-width: 0.8"/>
      </g>
     </g>
     <g id="text_9">
      <!-- 0.00 -->
      <g transform="translate(379.309375 120.062855) scale(0.1 -0.1)">
       <use xlink:href="#DejaVuSans-30"/>
       <use xlink:href="#DejaVuSans-2e" x="63.623047"/>
       <use xlink:href="#DejaVuSans-30" x="95.410156"/>
       <use xlink:href="#DejaVuSans-30" x="159.033203"/>
      </g>
     </g>
    </g>
    <g id="ytick_5">
     <g id="line2d_20">
      <g>
       <use xlink:href="#m84447278ed" x="408.575" y="90.19282" style="stroke: #000000; stroke-width: 0.8"/>
      </g>
     </g>
     <g id="text_10">
      <!-- 0.05 -->
      <g transform="translate(379.309375 93.992039) scale(0.1 -0.1)">
       <defs>
        <path id="DejaVuSans-35" d="M 691 4666 
L 3169 4666 
L 3169 4134 
L 1269 4134 
L 1269 2991 
Q 1406 3038 1543 3061 
Q 1681 3084 1819 3084 
Q 2600 3084 3056 2656 
Q 3513 2228 3513 1497 
Q 3513 744 3044 326 
Q 2575 -91 1722 -91 
Q 1428 -91 1123 -41 
Q 819 9 494 109 
L 494 744 
Q 775 591 1075 516 
Q 1375 441 1709 441 
Q 2250 441 2565 725 
Q 2881 1009 2881 1497 
Q 2881 1984 2565 2268 
Q 2250 2553 1709 2553 
Q 1456 2553 1204 2497 
Q 953 2441 691 2322 
L 691 4666 
z
" transform="scale(0.015625)"/>
       </defs>
       <use xlink:href="#DejaVuSans-30"/>
       <use xlink:href="#DejaVuSans-2e" x="63.623047"/>
       <use xlink:href="#DejaVuSans-30" x="95.410156"/>
       <use xlink:href="#DejaVuSans-35" x="159.033203"/>
      </g>
     </g>
    </g>
    <g id="ytick_6">
     <g id="line2d_21">
      <g>
       <use xlink:href="#m84447278ed" x="408.575" y="64.122004" style="stroke: #000000; stroke-width: 0.8"/>
      </g>
     </g>
     <g id="text_11">
      <!-- 0.10 -->
      <g transform="translate(379.309375 67.921223) scale(0.1 -0.1)">
       <use xlink:href="#DejaVuSans-30"/>
       <use xlink:href="#DejaVuSans-2e" x="63.623047"/>
       <use xlink:href="#DejaVuSans-31" x="95.410156"/>
       <use xlink:href="#DejaVuSans-30" x="159.033203"/>
      </g>
     </g>
    </g>
    <g id="ytick_7">
     <g id="line2d_22">
      <g>
       <use xlink:href="#m84447278ed" x="408.575" y="38.051188" style="stroke: #000000; stroke-width: 0.8"/>
      </g>
     </g>
     <g id="text_12">
      <!-- 0.15 -->
      <g transform="translate(379.309375 41.850407) scale(0.1 -0.1)">
       <use xlink:href="#DejaVuSans-30"/>
       <use xlink:href="#DejaVuSans-2e" x="63.623047"/>
       <use xlink:href="#DejaVuSans-31" x="95.410156"/>
       <use xlink:href="#DejaVuSans-35" x="159.033203"/>
      </g>
     </g>
    </g>
    <g id="text_13">
     <!-- depth (m) -->
     <g transform="translate(373.229687 98.614844) rotate(-90) scale(0.1 -0.1)">
      <defs>
       <path id="DejaVuSans-64" d="M 2906 2969 
L 2906 4863 
L 3481 4863 
L 3481 0 
L 2906 0 
L 2906 525 
Q 2725 213 2448 61 
Q 2172 -91 1784 -91 
Q 1150 -91 751 415 
Q 353 922 353 1747 
Q 353 2572 751 3078 
Q 1150 3584 1784 3584 
Q 2172 3584 2448 3432 
Q 2725 3281 2906 2969 
z
M 947 1747 
Q 947 1113 1208 752 
Q 1469 391 1925 391 
Q 2381 391 2643 752 
Q 2906 1113 2906 1747 
Q 2906 2381 2643 2742 
Q 2381 3103 1925 3103 
Q 1469 3103 1208 2742 
Q 947 2381 947 1747 
z
" transform="scale(0.015625)"/>
       <path id="DejaVuSans-70" d="M 1159 525 
L 1159 -1331 
L 581 -1331 
L 581 3500 
L 1159 3500 
L 1159 2969 
Q 1341 3281 1617 3432 
Q 1894 3584 2278 3584 
Q 2916 3584 3314 3078 
Q 3713 2572 3713 1747 
Q 3713 922 3314 415 
Q 2916 -91 2278 -91 
Q 1894 -91 1617 61 
Q 1341 213 1159 525 
z
M 3116 1747 
Q 3116 2381 2855 2742 
Q 2594 3103 2138 3103 
Q 1681 3103 1420 2742 
Q 1159 2381 1159 1747 
Q 1159 1113 1420 752 
Q 1681 391 2138 391 
Q 2594 391 2855 752 
Q 3116 1113 3116 1747 
z
" transform="scale(0.015625)"/>
       <path id="DejaVuSans-68" d="M 3513 2113 
L 3513 0 
L 2938 0 
L 2938 2094 
Q 2938 2591 2744 2837 
Q 2550 3084 2163 3084 
Q 1697 3084 1428 2787 
Q 1159 2491 1159 1978 
L 1159 0 
L 581 0 
L 581 4863 
L 1159 4863 
L 1159 2956 
Q 1366 3272 1645 3428 
Q 1925 3584 2291 3584 
Q 2894 3584 3203 3211 
Q 3513 2838 3513 2113 
z
" transform="scale(0.015625)"/>
      </defs>
      <use xlink:href="#DejaVuSans-64"/>
      <use xlink:href="#DejaVuSans-65" x="63.476562"/>
      <use xlink:href="#DejaVuSans-70" x="125"/>
      <use xlink:href="#DejaVuSans-74" x="188.476562"/>
      <use xlink:href="#DejaVuSans-68" x="227.685547"/>
      <use xlink:href="#DejaVuSans-20" x="291.064453"/>
      <use xlink:href="#DejaVuSans-28" x="322.851562"/>
      <use xlink:href="#DejaVuSans-6d" x="361.865234"/>
      <use xlink:href="#DejaVuSans-29" x="459.277344"/>
     </g>
    </g>
   </g>
   <g id="line2d_23">
    <path d="M 422.239773 116.263636 
L 426.241787 116.162177 
L 426.592244 115.767478 
L 426.9427 114.958944 
L 427.468384 113.008809 
L 428.644359 107.15397 
L 429.328722 103.046981 
L 430.462837 93.958262 
L 430.747096 92.486493 
L 431.162776 88.887737 
L 431.355527 88.087715 
L 431.803332 83.024522 
L 432.172285 78.589559 
L 432.231667 78.665331 
L 432.508138 78.026464 
L 433.055239 72.200462 
L 433.121437 72.309497 
L 433.186661 72.20899 
L 433.441715 71.42463 
L 433.759072 68.093023 
L 434.190328 62.755115 
L 434.796812 58.561946 
L 434.864956 59.059374 
L 435.196916 56.057509 
L 435.399402 54.901198 
L 435.465599 55.514401 
L 435.870571 51.554333 
L 435.936768 50.975756 
L 436.002965 51.074477 
L 436.19961 50.222942 
L 436.264834 49.905071 
L 436.330058 50.273522 
L 436.581218 57.015427 
L 436.979375 48.591038 
L 437.17602 47.463051 
L 437.305494 47.578344 
L 437.433995 47.649901 
L 437.498245 47.196799 
L 437.562495 47.236625 
L 437.691969 47.205504 
L 437.75622 46.772663 
L 437.82047 46.968017 
L 438.012247 47.236807 
L 438.589526 41.720001 
L 438.71608 41.89014 
L 438.843607 41.835045 
L 438.906884 41.707548 
L 438.969187 41.968187 
L 439.475402 39.285197 
L 439.538679 39.712889 
L 439.854089 37.897146 
L 440.6689 33.745593 
L 440.853863 34.495712 
L 441.038826 34.625542 
L 441.222815 34.549602 
L 441.532385 33.788965 
L 441.593715 33.717802 
L 441.840007 34.222972 
L 442.141789 39.639101 
L 442.324805 39.153926 
L 442.386135 39.042203 
L 442.877747 35.071288 
L 442.999433 34.430269 
L 443.262275 42.915035 
L 443.322632 41.488759 
L 443.572818 34.021108 
L 443.634148 33.920317 
L 443.879468 31.986897 
L 444.063457 32.057737 
L 444.185143 32.306057 
L 444.430463 31.136364 
L 444.613479 32.225052 
L 444.918181 32.912777 
L 445.101197 33.499284 
L 445.162527 33.357282 
L 445.28616 33.175065 
L 445.471123 33.987214 
L 445.655112 34.48157 
L 445.901405 33.411805 
L 446.024065 34.824204 
L 446.206107 37.179618 
L 446.267437 36.987192 
L 446.511783 38.180448 
L 446.881709 36.823696 
L 447.068619 35.632998 
L 447.190305 39.757342 
L 447.3704 45.190233 
L 447.43173 44.826258 
L 447.678023 46.130848 
L 447.929183 43.953617 
L 448.055737 43.577248 
L 448.180344 43.657443 
L 448.305924 43.939247 
L 448.554163 46.78491 
L 448.61744 46.694087 
L 448.80435 48.259658 
L 448.867627 48.075269 
L 449.122681 45.823352 
L 449.310565 48.08411 
L 449.435171 49.08567 
L 450.010504 44.439783 
L 450.19936 45.569686 
L 450.262637 45.723688 
L 450.326888 46.417042 
L 450.572207 56.151643 
L 450.700708 54.561467 
L 450.895405 52.810234 
L 451.211789 58.892807 
L 451.407461 58.158562 
L 451.536935 58.411646 
L 451.667382 58.386136 
L 451.732606 58.456534 
L 452.055805 61.958192 
L 452.31962 60.540159 
L 452.385818 61.342015 
L 452.451041 61.328056 
L 452.64866 61.417017 
L 453.701002 71.795918 
L 453.767199 72.295995 
L 453.833396 72.051253 
L 454.105973 69.373688 
L 454.373683 70.468647 
L 454.976273 75.769068 
L 455.376377 73.860054 
L 455.58081 73.738286 
L 455.850466 76.966178 
L 455.909849 76.82004 
L 456.113308 78.42092 
L 456.181453 78.321352 
L 456.436507 79.425638 
L 456.49589 79.171884 
L 456.691561 80.177302 
L 456.750944 79.927145 
L 456.810327 80.152469 
L 457.005998 80.883694 
L 457.065381 80.636072 
L 457.243529 81.39347 
L 457.312647 81.331988 
L 457.614429 78.489124 
L 457.733195 78.475863 
L 457.852934 78.422919 
L 457.912317 78.217642 
L 458.294898 81.835941 
L 458.651195 83.649656 
L 458.770934 83.920298 
L 458.952977 83.250531 
L 459.073689 83.025422 
L 459.313168 84.377646 
L 459.373524 84.300138 
L 459.494237 84.715402 
L 459.735662 85.285225 
L 459.916731 85.557123 
L 459.978061 85.367605 
L 460.218513 86.262687 
L 460.525162 84.336372 
L 461.078104 81.745109 
L 461.19979 82.112441 
L 461.381833 82.171884 
L 461.564849 82.657171 
L 461.748838 83.093368 
L 462.36019 85.133125 
L 462.607456 85.353258 
L 462.85959 87.360604 
L 462.921893 87.270625 
L 463.114644 86.435015 
L 463.180841 86.524841 
L 463.443683 85.720512 
L 464.020962 89.897033 
L 464.591427 87.617132 
L 465.18915 91.90165 
L 465.742092 93.394704 
L 465.811209 93.443623 
L 466.351496 92.251021 
L 466.411852 92.297418 
L 466.655225 91.398218 
L 466.776911 92.123469 
L 466.956033 93.218554 
L 467.016389 93.162252 
L 467.203299 92.749038 
L 467.389236 93.636104 
L 467.765002 94.971538 
L 467.954833 95.136427 
L 468.14369 95.217056 
L 468.406532 94.144786 
L 468.984785 96.071939 
L 469.049035 96.032266 
L 469.247627 95.298562 
L 469.313824 95.364391 
L 469.702246 96.876207 
L 469.902785 97.311839 
L 470.178283 96.480484 
L 470.314571 96.239084 
L 470.451833 96.030484 
L 470.855831 96.819502 
L 471.058317 97.540425 
L 471.477891 96.736649 
L 471.6171 96.616752 
L 471.686218 96.689135 
L 471.755335 96.607998 
L 472.174909 96.318687 
L 472.384209 96.542747 
L 472.526339 96.730464 
L 473.013084 97.649781 
L 473.153266 98.08331 
L 473.499828 99.609815 
L 473.783114 100.233742 
L 474.219237 101.13261 
L 474.512257 101.108805 
L 474.585269 101.186195 
L 474.823774 100.669886 
L 475.321227 101.856636 
L 475.453621 102.062921 
L 475.513004 102.012151 
L 475.694073 101.911703 
L 475.992934 102.416501 
L 476.054264 102.305064 
L 476.301531 101.969036 
L 476.607206 102.260236 
L 476.849605 102.864045 
L 476.910935 102.823632 
L 477.164042 102.205981 
L 477.537862 103.059958 
L 478.035315 104.041712 
L 478.414976 104.322463 
L 478.744015 103.83216 
L 478.94066 103.812615 
L 479.266779 104.154141 
L 479.722372 105.077096 
L 480.116635 105.525646 
L 480.388239 105.242504 
L 481.265353 106.368598 
L 481.403588 106.220894 
L 481.614835 106.157429 
L 482.10158 106.880719 
L 482.530889 107.274917 
L 482.747004 107.414512 
L 483.041971 107.290974 
L 483.407029 107.648389 
L 483.705891 107.780384 
L 483.926873 108.009797 
L 484.388307 107.593836 
L 484.465212 107.567229 
L 484.987976 108.479285 
L 485.443569 108.913016 
L 485.937128 109.066337 
L 486.311922 109.3837 
L 486.553347 109.337986 
L 486.853182 109.654638 
L 487.101421 109.584594 
L 487.835432 110.359132 
L 488.340673 110.708242 
L 488.598648 110.690436 
L 489.44461 111.362199 
L 491.02069 112.210126 
L 491.37796 112.310571 
L 491.745939 112.367158 
L 492.625974 112.931916 
L 493.935317 113.543926 
L 494.507728 113.746388 
L 496.039027 114.408077 
L 497.26465 114.754062 
L 498.666475 115.029555 
L 500.50637 115.218321 
L 530.908442 115.791643 
L 545.452373 115.889471 
L 554.389006 115.947819 
L 695.535227 116.183359 
L 695.535227 116.183359 
" clip-path="url(#p51b8a28cae)" style="fill: none; stroke: #1f77b4; stroke-width: 1.5; stroke-linecap: square"/>
   </g>
   <g id="patch_8">
    <path d="M 408.575 120.52 
L 408.575 26.88 
" style="fill: none; stroke: #000000; stroke-width: 0.8; stroke-linejoin: miter; stroke-linecap: square"/>
   </g>
   <g id="patch_9">
    <path d="M 709.2 120.52 
L 709.2 26.88 
" style="fill: none; stroke: #000000; stroke-width: 0.8; stroke-linejoin: miter; stroke-linecap: square"/>
   </g>
   <g id="patch_10">
    <path d="M 408.575 120.52 
L 709.2 120.52 
" style="fill: none; stroke: #000000; stroke-width: 0.8; stroke-linejoin: miter; stroke-linecap: square"/>
   </g>
   <g id="patch_11">
    <path d="M 408.575 26.88 
L 709.2 26.88 
" style="fill: none; stroke: #000000; stroke-width: 0.8; stroke-linejoin: miter; stroke-linecap: square"/>
   </g>
   <g id="text_14">
    <!-- ('P1', 'depthN') -->
    <g transform="translate(494.8354 50.3762) scale(0.1728 -0.1728)">
     <defs>
      <path id="DejaVuSans-27" d="M 1147 4666 
L 1147 2931 
L 616 2931 
L 616 4666 
L 1147 4666 
z
" transform="scale(0.015625)"/>
      <path id="DejaVuSans-50" d="M 1259 4147 
L 1259 2394 
L 2053 2394 
Q 2494 2394 2734 2622 
Q 2975 2850 2975 3272 
Q 2975 3691 2734 3919 
Q 2494 4147 2053 4147 
L 1259 4147 
z
M 628 4666 
L 2053 4666 
Q 2838 4666 3239 4311 
Q 3641 3956 3641 3272 
Q 3641 2581 3239 2228 
Q 2838 1875 2053 1875 
L 1259 1875 
L 1259 0 
L 628 0 
L 628 4666 
z
" transform="scale(0.015625)"/>
      <path id="DejaVuSans-2c" d="M 750 794 
L 1409 794 
L 1409 256 
L 897 -744 
L 494 -744 
L 750 256 
L 750 794 
z
" transform="scale(0.015625)"/>
      <path id="DejaVuSans-4e" d="M 628 4666 
L 1478 4666 
L 3547 763 
L 3547 4666 
L 4159 4666 
L 4159 0 
L 3309 0 
L 1241 3903 
L 1241 0 
L 628 0 
L 628 4666 
z
" transform="scale(0.015625)"/>
     </defs>
     <use xlink:href="#DejaVuSans-28"/>
     <use xlink:href="#DejaVuSans-27" x="39.013672"/>
     <use xlink:href="#DejaVuSans-50" x="66.503906"/>
     <use xlink:href="#DejaVuSans-31" x="126.806641"/>
     <use xlink:href="#DejaVuSans-27" x="190.429688"/>
     <use xlink:href="#DejaVuSans-2c" x="217.919922"/>
     <use xlink:href="#DejaVuSans-20" x="249.707031"/>
     <use xlink:href="#DejaVuSans-27" x="281.494141"/>
     <use xlink:href="#DejaVuSans-64" x="308.984375"/>
     <use xlink:href="#DejaVuSans-65" x="372.460938"/>
     <use xlink:href="#DejaVuSans-70" x="433.984375"/>
     <use xlink:href="#DejaVuSans-74" x="497.460938"/>
     <use xlink:href="#DejaVuSans-68" x="536.669922"/>
     <use xlink:href="#DejaVuSans-4e" x="600.048828"/>
     <use xlink:href="#DejaVuSans-27" x="674.853516"/>
     <use xlink:href="#DejaVuSans-29" x="702.34375"/>
    </g>
   </g>
   <g id="text_15">
    <!-- depths -->
    <g transform="translate(538.297187 20.88) scale(0.12 -0.12)">
     <use xlink:href="#DejaVuSans-64"/>
     <use xlink:href="#DejaVuSans-65" x="63.476562"/>
     <use xlink:href="#DejaVuSans-70" x="125"/>
     <use xlink:href="#DejaVuSans-74" x="188.476562"/>
     <use xlink:href="#DejaVuSans-68" x="227.685547"/>
     <use xlink:href="#DejaVuSans-73" x="291.064453"/>
    </g>
   </g>
  </g>
  <g id="axes_3">
   <g id="patch_12">
    <path d="M 53.93 246.04 
L 354.555 246.04 
L 354.555 152.4 
L 53.93 152.4 
z
" style="fill: #ffffff"/>
   </g>
   <g id="matplotlib.axis_5">
    <g id="xtick_15">
     <g id="line2d_24">
      <g>
       <use xlink:href="#m8d8b7575d3" x="67.594773" y="246.04" style="stroke: #000000; stroke-width: 0.8"/>
      </g>
     </g>
     <g id="text_16">
      <!-- 02-25 00 -->
      <g transform="translate(45.114304 260.638437) scale(0.1 -0.1)">
       <defs>
        <path id="DejaVuSans-2d" d="M 313 2009 
L 1997 2009 
L 1997 1497 
L 313 1497 
L 313 2009 
z
" transform="scale(0.015625)"/>
       </defs>
       <use xlink:href="#DejaVuSans-30"/>
       <use xlink:href="#DejaVuSans-32" x="63.623047"/>
       <use xlink:href="#DejaVuSans-2d" x="127.246094"/>
       <use xlink:href="#DejaVuSans-32" x="163.330078"/>
       <use xlink:href="#DejaVuSans-35" x="226.953125"/>
       <use xlink:href="#DejaVuSans-20" x="290.576172"/>
       <use xlink:href="#DejaVuSans-30" x="322.363281"/>
       <use xlink:href="#DejaVuSans-30" x="385.986328"/>
      </g>
     </g>
    </g>
    <g id="xtick_16">
     <g id="line2d_25">
      <g>
       <use xlink:href="#m8d8b7575d3" x="109.649513" y="246.04" style="stroke: #000000; stroke-width: 0.8"/>
      </g>
     </g>
     <g id="text_17">
      <!-- 02-25 12 -->
      <g transform="translate(87.169044 260.638437) scale(0.1 -0.1)">
       <use xlink:href="#DejaVuSans-30"/>
       <use xlink:href="#DejaVuSans-32" x="63.623047"/>
       <use xlink:href="#DejaVuSans-2d" x="127.246094"/>
       <use xlink:href="#DejaVuSans-32" x="163.330078"/>
       <use xlink:href="#DejaVuSans-35" x="226.953125"/>
       <use xlink:href="#DejaVuSans-20" x="290.576172"/>
       <use xlink:href="#DejaVuSans-31" x="322.363281"/>
       <use xlink:href="#DejaVuSans-32" x="385.986328"/>
      </g>
     </g>
    </g>
    <g id="xtick_17">
     <g id="line2d_26">
      <g>
       <use xlink:href="#m8d8b7575d3" x="151.704253" y="246.04" style="stroke: #000000; stroke-width: 0.8"/>
      </g>
     </g>
     <g id="text_18">
      <!-- 02-26 00 -->
      <g transform="translate(129.223784 260.638437) scale(0.1 -0.1)">
       <defs>
        <path id="DejaVuSans-36" d="M 2113 2584 
Q 1688 2584 1439 2293 
Q 1191 2003 1191 1497 
Q 1191 994 1439 701 
Q 1688 409 2113 409 
Q 2538 409 2786 701 
Q 3034 994 3034 1497 
Q 3034 2003 2786 2293 
Q 2538 2584 2113 2584 
z
M 3366 4563 
L 3366 3988 
Q 3128 4100 2886 4159 
Q 2644 4219 2406 4219 
Q 1781 4219 1451 3797 
Q 1122 3375 1075 2522 
Q 1259 2794 1537 2939 
Q 1816 3084 2150 3084 
Q 2853 3084 3261 2657 
Q 3669 2231 3669 1497 
Q 3669 778 3244 343 
Q 2819 -91 2113 -91 
Q 1303 -91 875 529 
Q 447 1150 447 2328 
Q 447 3434 972 4092 
Q 1497 4750 2381 4750 
Q 2619 4750 2861 4703 
Q 3103 4656 3366 4563 
z
" transform="scale(0.015625)"/>
       </defs>
       <use xlink:href="#DejaVuSans-30"/>
       <use xlink:href="#DejaVuSans-32" x="63.623047"/>
       <use xlink:href="#DejaVuSans-2d" x="127.246094"/>
       <use xlink:href="#DejaVuSans-32" x="163.330078"/>
       <use xlink:href="#DejaVuSans-36" x="226.953125"/>
       <use xlink:href="#DejaVuSans-20" x="290.576172"/>
       <use xlink:href="#DejaVuSans-30" x="322.363281"/>
       <use xlink:href="#DejaVuSans-30" x="385.986328"/>
      </g>
     </g>
    </g>
    <g id="xtick_18">
     <g id="line2d_27">
      <g>
       <use xlink:href="#m8d8b7575d3" x="193.758993" y="246.04" style="stroke: #000000; stroke-width: 0.8"/>
      </g>
     </g>
     <g id="text_19">
      <!-- 02-26 12 -->
      <g transform="translate(171.278524 260.638437) scale(0.1 -0.1)">
       <use xlink:href="#DejaVuSans-30"/>
       <use xlink:href="#DejaVuSans-32" x="63.623047"/>
       <use xlink:href="#DejaVuSans-2d" x="127.246094"/>
       <use xlink:href="#DejaVuSans-32" x="163.330078"/>
       <use xlink:href="#DejaVuSans-36" x="226.953125"/>
       <use xlink:href="#DejaVuSans-20" x="290.576172"/>
       <use xlink:href="#DejaVuSans-31" x="322.363281"/>
       <use xlink:href="#DejaVuSans-32" x="385.986328"/>
      </g>
     </g>
    </g>
    <g id="xtick_19">
     <g id="line2d_28">
      <g>
       <use xlink:href="#m8d8b7575d3" x="235.813733" y="246.04" style="stroke: #000000; stroke-width: 0.8"/>
      </g>
     </g>
     <g id="text_20">
      <!-- 02-27 00 -->
      <g transform="translate(213.333265 260.638437) scale(0.1 -0.1)">
       <defs>
        <path id="DejaVuSans-37" d="M 525 4666 
L 3525 4666 
L 3525 4397 
L 1831 0 
L 1172 0 
L 2766 4134 
L 525 4134 
L 525 4666 
z
" transform="scale(0.015625)"/>
       </defs>
       <use xlink:href="#DejaVuSans-30"/>
       <use xlink:href="#DejaVuSans-32" x="63.623047"/>
       <use xlink:href="#DejaVuSans-2d" x="127.246094"/>
       <use xlink:href="#DejaVuSans-32" x="163.330078"/>
       <use xlink:href="#DejaVuSans-37" x="226.953125"/>
       <use xlink:href="#DejaVuSans-20" x="290.576172"/>
       <use xlink:href="#DejaVuSans-30" x="322.363281"/>
       <use xlink:href="#DejaVuSans-30" x="385.986328"/>
      </g>
     </g>
    </g>
    <g id="xtick_20">
     <g id="line2d_29">
      <g>
       <use xlink:href="#m8d8b7575d3" x="277.868473" y="246.04" style="stroke: #000000; stroke-width: 0.8"/>
      </g>
     </g>
     <g id="text_21">
      <!-- 02-27 12 -->
      <g transform="translate(255.388005 260.638437) scale(0.1 -0.1)">
       <use xlink:href="#DejaVuSans-30"/>
       <use xlink:href="#DejaVuSans-32" x="63.623047"/>
       <use xlink:href="#DejaVuSans-2d" x="127.246094"/>
       <use xlink:href="#DejaVuSans-32" x="163.330078"/>
       <use xlink:href="#DejaVuSans-37" x="226.953125"/>
       <use xlink:href="#DejaVuSans-20" x="290.576172"/>
       <use xlink:href="#DejaVuSans-31" x="322.363281"/>
       <use xlink:href="#DejaVuSans-32" x="385.986328"/>
      </g>
     </g>
    </g>
    <g id="xtick_21">
     <g id="line2d_30">
      <g>
       <use xlink:href="#m8d8b7575d3" x="319.923214" y="246.04" style="stroke: #000000; stroke-width: 0.8"/>
      </g>
     </g>
     <g id="text_22">
      <!-- 02-28 00 -->
      <g transform="translate(297.442745 260.638437) scale(0.1 -0.1)">
       <defs>
        <path id="DejaVuSans-38" d="M 2034 2216 
Q 1584 2216 1326 1975 
Q 1069 1734 1069 1313 
Q 1069 891 1326 650 
Q 1584 409 2034 409 
Q 2484 409 2743 651 
Q 3003 894 3003 1313 
Q 3003 1734 2745 1975 
Q 2488 2216 2034 2216 
z
M 1403 2484 
Q 997 2584 770 2862 
Q 544 3141 544 3541 
Q 544 4100 942 4425 
Q 1341 4750 2034 4750 
Q 2731 4750 3128 4425 
Q 3525 4100 3525 3541 
Q 3525 3141 3298 2862 
Q 3072 2584 2669 2484 
Q 3125 2378 3379 2068 
Q 3634 1759 3634 1313 
Q 3634 634 3220 271 
Q 2806 -91 2034 -91 
Q 1263 -91 848 271 
Q 434 634 434 1313 
Q 434 1759 690 2068 
Q 947 2378 1403 2484 
z
M 1172 3481 
Q 1172 3119 1398 2916 
Q 1625 2713 2034 2713 
Q 2441 2713 2670 2916 
Q 2900 3119 2900 3481 
Q 2900 3844 2670 4047 
Q 2441 4250 2034 4250 
Q 1625 4250 1398 4047 
Q 1172 3844 1172 3481 
z
" transform="scale(0.015625)"/>
       </defs>
       <use xlink:href="#DejaVuSans-30"/>
       <use xlink:href="#DejaVuSans-32" x="63.623047"/>
       <use xlink:href="#DejaVuSans-2d" x="127.246094"/>
       <use xlink:href="#DejaVuSans-32" x="163.330078"/>
       <use xlink:href="#DejaVuSans-38" x="226.953125"/>
       <use xlink:href="#DejaVuSans-20" x="290.576172"/>
       <use xlink:href="#DejaVuSans-30" x="322.363281"/>
       <use xlink:href="#DejaVuSans-30" x="385.986328"/>
      </g>
     </g>
    </g>
    <g id="text_23">
     <!-- time -->
     <g transform="translate(192.946406 274.316562) scale(0.1 -0.1)">
      <use xlink:href="#DejaVuSans-74"/>
      <use xlink:href="#DejaVuSans-69" x="39.208984"/>
      <use xlink:href="#DejaVuSans-6d" x="66.992188"/>
      <use xlink:href="#DejaVuSans-65" x="164.404297"/>
     </g>
    </g>
   </g>
   <g id="matplotlib.axis_6">
    <g id="ytick_8">
     <g id="line2d_31">
      <g>
       <use xlink:href="#m84447278ed" x="53.93" y="241.783636" style="stroke: #000000; stroke-width: 0.8"/>
      </g>
     </g>
     <g id="text_24">
      <!-- 0.0 -->
      <g transform="translate(31.026875 245.582855) scale(0.1 -0.1)">
       <use xlink:href="#DejaVuSans-30"/>
       <use xlink:href="#DejaVuSans-2e" x="63.623047"/>
       <use xlink:href="#DejaVuSans-30" x="95.410156"/>
      </g>
     </g>
    </g>
    <g id="ytick_9">
     <g id="line2d_32">
      <g>
       <use xlink:href="#m84447278ed" x="53.93" y="197.003055" style="stroke: #000000; stroke-width: 0.8"/>
      </g>
     </g>
     <g id="text_25">
      <!-- 0.5 -->
      <g transform="translate(31.026875 200.802273) scale(0.1 -0.1)">
       <use xlink:href="#DejaVuSans-30"/>
       <use xlink:href="#DejaVuSans-2e" x="63.623047"/>
       <use xlink:href="#DejaVuSans-35" x="95.410156"/>
      </g>
     </g>
    </g>
    <g id="text_26">
     <!-- flow (cms) -->
     <g transform="translate(24.947188 225.2325) rotate(-90) scale(0.1 -0.1)">
      <use xlink:href="#DejaVuSans-66"/>
      <use xlink:href="#DejaVuSans-6c" x="35.205078"/>
      <use xlink:href="#DejaVuSans-6f" x="62.988281"/>
      <use xlink:href="#DejaVuSans-77" x="124.169922"/>
      <use xlink:href="#DejaVuSans-20" x="205.957031"/>
      <use xlink:href="#DejaVuSans-28" x="237.744141"/>
      <use xlink:href="#DejaVuSans-63" x="276.757812"/>
      <use xlink:href="#DejaVuSans-6d" x="331.738281"/>
      <use xlink:href="#DejaVuSans-73" x="429.150391"/>
      <use xlink:href="#DejaVuSans-29" x="481.25"/>
     </g>
    </g>
   </g>
   <g id="line2d_33">
    <path d="M 67.594773 241.783636 
L 73.933162 241.674503 
L 74.683722 241.419171 
L 75.636768 240.657425 
L 76.314317 239.582739 
L 77.220635 237.444042 
L 77.527285 236.538511 
L 78.987519 232.138905 
L 79.300982 230.39386 
L 79.423642 230.655648 
L 79.606658 229.798303 
L 79.786753 228.908905 
L 79.846136 228.784609 
L 80.033046 229.723954 
L 80.151812 229.541916 
L 80.356245 228.799032 
L 80.754402 228.009389 
L 80.88777 229.128191 
L 80.955914 229.054984 
L 81.024058 228.896423 
L 81.291768 227.347717 
L 81.357965 227.3792 
L 81.619834 225.199827 
L 81.685058 226.357738 
L 81.748334 225.745587 
L 81.873915 225.620209 
L 81.936218 225.854576 
L 82.001442 227.181294 
L 82.068612 227.050074 
L 82.269151 226.349366 
L 82.400572 227.122109 
L 82.465796 227.039072 
L 82.788995 225.955321 
L 82.981745 227.246962 
L 83.046969 227.181343 
L 83.367247 225.367027 
L 83.430524 225.885315 
L 83.494774 225.498978 
L 83.622301 225.023729 
L 83.686552 225.168939 
L 83.815052 226.179061 
L 84.261884 225.417661 
L 84.450741 224.880359 
L 84.514018 224.761194 
L 84.577295 224.973693 
L 84.703848 226.049989 
L 84.830402 225.904486 
L 84.893679 224.856679 
L 84.956955 225.278646 
L 85.082536 225.227816 
L 85.145812 224.905661 
L 85.209089 225.027438 
L 85.271392 225.17043 
L 85.334669 225.125271 
L 85.460249 224.918158 
L 85.522553 225.173041 
L 85.585829 225.107359 
L 85.773713 224.714434 
L 85.89832 225.43897 
L 85.961596 225.389215 
L 86.271166 223.562574 
L 86.332496 224.081224 
L 86.393826 223.749588 
L 86.577815 222.930823 
L 86.762778 224.889601 
L 86.887385 224.79273 
L 86.948715 224.699756 
L 87.072348 224.956584 
L 87.133678 224.911219 
L 87.436433 223.075342 
L 87.496789 223.372687 
L 87.679805 224.521641 
L 87.802465 224.455661 
L 87.987428 223.579898 
L 88.048758 223.510799 
L 88.110087 224.043826 
L 88.294077 223.090615 
L 88.354433 223.077304 
L 88.550105 223.952784 
L 88.617275 223.900743 
L 88.739935 224.150306 
L 88.927818 223.690444 
L 89.050478 223.938327 
L 89.111808 223.884822 
L 89.295797 223.805473 
L 89.418457 223.882947 
L 89.540143 223.813939 
L 89.785463 222.838084 
L 89.907149 223.249388 
L 90.028835 223.147066 
L 90.090165 223.090878 
L 90.151495 223.474933 
L 90.211851 223.336256 
L 90.39584 223.166288 
L 90.57983 224.353629 
L 90.64116 224.329547 
L 90.764793 223.849427 
L 90.887453 224.095666 
L 91.010112 224.006564 
L 91.256405 223.53208 
L 91.561107 223.240979 
L 91.622437 223.628933 
L 91.683767 223.427462 
L 91.866783 223.278718 
L 92.051746 223.745753 
L 92.114049 223.713222 
L 92.175379 223.401644 
L 92.299012 223.78418 
L 92.361315 223.760549 
L 92.423619 223.723589 
L 92.545305 222.991481 
L 92.604688 223.087664 
L 92.78673 223.286962 
L 92.971693 222.100956 
L 93.033023 222.353862 
L 93.22188 224.290628 
L 93.284183 224.304865 
L 93.59862 223.099337 
L 93.784557 223.610777 
L 93.909163 223.628798 
L 94.034744 223.299434 
L 94.097047 223.343864 
L 94.222627 223.395963 
L 94.350154 223.635188 
L 94.477681 223.574525 
L 94.539985 223.392526 
L 94.603261 223.459664 
L 94.727868 223.595105 
L 94.917698 223.487826 
L 95.301253 223.138441 
L 95.427807 223.118379 
L 95.55436 223.640404 
L 95.617637 223.636943 
L 95.743217 223.040803 
L 95.927207 223.556001 
L 95.990484 223.638666 
L 96.055708 223.550029 
L 96.314656 223.06034 
L 96.503513 223.540391 
L 96.566789 223.456008 
L 96.632013 223.516361 
L 96.891935 223.441935 
L 97.087606 223.725639 
L 97.346554 223.035349 
L 97.410805 223.092477 
L 97.476028 223.352581 
L 97.542226 223.205504 
L 97.67462 223.097414 
L 97.740818 223.163485 
L 97.806041 223.405291 
L 97.871265 223.37058 
L 98.069857 223.198928 
L 98.265528 223.551731 
L 98.397923 223.10747 
L 98.52837 223.17552 
L 98.659792 223.101307 
L 99.056002 223.621308 
L 99.188396 223.598629 
L 99.392829 223.088283 
L 99.862051 223.410321 
L 100.061616 223.553433 
L 100.196931 223.642394 
L 100.331273 223.745298 
L 100.595088 222.764586 
L 100.867665 223.543409 
L 100.93581 223.563828 
L 101.003954 223.378575 
L 101.071125 223.490782 
L 101.264849 223.587452 
L 101.332993 223.495091 
L 101.536453 223.655765 
L 101.595835 223.593626 
L 101.66398 223.66488 
L 101.791507 223.728439 
L 101.85089 223.673077 
L 101.919034 223.388119 
L 101.978417 223.419948 
L 102.105944 223.562129 
L 102.233471 223.430662 
L 102.72703 223.79727 
L 102.909073 223.298413 
L 103.267317 223.395658 
L 103.394844 222.95979 
L 103.522371 223.090707 
L 103.590515 223.505928 
L 103.649898 223.240721 
L 103.768664 223.246288 
L 103.887429 223.426718 
L 104.125934 223.809498 
L 104.186291 223.790101 
L 104.307977 223.642423 
L 104.428689 223.696847 
L 104.489046 223.608513 
L 104.548429 223.70278 
L 104.728524 223.9748 
L 104.849237 223.695549 
L 105.029332 223.972491 
L 105.090662 223.834788 
L 105.211375 223.785036 
L 105.333061 223.817166 
L 105.453774 223.220702 
L 105.51413 223.24628 
L 105.573513 223.300088 
L 105.634843 223.780292 
L 105.696173 223.559105 
L 105.818832 223.481791 
L 105.880162 223.493165 
L 106.126455 224.141601 
L 106.371774 223.475336 
L 106.433104 223.504299 
L 106.494434 223.535363 
L 106.676476 222.905693 
L 106.736833 222.948911 
L 106.981179 224.440248 
L 107.103838 224.316096 
L 107.165168 224.47323 
L 107.288801 224.640893 
L 107.409514 166.626212 
L 107.470844 166.890589 
L 107.593503 172.267434 
L 107.654833 156.656364 
L 107.71519 158.311834 
L 108.151313 208.371982 
L 108.276893 203.18649 
L 108.469644 213.09663 
L 108.535841 206.818664 
L 108.731512 215.38007 
L 108.86488 212.55636 
L 108.930104 214.067863 
L 109.375962 222.128832 
L 109.751729 226.216071 
L 110.010677 228.534872 
L 110.207322 230.804734 
L 110.341664 230.865557 
L 110.54415 231.561412 
L 110.613267 231.567765 
L 110.819647 232.424146 
L 110.958856 231.514295 
L 111.027974 231.735875 
L 111.097092 231.953131 
L 111.284975 233.478751 
L 111.405688 233.672549 
L 111.5264 232.951589 
L 112.071554 234.152933 
L 112.131911 233.978381 
L 112.558299 234.694424 
L 112.806539 235.861951 
L 112.868842 235.897515 
L 112.932119 235.327156 
L 112.994422 235.648643 
L 113.120002 235.746663 
L 113.309833 235.261367 
L 113.435413 235.384472 
L 113.563914 236.029355 
L 114.02048 236.492811 
L 114.148981 235.791199 
L 114.276508 235.87511 
L 114.404035 236.318812 
L 114.470232 236.099536 
L 114.926799 236.331419 
L 115.057246 237.13326 
L 115.190614 237.170561 
L 115.257785 237.046676 
L 115.394074 237.366395 
L 115.463191 237.372143 
L 115.601427 237.133254 
L 115.669571 237.241 
L 115.806833 237.178731 
L 115.942148 236.677497 
L 116.07649 236.755818 
L 116.278002 237.500794 
L 116.345173 237.519492 
L 116.413317 237.369475 
L 116.622617 237.675106 
L 116.902009 237.396088 
L 117.251491 237.665815 
L 117.3907 237.206216 
L 117.460791 237.240284 
L 117.529909 237.274645 
L 117.739209 237.881894 
L 117.810274 237.897713 
L 117.950457 237.406363 
L 118.020548 237.429144 
L 119.066075 238.052145 
L 119.210152 238.496225 
L 119.283164 238.507055 
L 119.356175 238.176863 
L 119.501225 238.501512 
L 119.574237 238.513204 
L 119.721234 238.042867 
L 119.794245 238.065615 
L 119.867257 238.091978 
L 119.940269 238.241188 
L 119.999652 238.16773 
L 121.71786 238.720666 
L 121.900876 238.730949 
L 121.962206 238.9624 
L 122.022563 238.765442 
L 122.204605 238.795446 
L 122.265935 238.923975 
L 122.328238 238.881644 
L 122.768255 239.112117 
L 122.830559 239.138978 
L 122.954192 238.969984 
L 123.390315 239.088326 
L 123.452618 239.226794 
L 123.515895 239.120608 
L 123.642449 239.150359 
L 123.705726 239.305479 
L 123.769976 239.226445 
L 123.967594 239.256211 
L 124.032818 239.475322 
L 124.165213 239.28543 
L 124.230436 239.297362 
L 124.29566 239.425724 
L 124.360884 239.34595 
L 124.556555 239.375492 
L 124.816477 239.664745 
L 125.012148 239.414144 
L 127.177189 239.846608 
L 127.315424 240.104894 
L 129.207887 240.296478 
L 129.281873 240.229679 
L 129.433737 240.378455 
L 130.120047 240.40253 
L 130.268991 240.223449 
L 130.416961 240.281006 
L 130.644758 240.477137 
L 130.721663 240.408841 
L 130.935831 240.522479 
L 131.607539 240.584921 
L 131.727278 240.441683 
L 131.908347 240.586124 
L 132.147825 240.650276 
L 132.208182 240.583694 
L 132.269512 240.654245 
L 132.763071 240.718695 
L 132.88573 240.573802 
L 133.066799 240.670711 
L 133.252736 240.778163 
L 133.695673 240.723309 
L 133.888424 240.714886 
L 134.209676 240.855374 
L 134.667216 240.918479 
L 138.595245 241.23151 
L 138.824989 241.177912 
L 139.698209 241.317167 
L 140.110968 241.338435 
L 143.320563 241.480023 
L 143.671019 241.503829 
L 146.474668 241.572313 
L 147.263195 241.571259 
L 163.734634 241.717162 
L 165.924985 241.719436 
L 238.294184 241.773962 
L 340.890227 241.780836 
L 340.890227 241.780836 
" clip-path="url(#p27eabd9228)" style="fill: none; stroke: #1f77b4; stroke-width: 1.5; stroke-linecap: square"/>
   </g>
   <g id="patch_13">
    <path d="M 53.93 246.04 
L 53.93 152.4 
" style="fill: none; stroke: #000000; stroke-width: 0.8; stroke-linejoin: miter; stroke-linecap: square"/>
   </g>
   <g id="patch_14">
    <path d="M 354.555 246.04 
L 354.555 152.4 
" style="fill: none; stroke: #000000; stroke-width: 0.8; stroke-linejoin: miter; stroke-linecap: square"/>
   </g>
   <g id="patch_15">
    <path d="M 53.93 246.04 
L 354.555 246.04 
" style="fill: none; stroke: #000000; stroke-width: 0.8; stroke-linejoin: miter; stroke-linecap: square"/>
   </g>
   <g id="patch_16">
    <path d="M 53.93 152.4 
L 354.555 152.4 
" style="fill: none; stroke: #000000; stroke-width: 0.8; stroke-linejoin: miter; stroke-linecap: square"/>
   </g>
   <g id="text_27">
    <!-- 2 -->
    <g transform="translate(198.7453 175.8962) scale(0.1728 -0.1728)">
     <use xlink:href="#DejaVuSans-32"/>
    </g>
   </g>
  </g>
  <g id="axes_4">
   <g id="patch_17">
    <path d="M 408.575 246.04 
L 709.2 246.04 
L 709.2 152.4 
L 408.575 152.4 
z
" style="fill: #ffffff"/>
   </g>
   <g id="matplotlib.axis_7">
    <g id="xtick_22">
     <g id="line2d_34">
      <g>
       <use xlink:href="#m8d8b7575d3" x="422.239773" y="246.04" style="stroke: #000000; stroke-width: 0.8"/>
      </g>
     </g>
     <g id="text_28">
      <!-- 02-25 00 -->
      <g transform="translate(399.759304 260.638437) scale(0.1 -0.1)">
       <use xlink:href="#DejaVuSans-30"/>
       <use xlink:href="#DejaVuSans-32" x="63.623047"/>
       <use xlink:href="#DejaVuSans-2d" x="127.246094"/>
       <use xlink:href="#DejaVuSans-32" x="163.330078"/>
       <use xlink:href="#DejaVuSans-35" x="226.953125"/>
       <use xlink:href="#DejaVuSans-20" x="290.576172"/>
       <use xlink:href="#DejaVuSans-30" x="322.363281"/>
       <use xlink:href="#DejaVuSans-30" x="385.986328"/>
      </g>
     </g>
    </g>
    <g id="xtick_23">
     <g id="line2d_35">
      <g>
       <use xlink:href="#m8d8b7575d3" x="464.294513" y="246.04" style="stroke: #000000; stroke-width: 0.8"/>
      </g>
     </g>
     <g id="text_29">
      <!-- 02-25 12 -->
      <g transform="translate(441.814044 260.638437) scale(0.1 -0.1)">
       <use xlink:href="#DejaVuSans-30"/>
       <use xlink:href="#DejaVuSans-32" x="63.623047"/>
       <use xlink:href="#DejaVuSans-2d" x="127.246094"/>
       <use xlink:href="#DejaVuSans-32" x="163.330078"/>
       <use xlink:href="#DejaVuSans-35" x="226.953125"/>
       <use xlink:href="#DejaVuSans-20" x="290.576172"/>
       <use xlink:href="#DejaVuSans-31" x="322.363281"/>
       <use xlink:href="#DejaVuSans-32" x="385.986328"/>
      </g>
     </g>
    </g>
    <g id="xtick_24">
     <g id="line2d_36">
      <g>
       <use xlink:href="#m8d8b7575d3" x="506.349253" y="246.04" style="stroke: #000000; stroke-width: 0.8"/>
      </g>
     </g>
     <g id="text_30">
      <!-- 02-26 00 -->
      <g transform="translate(483.868784 260.638437) scale(0.1 -0.1)">
       <use xlink:href="#DejaVuSans-30"/>
       <use xlink:href="#DejaVuSans-32" x="63.623047"/>
       <use xlink:href="#DejaVuSans-2d" x="127.246094"/>
       <use xlink:href="#DejaVuSans-32" x="163.330078"/>
       <use xlink:href="#DejaVuSans-36" x="226.953125"/>
       <use xlink:href="#DejaVuSans-20" x="290.576172"/>
       <use xlink:href="#DejaVuSans-30" x="322.363281"/>
       <use xlink:href="#DejaVuSans-30" x="385.986328"/>
      </g>
     </g>
    </g>
    <g id="xtick_25">
     <g id="line2d_37">
      <g>
       <use xlink:href="#m8d8b7575d3" x="548.403993" y="246.04" style="stroke: #000000; stroke-width: 0.8"/>
      </g>
     </g>
     <g id="text_31">
      <!-- 02-26 12 -->
      <g transform="translate(525.923524 260.638437) scale(0.1 -0.1)">
       <use xlink:href="#DejaVuSans-30"/>
       <use xlink:href="#DejaVuSans-32" x="63.623047"/>
       <use xlink:href="#DejaVuSans-2d" x="127.246094"/>
       <use xlink:href="#DejaVuSans-32" x="163.330078"/>
       <use xlink:href="#DejaVuSans-36" x="226.953125"/>
       <use xlink:href="#DejaVuSans-20" x="290.576172"/>
       <use xlink:href="#DejaVuSans-31" x="322.363281"/>
       <use xlink:href="#DejaVuSans-32" x="385.986328"/>
      </g>
     </g>
    </g>
    <g id="xtick_26">
     <g id="line2d_38">
      <g>
       <use xlink:href="#m8d8b7575d3" x="590.458733" y="246.04" style="stroke: #000000; stroke-width: 0.8"/>
      </g>
     </g>
     <g id="text_32">
      <!-- 02-27 00 -->
      <g transform="translate(567.978265 260.638437) scale(0.1 -0.1)">
       <use xlink:href="#DejaVuSans-30"/>
       <use xlink:href="#DejaVuSans-32" x="63.623047"/>
       <use xlink:href="#DejaVuSans-2d" x="127.246094"/>
       <use xlink:href="#DejaVuSans-32" x="163.330078"/>
       <use xlink:href="#DejaVuSans-37" x="226.953125"/>
       <use xlink:href="#DejaVuSans-20" x="290.576172"/>
       <use xlink:href="#DejaVuSans-30" x="322.363281"/>
       <use xlink:href="#DejaVuSans-30" x="385.986328"/>
      </g>
     </g>
    </g>
    <g id="xtick_27">
     <g id="line2d_39">
      <g>
       <use xlink:href="#m8d8b7575d3" x="632.513473" y="246.04" style="stroke: #000000; stroke-width: 0.8"/>
      </g>
     </g>
     <g id="text_33">
      <!-- 02-27 12 -->
      <g transform="translate(610.033005 260.638437) scale(0.1 -0.1)">
       <use xlink:href="#DejaVuSans-30"/>
       <use xlink:href="#DejaVuSans-32" x="63.623047"/>
       <use xlink:href="#DejaVuSans-2d" x="127.246094"/>
       <use xlink:href="#DejaVuSans-32" x="163.330078"/>
       <use xlink:href="#DejaVuSans-37" x="226.953125"/>
       <use xlink:href="#DejaVuSans-20" x="290.576172"/>
       <use xlink:href="#DejaVuSans-31" x="322.363281"/>
       <use xlink:href="#DejaVuSans-32" x="385.986328"/>
      </g>
     </g>
    </g>
    <g id="xtick_28">
     <g id="line2d_40">
      <g>
       <use xlink:href="#m8d8b7575d3" x="674.568214" y="246.04" style="stroke: #000000; stroke-width: 0.8"/>
      </g>
     </g>
     <g id="text_34">
      <!-- 02-28 00 -->
      <g transform="translate(652.087745 260.638437) scale(0.1 -0.1)">
       <use xlink:href="#DejaVuSans-30"/>
       <use xlink:href="#DejaVuSans-32" x="63.623047"/>
       <use xlink:href="#DejaVuSans-2d" x="127.246094"/>
       <use xlink:href="#DejaVuSans-32" x="163.330078"/>
       <use xlink:href="#DejaVuSans-38" x="226.953125"/>
       <use xlink:href="#DejaVuSans-20" x="290.576172"/>
       <use xlink:href="#DejaVuSans-30" x="322.363281"/>
       <use xlink:href="#DejaVuSans-30" x="385.986328"/>
      </g>
     </g>
    </g>
    <g id="text_35">
     <!-- time -->
     <g transform="translate(547.591406 274.316562) scale(0.1 -0.1)">
      <use xlink:href="#DejaVuSans-74"/>
      <use xlink:href="#DejaVuSans-69" x="39.208984"/>
      <use xlink:href="#DejaVuSans-6d" x="66.992188"/>
      <use xlink:href="#DejaVuSans-65" x="164.404297"/>
     </g>
    </g>
   </g>
   <g id="matplotlib.axis_8">
    <g id="ytick_10">
     <g id="line2d_41">
      <g>
       <use xlink:href="#m84447278ed" x="408.575" y="241.783636" style="stroke: #000000; stroke-width: 0.8"/>
      </g>
     </g>
     <g id="text_36">
      <!-- 0 -->
      <g transform="translate(395.2125 245.582855) scale(0.1 -0.1)">
       <use xlink:href="#DejaVuSans-30"/>
      </g>
     </g>
    </g>
    <g id="ytick_11">
     <g id="line2d_42">
      <g>
       <use xlink:href="#m84447278ed" x="408.575" y="199.078932" style="stroke: #000000; stroke-width: 0.8"/>
      </g>
     </g>
     <g id="text_37">
      <!-- 1 -->
      <g transform="translate(395.2125 202.878151) scale(0.1 -0.1)">
       <use xlink:href="#DejaVuSans-31"/>
      </g>
     </g>
    </g>
    <g id="ytick_12">
     <g id="line2d_43">
      <g>
       <use xlink:href="#m84447278ed" x="408.575" y="156.374228" style="stroke: #000000; stroke-width: 0.8"/>
      </g>
     </g>
     <g id="text_38">
      <!-- 2 -->
      <g transform="translate(395.2125 160.173447) scale(0.1 -0.1)">
       <use xlink:href="#DejaVuSans-32"/>
      </g>
     </g>
    </g>
    <g id="text_39">
     <!-- depth (m) -->
     <g transform="translate(389.132812 224.134844) rotate(-90) scale(0.1 -0.1)">
      <use xlink:href="#DejaVuSans-64"/>
      <use xlink:href="#DejaVuSans-65" x="63.476562"/>
      <use xlink:href="#DejaVuSans-70" x="125"/>
      <use xlink:href="#DejaVuSans-74" x="188.476562"/>
      <use xlink:href="#DejaVuSans-68" x="227.685547"/>
      <use xlink:href="#DejaVuSans-20" x="291.064453"/>
      <use xlink:href="#DejaVuSans-28" x="322.851562"/>
      <use xlink:href="#DejaVuSans-6d" x="361.865234"/>
      <use xlink:href="#DejaVuSans-29" x="459.277344"/>
     </g>
    </g>
   </g>
   <g id="line2d_44">
    <path d="M 422.239773 241.783636 
L 426.855086 241.691767 
L 427.555998 241.420635 
L 428.29877 240.884644 
L 429.145706 239.977078 
L 429.755111 239.071032 
L 430.462837 237.567775 
L 431.989269 233.570605 
L 434.251658 228.090734 
L 434.737429 226.84273 
L 436.781757 220.33735 
L 438.204025 214.568245 
L 438.969187 211.148104 
L 439.916392 206.585506 
L 441.717348 197.015465 
L 444.796495 178.932246 
L 447.310044 166.41814 
L 448.305924 162.935988 
L 449.184985 160.437994 
L 450.136084 158.292263 
L 450.700708 157.296842 
L 451.211789 156.833376 
L 451.732606 156.656364 
L 452.121028 156.803939 
L 452.780081 157.332402 
L 453.238594 157.924579 
L 454.037829 159.278698 
L 455.044417 161.583395 
L 457.124764 168.136497 
L 458.167371 172.227562 
L 460.098774 180.606163 
L 461.933801 189.53079 
L 462.607456 210.61684 
L 463.641302 222.601276 
L 464.143622 226.095797 
L 464.655677 228.258026 
L 465.870592 230.727042 
L 467.326932 232.413631 
L 467.891556 232.751533 
L 468.406532 233.031531 
L 468.793981 233.208709 
L 469.637022 233.65257 
L 470.654319 233.937185 
L 471.058317 234.034931 
L 471.6171 234.175632 
L 475.694073 235.542386 
L 476.301531 235.709093 
L 477.413255 235.998953 
L 479.657148 236.540635 
L 482.172645 237.097622 
L 484.913991 237.551866 
L 486.115277 237.76755 
L 499.367387 239.989893 
L 506.639353 240.49156 
L 511.808581 240.7004 
L 522.40988 240.955988 
L 542.56111 241.197953 
L 577.869569 241.394806 
L 652.691961 241.552454 
L 695.535227 241.594778 
L 695.535227 241.594778 
" clip-path="url(#p294ea34dd0)" style="fill: none; stroke: #1f77b4; stroke-width: 1.5; stroke-linecap: square"/>
   </g>
   <g id="patch_18">
    <path d="M 408.575 246.04 
L 408.575 152.4 
" style="fill: none; stroke: #000000; stroke-width: 0.8; stroke-linejoin: miter; stroke-linecap: square"/>
   </g>
   <g id="patch_19">
    <path d="M 709.2 246.04 
L 709.2 152.4 
" style="fill: none; stroke: #000000; stroke-width: 0.8; stroke-linejoin: miter; stroke-linecap: square"/>
   </g>
   <g id="patch_20">
    <path d="M 408.575 246.04 
L 709.2 246.04 
" style="fill: none; stroke: #000000; stroke-width: 0.8; stroke-linejoin: miter; stroke-linecap: square"/>
   </g>
   <g id="patch_21">
    <path d="M 408.575 152.4 
L 709.2 152.4 
" style="fill: none; stroke: #000000; stroke-width: 0.8; stroke-linejoin: miter; stroke-linecap: square"/>
   </g>
   <g id="text_40">
    <!-- ('P2', 'depthN') -->
    <g transform="translate(494.8354 175.8962) scale(0.1728 -0.1728)">
     <use xlink:href="#DejaVuSans-28"/>
     <use xlink:href="#DejaVuSans-27" x="39.013672"/>
     <use xlink:href="#DejaVuSans-50" x="66.503906"/>
     <use xlink:href="#DejaVuSans-32" x="126.806641"/>
     <use xlink:href="#DejaVuSans-27" x="190.429688"/>
     <use xlink:href="#DejaVuSans-2c" x="217.919922"/>
     <use xlink:href="#DejaVuSans-20" x="249.707031"/>
     <use xlink:href="#DejaVuSans-27" x="281.494141"/>
     <use xlink:href="#DejaVuSans-64" x="308.984375"/>
     <use xlink:href="#DejaVuSans-65" x="372.460938"/>
     <use xlink:href="#DejaVuSans-70" x="433.984375"/>
     <use xlink:href="#DejaVuSans-74" x="497.460938"/>
     <use xlink:href="#DejaVuSans-68" x="536.669922"/>
     <use xlink:href="#DejaVuSans-4e" x="600.048828"/>
     <use xlink:href="#DejaVuSans-27" x="674.853516"/>
     <use xlink:href="#DejaVuSans-29" x="702.34375"/>
    </g>
   </g>
   <g id="text_41">
    <!-- cost: 6.13e+03 -->
    <g transform="translate(492.51745 203.9882) scale(0.1728 -0.1728)">
     <defs>
      <path id="DejaVuSans-3a" d="M 750 794 
L 1409 794 
L 1409 0 
L 750 0 
L 750 794 
z
M 750 3309 
L 1409 3309 
L 1409 2516 
L 750 2516 
L 750 3309 
z
" transform="scale(0.015625)"/>
      <path id="DejaVuSans-33" d="M 2597 2516 
Q 3050 2419 3304 2112 
Q 3559 1806 3559 1356 
Q 3559 666 3084 287 
Q 2609 -91 1734 -91 
Q 1441 -91 1130 -33 
Q 819 25 488 141 
L 488 750 
Q 750 597 1062 519 
Q 1375 441 1716 441 
Q 2309 441 2620 675 
Q 2931 909 2931 1356 
Q 2931 1769 2642 2001 
Q 2353 2234 1838 2234 
L 1294 2234 
L 1294 2753 
L 1863 2753 
Q 2328 2753 2575 2939 
Q 2822 3125 2822 3475 
Q 2822 3834 2567 4026 
Q 2313 4219 1838 4219 
Q 1578 4219 1281 4162 
Q 984 4106 628 3988 
L 628 4550 
Q 988 4650 1302 4700 
Q 1616 4750 1894 4750 
Q 2613 4750 3031 4423 
Q 3450 4097 3450 3541 
Q 3450 3153 3228 2886 
Q 3006 2619 2597 2516 
z
" transform="scale(0.015625)"/>
      <path id="DejaVuSans-2b" d="M 2944 4013 
L 2944 2272 
L 4684 2272 
L 4684 1741 
L 2944 1741 
L 2944 0 
L 2419 0 
L 2419 1741 
L 678 1741 
L 678 2272 
L 2419 2272 
L 2419 4013 
L 2944 4013 
z
" transform="scale(0.015625)"/>
     </defs>
     <use xlink:href="#DejaVuSans-63"/>
     <use xlink:href="#DejaVuSans-6f" x="54.980469"/>
     <use xlink:href="#DejaVuSans-73" x="116.162109"/>
     <use xlink:href="#DejaVuSans-74" x="168.261719"/>
     <use xlink:href="#DejaVuSans-3a" x="207.470703"/>
     <use xlink:href="#DejaVuSans-20" x="241.162109"/>
     <use xlink:href="#DejaVuSans-36" x="272.949219"/>
     <use xlink:href="#DejaVuSans-2e" x="336.572266"/>
     <use xlink:href="#DejaVuSans-31" x="368.359375"/>
     <use xlink:href="#DejaVuSans-33" x="431.982422"/>
     <use xlink:href="#DejaVuSans-65" x="495.605469"/>
     <use xlink:href="#DejaVuSans-2b" x="557.128906"/>
     <use xlink:href="#DejaVuSans-30" x="640.917969"/>
     <use xlink:href="#DejaVuSans-33" x="704.541016"/>
    </g>
   </g>
  </g>
 </g>
 <defs>
  <clipPath id="p44510f924b">
   <rect x="53.93" y="26.88" width="300.625" height="93.64"/>
  </clipPath>
  <clipPath id="p51b8a28cae">
   <rect x="408.575" y="26.88" width="300.625" height="93.64"/>
  </clipPath>
  <clipPath id="p27eabd9228">
   <rect x="53.93" y="152.4" width="300.625" height="93.64"/>
  </clipPath>
  <clipPath id="p294ea34dd0">
   <rect x="408.575" y="152.4" width="300.625" height="93.64"/>
  </clipPath>
 </defs>
</svg>
