<?xml version="1.0" encoding="utf-8" standalone="no"?>
<!DOCTYPE svg PUBLIC "-//W3C//DTD SVG 1.1//EN"
  "http://www.w3.org/Graphics/SVG/1.1/DTD/svg11.dtd">
<svg xmlns:xlink="http://www.w3.org/1999/xlink" width="720pt" height="288pt" viewBox="0 0 720 288" xmlns="http://www.w3.org/2000/svg" version="1.1">
 <metadata>
  <rdf:RDF xmlns:dc="http://purl.org/dc/elements/1.1/" xmlns:cc="http://creativecommons.org/ns#" xmlns:rdf="http://www.w3.org/1999/02/22-rdf-syntax-ns#">
   <cc:Work>
    <dc:type rdf:resource="http://purl.org/dc/dcmitype/StillImage"/>
    <dc:date>2025-03-03T16:22:49.434225</dc:date>
    <dc:format>image/svg+xml</dc:format>
    <dc:creator>
     <cc:Agent>
      <dc:title>Matplotlib v3.9.4, https://matplotlib.org/</dc:title>
     </cc:Agent>
    </dc:creator>
   </cc:Work>
  </rdf:RDF>
 </metadata>
 <defs>
  <style type="text/css">*{stroke-linejoin: round; stroke-linecap: butt}</style>
 </defs>
 <g id="figure_1">
  <g id="patch_1">
   <path d="M 0 288 
L 720 288 
L 720 0 
L 0 0 
z
" style="fill: #ffffff"/>
  </g>
  <g id="axes_1">
   <g id="patch_2">
    <path d="M 54.02 119.822189 
L 346.877055 119.822189 
L 346.877055 26.88 
L 54.02 26.88 
z
" style="fill: #ffffff"/>
   </g>
   <g id="matplotlib.axis_1">
    <g id="xtick_1">
     <g id="line2d_1">
      <defs>
       <path id="me394e44136" d="M 0 0 
L 0 3.5 
" style="stroke: #000000; stroke-width: 0.8"/>
      </defs>
      <g>
       <use xlink:href="#me394e44136" x="67.331684" y="119.822189" style="stroke: #000000; stroke-width: 0.8"/>
      </g>
     </g>
    </g>
    <g id="xtick_2">
     <g id="line2d_2">
      <g>
       <use xlink:href="#me394e44136" x="96.923708" y="119.822189" style="stroke: #000000; stroke-width: 0.8"/>
      </g>
     </g>
    </g>
    <g id="xtick_3">
     <g id="line2d_3">
      <g>
       <use xlink:href="#me394e44136" x="126.515733" y="119.822189" style="stroke: #000000; stroke-width: 0.8"/>
      </g>
     </g>
    </g>
    <g id="xtick_4">
     <g id="line2d_4">
      <g>
       <use xlink:href="#me394e44136" x="156.107757" y="119.822189" style="stroke: #000000; stroke-width: 0.8"/>
      </g>
     </g>
    </g>
    <g id="xtick_5">
     <g id="line2d_5">
      <g>
       <use xlink:href="#me394e44136" x="185.699781" y="119.822189" style="stroke: #000000; stroke-width: 0.8"/>
      </g>
     </g>
    </g>
    <g id="xtick_6">
     <g id="line2d_6">
      <g>
       <use xlink:href="#me394e44136" x="215.291805" y="119.822189" style="stroke: #000000; stroke-width: 0.8"/>
      </g>
     </g>
    </g>
    <g id="xtick_7">
     <g id="line2d_7">
      <g>
       <use xlink:href="#me394e44136" x="244.883829" y="119.822189" style="stroke: #000000; stroke-width: 0.8"/>
      </g>
     </g>
    </g>
    <g id="xtick_8">
     <g id="line2d_8">
      <g>
       <use xlink:href="#me394e44136" x="274.475853" y="119.822189" style="stroke: #000000; stroke-width: 0.8"/>
      </g>
     </g>
    </g>
    <g id="xtick_9">
     <g id="line2d_9">
      <g>
       <use xlink:href="#me394e44136" x="304.067877" y="119.822189" style="stroke: #000000; stroke-width: 0.8"/>
      </g>
     </g>
    </g>
    <g id="xtick_10">
     <g id="line2d_10">
      <g>
       <use xlink:href="#me394e44136" x="333.659901" y="119.822189" style="stroke: #000000; stroke-width: 0.8"/>
      </g>
     </g>
    </g>
    <g id="text_1">
     <!-- time -->
     <g transform="translate(189.152434 138.420626) scale(0.1 -0.1)">
      <defs>
       <path id="DejaVuSans-74" d="M 1172 4494 
L 1172 3500 
L 2356 3500 
L 2356 3053 
L 1172 3053 
L 1172 1153 
Q 1172 725 1289 603 
Q 1406 481 1766 481 
L 2356 481 
L 2356 0 
L 1766 0 
Q 1100 0 847 248 
Q 594 497 594 1153 
L 594 3053 
L 172 3053 
L 172 3500 
L 594 3500 
L 594 4494 
L 1172 4494 
z
" transform="scale(0.015625)"/>
       <path id="DejaVuSans-69" d="M 603 3500 
L 1178 3500 
L 1178 0 
L 603 0 
L 603 3500 
z
M 603 4863 
L 1178 4863 
L 1178 4134 
L 603 4134 
L 603 4863 
z
" transform="scale(0.015625)"/>
       <path id="DejaVuSans-6d" d="M 3328 2828 
Q 3544 3216 3844 3400 
Q 4144 3584 4550 3584 
Q 5097 3584 5394 3201 
Q 5691 2819 5691 2113 
L 5691 0 
L 5113 0 
L 5113 2094 
Q 5113 2597 4934 2840 
Q 4756 3084 4391 3084 
Q 3944 3084 3684 2787 
Q 3425 2491 3425 1978 
L 3425 0 
L 2847 0 
L 2847 2094 
Q 2847 2600 2669 2842 
Q 2491 3084 2119 3084 
Q 1678 3084 1418 2786 
Q 1159 2488 1159 1978 
L 1159 0 
L 581 0 
L 581 3500 
L 1159 3500 
L 1159 2956 
Q 1356 3278 1631 3431 
Q 1906 3584 2284 3584 
Q 2666 3584 2933 3390 
Q 3200 3197 3328 2828 
z
" transform="scale(0.015625)"/>
       <path id="DejaVuSans-65" d="M 3597 1894 
L 3597 1613 
L 953 1613 
Q 991 1019 1311 708 
Q 1631 397 2203 397 
Q 2534 397 2845 478 
Q 3156 559 3463 722 
L 3463 178 
Q 3153 47 2828 -22 
Q 2503 -91 2169 -91 
Q 1331 -91 842 396 
Q 353 884 353 1716 
Q 353 2575 817 3079 
Q 1281 3584 2069 3584 
Q 2775 3584 3186 3129 
Q 3597 2675 3597 1894 
z
M 3022 2063 
Q 3016 2534 2758 2815 
Q 2500 3097 2075 3097 
Q 1594 3097 1305 2825 
Q 1016 2553 972 2059 
L 3022 2063 
z
" transform="scale(0.015625)"/>
      </defs>
      <use xlink:href="#DejaVuSans-74"/>
      <use xlink:href="#DejaVuSans-69" x="39.208984"/>
      <use xlink:href="#DejaVuSans-6d" x="66.992188"/>
      <use xlink:href="#DejaVuSans-65" x="164.404297"/>
     </g>
    </g>
   </g>
   <g id="matplotlib.axis_2">
    <g id="ytick_1">
     <g id="line2d_11">
      <defs>
       <path id="m931fe0d75c" d="M 0 0 
L -3.5 0 
" style="stroke: #000000; stroke-width: 0.8"/>
      </defs>
      <g>
       <use xlink:href="#m931fe0d75c" x="54.02" y="115.597544" style="stroke: #000000; stroke-width: 0.8"/>
      </g>
     </g>
     <g id="text_2">
      <!-- 0.0 -->
      <g transform="translate(31.116875 119.396762) scale(0.1 -0.1)">
       <defs>
        <path id="DejaVuSans-30" d="M 2034 4250 
Q 1547 4250 1301 3770 
Q 1056 3291 1056 2328 
Q 1056 1369 1301 889 
Q 1547 409 2034 409 
Q 2525 409 2770 889 
Q 3016 1369 3016 2328 
Q 3016 3291 2770 3770 
Q 2525 4250 2034 4250 
z
M 2034 4750 
Q 2819 4750 3233 4129 
Q 3647 3509 3647 2328 
Q 3647 1150 3233 529 
Q 2819 -91 2034 -91 
Q 1250 -91 836 529 
Q 422 1150 422 2328 
Q 422 3509 836 4129 
Q 1250 4750 2034 4750 
z
" transform="scale(0.015625)"/>
        <path id="DejaVuSans-2e" d="M 684 794 
L 1344 794 
L 1344 0 
L 684 0 
L 684 794 
z
" transform="scale(0.015625)"/>
       </defs>
       <use xlink:href="#DejaVuSans-30"/>
       <use xlink:href="#DejaVuSans-2e" x="63.623047"/>
       <use xlink:href="#DejaVuSans-30" x="95.410156"/>
      </g>
     </g>
    </g>
    <g id="ytick_2">
     <g id="line2d_12">
      <g>
       <use xlink:href="#m931fe0d75c" x="54.02" y="91.407915" style="stroke: #000000; stroke-width: 0.8"/>
      </g>
     </g>
     <g id="text_3">
      <!-- 0.1 -->
      <g transform="translate(31.116875 95.207134) scale(0.1 -0.1)">
       <defs>
        <path id="DejaVuSans-31" d="M 794 531 
L 1825 531 
L 1825 4091 
L 703 3866 
L 703 4441 
L 1819 4666 
L 2450 4666 
L 2450 531 
L 3481 531 
L 3481 0 
L 794 0 
L 794 531 
z
" transform="scale(0.015625)"/>
       </defs>
       <use xlink:href="#DejaVuSans-30"/>
       <use xlink:href="#DejaVuSans-2e" x="63.623047"/>
       <use xlink:href="#DejaVuSans-31" x="95.410156"/>
      </g>
     </g>
    </g>
    <g id="ytick_3">
     <g id="line2d_13">
      <g>
       <use xlink:href="#m931fe0d75c" x="54.02" y="67.218287" style="stroke: #000000; stroke-width: 0.8"/>
      </g>
     </g>
     <g id="text_4">
      <!-- 0.2 -->
      <g transform="translate(31.116875 71.017506) scale(0.1 -0.1)">
       <defs>
        <path id="DejaVuSans-32" d="M 1228 531 
L 3431 531 
L 3431 0 
L 469 0 
L 469 531 
Q 828 903 1448 1529 
Q 2069 2156 2228 2338 
Q 2531 2678 2651 2914 
Q 2772 3150 2772 3378 
Q 2772 3750 2511 3984 
Q 2250 4219 1831 4219 
Q 1534 4219 1204 4116 
Q 875 4013 500 3803 
L 500 4441 
Q 881 4594 1212 4672 
Q 1544 4750 1819 4750 
Q 2544 4750 2975 4387 
Q 3406 4025 3406 3419 
Q 3406 3131 3298 2873 
Q 3191 2616 2906 2266 
Q 2828 2175 2409 1742 
Q 1991 1309 1228 531 
z
" transform="scale(0.015625)"/>
       </defs>
       <use xlink:href="#DejaVuSans-30"/>
       <use xlink:href="#DejaVuSans-2e" x="63.623047"/>
       <use xlink:href="#DejaVuSans-32" x="95.410156"/>
      </g>
     </g>
    </g>
    <g id="ytick_4">
     <g id="line2d_14">
      <g>
       <use xlink:href="#m931fe0d75c" x="54.02" y="43.028659" style="stroke: #000000; stroke-width: 0.8"/>
      </g>
     </g>
     <g id="text_5">
      <!-- 0.3 -->
      <g transform="translate(31.116875 46.827878) scale(0.1 -0.1)">
       <defs>
        <path id="DejaVuSans-33" d="M 2597 2516 
Q 3050 2419 3304 2112 
Q 3559 1806 3559 1356 
Q 3559 666 3084 287 
Q 2609 -91 1734 -91 
Q 1441 -91 1130 -33 
Q 819 25 488 141 
L 488 750 
Q 750 597 1062 519 
Q 1375 441 1716 441 
Q 2309 441 2620 675 
Q 2931 909 2931 1356 
Q 2931 1769 2642 2001 
Q 2353 2234 1838 2234 
L 1294 2234 
L 1294 2753 
L 1863 2753 
Q 2328 2753 2575 2939 
Q 2822 3125 2822 3475 
Q 2822 3834 2567 4026 
Q 2313 4219 1838 4219 
Q 1578 4219 1281 4162 
Q 984 4106 628 3988 
L 628 4550 
Q 988 4650 1302 4700 
Q 1616 4750 1894 4750 
Q 2613 4750 3031 4423 
Q 3450 4097 3450 3541 
Q 3450 3153 3228 2886 
Q 3006 2619 2597 2516 
z
" transform="scale(0.015625)"/>
       </defs>
       <use xlink:href="#DejaVuSans-30"/>
       <use xlink:href="#DejaVuSans-2e" x="63.623047"/>
       <use xlink:href="#DejaVuSans-33" x="95.410156"/>
      </g>
     </g>
    </g>
    <g id="text_6">
     <!-- flow (cms) -->
     <g transform="translate(25.037188 99.363594) rotate(-90) scale(0.1 -0.1)">
      <defs>
       <path id="DejaVuSans-66" d="M 2375 4863 
L 2375 4384 
L 1825 4384 
Q 1516 4384 1395 4259 
Q 1275 4134 1275 3809 
L 1275 3500 
L 2222 3500 
L 2222 3053 
L 1275 3053 
L 1275 0 
L 697 0 
L 697 3053 
L 147 3053 
L 147 3500 
L 697 3500 
L 697 3744 
Q 697 4328 969 4595 
Q 1241 4863 1831 4863 
L 2375 4863 
z
" transform="scale(0.015625)"/>
       <path id="DejaVuSans-6c" d="M 603 4863 
L 1178 4863 
L 1178 0 
L 603 0 
L 603 4863 
z
" transform="scale(0.015625)"/>
       <path id="DejaVuSans-6f" d="M 1959 3097 
Q 1497 3097 1228 2736 
Q 959 2375 959 1747 
Q 959 1119 1226 758 
Q 1494 397 1959 397 
Q 2419 397 2687 759 
Q 2956 1122 2956 1747 
Q 2956 2369 2687 2733 
Q 2419 3097 1959 3097 
z
M 1959 3584 
Q 2709 3584 3137 3096 
Q 3566 2609 3566 1747 
Q 3566 888 3137 398 
Q 2709 -91 1959 -91 
Q 1206 -91 779 398 
Q 353 888 353 1747 
Q 353 2609 779 3096 
Q 1206 3584 1959 3584 
z
" transform="scale(0.015625)"/>
       <path id="DejaVuSans-77" d="M 269 3500 
L 844 3500 
L 1563 769 
L 2278 3500 
L 2956 3500 
L 3675 769 
L 4391 3500 
L 4966 3500 
L 4050 0 
L 3372 0 
L 2619 2869 
L 1863 0 
L 1184 0 
L 269 3500 
z
" transform="scale(0.015625)"/>
       <path id="DejaVuSans-20" transform="scale(0.015625)"/>
       <path id="DejaVuSans-28" d="M 1984 4856 
Q 1566 4138 1362 3434 
Q 1159 2731 1159 2009 
Q 1159 1288 1364 580 
Q 1569 -128 1984 -844 
L 1484 -844 
Q 1016 -109 783 600 
Q 550 1309 550 2009 
Q 550 2706 781 3412 
Q 1013 4119 1484 4856 
L 1984 4856 
z
" transform="scale(0.015625)"/>
       <path id="DejaVuSans-63" d="M 3122 3366 
L 3122 2828 
Q 2878 2963 2633 3030 
Q 2388 3097 2138 3097 
Q 1578 3097 1268 2742 
Q 959 2388 959 1747 
Q 959 1106 1268 751 
Q 1578 397 2138 397 
Q 2388 397 2633 464 
Q 2878 531 3122 666 
L 3122 134 
Q 2881 22 2623 -34 
Q 2366 -91 2075 -91 
Q 1284 -91 818 406 
Q 353 903 353 1747 
Q 353 2603 823 3093 
Q 1294 3584 2113 3584 
Q 2378 3584 2631 3529 
Q 2884 3475 3122 3366 
z
" transform="scale(0.015625)"/>
       <path id="DejaVuSans-73" d="M 2834 3397 
L 2834 2853 
Q 2591 2978 2328 3040 
Q 2066 3103 1784 3103 
Q 1356 3103 1142 2972 
Q 928 2841 928 2578 
Q 928 2378 1081 2264 
Q 1234 2150 1697 2047 
L 1894 2003 
Q 2506 1872 2764 1633 
Q 3022 1394 3022 966 
Q 3022 478 2636 193 
Q 2250 -91 1575 -91 
Q 1294 -91 989 -36 
Q 684 19 347 128 
L 347 722 
Q 666 556 975 473 
Q 1284 391 1588 391 
Q 1994 391 2212 530 
Q 2431 669 2431 922 
Q 2431 1156 2273 1281 
Q 2116 1406 1581 1522 
L 1381 1569 
Q 847 1681 609 1914 
Q 372 2147 372 2553 
Q 372 3047 722 3315 
Q 1072 3584 1716 3584 
Q 2034 3584 2315 3537 
Q 2597 3491 2834 3397 
z
" transform="scale(0.015625)"/>
       <path id="DejaVuSans-29" d="M 513 4856 
L 1013 4856 
Q 1481 4119 1714 3412 
Q 1947 2706 1947 2009 
Q 1947 1309 1714 600 
Q 1481 -109 1013 -844 
L 513 -844 
Q 928 -128 1133 580 
Q 1338 1288 1338 2009 
Q 1338 2731 1133 3434 
Q 928 4138 513 4856 
z
" transform="scale(0.015625)"/>
      </defs>
      <use xlink:href="#DejaVuSans-66"/>
      <use xlink:href="#DejaVuSans-6c" x="35.205078"/>
      <use xlink:href="#DejaVuSans-6f" x="62.988281"/>
      <use xlink:href="#DejaVuSans-77" x="124.169922"/>
      <use xlink:href="#DejaVuSans-20" x="205.957031"/>
      <use xlink:href="#DejaVuSans-28" x="237.744141"/>
      <use xlink:href="#DejaVuSans-63" x="276.757812"/>
      <use xlink:href="#DejaVuSans-6d" x="331.738281"/>
      <use xlink:href="#DejaVuSans-73" x="429.150391"/>
      <use xlink:href="#DejaVuSans-29" x="481.25"/>
     </g>
    </g>
   </g>
   <g id="line2d_15">
    <path d="M 67.331684 115.597544 
L 76.889497 115.506872 
L 77.629298 115.269284 
L 78.369098 114.781402 
L 79.291794 113.832711 
L 80.86387 111.935189 
L 81.274871 110.787293 
L 81.535856 110.393512 
L 81.790676 111.305235 
L 82.179071 110.354185 
L 82.304427 109.098857 
L 82.775022 108.184803 
L 83.072997 106.905294 
L 83.360697 106.166696 
L 83.500438 106.358656 
L 83.915548 104.776276 
L 84.051178 105.360015 
L 84.184753 105.372925 
L 84.583423 103.597741 
L 84.712888 100.824232 
L 84.869069 102.594344 
L 85.179374 101.186814 
L 85.329389 97.343297 
L 85.477349 100.519969 
L 85.771214 99.121874 
L 86.058915 94.605746 
L 86.334285 94.286872 
L 86.469915 94.695694 
L 86.605545 97.683957 
L 87.152175 94.398997 
L 87.417271 92.67741 
L 87.678256 91.772045 
L 87.931021 86.349417 
L 88.226941 86.822206 
L 88.372846 92.641224 
L 88.896872 89.677203 
L 89.044832 90.234689 
L 89.336642 87.769429 
L 89.480492 87.224523 
L 89.624342 88.337841 
L 89.766138 83.622698 
L 90.047673 83.106152 
L 90.185358 83.438423 
L 90.325098 82.086678 
L 90.462783 82.039799 
L 90.738153 81.000882 
L 90.873784 79.884719 
L 91.009414 83.827932 
L 91.416304 80.447132 
L 91.549879 80.932267 
L 91.944439 77.747006 
L 92.073904 76.971575 
L 92.20337 77.448934 
L 92.58971 74.873228 
L 92.842475 69.627819 
L 93.220595 69.041102 
L 93.345951 72.000846 
L 93.471306 72.191258 
L 93.847371 69.813702 
L 93.972726 66.069396 
L 94.116576 68.136341 
L 94.385781 66.904043 
L 94.527576 62.408854 
L 94.671427 66.278243 
L 94.957072 65.020421 
L 95.100922 60.327921 
L 95.240662 61.121177 
L 95.382457 61.245981 
L 95.663992 60.90205 
L 95.803733 62.582 
L 96.085268 60.743982 
L 96.225008 60.340435 
L 96.364748 61.740666 
L 96.506543 58.864582 
L 96.783968 58.3931 
L 96.923708 58.087046 
L 97.201134 58.912338 
L 97.616244 57.611676 
L 97.893669 55.889164 
L 98.166984 55.376014 
L 98.30467 56.946192 
L 98.58004 55.34941 
L 98.853355 54.850499 
L 98.988985 50.643853 
L 99.260245 51.213063 
L 99.395875 51.345726 
L 99.531506 53.532834 
L 99.804821 52.540001 
L 100.076081 51.898019 
L 100.211711 53.509585 
L 100.618601 51.982496 
L 100.754232 52.009369 
L 100.887807 51.826807 
L 101.159067 50.888841 
L 101.294697 49.177231 
L 101.428272 50.714878 
L 102.369463 47.727058 
L 102.500983 46.045659 
L 102.634558 48.732499 
L 103.035283 47.377619 
L 103.168859 44.817732 
L 103.302434 45.201417 
L 103.567529 45.102934 
L 103.699049 45.000597 
L 103.964144 47.593875 
L 104.231294 46.371378 
L 104.362814 43.710036 
L 104.49639 45.295968 
L 104.893005 44.167437 
L 105.156045 40.631895 
L 105.550605 41.061121 
L 105.680071 42.218557 
L 106.206151 41.435671 
L 106.337671 43.415539 
L 106.600711 42.055082 
L 106.732231 41.609351 
L 106.863752 39.666477 
L 106.995272 42.18431 
L 107.517242 39.486008 
L 107.776172 38.562872 
L 108.037157 38.214557 
L 108.166623 38.32769 
L 108.427608 37.344243 
L 108.557073 37.200559 
L 108.686538 36.861779 
L 108.816003 35.583448 
L 108.945468 35.903441 
L 109.204398 35.794852 
L 109.333864 38.430808 
L 109.463329 32.910295 
L 109.847614 33.671822 
L 109.977079 38.535516 
L 110.106544 35.238447 
L 110.494939 34.471699 
L 110.62235 37.835757 
L 111.14021 33.920061 
L 111.269675 31.104645 
L 111.524495 31.469903 
L 111.65396 31.468276 
L 111.908781 33.270394 
L 112.038246 32.946079 
L 112.295121 32.753128 
L 112.422531 31.672555 
L 112.551996 35.222268 
L 112.938336 34.649538 
L 113.065747 31.962398 
L 113.322622 33.247053 
L 113.579497 33.893887 
L 113.836372 32.249977 
L 114.093247 33.51799 
L 114.350123 37.483753 
L 114.479588 36.972001 
L 114.738518 36.953896 
L 114.995393 34.627479 
L 115.381733 36.024701 
L 115.511199 39.036443 
L 115.640664 33.619642 
L 116.027004 35.606033 
L 116.154414 40.898858 
L 116.285934 39.303716 
L 116.67433 38.670668 
L 116.93326 37.218552 
L 117.19219 37.690597 
L 117.321655 40.914112 
L 117.45112 38.71008 
L 117.71005 38.785593 
L 117.839515 38.792514 
L 117.968981 38.948147 
L 118.100501 41.420907 
L 118.488896 40.321212 
L 118.620416 37.452586 
L 118.747826 38.727059 
L 119.006756 38.806156 
L 119.395152 38.328399 
L 119.783547 39.268758 
L 119.913012 41.864267 
L 120.044532 41.780639 
L 120.303462 42.109151 
L 120.434983 40.36142 
L 120.695968 42.255461 
L 120.954898 43.09767 
L 121.086418 42.661665 
L 121.215883 38.707434 
L 121.606334 43.60979 
L 121.735799 49.190935 
L 121.869374 48.018848 
L 122.132414 47.99874 
L 122.263934 46.849506 
L 122.395454 46.684659 
L 122.790014 47.829261 
L 123.05511 51.103831 
L 123.18663 50.958033 
L 123.320205 50.876439 
L 123.5853 49.450621 
L 123.71682 49.30233 
L 123.981915 50.004091 
L 124.115491 49.540444 
L 124.247011 38.199871 
L 124.639516 45.383814 
L 124.771036 56.903732 
L 124.904611 57.184754 
L 125.307392 55.078849 
L 125.440967 53.554124 
L 125.574542 53.495345 
L 125.841692 53.659903 
L 126.110897 55.729512 
L 126.511623 55.288995 
L 126.647253 53.690554 
L 126.778773 53.716357 
L 127.047978 54.614539 
L 127.181553 56.169255 
L 127.315128 54.018156 
L 127.717908 56.354821 
L 127.987114 61.007193 
L 128.258374 61.125029 
L 128.394004 60.755728 
L 128.529634 54.255683 
L 128.932414 58.703602 
L 129.068045 64.941108 
L 129.20573 64.665855 
L 129.61673 65.085992 
L 129.75236 63.886691 
L 129.890045 64.016652 
L 130.16336 65.047091 
L 130.301046 63.451344 
L 130.436676 68.188337 
L 130.714101 68.375432 
L 130.851786 68.25448 
L 131.129211 70.26987 
L 131.408692 70.304457 
L 131.546377 67.956421 
L 131.684062 63.570422 
L 132.514282 71.145935 
L 132.793763 71.621129 
L 132.933503 74.327076 
L 133.356833 74.211235 
L 133.496573 73.125539 
L 133.636313 73.140192 
L 133.915794 73.839198 
L 134.057589 72.405988 
L 134.197329 72.310254 
L 134.476809 73.636515 
L 134.758344 77.817825 
L 134.900139 77.745079 
L 135.185785 77.665667 
L 135.32758 75.132136 
L 135.75091 76.712867 
L 135.892705 76.873215 
L 136.0345 78.2202 
L 136.318091 78.674281 
L 136.461941 79.526737 
L 136.603736 77.033184 
L 137.458616 80.289617 
L 137.746317 80.975371 
L 137.890167 80.195151 
L 138.175812 80.912546 
L 138.319662 83.471243 
L 138.463512 82.901085 
L 139.308118 83.272535 
L 139.433473 83.415156 
L 139.577323 84.415336 
L 139.702678 82.679512 
L 139.990378 83.331755 
L 140.115734 82.709489 
L 140.259584 85.92649 
L 140.635649 85.825918 
L 140.761004 85.948155 
L 140.904854 80.394024 
L 141.336405 83.686987 
L 141.587115 88.293295 
L 141.83988 87.981597 
L 142.09059 86.041875 
L 142.3413 86.876408 
L 142.466656 87.002765 
L 142.592011 86.818825 
L 142.719421 88.080983 
L 143.097541 88.219756 
L 143.222896 85.80968 
L 143.348251 89.615727 
L 143.601016 89.379467 
L 143.728427 89.337455 
L 143.855837 85.512751 
L 144.106547 86.892004 
L 144.357257 87.615437 
L 144.484667 88.612967 
L 144.610022 91.287056 
L 144.864842 90.95153 
L 144.994308 90.862222 
L 145.249128 89.82306 
L 145.629303 90.140658 
L 145.756713 89.604383 
L 145.884123 90.761308 
L 146.138943 90.882284 
L 146.266354 89.76173 
L 146.393764 91.137622 
L 146.519119 90.799904 
L 146.775994 91.040446 
L 146.903404 91.813218 
L 147.030814 90.608913 
L 147.41099 91.168953 
L 147.66581 92.646498 
L 147.922685 92.598169 
L 148.050095 92.634215 
L 148.17956 92.143383 
L 148.30697 90.331946 
L 148.689201 91.41243 
L 148.818666 93.69677 
L 148.946076 92.647027 
L 149.332416 93.04494 
L 149.461881 92.723816 
L 149.591346 92.089971 
L 149.848222 92.645381 
L 150.105097 93.552591 
L 150.234562 93.305184 
L 150.491437 93.660342 
L 150.620902 93.524476 
L 150.877777 94.116721 
L 151.136708 94.381028 
L 151.395638 96.039971 
L 151.788143 95.862014 
L 151.917608 93.855963 
L 152.047073 95.903617 
L 152.439579 95.878843 
L 152.700564 95.126384 
L 152.959494 95.444045 
L 153.091014 95.970734 
L 153.222534 93.546534 
L 153.61093 94.836132 
L 153.87397 97.049148 
L 154.266475 97.083699 
L 154.53157 98.931479 
L 154.796666 98.625997 
L 155.059706 96.623007 
L 155.587841 97.198839 
L 155.721416 99.35115 
L 156.120087 99.015398 
L 156.253662 95.441439 
L 156.516702 96.623307 
L 156.650277 96.912442 
L 156.781797 97.74406 
L 156.915372 100.775087 
L 157.182522 100.185705 
L 157.316098 100.058167 
L 157.585303 98.660737 
L 157.850398 98.826378 
L 157.983973 98.670067 
L 158.117548 98.22576 
L 158.251123 98.992697 
L 158.520329 99.169461 
L 158.653904 97.867126 
L 158.787479 99.678383 
L 159.056684 99.714489 
L 159.192314 99.765837 
L 159.325889 98.348211 
L 159.461519 100.702057 
L 159.73278 100.63949 
L 160.00404 97.983931 
L 160.27119 98.802662 
L 160.40682 99.067826 
L 160.540395 100.216524 
L 160.676025 99.603831 
L 160.947286 99.949859 
L 161.080861 99.731717 
L 161.216491 102.761188 
L 161.491861 102.357977 
L 161.629546 102.245093 
L 161.902861 98.600253 
L 162.722807 100.854313 
L 162.858437 101.007628 
L 162.996122 100.649675 
L 163.409178 101.150129 
L 163.548918 101.691154 
L 163.686603 102.734232 
L 163.968138 102.764575 
L 164.109933 102.738349 
L 164.251728 103.349793 
L 164.391468 101.285134 
L 164.670949 101.667104 
L 164.810689 102.789 
L 164.950429 101.855355 
L 165.371704 102.317495 
L 165.513499 104.143937 
L 165.657349 104.263984 
L 165.94505 104.056478 
L 166.0889 102.738363 
L 166.23275 103.66796 
L 166.52045 103.652423 
L 166.810205 102.041019 
L 167.243811 102.747137 
L 167.389716 102.795693 
L 167.831541 103.308999 
L 167.956896 104.593451 
L 168.082251 103.404993 
L 168.335017 103.620792 
L 168.464482 104.255397 
L 168.591892 103.700694 
L 168.980287 104.006621 
L 169.241272 105.683247 
L 169.641998 105.481481 
L 169.775573 105.689955 
L 169.909148 105.280212 
L 170.180408 105.255417 
L 170.316038 105.078054 
L 170.451668 105.156164 
L 170.587298 105.760389 
L 170.860614 105.686716 
L 170.998299 104.618693 
L 171.135984 105.429339 
L 171.411354 105.443409 
L 171.551094 105.084387 
L 171.826464 103.972644 
L 172.101835 104.415456 
L 172.23952 106.091725 
L 172.37926 104.718468 
L 172.65874 105.018201 
L 172.800535 105.436287 
L 172.94233 107.149478 
L 173.230031 106.874051 
L 173.373881 106.81052 
L 173.517731 105.082998 
L 173.661581 105.123495 
L 174.378776 105.833726 
L 174.522627 105.946012 
L 174.668532 106.488825 
L 174.814437 107.905324 
L 175.262427 107.437707 
L 175.410387 106.38977 
L 176.002228 106.496163 
L 176.150188 106.258454 
L 176.596123 106.643791 
L 176.746138 107.364122 
L 177.048224 107.406552 
L 177.200294 107.564641 
L 177.352364 108.23241 
L 177.660614 108.131834 
L 177.814739 106.971433 
L 177.966809 107.593354 
L 178.273005 107.669156 
L 178.5792 106.777438 
L 178.88334 107.088474 
L 179.03541 108.706946 
L 179.189535 107.249795 
L 179.497786 107.496897 
L 179.653966 108.159808 
L 179.808091 107.649026 
L 180.089626 107.834113 
L 180.371161 109.195867 
L 180.498571 109.082292 
L 180.753392 109.006988 
L 180.880802 107.813038 
L 181.008212 107.813403 
L 181.513742 108.296004 
L 181.641152 108.248292 
L 182.023383 108.459014 
L 182.150793 109.021279 
L 182.278203 108.548567 
L 182.664543 108.819329 
L 182.923473 109.182654 
L 183.184459 109.213769 
L 183.445444 108.870819 
L 183.835894 109.052324 
L 183.967414 109.561686 
L 184.098934 109.028184 
L 184.361975 109.218152 
L 184.493495 109.267922 
L 184.625015 109.644311 
L 184.756535 109.3451 
L 185.02163 109.429204 
L 185.155205 109.882261 
L 185.28878 109.478301 
L 185.687451 109.631181 
L 185.956656 110.403825 
L 186.229971 110.344816 
L 186.365601 110.120627 
L 186.638916 110.648785 
L 186.914287 110.600234 
L 187.051972 110.29477 
L 187.189657 109.453261 
L 187.730122 110.026392 
L 187.867807 109.911996 
L 189.524139 110.708916 
L 189.663879 111.155415 
L 189.949524 111.127526 
L 190.091319 110.627536 
L 190.372855 110.623415 
L 191.940821 111.151206 
L 192.230576 111.180876 
L 194.283523 111.64582 
L 194.431483 112.01455 
L 194.581498 111.645283 
L 194.881528 111.754189 
L 195.181558 112.236213 
L 195.639824 112.090126 
L 195.791894 111.932533 
L 198.251731 112.395017 
L 199.357322 112.701179 
L 199.517612 113.077546 
L 199.842302 113.040707 
L 200.004647 112.544858 
L 200.325228 112.723381 
L 201.134898 112.813392 
L 201.461644 113.257914 
L 201.712354 113.258597 
L 201.837709 113.058916 
L 202.127464 113.160734 
L 202.378174 113.186339 
L 202.503529 112.895736 
L 203.21045 113.104733 
L 203.586515 113.18926 
L 203.970801 113.64785 
L 204.229731 113.646141 
L 204.361251 113.178539 
L 204.875001 113.417149 
L 205.131877 113.395744 
L 206.706008 113.683942 
L 206.973158 113.975047 
L 207.246473 113.979251 
L 207.382103 113.778987 
L 207.653364 113.877811 
L 207.926679 113.90981 
L 208.062309 113.801927 
L 208.608939 113.905875 
L 208.746624 114.120961 
L 209.165845 114.13456 
L 209.305585 113.954378 
L 210.146081 114.099023 
L 212.305887 114.37732 
L 212.453847 114.593605 
L 212.903893 114.544285 
L 213.055963 114.392027 
L 214.568444 114.657241 
L 224.629732 115.303091 
L 251.817405 115.509279 
L 258.10571 115.513762 
L 333.565371 115.568871 
L 333.565371 115.568871 
" clip-path="url(#p8df496cf31)" style="fill: none; stroke: #1f77b4; stroke-width: 1.5; stroke-linecap: square"/>
   </g>
   <g id="patch_3">
    <path d="M 54.02 119.822189 
L 54.02 26.88 
" style="fill: none; stroke: #000000; stroke-width: 0.8; stroke-linejoin: miter; stroke-linecap: square"/>
   </g>
   <g id="patch_4">
    <path d="M 346.877055 119.822189 
L 346.877055 26.88 
" style="fill: none; stroke: #000000; stroke-width: 0.8; stroke-linejoin: miter; stroke-linecap: square"/>
   </g>
   <g id="patch_5">
    <path d="M 54.02 119.822189 
L 346.877055 119.822189 
" style="fill: none; stroke: #000000; stroke-width: 0.8; stroke-linejoin: miter; stroke-linecap: square"/>
   </g>
   <g id="patch_6">
    <path d="M 54.02 26.88 
L 346.877055 26.88 
" style="fill: none; stroke: #000000; stroke-width: 0.8; stroke-linejoin: miter; stroke-linecap: square"/>
   </g>
   <g id="text_7">
    <!-- 1 -->
    <g transform="translate(194.951328 50.236638) scale(0.1728 -0.1728)">
     <use xlink:href="#DejaVuSans-31"/>
    </g>
   </g>
   <g id="text_8">
    <!-- flows -->
    <g transform="translate(184.965715 20.88) scale(0.12 -0.12)">
     <use xlink:href="#DejaVuSans-66"/>
     <use xlink:href="#DejaVuSans-6c" x="35.205078"/>
     <use xlink:href="#DejaVuSans-6f" x="62.988281"/>
     <use xlink:href="#DejaVuSans-77" x="124.169922"/>
     <use xlink:href="#DejaVuSans-73" x="205.957031"/>
    </g>
   </g>
  </g>
  <g id="axes_2">
   <g id="patch_7">
    <path d="M 405.47 119.822189 
L 698.327055 119.822189 
L 698.327055 26.88 
L 405.47 26.88 
z
" style="fill: #ffffff"/>
   </g>
   <g id="matplotlib.axis_3">
    <g id="xtick_11">
     <g id="line2d_16">
      <g>
       <use xlink:href="#me394e44136" x="418.781684" y="119.822189" style="stroke: #000000; stroke-width: 0.8"/>
      </g>
     </g>
    </g>
    <g id="xtick_12">
     <g id="line2d_17">
      <g>
       <use xlink:href="#me394e44136" x="448.373708" y="119.822189" style="stroke: #000000; stroke-width: 0.8"/>
      </g>
     </g>
    </g>
    <g id="xtick_13">
     <g id="line2d_18">
      <g>
       <use xlink:href="#me394e44136" x="477.965733" y="119.822189" style="stroke: #000000; stroke-width: 0.8"/>
      </g>
     </g>
    </g>
    <g id="xtick_14">
     <g id="line2d_19">
      <g>
       <use xlink:href="#me394e44136" x="507.557757" y="119.822189" style="stroke: #000000; stroke-width: 0.8"/>
      </g>
     </g>
    </g>
    <g id="xtick_15">
     <g id="line2d_20">
      <g>
       <use xlink:href="#me394e44136" x="537.149781" y="119.822189" style="stroke: #000000; stroke-width: 0.8"/>
      </g>
     </g>
    </g>
    <g id="xtick_16">
     <g id="line2d_21">
      <g>
       <use xlink:href="#me394e44136" x="566.741805" y="119.822189" style="stroke: #000000; stroke-width: 0.8"/>
      </g>
     </g>
    </g>
    <g id="xtick_17">
     <g id="line2d_22">
      <g>
       <use xlink:href="#me394e44136" x="596.333829" y="119.822189" style="stroke: #000000; stroke-width: 0.8"/>
      </g>
     </g>
    </g>
    <g id="xtick_18">
     <g id="line2d_23">
      <g>
       <use xlink:href="#me394e44136" x="625.925853" y="119.822189" style="stroke: #000000; stroke-width: 0.8"/>
      </g>
     </g>
    </g>
    <g id="xtick_19">
     <g id="line2d_24">
      <g>
       <use xlink:href="#me394e44136" x="655.517877" y="119.822189" style="stroke: #000000; stroke-width: 0.8"/>
      </g>
     </g>
    </g>
    <g id="xtick_20">
     <g id="line2d_25">
      <g>
       <use xlink:href="#me394e44136" x="685.109901" y="119.822189" style="stroke: #000000; stroke-width: 0.8"/>
      </g>
     </g>
    </g>
    <g id="text_9">
     <!-- time -->
     <g transform="translate(540.602434 138.420626) scale(0.1 -0.1)">
      <use xlink:href="#DejaVuSans-74"/>
      <use xlink:href="#DejaVuSans-69" x="39.208984"/>
      <use xlink:href="#DejaVuSans-6d" x="66.992188"/>
      <use xlink:href="#DejaVuSans-65" x="164.404297"/>
     </g>
    </g>
   </g>
   <g id="matplotlib.axis_4">
    <g id="ytick_5">
     <g id="line2d_26">
      <g>
       <use xlink:href="#m931fe0d75c" x="405.47" y="115.597544" style="stroke: #000000; stroke-width: 0.8"/>
      </g>
     </g>
     <g id="text_10">
      <!-- 0.00 -->
      <g transform="translate(376.204375 119.396762) scale(0.1 -0.1)">
       <use xlink:href="#DejaVuSans-30"/>
       <use xlink:href="#DejaVuSans-2e" x="63.623047"/>
       <use xlink:href="#DejaVuSans-30" x="95.410156"/>
       <use xlink:href="#DejaVuSans-30" x="159.033203"/>
      </g>
     </g>
    </g>
    <g id="ytick_6">
     <g id="line2d_27">
      <g>
       <use xlink:href="#m931fe0d75c" x="405.47" y="90.242015" style="stroke: #000000; stroke-width: 0.8"/>
      </g>
     </g>
     <g id="text_11">
      <!-- 0.05 -->
      <g transform="translate(376.204375 94.041234) scale(0.1 -0.1)">
       <defs>
        <path id="DejaVuSans-35" d="M 691 4666 
L 3169 4666 
L 3169 4134 
L 1269 4134 
L 1269 2991 
Q 1406 3038 1543 3061 
Q 1681 3084 1819 3084 
Q 2600 3084 3056 2656 
Q 3513 2228 3513 1497 
Q 3513 744 3044 326 
Q 2575 -91 1722 -91 
Q 1428 -91 1123 -41 
Q 819 9 494 109 
L 494 744 
Q 775 591 1075 516 
Q 1375 441 1709 441 
Q 2250 441 2565 725 
Q 2881 1009 2881 1497 
Q 2881 1984 2565 2268 
Q 2250 2553 1709 2553 
Q 1456 2553 1204 2497 
Q 953 2441 691 2322 
L 691 4666 
z
" transform="scale(0.015625)"/>
       </defs>
       <use xlink:href="#DejaVuSans-30"/>
       <use xlink:href="#DejaVuSans-2e" x="63.623047"/>
       <use xlink:href="#DejaVuSans-30" x="95.410156"/>
       <use xlink:href="#DejaVuSans-35" x="159.033203"/>
      </g>
     </g>
    </g>
    <g id="ytick_7">
     <g id="line2d_28">
      <g>
       <use xlink:href="#m931fe0d75c" x="405.47" y="64.886486" style="stroke: #000000; stroke-width: 0.8"/>
      </g>
     </g>
     <g id="text_12">
      <!-- 0.10 -->
      <g transform="translate(376.204375 68.685705) scale(0.1 -0.1)">
       <use xlink:href="#DejaVuSans-30"/>
       <use xlink:href="#DejaVuSans-2e" x="63.623047"/>
       <use xlink:href="#DejaVuSans-31" x="95.410156"/>
       <use xlink:href="#DejaVuSans-30" x="159.033203"/>
      </g>
     </g>
    </g>
    <g id="ytick_8">
     <g id="line2d_29">
      <g>
       <use xlink:href="#m931fe0d75c" x="405.47" y="39.530958" style="stroke: #000000; stroke-width: 0.8"/>
      </g>
     </g>
     <g id="text_13">
      <!-- 0.15 -->
      <g transform="translate(376.204375 43.330176) scale(0.1 -0.1)">
       <use xlink:href="#DejaVuSans-30"/>
       <use xlink:href="#DejaVuSans-2e" x="63.623047"/>
       <use xlink:href="#DejaVuSans-31" x="95.410156"/>
       <use xlink:href="#DejaVuSans-35" x="159.033203"/>
      </g>
     </g>
    </g>
    <g id="text_14">
     <!-- depth (m) -->
     <g transform="translate(370.124688 98.265938) rotate(-90) scale(0.1 -0.1)">
      <defs>
       <path id="DejaVuSans-64" d="M 2906 2969 
L 2906 4863 
L 3481 4863 
L 3481 0 
L 2906 0 
L 2906 525 
Q 2725 213 2448 61 
Q 2172 -91 1784 -91 
Q 1150 -91 751 415 
Q 353 922 353 1747 
Q 353 2572 751 3078 
Q 1150 3584 1784 3584 
Q 2172 3584 2448 3432 
Q 2725 3281 2906 2969 
z
M 947 1747 
Q 947 1113 1208 752 
Q 1469 391 1925 391 
Q 2381 391 2643 752 
Q 2906 1113 2906 1747 
Q 2906 2381 2643 2742 
Q 2381 3103 1925 3103 
Q 1469 3103 1208 2742 
Q 947 2381 947 1747 
z
" transform="scale(0.015625)"/>
       <path id="DejaVuSans-70" d="M 1159 525 
L 1159 -1331 
L 581 -1331 
L 581 3500 
L 1159 3500 
L 1159 2969 
Q 1341 3281 1617 3432 
Q 1894 3584 2278 3584 
Q 2916 3584 3314 3078 
Q 3713 2572 3713 1747 
Q 3713 922 3314 415 
Q 2916 -91 2278 -91 
Q 1894 -91 1617 61 
Q 1341 213 1159 525 
z
M 3116 1747 
Q 3116 2381 2855 2742 
Q 2594 3103 2138 3103 
Q 1681 3103 1420 2742 
Q 1159 2381 1159 1747 
Q 1159 1113 1420 752 
Q 1681 391 2138 391 
Q 2594 391 2855 752 
Q 3116 1113 3116 1747 
z
" transform="scale(0.015625)"/>
       <path id="DejaVuSans-68" d="M 3513 2113 
L 3513 0 
L 2938 0 
L 2938 2094 
Q 2938 2591 2744 2837 
Q 2550 3084 2163 3084 
Q 1697 3084 1428 2787 
Q 1159 2491 1159 1978 
L 1159 0 
L 581 0 
L 581 4863 
L 1159 4863 
L 1159 2956 
Q 1366 3272 1645 3428 
Q 1925 3584 2291 3584 
Q 2894 3584 3203 3211 
Q 3513 2838 3513 2113 
z
" transform="scale(0.015625)"/>
      </defs>
      <use xlink:href="#DejaVuSans-64"/>
      <use xlink:href="#DejaVuSans-65" x="63.476562"/>
      <use xlink:href="#DejaVuSans-70" x="125"/>
      <use xlink:href="#DejaVuSans-74" x="188.476562"/>
      <use xlink:href="#DejaVuSans-68" x="227.685547"/>
      <use xlink:href="#DejaVuSans-20" x="291.064453"/>
      <use xlink:href="#DejaVuSans-28" x="322.851562"/>
      <use xlink:href="#DejaVuSans-6d" x="361.865234"/>
      <use xlink:href="#DejaVuSans-29" x="459.277344"/>
     </g>
    </g>
   </g>
   <g id="line2d_30">
    <path d="M 418.781684 115.597544 
L 427.229796 115.498867 
L 427.784647 115.248179 
L 428.339497 114.778064 
L 429.079298 113.785852 
L 430.004048 112.044895 
L 431.57407 108.450858 
L 433.370141 103.952232 
L 434.070897 102.084608 
L 435.229918 98.542929 
L 435.634753 96.760961 
L 436.629374 92.041291 
L 436.779389 91.678526 
L 437.508915 88.800379 
L 437.919915 88.159869 
L 438.735751 84.069101 
L 439.255666 82.624823 
L 439.528981 83.038225 
L 439.676941 83.127227 
L 439.822846 82.840721 
L 440.640737 79.266753 
L 441.216138 77.653474 
L 441.497673 77.281647 
L 441.635358 76.974203 
L 442.050468 75.526073 
L 442.323784 74.475043 
L 443.394439 68.038111 
L 444.16712 64.090253 
L 444.54524 63.73727 
L 444.670595 63.553843 
L 444.921306 62.363932 
L 445.422726 60.097833 
L 446.121427 57.809363 
L 446.550922 56.495432 
L 447.113992 56.048744 
L 447.814748 54.387648 
L 448.233968 53.65427 
L 448.373708 53.432481 
L 449.066244 51.441367 
L 449.75467 50.276811 
L 450.303355 49.264697 
L 450.845875 49.861062 
L 451.117136 49.264902 
L 451.661711 48.312864 
L 452.473437 46.11679 
L 453.416683 44.170248 
L 454.084558 43.435961 
L 454.618859 42.437155 
L 455.149049 42.249426 
L 455.414144 41.448134 
L 455.812814 40.301155 
L 455.94639 40.212183 
L 456.343005 39.433398 
L 456.474525 39.356333 
L 457.000605 39.767309 
L 457.656151 39.068673 
L 457.919191 38.455453 
L 458.837777 36.205854 
L 458.967242 36.223113 
L 459.748143 35.667549 
L 460.783864 34.944432 
L 461.040739 35.281295 
L 461.297614 35.539019 
L 461.686009 34.826885 
L 461.944939 34.494489 
L 462.59021 32.078835 
L 462.847085 32.074184 
L 463.231371 32.04474 
L 463.615656 31.63878 
L 464.001996 31.511338 
L 464.258871 31.176677 
L 464.388336 31.104645 
L 465.415837 33.588513 
L 465.800123 34.384222 
L 466.188518 34.340437 
L 466.317983 34.445313 
L 466.831733 35.520922 
L 466.961199 35.492455 
L 467.477004 37.246553 
L 468.253795 36.760552 
L 468.64219 37.2588 
L 468.771655 37.276903 
L 469.030585 37.110736 
L 469.418981 37.106321 
L 469.938896 36.061683 
L 470.586222 36.238214 
L 470.974617 36.799819 
L 471.363012 37.44658 
L 471.623997 37.609673 
L 471.884983 38.021958 
L 472.536418 39.596806 
L 473.056334 42.846262 
L 473.185799 43.022539 
L 473.450894 42.929963 
L 473.713934 43.07569 
L 474.371535 44.287845 
L 474.770205 44.000712 
L 474.90378 44.024015 
L 475.300395 44.96546 
L 475.565491 45.447191 
L 475.828531 47.989704 
L 476.089516 50.316907 
L 476.221036 50.320961 
L 476.623816 48.82181 
L 476.757392 48.536709 
L 477.425267 48.840207 
L 477.828047 48.412587 
L 477.961623 48.343399 
L 478.362348 49.170198 
L 478.765128 50.285307 
L 479.301484 52.144135 
L 479.572744 52.156312 
L 479.844004 52.389665 
L 480.65573 56.223001 
L 481.06673 56.533153 
L 481.475675 57.954564 
L 481.886676 58.908372 
L 482.164101 59.045471 
L 482.579211 59.398244 
L 482.858692 59.446923 
L 482.996377 59.734091 
L 483.547117 63.324876 
L 483.824542 63.758934 
L 484.243763 64.437109 
L 484.523243 64.324418 
L 484.806833 64.377216 
L 485.226053 65.385688 
L 485.507589 65.999475 
L 486.066549 67.872208 
L 486.350139 67.718569 
L 486.635785 67.749795 
L 487.20091 69.341093 
L 488.053736 70.735836 
L 488.479121 71.97646 
L 488.622971 72.05898 
L 490.057362 74.034265 
L 490.470418 74.330504 
L 491.027323 74.995013 
L 491.709584 76.135911 
L 492.085649 76.050586 
L 492.211004 76.067714 
L 492.786405 78.717692 
L 493.037115 78.454117 
L 493.415235 78.13531 
L 494.042011 78.735256 
L 494.420131 78.737212 
L 494.925661 78.795706 
L 495.178427 78.70526 
L 495.305837 78.867167 
L 495.807257 80.200523 
L 495.934667 80.379983 
L 496.187432 80.181282 
L 496.444308 79.9953 
L 497.079303 80.460761 
L 497.334123 80.665244 
L 497.716354 80.891905 
L 498.096529 81.303708 
L 498.353404 81.496625 
L 498.733579 82.187386 
L 499.11581 82.523085 
L 499.500095 82.604585 
L 499.62956 82.704033 
L 500.139201 83.961539 
L 501.041346 84.855411 
L 501.555097 85.648445 
L 502.327777 86.555378 
L 502.716173 86.794981 
L 503.238143 86.626809 
L 503.497073 86.73956 
L 503.889579 86.781876 
L 504.280029 87.196132 
L 504.672534 87.690302 
L 505.06093 88.662454 
L 505.453435 88.792698 
L 505.847995 88.870717 
L 506.246666 88.3492 
L 506.378186 88.302536 
L 507.037841 89.105897 
L 507.570087 88.667106 
L 508.231797 90.070651 
L 508.365372 90.055228 
L 508.766098 89.560439 
L 509.035303 89.624458 
L 509.970329 90.326715 
L 510.237479 90.621361 
L 510.642314 90.775178 
L 510.775889 90.930192 
L 511.18278 90.79399 
L 511.31841 90.847936 
L 511.587615 91.341827 
L 511.990395 91.991943 
L 512.666491 92.751587 
L 513.079546 92.29783 
L 513.217231 92.450712 
L 513.759752 93.811133 
L 514.308437 94.407946 
L 514.998918 95.249716 
L 515.559933 95.063782 
L 515.701728 95.030961 
L 516.260689 95.719642 
L 516.963499 96.130343 
L 517.39505 95.753185 
L 517.8266 95.776423 
L 518.116355 95.849816 
L 519.281541 97.212724 
L 519.406896 97.181434 
L 519.914482 97.592399 
L 520.171357 97.720789 
L 520.559752 97.948309 
L 521.494778 97.411552 
L 522.723669 97.364173 
L 523.001094 97.436478 
L 524.10874 98.971164 
L 524.250535 99.098873 
L 524.967731 98.892086 
L 525.682871 99.703027 
L 526.118532 100.035834 
L 526.712427 99.557439 
L 528.348209 100.519114 
L 528.802364 100.477453 
L 529.110614 100.334678 
L 530.0292 100.871999 
L 530.48541 101.265759 
L 531.539626 102.065121 
L 531.821161 102.079486 
L 532.203392 101.919208 
L 532.458212 102.085559 
L 533.218563 102.639241 
L 534.114543 103.120888 
L 535.548934 103.591987 
L 536.73878 104.070427 
L 537.273081 104.237321 
L 537.815601 104.124495 
L 538.088916 104.09825 
L 538.501972 104.013647 
L 539.728808 104.850656 
L 540.974139 105.426813 
L 541.541319 105.390021 
L 542.817475 105.986066 
L 544.699857 106.628881 
L 546.631558 107.165117 
L 547.241894 107.220101 
L 550.967612 108.363642 
L 551.454647 108.368012 
L 553.036999 108.785361 
L 553.702819 108.881226 
L 554.119985 109.034579 
L 555.163925 109.430619 
L 555.811251 109.458984 
L 557.362777 110.035368 
L 558.558788 110.319607 
L 559.376679 110.483437 
L 561.314545 111.005123 
L 564.203878 111.667371 
L 564.953953 111.860342 
L 567.898771 112.565203 
L 574.970031 113.90387 
L 579.778735 114.414745 
L 584.402489 114.626502 
L 593.834947 114.793981 
L 618.063417 115.001642 
L 668.369858 115.227746 
L 685.015371 115.273951 
L 685.015371 115.273951 
" clip-path="url(#pb696326181)" style="fill: none; stroke: #1f77b4; stroke-width: 1.5; stroke-linecap: square"/>
   </g>
   <g id="patch_8">
    <path d="M 405.47 119.822189 
L 405.47 26.88 
" style="fill: none; stroke: #000000; stroke-width: 0.8; stroke-linejoin: miter; stroke-linecap: square"/>
   </g>
   <g id="patch_9">
    <path d="M 698.327055 119.822189 
L 698.327055 26.88 
" style="fill: none; stroke: #000000; stroke-width: 0.8; stroke-linejoin: miter; stroke-linecap: square"/>
   </g>
   <g id="patch_10">
    <path d="M 405.47 119.822189 
L 698.327055 119.822189 
" style="fill: none; stroke: #000000; stroke-width: 0.8; stroke-linejoin: miter; stroke-linecap: square"/>
   </g>
   <g id="patch_11">
    <path d="M 405.47 26.88 
L 698.327055 26.88 
" style="fill: none; stroke: #000000; stroke-width: 0.8; stroke-linejoin: miter; stroke-linecap: square"/>
   </g>
   <g id="text_15">
    <!-- ('P1', 'depthN') -->
    <g transform="translate(487.846428 50.236638) scale(0.1728 -0.1728)">
     <defs>
      <path id="DejaVuSans-27" d="M 1147 4666 
L 1147 2931 
L 616 2931 
L 616 4666 
L 1147 4666 
z
" transform="scale(0.015625)"/>
      <path id="DejaVuSans-50" d="M 1259 4147 
L 1259 2394 
L 2053 2394 
Q 2494 2394 2734 2622 
Q 2975 2850 2975 3272 
Q 2975 3691 2734 3919 
Q 2494 4147 2053 4147 
L 1259 4147 
z
M 628 4666 
L 2053 4666 
Q 2838 4666 3239 4311 
Q 3641 3956 3641 3272 
Q 3641 2581 3239 2228 
Q 2838 1875 2053 1875 
L 1259 1875 
L 1259 0 
L 628 0 
L 628 4666 
z
" transform="scale(0.015625)"/>
      <path id="DejaVuSans-2c" d="M 750 794 
L 1409 794 
L 1409 256 
L 897 -744 
L 494 -744 
L 750 256 
L 750 794 
z
" transform="scale(0.015625)"/>
      <path id="DejaVuSans-4e" d="M 628 4666 
L 1478 4666 
L 3547 763 
L 3547 4666 
L 4159 4666 
L 4159 0 
L 3309 0 
L 1241 3903 
L 1241 0 
L 628 0 
L 628 4666 
z
" transform="scale(0.015625)"/>
     </defs>
     <use xlink:href="#DejaVuSans-28"/>
     <use xlink:href="#DejaVuSans-27" x="39.013672"/>
     <use xlink:href="#DejaVuSans-50" x="66.503906"/>
     <use xlink:href="#DejaVuSans-31" x="126.806641"/>
     <use xlink:href="#DejaVuSans-27" x="190.429688"/>
     <use xlink:href="#DejaVuSans-2c" x="217.919922"/>
     <use xlink:href="#DejaVuSans-20" x="249.707031"/>
     <use xlink:href="#DejaVuSans-27" x="281.494141"/>
     <use xlink:href="#DejaVuSans-64" x="308.984375"/>
     <use xlink:href="#DejaVuSans-65" x="372.460938"/>
     <use xlink:href="#DejaVuSans-70" x="433.984375"/>
     <use xlink:href="#DejaVuSans-74" x="497.460938"/>
     <use xlink:href="#DejaVuSans-68" x="536.669922"/>
     <use xlink:href="#DejaVuSans-4e" x="600.048828"/>
     <use xlink:href="#DejaVuSans-27" x="674.853516"/>
     <use xlink:href="#DejaVuSans-29" x="702.34375"/>
    </g>
   </g>
   <g id="text_16">
    <!-- depths -->
    <g transform="translate(531.308215 20.88) scale(0.12 -0.12)">
     <use xlink:href="#DejaVuSans-64"/>
     <use xlink:href="#DejaVuSans-65" x="63.476562"/>
     <use xlink:href="#DejaVuSans-70" x="125"/>
     <use xlink:href="#DejaVuSans-74" x="188.476562"/>
     <use xlink:href="#DejaVuSans-68" x="227.685547"/>
     <use xlink:href="#DejaVuSans-73" x="291.064453"/>
    </g>
   </g>
  </g>
  <g id="axes_3">
   <g id="patch_12">
    <path d="M 54.02 246.04 
L 346.877055 246.04 
L 346.877055 153.097811 
L 54.02 153.097811 
z
" style="fill: #ffffff"/>
   </g>
   <g id="matplotlib.axis_5">
    <g id="xtick_21">
     <g id="line2d_31">
      <g>
       <use xlink:href="#me394e44136" x="67.331684" y="246.04" style="stroke: #000000; stroke-width: 0.8"/>
      </g>
     </g>
     <g id="text_17">
      <!-- 02-25 00 -->
      <g transform="translate(44.851216 260.638438) scale(0.1 -0.1)">
       <defs>
        <path id="DejaVuSans-2d" d="M 313 2009 
L 1997 2009 
L 1997 1497 
L 313 1497 
L 313 2009 
z
" transform="scale(0.015625)"/>
       </defs>
       <use xlink:href="#DejaVuSans-30"/>
       <use xlink:href="#DejaVuSans-32" x="63.623047"/>
       <use xlink:href="#DejaVuSans-2d" x="127.246094"/>
       <use xlink:href="#DejaVuSans-32" x="163.330078"/>
       <use xlink:href="#DejaVuSans-35" x="226.953125"/>
       <use xlink:href="#DejaVuSans-20" x="290.576172"/>
       <use xlink:href="#DejaVuSans-30" x="322.363281"/>
       <use xlink:href="#DejaVuSans-30" x="385.986328"/>
      </g>
     </g>
    </g>
    <g id="xtick_22">
     <g id="line2d_32">
      <g>
       <use xlink:href="#me394e44136" x="96.923708" y="246.04" style="stroke: #000000; stroke-width: 0.8"/>
      </g>
     </g>
     <g id="text_18">
      <!-- 02-25 04 -->
      <g transform="translate(74.44324 260.638438) scale(0.1 -0.1)">
       <defs>
        <path id="DejaVuSans-34" d="M 2419 4116 
L 825 1625 
L 2419 1625 
L 2419 4116 
z
M 2253 4666 
L 3047 4666 
L 3047 1625 
L 3713 1625 
L 3713 1100 
L 3047 1100 
L 3047 0 
L 2419 0 
L 2419 1100 
L 313 1100 
L 313 1709 
L 2253 4666 
z
" transform="scale(0.015625)"/>
       </defs>
       <use xlink:href="#DejaVuSans-30"/>
       <use xlink:href="#DejaVuSans-32" x="63.623047"/>
       <use xlink:href="#DejaVuSans-2d" x="127.246094"/>
       <use xlink:href="#DejaVuSans-32" x="163.330078"/>
       <use xlink:href="#DejaVuSans-35" x="226.953125"/>
       <use xlink:href="#DejaVuSans-20" x="290.576172"/>
       <use xlink:href="#DejaVuSans-30" x="322.363281"/>
       <use xlink:href="#DejaVuSans-34" x="385.986328"/>
      </g>
     </g>
    </g>
    <g id="xtick_23">
     <g id="line2d_33">
      <g>
       <use xlink:href="#me394e44136" x="126.515733" y="246.04" style="stroke: #000000; stroke-width: 0.8"/>
      </g>
     </g>
     <g id="text_19">
      <!-- 02-25 08 -->
      <g transform="translate(104.035264 260.638438) scale(0.1 -0.1)">
       <defs>
        <path id="DejaVuSans-38" d="M 2034 2216 
Q 1584 2216 1326 1975 
Q 1069 1734 1069 1313 
Q 1069 891 1326 650 
Q 1584 409 2034 409 
Q 2484 409 2743 651 
Q 3003 894 3003 1313 
Q 3003 1734 2745 1975 
Q 2488 2216 2034 2216 
z
M 1403 2484 
Q 997 2584 770 2862 
Q 544 3141 544 3541 
Q 544 4100 942 4425 
Q 1341 4750 2034 4750 
Q 2731 4750 3128 4425 
Q 3525 4100 3525 3541 
Q 3525 3141 3298 2862 
Q 3072 2584 2669 2484 
Q 3125 2378 3379 2068 
Q 3634 1759 3634 1313 
Q 3634 634 3220 271 
Q 2806 -91 2034 -91 
Q 1263 -91 848 271 
Q 434 634 434 1313 
Q 434 1759 690 2068 
Q 947 2378 1403 2484 
z
M 1172 3481 
Q 1172 3119 1398 2916 
Q 1625 2713 2034 2713 
Q 2441 2713 2670 2916 
Q 2900 3119 2900 3481 
Q 2900 3844 2670 4047 
Q 2441 4250 2034 4250 
Q 1625 4250 1398 4047 
Q 1172 3844 1172 3481 
z
" transform="scale(0.015625)"/>
       </defs>
       <use xlink:href="#DejaVuSans-30"/>
       <use xlink:href="#DejaVuSans-32" x="63.623047"/>
       <use xlink:href="#DejaVuSans-2d" x="127.246094"/>
       <use xlink:href="#DejaVuSans-32" x="163.330078"/>
       <use xlink:href="#DejaVuSans-35" x="226.953125"/>
       <use xlink:href="#DejaVuSans-20" x="290.576172"/>
       <use xlink:href="#DejaVuSans-30" x="322.363281"/>
       <use xlink:href="#DejaVuSans-38" x="385.986328"/>
      </g>
     </g>
    </g>
    <g id="xtick_24">
     <g id="line2d_34">
      <g>
       <use xlink:href="#me394e44136" x="156.107757" y="246.04" style="stroke: #000000; stroke-width: 0.8"/>
      </g>
     </g>
     <g id="text_20">
      <!-- 02-25 12 -->
      <g transform="translate(133.627288 260.638438) scale(0.1 -0.1)">
       <use xlink:href="#DejaVuSans-30"/>
       <use xlink:href="#DejaVuSans-32" x="63.623047"/>
       <use xlink:href="#DejaVuSans-2d" x="127.246094"/>
       <use xlink:href="#DejaVuSans-32" x="163.330078"/>
       <use xlink:href="#DejaVuSans-35" x="226.953125"/>
       <use xlink:href="#DejaVuSans-20" x="290.576172"/>
       <use xlink:href="#DejaVuSans-31" x="322.363281"/>
       <use xlink:href="#DejaVuSans-32" x="385.986328"/>
      </g>
     </g>
    </g>
    <g id="xtick_25">
     <g id="line2d_35">
      <g>
       <use xlink:href="#me394e44136" x="185.699781" y="246.04" style="stroke: #000000; stroke-width: 0.8"/>
      </g>
     </g>
     <g id="text_21">
      <!-- 02-25 16 -->
      <g transform="translate(163.219312 260.638438) scale(0.1 -0.1)">
       <defs>
        <path id="DejaVuSans-36" d="M 2113 2584 
Q 1688 2584 1439 2293 
Q 1191 2003 1191 1497 
Q 1191 994 1439 701 
Q 1688 409 2113 409 
Q 2538 409 2786 701 
Q 3034 994 3034 1497 
Q 3034 2003 2786 2293 
Q 2538 2584 2113 2584 
z
M 3366 4563 
L 3366 3988 
Q 3128 4100 2886 4159 
Q 2644 4219 2406 4219 
Q 1781 4219 1451 3797 
Q 1122 3375 1075 2522 
Q 1259 2794 1537 2939 
Q 1816 3084 2150 3084 
Q 2853 3084 3261 2657 
Q 3669 2231 3669 1497 
Q 3669 778 3244 343 
Q 2819 -91 2113 -91 
Q 1303 -91 875 529 
Q 447 1150 447 2328 
Q 447 3434 972 4092 
Q 1497 4750 2381 4750 
Q 2619 4750 2861 4703 
Q 3103 4656 3366 4563 
z
" transform="scale(0.015625)"/>
       </defs>
       <use xlink:href="#DejaVuSans-30"/>
       <use xlink:href="#DejaVuSans-32" x="63.623047"/>
       <use xlink:href="#DejaVuSans-2d" x="127.246094"/>
       <use xlink:href="#DejaVuSans-32" x="163.330078"/>
       <use xlink:href="#DejaVuSans-35" x="226.953125"/>
       <use xlink:href="#DejaVuSans-20" x="290.576172"/>
       <use xlink:href="#DejaVuSans-31" x="322.363281"/>
       <use xlink:href="#DejaVuSans-36" x="385.986328"/>
      </g>
     </g>
    </g>
    <g id="xtick_26">
     <g id="line2d_36">
      <g>
       <use xlink:href="#me394e44136" x="215.291805" y="246.04" style="stroke: #000000; stroke-width: 0.8"/>
      </g>
     </g>
     <g id="text_22">
      <!-- 02-25 20 -->
      <g transform="translate(192.811336 260.638438) scale(0.1 -0.1)">
       <use xlink:href="#DejaVuSans-30"/>
       <use xlink:href="#DejaVuSans-32" x="63.623047"/>
       <use xlink:href="#DejaVuSans-2d" x="127.246094"/>
       <use xlink:href="#DejaVuSans-32" x="163.330078"/>
       <use xlink:href="#DejaVuSans-35" x="226.953125"/>
       <use xlink:href="#DejaVuSans-20" x="290.576172"/>
       <use xlink:href="#DejaVuSans-32" x="322.363281"/>
       <use xlink:href="#DejaVuSans-30" x="385.986328"/>
      </g>
     </g>
    </g>
    <g id="xtick_27">
     <g id="line2d_37">
      <g>
       <use xlink:href="#me394e44136" x="244.883829" y="246.04" style="stroke: #000000; stroke-width: 0.8"/>
      </g>
     </g>
     <g id="text_23">
      <!-- 02-26 00 -->
      <g transform="translate(222.40336 260.638438) scale(0.1 -0.1)">
       <use xlink:href="#DejaVuSans-30"/>
       <use xlink:href="#DejaVuSans-32" x="63.623047"/>
       <use xlink:href="#DejaVuSans-2d" x="127.246094"/>
       <use xlink:href="#DejaVuSans-32" x="163.330078"/>
       <use xlink:href="#DejaVuSans-36" x="226.953125"/>
       <use xlink:href="#DejaVuSans-20" x="290.576172"/>
       <use xlink:href="#DejaVuSans-30" x="322.363281"/>
       <use xlink:href="#DejaVuSans-30" x="385.986328"/>
      </g>
     </g>
    </g>
    <g id="xtick_28">
     <g id="line2d_38">
      <g>
       <use xlink:href="#me394e44136" x="274.475853" y="246.04" style="stroke: #000000; stroke-width: 0.8"/>
      </g>
     </g>
     <g id="text_24">
      <!-- 02-26 04 -->
      <g transform="translate(251.995384 260.638438) scale(0.1 -0.1)">
       <use xlink:href="#DejaVuSans-30"/>
       <use xlink:href="#DejaVuSans-32" x="63.623047"/>
       <use xlink:href="#DejaVuSans-2d" x="127.246094"/>
       <use xlink:href="#DejaVuSans-32" x="163.330078"/>
       <use xlink:href="#DejaVuSans-36" x="226.953125"/>
       <use xlink:href="#DejaVuSans-20" x="290.576172"/>
       <use xlink:href="#DejaVuSans-30" x="322.363281"/>
       <use xlink:href="#DejaVuSans-34" x="385.986328"/>
      </g>
     </g>
    </g>
    <g id="xtick_29">
     <g id="line2d_39">
      <g>
       <use xlink:href="#me394e44136" x="304.067877" y="246.04" style="stroke: #000000; stroke-width: 0.8"/>
      </g>
     </g>
     <g id="text_25">
      <!-- 02-26 08 -->
      <g transform="translate(281.587408 260.638438) scale(0.1 -0.1)">
       <use xlink:href="#DejaVuSans-30"/>
       <use xlink:href="#DejaVuSans-32" x="63.623047"/>
       <use xlink:href="#DejaVuSans-2d" x="127.246094"/>
       <use xlink:href="#DejaVuSans-32" x="163.330078"/>
       <use xlink:href="#DejaVuSans-36" x="226.953125"/>
       <use xlink:href="#DejaVuSans-20" x="290.576172"/>
       <use xlink:href="#DejaVuSans-30" x="322.363281"/>
       <use xlink:href="#DejaVuSans-38" x="385.986328"/>
      </g>
     </g>
    </g>
    <g id="xtick_30">
     <g id="line2d_40">
      <g>
       <use xlink:href="#me394e44136" x="333.659901" y="246.04" style="stroke: #000000; stroke-width: 0.8"/>
      </g>
     </g>
     <g id="text_26">
      <!-- 02-26 12 -->
      <g transform="translate(311.179432 260.638438) scale(0.1 -0.1)">
       <use xlink:href="#DejaVuSans-30"/>
       <use xlink:href="#DejaVuSans-32" x="63.623047"/>
       <use xlink:href="#DejaVuSans-2d" x="127.246094"/>
       <use xlink:href="#DejaVuSans-32" x="163.330078"/>
       <use xlink:href="#DejaVuSans-36" x="226.953125"/>
       <use xlink:href="#DejaVuSans-20" x="290.576172"/>
       <use xlink:href="#DejaVuSans-31" x="322.363281"/>
       <use xlink:href="#DejaVuSans-32" x="385.986328"/>
      </g>
     </g>
    </g>
    <g id="text_27">
     <!-- time -->
     <g transform="translate(189.152434 274.316562) scale(0.1 -0.1)">
      <use xlink:href="#DejaVuSans-74"/>
      <use xlink:href="#DejaVuSans-69" x="39.208984"/>
      <use xlink:href="#DejaVuSans-6d" x="66.992188"/>
      <use xlink:href="#DejaVuSans-65" x="164.404297"/>
     </g>
    </g>
   </g>
   <g id="matplotlib.axis_6">
    <g id="ytick_9">
     <g id="line2d_41">
      <g>
       <use xlink:href="#m931fe0d75c" x="54.02" y="241.815355" style="stroke: #000000; stroke-width: 0.8"/>
      </g>
     </g>
     <g id="text_28">
      <!-- 0.0 -->
      <g transform="translate(31.116875 245.614574) scale(0.1 -0.1)">
       <use xlink:href="#DejaVuSans-30"/>
       <use xlink:href="#DejaVuSans-2e" x="63.623047"/>
       <use xlink:href="#DejaVuSans-30" x="95.410156"/>
      </g>
     </g>
    </g>
    <g id="ytick_10">
     <g id="line2d_42">
      <g>
       <use xlink:href="#m931fe0d75c" x="54.02" y="201.902674" style="stroke: #000000; stroke-width: 0.8"/>
      </g>
     </g>
     <g id="text_29">
      <!-- 0.1 -->
      <g transform="translate(31.116875 205.701893) scale(0.1 -0.1)">
       <use xlink:href="#DejaVuSans-30"/>
       <use xlink:href="#DejaVuSans-2e" x="63.623047"/>
       <use xlink:href="#DejaVuSans-31" x="95.410156"/>
      </g>
     </g>
    </g>
    <g id="ytick_11">
     <g id="line2d_43">
      <g>
       <use xlink:href="#m931fe0d75c" x="54.02" y="161.989993" style="stroke: #000000; stroke-width: 0.8"/>
      </g>
     </g>
     <g id="text_30">
      <!-- 0.2 -->
      <g transform="translate(31.116875 165.789212) scale(0.1 -0.1)">
       <use xlink:href="#DejaVuSans-30"/>
       <use xlink:href="#DejaVuSans-2e" x="63.623047"/>
       <use xlink:href="#DejaVuSans-32" x="95.410156"/>
      </g>
     </g>
    </g>
    <g id="text_31">
     <!-- flow (cms) -->
     <g transform="translate(25.037188 225.581406) rotate(-90) scale(0.1 -0.1)">
      <use xlink:href="#DejaVuSans-66"/>
      <use xlink:href="#DejaVuSans-6c" x="35.205078"/>
      <use xlink:href="#DejaVuSans-6f" x="62.988281"/>
      <use xlink:href="#DejaVuSans-77" x="124.169922"/>
      <use xlink:href="#DejaVuSans-20" x="205.957031"/>
      <use xlink:href="#DejaVuSans-28" x="237.744141"/>
      <use xlink:href="#DejaVuSans-63" x="276.757812"/>
      <use xlink:href="#DejaVuSans-6d" x="331.738281"/>
      <use xlink:href="#DejaVuSans-73" x="429.150391"/>
      <use xlink:href="#DejaVuSans-29" x="481.25"/>
     </g>
    </g>
   </g>
   <g id="line2d_44">
    <path d="M 67.331684 241.815355 
L 79.291794 241.707458 
L 80.27614 241.486257 
L 81.535856 240.919659 
L 81.920141 240.650784 
L 82.620897 239.980959 
L 83.360697 238.96483 
L 84.051178 237.537496 
L 85.025249 234.669217 
L 86.058915 230.56884 
L 87.152175 225.071014 
L 88.896872 215.285073 
L 90.185358 207.411687 
L 90.600468 204.552079 
L 91.147099 200.250343 
L 91.944439 190.959654 
L 92.20337 189.286665 
L 92.71712 186.971537 
L 92.96783 188.902991 
L 93.220595 188.081374 
L 93.596661 185.861229 
L 94.527576 181.485522 
L 94.815277 182.574096 
L 95.240662 180.810552 
L 95.663992 178.504839 
L 95.945528 179.895047 
L 96.085268 179.843141 
L 97.478559 175.027553 
L 97.616244 174.691288 
L 97.755984 175.07939 
L 98.166984 173.449933 
L 98.30467 174.226495 
L 98.58004 173.304687 
L 98.71567 172.762201 
L 98.853355 172.760002 
L 98.988985 173.429485 
L 99.124615 173.378743 
L 99.531506 172.371696 
L 99.667136 172.36651 
L 100.076081 171.200762 
L 100.211711 171.516115 
L 100.347341 171.43112 
L 100.754232 170.343213 
L 100.887807 170.912246 
L 101.023437 170.72167 
L 101.294697 169.85312 
L 101.428272 169.854951 
L 101.563902 169.992557 
L 102.500983 167.515536 
L 102.634558 168.604916 
L 102.768133 168.416452 
L 103.035283 167.43452 
L 103.168859 167.420932 
L 103.699049 164.576778 
L 103.964144 166.140682 
L 104.362814 164.927278 
L 104.62791 167.022296 
L 104.75943 166.934565 
L 105.024525 165.972645 
L 105.287565 165.014634 
L 105.550605 164.333348 
L 105.811591 165.309983 
L 106.074631 164.729785 
L 106.206151 164.338923 
L 106.469191 165.86411 
L 106.600711 165.745449 
L 106.863752 165.063356 
L 107.256257 161.041772 
L 107.387777 160.561624 
L 107.776172 163.590523 
L 108.037157 162.943327 
L 108.166623 163.308665 
L 108.427608 161.45206 
L 108.686538 160.876972 
L 108.816003 162.453417 
L 108.945468 162.607324 
L 109.204398 162.101756 
L 109.333864 162.406822 
L 109.463329 162.369308 
L 109.847614 161.221557 
L 109.977079 161.50841 
L 110.236009 162.706261 
L 110.62235 162.194578 
L 110.88128 160.128515 
L 111.14021 159.511326 
L 111.397085 161.426243 
L 111.524495 161.425621 
L 111.781371 160.93994 
L 112.038246 161.477138 
L 112.422531 160.728153 
L 112.551996 161.001165 
L 113.065747 160.045842 
L 113.322622 161.310451 
L 113.965837 160.462223 
L 114.220658 160.063946 
L 114.479588 160.348331 
L 114.867983 159.593878 
L 115.124858 159.791581 
L 115.381733 159.504446 
L 115.511199 159.892192 
L 115.770129 159.721476 
L 115.897539 159.684854 
L 116.027004 159.516733 
L 116.285934 159.873525 
L 116.67433 159.128988 
L 117.062725 160.056146 
L 117.321655 159.808087 
L 117.839515 158.902978 
L 118.100501 158.92856 
L 118.488896 157.955404 
L 118.877291 158.891978 
L 119.136222 158.577646 
L 119.265687 158.635595 
L 119.654082 157.842867 
L 119.783547 157.823931 
L 119.913012 158.635649 
L 120.044532 158.571539 
L 120.303462 158.145891 
L 120.434983 158.263461 
L 120.564448 158.712069 
L 120.825433 158.556499 
L 120.954898 158.421786 
L 121.345348 158.992049 
L 121.476868 159.062203 
L 121.606334 158.971639 
L 121.735799 159.13171 
L 122.000894 157.599685 
L 122.132414 157.322456 
L 122.263934 157.441646 
L 122.526974 158.359008 
L 122.790014 158.239179 
L 123.18663 158.854843 
L 123.45378 158.613278 
L 123.5853 158.699071 
L 123.71682 159.034621 
L 123.981915 158.959603 
L 124.115491 158.887694 
L 124.247011 158.38654 
L 124.378531 158.328345 
L 124.639516 158.972989 
L 124.904611 159.27847 
L 125.173816 158.603248 
L 125.307392 158.502931 
L 125.440967 157.997641 
L 125.708117 158.707797 
L 125.841692 158.693532 
L 125.975267 158.479399 
L 126.110897 158.556642 
L 126.511623 158.327351 
L 126.647253 158.160154 
L 126.912348 158.52905 
L 127.448703 158.576575 
L 127.717908 158.641613 
L 127.851484 158.911359 
L 127.987114 158.858678 
L 128.258374 158.291756 
L 128.665264 158.108814 
L 129.068045 158.804957 
L 129.20573 158.840174 
L 129.479045 158.614112 
L 129.61673 158.595581 
L 129.75236 157.991565 
L 130.301046 157.968852 
L 130.576416 158.862188 
L 130.851786 158.813638 
L 130.991526 158.596308 
L 131.129211 158.739186 
L 131.408692 158.559172 
L 131.684062 157.959266 
L 131.959432 158.924423 
L 132.234802 159.1578 
L 132.374542 158.926012 
L 132.793763 159.087296 
L 133.073243 159.792488 
L 133.215038 159.841222 
L 133.356833 159.747652 
L 133.496573 158.450088 
L 133.776053 158.265379 
L 133.915794 158.319943 
L 134.057589 158.536212 
L 134.197329 158.238167 
L 134.616549 158.669709 
L 134.758344 159.034014 
L 135.185785 159.168356 
L 135.32758 158.583091 
L 135.46732 158.610092 
L 135.892705 158.933796 
L 136.176295 158.369941 
L 136.461941 158.462377 
L 136.887326 159.607265 
L 137.029121 159.718962 
L 137.172971 159.601472 
L 137.602467 160.246085 
L 137.890167 158.891653 
L 138.175812 159.107841 
L 138.319662 159.261373 
L 138.607362 158.770437 
L 138.876568 158.920709 
L 139.020418 159.22787 
L 139.308118 160.159104 
L 139.433473 160.301003 
L 139.577323 159.815434 
L 140.115734 160.674189 
L 140.384939 159.843808 
L 140.510294 159.776238 
L 140.761004 159.885542 
L 140.904854 159.144511 
L 141.336405 160.059601 
L 141.83988 159.759951 
L 141.965235 159.900555 
L 142.09059 159.857921 
L 142.466656 160.637829 
L 142.592011 160.67684 
L 142.844776 160.049539 
L 142.970131 160.06202 
L 143.728427 160.678586 
L 143.981192 159.887902 
L 144.357257 160.740947 
L 144.484667 160.838352 
L 144.864842 162.337881 
L 144.994308 162.489776 
L 145.249128 160.743173 
L 145.374483 160.672006 
L 145.629303 161.011232 
L 145.756713 160.69811 
L 145.884123 160.694933 
L 146.266354 161.161054 
L 146.393764 160.921481 
L 146.646529 161.113425 
L 146.903404 161.373949 
L 147.158224 160.108655 
L 147.283579 160.058672 
L 147.66581 160.421885 
L 147.795275 160.103493 
L 147.922685 160.123504 
L 148.050095 160.308033 
L 148.56179 162.400947 
L 148.689201 162.685614 
L 148.946076 162.217328 
L 149.332416 162.949921 
L 149.591346 162.457127 
L 149.977687 163.468454 
L 150.105097 162.534766 
L 150.364027 160.196974 
L 150.491437 160.332838 
L 151.007242 162.030395 
L 151.395638 162.813333 
L 151.527158 162.700534 
L 152.047073 163.09393 
L 152.308059 163.429994 
L 152.439579 163.702923 
L 152.569044 163.600262 
L 152.830029 164.141481 
L 152.959494 164.48995 
L 153.091014 164.48543 
L 153.351999 163.708403 
L 153.74245 164.535534 
L 153.87397 164.245653 
L 154.134955 164.733565 
L 154.266475 165.068538 
L 154.397995 164.76321 
L 154.796666 165.631324 
L 154.928186 165.697489 
L 155.059706 165.38262 
L 155.324801 166.879593 
L 155.456321 167.299533 
L 155.721416 166.871164 
L 156.120087 167.703623 
L 156.253662 166.366355 
L 156.781797 168.180672 
L 156.915372 167.45685 
L 157.182522 167.690396 
L 157.316098 168.034635 
L 157.585303 166.826979 
L 157.983973 168.135446 
L 158.117548 167.764603 
L 158.384698 170.204549 
L 158.520329 170.727668 
L 158.653904 170.324834 
L 158.787479 169.108627 
L 159.192314 170.563603 
L 159.325889 169.903416 
L 159.597149 170.614538 
L 159.86841 171.340064 
L 160.00404 170.337037 
L 160.137615 170.386333 
L 160.40682 171.544601 
L 160.676025 170.481756 
L 161.629546 173.909271 
L 161.767231 173.657907 
L 161.902861 173.692138 
L 162.309752 175.69386 
L 162.447437 174.533934 
L 162.585122 174.848389 
L 162.858437 176.225837 
L 162.996122 175.730131 
L 163.133807 175.70429 
L 163.548918 177.696098 
L 164.109933 182.08278 
L 164.391468 178.697363 
L 164.531208 179.048451 
L 164.810689 180.192504 
L 164.950429 180.244357 
L 165.090169 180.482791 
L 166.0889 185.815101 
L 166.23275 185.831934 
L 167.243811 190.840521 
L 167.389716 190.429822 
L 167.831541 196.51998 
L 167.956896 197.523083 
L 168.209661 201.030214 
L 168.850822 204.908329 
L 169.775573 209.323385 
L 170.316038 211.397686 
L 170.451668 211.708577 
L 170.860614 213.172398 
L 173.230031 218.790972 
L 174.232871 220.317157 
L 175.706308 222.386063 
L 177.048224 223.840727 
L 178.425075 225.048828 
L 178.5792 225.061875 
L 181.260977 227.253944 
L 182.664543 228.137713 
L 185.155205 229.547836 
L 185.823081 229.903182 
L 187.189657 230.527871 
L 187.594492 230.69398 
L 188.003438 230.955022 
L 188.278808 231.051904 
L 188.552123 231.037845 
L 188.827493 231.189204 
L 189.104918 231.451264 
L 191.653121 232.487422 
L 195.791894 234.048748 
L 198.095551 234.792331 
L 198.722326 234.974036 
L 199.199087 235.15357 
L 202.503529 236.100491 
L 203.21045 236.255015 
L 210.998906 238.130649 
L 211.576362 238.164014 
L 212.159982 238.330179 
L 217.581077 239.282293 
L 223.335081 240.080816 
L 224.259832 240.176213 
L 229.068536 240.55756 
L 243.494648 241.137695 
L 257.550859 241.387365 
L 283.813781 241.582963 
L 333.565371 241.702603 
L 333.565371 241.702603 
" clip-path="url(#p2b9c0aef53)" style="fill: none; stroke: #1f77b4; stroke-width: 1.5; stroke-linecap: square"/>
   </g>
   <g id="patch_13">
    <path d="M 54.02 246.04 
L 54.02 153.097811 
" style="fill: none; stroke: #000000; stroke-width: 0.8; stroke-linejoin: miter; stroke-linecap: square"/>
   </g>
   <g id="patch_14">
    <path d="M 346.877055 246.04 
L 346.877055 153.097811 
" style="fill: none; stroke: #000000; stroke-width: 0.8; stroke-linejoin: miter; stroke-linecap: square"/>
   </g>
   <g id="patch_15">
    <path d="M 54.02 246.04 
L 346.877055 246.04 
" style="fill: none; stroke: #000000; stroke-width: 0.8; stroke-linejoin: miter; stroke-linecap: square"/>
   </g>
   <g id="patch_16">
    <path d="M 54.02 153.097811 
L 346.877055 153.097811 
" style="fill: none; stroke: #000000; stroke-width: 0.8; stroke-linejoin: miter; stroke-linecap: square"/>
   </g>
   <g id="text_32">
    <!-- 2 -->
    <g transform="translate(194.951328 176.454449) scale(0.1728 -0.1728)">
     <use xlink:href="#DejaVuSans-32"/>
    </g>
   </g>
  </g>
  <g id="axes_4">
   <g id="patch_17">
    <path d="M 405.47 246.04 
L 698.327055 246.04 
L 698.327055 153.097811 
L 405.47 153.097811 
z
" style="fill: #ffffff"/>
   </g>
   <g id="matplotlib.axis_7">
    <g id="xtick_31">
     <g id="line2d_45">
      <g>
       <use xlink:href="#me394e44136" x="418.781684" y="246.04" style="stroke: #000000; stroke-width: 0.8"/>
      </g>
     </g>
     <g id="text_33">
      <!-- 02-25 00 -->
      <g transform="translate(396.301216 260.638438) scale(0.1 -0.1)">
       <use xlink:href="#DejaVuSans-30"/>
       <use xlink:href="#DejaVuSans-32" x="63.623047"/>
       <use xlink:href="#DejaVuSans-2d" x="127.246094"/>
       <use xlink:href="#DejaVuSans-32" x="163.330078"/>
       <use xlink:href="#DejaVuSans-35" x="226.953125"/>
       <use xlink:href="#DejaVuSans-20" x="290.576172"/>
       <use xlink:href="#DejaVuSans-30" x="322.363281"/>
       <use xlink:href="#DejaVuSans-30" x="385.986328"/>
      </g>
     </g>
    </g>
    <g id="xtick_32">
     <g id="line2d_46">
      <g>
       <use xlink:href="#me394e44136" x="448.373708" y="246.04" style="stroke: #000000; stroke-width: 0.8"/>
      </g>
     </g>
     <g id="text_34">
      <!-- 02-25 04 -->
      <g transform="translate(425.89324 260.638438) scale(0.1 -0.1)">
       <use xlink:href="#DejaVuSans-30"/>
       <use xlink:href="#DejaVuSans-32" x="63.623047"/>
       <use xlink:href="#DejaVuSans-2d" x="127.246094"/>
       <use xlink:href="#DejaVuSans-32" x="163.330078"/>
       <use xlink:href="#DejaVuSans-35" x="226.953125"/>
       <use xlink:href="#DejaVuSans-20" x="290.576172"/>
       <use xlink:href="#DejaVuSans-30" x="322.363281"/>
       <use xlink:href="#DejaVuSans-34" x="385.986328"/>
      </g>
     </g>
    </g>
    <g id="xtick_33">
     <g id="line2d_47">
      <g>
       <use xlink:href="#me394e44136" x="477.965733" y="246.04" style="stroke: #000000; stroke-width: 0.8"/>
      </g>
     </g>
     <g id="text_35">
      <!-- 02-25 08 -->
      <g transform="translate(455.485264 260.638438) scale(0.1 -0.1)">
       <use xlink:href="#DejaVuSans-30"/>
       <use xlink:href="#DejaVuSans-32" x="63.623047"/>
       <use xlink:href="#DejaVuSans-2d" x="127.246094"/>
       <use xlink:href="#DejaVuSans-32" x="163.330078"/>
       <use xlink:href="#DejaVuSans-35" x="226.953125"/>
       <use xlink:href="#DejaVuSans-20" x="290.576172"/>
       <use xlink:href="#DejaVuSans-30" x="322.363281"/>
       <use xlink:href="#DejaVuSans-38" x="385.986328"/>
      </g>
     </g>
    </g>
    <g id="xtick_34">
     <g id="line2d_48">
      <g>
       <use xlink:href="#me394e44136" x="507.557757" y="246.04" style="stroke: #000000; stroke-width: 0.8"/>
      </g>
     </g>
     <g id="text_36">
      <!-- 02-25 12 -->
      <g transform="translate(485.077288 260.638438) scale(0.1 -0.1)">
       <use xlink:href="#DejaVuSans-30"/>
       <use xlink:href="#DejaVuSans-32" x="63.623047"/>
       <use xlink:href="#DejaVuSans-2d" x="127.246094"/>
       <use xlink:href="#DejaVuSans-32" x="163.330078"/>
       <use xlink:href="#DejaVuSans-35" x="226.953125"/>
       <use xlink:href="#DejaVuSans-20" x="290.576172"/>
       <use xlink:href="#DejaVuSans-31" x="322.363281"/>
       <use xlink:href="#DejaVuSans-32" x="385.986328"/>
      </g>
     </g>
    </g>
    <g id="xtick_35">
     <g id="line2d_49">
      <g>
       <use xlink:href="#me394e44136" x="537.149781" y="246.04" style="stroke: #000000; stroke-width: 0.8"/>
      </g>
     </g>
     <g id="text_37">
      <!-- 02-25 16 -->
      <g transform="translate(514.669312 260.638438) scale(0.1 -0.1)">
       <use xlink:href="#DejaVuSans-30"/>
       <use xlink:href="#DejaVuSans-32" x="63.623047"/>
       <use xlink:href="#DejaVuSans-2d" x="127.246094"/>
       <use xlink:href="#DejaVuSans-32" x="163.330078"/>
       <use xlink:href="#DejaVuSans-35" x="226.953125"/>
       <use xlink:href="#DejaVuSans-20" x="290.576172"/>
       <use xlink:href="#DejaVuSans-31" x="322.363281"/>
       <use xlink:href="#DejaVuSans-36" x="385.986328"/>
      </g>
     </g>
    </g>
    <g id="xtick_36">
     <g id="line2d_50">
      <g>
       <use xlink:href="#me394e44136" x="566.741805" y="246.04" style="stroke: #000000; stroke-width: 0.8"/>
      </g>
     </g>
     <g id="text_38">
      <!-- 02-25 20 -->
      <g transform="translate(544.261336 260.638438) scale(0.1 -0.1)">
       <use xlink:href="#DejaVuSans-30"/>
       <use xlink:href="#DejaVuSans-32" x="63.623047"/>
       <use xlink:href="#DejaVuSans-2d" x="127.246094"/>
       <use xlink:href="#DejaVuSans-32" x="163.330078"/>
       <use xlink:href="#DejaVuSans-35" x="226.953125"/>
       <use xlink:href="#DejaVuSans-20" x="290.576172"/>
       <use xlink:href="#DejaVuSans-32" x="322.363281"/>
       <use xlink:href="#DejaVuSans-30" x="385.986328"/>
      </g>
     </g>
    </g>
    <g id="xtick_37">
     <g id="line2d_51">
      <g>
       <use xlink:href="#me394e44136" x="596.333829" y="246.04" style="stroke: #000000; stroke-width: 0.8"/>
      </g>
     </g>
     <g id="text_39">
      <!-- 02-26 00 -->
      <g transform="translate(573.85336 260.638438) scale(0.1 -0.1)">
       <use xlink:href="#DejaVuSans-30"/>
       <use xlink:href="#DejaVuSans-32" x="63.623047"/>
       <use xlink:href="#DejaVuSans-2d" x="127.246094"/>
       <use xlink:href="#DejaVuSans-32" x="163.330078"/>
       <use xlink:href="#DejaVuSans-36" x="226.953125"/>
       <use xlink:href="#DejaVuSans-20" x="290.576172"/>
       <use xlink:href="#DejaVuSans-30" x="322.363281"/>
       <use xlink:href="#DejaVuSans-30" x="385.986328"/>
      </g>
     </g>
    </g>
    <g id="xtick_38">
     <g id="line2d_52">
      <g>
       <use xlink:href="#me394e44136" x="625.925853" y="246.04" style="stroke: #000000; stroke-width: 0.8"/>
      </g>
     </g>
     <g id="text_40">
      <!-- 02-26 04 -->
      <g transform="translate(603.445384 260.638438) scale(0.1 -0.1)">
       <use xlink:href="#DejaVuSans-30"/>
       <use xlink:href="#DejaVuSans-32" x="63.623047"/>
       <use xlink:href="#DejaVuSans-2d" x="127.246094"/>
       <use xlink:href="#DejaVuSans-32" x="163.330078"/>
       <use xlink:href="#DejaVuSans-36" x="226.953125"/>
       <use xlink:href="#DejaVuSans-20" x="290.576172"/>
       <use xlink:href="#DejaVuSans-30" x="322.363281"/>
       <use xlink:href="#DejaVuSans-34" x="385.986328"/>
      </g>
     </g>
    </g>
    <g id="xtick_39">
     <g id="line2d_53">
      <g>
       <use xlink:href="#me394e44136" x="655.517877" y="246.04" style="stroke: #000000; stroke-width: 0.8"/>
      </g>
     </g>
     <g id="text_41">
      <!-- 02-26 08 -->
      <g transform="translate(633.037408 260.638438) scale(0.1 -0.1)">
       <use xlink:href="#DejaVuSans-30"/>
       <use xlink:href="#DejaVuSans-32" x="63.623047"/>
       <use xlink:href="#DejaVuSans-2d" x="127.246094"/>
       <use xlink:href="#DejaVuSans-32" x="163.330078"/>
       <use xlink:href="#DejaVuSans-36" x="226.953125"/>
       <use xlink:href="#DejaVuSans-20" x="290.576172"/>
       <use xlink:href="#DejaVuSans-30" x="322.363281"/>
       <use xlink:href="#DejaVuSans-38" x="385.986328"/>
      </g>
     </g>
    </g>
    <g id="xtick_40">
     <g id="line2d_54">
      <g>
       <use xlink:href="#me394e44136" x="685.109901" y="246.04" style="stroke: #000000; stroke-width: 0.8"/>
      </g>
     </g>
     <g id="text_42">
      <!-- 02-26 12 -->
      <g transform="translate(662.629432 260.638438) scale(0.1 -0.1)">
       <use xlink:href="#DejaVuSans-30"/>
       <use xlink:href="#DejaVuSans-32" x="63.623047"/>
       <use xlink:href="#DejaVuSans-2d" x="127.246094"/>
       <use xlink:href="#DejaVuSans-32" x="163.330078"/>
       <use xlink:href="#DejaVuSans-36" x="226.953125"/>
       <use xlink:href="#DejaVuSans-20" x="290.576172"/>
       <use xlink:href="#DejaVuSans-31" x="322.363281"/>
       <use xlink:href="#DejaVuSans-32" x="385.986328"/>
      </g>
     </g>
    </g>
    <g id="text_43">
     <!-- time -->
     <g transform="translate(540.602434 274.316562) scale(0.1 -0.1)">
      <use xlink:href="#DejaVuSans-74"/>
      <use xlink:href="#DejaVuSans-69" x="39.208984"/>
      <use xlink:href="#DejaVuSans-6d" x="66.992188"/>
      <use xlink:href="#DejaVuSans-65" x="164.404297"/>
     </g>
    </g>
   </g>
   <g id="matplotlib.axis_8">
    <g id="ytick_12">
     <g id="line2d_55">
      <g>
       <use xlink:href="#m931fe0d75c" x="405.47" y="241.815355" style="stroke: #000000; stroke-width: 0.8"/>
      </g>
     </g>
     <g id="text_44">
      <!-- 0 -->
      <g transform="translate(392.1075 245.614574) scale(0.1 -0.1)">
       <use xlink:href="#DejaVuSans-30"/>
      </g>
     </g>
    </g>
    <g id="ytick_13">
     <g id="line2d_56">
      <g>
       <use xlink:href="#m931fe0d75c" x="405.47" y="198.638819" style="stroke: #000000; stroke-width: 0.8"/>
      </g>
     </g>
     <g id="text_45">
      <!-- 1 -->
      <g transform="translate(392.1075 202.438038) scale(0.1 -0.1)">
       <use xlink:href="#DejaVuSans-31"/>
      </g>
     </g>
    </g>
    <g id="ytick_14">
     <g id="line2d_57">
      <g>
       <use xlink:href="#m931fe0d75c" x="405.47" y="155.462284" style="stroke: #000000; stroke-width: 0.8"/>
      </g>
     </g>
     <g id="text_46">
      <!-- 2 -->
      <g transform="translate(392.1075 159.261503) scale(0.1 -0.1)">
       <use xlink:href="#DejaVuSans-32"/>
      </g>
     </g>
    </g>
    <g id="text_47">
     <!-- depth (m) -->
     <g transform="translate(386.027813 224.483749) rotate(-90) scale(0.1 -0.1)">
      <use xlink:href="#DejaVuSans-64"/>
      <use xlink:href="#DejaVuSans-65" x="63.476562"/>
      <use xlink:href="#DejaVuSans-70" x="125"/>
      <use xlink:href="#DejaVuSans-74" x="188.476562"/>
      <use xlink:href="#DejaVuSans-68" x="227.685547"/>
      <use xlink:href="#DejaVuSans-20" x="291.064453"/>
      <use xlink:href="#DejaVuSans-28" x="322.851562"/>
      <use xlink:href="#DejaVuSans-6d" x="361.865234"/>
      <use xlink:href="#DejaVuSans-29" x="459.277344"/>
     </g>
    </g>
   </g>
   <g id="line2d_58">
    <path d="M 418.781684 241.815355 
L 428.524447 241.722509 
L 430.004048 241.448286 
L 431.41789 240.971504 
L 432.985856 240.198676 
L 434.225022 239.403194 
L 435.365548 238.374451 
L 436.779389 236.770911 
L 443.394439 228.832277 
L 444.54524 227.517232 
L 446.832457 224.337585 
L 448.233968 222.061475 
L 450.574615 217.937424 
L 453.013902 213.139904 
L 456.20943 206.20462 
L 458.967242 199.437195 
L 461.944939 191.230032 
L 465.286372 181.562706 
L 467.735934 175.4834 
L 470.974617 168.021227 
L 472.404898 165.292959 
L 473.713934 163.251729 
L 475.300395 161.176585 
L 476.757392 159.576519 
L 478.497978 158.02179 
L 479.437114 157.531536 
L 480.382414 157.333802 
L 481.340045 157.38284 
L 482.441526 157.704718 
L 483.547117 158.269855 
L 484.946573 159.260301 
L 486.493989 160.773693 
L 487.768091 162.29745 
L 489.625812 164.838727 
L 491.709584 168.148015 
L 493.916656 172.120542 
L 496.444308 177.095891 
L 498.86099 182.332154 
L 502.977158 191.943124 
L 515.278398 221.540846 
L 518.549961 227.989526 
L 519.406896 229.274059 
L 520.559752 230.457137 
L 521.766038 231.385061 
L 523.276464 232.259963 
L 524.967731 232.991569 
L 527.304268 233.73414 
L 530.18127 234.415223 
L 533.728203 235.065879 
L 540.277493 236.018648 
L 556.068126 237.836828 
L 569.524277 239.113376 
L 579.593785 239.842049 
L 588.841293 240.245384 
L 602.527604 240.605793 
L 623.242021 240.900511 
L 658.197599 241.15114 
L 685.015371 241.263866 
L 685.015371 241.263866 
" clip-path="url(#p0439f65d35)" style="fill: none; stroke: #1f77b4; stroke-width: 1.5; stroke-linecap: square"/>
   </g>
   <g id="patch_18">
    <path d="M 405.47 246.04 
L 405.47 153.097811 
" style="fill: none; stroke: #000000; stroke-width: 0.8; stroke-linejoin: miter; stroke-linecap: square"/>
   </g>
   <g id="patch_19">
    <path d="M 698.327055 246.04 
L 698.327055 153.097811 
" style="fill: none; stroke: #000000; stroke-width: 0.8; stroke-linejoin: miter; stroke-linecap: square"/>
   </g>
   <g id="patch_20">
    <path d="M 405.47 246.04 
L 698.327055 246.04 
" style="fill: none; stroke: #000000; stroke-width: 0.8; stroke-linejoin: miter; stroke-linecap: square"/>
   </g>
   <g id="patch_21">
    <path d="M 405.47 153.097811 
L 698.327055 153.097811 
" style="fill: none; stroke: #000000; stroke-width: 0.8; stroke-linejoin: miter; stroke-linecap: square"/>
   </g>
   <g id="text_48">
    <!-- ('P2', 'depthN') -->
    <g transform="translate(487.846428 176.454449) scale(0.1728 -0.1728)">
     <use xlink:href="#DejaVuSans-28"/>
     <use xlink:href="#DejaVuSans-27" x="39.013672"/>
     <use xlink:href="#DejaVuSans-50" x="66.503906"/>
     <use xlink:href="#DejaVuSans-32" x="126.806641"/>
     <use xlink:href="#DejaVuSans-27" x="190.429688"/>
     <use xlink:href="#DejaVuSans-2c" x="217.919922"/>
     <use xlink:href="#DejaVuSans-20" x="249.707031"/>
     <use xlink:href="#DejaVuSans-27" x="281.494141"/>
     <use xlink:href="#DejaVuSans-64" x="308.984375"/>
     <use xlink:href="#DejaVuSans-65" x="372.460938"/>
     <use xlink:href="#DejaVuSans-70" x="433.984375"/>
     <use xlink:href="#DejaVuSans-74" x="497.460938"/>
     <use xlink:href="#DejaVuSans-68" x="536.669922"/>
     <use xlink:href="#DejaVuSans-4e" x="600.048828"/>
     <use xlink:href="#DejaVuSans-27" x="674.853516"/>
     <use xlink:href="#DejaVuSans-29" x="702.34375"/>
    </g>
   </g>
   <g id="text_49">
    <!-- cost: 5.47e+03 -->
    <g transform="translate(485.528478 204.337106) scale(0.1728 -0.1728)">
     <defs>
      <path id="DejaVuSans-3a" d="M 750 794 
L 1409 794 
L 1409 0 
L 750 0 
L 750 794 
z
M 750 3309 
L 1409 3309 
L 1409 2516 
L 750 2516 
L 750 3309 
z
" transform="scale(0.015625)"/>
      <path id="DejaVuSans-37" d="M 525 4666 
L 3525 4666 
L 3525 4397 
L 1831 0 
L 1172 0 
L 2766 4134 
L 525 4134 
L 525 4666 
z
" transform="scale(0.015625)"/>
      <path id="DejaVuSans-2b" d="M 2944 4013 
L 2944 2272 
L 4684 2272 
L 4684 1741 
L 2944 1741 
L 2944 0 
L 2419 0 
L 2419 1741 
L 678 1741 
L 678 2272 
L 2419 2272 
L 2419 4013 
L 2944 4013 
z
" transform="scale(0.015625)"/>
     </defs>
     <use xlink:href="#DejaVuSans-63"/>
     <use xlink:href="#DejaVuSans-6f" x="54.980469"/>
     <use xlink:href="#DejaVuSans-73" x="116.162109"/>
     <use xlink:href="#DejaVuSans-74" x="168.261719"/>
     <use xlink:href="#DejaVuSans-3a" x="207.470703"/>
     <use xlink:href="#DejaVuSans-20" x="241.162109"/>
     <use xlink:href="#DejaVuSans-35" x="272.949219"/>
     <use xlink:href="#DejaVuSans-2e" x="336.572266"/>
     <use xlink:href="#DejaVuSans-34" x="368.359375"/>
     <use xlink:href="#DejaVuSans-37" x="431.982422"/>
     <use xlink:href="#DejaVuSans-65" x="495.605469"/>
     <use xlink:href="#DejaVuSans-2b" x="557.128906"/>
     <use xlink:href="#DejaVuSans-30" x="640.917969"/>
     <use xlink:href="#DejaVuSans-33" x="704.541016"/>
    </g>
   </g>
  </g>
 </g>
 <defs>
  <clipPath id="p8df496cf31">
   <rect x="54.02" y="26.88" width="292.857055" height="92.942189"/>
  </clipPath>
  <clipPath id="pb696326181">
   <rect x="405.47" y="26.88" width="292.857055" height="92.942189"/>
  </clipPath>
  <clipPath id="p2b9c0aef53">
   <rect x="54.02" y="153.097811" width="292.857055" height="92.942189"/>
  </clipPath>
  <clipPath id="p0439f65d35">
   <rect x="405.47" y="153.097811" width="292.857055" height="92.942189"/>
  </clipPath>
 </defs>
</svg>
