<?xml version="1.0" encoding="utf-8" standalone="no"?>
<!DOCTYPE svg PUBLIC "-//W3C//DTD SVG 1.1//EN"
  "http://www.w3.org/Graphics/SVG/1.1/DTD/svg11.dtd">
<svg xmlns:xlink="http://www.w3.org/1999/xlink" width="720pt" height="288pt" viewBox="0 0 720 288" xmlns="http://www.w3.org/2000/svg" version="1.1">
 <metadata>
  <rdf:RDF xmlns:dc="http://purl.org/dc/elements/1.1/" xmlns:cc="http://creativecommons.org/ns#" xmlns:rdf="http://www.w3.org/1999/02/22-rdf-syntax-ns#">
   <cc:Work>
    <dc:type rdf:resource="http://purl.org/dc/dcmitype/StillImage"/>
    <dc:date>2025-02-27T19:00:00.272886</dc:date>
    <dc:format>image/svg+xml</dc:format>
    <dc:creator>
     <cc:Agent>
      <dc:title>Matplotlib v3.9.4, https://matplotlib.org/</dc:title>
     </cc:Agent>
    </dc:creator>
   </cc:Work>
  </rdf:RDF>
 </metadata>
 <defs>
  <style type="text/css">*{stroke-linejoin: round; stroke-linecap: butt}</style>
 </defs>
 <g id="figure_1">
  <g id="patch_1">
   <path d="M 0 288 
L 720 288 
L 720 0 
L 0 0 
z
" style="fill: #ffffff"/>
  </g>
  <g id="axes_1">
   <g id="patch_2">
    <path d="M 47.72 120.174963 
L 351.45 120.174963 
L 351.45 26.88 
L 47.72 26.88 
z
" style="fill: #ffffff"/>
   </g>
   <g id="matplotlib.axis_1">
    <g id="xtick_1">
     <g id="line2d_1">
      <defs>
       <path id="m26d45ae9f8" d="M 0 0 
L 0 3.5 
" style="stroke: #000000; stroke-width: 0.8"/>
      </defs>
      <g>
       <use xlink:href="#m26d45ae9f8" x="61.525909" y="120.174963" style="stroke: #000000; stroke-width: 0.8"/>
      </g>
     </g>
    </g>
    <g id="xtick_2">
     <g id="line2d_2">
      <g>
       <use xlink:href="#m26d45ae9f8" x="104.005781" y="120.174963" style="stroke: #000000; stroke-width: 0.8"/>
      </g>
     </g>
    </g>
    <g id="xtick_3">
     <g id="line2d_3">
      <g>
       <use xlink:href="#m26d45ae9f8" x="146.485652" y="120.174963" style="stroke: #000000; stroke-width: 0.8"/>
      </g>
     </g>
    </g>
    <g id="xtick_4">
     <g id="line2d_4">
      <g>
       <use xlink:href="#m26d45ae9f8" x="188.965524" y="120.174963" style="stroke: #000000; stroke-width: 0.8"/>
      </g>
     </g>
    </g>
    <g id="xtick_5">
     <g id="line2d_5">
      <g>
       <use xlink:href="#m26d45ae9f8" x="231.445395" y="120.174963" style="stroke: #000000; stroke-width: 0.8"/>
      </g>
     </g>
    </g>
    <g id="xtick_6">
     <g id="line2d_6">
      <g>
       <use xlink:href="#m26d45ae9f8" x="273.925267" y="120.174963" style="stroke: #000000; stroke-width: 0.8"/>
      </g>
     </g>
    </g>
    <g id="xtick_7">
     <g id="line2d_7">
      <g>
       <use xlink:href="#m26d45ae9f8" x="316.405138" y="120.174963" style="stroke: #000000; stroke-width: 0.8"/>
      </g>
     </g>
    </g>
    <g id="text_1">
     <!-- time -->
     <g transform="translate(188.288906 138.773401) scale(0.1 -0.1)">
      <defs>
       <path id="DejaVuSans-74" d="M 1172 4494 
L 1172 3500 
L 2356 3500 
L 2356 3053 
L 1172 3053 
L 1172 1153 
Q 1172 725 1289 603 
Q 1406 481 1766 481 
L 2356 481 
L 2356 0 
L 1766 0 
Q 1100 0 847 248 
Q 594 497 594 1153 
L 594 3053 
L 172 3053 
L 172 3500 
L 594 3500 
L 594 4494 
L 1172 4494 
z
" transform="scale(0.015625)"/>
       <path id="DejaVuSans-69" d="M 603 3500 
L 1178 3500 
L 1178 0 
L 603 0 
L 603 3500 
z
M 603 4863 
L 1178 4863 
L 1178 4134 
L 603 4134 
L 603 4863 
z
" transform="scale(0.015625)"/>
       <path id="DejaVuSans-6d" d="M 3328 2828 
Q 3544 3216 3844 3400 
Q 4144 3584 4550 3584 
Q 5097 3584 5394 3201 
Q 5691 2819 5691 2113 
L 5691 0 
L 5113 0 
L 5113 2094 
Q 5113 2597 4934 2840 
Q 4756 3084 4391 3084 
Q 3944 3084 3684 2787 
Q 3425 2491 3425 1978 
L 3425 0 
L 2847 0 
L 2847 2094 
Q 2847 2600 2669 2842 
Q 2491 3084 2119 3084 
Q 1678 3084 1418 2786 
Q 1159 2488 1159 1978 
L 1159 0 
L 581 0 
L 581 3500 
L 1159 3500 
L 1159 2956 
Q 1356 3278 1631 3431 
Q 1906 3584 2284 3584 
Q 2666 3584 2933 3390 
Q 3200 3197 3328 2828 
z
" transform="scale(0.015625)"/>
       <path id="DejaVuSans-65" d="M 3597 1894 
L 3597 1613 
L 953 1613 
Q 991 1019 1311 708 
Q 1631 397 2203 397 
Q 2534 397 2845 478 
Q 3156 559 3463 722 
L 3463 178 
Q 3153 47 2828 -22 
Q 2503 -91 2169 -91 
Q 1331 -91 842 396 
Q 353 884 353 1716 
Q 353 2575 817 3079 
Q 1281 3584 2069 3584 
Q 2775 3584 3186 3129 
Q 3597 2675 3597 1894 
z
M 3022 2063 
Q 3016 2534 2758 2815 
Q 2500 3097 2075 3097 
Q 1594 3097 1305 2825 
Q 1016 2553 972 2059 
L 3022 2063 
z
" transform="scale(0.015625)"/>
      </defs>
      <use xlink:href="#DejaVuSans-74"/>
      <use xlink:href="#DejaVuSans-69" x="39.208984"/>
      <use xlink:href="#DejaVuSans-6d" x="66.992188"/>
      <use xlink:href="#DejaVuSans-65" x="164.404297"/>
     </g>
    </g>
   </g>
   <g id="matplotlib.axis_2">
    <g id="ytick_1">
     <g id="line2d_8">
      <defs>
       <path id="mb8d853ddf3" d="M 0 0 
L -3.5 0 
" style="stroke: #000000; stroke-width: 0.8"/>
      </defs>
      <g>
       <use xlink:href="#mb8d853ddf3" x="47.72" y="115.934283" style="stroke: #000000; stroke-width: 0.8"/>
      </g>
     </g>
     <g id="text_2">
      <!-- 0.0 -->
      <g transform="translate(24.816875 119.733502) scale(0.1 -0.1)">
       <defs>
        <path id="DejaVuSans-30" d="M 2034 4250 
Q 1547 4250 1301 3770 
Q 1056 3291 1056 2328 
Q 1056 1369 1301 889 
Q 1547 409 2034 409 
Q 2525 409 2770 889 
Q 3016 1369 3016 2328 
Q 3016 3291 2770 3770 
Q 2525 4250 2034 4250 
z
M 2034 4750 
Q 2819 4750 3233 4129 
Q 3647 3509 3647 2328 
Q 3647 1150 3233 529 
Q 2819 -91 2034 -91 
Q 1250 -91 836 529 
Q 422 1150 422 2328 
Q 422 3509 836 4129 
Q 1250 4750 2034 4750 
z
" transform="scale(0.015625)"/>
        <path id="DejaVuSans-2e" d="M 684 794 
L 1344 794 
L 1344 0 
L 684 0 
L 684 794 
z
" transform="scale(0.015625)"/>
       </defs>
       <use xlink:href="#DejaVuSans-30"/>
       <use xlink:href="#DejaVuSans-2e" x="63.623047"/>
       <use xlink:href="#DejaVuSans-30" x="95.410156"/>
      </g>
     </g>
    </g>
    <g id="ytick_2">
     <g id="line2d_9">
      <g>
       <use xlink:href="#mb8d853ddf3" x="47.72" y="83.380822" style="stroke: #000000; stroke-width: 0.8"/>
      </g>
     </g>
     <g id="text_3">
      <!-- 0.2 -->
      <g transform="translate(24.816875 87.180041) scale(0.1 -0.1)">
       <defs>
        <path id="DejaVuSans-32" d="M 1228 531 
L 3431 531 
L 3431 0 
L 469 0 
L 469 531 
Q 828 903 1448 1529 
Q 2069 2156 2228 2338 
Q 2531 2678 2651 2914 
Q 2772 3150 2772 3378 
Q 2772 3750 2511 3984 
Q 2250 4219 1831 4219 
Q 1534 4219 1204 4116 
Q 875 4013 500 3803 
L 500 4441 
Q 881 4594 1212 4672 
Q 1544 4750 1819 4750 
Q 2544 4750 2975 4387 
Q 3406 4025 3406 3419 
Q 3406 3131 3298 2873 
Q 3191 2616 2906 2266 
Q 2828 2175 2409 1742 
Q 1991 1309 1228 531 
z
" transform="scale(0.015625)"/>
       </defs>
       <use xlink:href="#DejaVuSans-30"/>
       <use xlink:href="#DejaVuSans-2e" x="63.623047"/>
       <use xlink:href="#DejaVuSans-32" x="95.410156"/>
      </g>
     </g>
    </g>
    <g id="ytick_3">
     <g id="line2d_10">
      <g>
       <use xlink:href="#mb8d853ddf3" x="47.72" y="50.827361" style="stroke: #000000; stroke-width: 0.8"/>
      </g>
     </g>
     <g id="text_4">
      <!-- 0.4 -->
      <g transform="translate(24.816875 54.62658) scale(0.1 -0.1)">
       <defs>
        <path id="DejaVuSans-34" d="M 2419 4116 
L 825 1625 
L 2419 1625 
L 2419 4116 
z
M 2253 4666 
L 3047 4666 
L 3047 1625 
L 3713 1625 
L 3713 1100 
L 3047 1100 
L 3047 0 
L 2419 0 
L 2419 1100 
L 313 1100 
L 313 1709 
L 2253 4666 
z
" transform="scale(0.015625)"/>
       </defs>
       <use xlink:href="#DejaVuSans-30"/>
       <use xlink:href="#DejaVuSans-2e" x="63.623047"/>
       <use xlink:href="#DejaVuSans-34" x="95.410156"/>
      </g>
     </g>
    </g>
    <g id="text_5">
     <!-- flow (cms) -->
     <g transform="translate(18.737188 99.539982) rotate(-90) scale(0.1 -0.1)">
      <defs>
       <path id="DejaVuSans-66" d="M 2375 4863 
L 2375 4384 
L 1825 4384 
Q 1516 4384 1395 4259 
Q 1275 4134 1275 3809 
L 1275 3500 
L 2222 3500 
L 2222 3053 
L 1275 3053 
L 1275 0 
L 697 0 
L 697 3053 
L 147 3053 
L 147 3500 
L 697 3500 
L 697 3744 
Q 697 4328 969 4595 
Q 1241 4863 1831 4863 
L 2375 4863 
z
" transform="scale(0.015625)"/>
       <path id="DejaVuSans-6c" d="M 603 4863 
L 1178 4863 
L 1178 0 
L 603 0 
L 603 4863 
z
" transform="scale(0.015625)"/>
       <path id="DejaVuSans-6f" d="M 1959 3097 
Q 1497 3097 1228 2736 
Q 959 2375 959 1747 
Q 959 1119 1226 758 
Q 1494 397 1959 397 
Q 2419 397 2687 759 
Q 2956 1122 2956 1747 
Q 2956 2369 2687 2733 
Q 2419 3097 1959 3097 
z
M 1959 3584 
Q 2709 3584 3137 3096 
Q 3566 2609 3566 1747 
Q 3566 888 3137 398 
Q 2709 -91 1959 -91 
Q 1206 -91 779 398 
Q 353 888 353 1747 
Q 353 2609 779 3096 
Q 1206 3584 1959 3584 
z
" transform="scale(0.015625)"/>
       <path id="DejaVuSans-77" d="M 269 3500 
L 844 3500 
L 1563 769 
L 2278 3500 
L 2956 3500 
L 3675 769 
L 4391 3500 
L 4966 3500 
L 4050 0 
L 3372 0 
L 2619 2869 
L 1863 0 
L 1184 0 
L 269 3500 
z
" transform="scale(0.015625)"/>
       <path id="DejaVuSans-20" transform="scale(0.015625)"/>
       <path id="DejaVuSans-28" d="M 1984 4856 
Q 1566 4138 1362 3434 
Q 1159 2731 1159 2009 
Q 1159 1288 1364 580 
Q 1569 -128 1984 -844 
L 1484 -844 
Q 1016 -109 783 600 
Q 550 1309 550 2009 
Q 550 2706 781 3412 
Q 1013 4119 1484 4856 
L 1984 4856 
z
" transform="scale(0.015625)"/>
       <path id="DejaVuSans-63" d="M 3122 3366 
L 3122 2828 
Q 2878 2963 2633 3030 
Q 2388 3097 2138 3097 
Q 1578 3097 1268 2742 
Q 959 2388 959 1747 
Q 959 1106 1268 751 
Q 1578 397 2138 397 
Q 2388 397 2633 464 
Q 2878 531 3122 666 
L 3122 134 
Q 2881 22 2623 -34 
Q 2366 -91 2075 -91 
Q 1284 -91 818 406 
Q 353 903 353 1747 
Q 353 2603 823 3093 
Q 1294 3584 2113 3584 
Q 2378 3584 2631 3529 
Q 2884 3475 3122 3366 
z
" transform="scale(0.015625)"/>
       <path id="DejaVuSans-73" d="M 2834 3397 
L 2834 2853 
Q 2591 2978 2328 3040 
Q 2066 3103 1784 3103 
Q 1356 3103 1142 2972 
Q 928 2841 928 2578 
Q 928 2378 1081 2264 
Q 1234 2150 1697 2047 
L 1894 2003 
Q 2506 1872 2764 1633 
Q 3022 1394 3022 966 
Q 3022 478 2636 193 
Q 2250 -91 1575 -91 
Q 1294 -91 989 -36 
Q 684 19 347 128 
L 347 722 
Q 666 556 975 473 
Q 1284 391 1588 391 
Q 1994 391 2212 530 
Q 2431 669 2431 922 
Q 2431 1156 2273 1281 
Q 2116 1406 1581 1522 
L 1381 1569 
Q 847 1681 609 1914 
Q 372 2147 372 2553 
Q 372 3047 722 3315 
Q 1072 3584 1716 3584 
Q 2034 3584 2315 3537 
Q 2597 3491 2834 3397 
z
" transform="scale(0.015625)"/>
       <path id="DejaVuSans-29" d="M 513 4856 
L 1013 4856 
Q 1481 4119 1714 3412 
Q 1947 2706 1947 2009 
Q 1947 1309 1714 600 
Q 1481 -109 1013 -844 
L 513 -844 
Q 928 -128 1133 580 
Q 1338 1288 1338 2009 
Q 1338 2731 1133 3434 
Q 928 4138 513 4856 
z
" transform="scale(0.015625)"/>
      </defs>
      <use xlink:href="#DejaVuSans-66"/>
      <use xlink:href="#DejaVuSans-6c" x="35.205078"/>
      <use xlink:href="#DejaVuSans-6f" x="62.988281"/>
      <use xlink:href="#DejaVuSans-77" x="124.169922"/>
      <use xlink:href="#DejaVuSans-20" x="205.957031"/>
      <use xlink:href="#DejaVuSans-28" x="237.744141"/>
      <use xlink:href="#DejaVuSans-63" x="276.757812"/>
      <use xlink:href="#DejaVuSans-6d" x="331.738281"/>
      <use xlink:href="#DejaVuSans-73" x="429.150391"/>
      <use xlink:href="#DejaVuSans-29" x="481.25"/>
     </g>
    </g>
   </g>
   <g id="line2d_11">
    <path d="M 61.525909 115.934283 
L 66.187878 115.854997 
L 66.630377 115.567572 
L 67.161375 114.990256 
L 67.415075 114.401059 
L 67.570441 114.101917 
L 67.994256 113.219158 
L 68.060139 113.520804 
L 68.252872 112.614463 
L 68.314822 112.479401 
L 68.436755 113.463656 
L 68.500671 113.262872 
L 68.627521 112.592847 
L 68.765187 111.028579 
L 68.983487 110.446198 
L 69.191953 109.531945 
L 69.328635 111.187805 
L 69.469252 110.348026 
L 69.537102 108.379225 
L 69.602985 109.305877 
L 69.794734 108.144688 
L 69.930434 104.108945 
L 70.070067 103.961398 
L 70.1389 107.118779 
L 70.210683 107.035874 
L 70.356216 105.936054 
L 70.427016 106.01066 
L 70.495849 100.023439 
L 70.560748 100.313949 
L 70.688581 100.391834 
L 70.752498 100.931053 
L 70.942281 99.951976 
L 71.06913 105.242463 
L 71.135997 104.489207 
L 71.26678 103.154731 
L 71.391663 94.654249 
L 71.461479 95.277969 
L 71.531296 95.591194 
L 71.601112 98.923487 
L 71.671912 98.216165 
L 71.813511 97.588329 
L 71.954128 100.628519 
L 72.09671 99.276369 
L 72.16751 96.526637 
L 72.236343 99.484839 
L 72.305176 98.610775 
L 72.443826 97.243666 
L 72.643442 93.639044 
L 72.709325 93.246807 
L 72.774225 87.796293 
L 72.838142 93.426093 
L 72.903041 92.876638 
L 73.031858 91.848372 
L 73.159691 92.96731 
L 73.908005 85.190523 
L 73.976838 87.85962 
L 74.226604 83.009618 
L 74.295437 73.545984 
L 74.362304 75.185608 
L 74.49407 77.345222 
L 74.560936 88.414565 
L 74.629769 86.284345 
L 74.749736 84.649963 
L 74.818569 78.678083 
L 74.886419 85.120967 
L 74.954268 84.108769 
L 75.157818 81.763865 
L 75.292534 78.668911 
L 75.359401 78.465429 
L 75.42725 79.335612 
L 75.494117 70.015591 
L 75.56 71.699791 
L 75.690783 73.366225 
L 75.823533 79.207417 
L 75.957265 78.061509 
L 76.090998 81.216863 
L 76.157865 80.282559 
L 76.556114 76.036248 
L 76.621997 76.209229 
L 76.686897 73.391472 
L 76.75278 73.393973 
L 76.81768 73.364696 
L 76.882579 74.22004 
L 76.947479 76.927881 
L 77.013362 76.129846 
L 77.144145 75.061001 
L 77.209045 69.630533 
L 77.272961 70.497524 
L 77.465694 71.066819 
L 77.593527 65.815582 
L 77.719393 67.60954 
L 77.84821 76.794187 
L 78.302508 70.710435 
L 78.366425 71.409601 
L 78.430341 66.378978 
L 78.493274 67.086563 
L 78.684041 68.217298 
L 78.747957 72.67341 
L 78.811873 71.971078 
L 78.941673 70.444461 
L 79.068523 66.118334 
L 79.194389 66.587652 
L 79.320255 71.214171 
L 79.385155 70.552052 
L 79.765704 67.180081 
L 79.828637 65.29814 
L 79.89157 65.655501 
L 79.954503 64.911082 
L 80.017437 65.031812 
L 80.08037 65.103234 
L 80.142319 68.524671 
L 80.205253 66.938886 
L 80.456002 65.815487 
L 80.518935 66.815213 
L 80.580885 66.402173 
L 80.956517 64.064441 
L 81.0814 65.624105 
L 81.268233 64.374097 
L 81.330183 60.293836 
L 81.392132 32.079741 
L 81.458999 42.305481 
L 81.585848 50.776799 
L 81.710731 72.993832 
L 81.837581 69.557309 
L 81.900514 62.669722 
L 81.963447 63.496893 
L 82.087347 62.888668 
L 82.211247 61.68201 
L 82.273196 62.48687 
L 82.335146 62.077254 
L 82.458062 61.429242 
L 82.580979 64.440638 
L 82.642929 63.653615 
L 82.827795 61.140137 
L 82.889744 62.867732 
L 82.951694 62.342032 
L 83.013644 61.94897 
L 83.075594 56.941229 
L 83.13656 57.091884 
L 83.31946 58.508393 
L 83.38141 61.239555 
L 83.442376 60.765742 
L 83.627242 61.175701 
L 83.689192 60.197112 
L 83.750159 31.12068 
L 83.817025 41.608987 
L 83.951741 50.991161 
L 84.012708 73.559528 
L 84.075641 70.369413 
L 84.26444 68.067173 
L 84.327373 69.069671 
L 84.578123 64.184332 
L 84.640073 66.098671 
L 84.703006 65.744852 
L 84.889838 64.998696 
L 84.952772 65.553654 
L 85.014721 65.287584 
L 85.325454 64.550015 
L 85.387404 64.486913 
L 85.449353 61.246192 
L 85.511303 64.980492 
L 85.573253 64.590017 
L 85.698136 64.493571 
L 85.760086 66.351038 
L 85.822036 62.798141 
L 85.883985 63.033948 
L 86.068852 63.915886 
L 86.130801 66.607119 
L 86.193735 66.249554 
L 86.318617 65.151279 
L 86.442517 63.161218 
L 86.566417 63.841512 
L 86.628367 51.549405 
L 86.752266 66.166742 
L 86.876166 66.409616 
L 86.939099 62.633638 
L 87.063982 67.313947 
L 87.188865 67.631072 
L 87.251798 66.987928 
L 87.439614 68.102177 
L 87.502547 67.765941 
L 87.56548 71.701285 
L 87.628414 70.955802 
L 87.75428 70.804855 
L 87.817213 68.325352 
L 87.880146 42.220603 
L 87.947996 51.538671 
L 88.076812 59.848118 
L 88.138762 74.193347 
L 88.202678 71.983608 
L 88.330511 72.020631 
L 88.458344 78.997729 
L 88.523244 77.982231 
L 88.717944 74.648728 
L 88.78186 73.050267 
L 88.845776 73.108834 
L 88.909693 73.165595 
L 88.973609 72.350742 
L 89.099476 57.641298 
L 89.221409 64.097308 
L 89.283358 81.337388 
L 89.348258 78.628319 
L 89.542958 76.843757 
L 89.606874 77.114532 
L 89.671774 78.257277 
L 89.73569 77.692741 
L 89.80059 77.242749 
L 89.86549 72.268588 
L 89.929407 78.213839 
L 89.993323 77.711462 
L 90.122139 77.295888 
L 90.187039 74.244669 
L 90.251939 78.032009 
L 90.316839 77.97156 
L 90.380755 77.978282 
L 90.445655 76.070101 
L 90.510555 79.87986 
L 90.575455 79.562057 
L 90.705254 79.564436 
L 90.771137 73.739077 
L 90.899954 79.998451 
L 91.095636 80.366695 
L 91.160536 82.429209 
L 91.226419 82.377042 
L 91.292302 82.376048 
L 91.359169 73.696548 
L 91.423085 84.14369 
L 91.489952 84.002282 
L 91.621718 83.87797 
L 91.687601 77.851248 
L 91.751518 80.199508 
L 91.883284 81.498572 
L 91.949167 83.623645 
L 92.01505 80.9216 
L 92.080933 81.641989 
L 92.211716 82.862526 
L 92.345449 85.379163 
L 92.478199 85.683564 
L 92.544082 84.190195 
L 92.677815 86.803363 
L 92.811548 87.054294 
L 92.878414 83.80489 
L 92.945281 84.756055 
L 93.144897 86.447008 
L 93.211763 90.092921 
L 93.279613 89.892526 
L 93.347463 89.742805 
L 93.482179 86.850431 
L 93.549046 87.188959 
L 93.682779 87.929637 
L 93.749645 79.561344 
L 93.815528 80.365171 
L 93.947294 84.033425 
L 94.082011 95.59469 
L 94.141994 94.882695 
L 94.27081 93.955118 
L 94.339643 91.076973 
L 94.408476 92.354274 
L 94.545159 92.20339 
L 94.613009 92.32068 
L 94.680859 94.034368 
L 94.749692 93.82231 
L 94.809675 93.656537 
L 94.878508 93.724722 
L 94.946358 82.736209 
L 95.013225 84.190629 
L 95.145974 87.394017 
L 95.282657 97.32504 
L 95.34264 96.885008 
L 95.46359 96.152852 
L 95.532423 85.838842 
L 95.599289 87.734069 
L 95.734989 90.037254 
L 95.802839 95.807458 
L 95.871672 91.048908 
L 95.940505 91.743223 
L 96.008355 92.331638 
L 96.137171 100.683924 
L 96.198138 99.698546 
L 96.380054 97.50314 
L 96.50002 97.971636 
L 96.679969 97.283002 
L 96.739953 94.119385 
L 96.808786 94.414913 
L 96.868769 94.672975 
L 97.057568 98.010872 
L 97.118535 97.850908 
L 97.239484 97.715324 
L 97.299468 88.432876 
L 97.367317 90.173486 
L 97.503017 92.598701 
L 97.57185 99.20796 
L 97.631833 93.418309 
L 97.691816 94.050584 
L 98.009432 96.222069 
L 98.069415 96.514727 
L 98.190365 100.919766 
L 98.374248 100.105011 
L 98.435214 100.959501 
L 98.557147 98.553831 
L 98.67908 98.625286 
L 98.740047 100.521939 
L 98.801013 94.86953 
L 98.860996 95.67067 
L 98.980963 96.714257 
L 99.040946 101.300197 
L 99.102895 100.521498 
L 99.347745 100.023877 
L 99.408711 96.621912 
L 99.468694 97.12276 
L 99.589644 97.943091 
L 99.649627 104.305342 
L 99.71256 104.161085 
L 99.83646 103.379643 
L 99.96036 96.116789 
L 100.200292 98.13382 
L 100.260275 103.104457 
L 100.322225 102.79491 
L 100.446125 102.380388 
L 100.508075 101.645006 
L 100.570024 102.228023 
L 100.755874 101.857691 
L 100.817824 102.017001 
L 100.94074 101.473074 
L 101.06464 101.503472 
L 101.126589 102.44951 
L 101.188539 102.422896 
L 101.313422 102.297445 
L 101.376355 97.01966 
L 101.437322 97.507117 
L 101.621205 99.33583 
L 101.748054 104.289406 
L 101.94177 103.708874 
L 102.001753 103.997804 
L 102.194486 103.423218 
L 102.256436 100.967401 
L 102.383286 104.494553 
L 102.511119 104.199111 
L 102.634035 102.76312 
L 102.824801 102.924903 
L 102.889701 103.357365 
L 102.956567 102.566253 
L 103.024417 102.688669 
L 103.154217 102.867956 
L 103.22305 101.292621 
L 103.283033 101.563275 
L 103.403982 102.116757 
L 103.465932 104.536975 
L 103.527882 103.886035 
L 103.713732 103.940005 
L 103.841564 105.305115 
L 103.971364 105.099788 
L 104.036264 105.173418 
L 104.101164 99.594821 
L 104.166064 100.452609 
L 104.29488 101.638422 
L 104.35978 103.8499 
L 104.426646 102.323933 
L 104.492529 102.685616 
L 104.559396 103.014533 
L 104.626262 104.174481 
L 104.694112 103.480635 
L 104.833745 103.908508 
L 104.903561 104.997846 
L 104.974361 103.952324 
L 105.045161 104.26812 
L 105.175944 104.539131 
L 105.235927 106.623847 
L 105.29591 106.483991 
L 105.486676 106.135731 
L 105.606642 107.618451 
L 105.667609 107.443565 
L 105.790525 107.086558 
L 105.851492 103.240878 
L 105.923275 103.528172 
L 106.064874 104.237812 
L 106.124858 108.482941 
L 106.186807 107.433845 
L 106.31464 107.166999 
L 106.378557 107.314763 
L 106.442473 103.681844 
L 106.50344 103.856872 
L 106.624389 104.48589 
L 106.746322 108.938575 
L 106.874155 108.273999 
L 106.938072 108.108058 
L 107.064921 105.324963 
L 107.127855 105.501528 
L 107.253721 105.800256 
L 107.317637 106.997034 
L 107.38057 104.793724 
L 107.443504 105.098002 
L 107.506437 105.354047 
L 107.56937 106.55861 
L 107.633286 105.636551 
L 107.698186 105.742577 
L 107.827002 106.100951 
L 107.891902 107.713407 
L 107.956802 106.328043 
L 108.021702 106.434823 
L 108.151501 106.666571 
L 108.217385 107.160936 
L 108.282284 106.723073 
L 108.346201 106.818254 
L 108.411101 106.913126 
L 108.475017 108.729747 
L 108.5409 108.667391 
L 108.672667 108.368874 
L 108.73855 108.56035 
L 108.805416 107.555428 
L 108.871299 108.137531 
L 109.004049 108.087997 
L 109.135815 106.495228 
L 109.531114 107.383215 
L 109.59798 107.501085 
L 109.734663 109.58282 
L 109.80448 109.460123 
L 109.874296 109.344877 
L 109.944113 109.878317 
L 110.013929 106.95636 
L 110.080796 107.202153 
L 110.148645 107.389279 
L 110.284345 109.997772 
L 110.353178 109.548804 
L 110.493794 109.375422 
L 110.563611 109.783839 
L 110.774044 109.364719 
L 110.84386 107.961613 
L 110.912693 108.016151 
L 111.047409 108.266062 
L 111.115259 107.464443 
L 111.183109 110.650272 
L 111.252925 110.305477 
L 111.463358 109.899193 
L 111.605941 109.571818 
L 111.676741 109.551308 
L 111.747541 108.303872 
L 111.81834 109.931603 
L 111.890123 109.911835 
L 111.961907 109.873049 
L 112.03369 108.860371 
L 112.174306 109.67362 
L 112.245106 109.673078 
L 112.315906 108.012245 
L 112.454555 109.193842 
L 112.525355 109.261872 
L 112.664988 107.45756 
L 112.733821 107.893921 
L 112.942287 109.211069 
L 113.08487 109.783439 
L 113.156653 109.821589 
L 113.301203 109.217839 
L 113.446735 109.460578 
L 113.519502 109.405884 
L 113.592268 109.200334 
L 113.737801 109.490996 
L 113.870551 110.959334 
L 113.944301 110.880788 
L 114.01805 110.839662 
L 114.0918 109.633502 
L 114.16555 111.541149 
L 114.225533 111.454811 
L 114.285516 111.38838 
L 114.420232 109.105798 
L 114.492016 109.378097 
L 114.856831 110.072622 
L 114.929598 110.182832 
L 115.064314 111.629331 
L 115.12528 111.585805 
L 115.186247 111.537624 
L 115.309163 109.815819 
L 115.383896 110.140903 
L 115.517629 110.370232 
L 115.654312 111.758853 
L 115.780178 111.677202 
L 115.906045 110.812258 
L 116.149911 111.133791 
L 116.210877 110.430252 
L 116.272827 110.609042 
L 116.395743 110.79257 
L 116.457693 112.669156 
L 116.520626 112.64261 
L 116.713359 112.42518 
L 116.777275 110.950138 
L 116.840209 111.355854 
L 116.965091 111.428864 
L 117.090958 110.506302 
L 117.33679 111.11622 
L 117.46069 111.203159 
L 117.58459 111.353105 
L 117.712423 112.529781 
L 117.778306 112.474325 
L 117.844189 112.438152 
L 117.974972 111.210771 
L 118.164755 111.520273 
L 118.228671 113.023899 
L 118.293571 112.860631 
L 118.42632 112.777623 
L 118.558087 111.366567 
L 118.68592 111.561711 
L 118.749836 111.64785 
L 118.879636 112.940698 
L 119.014352 112.791456 
L 119.083185 112.432907 
L 119.150052 112.78376 
L 119.216918 112.657197 
L 119.351634 112.646925 
L 119.418501 112.276879 
L 119.552234 112.649719 
L 119.6191 112.65111 
L 119.685967 112.883953 
L 119.752833 111.618555 
L 119.818716 111.81194 
L 119.948516 112.004772 
L 120.014399 112.951191 
L 120.082249 112.840565 
L 120.219915 112.844043 
L 120.288748 112.003174 
L 120.356598 112.178481 
L 120.559164 112.396479 
L 120.694864 112.729033 
L 120.83253 112.787899 
L 120.971179 113.64845 
L 121.115729 113.582533 
L 121.187512 112.627749 
L 121.257328 113.587585 
L 121.329112 113.550579 
L 121.399911 113.524732 
L 121.470711 112.52577 
L 121.611327 113.188556 
L 122.042026 113.146368 
L 122.112826 112.542881 
L 122.182642 112.631405 
L 122.252459 112.720122 
L 122.323259 113.088602 
L 122.395042 112.716187 
L 122.465842 112.896792 
L 122.537625 112.961429 
L 122.830657 113.892865 
L 122.90539 113.724939 
L 123.05289 113.023725 
L 123.484572 113.352259 
L 123.557338 113.643857 
L 123.632071 113.431381 
L 123.705821 113.465649 
L 123.779571 113.506707 
L 123.854304 114.155847 
L 123.929037 113.980274 
L 124.079487 113.969976 
L 124.309586 114.31083 
L 124.465935 113.460751 
L 124.616385 113.57271 
L 124.692101 113.844071 
L 124.768801 113.600788 
L 124.844518 113.702046 
L 124.920234 113.747667 
L 124.996934 113.933071 
L 125.073634 113.801182 
L 125.151317 113.871346 
L 125.3057 114.046393 
L 125.444349 114.40389 
L 125.504332 114.396403 
L 125.625282 113.877764 
L 125.782615 113.990464 
L 125.861281 114.027418 
L 125.939948 114.744587 
L 125.999931 114.685998 
L 126.12088 114.663035 
L 126.181847 114.284664 
L 126.242813 114.52634 
L 126.487663 114.433918 
L 126.549612 114.658904 
L 126.610579 114.638988 
L 126.733495 114.629557 
L 126.855428 113.995055 
L 126.975395 114.079521 
L 127.097328 114.262008 
L 127.218277 114.204979 
L 127.898742 114.486819 
L 127.961675 114.781995 
L 128.025591 114.485672 
L 128.089508 114.542532 
L 128.217341 114.580919 
L 128.281257 114.762198 
L 128.345174 114.726843 
L 128.539873 114.797576 
L 128.670656 114.897814 
L 128.801439 114.902336 
L 128.932222 114.672107 
L 129.128888 114.735834 
L 129.261638 114.90498 
L 129.464204 115.04549 
L 129.60187 115.135329 
L 129.671686 115.132895 
L 129.741503 114.752961 
L 129.809353 114.812939 
L 130.010935 114.872819 
L 130.079768 115.258296 
L 130.149585 115.234749 
L 130.292168 115.138677 
L 130.362968 114.86202 
L 130.430817 114.909512 
L 130.843816 115.102712 
L 130.986399 115.262494 
L 131.200765 115.301872 
L 131.273532 115.011496 
L 131.344331 115.057221 
L 131.487898 115.137951 
L 131.63343 115.233652 
L 131.779947 115.222954 
L 131.926463 115.17099 
L 133.522408 115.478392 
L 133.680724 115.432635 
L 133.838057 115.489059 
L 133.999323 115.613647 
L 134.501805 115.519558 
L 134.668971 115.512095 
L 134.921687 115.649357 
L 135.00822 115.652948 
L 135.17932 115.558586 
L 137.723195 115.769771 
L 138.165694 115.769524 
L 142.236682 115.831622 
L 154.184146 115.877432 
L 194.982522 115.917118 
L 204.097995 115.919131 
L 207.814983 115.924012 
L 337.644091 115.931967 
L 337.644091 115.931967 
" clip-path="url(#p6bac2461fc)" style="fill: none; stroke: #1f77b4; stroke-width: 1.5; stroke-linecap: square"/>
   </g>
   <g id="patch_3">
    <path d="M 47.72 120.174963 
L 47.72 26.88 
" style="fill: none; stroke: #000000; stroke-width: 0.8; stroke-linejoin: miter; stroke-linecap: square"/>
   </g>
   <g id="patch_4">
    <path d="M 351.45 120.174963 
L 351.45 26.88 
" style="fill: none; stroke: #000000; stroke-width: 0.8; stroke-linejoin: miter; stroke-linecap: square"/>
   </g>
   <g id="patch_5">
    <path d="M 47.72 120.174963 
L 351.45 120.174963 
" style="fill: none; stroke: #000000; stroke-width: 0.8; stroke-linejoin: miter; stroke-linecap: square"/>
   </g>
   <g id="patch_6">
    <path d="M 47.72 26.88 
L 351.45 26.88 
" style="fill: none; stroke: #000000; stroke-width: 0.8; stroke-linejoin: miter; stroke-linecap: square"/>
   </g>
   <g id="text_6">
    <!-- 1 -->
    <g transform="translate(194.0878 50.307193) scale(0.1728 -0.1728)">
     <defs>
      <path id="DejaVuSans-31" d="M 794 531 
L 1825 531 
L 1825 4091 
L 703 3866 
L 703 4441 
L 1819 4666 
L 2450 4666 
L 2450 531 
L 3481 531 
L 3481 0 
L 794 0 
L 794 531 
z
" transform="scale(0.015625)"/>
     </defs>
     <use xlink:href="#DejaVuSans-31"/>
    </g>
   </g>
   <g id="text_7">
    <!-- flows -->
    <g transform="translate(184.102188 20.88) scale(0.12 -0.12)">
     <use xlink:href="#DejaVuSans-66"/>
     <use xlink:href="#DejaVuSans-6c" x="35.205078"/>
     <use xlink:href="#DejaVuSans-6f" x="62.988281"/>
     <use xlink:href="#DejaVuSans-77" x="124.169922"/>
     <use xlink:href="#DejaVuSans-73" x="205.957031"/>
    </g>
   </g>
  </g>
  <g id="axes_2">
   <g id="patch_7">
    <path d="M 405.47 120.174963 
L 709.2 120.174963 
L 709.2 26.88 
L 405.47 26.88 
z
" style="fill: #ffffff"/>
   </g>
   <g id="matplotlib.axis_3">
    <g id="xtick_8">
     <g id="line2d_12">
      <g>
       <use xlink:href="#m26d45ae9f8" x="419.275909" y="120.174963" style="stroke: #000000; stroke-width: 0.8"/>
      </g>
     </g>
    </g>
    <g id="xtick_9">
     <g id="line2d_13">
      <g>
       <use xlink:href="#m26d45ae9f8" x="461.755781" y="120.174963" style="stroke: #000000; stroke-width: 0.8"/>
      </g>
     </g>
    </g>
    <g id="xtick_10">
     <g id="line2d_14">
      <g>
       <use xlink:href="#m26d45ae9f8" x="504.235652" y="120.174963" style="stroke: #000000; stroke-width: 0.8"/>
      </g>
     </g>
    </g>
    <g id="xtick_11">
     <g id="line2d_15">
      <g>
       <use xlink:href="#m26d45ae9f8" x="546.715524" y="120.174963" style="stroke: #000000; stroke-width: 0.8"/>
      </g>
     </g>
    </g>
    <g id="xtick_12">
     <g id="line2d_16">
      <g>
       <use xlink:href="#m26d45ae9f8" x="589.195395" y="120.174963" style="stroke: #000000; stroke-width: 0.8"/>
      </g>
     </g>
    </g>
    <g id="xtick_13">
     <g id="line2d_17">
      <g>
       <use xlink:href="#m26d45ae9f8" x="631.675267" y="120.174963" style="stroke: #000000; stroke-width: 0.8"/>
      </g>
     </g>
    </g>
    <g id="xtick_14">
     <g id="line2d_18">
      <g>
       <use xlink:href="#m26d45ae9f8" x="674.155138" y="120.174963" style="stroke: #000000; stroke-width: 0.8"/>
      </g>
     </g>
    </g>
    <g id="text_8">
     <!-- time -->
     <g transform="translate(546.038906 138.773401) scale(0.1 -0.1)">
      <use xlink:href="#DejaVuSans-74"/>
      <use xlink:href="#DejaVuSans-69" x="39.208984"/>
      <use xlink:href="#DejaVuSans-6d" x="66.992188"/>
      <use xlink:href="#DejaVuSans-65" x="164.404297"/>
     </g>
    </g>
   </g>
   <g id="matplotlib.axis_4">
    <g id="ytick_4">
     <g id="line2d_19">
      <g>
       <use xlink:href="#mb8d853ddf3" x="405.47" y="115.934283" style="stroke: #000000; stroke-width: 0.8"/>
      </g>
     </g>
     <g id="text_9">
      <!-- 0.00 -->
      <g transform="translate(376.204375 119.733502) scale(0.1 -0.1)">
       <use xlink:href="#DejaVuSans-30"/>
       <use xlink:href="#DejaVuSans-2e" x="63.623047"/>
       <use xlink:href="#DejaVuSans-30" x="95.410156"/>
       <use xlink:href="#DejaVuSans-30" x="159.033203"/>
      </g>
     </g>
    </g>
    <g id="ytick_5">
     <g id="line2d_20">
      <g>
       <use xlink:href="#mb8d853ddf3" x="405.47" y="92.337906" style="stroke: #000000; stroke-width: 0.8"/>
      </g>
     </g>
     <g id="text_10">
      <!-- 0.05 -->
      <g transform="translate(376.204375 96.137125) scale(0.1 -0.1)">
       <defs>
        <path id="DejaVuSans-35" d="M 691 4666 
L 3169 4666 
L 3169 4134 
L 1269 4134 
L 1269 2991 
Q 1406 3038 1543 3061 
Q 1681 3084 1819 3084 
Q 2600 3084 3056 2656 
Q 3513 2228 3513 1497 
Q 3513 744 3044 326 
Q 2575 -91 1722 -91 
Q 1428 -91 1123 -41 
Q 819 9 494 109 
L 494 744 
Q 775 591 1075 516 
Q 1375 441 1709 441 
Q 2250 441 2565 725 
Q 2881 1009 2881 1497 
Q 2881 1984 2565 2268 
Q 2250 2553 1709 2553 
Q 1456 2553 1204 2497 
Q 953 2441 691 2322 
L 691 4666 
z
" transform="scale(0.015625)"/>
       </defs>
       <use xlink:href="#DejaVuSans-30"/>
       <use xlink:href="#DejaVuSans-2e" x="63.623047"/>
       <use xlink:href="#DejaVuSans-30" x="95.410156"/>
       <use xlink:href="#DejaVuSans-35" x="159.033203"/>
      </g>
     </g>
    </g>
    <g id="ytick_6">
     <g id="line2d_21">
      <g>
       <use xlink:href="#mb8d853ddf3" x="405.47" y="68.741529" style="stroke: #000000; stroke-width: 0.8"/>
      </g>
     </g>
     <g id="text_11">
      <!-- 0.10 -->
      <g transform="translate(376.204375 72.540748) scale(0.1 -0.1)">
       <use xlink:href="#DejaVuSans-30"/>
       <use xlink:href="#DejaVuSans-2e" x="63.623047"/>
       <use xlink:href="#DejaVuSans-31" x="95.410156"/>
       <use xlink:href="#DejaVuSans-30" x="159.033203"/>
      </g>
     </g>
    </g>
    <g id="ytick_7">
     <g id="line2d_22">
      <g>
       <use xlink:href="#mb8d853ddf3" x="405.47" y="45.145152" style="stroke: #000000; stroke-width: 0.8"/>
      </g>
     </g>
     <g id="text_12">
      <!-- 0.15 -->
      <g transform="translate(376.204375 48.944371) scale(0.1 -0.1)">
       <use xlink:href="#DejaVuSans-30"/>
       <use xlink:href="#DejaVuSans-2e" x="63.623047"/>
       <use xlink:href="#DejaVuSans-31" x="95.410156"/>
       <use xlink:href="#DejaVuSans-35" x="159.033203"/>
      </g>
     </g>
    </g>
    <g id="text_13">
     <!-- depth (m) -->
     <g transform="translate(370.124687 98.442325) rotate(-90) scale(0.1 -0.1)">
      <defs>
       <path id="DejaVuSans-64" d="M 2906 2969 
L 2906 4863 
L 3481 4863 
L 3481 0 
L 2906 0 
L 2906 525 
Q 2725 213 2448 61 
Q 2172 -91 1784 -91 
Q 1150 -91 751 415 
Q 353 922 353 1747 
Q 353 2572 751 3078 
Q 1150 3584 1784 3584 
Q 2172 3584 2448 3432 
Q 2725 3281 2906 2969 
z
M 947 1747 
Q 947 1113 1208 752 
Q 1469 391 1925 391 
Q 2381 391 2643 752 
Q 2906 1113 2906 1747 
Q 2906 2381 2643 2742 
Q 2381 3103 1925 3103 
Q 1469 3103 1208 2742 
Q 947 2381 947 1747 
z
" transform="scale(0.015625)"/>
       <path id="DejaVuSans-70" d="M 1159 525 
L 1159 -1331 
L 581 -1331 
L 581 3500 
L 1159 3500 
L 1159 2969 
Q 1341 3281 1617 3432 
Q 1894 3584 2278 3584 
Q 2916 3584 3314 3078 
Q 3713 2572 3713 1747 
Q 3713 922 3314 415 
Q 2916 -91 2278 -91 
Q 1894 -91 1617 61 
Q 1341 213 1159 525 
z
M 3116 1747 
Q 3116 2381 2855 2742 
Q 2594 3103 2138 3103 
Q 1681 3103 1420 2742 
Q 1159 2381 1159 1747 
Q 1159 1113 1420 752 
Q 1681 391 2138 391 
Q 2594 391 2855 752 
Q 3116 1113 3116 1747 
z
" transform="scale(0.015625)"/>
       <path id="DejaVuSans-68" d="M 3513 2113 
L 3513 0 
L 2938 0 
L 2938 2094 
Q 2938 2591 2744 2837 
Q 2550 3084 2163 3084 
Q 1697 3084 1428 2787 
Q 1159 2491 1159 1978 
L 1159 0 
L 581 0 
L 581 4863 
L 1159 4863 
L 1159 2956 
Q 1366 3272 1645 3428 
Q 1925 3584 2291 3584 
Q 2894 3584 3203 3211 
Q 3513 2838 3513 2113 
z
" transform="scale(0.015625)"/>
      </defs>
      <use xlink:href="#DejaVuSans-64"/>
      <use xlink:href="#DejaVuSans-65" x="63.476562"/>
      <use xlink:href="#DejaVuSans-70" x="125"/>
      <use xlink:href="#DejaVuSans-74" x="188.476562"/>
      <use xlink:href="#DejaVuSans-68" x="227.685547"/>
      <use xlink:href="#DejaVuSans-20" x="291.064453"/>
      <use xlink:href="#DejaVuSans-28" x="322.851562"/>
      <use xlink:href="#DejaVuSans-6d" x="361.865234"/>
      <use xlink:href="#DejaVuSans-29" x="459.277344"/>
     </g>
    </g>
   </g>
   <g id="line2d_23">
    <path d="M 419.275909 115.934283 
L 423.31838 115.84245 
L 423.672379 115.484183 
L 424.026378 114.744524 
L 424.468877 113.319795 
L 425.165075 110.235895 
L 426.314588 104.563526 
L 426.733487 102.449847 
L 427.009802 100.799352 
L 427.607667 94.261203 
L 427.75025 94.110265 
L 427.820067 93.955893 
L 428.177016 89.573189 
L 428.310748 89.786453 
L 428.438581 89.822433 
L 428.755214 88.855637 
L 429.080696 83.526507 
L 429.281296 84.747196 
L 429.351112 84.644955 
L 429.633328 82.984896 
L 430.193826 75.44533 
L 430.327559 74.771919 
L 430.845774 70.659234 
L 431.284339 65.37918 
L 431.528205 63.603259 
L 431.855654 61.834143 
L 431.976604 60.992214 
L 432.045437 61.468311 
L 432.24407 64.642102 
L 432.772118 57.773836 
L 432.974684 56.220957 
L 433.17725 55.47628 
L 433.440783 58.57331 
L 433.506666 57.936711 
L 434.371997 49.207715 
L 434.56768 49.169251 
L 434.632579 49.06653 
L 434.959045 46.477091 
L 435.022961 46.693211 
L 435.279611 47.294505 
L 435.53331 49.969286 
L 435.858792 45.64511 
L 436.116425 44.627767 
L 436.434041 46.012768 
L 436.691673 43.279758 
L 436.944389 44.202637 
L 437.007322 44.169066 
L 437.389838 40.956552 
L 437.64157 40.212367 
L 437.83037 40.540106 
L 438.081119 39.540083 
L 439.018233 35.16923 
L 439.080183 35.218426 
L 439.335848 48.425787 
L 439.396815 47.166511 
L 439.713447 39.438667 
L 440.825594 31.12068 
L 441.192376 33.853457 
L 441.439192 34.457451 
L 441.701741 48.593561 
L 441.762708 47.166277 
L 442.140307 40.390698 
L 442.453006 37.915262 
L 442.826671 36.457482 
L 443.075454 36.065835 
L 443.137404 36.003822 
L 443.199353 36.090295 
L 443.261303 36.228692 
L 443.323253 36.160106 
L 443.510086 36.108836 
L 443.818852 37.07336 
L 444.068617 35.740491 
L 444.502266 38.400274 
L 444.626166 38.666179 
L 444.876915 39.527598 
L 445.064731 40.332377 
L 445.31548 41.560619 
L 445.378414 41.400799 
L 445.50428 41.253615 
L 445.567213 41.418726 
L 445.826812 54.916751 
L 445.888762 53.820956 
L 446.143445 53.678199 
L 446.467944 49.233355 
L 446.723609 49.517184 
L 446.787526 50.218301 
L 447.033358 58.455052 
L 447.292958 55.498995 
L 447.421774 54.451344 
L 447.61549 53.221845 
L 447.679407 53.540791 
L 447.872139 52.740719 
L 447.937039 52.777448 
L 448.130755 52.635371 
L 448.260555 52.856638 
L 448.390354 52.748725 
L 448.455254 52.793521 
L 448.649954 54.171806 
L 448.780737 54.553087 
L 448.845636 55.47166 
L 448.910536 55.358444 
L 449.042302 55.320259 
L 449.173085 56.659208 
L 449.371718 56.364759 
L 449.699167 60.106214 
L 450.161332 62.977664 
L 450.228199 63.161282 
L 450.360948 63.797167 
L 450.561548 64.073411 
L 450.695281 64.981715 
L 450.894897 66.672514 
L 450.961763 66.366274 
L 451.165313 65.91065 
L 451.565528 70.97584 
L 451.764161 74.464589 
L 452.158476 71.825999 
L 452.295159 71.657342 
L 452.363009 71.799275 
L 452.628508 70.853355 
L 452.963824 77.042364 
L 453.21359 74.8082 
L 453.621672 80.341949 
L 453.827188 81.731856 
L 454.310003 77.417369 
L 454.429969 76.955126 
L 454.687602 78.234581 
L 454.989484 77.229979 
L 455.51065 83.930172 
L 455.819415 85.71598 
L 455.879398 85.787151 
L 456.185214 83.729763 
L 456.42908 83.958282 
L 456.490047 83.815746 
L 456.790946 85.977846 
L 456.852895 85.794332 
L 457.097745 85.276314 
L 457.339644 87.244064 
L 457.649393 84.501137 
L 457.950292 87.47104 
L 458.010275 87.238261 
L 458.258075 86.089547 
L 458.320024 86.135943 
L 458.505874 85.744723 
L 458.567824 85.937085 
L 458.62879 85.908397 
L 458.876589 85.867308 
L 459.063422 85.569906 
L 459.126355 85.779813 
L 459.432171 88.414453 
L 459.498054 88.30514 
L 459.81567 87.185304 
L 459.944486 86.896586 
L 460.006436 86.94226 
L 460.066419 86.991181 
L 460.322085 86.111381 
L 460.706567 86.842414 
L 460.904217 87.333807 
L 461.153982 89.081818 
L 461.339832 89.248719 
L 461.527648 89.271402 
L 461.786264 88.596834 
L 462.309396 92.940904 
L 462.724361 94.211223 
L 462.925944 94.744784 
L 463.540525 92.79213 
L 463.601492 93.060353 
L 463.814874 94.420732 
L 463.874858 94.369836 
L 464.128557 93.481262 
L 464.192473 93.520792 
L 464.435356 94.964649 
L 464.496322 94.913092 
L 464.751988 93.828498 
L 465.771702 97.176306 
L 466.096201 97.676925 
L 466.225017 97.789897 
L 466.754049 96.958814 
L 466.819932 96.975954 
L 467.214247 98.277413 
L 467.41583 98.609012 
L 467.694113 97.691659 
L 467.965512 98.645263 
L 468.034345 98.571237 
L 468.524044 97.582524 
L 468.59386 97.600625 
L 468.933109 98.388573 
L 469.143542 97.748625 
L 469.213358 97.778538 
L 469.426741 97.633532 
L 469.497541 97.820666 
L 469.56834 97.713611 
L 469.711907 97.547795 
L 469.854489 97.616004 
L 469.995106 97.609515 
L 470.483821 99.225575 
L 470.692287 99.90977 
L 471.051203 100.327978 
L 471.560568 101.44986 
L 471.76805 101.200119 
L 471.8418 101.266551 
L 472.096483 100.745407 
L 472.606831 102.355373 
L 472.753347 102.528226 
L 472.997213 102.179093 
L 473.133896 102.477374 
L 473.267629 102.820216 
L 473.342362 102.768794 
L 473.594095 102.502073 
L 474.145743 103.491826 
L 474.207693 103.382711 
L 474.463359 102.666938 
L 474.778025 103.028306 
L 475.397523 104.412644 
L 475.462423 104.316527 
L 475.660072 104.167981 
L 475.978671 104.661472 
L 476.242204 104.262566 
L 476.563753 104.992721 
L 476.966918 104.798879 
L 477.101634 104.76924 
L 477.235367 104.873525 
L 477.435967 104.867073 
L 477.832249 105.588914 
L 478.038748 105.702141 
L 478.444864 106.381715 
L 478.651363 106.509419 
L 478.937512 106.224625 
L 479.149911 106.005374 
L 479.504894 106.166071 
L 479.862826 106.521864 
L 480.287625 107.309751 
L 480.431191 107.373027 
L 480.65539 107.210003 
L 480.80289 107.416011 
L 481.234572 108.078761 
L 481.754754 108.325916 
L 481.98092 108.263627 
L 482.138252 108.155827 
L 482.670234 108.904359 
L 483.134366 109.225482 
L 483.315299 109.183248 
L 483.689948 109.499759 
L 483.992813 109.349967 
L 484.544462 109.346159 
L 485.02826 110.011055 
L 486.031257 110.851874 
L 489.676463 112.457479 
L 490.198611 112.711379 
L 490.733543 112.980436 
L 491.588057 113.382177 
L 492.251805 113.50406 
L 493.012903 113.814728 
L 494.765198 114.42689 
L 498.305187 114.888736 
L 512.553644 115.31631 
L 605.920861 115.779992 
L 629.196291 115.809903 
L 684.154625 115.854182 
L 695.394091 115.86057 
L 695.394091 115.86057 
" clip-path="url(#pb1f64f09d0)" style="fill: none; stroke: #1f77b4; stroke-width: 1.5; stroke-linecap: square"/>
   </g>
   <g id="patch_8">
    <path d="M 405.47 120.174963 
L 405.47 26.88 
" style="fill: none; stroke: #000000; stroke-width: 0.8; stroke-linejoin: miter; stroke-linecap: square"/>
   </g>
   <g id="patch_9">
    <path d="M 709.2 120.174963 
L 709.2 26.88 
" style="fill: none; stroke: #000000; stroke-width: 0.8; stroke-linejoin: miter; stroke-linecap: square"/>
   </g>
   <g id="patch_10">
    <path d="M 405.47 120.174963 
L 709.2 120.174963 
" style="fill: none; stroke: #000000; stroke-width: 0.8; stroke-linejoin: miter; stroke-linecap: square"/>
   </g>
   <g id="patch_11">
    <path d="M 405.47 26.88 
L 709.2 26.88 
" style="fill: none; stroke: #000000; stroke-width: 0.8; stroke-linejoin: miter; stroke-linecap: square"/>
   </g>
   <g id="text_14">
    <!-- ('P1', 'depthN') -->
    <g transform="translate(493.2829 50.307193) scale(0.1728 -0.1728)">
     <defs>
      <path id="DejaVuSans-27" d="M 1147 4666 
L 1147 2931 
L 616 2931 
L 616 4666 
L 1147 4666 
z
" transform="scale(0.015625)"/>
      <path id="DejaVuSans-50" d="M 1259 4147 
L 1259 2394 
L 2053 2394 
Q 2494 2394 2734 2622 
Q 2975 2850 2975 3272 
Q 2975 3691 2734 3919 
Q 2494 4147 2053 4147 
L 1259 4147 
z
M 628 4666 
L 2053 4666 
Q 2838 4666 3239 4311 
Q 3641 3956 3641 3272 
Q 3641 2581 3239 2228 
Q 2838 1875 2053 1875 
L 1259 1875 
L 1259 0 
L 628 0 
L 628 4666 
z
" transform="scale(0.015625)"/>
      <path id="DejaVuSans-2c" d="M 750 794 
L 1409 794 
L 1409 256 
L 897 -744 
L 494 -744 
L 750 256 
L 750 794 
z
" transform="scale(0.015625)"/>
      <path id="DejaVuSans-4e" d="M 628 4666 
L 1478 4666 
L 3547 763 
L 3547 4666 
L 4159 4666 
L 4159 0 
L 3309 0 
L 1241 3903 
L 1241 0 
L 628 0 
L 628 4666 
z
" transform="scale(0.015625)"/>
     </defs>
     <use xlink:href="#DejaVuSans-28"/>
     <use xlink:href="#DejaVuSans-27" x="39.013672"/>
     <use xlink:href="#DejaVuSans-50" x="66.503906"/>
     <use xlink:href="#DejaVuSans-31" x="126.806641"/>
     <use xlink:href="#DejaVuSans-27" x="190.429688"/>
     <use xlink:href="#DejaVuSans-2c" x="217.919922"/>
     <use xlink:href="#DejaVuSans-20" x="249.707031"/>
     <use xlink:href="#DejaVuSans-27" x="281.494141"/>
     <use xlink:href="#DejaVuSans-64" x="308.984375"/>
     <use xlink:href="#DejaVuSans-65" x="372.460938"/>
     <use xlink:href="#DejaVuSans-70" x="433.984375"/>
     <use xlink:href="#DejaVuSans-74" x="497.460938"/>
     <use xlink:href="#DejaVuSans-68" x="536.669922"/>
     <use xlink:href="#DejaVuSans-4e" x="600.048828"/>
     <use xlink:href="#DejaVuSans-27" x="674.853516"/>
     <use xlink:href="#DejaVuSans-29" x="702.34375"/>
    </g>
   </g>
   <g id="text_15">
    <!-- depths -->
    <g transform="translate(536.744688 20.88) scale(0.12 -0.12)">
     <use xlink:href="#DejaVuSans-64"/>
     <use xlink:href="#DejaVuSans-65" x="63.476562"/>
     <use xlink:href="#DejaVuSans-70" x="125"/>
     <use xlink:href="#DejaVuSans-74" x="188.476562"/>
     <use xlink:href="#DejaVuSans-68" x="227.685547"/>
     <use xlink:href="#DejaVuSans-73" x="291.064453"/>
    </g>
   </g>
  </g>
  <g id="axes_3">
   <g id="patch_12">
    <path d="M 47.72 246.04 
L 351.45 246.04 
L 351.45 152.745037 
L 47.72 152.745037 
z
" style="fill: #ffffff"/>
   </g>
   <g id="matplotlib.axis_5">
    <g id="xtick_15">
     <g id="line2d_24">
      <g>
       <use xlink:href="#m26d45ae9f8" x="61.525909" y="246.04" style="stroke: #000000; stroke-width: 0.8"/>
      </g>
     </g>
     <g id="text_16">
      <!-- 02-25 00 -->
      <g transform="translate(39.04544 260.638438) scale(0.1 -0.1)">
       <defs>
        <path id="DejaVuSans-2d" d="M 313 2009 
L 1997 2009 
L 1997 1497 
L 313 1497 
L 313 2009 
z
" transform="scale(0.015625)"/>
       </defs>
       <use xlink:href="#DejaVuSans-30"/>
       <use xlink:href="#DejaVuSans-32" x="63.623047"/>
       <use xlink:href="#DejaVuSans-2d" x="127.246094"/>
       <use xlink:href="#DejaVuSans-32" x="163.330078"/>
       <use xlink:href="#DejaVuSans-35" x="226.953125"/>
       <use xlink:href="#DejaVuSans-20" x="290.576172"/>
       <use xlink:href="#DejaVuSans-30" x="322.363281"/>
       <use xlink:href="#DejaVuSans-30" x="385.986328"/>
      </g>
     </g>
    </g>
    <g id="xtick_16">
     <g id="line2d_25">
      <g>
       <use xlink:href="#m26d45ae9f8" x="104.005781" y="246.04" style="stroke: #000000; stroke-width: 0.8"/>
      </g>
     </g>
     <g id="text_17">
      <!-- 02-25 12 -->
      <g transform="translate(81.525312 260.638438) scale(0.1 -0.1)">
       <use xlink:href="#DejaVuSans-30"/>
       <use xlink:href="#DejaVuSans-32" x="63.623047"/>
       <use xlink:href="#DejaVuSans-2d" x="127.246094"/>
       <use xlink:href="#DejaVuSans-32" x="163.330078"/>
       <use xlink:href="#DejaVuSans-35" x="226.953125"/>
       <use xlink:href="#DejaVuSans-20" x="290.576172"/>
       <use xlink:href="#DejaVuSans-31" x="322.363281"/>
       <use xlink:href="#DejaVuSans-32" x="385.986328"/>
      </g>
     </g>
    </g>
    <g id="xtick_17">
     <g id="line2d_26">
      <g>
       <use xlink:href="#m26d45ae9f8" x="146.485652" y="246.04" style="stroke: #000000; stroke-width: 0.8"/>
      </g>
     </g>
     <g id="text_18">
      <!-- 02-26 00 -->
      <g transform="translate(124.005183 260.638438) scale(0.1 -0.1)">
       <defs>
        <path id="DejaVuSans-36" d="M 2113 2584 
Q 1688 2584 1439 2293 
Q 1191 2003 1191 1497 
Q 1191 994 1439 701 
Q 1688 409 2113 409 
Q 2538 409 2786 701 
Q 3034 994 3034 1497 
Q 3034 2003 2786 2293 
Q 2538 2584 2113 2584 
z
M 3366 4563 
L 3366 3988 
Q 3128 4100 2886 4159 
Q 2644 4219 2406 4219 
Q 1781 4219 1451 3797 
Q 1122 3375 1075 2522 
Q 1259 2794 1537 2939 
Q 1816 3084 2150 3084 
Q 2853 3084 3261 2657 
Q 3669 2231 3669 1497 
Q 3669 778 3244 343 
Q 2819 -91 2113 -91 
Q 1303 -91 875 529 
Q 447 1150 447 2328 
Q 447 3434 972 4092 
Q 1497 4750 2381 4750 
Q 2619 4750 2861 4703 
Q 3103 4656 3366 4563 
z
" transform="scale(0.015625)"/>
       </defs>
       <use xlink:href="#DejaVuSans-30"/>
       <use xlink:href="#DejaVuSans-32" x="63.623047"/>
       <use xlink:href="#DejaVuSans-2d" x="127.246094"/>
       <use xlink:href="#DejaVuSans-32" x="163.330078"/>
       <use xlink:href="#DejaVuSans-36" x="226.953125"/>
       <use xlink:href="#DejaVuSans-20" x="290.576172"/>
       <use xlink:href="#DejaVuSans-30" x="322.363281"/>
       <use xlink:href="#DejaVuSans-30" x="385.986328"/>
      </g>
     </g>
    </g>
    <g id="xtick_18">
     <g id="line2d_27">
      <g>
       <use xlink:href="#m26d45ae9f8" x="188.965524" y="246.04" style="stroke: #000000; stroke-width: 0.8"/>
      </g>
     </g>
     <g id="text_19">
      <!-- 02-26 12 -->
      <g transform="translate(166.485055 260.638438) scale(0.1 -0.1)">
       <use xlink:href="#DejaVuSans-30"/>
       <use xlink:href="#DejaVuSans-32" x="63.623047"/>
       <use xlink:href="#DejaVuSans-2d" x="127.246094"/>
       <use xlink:href="#DejaVuSans-32" x="163.330078"/>
       <use xlink:href="#DejaVuSans-36" x="226.953125"/>
       <use xlink:href="#DejaVuSans-20" x="290.576172"/>
       <use xlink:href="#DejaVuSans-31" x="322.363281"/>
       <use xlink:href="#DejaVuSans-32" x="385.986328"/>
      </g>
     </g>
    </g>
    <g id="xtick_19">
     <g id="line2d_28">
      <g>
       <use xlink:href="#m26d45ae9f8" x="231.445395" y="246.04" style="stroke: #000000; stroke-width: 0.8"/>
      </g>
     </g>
     <g id="text_20">
      <!-- 02-27 00 -->
      <g transform="translate(208.964927 260.638438) scale(0.1 -0.1)">
       <defs>
        <path id="DejaVuSans-37" d="M 525 4666 
L 3525 4666 
L 3525 4397 
L 1831 0 
L 1172 0 
L 2766 4134 
L 525 4134 
L 525 4666 
z
" transform="scale(0.015625)"/>
       </defs>
       <use xlink:href="#DejaVuSans-30"/>
       <use xlink:href="#DejaVuSans-32" x="63.623047"/>
       <use xlink:href="#DejaVuSans-2d" x="127.246094"/>
       <use xlink:href="#DejaVuSans-32" x="163.330078"/>
       <use xlink:href="#DejaVuSans-37" x="226.953125"/>
       <use xlink:href="#DejaVuSans-20" x="290.576172"/>
       <use xlink:href="#DejaVuSans-30" x="322.363281"/>
       <use xlink:href="#DejaVuSans-30" x="385.986328"/>
      </g>
     </g>
    </g>
    <g id="xtick_20">
     <g id="line2d_29">
      <g>
       <use xlink:href="#m26d45ae9f8" x="273.925267" y="246.04" style="stroke: #000000; stroke-width: 0.8"/>
      </g>
     </g>
     <g id="text_21">
      <!-- 02-27 12 -->
      <g transform="translate(251.444798 260.638438) scale(0.1 -0.1)">
       <use xlink:href="#DejaVuSans-30"/>
       <use xlink:href="#DejaVuSans-32" x="63.623047"/>
       <use xlink:href="#DejaVuSans-2d" x="127.246094"/>
       <use xlink:href="#DejaVuSans-32" x="163.330078"/>
       <use xlink:href="#DejaVuSans-37" x="226.953125"/>
       <use xlink:href="#DejaVuSans-20" x="290.576172"/>
       <use xlink:href="#DejaVuSans-31" x="322.363281"/>
       <use xlink:href="#DejaVuSans-32" x="385.986328"/>
      </g>
     </g>
    </g>
    <g id="xtick_21">
     <g id="line2d_30">
      <g>
       <use xlink:href="#m26d45ae9f8" x="316.405138" y="246.04" style="stroke: #000000; stroke-width: 0.8"/>
      </g>
     </g>
     <g id="text_22">
      <!-- 02-28 00 -->
      <g transform="translate(293.92467 260.638438) scale(0.1 -0.1)">
       <defs>
        <path id="DejaVuSans-38" d="M 2034 2216 
Q 1584 2216 1326 1975 
Q 1069 1734 1069 1313 
Q 1069 891 1326 650 
Q 1584 409 2034 409 
Q 2484 409 2743 651 
Q 3003 894 3003 1313 
Q 3003 1734 2745 1975 
Q 2488 2216 2034 2216 
z
M 1403 2484 
Q 997 2584 770 2862 
Q 544 3141 544 3541 
Q 544 4100 942 4425 
Q 1341 4750 2034 4750 
Q 2731 4750 3128 4425 
Q 3525 4100 3525 3541 
Q 3525 3141 3298 2862 
Q 3072 2584 2669 2484 
Q 3125 2378 3379 2068 
Q 3634 1759 3634 1313 
Q 3634 634 3220 271 
Q 2806 -91 2034 -91 
Q 1263 -91 848 271 
Q 434 634 434 1313 
Q 434 1759 690 2068 
Q 947 2378 1403 2484 
z
M 1172 3481 
Q 1172 3119 1398 2916 
Q 1625 2713 2034 2713 
Q 2441 2713 2670 2916 
Q 2900 3119 2900 3481 
Q 2900 3844 2670 4047 
Q 2441 4250 2034 4250 
Q 1625 4250 1398 4047 
Q 1172 3844 1172 3481 
z
" transform="scale(0.015625)"/>
       </defs>
       <use xlink:href="#DejaVuSans-30"/>
       <use xlink:href="#DejaVuSans-32" x="63.623047"/>
       <use xlink:href="#DejaVuSans-2d" x="127.246094"/>
       <use xlink:href="#DejaVuSans-32" x="163.330078"/>
       <use xlink:href="#DejaVuSans-38" x="226.953125"/>
       <use xlink:href="#DejaVuSans-20" x="290.576172"/>
       <use xlink:href="#DejaVuSans-30" x="322.363281"/>
       <use xlink:href="#DejaVuSans-30" x="385.986328"/>
      </g>
     </g>
    </g>
    <g id="text_23">
     <!-- time -->
     <g transform="translate(188.288906 274.316562) scale(0.1 -0.1)">
      <use xlink:href="#DejaVuSans-74"/>
      <use xlink:href="#DejaVuSans-69" x="39.208984"/>
      <use xlink:href="#DejaVuSans-6d" x="66.992188"/>
      <use xlink:href="#DejaVuSans-65" x="164.404297"/>
     </g>
    </g>
   </g>
   <g id="matplotlib.axis_6">
    <g id="ytick_8">
     <g id="line2d_31">
      <g>
       <use xlink:href="#mb8d853ddf3" x="47.72" y="241.79932" style="stroke: #000000; stroke-width: 0.8"/>
      </g>
     </g>
     <g id="text_24">
      <!-- 0.0 -->
      <g transform="translate(24.816875 245.598539) scale(0.1 -0.1)">
       <use xlink:href="#DejaVuSans-30"/>
       <use xlink:href="#DejaVuSans-2e" x="63.623047"/>
       <use xlink:href="#DejaVuSans-30" x="95.410156"/>
      </g>
     </g>
    </g>
    <g id="ytick_9">
     <g id="line2d_32">
      <g>
       <use xlink:href="#mb8d853ddf3" x="47.72" y="209.903432" style="stroke: #000000; stroke-width: 0.8"/>
      </g>
     </g>
     <g id="text_25">
      <!-- 0.5 -->
      <g transform="translate(24.816875 213.702651) scale(0.1 -0.1)">
       <use xlink:href="#DejaVuSans-30"/>
       <use xlink:href="#DejaVuSans-2e" x="63.623047"/>
       <use xlink:href="#DejaVuSans-35" x="95.410156"/>
      </g>
     </g>
    </g>
    <g id="ytick_10">
     <g id="line2d_33">
      <g>
       <use xlink:href="#mb8d853ddf3" x="47.72" y="178.007544" style="stroke: #000000; stroke-width: 0.8"/>
      </g>
     </g>
     <g id="text_26">
      <!-- 1.0 -->
      <g transform="translate(24.816875 181.806763) scale(0.1 -0.1)">
       <use xlink:href="#DejaVuSans-31"/>
       <use xlink:href="#DejaVuSans-2e" x="63.623047"/>
       <use xlink:href="#DejaVuSans-30" x="95.410156"/>
      </g>
     </g>
    </g>
    <g id="text_27">
     <!-- flow (cms) -->
     <g transform="translate(18.737188 225.405018) rotate(-90) scale(0.1 -0.1)">
      <use xlink:href="#DejaVuSans-66"/>
      <use xlink:href="#DejaVuSans-6c" x="35.205078"/>
      <use xlink:href="#DejaVuSans-6f" x="62.988281"/>
      <use xlink:href="#DejaVuSans-77" x="124.169922"/>
      <use xlink:href="#DejaVuSans-20" x="205.957031"/>
      <use xlink:href="#DejaVuSans-28" x="237.744141"/>
      <use xlink:href="#DejaVuSans-63" x="276.757812"/>
      <use xlink:href="#DejaVuSans-6d" x="331.738281"/>
      <use xlink:href="#DejaVuSans-73" x="429.150391"/>
      <use xlink:href="#DejaVuSans-29" x="481.25"/>
     </g>
    </g>
   </g>
   <g id="line2d_34">
    <path d="M 61.525909 241.79932 
L 68.060139 241.70334 
L 69.469252 241.163445 
L 70.070067 240.360276 
L 70.210683 240.400691 
L 70.942281 239.245803 
L 72.16751 236.976019 
L 73.031858 234.934833 
L 73.285557 233.692519 
L 73.34849 233.715349 
L 73.47239 233.866679 
L 73.657256 233.250925 
L 73.838189 232.188875 
L 73.908005 232.098231 
L 74.105654 233.204659 
L 74.166621 233.133884 
L 74.226604 233.028858 
L 74.428187 231.313729 
L 74.49407 231.245586 
L 74.629769 232.291917 
L 74.689753 232.213485 
L 74.886419 231.852193 
L 75.089968 231.000913 
L 75.292534 232.393169 
L 75.359401 232.340112 
L 75.494117 231.808313 
L 75.6249 231.937001 
L 75.756666 231.680769 
L 75.957265 231.259857 
L 76.024132 231.458574 
L 76.290614 230.544859 
L 76.489247 231.560192 
L 76.556114 231.496359 
L 76.882579 230.442708 
L 76.947479 230.731317 
L 77.144145 230.226087 
L 77.272961 230.433662 
L 77.465694 230.064609 
L 77.529611 230.31646 
L 77.719393 229.858116 
L 77.78331 230.064994 
L 77.84821 230.700433 
L 77.91311 230.684729 
L 78.430341 229.968557 
L 78.557191 230.337567 
L 78.684041 230.217794 
L 78.811873 230.580842 
L 78.941673 230.410423 
L 79.00559 229.704097 
L 79.068523 229.758423 
L 79.194389 229.722241 
L 79.257322 229.670312 
L 79.385155 229.943917 
L 79.828637 229.564325 
L 80.017437 229.707086 
L 80.08037 229.66481 
L 80.393069 228.753282 
L 80.580885 229.431209 
L 80.706751 229.31731 
L 80.769684 229.409163 
L 80.894567 229.475734 
L 81.0814 229.20886 
L 81.268233 228.639125 
L 81.330183 228.57763 
L 81.525865 229.947327 
L 81.585848 229.927642 
L 81.900514 228.416778 
L 81.963447 228.863791 
L 82.025397 228.844051 
L 82.149297 228.746973 
L 82.273196 228.949142 
L 82.458062 228.400209 
L 82.580979 228.671969 
L 82.642929 228.567883 
L 82.766828 228.416542 
L 82.951694 229.065136 
L 83.013644 229.020099 
L 83.13656 228.897798 
L 83.31946 229.175611 
L 83.750159 228.869634 
L 83.817025 229.049126 
L 84.012708 229.040286 
L 84.201507 228.453046 
L 84.26444 228.47446 
L 84.327373 228.686653 
L 84.390307 228.590881 
L 84.516173 228.485589 
L 84.578123 228.563422 
L 84.764955 229.318067 
L 84.827889 229.29382 
L 85.014721 228.564071 
L 85.139604 228.465377 
L 85.325454 228.789455 
L 85.636186 228.559589 
L 85.698136 228.518239 
L 85.760086 228.6966 
L 85.822036 228.639824 
L 86.006902 228.469807 
L 86.255684 229.008455 
L 86.318617 228.968481 
L 86.504467 228.559566 
L 86.689333 228.563064 
L 86.814216 228.586502 
L 86.939099 228.54403 
L 87.126915 229.0756 
L 87.188865 229.063548 
L 87.502547 228.347972 
L 87.56548 228.485632 
L 87.628414 228.410192 
L 87.75428 228.257734 
L 87.817213 228.386569 
L 87.880146 228.148909 
L 87.947996 228.27605 
L 88.076812 228.417342 
L 88.138762 228.862783 
L 88.202678 228.805384 
L 88.458344 228.92545 
L 88.588144 228.97209 
L 88.653044 228.955041 
L 88.845776 228.705845 
L 89.037526 228.688829 
L 89.099476 228.399866 
L 89.160442 228.619411 
L 89.283358 228.770407 
L 89.348258 228.708062 
L 89.542958 228.151361 
L 89.671774 228.38611 
L 89.73569 228.332702 
L 89.929407 228.34416 
L 90.058223 228.540339 
L 90.251939 228.366523 
L 90.445655 228.255284 
L 90.705254 228.768564 
L 90.835054 228.588523 
L 91.095636 228.435042 
L 91.226419 229.033916 
L 91.292302 229.02863 
L 91.621718 228.150464 
L 91.687601 228.258292 
L 91.883284 228.859361 
L 92.211716 228.645357 
L 92.278583 228.683829 
L 92.478199 228.362809 
L 92.544082 228.350688 
L 92.744681 228.617707 
L 92.811548 228.619845 
L 93.012147 228.443494 
L 93.415313 228.574266 
L 93.549046 228.284427 
L 93.682779 228.282816 
L 93.947294 229.00452 
L 94.082011 228.894235 
L 94.27081 228.776809 
L 94.545159 228.18566 
L 94.809675 228.607024 
L 94.878508 228.616345 
L 94.946358 228.491049 
L 95.013225 228.584743 
L 95.213824 228.824491 
L 95.46359 228.544258 
L 95.532423 228.556808 
L 95.802839 228.894479 
L 95.940505 228.748793 
L 96.077188 228.852513 
L 96.319087 228.389217 
L 96.380054 228.517026 
L 96.440037 228.440891 
L 96.619986 228.303726 
L 96.679969 228.560409 
L 96.739953 228.436894 
L 96.868769 228.421657 
L 96.937602 228.467159 
L 97.118535 228.855295 
L 97.239484 228.894288 
L 97.367317 228.301708 
L 97.435167 228.368149 
L 97.503017 228.421129 
L 97.57185 228.708255 
L 97.631833 228.535802 
L 97.76065 228.520816 
L 97.889466 228.671537 
L 98.129398 228.937164 
L 98.190365 228.957014 
L 98.374248 228.840821 
L 98.67908 228.966415 
L 98.740047 229.034026 
L 98.860996 228.806468 
L 99.040946 229.077069 
L 99.102895 229.010995 
L 99.286778 228.942977 
L 99.347745 228.912042 
L 99.468694 228.486872 
L 99.589644 228.569509 
L 99.649627 228.848388 
L 99.71256 228.748238 
L 99.83646 228.633496 
L 99.96036 228.622964 
L 100.080326 228.350132 
L 100.200292 228.498517 
L 100.260275 228.741174 
L 100.322225 228.639774 
L 100.446125 228.588222 
L 100.692941 229.125392 
L 100.755874 229.159867 
L 100.817824 228.934794 
L 100.87879 229.027559 
L 101.251472 229.279936 
L 101.376355 229.288831 
L 101.437322 229.215244 
L 101.621205 229.556681 
L 101.748054 156.985717 
L 101.811971 165.596491 
L 102.194486 211.99599 
L 102.256436 211.750198 
L 102.316419 204.205756 
L 102.383286 205.54253 
L 102.760884 217.986792 
L 103.283033 227.379209 
L 103.465932 228.575252 
L 103.527882 228.042956 
L 104.036264 231.460681 
L 104.29488 232.518119 
L 104.35978 233.382764 
L 104.426646 233.021433 
L 104.626262 233.683145 
L 104.833745 235.355484 
L 104.903561 235.464507 
L 104.974361 235.285747 
L 105.235927 235.863643 
L 105.29591 234.981269 
L 105.355893 235.039806 
L 105.851492 235.887048 
L 105.923275 235.83414 
L 106.064874 236.031836 
L 106.31464 237.153145 
L 106.378557 237.168778 
L 106.50344 236.373449 
L 106.624389 236.497445 
L 106.746322 236.818123 
L 106.874155 236.819812 
L 107.001988 236.946009 
L 107.127855 237.352956 
L 107.253721 237.417109 
L 107.317637 237.105196 
L 107.506437 237.558119 
L 107.56937 237.532069 
L 107.762103 237.929284 
L 108.151501 237.959361 
L 108.282284 237.406521 
L 108.346201 237.441619 
L 109.004049 237.816002 
L 109.069932 238.072118 
L 109.135815 237.841166 
L 109.201698 237.863986 
L 109.331498 237.93082 
L 109.531114 238.558126 
L 109.59798 238.568362 
L 109.66583 238.264455 
L 109.80448 238.643128 
L 109.944113 238.659744 
L 110.013929 238.52005 
L 110.080796 238.577986 
L 110.215512 238.536025 
L 110.284345 238.395668 
L 110.422995 238.711464 
L 110.493794 238.718784 
L 110.633427 238.538185 
L 110.84386 238.5577 
L 110.97956 238.310205 
L 111.393542 238.516087 
L 111.534158 238.906176 
L 111.676741 238.927701 
L 111.747541 238.814536 
L 111.890123 238.993863 
L 111.961907 239.00297 
L 112.174306 238.664354 
L 113.156653 238.964554 
L 113.373969 239.411799 
L 113.446735 239.419151 
L 113.519502 239.292956 
L 113.737801 239.413479 
L 113.944301 239.104283 
L 115.592362 239.614433 
L 115.717245 239.845709 
L 115.780178 239.849451 
L 116.027978 239.535519 
L 116.088944 239.548634 
L 116.272827 239.795566 
L 116.457693 239.706735 
L 116.649442 239.675981 
L 116.965091 239.831146 
L 117.028025 239.848369 
L 117.151924 239.708173 
L 117.58459 239.803189 
L 117.778306 240.061437 
L 117.910072 240.064156 
L 118.038888 239.862612 
L 118.164755 239.885297 
L 118.228671 240.033168 
L 118.293571 239.941797 
L 118.813753 240.086406 
L 119.014352 240.279656 
L 119.284768 240.205247 
L 119.418501 240.172135 
L 119.552234 240.098526 
L 120.014399 240.252434 
L 120.150099 240.410112 
L 120.219915 240.415447 
L 120.288748 240.249601 
L 120.356598 240.3618 
L 120.491314 240.391254 
L 120.627014 240.321188 
L 120.83253 240.384584 
L 120.901363 240.346137 
L 121.115729 240.469499 
L 121.329112 240.332115 
L 121.470711 240.370112 
L 121.611327 240.556757 
L 122.90539 240.669844 
L 123.12369 240.487235 
L 123.194489 240.497958 
L 123.338056 240.686272 
L 123.854304 240.633678 
L 124.079487 240.617339 
L 124.23092 240.799741 
L 125.861281 240.883074 
L 126.059914 240.812975 
L 130.292168 241.245537 
L 130.498667 241.177865 
L 135.865684 241.526381 
L 136.2187 241.514118 
L 138.519693 241.600532 
L 139.49319 241.612262 
L 140.997685 241.648791 
L 157.016137 241.749147 
L 192.062031 241.783917 
L 337.644091 241.797307 
L 337.644091 241.797307 
" clip-path="url(#p1d77525320)" style="fill: none; stroke: #1f77b4; stroke-width: 1.5; stroke-linecap: square"/>
   </g>
   <g id="patch_13">
    <path d="M 47.72 246.04 
L 47.72 152.745037 
" style="fill: none; stroke: #000000; stroke-width: 0.8; stroke-linejoin: miter; stroke-linecap: square"/>
   </g>
   <g id="patch_14">
    <path d="M 351.45 246.04 
L 351.45 152.745037 
" style="fill: none; stroke: #000000; stroke-width: 0.8; stroke-linejoin: miter; stroke-linecap: square"/>
   </g>
   <g id="patch_15">
    <path d="M 47.72 246.04 
L 351.45 246.04 
" style="fill: none; stroke: #000000; stroke-width: 0.8; stroke-linejoin: miter; stroke-linecap: square"/>
   </g>
   <g id="patch_16">
    <path d="M 47.72 152.745037 
L 351.45 152.745037 
" style="fill: none; stroke: #000000; stroke-width: 0.8; stroke-linejoin: miter; stroke-linecap: square"/>
   </g>
   <g id="text_28">
    <!-- 2 -->
    <g transform="translate(194.0878 176.17223) scale(0.1728 -0.1728)">
     <use xlink:href="#DejaVuSans-32"/>
    </g>
   </g>
  </g>
  <g id="axes_4">
   <g id="patch_17">
    <path d="M 405.47 246.04 
L 709.2 246.04 
L 709.2 152.745037 
L 405.47 152.745037 
z
" style="fill: #ffffff"/>
   </g>
   <g id="matplotlib.axis_7">
    <g id="xtick_22">
     <g id="line2d_35">
      <g>
       <use xlink:href="#m26d45ae9f8" x="419.275909" y="246.04" style="stroke: #000000; stroke-width: 0.8"/>
      </g>
     </g>
     <g id="text_29">
      <!-- 02-25 00 -->
      <g transform="translate(396.79544 260.638438) scale(0.1 -0.1)">
       <use xlink:href="#DejaVuSans-30"/>
       <use xlink:href="#DejaVuSans-32" x="63.623047"/>
       <use xlink:href="#DejaVuSans-2d" x="127.246094"/>
       <use xlink:href="#DejaVuSans-32" x="163.330078"/>
       <use xlink:href="#DejaVuSans-35" x="226.953125"/>
       <use xlink:href="#DejaVuSans-20" x="290.576172"/>
       <use xlink:href="#DejaVuSans-30" x="322.363281"/>
       <use xlink:href="#DejaVuSans-30" x="385.986328"/>
      </g>
     </g>
    </g>
    <g id="xtick_23">
     <g id="line2d_36">
      <g>
       <use xlink:href="#m26d45ae9f8" x="461.755781" y="246.04" style="stroke: #000000; stroke-width: 0.8"/>
      </g>
     </g>
     <g id="text_30">
      <!-- 02-25 12 -->
      <g transform="translate(439.275312 260.638438) scale(0.1 -0.1)">
       <use xlink:href="#DejaVuSans-30"/>
       <use xlink:href="#DejaVuSans-32" x="63.623047"/>
       <use xlink:href="#DejaVuSans-2d" x="127.246094"/>
       <use xlink:href="#DejaVuSans-32" x="163.330078"/>
       <use xlink:href="#DejaVuSans-35" x="226.953125"/>
       <use xlink:href="#DejaVuSans-20" x="290.576172"/>
       <use xlink:href="#DejaVuSans-31" x="322.363281"/>
       <use xlink:href="#DejaVuSans-32" x="385.986328"/>
      </g>
     </g>
    </g>
    <g id="xtick_24">
     <g id="line2d_37">
      <g>
       <use xlink:href="#m26d45ae9f8" x="504.235652" y="246.04" style="stroke: #000000; stroke-width: 0.8"/>
      </g>
     </g>
     <g id="text_31">
      <!-- 02-26 00 -->
      <g transform="translate(481.755183 260.638438) scale(0.1 -0.1)">
       <use xlink:href="#DejaVuSans-30"/>
       <use xlink:href="#DejaVuSans-32" x="63.623047"/>
       <use xlink:href="#DejaVuSans-2d" x="127.246094"/>
       <use xlink:href="#DejaVuSans-32" x="163.330078"/>
       <use xlink:href="#DejaVuSans-36" x="226.953125"/>
       <use xlink:href="#DejaVuSans-20" x="290.576172"/>
       <use xlink:href="#DejaVuSans-30" x="322.363281"/>
       <use xlink:href="#DejaVuSans-30" x="385.986328"/>
      </g>
     </g>
    </g>
    <g id="xtick_25">
     <g id="line2d_38">
      <g>
       <use xlink:href="#m26d45ae9f8" x="546.715524" y="246.04" style="stroke: #000000; stroke-width: 0.8"/>
      </g>
     </g>
     <g id="text_32">
      <!-- 02-26 12 -->
      <g transform="translate(524.235055 260.638438) scale(0.1 -0.1)">
       <use xlink:href="#DejaVuSans-30"/>
       <use xlink:href="#DejaVuSans-32" x="63.623047"/>
       <use xlink:href="#DejaVuSans-2d" x="127.246094"/>
       <use xlink:href="#DejaVuSans-32" x="163.330078"/>
       <use xlink:href="#DejaVuSans-36" x="226.953125"/>
       <use xlink:href="#DejaVuSans-20" x="290.576172"/>
       <use xlink:href="#DejaVuSans-31" x="322.363281"/>
       <use xlink:href="#DejaVuSans-32" x="385.986328"/>
      </g>
     </g>
    </g>
    <g id="xtick_26">
     <g id="line2d_39">
      <g>
       <use xlink:href="#m26d45ae9f8" x="589.195395" y="246.04" style="stroke: #000000; stroke-width: 0.8"/>
      </g>
     </g>
     <g id="text_33">
      <!-- 02-27 00 -->
      <g transform="translate(566.714927 260.638438) scale(0.1 -0.1)">
       <use xlink:href="#DejaVuSans-30"/>
       <use xlink:href="#DejaVuSans-32" x="63.623047"/>
       <use xlink:href="#DejaVuSans-2d" x="127.246094"/>
       <use xlink:href="#DejaVuSans-32" x="163.330078"/>
       <use xlink:href="#DejaVuSans-37" x="226.953125"/>
       <use xlink:href="#DejaVuSans-20" x="290.576172"/>
       <use xlink:href="#DejaVuSans-30" x="322.363281"/>
       <use xlink:href="#DejaVuSans-30" x="385.986328"/>
      </g>
     </g>
    </g>
    <g id="xtick_27">
     <g id="line2d_40">
      <g>
       <use xlink:href="#m26d45ae9f8" x="631.675267" y="246.04" style="stroke: #000000; stroke-width: 0.8"/>
      </g>
     </g>
     <g id="text_34">
      <!-- 02-27 12 -->
      <g transform="translate(609.194798 260.638438) scale(0.1 -0.1)">
       <use xlink:href="#DejaVuSans-30"/>
       <use xlink:href="#DejaVuSans-32" x="63.623047"/>
       <use xlink:href="#DejaVuSans-2d" x="127.246094"/>
       <use xlink:href="#DejaVuSans-32" x="163.330078"/>
       <use xlink:href="#DejaVuSans-37" x="226.953125"/>
       <use xlink:href="#DejaVuSans-20" x="290.576172"/>
       <use xlink:href="#DejaVuSans-31" x="322.363281"/>
       <use xlink:href="#DejaVuSans-32" x="385.986328"/>
      </g>
     </g>
    </g>
    <g id="xtick_28">
     <g id="line2d_41">
      <g>
       <use xlink:href="#m26d45ae9f8" x="674.155138" y="246.04" style="stroke: #000000; stroke-width: 0.8"/>
      </g>
     </g>
     <g id="text_35">
      <!-- 02-28 00 -->
      <g transform="translate(651.67467 260.638438) scale(0.1 -0.1)">
       <use xlink:href="#DejaVuSans-30"/>
       <use xlink:href="#DejaVuSans-32" x="63.623047"/>
       <use xlink:href="#DejaVuSans-2d" x="127.246094"/>
       <use xlink:href="#DejaVuSans-32" x="163.330078"/>
       <use xlink:href="#DejaVuSans-38" x="226.953125"/>
       <use xlink:href="#DejaVuSans-20" x="290.576172"/>
       <use xlink:href="#DejaVuSans-30" x="322.363281"/>
       <use xlink:href="#DejaVuSans-30" x="385.986328"/>
      </g>
     </g>
    </g>
    <g id="text_36">
     <!-- time -->
     <g transform="translate(546.038906 274.316562) scale(0.1 -0.1)">
      <use xlink:href="#DejaVuSans-74"/>
      <use xlink:href="#DejaVuSans-69" x="39.208984"/>
      <use xlink:href="#DejaVuSans-6d" x="66.992188"/>
      <use xlink:href="#DejaVuSans-65" x="164.404297"/>
     </g>
    </g>
   </g>
   <g id="matplotlib.axis_8">
    <g id="ytick_11">
     <g id="line2d_42">
      <g>
       <use xlink:href="#mb8d853ddf3" x="405.47" y="241.79932" style="stroke: #000000; stroke-width: 0.8"/>
      </g>
     </g>
     <g id="text_37">
      <!-- 0 -->
      <g transform="translate(392.1075 245.598539) scale(0.1 -0.1)">
       <use xlink:href="#DejaVuSans-30"/>
      </g>
     </g>
    </g>
    <g id="ytick_12">
     <g id="line2d_43">
      <g>
       <use xlink:href="#mb8d853ddf3" x="405.47" y="198.785411" style="stroke: #000000; stroke-width: 0.8"/>
      </g>
     </g>
     <g id="text_38">
      <!-- 1 -->
      <g transform="translate(392.1075 202.584629) scale(0.1 -0.1)">
       <use xlink:href="#DejaVuSans-31"/>
      </g>
     </g>
    </g>
    <g id="ytick_13">
     <g id="line2d_44">
      <g>
       <use xlink:href="#mb8d853ddf3" x="405.47" y="155.771502" style="stroke: #000000; stroke-width: 0.8"/>
      </g>
     </g>
     <g id="text_39">
      <!-- 2 -->
      <g transform="translate(392.1075 159.57072) scale(0.1 -0.1)">
       <use xlink:href="#DejaVuSans-32"/>
      </g>
     </g>
    </g>
    <g id="text_40">
     <!-- depth (m) -->
     <g transform="translate(386.027812 224.307362) rotate(-90) scale(0.1 -0.1)">
      <use xlink:href="#DejaVuSans-64"/>
      <use xlink:href="#DejaVuSans-65" x="63.476562"/>
      <use xlink:href="#DejaVuSans-70" x="125"/>
      <use xlink:href="#DejaVuSans-74" x="188.476562"/>
      <use xlink:href="#DejaVuSans-68" x="227.685547"/>
      <use xlink:href="#DejaVuSans-20" x="291.064453"/>
      <use xlink:href="#DejaVuSans-28" x="322.851562"/>
      <use xlink:href="#DejaVuSans-6d" x="361.865234"/>
      <use xlink:href="#DejaVuSans-29" x="459.277344"/>
     </g>
    </g>
   </g>
   <g id="line2d_45">
    <path d="M 419.275909 241.79932 
L 423.937878 241.706782 
L 424.645876 241.433677 
L 425.395174 240.894409 
L 426.250671 239.980188 
L 426.874103 239.048474 
L 427.607667 237.482936 
L 428.374665 235.535224 
L 430.459325 230.259869 
L 432.974684 223.816282 
L 436.116425 211.394592 
L 437.452771 204.88764 
L 439.208999 195.519574 
L 441.008493 184.676548 
L 442.140307 178.424616 
L 444.813982 165.599142 
L 445.441347 163.4507 
L 446.971409 159.347022 
L 447.743323 157.932765 
L 448.195655 157.406552 
L 448.714853 157.073105 
L 449.239952 157.049777 
L 450.161332 157.750463 
L 450.961763 158.955992 
L 451.832011 160.722962 
L 452.499692 162.466388 
L 453.621672 165.807268 
L 454.489953 168.936882 
L 456.730963 178.095638 
L 457.890309 183.567474 
L 459.371205 190.722443 
L 459.81567 207.724918 
L 460.706567 221.562179 
L 461.339832 225.75858 
L 461.851164 228.013308 
L 462.376262 229.571269 
L 464.192473 231.941472 
L 464.877855 232.504937 
L 465.771702 232.87831 
L 466.161101 233.115226 
L 467.41583 233.697156 
L 467.965512 233.795687 
L 469.355941 234.278324 
L 470.134739 234.547554 
L 471.123969 234.86358 
L 471.76805 235.033389 
L 476.629636 236.329878 
L 477.568716 236.544189 
L 478.721179 236.758343 
L 481.754754 237.353924 
L 482.978016 237.572874 
L 486.355756 238.263337 
L 488.523016 238.670015 
L 495.473195 239.802452 
L 500.60618 240.278878 
L 506.181663 240.579671 
L 517.952127 240.913506 
L 539.369063 241.195045 
L 626.895298 241.516882 
L 695.394091 241.60357 
L 695.394091 241.60357 
" clip-path="url(#p0b51109eb3)" style="fill: none; stroke: #1f77b4; stroke-width: 1.5; stroke-linecap: square"/>
   </g>
   <g id="patch_18">
    <path d="M 405.47 246.04 
L 405.47 152.745037 
" style="fill: none; stroke: #000000; stroke-width: 0.8; stroke-linejoin: miter; stroke-linecap: square"/>
   </g>
   <g id="patch_19">
    <path d="M 709.2 246.04 
L 709.2 152.745037 
" style="fill: none; stroke: #000000; stroke-width: 0.8; stroke-linejoin: miter; stroke-linecap: square"/>
   </g>
   <g id="patch_20">
    <path d="M 405.47 246.04 
L 709.2 246.04 
" style="fill: none; stroke: #000000; stroke-width: 0.8; stroke-linejoin: miter; stroke-linecap: square"/>
   </g>
   <g id="patch_21">
    <path d="M 405.47 152.745037 
L 709.2 152.745037 
" style="fill: none; stroke: #000000; stroke-width: 0.8; stroke-linejoin: miter; stroke-linecap: square"/>
   </g>
   <g id="text_41">
    <!-- ('P2', 'depthN') -->
    <g transform="translate(493.2829 176.17223) scale(0.1728 -0.1728)">
     <use xlink:href="#DejaVuSans-28"/>
     <use xlink:href="#DejaVuSans-27" x="39.013672"/>
     <use xlink:href="#DejaVuSans-50" x="66.503906"/>
     <use xlink:href="#DejaVuSans-32" x="126.806641"/>
     <use xlink:href="#DejaVuSans-27" x="190.429688"/>
     <use xlink:href="#DejaVuSans-2c" x="217.919922"/>
     <use xlink:href="#DejaVuSans-20" x="249.707031"/>
     <use xlink:href="#DejaVuSans-27" x="281.494141"/>
     <use xlink:href="#DejaVuSans-64" x="308.984375"/>
     <use xlink:href="#DejaVuSans-65" x="372.460938"/>
     <use xlink:href="#DejaVuSans-70" x="433.984375"/>
     <use xlink:href="#DejaVuSans-74" x="497.460938"/>
     <use xlink:href="#DejaVuSans-68" x="536.669922"/>
     <use xlink:href="#DejaVuSans-4e" x="600.048828"/>
     <use xlink:href="#DejaVuSans-27" x="674.853516"/>
     <use xlink:href="#DejaVuSans-29" x="702.34375"/>
    </g>
   </g>
   <g id="text_42">
    <!-- cost: 6.18e+03 -->
    <g transform="translate(490.96495 204.160718) scale(0.1728 -0.1728)">
     <defs>
      <path id="DejaVuSans-3a" d="M 750 794 
L 1409 794 
L 1409 0 
L 750 0 
L 750 794 
z
M 750 3309 
L 1409 3309 
L 1409 2516 
L 750 2516 
L 750 3309 
z
" transform="scale(0.015625)"/>
      <path id="DejaVuSans-2b" d="M 2944 4013 
L 2944 2272 
L 4684 2272 
L 4684 1741 
L 2944 1741 
L 2944 0 
L 2419 0 
L 2419 1741 
L 678 1741 
L 678 2272 
L 2419 2272 
L 2419 4013 
L 2944 4013 
z
" transform="scale(0.015625)"/>
      <path id="DejaVuSans-33" d="M 2597 2516 
Q 3050 2419 3304 2112 
Q 3559 1806 3559 1356 
Q 3559 666 3084 287 
Q 2609 -91 1734 -91 
Q 1441 -91 1130 -33 
Q 819 25 488 141 
L 488 750 
Q 750 597 1062 519 
Q 1375 441 1716 441 
Q 2309 441 2620 675 
Q 2931 909 2931 1356 
Q 2931 1769 2642 2001 
Q 2353 2234 1838 2234 
L 1294 2234 
L 1294 2753 
L 1863 2753 
Q 2328 2753 2575 2939 
Q 2822 3125 2822 3475 
Q 2822 3834 2567 4026 
Q 2313 4219 1838 4219 
Q 1578 4219 1281 4162 
Q 984 4106 628 3988 
L 628 4550 
Q 988 4650 1302 4700 
Q 1616 4750 1894 4750 
Q 2613 4750 3031 4423 
Q 3450 4097 3450 3541 
Q 3450 3153 3228 2886 
Q 3006 2619 2597 2516 
z
" transform="scale(0.015625)"/>
     </defs>
     <use xlink:href="#DejaVuSans-63"/>
     <use xlink:href="#DejaVuSans-6f" x="54.980469"/>
     <use xlink:href="#DejaVuSans-73" x="116.162109"/>
     <use xlink:href="#DejaVuSans-74" x="168.261719"/>
     <use xlink:href="#DejaVuSans-3a" x="207.470703"/>
     <use xlink:href="#DejaVuSans-20" x="241.162109"/>
     <use xlink:href="#DejaVuSans-36" x="272.949219"/>
     <use xlink:href="#DejaVuSans-2e" x="336.572266"/>
     <use xlink:href="#DejaVuSans-31" x="368.359375"/>
     <use xlink:href="#DejaVuSans-38" x="431.982422"/>
     <use xlink:href="#DejaVuSans-65" x="495.605469"/>
     <use xlink:href="#DejaVuSans-2b" x="557.128906"/>
     <use xlink:href="#DejaVuSans-30" x="640.917969"/>
     <use xlink:href="#DejaVuSans-33" x="704.541016"/>
    </g>
   </g>
  </g>
 </g>
 <defs>
  <clipPath id="p6bac2461fc">
   <rect x="47.72" y="26.88" width="303.73" height="93.294963"/>
  </clipPath>
  <clipPath id="pb1f64f09d0">
   <rect x="405.47" y="26.88" width="303.73" height="93.294963"/>
  </clipPath>
  <clipPath id="p1d77525320">
   <rect x="47.72" y="152.745037" width="303.73" height="93.294963"/>
  </clipPath>
  <clipPath id="p0b51109eb3">
   <rect x="405.47" y="152.745037" width="303.73" height="93.294963"/>
  </clipPath>
 </defs>
</svg>
