<?xml version="1.0" encoding="utf-8" standalone="no"?>
<!DOCTYPE svg PUBLIC "-//W3C//DTD SVG 1.1//EN"
  "http://www.w3.org/Graphics/SVG/1.1/DTD/svg11.dtd">
<svg xmlns:xlink="http://www.w3.org/1999/xlink" width="720pt" height="288pt" viewBox="0 0 720 288" xmlns="http://www.w3.org/2000/svg" version="1.1">
 <metadata>
  <rdf:RDF xmlns:dc="http://purl.org/dc/elements/1.1/" xmlns:cc="http://creativecommons.org/ns#" xmlns:rdf="http://www.w3.org/1999/02/22-rdf-syntax-ns#">
   <cc:Work>
    <dc:type rdf:resource="http://purl.org/dc/dcmitype/StillImage"/>
    <dc:date>2025-02-17T13:34:33.824585</dc:date>
    <dc:format>image/svg+xml</dc:format>
    <dc:creator>
     <cc:Agent>
      <dc:title>Matplotlib v3.9.4, https://matplotlib.org/</dc:title>
     </cc:Agent>
    </dc:creator>
   </cc:Work>
  </rdf:RDF>
 </metadata>
 <defs>
  <style type="text/css">*{stroke-linejoin: round; stroke-linecap: butt}</style>
 </defs>
 <g id="figure_1">
  <g id="patch_1">
   <path d="M 0 288 
L 720 288 
L 720 0 
L 0 0 
z
" style="fill: #ffffff"/>
  </g>
  <g id="axes_1">
   <g id="patch_2">
    <path d="M 54.02 120.52 
L 354.6 120.52 
L 354.6 26.88 
L 54.02 26.88 
z
" style="fill: #ffffff"/>
   </g>
   <g id="matplotlib.axis_1">
    <g id="xtick_1">
     <g id="line2d_1">
      <defs>
       <path id="m2570e24996" d="M 0 0 
L 0 3.5 
" style="stroke: #000000; stroke-width: 0.8"/>
      </defs>
      <g>
       <use xlink:href="#m2570e24996" x="67.682727" y="120.52" style="stroke: #000000; stroke-width: 0.8"/>
      </g>
     </g>
    </g>
    <g id="xtick_2">
     <g id="line2d_2">
      <g>
       <use xlink:href="#m2570e24996" x="109.728926" y="120.52" style="stroke: #000000; stroke-width: 0.8"/>
      </g>
     </g>
    </g>
    <g id="xtick_3">
     <g id="line2d_3">
      <g>
       <use xlink:href="#m2570e24996" x="151.775124" y="120.52" style="stroke: #000000; stroke-width: 0.8"/>
      </g>
     </g>
    </g>
    <g id="xtick_4">
     <g id="line2d_4">
      <g>
       <use xlink:href="#m2570e24996" x="193.821323" y="120.52" style="stroke: #000000; stroke-width: 0.8"/>
      </g>
     </g>
    </g>
    <g id="xtick_5">
     <g id="line2d_5">
      <g>
       <use xlink:href="#m2570e24996" x="235.867521" y="120.52" style="stroke: #000000; stroke-width: 0.8"/>
      </g>
     </g>
    </g>
    <g id="xtick_6">
     <g id="line2d_6">
      <g>
       <use xlink:href="#m2570e24996" x="277.91372" y="120.52" style="stroke: #000000; stroke-width: 0.8"/>
      </g>
     </g>
    </g>
    <g id="xtick_7">
     <g id="line2d_7">
      <g>
       <use xlink:href="#m2570e24996" x="319.959918" y="120.52" style="stroke: #000000; stroke-width: 0.8"/>
      </g>
     </g>
    </g>
    <g id="text_1">
     <!-- time -->
     <g transform="translate(193.013906 139.118437) scale(0.1 -0.1)">
      <defs>
       <path id="DejaVuSans-74" d="M 1172 4494 
L 1172 3500 
L 2356 3500 
L 2356 3053 
L 1172 3053 
L 1172 1153 
Q 1172 725 1289 603 
Q 1406 481 1766 481 
L 2356 481 
L 2356 0 
L 1766 0 
Q 1100 0 847 248 
Q 594 497 594 1153 
L 594 3053 
L 172 3053 
L 172 3500 
L 594 3500 
L 594 4494 
L 1172 4494 
z
" transform="scale(0.015625)"/>
       <path id="DejaVuSans-69" d="M 603 3500 
L 1178 3500 
L 1178 0 
L 603 0 
L 603 3500 
z
M 603 4863 
L 1178 4863 
L 1178 4134 
L 603 4134 
L 603 4863 
z
" transform="scale(0.015625)"/>
       <path id="DejaVuSans-6d" d="M 3328 2828 
Q 3544 3216 3844 3400 
Q 4144 3584 4550 3584 
Q 5097 3584 5394 3201 
Q 5691 2819 5691 2113 
L 5691 0 
L 5113 0 
L 5113 2094 
Q 5113 2597 4934 2840 
Q 4756 3084 4391 3084 
Q 3944 3084 3684 2787 
Q 3425 2491 3425 1978 
L 3425 0 
L 2847 0 
L 2847 2094 
Q 2847 2600 2669 2842 
Q 2491 3084 2119 3084 
Q 1678 3084 1418 2786 
Q 1159 2488 1159 1978 
L 1159 0 
L 581 0 
L 581 3500 
L 1159 3500 
L 1159 2956 
Q 1356 3278 1631 3431 
Q 1906 3584 2284 3584 
Q 2666 3584 2933 3390 
Q 3200 3197 3328 2828 
z
" transform="scale(0.015625)"/>
       <path id="DejaVuSans-65" d="M 3597 1894 
L 3597 1613 
L 953 1613 
Q 991 1019 1311 708 
Q 1631 397 2203 397 
Q 2534 397 2845 478 
Q 3156 559 3463 722 
L 3463 178 
Q 3153 47 2828 -22 
Q 2503 -91 2169 -91 
Q 1331 -91 842 396 
Q 353 884 353 1716 
Q 353 2575 817 3079 
Q 1281 3584 2069 3584 
Q 2775 3584 3186 3129 
Q 3597 2675 3597 1894 
z
M 3022 2063 
Q 3016 2534 2758 2815 
Q 2500 3097 2075 3097 
Q 1594 3097 1305 2825 
Q 1016 2553 972 2059 
L 3022 2063 
z
" transform="scale(0.015625)"/>
      </defs>
      <use xlink:href="#DejaVuSans-74"/>
      <use xlink:href="#DejaVuSans-69" x="39.208984"/>
      <use xlink:href="#DejaVuSans-6d" x="66.992188"/>
      <use xlink:href="#DejaVuSans-65" x="164.404297"/>
     </g>
    </g>
   </g>
   <g id="matplotlib.axis_2">
    <g id="ytick_1">
     <g id="line2d_8">
      <defs>
       <path id="m947abefda3" d="M 0 0 
L -3.5 0 
" style="stroke: #000000; stroke-width: 0.8"/>
      </defs>
      <g>
       <use xlink:href="#m947abefda3" x="54.02" y="116.263636" style="stroke: #000000; stroke-width: 0.8"/>
      </g>
     </g>
     <g id="text_2">
      <!-- 0.0 -->
      <g transform="translate(31.116875 120.062855) scale(0.1 -0.1)">
       <defs>
        <path id="DejaVuSans-30" d="M 2034 4250 
Q 1547 4250 1301 3770 
Q 1056 3291 1056 2328 
Q 1056 1369 1301 889 
Q 1547 409 2034 409 
Q 2525 409 2770 889 
Q 3016 1369 3016 2328 
Q 3016 3291 2770 3770 
Q 2525 4250 2034 4250 
z
M 2034 4750 
Q 2819 4750 3233 4129 
Q 3647 3509 3647 2328 
Q 3647 1150 3233 529 
Q 2819 -91 2034 -91 
Q 1250 -91 836 529 
Q 422 1150 422 2328 
Q 422 3509 836 4129 
Q 1250 4750 2034 4750 
z
" transform="scale(0.015625)"/>
        <path id="DejaVuSans-2e" d="M 684 794 
L 1344 794 
L 1344 0 
L 684 0 
L 684 794 
z
" transform="scale(0.015625)"/>
       </defs>
       <use xlink:href="#DejaVuSans-30"/>
       <use xlink:href="#DejaVuSans-2e" x="63.623047"/>
       <use xlink:href="#DejaVuSans-30" x="95.410156"/>
      </g>
     </g>
    </g>
    <g id="ytick_2">
     <g id="line2d_9">
      <g>
       <use xlink:href="#m947abefda3" x="54.02" y="91.85772" style="stroke: #000000; stroke-width: 0.8"/>
      </g>
     </g>
     <g id="text_3">
      <!-- 0.1 -->
      <g transform="translate(31.116875 95.656939) scale(0.1 -0.1)">
       <defs>
        <path id="DejaVuSans-31" d="M 794 531 
L 1825 531 
L 1825 4091 
L 703 3866 
L 703 4441 
L 1819 4666 
L 2450 4666 
L 2450 531 
L 3481 531 
L 3481 0 
L 794 0 
L 794 531 
z
" transform="scale(0.015625)"/>
       </defs>
       <use xlink:href="#DejaVuSans-30"/>
       <use xlink:href="#DejaVuSans-2e" x="63.623047"/>
       <use xlink:href="#DejaVuSans-31" x="95.410156"/>
      </g>
     </g>
    </g>
    <g id="ytick_3">
     <g id="line2d_10">
      <g>
       <use xlink:href="#m947abefda3" x="54.02" y="67.451804" style="stroke: #000000; stroke-width: 0.8"/>
      </g>
     </g>
     <g id="text_4">
      <!-- 0.2 -->
      <g transform="translate(31.116875 71.251022) scale(0.1 -0.1)">
       <defs>
        <path id="DejaVuSans-32" d="M 1228 531 
L 3431 531 
L 3431 0 
L 469 0 
L 469 531 
Q 828 903 1448 1529 
Q 2069 2156 2228 2338 
Q 2531 2678 2651 2914 
Q 2772 3150 2772 3378 
Q 2772 3750 2511 3984 
Q 2250 4219 1831 4219 
Q 1534 4219 1204 4116 
Q 875 4013 500 3803 
L 500 4441 
Q 881 4594 1212 4672 
Q 1544 4750 1819 4750 
Q 2544 4750 2975 4387 
Q 3406 4025 3406 3419 
Q 3406 3131 3298 2873 
Q 3191 2616 2906 2266 
Q 2828 2175 2409 1742 
Q 1991 1309 1228 531 
z
" transform="scale(0.015625)"/>
       </defs>
       <use xlink:href="#DejaVuSans-30"/>
       <use xlink:href="#DejaVuSans-2e" x="63.623047"/>
       <use xlink:href="#DejaVuSans-32" x="95.410156"/>
      </g>
     </g>
    </g>
    <g id="ytick_4">
     <g id="line2d_11">
      <g>
       <use xlink:href="#m947abefda3" x="54.02" y="43.045887" style="stroke: #000000; stroke-width: 0.8"/>
      </g>
     </g>
     <g id="text_5">
      <!-- 0.3 -->
      <g transform="translate(31.116875 46.845106) scale(0.1 -0.1)">
       <defs>
        <path id="DejaVuSans-33" d="M 2597 2516 
Q 3050 2419 3304 2112 
Q 3559 1806 3559 1356 
Q 3559 666 3084 287 
Q 2609 -91 1734 -91 
Q 1441 -91 1130 -33 
Q 819 25 488 141 
L 488 750 
Q 750 597 1062 519 
Q 1375 441 1716 441 
Q 2309 441 2620 675 
Q 2931 909 2931 1356 
Q 2931 1769 2642 2001 
Q 2353 2234 1838 2234 
L 1294 2234 
L 1294 2753 
L 1863 2753 
Q 2328 2753 2575 2939 
Q 2822 3125 2822 3475 
Q 2822 3834 2567 4026 
Q 2313 4219 1838 4219 
Q 1578 4219 1281 4162 
Q 984 4106 628 3988 
L 628 4550 
Q 988 4650 1302 4700 
Q 1616 4750 1894 4750 
Q 2613 4750 3031 4423 
Q 3450 4097 3450 3541 
Q 3450 3153 3228 2886 
Q 3006 2619 2597 2516 
z
" transform="scale(0.015625)"/>
       </defs>
       <use xlink:href="#DejaVuSans-30"/>
       <use xlink:href="#DejaVuSans-2e" x="63.623047"/>
       <use xlink:href="#DejaVuSans-33" x="95.410156"/>
      </g>
     </g>
    </g>
    <g id="text_6">
     <!-- flow (cms) -->
     <g transform="translate(25.037188 99.7125) rotate(-90) scale(0.1 -0.1)">
      <defs>
       <path id="DejaVuSans-66" d="M 2375 4863 
L 2375 4384 
L 1825 4384 
Q 1516 4384 1395 4259 
Q 1275 4134 1275 3809 
L 1275 3500 
L 2222 3500 
L 2222 3053 
L 1275 3053 
L 1275 0 
L 697 0 
L 697 3053 
L 147 3053 
L 147 3500 
L 697 3500 
L 697 3744 
Q 697 4328 969 4595 
Q 1241 4863 1831 4863 
L 2375 4863 
z
" transform="scale(0.015625)"/>
       <path id="DejaVuSans-6c" d="M 603 4863 
L 1178 4863 
L 1178 0 
L 603 0 
L 603 4863 
z
" transform="scale(0.015625)"/>
       <path id="DejaVuSans-6f" d="M 1959 3097 
Q 1497 3097 1228 2736 
Q 959 2375 959 1747 
Q 959 1119 1226 758 
Q 1494 397 1959 397 
Q 2419 397 2687 759 
Q 2956 1122 2956 1747 
Q 2956 2369 2687 2733 
Q 2419 3097 1959 3097 
z
M 1959 3584 
Q 2709 3584 3137 3096 
Q 3566 2609 3566 1747 
Q 3566 888 3137 398 
Q 2709 -91 1959 -91 
Q 1206 -91 779 398 
Q 353 888 353 1747 
Q 353 2609 779 3096 
Q 1206 3584 1959 3584 
z
" transform="scale(0.015625)"/>
       <path id="DejaVuSans-77" d="M 269 3500 
L 844 3500 
L 1563 769 
L 2278 3500 
L 2956 3500 
L 3675 769 
L 4391 3500 
L 4966 3500 
L 4050 0 
L 3372 0 
L 2619 2869 
L 1863 0 
L 1184 0 
L 269 3500 
z
" transform="scale(0.015625)"/>
       <path id="DejaVuSans-20" transform="scale(0.015625)"/>
       <path id="DejaVuSans-28" d="M 1984 4856 
Q 1566 4138 1362 3434 
Q 1159 2731 1159 2009 
Q 1159 1288 1364 580 
Q 1569 -128 1984 -844 
L 1484 -844 
Q 1016 -109 783 600 
Q 550 1309 550 2009 
Q 550 2706 781 3412 
Q 1013 4119 1484 4856 
L 1984 4856 
z
" transform="scale(0.015625)"/>
       <path id="DejaVuSans-63" d="M 3122 3366 
L 3122 2828 
Q 2878 2963 2633 3030 
Q 2388 3097 2138 3097 
Q 1578 3097 1268 2742 
Q 959 2388 959 1747 
Q 959 1106 1268 751 
Q 1578 397 2138 397 
Q 2388 397 2633 464 
Q 2878 531 3122 666 
L 3122 134 
Q 2881 22 2623 -34 
Q 2366 -91 2075 -91 
Q 1284 -91 818 406 
Q 353 903 353 1747 
Q 353 2603 823 3093 
Q 1294 3584 2113 3584 
Q 2378 3584 2631 3529 
Q 2884 3475 3122 3366 
z
" transform="scale(0.015625)"/>
       <path id="DejaVuSans-73" d="M 2834 3397 
L 2834 2853 
Q 2591 2978 2328 3040 
Q 2066 3103 1784 3103 
Q 1356 3103 1142 2972 
Q 928 2841 928 2578 
Q 928 2378 1081 2264 
Q 1234 2150 1697 2047 
L 1894 2003 
Q 2506 1872 2764 1633 
Q 3022 1394 3022 966 
Q 3022 478 2636 193 
Q 2250 -91 1575 -91 
Q 1294 -91 989 -36 
Q 684 19 347 128 
L 347 722 
Q 666 556 975 473 
Q 1284 391 1588 391 
Q 1994 391 2212 530 
Q 2431 669 2431 922 
Q 2431 1156 2273 1281 
Q 2116 1406 1581 1522 
L 1381 1569 
Q 847 1681 609 1914 
Q 372 2147 372 2553 
Q 372 3047 722 3315 
Q 1072 3584 1716 3584 
Q 2034 3584 2315 3537 
Q 2597 3491 2834 3397 
z
" transform="scale(0.015625)"/>
       <path id="DejaVuSans-29" d="M 513 4856 
L 1013 4856 
Q 1481 4119 1714 3412 
Q 1947 2706 1947 2009 
Q 1947 1309 1714 600 
Q 1481 -109 1013 -844 
L 513 -844 
Q 928 -128 1133 580 
Q 1338 1288 1338 2009 
Q 1338 2731 1133 3434 
Q 928 4138 513 4856 
z
" transform="scale(0.015625)"/>
      </defs>
      <use xlink:href="#DejaVuSans-66"/>
      <use xlink:href="#DejaVuSans-6c" x="35.205078"/>
      <use xlink:href="#DejaVuSans-6f" x="62.988281"/>
      <use xlink:href="#DejaVuSans-77" x="124.169922"/>
      <use xlink:href="#DejaVuSans-20" x="205.957031"/>
      <use xlink:href="#DejaVuSans-28" x="237.744141"/>
      <use xlink:href="#DejaVuSans-63" x="276.757812"/>
      <use xlink:href="#DejaVuSans-6d" x="331.738281"/>
      <use xlink:href="#DejaVuSans-73" x="429.150391"/>
      <use xlink:href="#DejaVuSans-29" x="481.25"/>
     </g>
    </g>
   </g>
   <g id="line2d_12">
    <path d="M 67.682727 116.263636 
L 72.209507 116.172155 
L 72.559892 115.924583 
L 72.997873 115.311062 
L 73.260662 114.731167 
L 73.514691 114.125532 
L 73.955592 112.621686 
L 74.089906 112.182475 
L 74.155117 112.346048 
L 74.220327 112.618795 
L 74.659282 110.852572 
L 74.813062 109.217993 
L 75.443755 106.852565 
L 75.886602 103.258217 
L 76.01897 100.72104 
L 76.162044 99.806962 
L 76.232121 101.416278 
L 76.303171 100.720777 
L 76.442352 99.350573 
L 76.511456 99.932355 
L 76.579586 99.666152 
L 76.714874 98.179876 
L 76.781057 92.875632 
L 76.846268 96.620013 
L 76.910505 95.944204 
L 77.038006 94.81089 
L 77.161614 88.206247 
L 77.281329 88.698951 
L 77.3407 90.106816 
L 77.401044 89.696832 
L 77.460415 89.654615 
L 77.649234 88.825548 
L 77.708604 91.761237 
L 77.779655 91.046516 
L 78.19525 86.914183 
L 78.331511 89.173745 
L 78.399641 88.216048 
L 78.466799 87.284032 
L 78.533956 82.400168 
L 78.60014 82.93044 
L 78.729587 81.894454 
L 78.794798 82.01206 
L 78.859035 77.290578 
L 78.922299 77.550061 
L 79.047854 77.108415 
L 79.110144 82.76908 
L 79.173408 81.424441 
L 79.483888 77.754612 
L 80.151566 68.514425 
L 80.219697 68.060906 
L 80.279068 69.559151 
L 80.347198 68.736832 
L 80.814378 64.49249 
L 80.948692 56.709899 
L 81.013903 57.524558 
L 81.080087 58.077286 
L 81.14627 68.005169 
L 81.213428 64.584592 
L 81.482056 61.777764 
L 81.54824 62.047181 
L 82.00958 54.845964 
L 82.140001 55.480382 
L 82.270422 55.158387 
L 82.336606 57.321065 
L 82.401817 57.1981 
L 82.855371 53.409668 
L 82.919608 54.684553 
L 83.113293 52.618383 
L 83.178503 53.071262 
L 83.242741 51.298457 
L 83.306978 51.379827 
L 83.498716 50.378123 
L 83.690455 49.425227 
L 83.753719 48.771712 
L 83.816983 51.136357 
L 83.88122 50.659487 
L 84.071985 49.412605 
L 84.199486 47.662105 
L 84.326014 47.360852 
L 84.389278 46.72235 
L 84.452542 44.744126 
L 84.514833 44.974555 
L 84.578097 45.113783 
L 84.640387 49.110806 
L 84.703651 47.872438 
L 84.89247 46.430182 
L 84.955734 46.990586 
L 85.018998 42.86438 
L 85.081288 43.029593 
L 85.206843 43.223232 
L 85.269134 46.212754 
L 85.332398 44.768358 
L 85.457952 44.100561 
L 85.520243 47.534227 
L 85.709062 43.501889 
L 85.771352 43.148157 
L 85.833643 43.312556 
L 85.896907 43.619111 
L 86.083779 42.28506 
L 86.145096 38.346763 
L 86.207387 38.624795 
L 86.330995 38.970651 
L 86.454603 40.66828 
L 86.516894 40.462799 
L 86.641475 39.846512 
L 86.702792 42.611319 
L 86.8264 39.02713 
L 86.950008 38.527372 
L 87.012299 38.581767 
L 87.073616 38.758872 
L 87.258542 37.470971 
L 87.38215 39.015005 
L 87.567075 36.786905 
L 87.628393 33.447595 
L 87.68971 33.56145 
L 87.872689 34.143369 
L 87.934006 35.68827 
L 87.99435 35.352931 
L 88.116985 34.722076 
L 88.178302 32.648693 
L 88.23962 35.22471 
L 88.299964 34.776336 
L 88.422599 33.673132 
L 88.605577 32.600783 
L 88.665922 32.385565 
L 88.787583 34.022583 
L 88.8489 33.349853 
L 88.970562 32.98776 
L 89.030906 31.376044 
L 89.092223 31.629544 
L 89.334573 33.707296 
L 89.39589 31.136364 
L 89.456234 31.75532 
L 89.577896 32.881477 
L 89.639213 34.797325 
L 89.699557 34.580838 
L 89.822192 35.046973 
L 89.882536 34.603469 
L 89.943853 36.647025 
L 90.005171 36.492418 
L 90.127806 36.61061 
L 90.18815 35.534958 
L 90.249467 38.405699 
L 90.310784 38.265775 
L 90.434392 38.028638 
L 90.49571 36.050485 
L 90.557027 38.283192 
L 90.618345 38.206699 
L 90.740979 38.151751 
L 90.802297 37.222502 
L 90.863614 37.828402 
L 91.047566 38.071847 
L 91.108884 37.593546 
L 91.170201 37.919413 
L 91.292836 38.142727 
L 91.354153 37.518702 
L 91.41547 35.738826 
L 91.475814 36.374741 
L 91.659767 37.456925 
L 91.721084 40.18152 
L 91.782401 39.93875 
L 91.967327 39.333893 
L 92.028644 40.173146 
L 92.089962 39.961569 
L 92.274887 39.062553 
L 92.336204 37.196659 
L 92.397522 37.720703 
L 92.458839 38.237862 
L 92.520156 39.742575 
L 92.581474 36.266192 
L 92.642791 37.692922 
L 92.765426 39.384253 
L 92.826743 42.599274 
L 92.888061 41.260767 
L 93.072986 42.793731 
L 93.135277 45.210017 
L 93.197567 44.757373 
L 93.383466 45.550553 
L 93.445757 45.354648 
L 93.508047 45.348889 
L 93.694919 46.775299 
L 93.819501 48.512389 
L 93.945055 48.800954 
L 94.007346 48.26338 
L 94.132901 50.077377 
L 94.258455 50.26714 
L 94.321719 49.010142 
L 94.509565 50.563896 
L 94.572828 49.055347 
L 94.698383 51.581943 
L 94.824911 51.897284 
L 94.888175 51.021722 
L 94.950466 51.363782 
L 95.076994 51.981668 
L 95.140257 51.824076 
L 95.266785 54.974599 
L 95.393313 54.708701 
L 95.456577 49.783987 
L 95.519841 52.853647 
L 95.709633 53.722642 
L 95.836161 50.735172 
L 95.961716 52.680058 
L 96.088244 58.514747 
L 96.152481 58.420947 
L 96.280955 58.748063 
L 96.344219 58.619956 
L 96.536931 60.458687 
L 96.601168 60.708098 
L 96.665405 55.527358 
L 96.729643 56.595563 
L 96.857144 58.976296 
L 97.050829 65.080484 
L 97.180277 65.351928 
L 97.245487 60.954561 
L 97.309725 62.753556 
L 97.439172 64.275581 
L 97.504383 68.461798 
L 97.569593 67.45367 
L 97.766198 68.180527 
L 97.831409 67.672979 
L 97.896619 67.854085 
L 98.028014 68.720428 
L 98.094198 67.317759 
L 98.422197 72.987158 
L 98.488381 72.588714 
L 98.554565 72.689147 
L 98.621722 72.819039 
L 98.687905 67.205504 
L 98.820273 73.018456 
L 98.886457 73.274343 
L 98.952641 72.762019 
L 99.085982 74.77607 
L 99.219323 75.060559 
L 99.285507 76.127487 
L 99.352664 75.74105 
L 99.486005 76.054687 
L 99.553162 72.872894 
L 99.687476 76.485059 
L 99.754633 76.728265 
L 99.820817 75.957002 
L 100.290917 79.066895 
L 100.359047 79.246301 
L 100.426204 75.827976 
L 100.494335 76.11835 
L 100.898251 79.990726 
L 100.966381 80.356952 
L 101.034512 82.825244 
L 101.102642 82.749183 
L 101.238903 82.787981 
L 101.375164 81.93551 
L 101.570795 82.51474 
L 101.638926 84.275685 
L 101.707056 83.87387 
L 101.834557 84.072762 
L 101.902688 81.324249 
L 101.962059 85.580132 
L 102.030189 85.561422 
L 102.08956 85.533519 
L 102.148931 83.726519 
L 102.217061 85.820229 
L 102.276432 85.638053 
L 102.395173 85.744491 
L 102.464277 85.548907 
L 102.591778 86.471286 
L 102.71052 86.562674 
L 102.769891 86.033365 
L 102.829261 84.387662 
L 102.897392 84.850169 
L 103.016133 85.56371 
L 103.203979 87.846345 
L 103.32272 88.053475 
L 103.383064 83.031368 
L 103.451195 83.704183 
L 103.578696 85.251854 
L 103.638067 89.602067 
L 103.698411 89.555849 
L 103.877496 89.473112 
L 103.997211 88.520998 
L 104.17727 89.064731 
L 104.236641 90.889397 
L 104.296985 85.815983 
L 104.356356 86.496948 
L 104.475098 87.686706 
L 104.595786 92.326519 
L 104.65613 92.170532 
L 104.716474 92.039738 
L 104.777791 91.538497 
L 104.838135 91.665095 
L 104.898479 92.400317 
L 104.958823 92.30428 
L 105.020141 92.232566 
L 105.080485 89.110502 
L 105.140829 91.298494 
L 105.321861 91.637613 
L 105.382205 90.939559 
L 105.503867 92.605853 
L 105.625528 92.651972 
L 105.685872 93.089167 
L 105.746216 91.113795 
L 105.807534 91.408001 
L 105.928222 91.897622 
L 105.988566 90.912302 
L 106.04891 91.009692 
L 106.230916 92.036878 
L 106.35355 95.605468 
L 106.476185 95.283702 
L 106.537502 91.32497 
L 106.660137 95.074408 
L 106.782772 94.9904 
L 106.844089 94.12161 
L 106.905407 94.560623 
L 107.089359 94.750948 
L 107.15165 94.90658 
L 107.211994 91.532057 
L 107.273311 92.086544 
L 107.45629 93.81632 
L 107.517607 92.544977 
L 107.577951 93.04588 
L 107.700586 94.216667 
L 107.761903 96.712377 
L 107.823221 96.257726 
L 107.947802 96.311108 
L 108.009119 97.571847 
L 108.07141 97.161699 
L 108.195991 97.150028 
L 108.258282 97.125096 
L 108.320573 96.649533 
L 108.382863 98.793627 
L 108.445154 98.605912 
L 108.569735 98.323961 
L 108.694317 93.048099 
L 108.816952 94.343022 
L 108.94056 98.05791 
L 109.00285 98.020976 
L 109.190695 97.927406 
L 109.252986 97.307008 
L 109.315277 97.443976 
L 109.439858 97.711596 
L 109.565413 99.727934 
L 109.628677 99.61813 
L 109.690967 99.525581 
L 109.754231 98.772036 
L 109.816522 95.041072 
L 109.878813 95.788807 
L 110.003394 96.725187 
L 110.065685 100.203454 
L 110.127975 97.139703 
L 110.191239 97.488158 
L 110.315821 98.055228 
L 110.379085 99.374132 
L 110.442349 98.341539 
L 110.504639 98.553875 
L 110.631167 99.268409 
L 110.694431 101.868008 
L 110.757695 101.591762 
L 110.887143 101.284574 
L 110.95138 99.329777 
L 111.014644 101.530552 
L 111.078881 101.410704 
L 111.207356 101.061287 
L 111.33583 101.427402 
L 111.464305 101.314125 
L 111.528542 100.309048 
L 111.592779 100.890091 
L 111.721254 100.970266 
L 111.785491 100.578737 
L 111.849728 100.609581 
L 111.913965 101.70651 
L 111.978203 101.689248 
L 112.043413 101.678129 
L 112.107651 99.603549 
L 112.171888 101.102297 
L 112.364599 101.362901 
L 112.428837 99.251511 
L 112.493074 99.974261 
L 112.686759 101.235041 
L 112.75197 102.178944 
L 112.816207 102.168585 
L 112.946628 102.249857 
L 113.012812 101.198741 
L 113.078022 101.747474 
L 113.272681 102.164076 
L 113.404075 102.955244 
L 113.470259 102.968844 
L 113.536443 103.225408 
L 113.6036 102.106781 
L 113.66881 102.6856 
L 113.801178 102.849722 
L 113.934519 101.731711 
L 114.132097 102.967237 
L 114.265438 102.668406 
L 114.399752 102.994901 
L 114.53504 105.199545 
L 114.60317 105.078829 
L 114.671301 104.973898 
L 114.739431 102.667999 
L 114.806588 103.845899 
L 114.942849 103.988612 
L 115.07911 105.461851 
L 115.288368 105.08493 
L 115.357471 102.826934 
L 115.426575 103.183113 
L 115.565756 103.65366 
L 115.634859 105.359389 
L 115.69423 105.254254 
L 115.813945 105.246144 
L 115.935606 104.262724 
L 115.995951 104.624646 
L 116.118585 104.809146 
L 116.242193 106.05518 
L 116.431012 105.959544 
L 116.556567 104.289644 
L 116.682121 104.678032 
L 116.745385 104.842496 
L 116.809622 105.482574 
L 116.87386 105.036656 
L 117.001361 105.295285 
L 117.065598 106.582358 
L 117.130809 105.861589 
L 117.327414 106.095291 
L 117.392624 107.594298 
L 117.459781 107.588811 
L 117.594095 107.39665 
L 117.661253 104.940524 
L 117.72841 106.797043 
L 117.794594 106.792262 
L 117.929881 106.749963 
L 117.997038 105.36528 
L 118.063222 105.576855 
L 118.197536 105.940871 
L 118.333797 107.729087 
L 118.541108 107.638252 
L 118.610212 107.063712 
L 118.679316 107.120206 
L 118.748419 107.165479 
L 118.8876 106.089426 
L 118.95573 106.313891 
L 119.093938 106.868872 
L 119.164015 108.942279 
L 119.235065 108.765187 
L 119.378139 108.595815 
L 119.449189 106.344507 
L 119.519266 106.613522 
L 120.014672 107.949431 
L 120.086695 107.6649 
L 120.157746 107.764192 
L 120.229769 107.862235 
L 120.301793 108.747182 
L 120.37479 107.986719 
L 120.447786 108.06208 
L 120.51981 108.145808 
L 120.592807 109.588482 
L 120.652178 108.868862 
L 120.799145 108.874271 
L 120.917886 108.237131 
L 121.123251 108.494709 
L 121.182622 109.384799 
L 121.241992 108.561772 
L 121.301363 108.62511 
L 121.420105 108.753578 
L 121.480449 109.464765 
L 121.53982 109.175759 
L 121.720852 109.156705 
L 121.781196 109.447515 
L 121.84154 109.092065 
L 121.901884 109.131211 
L 121.962228 109.181173 
L 122.08389 110.691096 
L 122.207498 110.456611 
L 122.269788 110.399534 
L 122.332079 109.124029 
L 122.393396 110.110165 
L 122.579295 110.013716 
L 122.702903 108.981664 
L 123.133098 109.733161 
L 123.195389 110.394584 
L 123.258653 109.600265 
L 123.320943 109.733727 
L 123.445525 109.875792 
L 123.635317 110.878565 
L 123.763791 110.784149 
L 123.828028 109.73667 
L 123.891292 109.918504 
L 124.016847 110.082011 
L 124.144348 110.994169 
L 124.339006 110.948658 
L 124.467481 110.239846 
L 124.595955 110.393535 
L 124.660193 110.720977 
L 124.72443 110.450145 
L 124.78964 110.580054 
L 124.919088 110.705803 
L 125.11472 111.446224 
L 125.181877 111.43865 
L 125.248061 110.86468 
L 125.313271 111.133615 
L 125.511823 111.208969 
L 125.578007 110.928803 
L 125.644191 111.014677 
L 126.109424 111.395812 
L 126.176581 112.051959 
L 126.244711 112.001526 
L 126.380972 111.98729 
L 126.450076 112.101201 
L 126.518206 112.019396 
L 126.655441 112.026009 
L 126.724544 111.354624 
L 126.792675 111.491618 
L 127.901254 112.672689 
L 127.971331 112.194218 
L 128.042381 112.244942 
L 128.112458 112.291088 
L 128.326582 112.85495 
L 128.398606 112.85083 
L 128.471603 112.362442 
L 128.543626 113.171386 
L 128.616623 113.107014 
L 128.68962 113.091487 
L 128.762617 112.224792 
L 128.835614 113.139237 
L 128.908611 113.081756 
L 128.981608 113.07782 
L 129.055578 112.875061 
L 129.128575 112.315474 
L 129.201571 112.454349 
L 129.345619 112.592816 
L 129.418615 113.266659 
L 129.492586 113.228498 
L 129.566556 113.231563 
L 129.641499 112.595898 
L 129.715469 112.723726 
L 129.936407 113.040243 
L 130.086294 113.450091 
L 130.16221 113.452991 
L 130.238127 112.889919 
L 130.31307 113.002867 
L 130.463931 113.111496 
L 130.614791 113.613165 
L 130.769544 113.630354 
L 130.846434 113.25168 
L 130.923324 113.340096 
L 131.076131 113.404399 
L 131.153021 113.781162 
L 131.230884 113.761589 
L 131.309721 113.773629 
L 131.446955 113.518694 
L 131.680545 113.586428 
L 131.739916 113.911008 
L 131.799287 113.89551 
L 131.918028 113.922377 
L 132.037743 113.667458 
L 132.156485 113.749247 
L 133.190121 114.180164 
L 134.007686 114.446111 
L 134.071923 114.761317 
L 134.137133 114.739577 
L 134.267554 114.744897 
L 134.397975 114.476565 
L 135.118211 114.720961 
L 135.184395 114.910857 
L 135.251552 114.734983 
L 135.318709 114.773392 
L 136.065224 114.971744 
L 136.204405 115.172076 
L 136.344559 115.138964 
L 136.485686 115.092067 
L 140.28347 115.750399 
L 143.144947 116.032244 
L 154.882844 116.169056 
L 208.404151 116.242534 
L 340.937273 116.260682 
L 340.937273 116.260682 
" clip-path="url(#p57589f18f2)" style="fill: none; stroke: #1f77b4; stroke-width: 1.5; stroke-linecap: square"/>
   </g>
   <g id="patch_3">
    <path d="M 54.02 120.52 
L 54.02 26.88 
" style="fill: none; stroke: #000000; stroke-width: 0.8; stroke-linejoin: miter; stroke-linecap: square"/>
   </g>
   <g id="patch_4">
    <path d="M 354.6 120.52 
L 354.6 26.88 
" style="fill: none; stroke: #000000; stroke-width: 0.8; stroke-linejoin: miter; stroke-linecap: square"/>
   </g>
   <g id="patch_5">
    <path d="M 54.02 120.52 
L 354.6 120.52 
" style="fill: none; stroke: #000000; stroke-width: 0.8; stroke-linejoin: miter; stroke-linecap: square"/>
   </g>
   <g id="patch_6">
    <path d="M 54.02 26.88 
L 354.6 26.88 
" style="fill: none; stroke: #000000; stroke-width: 0.8; stroke-linejoin: miter; stroke-linecap: square"/>
   </g>
   <g id="text_7">
    <!-- 1 -->
    <g transform="translate(198.8128 50.3762) scale(0.1728 -0.1728)">
     <use xlink:href="#DejaVuSans-31"/>
    </g>
   </g>
   <g id="text_8">
    <!-- flows -->
    <g transform="translate(188.827188 20.88) scale(0.12 -0.12)">
     <use xlink:href="#DejaVuSans-66"/>
     <use xlink:href="#DejaVuSans-6c" x="35.205078"/>
     <use xlink:href="#DejaVuSans-6f" x="62.988281"/>
     <use xlink:href="#DejaVuSans-77" x="124.169922"/>
     <use xlink:href="#DejaVuSans-73" x="205.957031"/>
    </g>
   </g>
  </g>
  <g id="axes_2">
   <g id="patch_7">
    <path d="M 408.62 120.52 
L 709.2 120.52 
L 709.2 26.88 
L 408.62 26.88 
z
" style="fill: #ffffff"/>
   </g>
   <g id="matplotlib.axis_3">
    <g id="xtick_8">
     <g id="line2d_13">
      <g>
       <use xlink:href="#m2570e24996" x="422.282727" y="120.52" style="stroke: #000000; stroke-width: 0.8"/>
      </g>
     </g>
    </g>
    <g id="xtick_9">
     <g id="line2d_14">
      <g>
       <use xlink:href="#m2570e24996" x="464.328926" y="120.52" style="stroke: #000000; stroke-width: 0.8"/>
      </g>
     </g>
    </g>
    <g id="xtick_10">
     <g id="line2d_15">
      <g>
       <use xlink:href="#m2570e24996" x="506.375124" y="120.52" style="stroke: #000000; stroke-width: 0.8"/>
      </g>
     </g>
    </g>
    <g id="xtick_11">
     <g id="line2d_16">
      <g>
       <use xlink:href="#m2570e24996" x="548.421323" y="120.52" style="stroke: #000000; stroke-width: 0.8"/>
      </g>
     </g>
    </g>
    <g id="xtick_12">
     <g id="line2d_17">
      <g>
       <use xlink:href="#m2570e24996" x="590.467521" y="120.52" style="stroke: #000000; stroke-width: 0.8"/>
      </g>
     </g>
    </g>
    <g id="xtick_13">
     <g id="line2d_18">
      <g>
       <use xlink:href="#m2570e24996" x="632.51372" y="120.52" style="stroke: #000000; stroke-width: 0.8"/>
      </g>
     </g>
    </g>
    <g id="xtick_14">
     <g id="line2d_19">
      <g>
       <use xlink:href="#m2570e24996" x="674.559918" y="120.52" style="stroke: #000000; stroke-width: 0.8"/>
      </g>
     </g>
    </g>
    <g id="text_9">
     <!-- time -->
     <g transform="translate(547.613906 139.118437) scale(0.1 -0.1)">
      <use xlink:href="#DejaVuSans-74"/>
      <use xlink:href="#DejaVuSans-69" x="39.208984"/>
      <use xlink:href="#DejaVuSans-6d" x="66.992188"/>
      <use xlink:href="#DejaVuSans-65" x="164.404297"/>
     </g>
    </g>
   </g>
   <g id="matplotlib.axis_4">
    <g id="ytick_5">
     <g id="line2d_20">
      <g>
       <use xlink:href="#m947abefda3" x="408.62" y="116.263636" style="stroke: #000000; stroke-width: 0.8"/>
      </g>
     </g>
     <g id="text_10">
      <!-- 0.00 -->
      <g transform="translate(379.354375 120.062855) scale(0.1 -0.1)">
       <use xlink:href="#DejaVuSans-30"/>
       <use xlink:href="#DejaVuSans-2e" x="63.623047"/>
       <use xlink:href="#DejaVuSans-30" x="95.410156"/>
       <use xlink:href="#DejaVuSans-30" x="159.033203"/>
      </g>
     </g>
    </g>
    <g id="ytick_6">
     <g id="line2d_21">
      <g>
       <use xlink:href="#m947abefda3" x="408.62" y="90.768247" style="stroke: #000000; stroke-width: 0.8"/>
      </g>
     </g>
     <g id="text_11">
      <!-- 0.05 -->
      <g transform="translate(379.354375 94.567465) scale(0.1 -0.1)">
       <defs>
        <path id="DejaVuSans-35" d="M 691 4666 
L 3169 4666 
L 3169 4134 
L 1269 4134 
L 1269 2991 
Q 1406 3038 1543 3061 
Q 1681 3084 1819 3084 
Q 2600 3084 3056 2656 
Q 3513 2228 3513 1497 
Q 3513 744 3044 326 
Q 2575 -91 1722 -91 
Q 1428 -91 1123 -41 
Q 819 9 494 109 
L 494 744 
Q 775 591 1075 516 
Q 1375 441 1709 441 
Q 2250 441 2565 725 
Q 2881 1009 2881 1497 
Q 2881 1984 2565 2268 
Q 2250 2553 1709 2553 
Q 1456 2553 1204 2497 
Q 953 2441 691 2322 
L 691 4666 
z
" transform="scale(0.015625)"/>
       </defs>
       <use xlink:href="#DejaVuSans-30"/>
       <use xlink:href="#DejaVuSans-2e" x="63.623047"/>
       <use xlink:href="#DejaVuSans-30" x="95.410156"/>
       <use xlink:href="#DejaVuSans-35" x="159.033203"/>
      </g>
     </g>
    </g>
    <g id="ytick_7">
     <g id="line2d_22">
      <g>
       <use xlink:href="#m947abefda3" x="408.62" y="65.272857" style="stroke: #000000; stroke-width: 0.8"/>
      </g>
     </g>
     <g id="text_12">
      <!-- 0.10 -->
      <g transform="translate(379.354375 69.072076) scale(0.1 -0.1)">
       <use xlink:href="#DejaVuSans-30"/>
       <use xlink:href="#DejaVuSans-2e" x="63.623047"/>
       <use xlink:href="#DejaVuSans-31" x="95.410156"/>
       <use xlink:href="#DejaVuSans-30" x="159.033203"/>
      </g>
     </g>
    </g>
    <g id="ytick_8">
     <g id="line2d_23">
      <g>
       <use xlink:href="#m947abefda3" x="408.62" y="39.777467" style="stroke: #000000; stroke-width: 0.8"/>
      </g>
     </g>
     <g id="text_13">
      <!-- 0.15 -->
      <g transform="translate(379.354375 43.576686) scale(0.1 -0.1)">
       <use xlink:href="#DejaVuSans-30"/>
       <use xlink:href="#DejaVuSans-2e" x="63.623047"/>
       <use xlink:href="#DejaVuSans-31" x="95.410156"/>
       <use xlink:href="#DejaVuSans-35" x="159.033203"/>
      </g>
     </g>
    </g>
    <g id="text_14">
     <!-- depth (m) -->
     <g transform="translate(373.274687 98.614844) rotate(-90) scale(0.1 -0.1)">
      <defs>
       <path id="DejaVuSans-64" d="M 2906 2969 
L 2906 4863 
L 3481 4863 
L 3481 0 
L 2906 0 
L 2906 525 
Q 2725 213 2448 61 
Q 2172 -91 1784 -91 
Q 1150 -91 751 415 
Q 353 922 353 1747 
Q 353 2572 751 3078 
Q 1150 3584 1784 3584 
Q 2172 3584 2448 3432 
Q 2725 3281 2906 2969 
z
M 947 1747 
Q 947 1113 1208 752 
Q 1469 391 1925 391 
Q 2381 391 2643 752 
Q 2906 1113 2906 1747 
Q 2906 2381 2643 2742 
Q 2381 3103 1925 3103 
Q 1469 3103 1208 2742 
Q 947 2381 947 1747 
z
" transform="scale(0.015625)"/>
       <path id="DejaVuSans-70" d="M 1159 525 
L 1159 -1331 
L 581 -1331 
L 581 3500 
L 1159 3500 
L 1159 2969 
Q 1341 3281 1617 3432 
Q 1894 3584 2278 3584 
Q 2916 3584 3314 3078 
Q 3713 2572 3713 1747 
Q 3713 922 3314 415 
Q 2916 -91 2278 -91 
Q 1894 -91 1617 61 
Q 1341 213 1159 525 
z
M 3116 1747 
Q 3116 2381 2855 2742 
Q 2594 3103 2138 3103 
Q 1681 3103 1420 2742 
Q 1159 2381 1159 1747 
Q 1159 1113 1420 752 
Q 1681 391 2138 391 
Q 2594 391 2855 752 
Q 3116 1113 3116 1747 
z
" transform="scale(0.015625)"/>
       <path id="DejaVuSans-68" d="M 3513 2113 
L 3513 0 
L 2938 0 
L 2938 2094 
Q 2938 2591 2744 2837 
Q 2550 3084 2163 3084 
Q 1697 3084 1428 2787 
Q 1159 2491 1159 1978 
L 1159 0 
L 581 0 
L 581 4863 
L 1159 4863 
L 1159 2956 
Q 1366 3272 1645 3428 
Q 1925 3584 2291 3584 
Q 2894 3584 3203 3211 
Q 3513 2838 3513 2113 
z
" transform="scale(0.015625)"/>
      </defs>
      <use xlink:href="#DejaVuSans-64"/>
      <use xlink:href="#DejaVuSans-65" x="63.476562"/>
      <use xlink:href="#DejaVuSans-70" x="125"/>
      <use xlink:href="#DejaVuSans-74" x="188.476562"/>
      <use xlink:href="#DejaVuSans-68" x="227.685547"/>
      <use xlink:href="#DejaVuSans-20" x="291.064453"/>
      <use xlink:href="#DejaVuSans-28" x="322.851562"/>
      <use xlink:href="#DejaVuSans-6d" x="361.865234"/>
      <use xlink:href="#DejaVuSans-29" x="459.277344"/>
     </g>
    </g>
   </g>
   <g id="line2d_24">
    <path d="M 422.282727 116.263636 
L 426.283929 116.164417 
L 426.634314 115.780886 
L 426.984699 114.99073 
L 427.510277 113.082687 
L 428.623722 107.631599 
L 429.138594 104.649453 
L 429.976598 99.507624 
L 430.690994 93.554608 
L 430.903171 91.655819 
L 431.70127 84.177151 
L 431.881329 84.73944 
L 431.9407 84.730185 
L 432.179157 83.755786 
L 432.308604 82.841678 
L 432.72712 79.461079 
L 432.931511 77.759601 
L 433.26535 74.643378 
L 433.585563 73.122927 
L 433.710144 72.40504 
L 434.265894 65.106593 
L 434.683436 62.541037 
L 434.947198 60.758115 
L 435.414378 57.747721 
L 435.481535 57.426876 
L 435.680087 58.9242 
L 435.74627 58.693837 
L 436.214424 54.249414 
L 436.60958 51.663224 
L 436.936606 50.828548 
L 437.261685 48.870415 
L 438.162954 46.04755 
L 438.353719 45.834104 
L 438.799486 44.017861 
L 438.989278 43.611286 
L 439.052542 43.815531 
L 439.178097 44.038204 
L 439.303651 43.681721 
L 439.555734 42.517745 
L 439.618998 42.604785 
L 439.806843 42.846104 
L 440.183507 40.940631 
L 440.745096 38.521457 
L 440.993286 38.930933 
L 441.365083 37.357358 
L 441.920833 35.442912 
L 442.167075 33.94609 
L 442.411372 34.480902 
L 442.472689 34.424879 
L 443.509244 31.21093 
L 443.630906 31.184392 
L 444.422192 34.442399 
L 444.666488 34.88422 
L 444.78815 35.031602 
L 444.849467 34.93472 
L 445.034392 34.653211 
L 445.157027 34.783257 
L 445.340979 34.708636 
L 445.524931 35.020412 
L 445.770201 35.36814 
L 445.954153 35.608261 
L 446.259767 36.981977 
L 446.506009 36.407719 
L 446.567327 36.468636 
L 446.81357 35.94054 
L 446.936204 36.445968 
L 447.304109 39.111038 
L 447.672986 41.392064 
L 448.607346 44.174723 
L 448.796165 44.295242 
L 448.921719 44.64609 
L 449.802548 47.111028 
L 449.866785 46.955496 
L 449.993313 46.773906 
L 450.309633 47.903966 
L 450.436161 48.956521 
L 450.688244 50.94647 
L 450.816718 51.099932 
L 451.136931 52.187902 
L 451.265405 53.068367 
L 451.520408 56.16976 
L 451.780277 56.522812 
L 452.169593 59.307383 
L 452.431409 60.157287 
L 453.154565 63.4904 
L 453.221722 63.599911 
L 453.486457 64.603283 
L 453.952664 65.861249 
L 454.086005 66.130289 
L 454.555131 68.137896 
L 455.160519 70.990924 
L 455.431094 72.448181 
L 455.634512 73.432633 
L 455.702642 73.412509 
L 455.838903 73.460635 
L 456.043294 74.023385 
L 456.502688 75.245292 
L 456.748931 75.222158 
L 456.935803 75.570244 
L 457.369891 76.099197 
L 457.684264 77.6146 
L 457.92272 77.757742 
L 458.298411 80.349064 
L 458.477496 80.3259 
L 458.657555 80.752391 
L 458.896985 81.602039 
L 459.075098 83.036105 
L 459.135442 82.99749 
L 459.377791 82.486959 
L 459.620141 82.172926 
L 459.680485 82.26489 
L 460.407534 83.248542 
L 460.830916 85.061517 
L 460.892233 85.039124 
L 461.076185 84.525609 
L 461.137502 84.587581 
L 461.260137 84.549252 
L 461.444089 84.504919 
L 461.75165 84.884744 
L 462.177951 87.732933 
L 462.300586 88.395269 
L 462.361903 88.297424 
L 462.609119 88.344933 
L 462.795991 88.114445 
L 462.982863 87.939352 
L 463.169735 87.461992 
L 463.232999 87.642135 
L 463.478269 89.606521 
L 463.790695 89.678535 
L 464.039858 90.230897 
L 464.165413 90.056893 
L 464.354231 89.813712 
L 464.478813 90.504228 
L 464.791239 91.909894 
L 465.167903 92.99029 
L 465.231167 93.130855 
L 465.678881 92.322463 
L 465.93583 92.096447 
L 466.128542 92.018218 
L 466.385491 92.191738 
L 466.449728 92.432562 
L 466.513965 92.398765 
L 466.643413 92.36888 
L 466.900362 92.818592 
L 467.028837 93.098675 
L 467.35197 94.225025 
L 467.612812 94.461322 
L 467.938864 94.935241 
L 468.136443 94.971179 
L 468.401178 95.405716 
L 468.534519 95.743335 
L 468.865438 96.613922 
L 469.067883 96.944743 
L 469.271301 96.519341 
L 469.610979 96.860872 
L 469.748214 96.773748 
L 469.888368 96.647593 
L 470.29423 97.679466 
L 470.475262 97.689344 
L 470.842193 98.134811 
L 471.093303 98.032225 
L 471.537124 99.101869 
L 471.730809 99.294084 
L 471.992624 99.385463 
L 472.194095 98.990684 
L 472.394594 99.080434 
L 472.529881 99.109662 
L 472.864693 99.933383 
L 473.141108 99.697301 
L 473.418496 99.917907 
L 473.693938 100.675598 
L 473.764015 100.602516 
L 473.978139 100.235932 
L 474.614672 101.652178 
L 475.11981 102.324004 
L 475.399145 102.282673 
L 475.590883 102.540786 
L 476.080449 103.058491 
L 476.501884 103.322661 
L 476.68389 103.349636 
L 476.932079 103.098722 
L 477.241586 103.18764 
L 477.671781 103.924133 
L 478.107815 104.420577 
L 478.363791 104.262626 
L 478.809559 104.680917 
L 479.003244 104.73097 
L 479.519088 105.442087 
L 479.71472 105.451857 
L 479.913271 105.532792 
L 480.376558 106.010862 
L 480.776581 106.34038 
L 481.255441 106.327703 
L 482.430204 107.399416 
L 482.571331 107.48132 
L 482.854559 107.637846 
L 483.581608 107.633802 
L 483.728575 107.7602 
L 484.018615 108.081517 
L 484.241499 108.16433 
L 484.610377 108.521554 
L 484.838127 108.597959 
L 485.214791 108.91817 
L 485.446434 109.018594 
L 485.909721 109.303902 
L 486.637743 109.784226 
L 487.421243 110.394658 
L 488.802344 111.109917 
L 489.063186 111.241482 
L 490.255468 111.956066 
L 491.085686 112.305552 
L 495.993022 114.474004 
L 497.832544 114.978712 
L 499.672065 115.214541 
L 502.913126 115.386541 
L 510.621596 115.570079 
L 528.053249 115.795136 
L 558.098761 115.981216 
L 608.203815 116.110828 
L 695.537273 116.188192 
L 695.537273 116.188192 
" clip-path="url(#pb18b3c0c95)" style="fill: none; stroke: #1f77b4; stroke-width: 1.5; stroke-linecap: square"/>
   </g>
   <g id="patch_8">
    <path d="M 408.62 120.52 
L 408.62 26.88 
" style="fill: none; stroke: #000000; stroke-width: 0.8; stroke-linejoin: miter; stroke-linecap: square"/>
   </g>
   <g id="patch_9">
    <path d="M 709.2 120.52 
L 709.2 26.88 
" style="fill: none; stroke: #000000; stroke-width: 0.8; stroke-linejoin: miter; stroke-linecap: square"/>
   </g>
   <g id="patch_10">
    <path d="M 408.62 120.52 
L 709.2 120.52 
" style="fill: none; stroke: #000000; stroke-width: 0.8; stroke-linejoin: miter; stroke-linecap: square"/>
   </g>
   <g id="patch_11">
    <path d="M 408.62 26.88 
L 709.2 26.88 
" style="fill: none; stroke: #000000; stroke-width: 0.8; stroke-linejoin: miter; stroke-linecap: square"/>
   </g>
   <g id="text_15">
    <!-- ('P1', 'depthN') -->
    <g transform="translate(494.8579 50.3762) scale(0.1728 -0.1728)">
     <defs>
      <path id="DejaVuSans-27" d="M 1147 4666 
L 1147 2931 
L 616 2931 
L 616 4666 
L 1147 4666 
z
" transform="scale(0.015625)"/>
      <path id="DejaVuSans-50" d="M 1259 4147 
L 1259 2394 
L 2053 2394 
Q 2494 2394 2734 2622 
Q 2975 2850 2975 3272 
Q 2975 3691 2734 3919 
Q 2494 4147 2053 4147 
L 1259 4147 
z
M 628 4666 
L 2053 4666 
Q 2838 4666 3239 4311 
Q 3641 3956 3641 3272 
Q 3641 2581 3239 2228 
Q 2838 1875 2053 1875 
L 1259 1875 
L 1259 0 
L 628 0 
L 628 4666 
z
" transform="scale(0.015625)"/>
      <path id="DejaVuSans-2c" d="M 750 794 
L 1409 794 
L 1409 256 
L 897 -744 
L 494 -744 
L 750 256 
L 750 794 
z
" transform="scale(0.015625)"/>
      <path id="DejaVuSans-4e" d="M 628 4666 
L 1478 4666 
L 3547 763 
L 3547 4666 
L 4159 4666 
L 4159 0 
L 3309 0 
L 1241 3903 
L 1241 0 
L 628 0 
L 628 4666 
z
" transform="scale(0.015625)"/>
     </defs>
     <use xlink:href="#DejaVuSans-28"/>
     <use xlink:href="#DejaVuSans-27" x="39.013672"/>
     <use xlink:href="#DejaVuSans-50" x="66.503906"/>
     <use xlink:href="#DejaVuSans-31" x="126.806641"/>
     <use xlink:href="#DejaVuSans-27" x="190.429688"/>
     <use xlink:href="#DejaVuSans-2c" x="217.919922"/>
     <use xlink:href="#DejaVuSans-20" x="249.707031"/>
     <use xlink:href="#DejaVuSans-27" x="281.494141"/>
     <use xlink:href="#DejaVuSans-64" x="308.984375"/>
     <use xlink:href="#DejaVuSans-65" x="372.460938"/>
     <use xlink:href="#DejaVuSans-70" x="433.984375"/>
     <use xlink:href="#DejaVuSans-74" x="497.460938"/>
     <use xlink:href="#DejaVuSans-68" x="536.669922"/>
     <use xlink:href="#DejaVuSans-4e" x="600.048828"/>
     <use xlink:href="#DejaVuSans-27" x="674.853516"/>
     <use xlink:href="#DejaVuSans-29" x="702.34375"/>
    </g>
   </g>
   <g id="text_16">
    <!-- depths -->
    <g transform="translate(538.319687 20.88) scale(0.12 -0.12)">
     <use xlink:href="#DejaVuSans-64"/>
     <use xlink:href="#DejaVuSans-65" x="63.476562"/>
     <use xlink:href="#DejaVuSans-70" x="125"/>
     <use xlink:href="#DejaVuSans-74" x="188.476562"/>
     <use xlink:href="#DejaVuSans-68" x="227.685547"/>
     <use xlink:href="#DejaVuSans-73" x="291.064453"/>
    </g>
   </g>
  </g>
  <g id="axes_3">
   <g id="patch_12">
    <path d="M 54.02 246.04 
L 354.6 246.04 
L 354.6 152.4 
L 54.02 152.4 
z
" style="fill: #ffffff"/>
   </g>
   <g id="matplotlib.axis_5">
    <g id="xtick_15">
     <g id="line2d_25">
      <g>
       <use xlink:href="#m2570e24996" x="67.682727" y="246.04" style="stroke: #000000; stroke-width: 0.8"/>
      </g>
     </g>
     <g id="text_17">
      <!-- 02-25 00 -->
      <g transform="translate(45.202259 260.638437) scale(0.1 -0.1)">
       <defs>
        <path id="DejaVuSans-2d" d="M 313 2009 
L 1997 2009 
L 1997 1497 
L 313 1497 
L 313 2009 
z
" transform="scale(0.015625)"/>
       </defs>
       <use xlink:href="#DejaVuSans-30"/>
       <use xlink:href="#DejaVuSans-32" x="63.623047"/>
       <use xlink:href="#DejaVuSans-2d" x="127.246094"/>
       <use xlink:href="#DejaVuSans-32" x="163.330078"/>
       <use xlink:href="#DejaVuSans-35" x="226.953125"/>
       <use xlink:href="#DejaVuSans-20" x="290.576172"/>
       <use xlink:href="#DejaVuSans-30" x="322.363281"/>
       <use xlink:href="#DejaVuSans-30" x="385.986328"/>
      </g>
     </g>
    </g>
    <g id="xtick_16">
     <g id="line2d_26">
      <g>
       <use xlink:href="#m2570e24996" x="109.728926" y="246.04" style="stroke: #000000; stroke-width: 0.8"/>
      </g>
     </g>
     <g id="text_18">
      <!-- 02-25 12 -->
      <g transform="translate(87.248457 260.638437) scale(0.1 -0.1)">
       <use xlink:href="#DejaVuSans-30"/>
       <use xlink:href="#DejaVuSans-32" x="63.623047"/>
       <use xlink:href="#DejaVuSans-2d" x="127.246094"/>
       <use xlink:href="#DejaVuSans-32" x="163.330078"/>
       <use xlink:href="#DejaVuSans-35" x="226.953125"/>
       <use xlink:href="#DejaVuSans-20" x="290.576172"/>
       <use xlink:href="#DejaVuSans-31" x="322.363281"/>
       <use xlink:href="#DejaVuSans-32" x="385.986328"/>
      </g>
     </g>
    </g>
    <g id="xtick_17">
     <g id="line2d_27">
      <g>
       <use xlink:href="#m2570e24996" x="151.775124" y="246.04" style="stroke: #000000; stroke-width: 0.8"/>
      </g>
     </g>
     <g id="text_19">
      <!-- 02-26 00 -->
      <g transform="translate(129.294655 260.638437) scale(0.1 -0.1)">
       <defs>
        <path id="DejaVuSans-36" d="M 2113 2584 
Q 1688 2584 1439 2293 
Q 1191 2003 1191 1497 
Q 1191 994 1439 701 
Q 1688 409 2113 409 
Q 2538 409 2786 701 
Q 3034 994 3034 1497 
Q 3034 2003 2786 2293 
Q 2538 2584 2113 2584 
z
M 3366 4563 
L 3366 3988 
Q 3128 4100 2886 4159 
Q 2644 4219 2406 4219 
Q 1781 4219 1451 3797 
Q 1122 3375 1075 2522 
Q 1259 2794 1537 2939 
Q 1816 3084 2150 3084 
Q 2853 3084 3261 2657 
Q 3669 2231 3669 1497 
Q 3669 778 3244 343 
Q 2819 -91 2113 -91 
Q 1303 -91 875 529 
Q 447 1150 447 2328 
Q 447 3434 972 4092 
Q 1497 4750 2381 4750 
Q 2619 4750 2861 4703 
Q 3103 4656 3366 4563 
z
" transform="scale(0.015625)"/>
       </defs>
       <use xlink:href="#DejaVuSans-30"/>
       <use xlink:href="#DejaVuSans-32" x="63.623047"/>
       <use xlink:href="#DejaVuSans-2d" x="127.246094"/>
       <use xlink:href="#DejaVuSans-32" x="163.330078"/>
       <use xlink:href="#DejaVuSans-36" x="226.953125"/>
       <use xlink:href="#DejaVuSans-20" x="290.576172"/>
       <use xlink:href="#DejaVuSans-30" x="322.363281"/>
       <use xlink:href="#DejaVuSans-30" x="385.986328"/>
      </g>
     </g>
    </g>
    <g id="xtick_18">
     <g id="line2d_28">
      <g>
       <use xlink:href="#m2570e24996" x="193.821323" y="246.04" style="stroke: #000000; stroke-width: 0.8"/>
      </g>
     </g>
     <g id="text_20">
      <!-- 02-26 12 -->
      <g transform="translate(171.340854 260.638437) scale(0.1 -0.1)">
       <use xlink:href="#DejaVuSans-30"/>
       <use xlink:href="#DejaVuSans-32" x="63.623047"/>
       <use xlink:href="#DejaVuSans-2d" x="127.246094"/>
       <use xlink:href="#DejaVuSans-32" x="163.330078"/>
       <use xlink:href="#DejaVuSans-36" x="226.953125"/>
       <use xlink:href="#DejaVuSans-20" x="290.576172"/>
       <use xlink:href="#DejaVuSans-31" x="322.363281"/>
       <use xlink:href="#DejaVuSans-32" x="385.986328"/>
      </g>
     </g>
    </g>
    <g id="xtick_19">
     <g id="line2d_29">
      <g>
       <use xlink:href="#m2570e24996" x="235.867521" y="246.04" style="stroke: #000000; stroke-width: 0.8"/>
      </g>
     </g>
     <g id="text_21">
      <!-- 02-27 00 -->
      <g transform="translate(213.387052 260.638437) scale(0.1 -0.1)">
       <defs>
        <path id="DejaVuSans-37" d="M 525 4666 
L 3525 4666 
L 3525 4397 
L 1831 0 
L 1172 0 
L 2766 4134 
L 525 4134 
L 525 4666 
z
" transform="scale(0.015625)"/>
       </defs>
       <use xlink:href="#DejaVuSans-30"/>
       <use xlink:href="#DejaVuSans-32" x="63.623047"/>
       <use xlink:href="#DejaVuSans-2d" x="127.246094"/>
       <use xlink:href="#DejaVuSans-32" x="163.330078"/>
       <use xlink:href="#DejaVuSans-37" x="226.953125"/>
       <use xlink:href="#DejaVuSans-20" x="290.576172"/>
       <use xlink:href="#DejaVuSans-30" x="322.363281"/>
       <use xlink:href="#DejaVuSans-30" x="385.986328"/>
      </g>
     </g>
    </g>
    <g id="xtick_20">
     <g id="line2d_30">
      <g>
       <use xlink:href="#m2570e24996" x="277.91372" y="246.04" style="stroke: #000000; stroke-width: 0.8"/>
      </g>
     </g>
     <g id="text_22">
      <!-- 02-27 12 -->
      <g transform="translate(255.433251 260.638437) scale(0.1 -0.1)">
       <use xlink:href="#DejaVuSans-30"/>
       <use xlink:href="#DejaVuSans-32" x="63.623047"/>
       <use xlink:href="#DejaVuSans-2d" x="127.246094"/>
       <use xlink:href="#DejaVuSans-32" x="163.330078"/>
       <use xlink:href="#DejaVuSans-37" x="226.953125"/>
       <use xlink:href="#DejaVuSans-20" x="290.576172"/>
       <use xlink:href="#DejaVuSans-31" x="322.363281"/>
       <use xlink:href="#DejaVuSans-32" x="385.986328"/>
      </g>
     </g>
    </g>
    <g id="xtick_21">
     <g id="line2d_31">
      <g>
       <use xlink:href="#m2570e24996" x="319.959918" y="246.04" style="stroke: #000000; stroke-width: 0.8"/>
      </g>
     </g>
     <g id="text_23">
      <!-- 02-28 00 -->
      <g transform="translate(297.479449 260.638437) scale(0.1 -0.1)">
       <defs>
        <path id="DejaVuSans-38" d="M 2034 2216 
Q 1584 2216 1326 1975 
Q 1069 1734 1069 1313 
Q 1069 891 1326 650 
Q 1584 409 2034 409 
Q 2484 409 2743 651 
Q 3003 894 3003 1313 
Q 3003 1734 2745 1975 
Q 2488 2216 2034 2216 
z
M 1403 2484 
Q 997 2584 770 2862 
Q 544 3141 544 3541 
Q 544 4100 942 4425 
Q 1341 4750 2034 4750 
Q 2731 4750 3128 4425 
Q 3525 4100 3525 3541 
Q 3525 3141 3298 2862 
Q 3072 2584 2669 2484 
Q 3125 2378 3379 2068 
Q 3634 1759 3634 1313 
Q 3634 634 3220 271 
Q 2806 -91 2034 -91 
Q 1263 -91 848 271 
Q 434 634 434 1313 
Q 434 1759 690 2068 
Q 947 2378 1403 2484 
z
M 1172 3481 
Q 1172 3119 1398 2916 
Q 1625 2713 2034 2713 
Q 2441 2713 2670 2916 
Q 2900 3119 2900 3481 
Q 2900 3844 2670 4047 
Q 2441 4250 2034 4250 
Q 1625 4250 1398 4047 
Q 1172 3844 1172 3481 
z
" transform="scale(0.015625)"/>
       </defs>
       <use xlink:href="#DejaVuSans-30"/>
       <use xlink:href="#DejaVuSans-32" x="63.623047"/>
       <use xlink:href="#DejaVuSans-2d" x="127.246094"/>
       <use xlink:href="#DejaVuSans-32" x="163.330078"/>
       <use xlink:href="#DejaVuSans-38" x="226.953125"/>
       <use xlink:href="#DejaVuSans-20" x="290.576172"/>
       <use xlink:href="#DejaVuSans-30" x="322.363281"/>
       <use xlink:href="#DejaVuSans-30" x="385.986328"/>
      </g>
     </g>
    </g>
    <g id="text_24">
     <!-- time -->
     <g transform="translate(193.013906 274.316562) scale(0.1 -0.1)">
      <use xlink:href="#DejaVuSans-74"/>
      <use xlink:href="#DejaVuSans-69" x="39.208984"/>
      <use xlink:href="#DejaVuSans-6d" x="66.992188"/>
      <use xlink:href="#DejaVuSans-65" x="164.404297"/>
     </g>
    </g>
   </g>
   <g id="matplotlib.axis_6">
    <g id="ytick_9">
     <g id="line2d_32">
      <g>
       <use xlink:href="#m947abefda3" x="54.02" y="241.783636" style="stroke: #000000; stroke-width: 0.8"/>
      </g>
     </g>
     <g id="text_25">
      <!-- 0.0 -->
      <g transform="translate(31.116875 245.582855) scale(0.1 -0.1)">
       <use xlink:href="#DejaVuSans-30"/>
       <use xlink:href="#DejaVuSans-2e" x="63.623047"/>
       <use xlink:href="#DejaVuSans-30" x="95.410156"/>
      </g>
     </g>
    </g>
    <g id="ytick_10">
     <g id="line2d_33">
      <g>
       <use xlink:href="#m947abefda3" x="54.02" y="201.402212" style="stroke: #000000; stroke-width: 0.8"/>
      </g>
     </g>
     <g id="text_26">
      <!-- 0.1 -->
      <g transform="translate(31.116875 205.201431) scale(0.1 -0.1)">
       <use xlink:href="#DejaVuSans-30"/>
       <use xlink:href="#DejaVuSans-2e" x="63.623047"/>
       <use xlink:href="#DejaVuSans-31" x="95.410156"/>
      </g>
     </g>
    </g>
    <g id="ytick_11">
     <g id="line2d_34">
      <g>
       <use xlink:href="#m947abefda3" x="54.02" y="161.020788" style="stroke: #000000; stroke-width: 0.8"/>
      </g>
     </g>
     <g id="text_27">
      <!-- 0.2 -->
      <g transform="translate(31.116875 164.820007) scale(0.1 -0.1)">
       <use xlink:href="#DejaVuSans-30"/>
       <use xlink:href="#DejaVuSans-2e" x="63.623047"/>
       <use xlink:href="#DejaVuSans-32" x="95.410156"/>
      </g>
     </g>
    </g>
    <g id="text_28">
     <!-- flow (cms) -->
     <g transform="translate(25.037188 225.2325) rotate(-90) scale(0.1 -0.1)">
      <use xlink:href="#DejaVuSans-66"/>
      <use xlink:href="#DejaVuSans-6c" x="35.205078"/>
      <use xlink:href="#DejaVuSans-6f" x="62.988281"/>
      <use xlink:href="#DejaVuSans-77" x="124.169922"/>
      <use xlink:href="#DejaVuSans-20" x="205.957031"/>
      <use xlink:href="#DejaVuSans-28" x="237.744141"/>
      <use xlink:href="#DejaVuSans-63" x="276.757812"/>
      <use xlink:href="#DejaVuSans-6d" x="331.738281"/>
      <use xlink:href="#DejaVuSans-73" x="429.150391"/>
      <use xlink:href="#DejaVuSans-29" x="481.25"/>
     </g>
    </g>
   </g>
   <g id="line2d_35">
    <path d="M 67.682727 241.783636 
L 73.347285 241.674388 
L 73.887461 241.403354 
L 74.285538 241.037796 
L 74.478249 240.693451 
L 74.737145 240.222695 
L 74.813062 240.199759 
L 75.101156 239.461583 
L 75.575149 237.616749 
L 76.090994 234.374338 
L 76.714874 228.692634 
L 77.3407 221.658152 
L 78.058989 212.797296 
L 78.922299 200.586324 
L 79.665894 186.493803 
L 79.726238 187.014672 
L 79.964694 184.036097 
L 80.024065 185.113038 
L 80.219697 182.004138 
L 80.406569 184.732204 
L 80.54283 183.496563 
L 80.61096 182.089761 
L 80.67909 182.620238 
L 80.881535 180.939392 
L 81.013903 181.036857 
L 81.14627 180.186379 
L 81.213428 180.512774 
L 81.414899 178.881673 
L 82.00958 173.259281 
L 82.205212 177.460228 
L 82.270422 177.02457 
L 82.336606 176.049964 
L 82.532238 170.68486 
L 82.596475 170.587979 
L 82.725923 173.201401 
L 82.791133 172.967992 
L 82.919608 171.89806 
L 83.049056 172.427328 
L 83.753719 168.387365 
L 83.816983 169.711468 
L 83.88122 169.129217 
L 84.071985 167.872912 
L 84.136222 168.764848 
L 84.199486 168.543395 
L 84.326014 167.708769 
L 84.389278 167.799214 
L 84.578097 164.464852 
L 84.640387 164.357398 
L 84.766915 167.992254 
L 84.830179 167.838991 
L 85.018998 166.700708 
L 85.081288 166.87799 
L 85.520243 165.472789 
L 85.645798 166.92862 
L 85.709062 166.900021 
L 85.833643 165.940946 
L 86.083779 162.297634 
L 86.269678 164.893066 
L 86.393286 164.371049 
L 86.454603 164.343338 
L 86.702792 162.747984 
L 86.8264 163.286231 
L 86.950008 162.742594 
L 87.012299 162.836897 
L 87.073616 163.173541 
L 87.135907 163.070283 
L 87.320833 162.225643 
L 87.38215 163.151629 
L 87.443467 163.101945 
L 87.750054 160.949934 
L 87.811372 160.58952 
L 87.872689 160.741231 
L 87.934006 161.558539 
L 87.99435 161.404954 
L 88.116985 160.690314 
L 88.23962 161.904403 
L 88.299964 161.699594 
L 88.665922 160.001173 
L 88.727239 159.824808 
L 88.8489 161.171087 
L 88.909244 161.005762 
L 89.030906 160.501816 
L 89.152567 161.080016 
L 89.577896 159.583747 
L 89.699557 160.322861 
L 90.066488 159.204129 
L 90.18815 158.700949 
L 90.372102 160.521846 
L 91.047566 158.575788 
L 91.108884 159.082916 
L 91.354153 157.817556 
L 91.475814 158.797094 
L 91.598449 158.548934 
L 91.659767 158.665009 
L 91.721084 159.271576 
L 91.782401 158.825525 
L 91.967327 158.251333 
L 92.089962 159.131501 
L 92.274887 158.319229 
L 92.336204 158.704187 
L 92.397522 158.838103 
L 92.458839 158.768015 
L 92.888061 157.976351 
L 93.072986 156.656364 
L 93.197567 157.83923 
L 93.258885 157.638346 
L 93.383466 157.35215 
L 93.570338 158.846628 
L 93.75721 158.66746 
L 93.945055 158.02486 
L 94.07061 158.208425 
L 94.132901 158.10999 
L 94.258455 157.878524 
L 94.447274 158.315975 
L 94.509565 158.235296 
L 94.572828 158.127199 
L 94.698383 158.542607 
L 94.761647 158.483528 
L 94.888175 158.126063 
L 95.076994 158.68149 
L 95.266785 158.268402 
L 95.456577 157.798948 
L 95.646369 158.719815 
L 95.709633 158.662405 
L 95.836161 158.125828 
L 95.961716 158.491346 
L 96.02498 158.428141 
L 96.088244 158.532658 
L 96.152481 158.437815 
L 96.344219 157.993016 
L 96.408456 158.160149 
L 96.472694 158.072393 
L 96.729643 157.49454 
L 96.792907 157.655649 
L 96.857144 157.730748 
L 96.985618 158.496942 
L 97.050829 158.418964 
L 97.245487 157.924682 
L 97.309725 158.085718 
L 97.504383 158.324494 
L 97.766198 158.174375 
L 97.831409 158.268415 
L 97.896619 158.088833 
L 97.962803 158.114808 
L 98.224619 158.392554 
L 98.356013 158.51334 
L 98.422197 158.295499 
L 98.554565 158.776096 
L 98.621722 158.793445 
L 98.820273 158.134281 
L 99.085982 158.023275 
L 99.219323 158.002871 
L 99.285507 158.030375 
L 99.419821 159.065195 
L 99.486005 159.121933 
L 99.754633 157.965216 
L 100.156603 158.425561 
L 100.359047 159.012705 
L 100.426204 158.870318 
L 100.494335 158.229363 
L 100.560519 158.276724 
L 100.762963 159.078718 
L 100.966381 159.993781 
L 101.170772 158.594135 
L 101.375164 158.704202 
L 101.570795 159.105053 
L 101.775187 158.603332 
L 101.902688 158.80516 
L 102.030189 159.001143 
L 102.148931 159.084568 
L 102.217061 158.849519 
L 102.395173 159.6106 
L 102.464277 159.681008 
L 102.651149 158.840061 
L 102.769891 159.178395 
L 102.897392 158.732885 
L 103.32272 160.073281 
L 103.383064 159.36457 
L 103.451195 159.725585 
L 103.638067 160.63306 
L 103.818126 159.481489 
L 103.877496 159.596657 
L 103.937841 159.492165 
L 103.997211 159.509321 
L 104.236641 160.193797 
L 104.296985 159.789572 
L 104.356356 160.09196 
L 104.535442 160.752585 
L 104.65613 160.251788 
L 104.716474 160.292246 
L 104.777791 160.436018 
L 104.898479 160.267751 
L 105.080485 160.652983 
L 105.201173 160.081534 
L 105.685872 160.956583 
L 105.746216 160.514656 
L 105.807534 160.593186 
L 105.988566 161.145097 
L 106.04891 161.129991 
L 106.230916 161.968218 
L 106.292233 161.500216 
L 106.476185 162.321886 
L 106.537502 162.330966 
L 106.59882 161.291168 
L 106.660137 161.310016 
L 106.844089 161.774773 
L 107.089359 162.831793 
L 107.15165 162.725163 
L 107.211994 162.103873 
L 107.273311 162.257856 
L 107.45629 162.984743 
L 107.577951 161.776277 
L 108.258282 164.304513 
L 108.382863 163.480783 
L 108.445154 163.529635 
L 108.569735 163.978121 
L 108.694317 162.963567 
L 108.755634 163.406353 
L 109.00285 164.472706 
L 109.127432 165.008832 
L 109.190695 164.778077 
L 109.252986 164.247995 
L 109.315277 164.58682 
L 109.439858 165.342112 
L 109.565413 164.494502 
L 109.628677 164.63715 
L 109.754231 165.098675 
L 109.878813 164.229614 
L 110.315821 166.967893 
L 110.379085 166.777363 
L 110.442349 166.019902 
L 110.504639 166.112974 
L 110.694431 167.855203 
L 110.887143 171.461756 
L 111.014644 169.273959 
L 111.207356 170.486872 
L 111.271593 169.295772 
L 111.33583 169.834032 
L 111.464305 170.766361 
L 111.528542 169.362557 
L 111.592779 169.863725 
L 111.785491 171.755336 
L 111.849728 170.314032 
L 111.913965 170.328339 
L 112.043413 171.042512 
L 112.107651 170.994217 
L 112.236125 169.782657 
L 112.428837 171.125574 
L 112.621548 174.095466 
L 112.686759 174.00957 
L 112.75197 173.361165 
L 112.816207 173.794271 
L 112.946628 174.957631 
L 113.078022 173.40627 
L 113.14226 173.778105 
L 113.338864 176.492864 
L 113.536443 178.998088 
L 113.6036 177.466149 
L 113.66881 177.607776 
L 113.868335 179.078084 
L 113.934519 178.064824 
L 113.999729 178.606136 
L 114.399752 183.935896 
L 114.53504 182.085668 
L 115.010979 186.287175 
L 115.288368 190.836948 
L 115.357471 189.362978 
L 115.634859 194.091888 
L 115.813945 200.275355 
L 116.431012 207.816839 
L 117.459781 215.385907 
L 118.063222 217.985408 
L 118.818496 220.823739 
L 118.95573 221.11872 
L 119.589343 222.792487 
L 120.447786 224.794501 
L 121.600164 226.868193 
L 122.641586 228.234063 
L 122.885882 228.521297 
L 123.383234 229.16268 
L 124.403244 230.294932 
L 124.531718 230.361295 
L 125.578007 231.377571 
L 125.776558 231.538158 
L 126.176581 231.984238 
L 129.055578 234.29537 
L 129.201571 234.237346 
L 129.345619 234.392933 
L 129.566556 234.676837 
L 129.862436 234.789917 
L 130.769544 235.461584 
L 130.999241 235.530224 
L 132.638264 236.511789 
L 134.137133 237.353475 
L 135.45205 237.9212 
L 135.722625 238.001279 
L 136.065224 238.21839 
L 136.556736 238.409371 
L 138.077991 238.916632 
L 138.302821 238.915618 
L 138.993859 239.29699 
L 139.791958 239.553931 
L 140.036254 239.602015 
L 142.706966 240.278533 
L 142.794562 240.195266 
L 143.057351 240.336432 
L 143.407736 240.265507 
L 143.582929 240.274748 
L 143.845717 240.451012 
L 144.108506 240.469341 
L 147.437163 240.885449 
L 152.43015 241.172589 
L 152.692938 241.142266 
L 152.955727 241.212972 
L 168.898244 241.522545 
L 214.2731 241.715161 
L 334.630343 241.770521 
L 340.937273 241.770899 
L 340.937273 241.770899 
" clip-path="url(#p8985bb737c)" style="fill: none; stroke: #1f77b4; stroke-width: 1.5; stroke-linecap: square"/>
   </g>
   <g id="patch_13">
    <path d="M 54.02 246.04 
L 54.02 152.4 
" style="fill: none; stroke: #000000; stroke-width: 0.8; stroke-linejoin: miter; stroke-linecap: square"/>
   </g>
   <g id="patch_14">
    <path d="M 354.6 246.04 
L 354.6 152.4 
" style="fill: none; stroke: #000000; stroke-width: 0.8; stroke-linejoin: miter; stroke-linecap: square"/>
   </g>
   <g id="patch_15">
    <path d="M 54.02 246.04 
L 354.6 246.04 
" style="fill: none; stroke: #000000; stroke-width: 0.8; stroke-linejoin: miter; stroke-linecap: square"/>
   </g>
   <g id="patch_16">
    <path d="M 54.02 152.4 
L 354.6 152.4 
" style="fill: none; stroke: #000000; stroke-width: 0.8; stroke-linejoin: miter; stroke-linecap: square"/>
   </g>
   <g id="text_29">
    <!-- 2 -->
    <g transform="translate(198.8128 175.8962) scale(0.1728 -0.1728)">
     <use xlink:href="#DejaVuSans-32"/>
    </g>
   </g>
  </g>
  <g id="axes_4">
   <g id="patch_17">
    <path d="M 408.62 246.04 
L 709.2 246.04 
L 709.2 152.4 
L 408.62 152.4 
z
" style="fill: #ffffff"/>
   </g>
   <g id="matplotlib.axis_7">
    <g id="xtick_22">
     <g id="line2d_36">
      <g>
       <use xlink:href="#m2570e24996" x="422.282727" y="246.04" style="stroke: #000000; stroke-width: 0.8"/>
      </g>
     </g>
     <g id="text_30">
      <!-- 02-25 00 -->
      <g transform="translate(399.802259 260.638437) scale(0.1 -0.1)">
       <use xlink:href="#DejaVuSans-30"/>
       <use xlink:href="#DejaVuSans-32" x="63.623047"/>
       <use xlink:href="#DejaVuSans-2d" x="127.246094"/>
       <use xlink:href="#DejaVuSans-32" x="163.330078"/>
       <use xlink:href="#DejaVuSans-35" x="226.953125"/>
       <use xlink:href="#DejaVuSans-20" x="290.576172"/>
       <use xlink:href="#DejaVuSans-30" x="322.363281"/>
       <use xlink:href="#DejaVuSans-30" x="385.986328"/>
      </g>
     </g>
    </g>
    <g id="xtick_23">
     <g id="line2d_37">
      <g>
       <use xlink:href="#m2570e24996" x="464.328926" y="246.04" style="stroke: #000000; stroke-width: 0.8"/>
      </g>
     </g>
     <g id="text_31">
      <!-- 02-25 12 -->
      <g transform="translate(441.848457 260.638437) scale(0.1 -0.1)">
       <use xlink:href="#DejaVuSans-30"/>
       <use xlink:href="#DejaVuSans-32" x="63.623047"/>
       <use xlink:href="#DejaVuSans-2d" x="127.246094"/>
       <use xlink:href="#DejaVuSans-32" x="163.330078"/>
       <use xlink:href="#DejaVuSans-35" x="226.953125"/>
       <use xlink:href="#DejaVuSans-20" x="290.576172"/>
       <use xlink:href="#DejaVuSans-31" x="322.363281"/>
       <use xlink:href="#DejaVuSans-32" x="385.986328"/>
      </g>
     </g>
    </g>
    <g id="xtick_24">
     <g id="line2d_38">
      <g>
       <use xlink:href="#m2570e24996" x="506.375124" y="246.04" style="stroke: #000000; stroke-width: 0.8"/>
      </g>
     </g>
     <g id="text_32">
      <!-- 02-26 00 -->
      <g transform="translate(483.894655 260.638437) scale(0.1 -0.1)">
       <use xlink:href="#DejaVuSans-30"/>
       <use xlink:href="#DejaVuSans-32" x="63.623047"/>
       <use xlink:href="#DejaVuSans-2d" x="127.246094"/>
       <use xlink:href="#DejaVuSans-32" x="163.330078"/>
       <use xlink:href="#DejaVuSans-36" x="226.953125"/>
       <use xlink:href="#DejaVuSans-20" x="290.576172"/>
       <use xlink:href="#DejaVuSans-30" x="322.363281"/>
       <use xlink:href="#DejaVuSans-30" x="385.986328"/>
      </g>
     </g>
    </g>
    <g id="xtick_25">
     <g id="line2d_39">
      <g>
       <use xlink:href="#m2570e24996" x="548.421323" y="246.04" style="stroke: #000000; stroke-width: 0.8"/>
      </g>
     </g>
     <g id="text_33">
      <!-- 02-26 12 -->
      <g transform="translate(525.940854 260.638437) scale(0.1 -0.1)">
       <use xlink:href="#DejaVuSans-30"/>
       <use xlink:href="#DejaVuSans-32" x="63.623047"/>
       <use xlink:href="#DejaVuSans-2d" x="127.246094"/>
       <use xlink:href="#DejaVuSans-32" x="163.330078"/>
       <use xlink:href="#DejaVuSans-36" x="226.953125"/>
       <use xlink:href="#DejaVuSans-20" x="290.576172"/>
       <use xlink:href="#DejaVuSans-31" x="322.363281"/>
       <use xlink:href="#DejaVuSans-32" x="385.986328"/>
      </g>
     </g>
    </g>
    <g id="xtick_26">
     <g id="line2d_40">
      <g>
       <use xlink:href="#m2570e24996" x="590.467521" y="246.04" style="stroke: #000000; stroke-width: 0.8"/>
      </g>
     </g>
     <g id="text_34">
      <!-- 02-27 00 -->
      <g transform="translate(567.987052 260.638437) scale(0.1 -0.1)">
       <use xlink:href="#DejaVuSans-30"/>
       <use xlink:href="#DejaVuSans-32" x="63.623047"/>
       <use xlink:href="#DejaVuSans-2d" x="127.246094"/>
       <use xlink:href="#DejaVuSans-32" x="163.330078"/>
       <use xlink:href="#DejaVuSans-37" x="226.953125"/>
       <use xlink:href="#DejaVuSans-20" x="290.576172"/>
       <use xlink:href="#DejaVuSans-30" x="322.363281"/>
       <use xlink:href="#DejaVuSans-30" x="385.986328"/>
      </g>
     </g>
    </g>
    <g id="xtick_27">
     <g id="line2d_41">
      <g>
       <use xlink:href="#m2570e24996" x="632.51372" y="246.04" style="stroke: #000000; stroke-width: 0.8"/>
      </g>
     </g>
     <g id="text_35">
      <!-- 02-27 12 -->
      <g transform="translate(610.033251 260.638437) scale(0.1 -0.1)">
       <use xlink:href="#DejaVuSans-30"/>
       <use xlink:href="#DejaVuSans-32" x="63.623047"/>
       <use xlink:href="#DejaVuSans-2d" x="127.246094"/>
       <use xlink:href="#DejaVuSans-32" x="163.330078"/>
       <use xlink:href="#DejaVuSans-37" x="226.953125"/>
       <use xlink:href="#DejaVuSans-20" x="290.576172"/>
       <use xlink:href="#DejaVuSans-31" x="322.363281"/>
       <use xlink:href="#DejaVuSans-32" x="385.986328"/>
      </g>
     </g>
    </g>
    <g id="xtick_28">
     <g id="line2d_42">
      <g>
       <use xlink:href="#m2570e24996" x="674.559918" y="246.04" style="stroke: #000000; stroke-width: 0.8"/>
      </g>
     </g>
     <g id="text_36">
      <!-- 02-28 00 -->
      <g transform="translate(652.079449 260.638437) scale(0.1 -0.1)">
       <use xlink:href="#DejaVuSans-30"/>
       <use xlink:href="#DejaVuSans-32" x="63.623047"/>
       <use xlink:href="#DejaVuSans-2d" x="127.246094"/>
       <use xlink:href="#DejaVuSans-32" x="163.330078"/>
       <use xlink:href="#DejaVuSans-38" x="226.953125"/>
       <use xlink:href="#DejaVuSans-20" x="290.576172"/>
       <use xlink:href="#DejaVuSans-30" x="322.363281"/>
       <use xlink:href="#DejaVuSans-30" x="385.986328"/>
      </g>
     </g>
    </g>
    <g id="text_37">
     <!-- time -->
     <g transform="translate(547.613906 274.316562) scale(0.1 -0.1)">
      <use xlink:href="#DejaVuSans-74"/>
      <use xlink:href="#DejaVuSans-69" x="39.208984"/>
      <use xlink:href="#DejaVuSans-6d" x="66.992188"/>
      <use xlink:href="#DejaVuSans-65" x="164.404297"/>
     </g>
    </g>
   </g>
   <g id="matplotlib.axis_8">
    <g id="ytick_12">
     <g id="line2d_43">
      <g>
       <use xlink:href="#m947abefda3" x="408.62" y="241.783636" style="stroke: #000000; stroke-width: 0.8"/>
      </g>
     </g>
     <g id="text_38">
      <!-- 0 -->
      <g transform="translate(395.2575 245.582855) scale(0.1 -0.1)">
       <use xlink:href="#DejaVuSans-30"/>
      </g>
     </g>
    </g>
    <g id="ytick_13">
     <g id="line2d_44">
      <g>
       <use xlink:href="#m947abefda3" x="408.62" y="198.946236" style="stroke: #000000; stroke-width: 0.8"/>
      </g>
     </g>
     <g id="text_39">
      <!-- 1 -->
      <g transform="translate(395.2575 202.745455) scale(0.1 -0.1)">
       <use xlink:href="#DejaVuSans-31"/>
      </g>
     </g>
    </g>
    <g id="ytick_14">
     <g id="line2d_45">
      <g>
       <use xlink:href="#m947abefda3" x="408.62" y="156.108836" style="stroke: #000000; stroke-width: 0.8"/>
      </g>
     </g>
     <g id="text_40">
      <!-- 2 -->
      <g transform="translate(395.2575 159.908055) scale(0.1 -0.1)">
       <use xlink:href="#DejaVuSans-32"/>
      </g>
     </g>
    </g>
    <g id="text_41">
     <!-- depth (m) -->
     <g transform="translate(389.177812 224.134844) rotate(-90) scale(0.1 -0.1)">
      <use xlink:href="#DejaVuSans-64"/>
      <use xlink:href="#DejaVuSans-65" x="63.476562"/>
      <use xlink:href="#DejaVuSans-70" x="125"/>
      <use xlink:href="#DejaVuSans-74" x="188.476562"/>
      <use xlink:href="#DejaVuSans-68" x="227.685547"/>
      <use xlink:href="#DejaVuSans-20" x="291.064453"/>
      <use xlink:href="#DejaVuSans-28" x="322.851562"/>
      <use xlink:href="#DejaVuSans-6d" x="361.865234"/>
      <use xlink:href="#DejaVuSans-29" x="459.277344"/>
     </g>
    </g>
   </g>
   <g id="line2d_46">
    <path d="M 422.282727 241.783636 
L 426.897103 241.691547 
L 427.597873 241.419633 
L 428.344388 240.877594 
L 429.199911 239.952285 
L 429.771233 239.096077 
L 430.486602 237.575429 
L 431.761614 234.237694 
L 433.710144 229.389773 
L 434.879068 226.640124 
L 436.346791 221.710417 
L 437.519608 217.240084 
L 439.49247 208.655753 
L 441.116894 200.331691 
L 442.59435 191.778699 
L 445.279662 176.07187 
L 447.304109 166.279859 
L 448.170338 163.182737 
L 449.109565 160.523619 
L 450.309633 157.860168 
L 450.880955 157.016744 
L 451.329643 156.713904 
L 451.780277 156.662226 
L 452.234804 156.829759 
L 452.759408 157.267442 
L 453.420273 158.128702 
L 454.220319 159.604049 
L 455.227676 162.085451 
L 456.434557 165.758906 
L 457.863349 170.979323 
L 459.438135 177.532812 
L 461.689359 188.044354 
L 463.852986 198.956095 
L 468.2036 220.894686 
L 469.542849 226.68901 
L 470.353601 229.411614 
L 471.031012 230.828816 
L 471.796019 231.954522 
L 472.730379 232.910961 
L 473.764015 233.669822 
L 475.252178 234.45716 
L 477.424565 235.283612 
L 480.376558 236.166967 
L 485.214791 237.368202 
L 492.08623 238.812247 
L 497.044177 239.648535 
L 501.161201 240.106023 
L 507.380535 240.497841 
L 518.154873 240.853332 
L 536.725277 241.136446 
L 560.726649 241.311602 
L 615.912284 241.488652 
L 695.537273 241.59239 
L 695.537273 241.59239 
" clip-path="url(#pa4590f08fa)" style="fill: none; stroke: #1f77b4; stroke-width: 1.5; stroke-linecap: square"/>
   </g>
   <g id="patch_18">
    <path d="M 408.62 246.04 
L 408.62 152.4 
" style="fill: none; stroke: #000000; stroke-width: 0.8; stroke-linejoin: miter; stroke-linecap: square"/>
   </g>
   <g id="patch_19">
    <path d="M 709.2 246.04 
L 709.2 152.4 
" style="fill: none; stroke: #000000; stroke-width: 0.8; stroke-linejoin: miter; stroke-linecap: square"/>
   </g>
   <g id="patch_20">
    <path d="M 408.62 246.04 
L 709.2 246.04 
" style="fill: none; stroke: #000000; stroke-width: 0.8; stroke-linejoin: miter; stroke-linecap: square"/>
   </g>
   <g id="patch_21">
    <path d="M 408.62 152.4 
L 709.2 152.4 
" style="fill: none; stroke: #000000; stroke-width: 0.8; stroke-linejoin: miter; stroke-linecap: square"/>
   </g>
   <g id="text_42">
    <!-- ('P2', 'depthN') -->
    <g transform="translate(494.8579 175.8962) scale(0.1728 -0.1728)">
     <use xlink:href="#DejaVuSans-28"/>
     <use xlink:href="#DejaVuSans-27" x="39.013672"/>
     <use xlink:href="#DejaVuSans-50" x="66.503906"/>
     <use xlink:href="#DejaVuSans-32" x="126.806641"/>
     <use xlink:href="#DejaVuSans-27" x="190.429688"/>
     <use xlink:href="#DejaVuSans-2c" x="217.919922"/>
     <use xlink:href="#DejaVuSans-20" x="249.707031"/>
     <use xlink:href="#DejaVuSans-27" x="281.494141"/>
     <use xlink:href="#DejaVuSans-64" x="308.984375"/>
     <use xlink:href="#DejaVuSans-65" x="372.460938"/>
     <use xlink:href="#DejaVuSans-70" x="433.984375"/>
     <use xlink:href="#DejaVuSans-74" x="497.460938"/>
     <use xlink:href="#DejaVuSans-68" x="536.669922"/>
     <use xlink:href="#DejaVuSans-4e" x="600.048828"/>
     <use xlink:href="#DejaVuSans-27" x="674.853516"/>
     <use xlink:href="#DejaVuSans-29" x="702.34375"/>
    </g>
   </g>
   <g id="text_43">
    <!-- cost: 5.43e+03 -->
    <g transform="translate(492.53995 203.9882) scale(0.1728 -0.1728)">
     <defs>
      <path id="DejaVuSans-3a" d="M 750 794 
L 1409 794 
L 1409 0 
L 750 0 
L 750 794 
z
M 750 3309 
L 1409 3309 
L 1409 2516 
L 750 2516 
L 750 3309 
z
" transform="scale(0.015625)"/>
      <path id="DejaVuSans-34" d="M 2419 4116 
L 825 1625 
L 2419 1625 
L 2419 4116 
z
M 2253 4666 
L 3047 4666 
L 3047 1625 
L 3713 1625 
L 3713 1100 
L 3047 1100 
L 3047 0 
L 2419 0 
L 2419 1100 
L 313 1100 
L 313 1709 
L 2253 4666 
z
" transform="scale(0.015625)"/>
      <path id="DejaVuSans-2b" d="M 2944 4013 
L 2944 2272 
L 4684 2272 
L 4684 1741 
L 2944 1741 
L 2944 0 
L 2419 0 
L 2419 1741 
L 678 1741 
L 678 2272 
L 2419 2272 
L 2419 4013 
L 2944 4013 
z
" transform="scale(0.015625)"/>
     </defs>
     <use xlink:href="#DejaVuSans-63"/>
     <use xlink:href="#DejaVuSans-6f" x="54.980469"/>
     <use xlink:href="#DejaVuSans-73" x="116.162109"/>
     <use xlink:href="#DejaVuSans-74" x="168.261719"/>
     <use xlink:href="#DejaVuSans-3a" x="207.470703"/>
     <use xlink:href="#DejaVuSans-20" x="241.162109"/>
     <use xlink:href="#DejaVuSans-35" x="272.949219"/>
     <use xlink:href="#DejaVuSans-2e" x="336.572266"/>
     <use xlink:href="#DejaVuSans-34" x="368.359375"/>
     <use xlink:href="#DejaVuSans-33" x="431.982422"/>
     <use xlink:href="#DejaVuSans-65" x="495.605469"/>
     <use xlink:href="#DejaVuSans-2b" x="557.128906"/>
     <use xlink:href="#DejaVuSans-30" x="640.917969"/>
     <use xlink:href="#DejaVuSans-33" x="704.541016"/>
    </g>
   </g>
  </g>
 </g>
 <defs>
  <clipPath id="p57589f18f2">
   <rect x="54.02" y="26.88" width="300.58" height="93.64"/>
  </clipPath>
  <clipPath id="pb18b3c0c95">
   <rect x="408.62" y="26.88" width="300.58" height="93.64"/>
  </clipPath>
  <clipPath id="p8985bb737c">
   <rect x="54.02" y="152.4" width="300.58" height="93.64"/>
  </clipPath>
  <clipPath id="pa4590f08fa">
   <rect x="408.62" y="152.4" width="300.58" height="93.64"/>
  </clipPath>
 </defs>
</svg>
