<?xml version="1.0" encoding="utf-8" standalone="no"?>
<!DOCTYPE svg PUBLIC "-//W3C//DTD SVG 1.1//EN"
  "http://www.w3.org/Graphics/SVG/1.1/DTD/svg11.dtd">
<svg xmlns:xlink="http://www.w3.org/1999/xlink" width="720pt" height="288pt" viewBox="0 0 720 288" xmlns="http://www.w3.org/2000/svg" version="1.1">
 <metadata>
  <rdf:RDF xmlns:dc="http://purl.org/dc/elements/1.1/" xmlns:cc="http://creativecommons.org/ns#" xmlns:rdf="http://www.w3.org/1999/02/22-rdf-syntax-ns#">
   <cc:Work>
    <dc:type rdf:resource="http://purl.org/dc/dcmitype/StillImage"/>
    <dc:date>2025-03-04T09:55:39.816943</dc:date>
    <dc:format>image/svg+xml</dc:format>
    <dc:creator>
     <cc:Agent>
      <dc:title>Matplotlib v3.9.4, https://matplotlib.org/</dc:title>
     </cc:Agent>
    </dc:creator>
   </cc:Work>
  </rdf:RDF>
 </metadata>
 <defs>
  <style type="text/css">*{stroke-linejoin: round; stroke-linecap: butt}</style>
 </defs>
 <g id="figure_1">
  <g id="patch_1">
   <path d="M 0 288 
L 720 288 
L 720 0 
L 0 0 
z
" style="fill: #ffffff"/>
  </g>
  <g id="axes_1">
   <g id="patch_2">
    <path d="M 47.72 120.52 
L 343.805367 120.52 
L 343.805367 26.88 
L 47.72 26.88 
z
" style="fill: #ffffff"/>
   </g>
   <g id="matplotlib.axis_1">
    <g id="xtick_1">
     <g id="line2d_1">
      <defs>
       <path id="m3bbd752de1" d="M 0 0 
L 0 3.5 
" style="stroke: #000000; stroke-width: 0.8"/>
      </defs>
      <g>
       <use xlink:href="#m3bbd752de1" x="61.178426" y="120.52" style="stroke: #000000; stroke-width: 0.8"/>
      </g>
     </g>
    </g>
    <g id="xtick_2">
     <g id="line2d_2">
      <g>
       <use xlink:href="#m3bbd752de1" x="91.0865" y="120.52" style="stroke: #000000; stroke-width: 0.8"/>
      </g>
     </g>
    </g>
    <g id="xtick_3">
     <g id="line2d_3">
      <g>
       <use xlink:href="#m3bbd752de1" x="120.994575" y="120.52" style="stroke: #000000; stroke-width: 0.8"/>
      </g>
     </g>
    </g>
    <g id="xtick_4">
     <g id="line2d_4">
      <g>
       <use xlink:href="#m3bbd752de1" x="150.902649" y="120.52" style="stroke: #000000; stroke-width: 0.8"/>
      </g>
     </g>
    </g>
    <g id="xtick_5">
     <g id="line2d_5">
      <g>
       <use xlink:href="#m3bbd752de1" x="180.810723" y="120.52" style="stroke: #000000; stroke-width: 0.8"/>
      </g>
     </g>
    </g>
    <g id="xtick_6">
     <g id="line2d_6">
      <g>
       <use xlink:href="#m3bbd752de1" x="210.718798" y="120.52" style="stroke: #000000; stroke-width: 0.8"/>
      </g>
     </g>
    </g>
    <g id="xtick_7">
     <g id="line2d_7">
      <g>
       <use xlink:href="#m3bbd752de1" x="240.626872" y="120.52" style="stroke: #000000; stroke-width: 0.8"/>
      </g>
     </g>
    </g>
    <g id="xtick_8">
     <g id="line2d_8">
      <g>
       <use xlink:href="#m3bbd752de1" x="270.534947" y="120.52" style="stroke: #000000; stroke-width: 0.8"/>
      </g>
     </g>
    </g>
    <g id="xtick_9">
     <g id="line2d_9">
      <g>
       <use xlink:href="#m3bbd752de1" x="300.443021" y="120.52" style="stroke: #000000; stroke-width: 0.8"/>
      </g>
     </g>
    </g>
    <g id="xtick_10">
     <g id="line2d_10">
      <g>
       <use xlink:href="#m3bbd752de1" x="330.351095" y="120.52" style="stroke: #000000; stroke-width: 0.8"/>
      </g>
     </g>
    </g>
    <g id="text_1">
     <!-- time -->
     <g transform="translate(184.46659 139.118437) scale(0.1 -0.1)">
      <defs>
       <path id="DejaVuSans-74" d="M 1172 4494 
L 1172 3500 
L 2356 3500 
L 2356 3053 
L 1172 3053 
L 1172 1153 
Q 1172 725 1289 603 
Q 1406 481 1766 481 
L 2356 481 
L 2356 0 
L 1766 0 
Q 1100 0 847 248 
Q 594 497 594 1153 
L 594 3053 
L 172 3053 
L 172 3500 
L 594 3500 
L 594 4494 
L 1172 4494 
z
" transform="scale(0.015625)"/>
       <path id="DejaVuSans-69" d="M 603 3500 
L 1178 3500 
L 1178 0 
L 603 0 
L 603 3500 
z
M 603 4863 
L 1178 4863 
L 1178 4134 
L 603 4134 
L 603 4863 
z
" transform="scale(0.015625)"/>
       <path id="DejaVuSans-6d" d="M 3328 2828 
Q 3544 3216 3844 3400 
Q 4144 3584 4550 3584 
Q 5097 3584 5394 3201 
Q 5691 2819 5691 2113 
L 5691 0 
L 5113 0 
L 5113 2094 
Q 5113 2597 4934 2840 
Q 4756 3084 4391 3084 
Q 3944 3084 3684 2787 
Q 3425 2491 3425 1978 
L 3425 0 
L 2847 0 
L 2847 2094 
Q 2847 2600 2669 2842 
Q 2491 3084 2119 3084 
Q 1678 3084 1418 2786 
Q 1159 2488 1159 1978 
L 1159 0 
L 581 0 
L 581 3500 
L 1159 3500 
L 1159 2956 
Q 1356 3278 1631 3431 
Q 1906 3584 2284 3584 
Q 2666 3584 2933 3390 
Q 3200 3197 3328 2828 
z
" transform="scale(0.015625)"/>
       <path id="DejaVuSans-65" d="M 3597 1894 
L 3597 1613 
L 953 1613 
Q 991 1019 1311 708 
Q 1631 397 2203 397 
Q 2534 397 2845 478 
Q 3156 559 3463 722 
L 3463 178 
Q 3153 47 2828 -22 
Q 2503 -91 2169 -91 
Q 1331 -91 842 396 
Q 353 884 353 1716 
Q 353 2575 817 3079 
Q 1281 3584 2069 3584 
Q 2775 3584 3186 3129 
Q 3597 2675 3597 1894 
z
M 3022 2063 
Q 3016 2534 2758 2815 
Q 2500 3097 2075 3097 
Q 1594 3097 1305 2825 
Q 1016 2553 972 2059 
L 3022 2063 
z
" transform="scale(0.015625)"/>
      </defs>
      <use xlink:href="#DejaVuSans-74"/>
      <use xlink:href="#DejaVuSans-69" x="39.208984"/>
      <use xlink:href="#DejaVuSans-6d" x="66.992188"/>
      <use xlink:href="#DejaVuSans-65" x="164.404297"/>
     </g>
    </g>
   </g>
   <g id="matplotlib.axis_2">
    <g id="ytick_1">
     <g id="line2d_11">
      <defs>
       <path id="ma856aa3135" d="M 0 0 
L -3.5 0 
" style="stroke: #000000; stroke-width: 0.8"/>
      </defs>
      <g>
       <use xlink:href="#ma856aa3135" x="47.72" y="116.263636" style="stroke: #000000; stroke-width: 0.8"/>
      </g>
     </g>
     <g id="text_2">
      <!-- 0.0 -->
      <g transform="translate(24.816875 120.062855) scale(0.1 -0.1)">
       <defs>
        <path id="DejaVuSans-30" d="M 2034 4250 
Q 1547 4250 1301 3770 
Q 1056 3291 1056 2328 
Q 1056 1369 1301 889 
Q 1547 409 2034 409 
Q 2525 409 2770 889 
Q 3016 1369 3016 2328 
Q 3016 3291 2770 3770 
Q 2525 4250 2034 4250 
z
M 2034 4750 
Q 2819 4750 3233 4129 
Q 3647 3509 3647 2328 
Q 3647 1150 3233 529 
Q 2819 -91 2034 -91 
Q 1250 -91 836 529 
Q 422 1150 422 2328 
Q 422 3509 836 4129 
Q 1250 4750 2034 4750 
z
" transform="scale(0.015625)"/>
        <path id="DejaVuSans-2e" d="M 684 794 
L 1344 794 
L 1344 0 
L 684 0 
L 684 794 
z
" transform="scale(0.015625)"/>
       </defs>
       <use xlink:href="#DejaVuSans-30"/>
       <use xlink:href="#DejaVuSans-2e" x="63.623047"/>
       <use xlink:href="#DejaVuSans-30" x="95.410156"/>
      </g>
     </g>
    </g>
    <g id="ytick_2">
     <g id="line2d_12">
      <g>
       <use xlink:href="#ma856aa3135" x="47.72" y="91.676592" style="stroke: #000000; stroke-width: 0.8"/>
      </g>
     </g>
     <g id="text_3">
      <!-- 0.1 -->
      <g transform="translate(24.816875 95.475811) scale(0.1 -0.1)">
       <defs>
        <path id="DejaVuSans-31" d="M 794 531 
L 1825 531 
L 1825 4091 
L 703 3866 
L 703 4441 
L 1819 4666 
L 2450 4666 
L 2450 531 
L 3481 531 
L 3481 0 
L 794 0 
L 794 531 
z
" transform="scale(0.015625)"/>
       </defs>
       <use xlink:href="#DejaVuSans-30"/>
       <use xlink:href="#DejaVuSans-2e" x="63.623047"/>
       <use xlink:href="#DejaVuSans-31" x="95.410156"/>
      </g>
     </g>
    </g>
    <g id="ytick_3">
     <g id="line2d_13">
      <g>
       <use xlink:href="#ma856aa3135" x="47.72" y="67.089548" style="stroke: #000000; stroke-width: 0.8"/>
      </g>
     </g>
     <g id="text_4">
      <!-- 0.2 -->
      <g transform="translate(24.816875 70.888767) scale(0.1 -0.1)">
       <defs>
        <path id="DejaVuSans-32" d="M 1228 531 
L 3431 531 
L 3431 0 
L 469 0 
L 469 531 
Q 828 903 1448 1529 
Q 2069 2156 2228 2338 
Q 2531 2678 2651 2914 
Q 2772 3150 2772 3378 
Q 2772 3750 2511 3984 
Q 2250 4219 1831 4219 
Q 1534 4219 1204 4116 
Q 875 4013 500 3803 
L 500 4441 
Q 881 4594 1212 4672 
Q 1544 4750 1819 4750 
Q 2544 4750 2975 4387 
Q 3406 4025 3406 3419 
Q 3406 3131 3298 2873 
Q 3191 2616 2906 2266 
Q 2828 2175 2409 1742 
Q 1991 1309 1228 531 
z
" transform="scale(0.015625)"/>
       </defs>
       <use xlink:href="#DejaVuSans-30"/>
       <use xlink:href="#DejaVuSans-2e" x="63.623047"/>
       <use xlink:href="#DejaVuSans-32" x="95.410156"/>
      </g>
     </g>
    </g>
    <g id="ytick_4">
     <g id="line2d_14">
      <g>
       <use xlink:href="#ma856aa3135" x="47.72" y="42.502504" style="stroke: #000000; stroke-width: 0.8"/>
      </g>
     </g>
     <g id="text_5">
      <!-- 0.3 -->
      <g transform="translate(24.816875 46.301723) scale(0.1 -0.1)">
       <defs>
        <path id="DejaVuSans-33" d="M 2597 2516 
Q 3050 2419 3304 2112 
Q 3559 1806 3559 1356 
Q 3559 666 3084 287 
Q 2609 -91 1734 -91 
Q 1441 -91 1130 -33 
Q 819 25 488 141 
L 488 750 
Q 750 597 1062 519 
Q 1375 441 1716 441 
Q 2309 441 2620 675 
Q 2931 909 2931 1356 
Q 2931 1769 2642 2001 
Q 2353 2234 1838 2234 
L 1294 2234 
L 1294 2753 
L 1863 2753 
Q 2328 2753 2575 2939 
Q 2822 3125 2822 3475 
Q 2822 3834 2567 4026 
Q 2313 4219 1838 4219 
Q 1578 4219 1281 4162 
Q 984 4106 628 3988 
L 628 4550 
Q 988 4650 1302 4700 
Q 1616 4750 1894 4750 
Q 2613 4750 3031 4423 
Q 3450 4097 3450 3541 
Q 3450 3153 3228 2886 
Q 3006 2619 2597 2516 
z
" transform="scale(0.015625)"/>
       </defs>
       <use xlink:href="#DejaVuSans-30"/>
       <use xlink:href="#DejaVuSans-2e" x="63.623047"/>
       <use xlink:href="#DejaVuSans-33" x="95.410156"/>
      </g>
     </g>
    </g>
    <g id="text_6">
     <!-- flow (cms) -->
     <g transform="translate(18.737188 99.7125) rotate(-90) scale(0.1 -0.1)">
      <defs>
       <path id="DejaVuSans-66" d="M 2375 4863 
L 2375 4384 
L 1825 4384 
Q 1516 4384 1395 4259 
Q 1275 4134 1275 3809 
L 1275 3500 
L 2222 3500 
L 2222 3053 
L 1275 3053 
L 1275 0 
L 697 0 
L 697 3053 
L 147 3053 
L 147 3500 
L 697 3500 
L 697 3744 
Q 697 4328 969 4595 
Q 1241 4863 1831 4863 
L 2375 4863 
z
" transform="scale(0.015625)"/>
       <path id="DejaVuSans-6c" d="M 603 4863 
L 1178 4863 
L 1178 0 
L 603 0 
L 603 4863 
z
" transform="scale(0.015625)"/>
       <path id="DejaVuSans-6f" d="M 1959 3097 
Q 1497 3097 1228 2736 
Q 959 2375 959 1747 
Q 959 1119 1226 758 
Q 1494 397 1959 397 
Q 2419 397 2687 759 
Q 2956 1122 2956 1747 
Q 2956 2369 2687 2733 
Q 2419 3097 1959 3097 
z
M 1959 3584 
Q 2709 3584 3137 3096 
Q 3566 2609 3566 1747 
Q 3566 888 3137 398 
Q 2709 -91 1959 -91 
Q 1206 -91 779 398 
Q 353 888 353 1747 
Q 353 2609 779 3096 
Q 1206 3584 1959 3584 
z
" transform="scale(0.015625)"/>
       <path id="DejaVuSans-77" d="M 269 3500 
L 844 3500 
L 1563 769 
L 2278 3500 
L 2956 3500 
L 3675 769 
L 4391 3500 
L 4966 3500 
L 4050 0 
L 3372 0 
L 2619 2869 
L 1863 0 
L 1184 0 
L 269 3500 
z
" transform="scale(0.015625)"/>
       <path id="DejaVuSans-20" transform="scale(0.015625)"/>
       <path id="DejaVuSans-28" d="M 1984 4856 
Q 1566 4138 1362 3434 
Q 1159 2731 1159 2009 
Q 1159 1288 1364 580 
Q 1569 -128 1984 -844 
L 1484 -844 
Q 1016 -109 783 600 
Q 550 1309 550 2009 
Q 550 2706 781 3412 
Q 1013 4119 1484 4856 
L 1984 4856 
z
" transform="scale(0.015625)"/>
       <path id="DejaVuSans-63" d="M 3122 3366 
L 3122 2828 
Q 2878 2963 2633 3030 
Q 2388 3097 2138 3097 
Q 1578 3097 1268 2742 
Q 959 2388 959 1747 
Q 959 1106 1268 751 
Q 1578 397 2138 397 
Q 2388 397 2633 464 
Q 2878 531 3122 666 
L 3122 134 
Q 2881 22 2623 -34 
Q 2366 -91 2075 -91 
Q 1284 -91 818 406 
Q 353 903 353 1747 
Q 353 2603 823 3093 
Q 1294 3584 2113 3584 
Q 2378 3584 2631 3529 
Q 2884 3475 3122 3366 
z
" transform="scale(0.015625)"/>
       <path id="DejaVuSans-73" d="M 2834 3397 
L 2834 2853 
Q 2591 2978 2328 3040 
Q 2066 3103 1784 3103 
Q 1356 3103 1142 2972 
Q 928 2841 928 2578 
Q 928 2378 1081 2264 
Q 1234 2150 1697 2047 
L 1894 2003 
Q 2506 1872 2764 1633 
Q 3022 1394 3022 966 
Q 3022 478 2636 193 
Q 2250 -91 1575 -91 
Q 1294 -91 989 -36 
Q 684 19 347 128 
L 347 722 
Q 666 556 975 473 
Q 1284 391 1588 391 
Q 1994 391 2212 530 
Q 2431 669 2431 922 
Q 2431 1156 2273 1281 
Q 2116 1406 1581 1522 
L 1381 1569 
Q 847 1681 609 1914 
Q 372 2147 372 2553 
Q 372 3047 722 3315 
Q 1072 3584 1716 3584 
Q 2034 3584 2315 3537 
Q 2597 3491 2834 3397 
z
" transform="scale(0.015625)"/>
       <path id="DejaVuSans-29" d="M 513 4856 
L 1013 4856 
Q 1481 4119 1714 3412 
Q 1947 2706 1947 2009 
Q 1947 1309 1714 600 
Q 1481 -109 1013 -844 
L 513 -844 
Q 928 -128 1133 580 
Q 1338 1288 1338 2009 
Q 1338 2731 1133 3434 
Q 928 4138 513 4856 
z
" transform="scale(0.015625)"/>
      </defs>
      <use xlink:href="#DejaVuSans-66"/>
      <use xlink:href="#DejaVuSans-6c" x="35.205078"/>
      <use xlink:href="#DejaVuSans-6f" x="62.988281"/>
      <use xlink:href="#DejaVuSans-77" x="124.169922"/>
      <use xlink:href="#DejaVuSans-20" x="205.957031"/>
      <use xlink:href="#DejaVuSans-28" x="237.744141"/>
      <use xlink:href="#DejaVuSans-63" x="276.757812"/>
      <use xlink:href="#DejaVuSans-6d" x="331.738281"/>
      <use xlink:href="#DejaVuSans-73" x="429.150391"/>
      <use xlink:href="#DejaVuSans-29" x="481.25"/>
     </g>
    </g>
   </g>
   <g id="line2d_15">
    <path d="M 61.178426 116.263636 
L 71.025244 116.161646 
L 71.399095 116.0018 
L 72.333722 115.632167 
L 72.707573 115.038626 
L 73.6152 113.985458 
L 74.8406 112.184794 
L 76.585238 109.262525 
L 77.343325 107.223483 
L 78.699573 102.40537 
L 81.524224 92.140939 
L 83.015474 87.646251 
L 84.168181 84.218884 
L 85.277272 79.169799 
L 87.107065 70.923048 
L 88.558853 65.429883 
L 89.981563 60.870105 
L 91.381427 57.01933 
L 92.507134 54.565466 
L 94.582006 50.647234 
L 98.089974 44.576809 
L 106.125692 31.242856 
L 106.37908 31.136364 
L 106.649084 31.379338 
L 107.282553 32.526031 
L 108.439414 34.741464 
L 109.326272 36.035477 
L 110.215206 36.967716 
L 111.102064 37.610514 
L 112.117692 38.056391 
L 113.13332 38.265335 
L 113.640096 38.319519 
L 113.893484 38.651567 
L 114.40026 39.991316 
L 116.699443 46.763023 
L 117.858381 49.285724 
L 119.021472 51.313432 
L 120.321643 53.119324 
L 121.233424 54.270969 
L 121.625967 55.349866 
L 125.349938 67.612668 
L 126.708263 70.900653 
L 128.220282 73.997405 
L 131.445785 79.782614 
L 133.163422 82.372422 
L 135.157294 84.992961 
L 137.510478 87.678038 
L 139.977894 90.138425 
L 142.910547 92.698065 
L 145.789199 94.913745 
L 149.041702 97.136662 
L 152.859136 99.440129 
L 156.655799 101.466139 
L 158.363052 102.302816 
L 158.630978 106.102372 
L 159.179293 104.787683 
L 159.451374 104.188777 
L 159.588452 104.092637 
L 159.858456 100.101758 
L 160.255153 101.351124 
L 160.390155 102.918616 
L 160.525157 101.846742 
L 160.79516 102.320647 
L 160.930162 103.794536 
L 161.069317 102.489849 
L 161.480553 103.100423 
L 161.758865 103.343152 
L 162.037176 103.591486 
L 162.317564 108.244621 
L 162.462951 107.671078 
L 162.7558 107.115846 
L 162.901187 104.680484 
L 163.472348 104.923167 
L 163.615658 102.377861 
L 163.896046 103.111434 
L 164.037278 104.544589 
L 164.180588 107.702016 
L 164.475515 107.178989 
L 164.622978 107.003157 
L 164.770442 104.846062 
L 164.915828 105.601358 
L 165.206601 105.614988 
L 165.351987 103.818723 
L 165.499451 106.238349 
L 165.792301 106.144096 
L 166.085151 105.513092 
L 166.230537 105.427063 
L 166.378001 105.501522 
L 166.523387 104.837527 
L 166.67085 107.510852 
L 166.818314 107.100768 
L 167.117395 106.948256 
L 167.266935 103.644081 
L 167.412321 103.461004 
L 167.69894 104.242264 
L 167.844327 105.237858 
L 167.99179 104.653521 
L 168.28464 105.210058 
L 168.432104 107.760347 
L 168.581644 105.51273 
L 168.878648 105.863801 
L 169.179806 107.147429 
L 169.3335 107.327573 
L 169.485117 107.316696 
L 169.636734 107.627496 
L 169.790429 108.763358 
L 170.099894 108.361843 
L 170.255665 107.436583 
L 170.40936 107.221091 
L 170.714671 107.257938 
L 170.868366 107.307279 
L 171.02206 107.213078 
L 171.175754 107.727386 
L 171.48522 107.762032 
L 171.638914 105.674357 
L 171.942149 106.394715 
L 172.095843 106.620495 
L 172.249537 109.441468 
L 172.534079 109.048114 
L 172.787467 108.986912 
L 172.914161 109.861423 
L 173.171703 109.525938 
L 173.300474 109.443995 
L 173.585016 106.002871 
L 173.892404 106.662363 
L 174.046098 108.103424 
L 174.20187 107.909131 
L 174.486412 108.103206 
L 174.613106 108.047721 
L 174.7398 110.26276 
L 174.999418 109.913104 
L 175.130266 109.84145 
L 175.516579 107.268202 
L 175.799044 107.685467 
L 175.925738 109.356534 
L 176.054509 107.738331 
L 176.309974 108.170024 
L 176.436667 108.301753 
L 176.565438 109.147764 
L 176.694209 108.496327 
L 177.082599 108.778297 
L 177.21137 109.173295 
L 177.342218 110.014821 
L 177.60599 109.959522 
L 177.738915 110.328585 
L 178.006841 109.831535 
L 178.274768 109.832506 
L 178.407693 108.908803 
L 178.538541 108.856128 
L 178.931084 109.189155 
L 179.196934 111.036057 
L 179.334012 110.849106 
L 179.469014 110.796021 
L 179.606093 110.279263 
L 179.743171 111.936753 
L 180.021483 111.591601 
L 180.160638 111.507122 
L 180.299794 109.219237 
L 180.434795 110.667478 
L 180.846032 110.756012 
L 180.98311 108.486957 
L 181.24896 109.060257 
L 181.514809 109.359655 
L 181.649811 111.267669 
L 181.923968 111.083766 
L 182.065201 111.068152 
L 182.339358 109.589149 
L 182.611439 109.857902 
L 182.74644 111.086996 
L 182.885596 110.028219 
L 183.296832 110.364825 
L 183.57722 112.439428 
L 183.865916 112.266952 
L 184.011303 110.803975 
L 184.154612 111.617578 
L 184.439154 111.528423 
L 184.582464 111.525679 
L 185.012392 111.157443 
L 185.296935 111.306826 
L 185.438167 110.339052 
L 186.142253 110.928381 
L 187.00211 111.420947 
L 187.147497 111.791565 
L 187.292883 111.527643 
L 187.729043 111.705723 
L 187.876506 113.2662 
L 188.181818 113.04052 
L 188.63667 111.512589 
L 188.929519 111.671364 
L 189.076983 113.241348 
L 189.384371 113.069341 
L 189.538066 113.030663 
L 189.69176 112.721765 
L 189.843377 111.823327 
L 190.291998 111.992201 
L 190.443616 111.909067 
L 190.742696 112.07009 
L 190.894314 113.287009 
L 191.048008 112.05647 
L 191.351243 112.282626 
L 191.504937 113.054837 
L 191.658631 112.608292 
L 192.123868 112.951149 
L 192.279639 112.484227 
L 192.589105 112.609926 
L 192.744876 113.281365 
L 192.902724 112.674154 
L 193.845659 112.971951 
L 194.003507 113.463015 
L 194.163432 113.019871 
L 194.483283 113.110726 
L 194.643208 113.4677 
L 194.80521 113.163216 
L 195.127137 113.242601 
L 195.453218 113.648326 
L 195.781376 113.653027 
L 195.947532 113.284476 
L 196.27569 113.390963 
L 196.439769 113.632662 
L 196.603848 113.399006 
L 197.100239 113.56021 
L 197.226933 114.066932 
L 197.650631 114.019684 
L 197.906096 113.584881 
L 198.198946 113.663967 
L 198.325639 113.833407 
L 198.45441 114.322433 
L 198.714029 114.225202 
L 198.8428 114.221107 
L 198.973648 114.044124 
L 199.104496 114.54481 
L 199.501193 114.478717 
L 199.636195 114.030276 
L 199.767042 114.575786 
L 200.034969 114.500864 
L 200.167894 114.492708 
L 200.302895 113.89616 
L 200.564591 114.121266 
L 200.697516 114.140728 
L 200.828364 114.030531 
L 201.092136 114.502073 
L 201.36214 114.49486 
L 201.497142 114.055117 
L 201.630066 114.416054 
L 202.170073 114.361417 
L 202.305075 114.596066 
L 202.579232 114.592968 
L 202.716311 114.212343 
L 202.85339 114.634757 
L 203.266703 114.615257 
L 203.405858 114.653467 
L 203.545014 114.394892 
L 203.821248 114.465486 
L 203.958327 114.304001 
L 204.095405 114.734174 
L 204.517026 114.726981 
L 204.658259 114.405347 
L 204.797414 114.740082 
L 205.081957 114.735955 
L 205.364422 114.270735 
L 206.062277 114.523367 
L 206.344742 114.602532 
L 206.629284 115.084259 
L 207.071674 114.982462 
L 207.221215 115.251539 
L 207.67399 115.223178 
L 207.825607 114.807374 
L 208.120534 114.779936 
L 208.857851 114.954308 
L 209.007391 115.278836 
L 209.159009 114.969719 
L 209.462243 115.054735 
L 209.767555 115.500027 
L 210.085328 115.489718 
L 210.401024 115.11077 
L 212.1332 115.547398 
L 212.461358 115.649363 
L 212.629591 115.652174 
L 212.961903 115.407521 
L 213.954685 115.640999 
L 214.465615 115.716681 
L 215.165547 115.792498 
L 215.342088 115.567052 
L 215.861325 115.75982 
L 216.216483 115.845804 
L 216.939262 115.830408 
L 217.300651 115.71176 
L 217.659963 115.748307 
L 217.842735 115.939799 
L 218.775285 115.946692 
L 219.147059 115.81374 
L 222.117097 116.011332 
L 222.677874 116.016122 
L 223.051725 116.08052 
L 243.239675 116.160656 
L 244.548153 116.166465 
L 245.856631 116.164444 
L 248.099737 116.162707 
L 252.025172 116.18588 
L 253.33365 116.178135 
L 256.885234 116.185518 
L 260.062967 116.181132 
L 261.55837 116.204884 
L 275.017004 116.210161 
L 276.886258 116.199918 
L 309.972066 116.227932 
L 312.775948 116.222719 
L 330.346941 116.240204 
L 330.346941 116.240204 
" clip-path="url(#pc22263374f)" style="fill: none; stroke: #1f77b4; stroke-width: 1.5; stroke-linecap: square"/>
   </g>
   <g id="patch_3">
    <path d="M 47.72 120.52 
L 47.72 26.88 
" style="fill: none; stroke: #000000; stroke-width: 0.8; stroke-linejoin: miter; stroke-linecap: square"/>
   </g>
   <g id="patch_4">
    <path d="M 343.805367 120.52 
L 343.805367 26.88 
" style="fill: none; stroke: #000000; stroke-width: 0.8; stroke-linejoin: miter; stroke-linecap: square"/>
   </g>
   <g id="patch_5">
    <path d="M 47.72 120.52 
L 343.805367 120.52 
" style="fill: none; stroke: #000000; stroke-width: 0.8; stroke-linejoin: miter; stroke-linecap: square"/>
   </g>
   <g id="patch_6">
    <path d="M 47.72 26.88 
L 343.805367 26.88 
" style="fill: none; stroke: #000000; stroke-width: 0.8; stroke-linejoin: miter; stroke-linecap: square"/>
   </g>
   <g id="text_7">
    <!-- 1 -->
    <g transform="translate(190.265484 50.3762) scale(0.1728 -0.1728)">
     <use xlink:href="#DejaVuSans-31"/>
    </g>
   </g>
   <g id="text_8">
    <!-- flows -->
    <g transform="translate(180.279871 20.88) scale(0.12 -0.12)">
     <use xlink:href="#DejaVuSans-66"/>
     <use xlink:href="#DejaVuSans-6c" x="35.205078"/>
     <use xlink:href="#DejaVuSans-6f" x="62.988281"/>
     <use xlink:href="#DejaVuSans-77" x="124.169922"/>
     <use xlink:href="#DejaVuSans-73" x="205.957031"/>
    </g>
   </g>
  </g>
  <g id="axes_2">
   <g id="patch_7">
    <path d="M 402.32 120.52 
L 698.405367 120.52 
L 698.405367 26.88 
L 402.32 26.88 
z
" style="fill: #ffffff"/>
   </g>
   <g id="matplotlib.axis_3">
    <g id="xtick_11">
     <g id="line2d_16">
      <g>
       <use xlink:href="#m3bbd752de1" x="415.778426" y="120.52" style="stroke: #000000; stroke-width: 0.8"/>
      </g>
     </g>
    </g>
    <g id="xtick_12">
     <g id="line2d_17">
      <g>
       <use xlink:href="#m3bbd752de1" x="445.6865" y="120.52" style="stroke: #000000; stroke-width: 0.8"/>
      </g>
     </g>
    </g>
    <g id="xtick_13">
     <g id="line2d_18">
      <g>
       <use xlink:href="#m3bbd752de1" x="475.594575" y="120.52" style="stroke: #000000; stroke-width: 0.8"/>
      </g>
     </g>
    </g>
    <g id="xtick_14">
     <g id="line2d_19">
      <g>
       <use xlink:href="#m3bbd752de1" x="505.502649" y="120.52" style="stroke: #000000; stroke-width: 0.8"/>
      </g>
     </g>
    </g>
    <g id="xtick_15">
     <g id="line2d_20">
      <g>
       <use xlink:href="#m3bbd752de1" x="535.410723" y="120.52" style="stroke: #000000; stroke-width: 0.8"/>
      </g>
     </g>
    </g>
    <g id="xtick_16">
     <g id="line2d_21">
      <g>
       <use xlink:href="#m3bbd752de1" x="565.318798" y="120.52" style="stroke: #000000; stroke-width: 0.8"/>
      </g>
     </g>
    </g>
    <g id="xtick_17">
     <g id="line2d_22">
      <g>
       <use xlink:href="#m3bbd752de1" x="595.226872" y="120.52" style="stroke: #000000; stroke-width: 0.8"/>
      </g>
     </g>
    </g>
    <g id="xtick_18">
     <g id="line2d_23">
      <g>
       <use xlink:href="#m3bbd752de1" x="625.134947" y="120.52" style="stroke: #000000; stroke-width: 0.8"/>
      </g>
     </g>
    </g>
    <g id="xtick_19">
     <g id="line2d_24">
      <g>
       <use xlink:href="#m3bbd752de1" x="655.043021" y="120.52" style="stroke: #000000; stroke-width: 0.8"/>
      </g>
     </g>
    </g>
    <g id="xtick_20">
     <g id="line2d_25">
      <g>
       <use xlink:href="#m3bbd752de1" x="684.951095" y="120.52" style="stroke: #000000; stroke-width: 0.8"/>
      </g>
     </g>
    </g>
    <g id="text_9">
     <!-- time -->
     <g transform="translate(539.06659 139.118437) scale(0.1 -0.1)">
      <use xlink:href="#DejaVuSans-74"/>
      <use xlink:href="#DejaVuSans-69" x="39.208984"/>
      <use xlink:href="#DejaVuSans-6d" x="66.992188"/>
      <use xlink:href="#DejaVuSans-65" x="164.404297"/>
     </g>
    </g>
   </g>
   <g id="matplotlib.axis_4">
    <g id="ytick_5">
     <g id="line2d_26">
      <g>
       <use xlink:href="#ma856aa3135" x="402.32" y="116.263636" style="stroke: #000000; stroke-width: 0.8"/>
      </g>
     </g>
     <g id="text_10">
      <!-- 0.00 -->
      <g transform="translate(373.054375 120.062855) scale(0.1 -0.1)">
       <use xlink:href="#DejaVuSans-30"/>
       <use xlink:href="#DejaVuSans-2e" x="63.623047"/>
       <use xlink:href="#DejaVuSans-30" x="95.410156"/>
       <use xlink:href="#DejaVuSans-30" x="159.033203"/>
      </g>
     </g>
    </g>
    <g id="ytick_6">
     <g id="line2d_27">
      <g>
       <use xlink:href="#ma856aa3135" x="402.32" y="83.66867" style="stroke: #000000; stroke-width: 0.8"/>
      </g>
     </g>
     <g id="text_11">
      <!-- 0.05 -->
      <g transform="translate(373.054375 87.467889) scale(0.1 -0.1)">
       <defs>
        <path id="DejaVuSans-35" d="M 691 4666 
L 3169 4666 
L 3169 4134 
L 1269 4134 
L 1269 2991 
Q 1406 3038 1543 3061 
Q 1681 3084 1819 3084 
Q 2600 3084 3056 2656 
Q 3513 2228 3513 1497 
Q 3513 744 3044 326 
Q 2575 -91 1722 -91 
Q 1428 -91 1123 -41 
Q 819 9 494 109 
L 494 744 
Q 775 591 1075 516 
Q 1375 441 1709 441 
Q 2250 441 2565 725 
Q 2881 1009 2881 1497 
Q 2881 1984 2565 2268 
Q 2250 2553 1709 2553 
Q 1456 2553 1204 2497 
Q 953 2441 691 2322 
L 691 4666 
z
" transform="scale(0.015625)"/>
       </defs>
       <use xlink:href="#DejaVuSans-30"/>
       <use xlink:href="#DejaVuSans-2e" x="63.623047"/>
       <use xlink:href="#DejaVuSans-30" x="95.410156"/>
       <use xlink:href="#DejaVuSans-35" x="159.033203"/>
      </g>
     </g>
    </g>
    <g id="ytick_7">
     <g id="line2d_28">
      <g>
       <use xlink:href="#ma856aa3135" x="402.32" y="51.073704" style="stroke: #000000; stroke-width: 0.8"/>
      </g>
     </g>
     <g id="text_12">
      <!-- 0.10 -->
      <g transform="translate(373.054375 54.872922) scale(0.1 -0.1)">
       <use xlink:href="#DejaVuSans-30"/>
       <use xlink:href="#DejaVuSans-2e" x="63.623047"/>
       <use xlink:href="#DejaVuSans-31" x="95.410156"/>
       <use xlink:href="#DejaVuSans-30" x="159.033203"/>
      </g>
     </g>
    </g>
    <g id="text_13">
     <!-- depth (m) -->
     <g transform="translate(366.974688 98.614844) rotate(-90) scale(0.1 -0.1)">
      <defs>
       <path id="DejaVuSans-64" d="M 2906 2969 
L 2906 4863 
L 3481 4863 
L 3481 0 
L 2906 0 
L 2906 525 
Q 2725 213 2448 61 
Q 2172 -91 1784 -91 
Q 1150 -91 751 415 
Q 353 922 353 1747 
Q 353 2572 751 3078 
Q 1150 3584 1784 3584 
Q 2172 3584 2448 3432 
Q 2725 3281 2906 2969 
z
M 947 1747 
Q 947 1113 1208 752 
Q 1469 391 1925 391 
Q 2381 391 2643 752 
Q 2906 1113 2906 1747 
Q 2906 2381 2643 2742 
Q 2381 3103 1925 3103 
Q 1469 3103 1208 2742 
Q 947 2381 947 1747 
z
" transform="scale(0.015625)"/>
       <path id="DejaVuSans-70" d="M 1159 525 
L 1159 -1331 
L 581 -1331 
L 581 3500 
L 1159 3500 
L 1159 2969 
Q 1341 3281 1617 3432 
Q 1894 3584 2278 3584 
Q 2916 3584 3314 3078 
Q 3713 2572 3713 1747 
Q 3713 922 3314 415 
Q 2916 -91 2278 -91 
Q 1894 -91 1617 61 
Q 1341 213 1159 525 
z
M 3116 1747 
Q 3116 2381 2855 2742 
Q 2594 3103 2138 3103 
Q 1681 3103 1420 2742 
Q 1159 2381 1159 1747 
Q 1159 1113 1420 752 
Q 1681 391 2138 391 
Q 2594 391 2855 752 
Q 3116 1113 3116 1747 
z
" transform="scale(0.015625)"/>
       <path id="DejaVuSans-68" d="M 3513 2113 
L 3513 0 
L 2938 0 
L 2938 2094 
Q 2938 2591 2744 2837 
Q 2550 3084 2163 3084 
Q 1697 3084 1428 2787 
Q 1159 2491 1159 1978 
L 1159 0 
L 581 0 
L 581 4863 
L 1159 4863 
L 1159 2956 
Q 1366 3272 1645 3428 
Q 1925 3584 2291 3584 
Q 2894 3584 3203 3211 
Q 3513 2838 3513 2113 
z
" transform="scale(0.015625)"/>
      </defs>
      <use xlink:href="#DejaVuSans-64"/>
      <use xlink:href="#DejaVuSans-65" x="63.476562"/>
      <use xlink:href="#DejaVuSans-70" x="125"/>
      <use xlink:href="#DejaVuSans-74" x="188.476562"/>
      <use xlink:href="#DejaVuSans-68" x="227.685547"/>
      <use xlink:href="#DejaVuSans-20" x="291.064453"/>
      <use xlink:href="#DejaVuSans-28" x="322.851562"/>
      <use xlink:href="#DejaVuSans-6d" x="361.865234"/>
      <use xlink:href="#DejaVuSans-29" x="459.277344"/>
     </g>
    </g>
   </g>
   <g id="line2d_29">
    <path d="M 415.778426 116.263636 
L 424.12984 116.193297 
L 424.690617 115.950617 
L 425.251393 115.43716 
L 425.812169 114.606792 
L 426.559871 113.073052 
L 428.2152 108.470147 
L 431.646321 98.24455 
L 432.911183 92.515083 
L 434.765899 84.36265 
L 436.124224 79.425752 
L 437.470088 75.41365 
L 438.907337 71.225799 
L 442.253302 58.465917 
L 443.576319 54.714091 
L 444.996953 51.360035 
L 446.263892 48.869231 
L 447.665833 46.729241 
L 450.000325 43.613115 
L 453.749219 39.074241 
L 459.710064 32.303774 
L 460.852386 31.136364 
L 461.105774 31.207837 
L 461.629165 31.764026 
L 463.54619 34.116615 
L 464.559741 34.93165 
L 465.702064 35.52283 
L 466.844386 35.849223 
L 468.493484 36.261331 
L 469.00026 37.20456 
L 471.299443 41.950823 
L 472.587152 43.931949 
L 473.881091 45.506006 
L 475.312109 46.878904 
L 475.833424 47.404349 
L 476.356815 48.564122 
L 479.814936 57.413795 
L 481.308263 60.365557 
L 483.098594 63.370324 
L 486.901488 69.106547 
L 489.067747 71.83735 
L 491.852936 74.908782 
L 494.710819 77.68517 
L 497.645549 80.247644 
L 501.087054 82.967063 
L 505.238876 85.933053 
L 509.324236 88.59209 
L 512.963052 90.782014 
L 513.230978 89.884868 
L 513.779293 88.197347 
L 514.188452 87.681094 
L 514.323454 87.852304 
L 514.990155 89.928831 
L 515.530162 91.022575 
L 515.806396 91.39194 
L 516.49802 92.248486 
L 516.776331 92.415655 
L 516.917564 92.103922 
L 517.3558 90.499612 
L 517.787806 90.60486 
L 518.072348 90.633146 
L 518.637278 92.120046 
L 518.928051 91.498482 
L 519.222978 90.835816 
L 519.370442 91.040987 
L 520.539764 90.946987 
L 520.830537 91.332156 
L 521.27085 91.710543 
L 521.717395 91.298734 
L 522.88464 94.521084 
L 523.181644 94.885031 
L 523.628188 95.520973 
L 523.9335 95.257143 
L 524.236734 95.207908 
L 524.855665 94.536925 
L 525.163054 94.779322 
L 525.929448 95.098153 
L 526.08522 95.125536 
L 526.695843 96.416388 
L 526.849537 96.292106 
L 527.387467 95.738873 
L 527.514161 95.680321 
L 527.900474 95.131216 
L 528.029244 95.084784 
L 528.492404 96.502744 
L 528.928564 97.090462 
L 529.213106 97.371837 
L 529.599418 96.93628 
L 529.861114 96.737054 
L 531.036667 98.788952 
L 531.294209 99.029245 
L 531.81137 99.587546 
L 532.741843 99.281042 
L 533.007693 99.390931 
L 533.531084 100.10802 
L 533.664009 100.163974 
L 534.343171 99.624328 
L 534.760638 98.96856 
L 534.899794 99.065051 
L 535.446032 98.96192 
L 536.114809 100.386308 
L 536.38689 100.393654 
L 536.665201 100.326158 
L 536.939358 100.721224 
L 537.485596 101.462047 
L 537.896832 101.955814 
L 538.035988 101.965286 
L 538.465916 101.381555 
L 538.897922 101.373229 
L 539.325773 101.362561 
L 539.896935 101.685504 
L 540.459788 102.581114 
L 542.329043 104.204516 
L 542.935512 103.644021 
L 543.087129 103.676711 
L 543.529519 104.162603 
L 543.8286 104.017192 
L 544.138066 103.814925 
L 544.29176 103.841542 
L 545.342696 104.874946 
L 545.648008 104.996836 
L 546.104937 105.311321 
L 546.723868 105.521132 
L 547.658495 106.117466 
L 548.763432 106.677064 
L 549.889139 107.147931 
L 550.547532 107.236432 
L 551.700239 107.754189 
L 552.506096 107.818614 
L 553.05441 108.001038 
L 555.033743 107.839939 
L 555.827138 108.068981 
L 556.365068 108.195355 
L 559.117026 108.973379 
L 560.521044 109.837699 
L 561.085974 110.206089 
L 562.57307 110.490372 
L 563.607391 111.073368 
L 564.213861 111.347221 
L 564.845253 111.388801 
L 566.253425 112.036572 
L 566.895203 112.206308 
L 567.561903 112.338792 
L 568.722918 112.715158 
L 571.539262 113.229318 
L 573.18836 113.594095 
L 573.929831 113.7805 
L 575.969395 114.288714 
L 579.707905 114.715389 
L 592.605762 115.113719 
L 605.503619 115.352096 
L 615.410668 115.426195 
L 620.644582 115.46238 
L 629.056227 115.519334 
L 638.776352 115.617948 
L 652.982687 115.667539 
L 669.805979 115.758644 
L 684.946941 115.806437 
L 684.946941 115.806437 
" clip-path="url(#p38b18d5546)" style="fill: none; stroke: #1f77b4; stroke-width: 1.5; stroke-linecap: square"/>
   </g>
   <g id="patch_8">
    <path d="M 402.32 120.52 
L 402.32 26.88 
" style="fill: none; stroke: #000000; stroke-width: 0.8; stroke-linejoin: miter; stroke-linecap: square"/>
   </g>
   <g id="patch_9">
    <path d="M 698.405367 120.52 
L 698.405367 26.88 
" style="fill: none; stroke: #000000; stroke-width: 0.8; stroke-linejoin: miter; stroke-linecap: square"/>
   </g>
   <g id="patch_10">
    <path d="M 402.32 120.52 
L 698.405367 120.52 
" style="fill: none; stroke: #000000; stroke-width: 0.8; stroke-linejoin: miter; stroke-linecap: square"/>
   </g>
   <g id="patch_11">
    <path d="M 402.32 26.88 
L 698.405367 26.88 
" style="fill: none; stroke: #000000; stroke-width: 0.8; stroke-linejoin: miter; stroke-linecap: square"/>
   </g>
   <g id="text_14">
    <!-- ('P1', 'depthN') -->
    <g transform="translate(486.310584 50.3762) scale(0.1728 -0.1728)">
     <defs>
      <path id="DejaVuSans-27" d="M 1147 4666 
L 1147 2931 
L 616 2931 
L 616 4666 
L 1147 4666 
z
" transform="scale(0.015625)"/>
      <path id="DejaVuSans-50" d="M 1259 4147 
L 1259 2394 
L 2053 2394 
Q 2494 2394 2734 2622 
Q 2975 2850 2975 3272 
Q 2975 3691 2734 3919 
Q 2494 4147 2053 4147 
L 1259 4147 
z
M 628 4666 
L 2053 4666 
Q 2838 4666 3239 4311 
Q 3641 3956 3641 3272 
Q 3641 2581 3239 2228 
Q 2838 1875 2053 1875 
L 1259 1875 
L 1259 0 
L 628 0 
L 628 4666 
z
" transform="scale(0.015625)"/>
      <path id="DejaVuSans-2c" d="M 750 794 
L 1409 794 
L 1409 256 
L 897 -744 
L 494 -744 
L 750 256 
L 750 794 
z
" transform="scale(0.015625)"/>
      <path id="DejaVuSans-4e" d="M 628 4666 
L 1478 4666 
L 3547 763 
L 3547 4666 
L 4159 4666 
L 4159 0 
L 3309 0 
L 1241 3903 
L 1241 0 
L 628 0 
L 628 4666 
z
" transform="scale(0.015625)"/>
     </defs>
     <use xlink:href="#DejaVuSans-28"/>
     <use xlink:href="#DejaVuSans-27" x="39.013672"/>
     <use xlink:href="#DejaVuSans-50" x="66.503906"/>
     <use xlink:href="#DejaVuSans-31" x="126.806641"/>
     <use xlink:href="#DejaVuSans-27" x="190.429688"/>
     <use xlink:href="#DejaVuSans-2c" x="217.919922"/>
     <use xlink:href="#DejaVuSans-20" x="249.707031"/>
     <use xlink:href="#DejaVuSans-27" x="281.494141"/>
     <use xlink:href="#DejaVuSans-64" x="308.984375"/>
     <use xlink:href="#DejaVuSans-65" x="372.460938"/>
     <use xlink:href="#DejaVuSans-70" x="433.984375"/>
     <use xlink:href="#DejaVuSans-74" x="497.460938"/>
     <use xlink:href="#DejaVuSans-68" x="536.669922"/>
     <use xlink:href="#DejaVuSans-4e" x="600.048828"/>
     <use xlink:href="#DejaVuSans-27" x="674.853516"/>
     <use xlink:href="#DejaVuSans-29" x="702.34375"/>
    </g>
   </g>
   <g id="text_15">
    <!-- depths -->
    <g transform="translate(529.772371 20.88) scale(0.12 -0.12)">
     <use xlink:href="#DejaVuSans-64"/>
     <use xlink:href="#DejaVuSans-65" x="63.476562"/>
     <use xlink:href="#DejaVuSans-70" x="125"/>
     <use xlink:href="#DejaVuSans-74" x="188.476562"/>
     <use xlink:href="#DejaVuSans-68" x="227.685547"/>
     <use xlink:href="#DejaVuSans-73" x="291.064453"/>
    </g>
   </g>
  </g>
  <g id="axes_3">
   <g id="patch_12">
    <path d="M 47.72 246.04 
L 343.805367 246.04 
L 343.805367 152.4 
L 47.72 152.4 
z
" style="fill: #ffffff"/>
   </g>
   <g id="matplotlib.axis_5">
    <g id="xtick_21">
     <g id="line2d_30">
      <g>
       <use xlink:href="#m3bbd752de1" x="61.178426" y="246.04" style="stroke: #000000; stroke-width: 0.8"/>
      </g>
     </g>
     <g id="text_16">
      <!-- 02-25 00 -->
      <g transform="translate(38.697957 260.638437) scale(0.1 -0.1)">
       <defs>
        <path id="DejaVuSans-2d" d="M 313 2009 
L 1997 2009 
L 1997 1497 
L 313 1497 
L 313 2009 
z
" transform="scale(0.015625)"/>
       </defs>
       <use xlink:href="#DejaVuSans-30"/>
       <use xlink:href="#DejaVuSans-32" x="63.623047"/>
       <use xlink:href="#DejaVuSans-2d" x="127.246094"/>
       <use xlink:href="#DejaVuSans-32" x="163.330078"/>
       <use xlink:href="#DejaVuSans-35" x="226.953125"/>
       <use xlink:href="#DejaVuSans-20" x="290.576172"/>
       <use xlink:href="#DejaVuSans-30" x="322.363281"/>
       <use xlink:href="#DejaVuSans-30" x="385.986328"/>
      </g>
     </g>
    </g>
    <g id="xtick_22">
     <g id="line2d_31">
      <g>
       <use xlink:href="#m3bbd752de1" x="91.0865" y="246.04" style="stroke: #000000; stroke-width: 0.8"/>
      </g>
     </g>
     <g id="text_17">
      <!-- 02-25 04 -->
      <g transform="translate(68.606031 260.638437) scale(0.1 -0.1)">
       <defs>
        <path id="DejaVuSans-34" d="M 2419 4116 
L 825 1625 
L 2419 1625 
L 2419 4116 
z
M 2253 4666 
L 3047 4666 
L 3047 1625 
L 3713 1625 
L 3713 1100 
L 3047 1100 
L 3047 0 
L 2419 0 
L 2419 1100 
L 313 1100 
L 313 1709 
L 2253 4666 
z
" transform="scale(0.015625)"/>
       </defs>
       <use xlink:href="#DejaVuSans-30"/>
       <use xlink:href="#DejaVuSans-32" x="63.623047"/>
       <use xlink:href="#DejaVuSans-2d" x="127.246094"/>
       <use xlink:href="#DejaVuSans-32" x="163.330078"/>
       <use xlink:href="#DejaVuSans-35" x="226.953125"/>
       <use xlink:href="#DejaVuSans-20" x="290.576172"/>
       <use xlink:href="#DejaVuSans-30" x="322.363281"/>
       <use xlink:href="#DejaVuSans-34" x="385.986328"/>
      </g>
     </g>
    </g>
    <g id="xtick_23">
     <g id="line2d_32">
      <g>
       <use xlink:href="#m3bbd752de1" x="120.994575" y="246.04" style="stroke: #000000; stroke-width: 0.8"/>
      </g>
     </g>
     <g id="text_18">
      <!-- 02-25 08 -->
      <g transform="translate(98.514106 260.638437) scale(0.1 -0.1)">
       <defs>
        <path id="DejaVuSans-38" d="M 2034 2216 
Q 1584 2216 1326 1975 
Q 1069 1734 1069 1313 
Q 1069 891 1326 650 
Q 1584 409 2034 409 
Q 2484 409 2743 651 
Q 3003 894 3003 1313 
Q 3003 1734 2745 1975 
Q 2488 2216 2034 2216 
z
M 1403 2484 
Q 997 2584 770 2862 
Q 544 3141 544 3541 
Q 544 4100 942 4425 
Q 1341 4750 2034 4750 
Q 2731 4750 3128 4425 
Q 3525 4100 3525 3541 
Q 3525 3141 3298 2862 
Q 3072 2584 2669 2484 
Q 3125 2378 3379 2068 
Q 3634 1759 3634 1313 
Q 3634 634 3220 271 
Q 2806 -91 2034 -91 
Q 1263 -91 848 271 
Q 434 634 434 1313 
Q 434 1759 690 2068 
Q 947 2378 1403 2484 
z
M 1172 3481 
Q 1172 3119 1398 2916 
Q 1625 2713 2034 2713 
Q 2441 2713 2670 2916 
Q 2900 3119 2900 3481 
Q 2900 3844 2670 4047 
Q 2441 4250 2034 4250 
Q 1625 4250 1398 4047 
Q 1172 3844 1172 3481 
z
" transform="scale(0.015625)"/>
       </defs>
       <use xlink:href="#DejaVuSans-30"/>
       <use xlink:href="#DejaVuSans-32" x="63.623047"/>
       <use xlink:href="#DejaVuSans-2d" x="127.246094"/>
       <use xlink:href="#DejaVuSans-32" x="163.330078"/>
       <use xlink:href="#DejaVuSans-35" x="226.953125"/>
       <use xlink:href="#DejaVuSans-20" x="290.576172"/>
       <use xlink:href="#DejaVuSans-30" x="322.363281"/>
       <use xlink:href="#DejaVuSans-38" x="385.986328"/>
      </g>
     </g>
    </g>
    <g id="xtick_24">
     <g id="line2d_33">
      <g>
       <use xlink:href="#m3bbd752de1" x="150.902649" y="246.04" style="stroke: #000000; stroke-width: 0.8"/>
      </g>
     </g>
     <g id="text_19">
      <!-- 02-25 12 -->
      <g transform="translate(128.42218 260.638437) scale(0.1 -0.1)">
       <use xlink:href="#DejaVuSans-30"/>
       <use xlink:href="#DejaVuSans-32" x="63.623047"/>
       <use xlink:href="#DejaVuSans-2d" x="127.246094"/>
       <use xlink:href="#DejaVuSans-32" x="163.330078"/>
       <use xlink:href="#DejaVuSans-35" x="226.953125"/>
       <use xlink:href="#DejaVuSans-20" x="290.576172"/>
       <use xlink:href="#DejaVuSans-31" x="322.363281"/>
       <use xlink:href="#DejaVuSans-32" x="385.986328"/>
      </g>
     </g>
    </g>
    <g id="xtick_25">
     <g id="line2d_34">
      <g>
       <use xlink:href="#m3bbd752de1" x="180.810723" y="246.04" style="stroke: #000000; stroke-width: 0.8"/>
      </g>
     </g>
     <g id="text_20">
      <!-- 02-25 16 -->
      <g transform="translate(158.330255 260.638437) scale(0.1 -0.1)">
       <defs>
        <path id="DejaVuSans-36" d="M 2113 2584 
Q 1688 2584 1439 2293 
Q 1191 2003 1191 1497 
Q 1191 994 1439 701 
Q 1688 409 2113 409 
Q 2538 409 2786 701 
Q 3034 994 3034 1497 
Q 3034 2003 2786 2293 
Q 2538 2584 2113 2584 
z
M 3366 4563 
L 3366 3988 
Q 3128 4100 2886 4159 
Q 2644 4219 2406 4219 
Q 1781 4219 1451 3797 
Q 1122 3375 1075 2522 
Q 1259 2794 1537 2939 
Q 1816 3084 2150 3084 
Q 2853 3084 3261 2657 
Q 3669 2231 3669 1497 
Q 3669 778 3244 343 
Q 2819 -91 2113 -91 
Q 1303 -91 875 529 
Q 447 1150 447 2328 
Q 447 3434 972 4092 
Q 1497 4750 2381 4750 
Q 2619 4750 2861 4703 
Q 3103 4656 3366 4563 
z
" transform="scale(0.015625)"/>
       </defs>
       <use xlink:href="#DejaVuSans-30"/>
       <use xlink:href="#DejaVuSans-32" x="63.623047"/>
       <use xlink:href="#DejaVuSans-2d" x="127.246094"/>
       <use xlink:href="#DejaVuSans-32" x="163.330078"/>
       <use xlink:href="#DejaVuSans-35" x="226.953125"/>
       <use xlink:href="#DejaVuSans-20" x="290.576172"/>
       <use xlink:href="#DejaVuSans-31" x="322.363281"/>
       <use xlink:href="#DejaVuSans-36" x="385.986328"/>
      </g>
     </g>
    </g>
    <g id="xtick_26">
     <g id="line2d_35">
      <g>
       <use xlink:href="#m3bbd752de1" x="210.718798" y="246.04" style="stroke: #000000; stroke-width: 0.8"/>
      </g>
     </g>
     <g id="text_21">
      <!-- 02-25 20 -->
      <g transform="translate(188.238329 260.638437) scale(0.1 -0.1)">
       <use xlink:href="#DejaVuSans-30"/>
       <use xlink:href="#DejaVuSans-32" x="63.623047"/>
       <use xlink:href="#DejaVuSans-2d" x="127.246094"/>
       <use xlink:href="#DejaVuSans-32" x="163.330078"/>
       <use xlink:href="#DejaVuSans-35" x="226.953125"/>
       <use xlink:href="#DejaVuSans-20" x="290.576172"/>
       <use xlink:href="#DejaVuSans-32" x="322.363281"/>
       <use xlink:href="#DejaVuSans-30" x="385.986328"/>
      </g>
     </g>
    </g>
    <g id="xtick_27">
     <g id="line2d_36">
      <g>
       <use xlink:href="#m3bbd752de1" x="240.626872" y="246.04" style="stroke: #000000; stroke-width: 0.8"/>
      </g>
     </g>
     <g id="text_22">
      <!-- 02-26 00 -->
      <g transform="translate(218.146403 260.638437) scale(0.1 -0.1)">
       <use xlink:href="#DejaVuSans-30"/>
       <use xlink:href="#DejaVuSans-32" x="63.623047"/>
       <use xlink:href="#DejaVuSans-2d" x="127.246094"/>
       <use xlink:href="#DejaVuSans-32" x="163.330078"/>
       <use xlink:href="#DejaVuSans-36" x="226.953125"/>
       <use xlink:href="#DejaVuSans-20" x="290.576172"/>
       <use xlink:href="#DejaVuSans-30" x="322.363281"/>
       <use xlink:href="#DejaVuSans-30" x="385.986328"/>
      </g>
     </g>
    </g>
    <g id="xtick_28">
     <g id="line2d_37">
      <g>
       <use xlink:href="#m3bbd752de1" x="270.534947" y="246.04" style="stroke: #000000; stroke-width: 0.8"/>
      </g>
     </g>
     <g id="text_23">
      <!-- 02-26 04 -->
      <g transform="translate(248.054478 260.638437) scale(0.1 -0.1)">
       <use xlink:href="#DejaVuSans-30"/>
       <use xlink:href="#DejaVuSans-32" x="63.623047"/>
       <use xlink:href="#DejaVuSans-2d" x="127.246094"/>
       <use xlink:href="#DejaVuSans-32" x="163.330078"/>
       <use xlink:href="#DejaVuSans-36" x="226.953125"/>
       <use xlink:href="#DejaVuSans-20" x="290.576172"/>
       <use xlink:href="#DejaVuSans-30" x="322.363281"/>
       <use xlink:href="#DejaVuSans-34" x="385.986328"/>
      </g>
     </g>
    </g>
    <g id="xtick_29">
     <g id="line2d_38">
      <g>
       <use xlink:href="#m3bbd752de1" x="300.443021" y="246.04" style="stroke: #000000; stroke-width: 0.8"/>
      </g>
     </g>
     <g id="text_24">
      <!-- 02-26 08 -->
      <g transform="translate(277.962552 260.638437) scale(0.1 -0.1)">
       <use xlink:href="#DejaVuSans-30"/>
       <use xlink:href="#DejaVuSans-32" x="63.623047"/>
       <use xlink:href="#DejaVuSans-2d" x="127.246094"/>
       <use xlink:href="#DejaVuSans-32" x="163.330078"/>
       <use xlink:href="#DejaVuSans-36" x="226.953125"/>
       <use xlink:href="#DejaVuSans-20" x="290.576172"/>
       <use xlink:href="#DejaVuSans-30" x="322.363281"/>
       <use xlink:href="#DejaVuSans-38" x="385.986328"/>
      </g>
     </g>
    </g>
    <g id="xtick_30">
     <g id="line2d_39">
      <g>
       <use xlink:href="#m3bbd752de1" x="330.351095" y="246.04" style="stroke: #000000; stroke-width: 0.8"/>
      </g>
     </g>
     <g id="text_25">
      <!-- 02-26 12 -->
      <g transform="translate(307.870627 260.638437) scale(0.1 -0.1)">
       <use xlink:href="#DejaVuSans-30"/>
       <use xlink:href="#DejaVuSans-32" x="63.623047"/>
       <use xlink:href="#DejaVuSans-2d" x="127.246094"/>
       <use xlink:href="#DejaVuSans-32" x="163.330078"/>
       <use xlink:href="#DejaVuSans-36" x="226.953125"/>
       <use xlink:href="#DejaVuSans-20" x="290.576172"/>
       <use xlink:href="#DejaVuSans-31" x="322.363281"/>
       <use xlink:href="#DejaVuSans-32" x="385.986328"/>
      </g>
     </g>
    </g>
    <g id="text_26">
     <!-- time -->
     <g transform="translate(184.46659 274.316562) scale(0.1 -0.1)">
      <use xlink:href="#DejaVuSans-74"/>
      <use xlink:href="#DejaVuSans-69" x="39.208984"/>
      <use xlink:href="#DejaVuSans-6d" x="66.992188"/>
      <use xlink:href="#DejaVuSans-65" x="164.404297"/>
     </g>
    </g>
   </g>
   <g id="matplotlib.axis_6">
    <g id="ytick_8">
     <g id="line2d_40">
      <g>
       <use xlink:href="#ma856aa3135" x="47.72" y="241.783636" style="stroke: #000000; stroke-width: 0.8"/>
      </g>
     </g>
     <g id="text_27">
      <!-- 0.0 -->
      <g transform="translate(24.816875 245.582855) scale(0.1 -0.1)">
       <use xlink:href="#DejaVuSans-30"/>
       <use xlink:href="#DejaVuSans-2e" x="63.623047"/>
       <use xlink:href="#DejaVuSans-30" x="95.410156"/>
      </g>
     </g>
    </g>
    <g id="ytick_9">
     <g id="line2d_41">
      <g>
       <use xlink:href="#ma856aa3135" x="47.72" y="211.762539" style="stroke: #000000; stroke-width: 0.8"/>
      </g>
     </g>
     <g id="text_28">
      <!-- 0.1 -->
      <g transform="translate(24.816875 215.561758) scale(0.1 -0.1)">
       <use xlink:href="#DejaVuSans-30"/>
       <use xlink:href="#DejaVuSans-2e" x="63.623047"/>
       <use xlink:href="#DejaVuSans-31" x="95.410156"/>
      </g>
     </g>
    </g>
    <g id="ytick_10">
     <g id="line2d_42">
      <g>
       <use xlink:href="#ma856aa3135" x="47.72" y="181.741442" style="stroke: #000000; stroke-width: 0.8"/>
      </g>
     </g>
     <g id="text_29">
      <!-- 0.2 -->
      <g transform="translate(24.816875 185.540661) scale(0.1 -0.1)">
       <use xlink:href="#DejaVuSans-30"/>
       <use xlink:href="#DejaVuSans-2e" x="63.623047"/>
       <use xlink:href="#DejaVuSans-32" x="95.410156"/>
      </g>
     </g>
    </g>
    <g id="text_30">
     <!-- flow (cms) -->
     <g transform="translate(18.737188 225.2325) rotate(-90) scale(0.1 -0.1)">
      <use xlink:href="#DejaVuSans-66"/>
      <use xlink:href="#DejaVuSans-6c" x="35.205078"/>
      <use xlink:href="#DejaVuSans-6f" x="62.988281"/>
      <use xlink:href="#DejaVuSans-77" x="124.169922"/>
      <use xlink:href="#DejaVuSans-20" x="205.957031"/>
      <use xlink:href="#DejaVuSans-28" x="237.744141"/>
      <use xlink:href="#DejaVuSans-63" x="276.757812"/>
      <use xlink:href="#DejaVuSans-6d" x="331.738281"/>
      <use xlink:href="#DejaVuSans-73" x="429.150391"/>
      <use xlink:href="#DejaVuSans-29" x="481.25"/>
     </g>
    </g>
   </g>
   <g id="line2d_43">
    <path d="M 61.178426 241.783636 
L 73.44489 241.679626 
L 74.8406 241.382931 
L 76.741009 240.373598 
L 76.894703 240.03448 
L 77.046321 240.050283 
L 77.343325 239.737331 
L 77.486634 239.213331 
L 77.629944 239.262029 
L 77.908255 238.90989 
L 78.570802 237.602707 
L 79.438967 235.162999 
L 79.58643 234.983227 
L 79.87928 234.075589 
L 80.02259 232.946298 
L 80.165899 233.145638 
L 80.8596 230.574812 
L 81.127527 229.501551 
L 81.262529 228.176796 
L 81.393376 228.518358 
L 81.78592 226.942589 
L 81.914691 225.851187 
L 82.043462 225.809764 
L 82.423543 224.144065 
L 82.722624 220.913185 
L 83.015474 219.442909 
L 83.16086 220.940752 
L 83.308324 220.716107 
L 83.59702 219.445666 
L 83.885716 216.424137 
L 84.168181 215.116592 
L 84.307337 215.102762 
L 84.587725 216.554765 
L 84.868113 215.969757 
L 85.14227 209.063181 
L 85.545199 205.978992 
L 85.678123 208.166036 
L 85.808971 208.220315 
L 86.074821 206.673208 
L 86.465287 202.986648 
L 86.724906 202.092275 
L 86.8516 203.180264 
L 87.107065 197.050897 
L 87.379145 195.863984 
L 87.653302 203.873413 
L 87.779996 204.044477 
L 87.90669 203.708481 
L 88.033384 200.344422 
L 88.160078 200.610914 
L 88.432159 204.873486 
L 88.558853 204.642946 
L 88.685546 197.565171 
L 88.976319 202.604271 
L 89.121706 202.608546 
L 89.267092 201.314779 
L 89.553711 194.338624 
L 89.838253 193.254071 
L 89.981563 194.474265 
L 90.259874 176.517464 
L 90.396953 175.977828 
L 90.531955 180.558357 
L 90.810266 200.810112 
L 90.953575 201.726353 
L 91.096885 201.572762 
L 91.240194 196.978781 
L 91.52266 198.276671 
L 91.805125 197.57392 
L 93.757457 191.788472 
L 95.672405 186.764685 
L 97.957049 181.367863 
L 100.594776 175.694138 
L 103.83274 169.282411 
L 106.505774 164.329872 
L 107.679251 162.590942 
L 108.94619 161.08391 
L 110.468594 159.628151 
L 112.244386 158.240961 
L 114.020178 157.095546 
L 115.035806 156.758261 
L 116.057665 156.656364 
L 117.212449 156.768445 
L 118.633083 157.148777 
L 120.321643 157.838576 
L 121.625967 158.546954 
L 122.676904 159.417203 
L 123.873227 160.690215 
L 125.349938 162.593894 
L 127.256578 165.443769 
L 129.753071 169.634581 
L 133.018036 175.695458 
L 137.639249 184.73577 
L 143.317629 195.667404 
L 146.628287 201.607715 
L 149.330398 206.09991 
L 152.260974 210.542794 
L 154.979701 214.233527 
L 157.702582 217.505839 
L 158.495977 218.547433 
L 158.768057 218.854585 
L 159.451374 219.419884 
L 159.858456 219.884858 
L 161.069317 222.571202 
L 161.206396 222.587264 
L 161.619709 223.364249 
L 161.758865 223.640428 
L 161.89802 223.610446 
L 162.608337 225.020178 
L 162.7558 225.135885 
L 162.901187 224.979393 
L 163.044496 225.01709 
L 163.329039 225.334086 
L 163.472348 225.434775 
L 163.75689 225.431066 
L 164.037278 225.638565 
L 164.328051 226.100844 
L 164.622978 226.233182 
L 164.770442 226.102294 
L 165.206601 226.424746 
L 165.939764 226.84075 
L 166.085151 226.814788 
L 167.117395 227.483769 
L 167.412321 227.370144 
L 170.099894 228.963683 
L 172.095843 229.652279 
L 172.407385 229.971096 
L 173.429244 230.375456 
L 173.585016 230.210227 
L 174.046098 230.444808 
L 174.486412 230.690882 
L 178.141843 232.122767 
L 179.743171 232.738394 
L 180.160638 232.906184 
L 180.434795 232.910017 
L 180.98311 232.992331 
L 181.381885 233.100975 
L 184.011303 234.10471 
L 184.297922 234.141711 
L 188.487129 235.347292 
L 188.784133 235.343011 
L 192.902724 236.40584 
L 204.658259 238.726116 
L 217.481346 240.329259 
L 218.775285 240.454955 
L 219.147059 240.271788 
L 220.062994 240.363918 
L 220.434768 240.564882 
L 221.369395 240.618704 
L 221.556321 240.502779 
L 224.173277 240.696843 
L 229.033339 240.952054 
L 245.669706 241.400744 
L 246.230482 241.362579 
L 250.155917 241.421285 
L 252.399023 241.436881 
L 256.137532 241.499921 
L 258.754488 241.491507 
L 260.062967 241.526842 
L 273.708526 241.578568 
L 276.886258 241.606594 
L 295.952656 241.646745 
L 330.346941 241.699319 
L 330.346941 241.699319 
" clip-path="url(#p9058947f42)" style="fill: none; stroke: #1f77b4; stroke-width: 1.5; stroke-linecap: square"/>
   </g>
   <g id="patch_13">
    <path d="M 47.72 246.04 
L 47.72 152.4 
" style="fill: none; stroke: #000000; stroke-width: 0.8; stroke-linejoin: miter; stroke-linecap: square"/>
   </g>
   <g id="patch_14">
    <path d="M 343.805367 246.04 
L 343.805367 152.4 
" style="fill: none; stroke: #000000; stroke-width: 0.8; stroke-linejoin: miter; stroke-linecap: square"/>
   </g>
   <g id="patch_15">
    <path d="M 47.72 246.04 
L 343.805367 246.04 
" style="fill: none; stroke: #000000; stroke-width: 0.8; stroke-linejoin: miter; stroke-linecap: square"/>
   </g>
   <g id="patch_16">
    <path d="M 47.72 152.4 
L 343.805367 152.4 
" style="fill: none; stroke: #000000; stroke-width: 0.8; stroke-linejoin: miter; stroke-linecap: square"/>
   </g>
   <g id="text_31">
    <!-- 2 -->
    <g transform="translate(190.265484 175.8962) scale(0.1728 -0.1728)">
     <use xlink:href="#DejaVuSans-32"/>
    </g>
   </g>
  </g>
  <g id="axes_4">
   <g id="patch_17">
    <path d="M 402.32 246.04 
L 698.405367 246.04 
L 698.405367 152.4 
L 402.32 152.4 
z
" style="fill: #ffffff"/>
   </g>
   <g id="matplotlib.axis_7">
    <g id="xtick_31">
     <g id="line2d_44">
      <g>
       <use xlink:href="#m3bbd752de1" x="415.778426" y="246.04" style="stroke: #000000; stroke-width: 0.8"/>
      </g>
     </g>
     <g id="text_32">
      <!-- 02-25 00 -->
      <g transform="translate(393.297957 260.638437) scale(0.1 -0.1)">
       <use xlink:href="#DejaVuSans-30"/>
       <use xlink:href="#DejaVuSans-32" x="63.623047"/>
       <use xlink:href="#DejaVuSans-2d" x="127.246094"/>
       <use xlink:href="#DejaVuSans-32" x="163.330078"/>
       <use xlink:href="#DejaVuSans-35" x="226.953125"/>
       <use xlink:href="#DejaVuSans-20" x="290.576172"/>
       <use xlink:href="#DejaVuSans-30" x="322.363281"/>
       <use xlink:href="#DejaVuSans-30" x="385.986328"/>
      </g>
     </g>
    </g>
    <g id="xtick_32">
     <g id="line2d_45">
      <g>
       <use xlink:href="#m3bbd752de1" x="445.6865" y="246.04" style="stroke: #000000; stroke-width: 0.8"/>
      </g>
     </g>
     <g id="text_33">
      <!-- 02-25 04 -->
      <g transform="translate(423.206031 260.638437) scale(0.1 -0.1)">
       <use xlink:href="#DejaVuSans-30"/>
       <use xlink:href="#DejaVuSans-32" x="63.623047"/>
       <use xlink:href="#DejaVuSans-2d" x="127.246094"/>
       <use xlink:href="#DejaVuSans-32" x="163.330078"/>
       <use xlink:href="#DejaVuSans-35" x="226.953125"/>
       <use xlink:href="#DejaVuSans-20" x="290.576172"/>
       <use xlink:href="#DejaVuSans-30" x="322.363281"/>
       <use xlink:href="#DejaVuSans-34" x="385.986328"/>
      </g>
     </g>
    </g>
    <g id="xtick_33">
     <g id="line2d_46">
      <g>
       <use xlink:href="#m3bbd752de1" x="475.594575" y="246.04" style="stroke: #000000; stroke-width: 0.8"/>
      </g>
     </g>
     <g id="text_34">
      <!-- 02-25 08 -->
      <g transform="translate(453.114106 260.638437) scale(0.1 -0.1)">
       <use xlink:href="#DejaVuSans-30"/>
       <use xlink:href="#DejaVuSans-32" x="63.623047"/>
       <use xlink:href="#DejaVuSans-2d" x="127.246094"/>
       <use xlink:href="#DejaVuSans-32" x="163.330078"/>
       <use xlink:href="#DejaVuSans-35" x="226.953125"/>
       <use xlink:href="#DejaVuSans-20" x="290.576172"/>
       <use xlink:href="#DejaVuSans-30" x="322.363281"/>
       <use xlink:href="#DejaVuSans-38" x="385.986328"/>
      </g>
     </g>
    </g>
    <g id="xtick_34">
     <g id="line2d_47">
      <g>
       <use xlink:href="#m3bbd752de1" x="505.502649" y="246.04" style="stroke: #000000; stroke-width: 0.8"/>
      </g>
     </g>
     <g id="text_35">
      <!-- 02-25 12 -->
      <g transform="translate(483.02218 260.638437) scale(0.1 -0.1)">
       <use xlink:href="#DejaVuSans-30"/>
       <use xlink:href="#DejaVuSans-32" x="63.623047"/>
       <use xlink:href="#DejaVuSans-2d" x="127.246094"/>
       <use xlink:href="#DejaVuSans-32" x="163.330078"/>
       <use xlink:href="#DejaVuSans-35" x="226.953125"/>
       <use xlink:href="#DejaVuSans-20" x="290.576172"/>
       <use xlink:href="#DejaVuSans-31" x="322.363281"/>
       <use xlink:href="#DejaVuSans-32" x="385.986328"/>
      </g>
     </g>
    </g>
    <g id="xtick_35">
     <g id="line2d_48">
      <g>
       <use xlink:href="#m3bbd752de1" x="535.410723" y="246.04" style="stroke: #000000; stroke-width: 0.8"/>
      </g>
     </g>
     <g id="text_36">
      <!-- 02-25 16 -->
      <g transform="translate(512.930255 260.638437) scale(0.1 -0.1)">
       <use xlink:href="#DejaVuSans-30"/>
       <use xlink:href="#DejaVuSans-32" x="63.623047"/>
       <use xlink:href="#DejaVuSans-2d" x="127.246094"/>
       <use xlink:href="#DejaVuSans-32" x="163.330078"/>
       <use xlink:href="#DejaVuSans-35" x="226.953125"/>
       <use xlink:href="#DejaVuSans-20" x="290.576172"/>
       <use xlink:href="#DejaVuSans-31" x="322.363281"/>
       <use xlink:href="#DejaVuSans-36" x="385.986328"/>
      </g>
     </g>
    </g>
    <g id="xtick_36">
     <g id="line2d_49">
      <g>
       <use xlink:href="#m3bbd752de1" x="565.318798" y="246.04" style="stroke: #000000; stroke-width: 0.8"/>
      </g>
     </g>
     <g id="text_37">
      <!-- 02-25 20 -->
      <g transform="translate(542.838329 260.638437) scale(0.1 -0.1)">
       <use xlink:href="#DejaVuSans-30"/>
       <use xlink:href="#DejaVuSans-32" x="63.623047"/>
       <use xlink:href="#DejaVuSans-2d" x="127.246094"/>
       <use xlink:href="#DejaVuSans-32" x="163.330078"/>
       <use xlink:href="#DejaVuSans-35" x="226.953125"/>
       <use xlink:href="#DejaVuSans-20" x="290.576172"/>
       <use xlink:href="#DejaVuSans-32" x="322.363281"/>
       <use xlink:href="#DejaVuSans-30" x="385.986328"/>
      </g>
     </g>
    </g>
    <g id="xtick_37">
     <g id="line2d_50">
      <g>
       <use xlink:href="#m3bbd752de1" x="595.226872" y="246.04" style="stroke: #000000; stroke-width: 0.8"/>
      </g>
     </g>
     <g id="text_38">
      <!-- 02-26 00 -->
      <g transform="translate(572.746403 260.638437) scale(0.1 -0.1)">
       <use xlink:href="#DejaVuSans-30"/>
       <use xlink:href="#DejaVuSans-32" x="63.623047"/>
       <use xlink:href="#DejaVuSans-2d" x="127.246094"/>
       <use xlink:href="#DejaVuSans-32" x="163.330078"/>
       <use xlink:href="#DejaVuSans-36" x="226.953125"/>
       <use xlink:href="#DejaVuSans-20" x="290.576172"/>
       <use xlink:href="#DejaVuSans-30" x="322.363281"/>
       <use xlink:href="#DejaVuSans-30" x="385.986328"/>
      </g>
     </g>
    </g>
    <g id="xtick_38">
     <g id="line2d_51">
      <g>
       <use xlink:href="#m3bbd752de1" x="625.134947" y="246.04" style="stroke: #000000; stroke-width: 0.8"/>
      </g>
     </g>
     <g id="text_39">
      <!-- 02-26 04 -->
      <g transform="translate(602.654478 260.638437) scale(0.1 -0.1)">
       <use xlink:href="#DejaVuSans-30"/>
       <use xlink:href="#DejaVuSans-32" x="63.623047"/>
       <use xlink:href="#DejaVuSans-2d" x="127.246094"/>
       <use xlink:href="#DejaVuSans-32" x="163.330078"/>
       <use xlink:href="#DejaVuSans-36" x="226.953125"/>
       <use xlink:href="#DejaVuSans-20" x="290.576172"/>
       <use xlink:href="#DejaVuSans-30" x="322.363281"/>
       <use xlink:href="#DejaVuSans-34" x="385.986328"/>
      </g>
     </g>
    </g>
    <g id="xtick_39">
     <g id="line2d_52">
      <g>
       <use xlink:href="#m3bbd752de1" x="655.043021" y="246.04" style="stroke: #000000; stroke-width: 0.8"/>
      </g>
     </g>
     <g id="text_40">
      <!-- 02-26 08 -->
      <g transform="translate(632.562552 260.638437) scale(0.1 -0.1)">
       <use xlink:href="#DejaVuSans-30"/>
       <use xlink:href="#DejaVuSans-32" x="63.623047"/>
       <use xlink:href="#DejaVuSans-2d" x="127.246094"/>
       <use xlink:href="#DejaVuSans-32" x="163.330078"/>
       <use xlink:href="#DejaVuSans-36" x="226.953125"/>
       <use xlink:href="#DejaVuSans-20" x="290.576172"/>
       <use xlink:href="#DejaVuSans-30" x="322.363281"/>
       <use xlink:href="#DejaVuSans-38" x="385.986328"/>
      </g>
     </g>
    </g>
    <g id="xtick_40">
     <g id="line2d_53">
      <g>
       <use xlink:href="#m3bbd752de1" x="684.951095" y="246.04" style="stroke: #000000; stroke-width: 0.8"/>
      </g>
     </g>
     <g id="text_41">
      <!-- 02-26 12 -->
      <g transform="translate(662.470627 260.638437) scale(0.1 -0.1)">
       <use xlink:href="#DejaVuSans-30"/>
       <use xlink:href="#DejaVuSans-32" x="63.623047"/>
       <use xlink:href="#DejaVuSans-2d" x="127.246094"/>
       <use xlink:href="#DejaVuSans-32" x="163.330078"/>
       <use xlink:href="#DejaVuSans-36" x="226.953125"/>
       <use xlink:href="#DejaVuSans-20" x="290.576172"/>
       <use xlink:href="#DejaVuSans-31" x="322.363281"/>
       <use xlink:href="#DejaVuSans-32" x="385.986328"/>
      </g>
     </g>
    </g>
    <g id="text_42">
     <!-- time -->
     <g transform="translate(539.06659 274.316562) scale(0.1 -0.1)">
      <use xlink:href="#DejaVuSans-74"/>
      <use xlink:href="#DejaVuSans-69" x="39.208984"/>
      <use xlink:href="#DejaVuSans-6d" x="66.992188"/>
      <use xlink:href="#DejaVuSans-65" x="164.404297"/>
     </g>
    </g>
   </g>
   <g id="matplotlib.axis_8">
    <g id="ytick_11">
     <g id="line2d_54">
      <g>
       <use xlink:href="#ma856aa3135" x="402.32" y="241.783636" style="stroke: #000000; stroke-width: 0.8"/>
      </g>
     </g>
     <g id="text_43">
      <!-- 0.0 -->
      <g transform="translate(379.416875 245.582855) scale(0.1 -0.1)">
       <use xlink:href="#DejaVuSans-30"/>
       <use xlink:href="#DejaVuSans-2e" x="63.623047"/>
       <use xlink:href="#DejaVuSans-30" x="95.410156"/>
      </g>
     </g>
    </g>
    <g id="ytick_12">
     <g id="line2d_55">
      <g>
       <use xlink:href="#ma856aa3135" x="402.32" y="210.403419" style="stroke: #000000; stroke-width: 0.8"/>
      </g>
     </g>
     <g id="text_44">
      <!-- 0.5 -->
      <g transform="translate(379.416875 214.202638) scale(0.1 -0.1)">
       <use xlink:href="#DejaVuSans-30"/>
       <use xlink:href="#DejaVuSans-2e" x="63.623047"/>
       <use xlink:href="#DejaVuSans-35" x="95.410156"/>
      </g>
     </g>
    </g>
    <g id="ytick_13">
     <g id="line2d_56">
      <g>
       <use xlink:href="#ma856aa3135" x="402.32" y="179.023202" style="stroke: #000000; stroke-width: 0.8"/>
      </g>
     </g>
     <g id="text_45">
      <!-- 1.0 -->
      <g transform="translate(379.416875 182.822421) scale(0.1 -0.1)">
       <use xlink:href="#DejaVuSans-31"/>
       <use xlink:href="#DejaVuSans-2e" x="63.623047"/>
       <use xlink:href="#DejaVuSans-30" x="95.410156"/>
      </g>
     </g>
    </g>
    <g id="text_46">
     <!-- depth (m) -->
     <g transform="translate(373.337188 224.134844) rotate(-90) scale(0.1 -0.1)">
      <use xlink:href="#DejaVuSans-64"/>
      <use xlink:href="#DejaVuSans-65" x="63.476562"/>
      <use xlink:href="#DejaVuSans-70" x="125"/>
      <use xlink:href="#DejaVuSans-74" x="188.476562"/>
      <use xlink:href="#DejaVuSans-68" x="227.685547"/>
      <use xlink:href="#DejaVuSans-20" x="291.064453"/>
      <use xlink:href="#DejaVuSans-28" x="322.851562"/>
      <use xlink:href="#DejaVuSans-6d" x="361.865234"/>
      <use xlink:href="#DejaVuSans-29" x="459.277344"/>
     </g>
    </g>
   </g>
   <g id="line2d_57">
    <path d="M 415.778426 241.783636 
L 425.438318 241.677314 
L 426.746797 241.380227 
L 428.04489 240.838126 
L 429.4406 239.970059 
L 430.865388 238.817841 
L 431.795861 237.803759 
L 432.911183 236.227568 
L 434.47928 233.548975 
L 436.514691 229.840983 
L 437.908324 227.54133 
L 442.379996 219.964345 
L 444.581563 214.77998 
L 444.859874 214.709151 
L 444.996953 214.637576 
L 445.131955 214.435134 
L 448.494536 204.16633 
L 453.618371 189.635569 
L 461.375778 168.2489 
L 462.532638 165.708154 
L 463.799578 163.434334 
L 465.321982 161.184938 
L 467.097774 158.985888 
L 468.620178 157.381057 
L 469.382418 156.910784 
L 470.146736 156.688816 
L 471.041901 156.684624 
L 471.94122 156.901931 
L 472.975541 157.362281 
L 474.400329 158.271063 
L 475.964272 159.539319 
L 476.751436 160.470941 
L 477.806526 162.098651 
L 479.142005 164.616589 
L 481.036183 168.783341 
L 484.072683 176.220312 
L 491.852936 195.821906 
L 494.710819 202.219619 
L 496.97054 206.802267 
L 499.282185 211.01592 
L 501.649907 214.829026 
L 503.787089 217.847998 
L 505.824576 220.372047 
L 508.034451 222.744012 
L 510.350249 224.863181 
L 512.566355 226.583649 
L 514.722228 227.973638 
L 515.943475 228.52703 
L 517.501187 229.004641 
L 521.418314 229.949366 
L 529.989885 231.73757 
L 539.469083 233.476312 
L 552.250631 235.566679 
L 565.779881 237.477853 
L 575.595544 238.628048 
L 582.511787 239.206332 
L 593.540389 239.772885 
L 601.76511 240.036282 
L 621.579209 240.443896 
L 676.161445 240.938833 
L 684.946941 240.983121 
L 684.946941 240.983121 
" clip-path="url(#p36212e27f9)" style="fill: none; stroke: #1f77b4; stroke-width: 1.5; stroke-linecap: square"/>
   </g>
   <g id="patch_18">
    <path d="M 402.32 246.04 
L 402.32 152.4 
" style="fill: none; stroke: #000000; stroke-width: 0.8; stroke-linejoin: miter; stroke-linecap: square"/>
   </g>
   <g id="patch_19">
    <path d="M 698.405367 246.04 
L 698.405367 152.4 
" style="fill: none; stroke: #000000; stroke-width: 0.8; stroke-linejoin: miter; stroke-linecap: square"/>
   </g>
   <g id="patch_20">
    <path d="M 402.32 246.04 
L 698.405367 246.04 
" style="fill: none; stroke: #000000; stroke-width: 0.8; stroke-linejoin: miter; stroke-linecap: square"/>
   </g>
   <g id="patch_21">
    <path d="M 402.32 152.4 
L 698.405367 152.4 
" style="fill: none; stroke: #000000; stroke-width: 0.8; stroke-linejoin: miter; stroke-linecap: square"/>
   </g>
   <g id="text_47">
    <!-- ('P2', 'depthN') -->
    <g transform="translate(486.310584 175.8962) scale(0.1728 -0.1728)">
     <use xlink:href="#DejaVuSans-28"/>
     <use xlink:href="#DejaVuSans-27" x="39.013672"/>
     <use xlink:href="#DejaVuSans-50" x="66.503906"/>
     <use xlink:href="#DejaVuSans-32" x="126.806641"/>
     <use xlink:href="#DejaVuSans-27" x="190.429688"/>
     <use xlink:href="#DejaVuSans-2c" x="217.919922"/>
     <use xlink:href="#DejaVuSans-20" x="249.707031"/>
     <use xlink:href="#DejaVuSans-27" x="281.494141"/>
     <use xlink:href="#DejaVuSans-64" x="308.984375"/>
     <use xlink:href="#DejaVuSans-65" x="372.460938"/>
     <use xlink:href="#DejaVuSans-70" x="433.984375"/>
     <use xlink:href="#DejaVuSans-74" x="497.460938"/>
     <use xlink:href="#DejaVuSans-68" x="536.669922"/>
     <use xlink:href="#DejaVuSans-4e" x="600.048828"/>
     <use xlink:href="#DejaVuSans-27" x="674.853516"/>
     <use xlink:href="#DejaVuSans-29" x="702.34375"/>
    </g>
   </g>
   <g id="text_48">
    <!-- cost: 6.36e+03 -->
    <g transform="translate(483.992634 203.9882) scale(0.1728 -0.1728)">
     <defs>
      <path id="DejaVuSans-3a" d="M 750 794 
L 1409 794 
L 1409 0 
L 750 0 
L 750 794 
z
M 750 3309 
L 1409 3309 
L 1409 2516 
L 750 2516 
L 750 3309 
z
" transform="scale(0.015625)"/>
      <path id="DejaVuSans-2b" d="M 2944 4013 
L 2944 2272 
L 4684 2272 
L 4684 1741 
L 2944 1741 
L 2944 0 
L 2419 0 
L 2419 1741 
L 678 1741 
L 678 2272 
L 2419 2272 
L 2419 4013 
L 2944 4013 
z
" transform="scale(0.015625)"/>
     </defs>
     <use xlink:href="#DejaVuSans-63"/>
     <use xlink:href="#DejaVuSans-6f" x="54.980469"/>
     <use xlink:href="#DejaVuSans-73" x="116.162109"/>
     <use xlink:href="#DejaVuSans-74" x="168.261719"/>
     <use xlink:href="#DejaVuSans-3a" x="207.470703"/>
     <use xlink:href="#DejaVuSans-20" x="241.162109"/>
     <use xlink:href="#DejaVuSans-36" x="272.949219"/>
     <use xlink:href="#DejaVuSans-2e" x="336.572266"/>
     <use xlink:href="#DejaVuSans-33" x="368.359375"/>
     <use xlink:href="#DejaVuSans-36" x="431.982422"/>
     <use xlink:href="#DejaVuSans-65" x="495.605469"/>
     <use xlink:href="#DejaVuSans-2b" x="557.128906"/>
     <use xlink:href="#DejaVuSans-30" x="640.917969"/>
     <use xlink:href="#DejaVuSans-33" x="704.541016"/>
    </g>
   </g>
  </g>
 </g>
 <defs>
  <clipPath id="pc22263374f">
   <rect x="47.72" y="26.88" width="296.085367" height="93.64"/>
  </clipPath>
  <clipPath id="p38b18d5546">
   <rect x="402.32" y="26.88" width="296.085367" height="93.64"/>
  </clipPath>
  <clipPath id="p9058947f42">
   <rect x="47.72" y="152.4" width="296.085367" height="93.64"/>
  </clipPath>
  <clipPath id="p36212e27f9">
   <rect x="402.32" y="152.4" width="296.085367" height="93.64"/>
  </clipPath>
 </defs>
</svg>
