<?xml version="1.0" encoding="utf-8" standalone="no"?>
<!DOCTYPE svg PUBLIC "-//W3C//DTD SVG 1.1//EN"
  "http://www.w3.org/Graphics/SVG/1.1/DTD/svg11.dtd">
<svg xmlns:xlink="http://www.w3.org/1999/xlink" width="720pt" height="288pt" viewBox="0 0 720 288" xmlns="http://www.w3.org/2000/svg" version="1.1">
 <metadata>
  <rdf:RDF xmlns:dc="http://purl.org/dc/elements/1.1/" xmlns:cc="http://creativecommons.org/ns#" xmlns:rdf="http://www.w3.org/1999/02/22-rdf-syntax-ns#">
   <cc:Work>
    <dc:type rdf:resource="http://purl.org/dc/dcmitype/StillImage"/>
    <dc:date>2025-02-27T18:59:09.738605</dc:date>
    <dc:format>image/svg+xml</dc:format>
    <dc:creator>
     <cc:Agent>
      <dc:title>Matplotlib v3.9.4, https://matplotlib.org/</dc:title>
     </cc:Agent>
    </dc:creator>
   </cc:Work>
  </rdf:RDF>
 </metadata>
 <defs>
  <style type="text/css">*{stroke-linejoin: round; stroke-linecap: butt}</style>
 </defs>
 <g id="figure_1">
  <g id="patch_1">
   <path d="M 0 288 
L 720 288 
L 720 0 
L 0 0 
z
" style="fill: #ffffff"/>
  </g>
  <g id="axes_1">
   <g id="patch_2">
    <path d="M 54.02 120.138259 
L 354.6 120.138259 
L 354.6 26.88 
L 54.02 26.88 
z
" style="fill: #ffffff"/>
   </g>
   <g id="matplotlib.axis_1">
    <g id="xtick_1">
     <g id="line2d_1">
      <defs>
       <path id="mc64d8f4939" d="M 0 0 
L 0 3.5 
" style="stroke: #000000; stroke-width: 0.8"/>
      </defs>
      <g>
       <use xlink:href="#mc64d8f4939" x="67.682727" y="120.138259" style="stroke: #000000; stroke-width: 0.8"/>
      </g>
     </g>
    </g>
    <g id="xtick_2">
     <g id="line2d_2">
      <g>
       <use xlink:href="#mc64d8f4939" x="109.726829" y="120.138259" style="stroke: #000000; stroke-width: 0.8"/>
      </g>
     </g>
    </g>
    <g id="xtick_3">
     <g id="line2d_3">
      <g>
       <use xlink:href="#mc64d8f4939" x="151.770931" y="120.138259" style="stroke: #000000; stroke-width: 0.8"/>
      </g>
     </g>
    </g>
    <g id="xtick_4">
     <g id="line2d_4">
      <g>
       <use xlink:href="#mc64d8f4939" x="193.815033" y="120.138259" style="stroke: #000000; stroke-width: 0.8"/>
      </g>
     </g>
    </g>
    <g id="xtick_5">
     <g id="line2d_5">
      <g>
       <use xlink:href="#mc64d8f4939" x="235.859135" y="120.138259" style="stroke: #000000; stroke-width: 0.8"/>
      </g>
     </g>
    </g>
    <g id="xtick_6">
     <g id="line2d_6">
      <g>
       <use xlink:href="#mc64d8f4939" x="277.903237" y="120.138259" style="stroke: #000000; stroke-width: 0.8"/>
      </g>
     </g>
    </g>
    <g id="xtick_7">
     <g id="line2d_7">
      <g>
       <use xlink:href="#mc64d8f4939" x="319.947339" y="120.138259" style="stroke: #000000; stroke-width: 0.8"/>
      </g>
     </g>
    </g>
    <g id="text_1">
     <!-- time -->
     <g transform="translate(193.013906 138.736696) scale(0.1 -0.1)">
      <defs>
       <path id="DejaVuSans-74" d="M 1172 4494 
L 1172 3500 
L 2356 3500 
L 2356 3053 
L 1172 3053 
L 1172 1153 
Q 1172 725 1289 603 
Q 1406 481 1766 481 
L 2356 481 
L 2356 0 
L 1766 0 
Q 1100 0 847 248 
Q 594 497 594 1153 
L 594 3053 
L 172 3053 
L 172 3500 
L 594 3500 
L 594 4494 
L 1172 4494 
z
" transform="scale(0.015625)"/>
       <path id="DejaVuSans-69" d="M 603 3500 
L 1178 3500 
L 1178 0 
L 603 0 
L 603 3500 
z
M 603 4863 
L 1178 4863 
L 1178 4134 
L 603 4134 
L 603 4863 
z
" transform="scale(0.015625)"/>
       <path id="DejaVuSans-6d" d="M 3328 2828 
Q 3544 3216 3844 3400 
Q 4144 3584 4550 3584 
Q 5097 3584 5394 3201 
Q 5691 2819 5691 2113 
L 5691 0 
L 5113 0 
L 5113 2094 
Q 5113 2597 4934 2840 
Q 4756 3084 4391 3084 
Q 3944 3084 3684 2787 
Q 3425 2491 3425 1978 
L 3425 0 
L 2847 0 
L 2847 2094 
Q 2847 2600 2669 2842 
Q 2491 3084 2119 3084 
Q 1678 3084 1418 2786 
Q 1159 2488 1159 1978 
L 1159 0 
L 581 0 
L 581 3500 
L 1159 3500 
L 1159 2956 
Q 1356 3278 1631 3431 
Q 1906 3584 2284 3584 
Q 2666 3584 2933 3390 
Q 3200 3197 3328 2828 
z
" transform="scale(0.015625)"/>
       <path id="DejaVuSans-65" d="M 3597 1894 
L 3597 1613 
L 953 1613 
Q 991 1019 1311 708 
Q 1631 397 2203 397 
Q 2534 397 2845 478 
Q 3156 559 3463 722 
L 3463 178 
Q 3153 47 2828 -22 
Q 2503 -91 2169 -91 
Q 1331 -91 842 396 
Q 353 884 353 1716 
Q 353 2575 817 3079 
Q 1281 3584 2069 3584 
Q 2775 3584 3186 3129 
Q 3597 2675 3597 1894 
z
M 3022 2063 
Q 3016 2534 2758 2815 
Q 2500 3097 2075 3097 
Q 1594 3097 1305 2825 
Q 1016 2553 972 2059 
L 3022 2063 
z
" transform="scale(0.015625)"/>
      </defs>
      <use xlink:href="#DejaVuSans-74"/>
      <use xlink:href="#DejaVuSans-69" x="39.208984"/>
      <use xlink:href="#DejaVuSans-6d" x="66.992188"/>
      <use xlink:href="#DejaVuSans-65" x="164.404297"/>
     </g>
    </g>
   </g>
   <g id="matplotlib.axis_2">
    <g id="ytick_1">
     <g id="line2d_8">
      <defs>
       <path id="m51f807b565" d="M 0 0 
L -3.5 0 
" style="stroke: #000000; stroke-width: 0.8"/>
      </defs>
      <g>
       <use xlink:href="#m51f807b565" x="54.02" y="115.899247" style="stroke: #000000; stroke-width: 0.8"/>
      </g>
     </g>
     <g id="text_2">
      <!-- 0.0 -->
      <g transform="translate(31.116875 119.698466) scale(0.1 -0.1)">
       <defs>
        <path id="DejaVuSans-30" d="M 2034 4250 
Q 1547 4250 1301 3770 
Q 1056 3291 1056 2328 
Q 1056 1369 1301 889 
Q 1547 409 2034 409 
Q 2525 409 2770 889 
Q 3016 1369 3016 2328 
Q 3016 3291 2770 3770 
Q 2525 4250 2034 4250 
z
M 2034 4750 
Q 2819 4750 3233 4129 
Q 3647 3509 3647 2328 
Q 3647 1150 3233 529 
Q 2819 -91 2034 -91 
Q 1250 -91 836 529 
Q 422 1150 422 2328 
Q 422 3509 836 4129 
Q 1250 4750 2034 4750 
z
" transform="scale(0.015625)"/>
        <path id="DejaVuSans-2e" d="M 684 794 
L 1344 794 
L 1344 0 
L 684 0 
L 684 794 
z
" transform="scale(0.015625)"/>
       </defs>
       <use xlink:href="#DejaVuSans-30"/>
       <use xlink:href="#DejaVuSans-2e" x="63.623047"/>
       <use xlink:href="#DejaVuSans-30" x="95.410156"/>
      </g>
     </g>
    </g>
    <g id="ytick_2">
     <g id="line2d_9">
      <g>
       <use xlink:href="#m51f807b565" x="54.02" y="91.794058" style="stroke: #000000; stroke-width: 0.8"/>
      </g>
     </g>
     <g id="text_3">
      <!-- 0.1 -->
      <g transform="translate(31.116875 95.593277) scale(0.1 -0.1)">
       <defs>
        <path id="DejaVuSans-31" d="M 794 531 
L 1825 531 
L 1825 4091 
L 703 3866 
L 703 4441 
L 1819 4666 
L 2450 4666 
L 2450 531 
L 3481 531 
L 3481 0 
L 794 0 
L 794 531 
z
" transform="scale(0.015625)"/>
       </defs>
       <use xlink:href="#DejaVuSans-30"/>
       <use xlink:href="#DejaVuSans-2e" x="63.623047"/>
       <use xlink:href="#DejaVuSans-31" x="95.410156"/>
      </g>
     </g>
    </g>
    <g id="ytick_3">
     <g id="line2d_10">
      <g>
       <use xlink:href="#m51f807b565" x="54.02" y="67.688869" style="stroke: #000000; stroke-width: 0.8"/>
      </g>
     </g>
     <g id="text_4">
      <!-- 0.2 -->
      <g transform="translate(31.116875 71.488088) scale(0.1 -0.1)">
       <defs>
        <path id="DejaVuSans-32" d="M 1228 531 
L 3431 531 
L 3431 0 
L 469 0 
L 469 531 
Q 828 903 1448 1529 
Q 2069 2156 2228 2338 
Q 2531 2678 2651 2914 
Q 2772 3150 2772 3378 
Q 2772 3750 2511 3984 
Q 2250 4219 1831 4219 
Q 1534 4219 1204 4116 
Q 875 4013 500 3803 
L 500 4441 
Q 881 4594 1212 4672 
Q 1544 4750 1819 4750 
Q 2544 4750 2975 4387 
Q 3406 4025 3406 3419 
Q 3406 3131 3298 2873 
Q 3191 2616 2906 2266 
Q 2828 2175 2409 1742 
Q 1991 1309 1228 531 
z
" transform="scale(0.015625)"/>
       </defs>
       <use xlink:href="#DejaVuSans-30"/>
       <use xlink:href="#DejaVuSans-2e" x="63.623047"/>
       <use xlink:href="#DejaVuSans-32" x="95.410156"/>
      </g>
     </g>
    </g>
    <g id="ytick_4">
     <g id="line2d_11">
      <g>
       <use xlink:href="#m51f807b565" x="54.02" y="43.58368" style="stroke: #000000; stroke-width: 0.8"/>
      </g>
     </g>
     <g id="text_5">
      <!-- 0.3 -->
      <g transform="translate(31.116875 47.382898) scale(0.1 -0.1)">
       <defs>
        <path id="DejaVuSans-33" d="M 2597 2516 
Q 3050 2419 3304 2112 
Q 3559 1806 3559 1356 
Q 3559 666 3084 287 
Q 2609 -91 1734 -91 
Q 1441 -91 1130 -33 
Q 819 25 488 141 
L 488 750 
Q 750 597 1062 519 
Q 1375 441 1716 441 
Q 2309 441 2620 675 
Q 2931 909 2931 1356 
Q 2931 1769 2642 2001 
Q 2353 2234 1838 2234 
L 1294 2234 
L 1294 2753 
L 1863 2753 
Q 2328 2753 2575 2939 
Q 2822 3125 2822 3475 
Q 2822 3834 2567 4026 
Q 2313 4219 1838 4219 
Q 1578 4219 1281 4162 
Q 984 4106 628 3988 
L 628 4550 
Q 988 4650 1302 4700 
Q 1616 4750 1894 4750 
Q 2613 4750 3031 4423 
Q 3450 4097 3450 3541 
Q 3450 3153 3228 2886 
Q 3006 2619 2597 2516 
z
" transform="scale(0.015625)"/>
       </defs>
       <use xlink:href="#DejaVuSans-30"/>
       <use xlink:href="#DejaVuSans-2e" x="63.623047"/>
       <use xlink:href="#DejaVuSans-33" x="95.410156"/>
      </g>
     </g>
    </g>
    <g id="text_6">
     <!-- flow (cms) -->
     <g transform="translate(25.037188 99.521629) rotate(-90) scale(0.1 -0.1)">
      <defs>
       <path id="DejaVuSans-66" d="M 2375 4863 
L 2375 4384 
L 1825 4384 
Q 1516 4384 1395 4259 
Q 1275 4134 1275 3809 
L 1275 3500 
L 2222 3500 
L 2222 3053 
L 1275 3053 
L 1275 0 
L 697 0 
L 697 3053 
L 147 3053 
L 147 3500 
L 697 3500 
L 697 3744 
Q 697 4328 969 4595 
Q 1241 4863 1831 4863 
L 2375 4863 
z
" transform="scale(0.015625)"/>
       <path id="DejaVuSans-6c" d="M 603 4863 
L 1178 4863 
L 1178 0 
L 603 0 
L 603 4863 
z
" transform="scale(0.015625)"/>
       <path id="DejaVuSans-6f" d="M 1959 3097 
Q 1497 3097 1228 2736 
Q 959 2375 959 1747 
Q 959 1119 1226 758 
Q 1494 397 1959 397 
Q 2419 397 2687 759 
Q 2956 1122 2956 1747 
Q 2956 2369 2687 2733 
Q 2419 3097 1959 3097 
z
M 1959 3584 
Q 2709 3584 3137 3096 
Q 3566 2609 3566 1747 
Q 3566 888 3137 398 
Q 2709 -91 1959 -91 
Q 1206 -91 779 398 
Q 353 888 353 1747 
Q 353 2609 779 3096 
Q 1206 3584 1959 3584 
z
" transform="scale(0.015625)"/>
       <path id="DejaVuSans-77" d="M 269 3500 
L 844 3500 
L 1563 769 
L 2278 3500 
L 2956 3500 
L 3675 769 
L 4391 3500 
L 4966 3500 
L 4050 0 
L 3372 0 
L 2619 2869 
L 1863 0 
L 1184 0 
L 269 3500 
z
" transform="scale(0.015625)"/>
       <path id="DejaVuSans-20" transform="scale(0.015625)"/>
       <path id="DejaVuSans-28" d="M 1984 4856 
Q 1566 4138 1362 3434 
Q 1159 2731 1159 2009 
Q 1159 1288 1364 580 
Q 1569 -128 1984 -844 
L 1484 -844 
Q 1016 -109 783 600 
Q 550 1309 550 2009 
Q 550 2706 781 3412 
Q 1013 4119 1484 4856 
L 1984 4856 
z
" transform="scale(0.015625)"/>
       <path id="DejaVuSans-63" d="M 3122 3366 
L 3122 2828 
Q 2878 2963 2633 3030 
Q 2388 3097 2138 3097 
Q 1578 3097 1268 2742 
Q 959 2388 959 1747 
Q 959 1106 1268 751 
Q 1578 397 2138 397 
Q 2388 397 2633 464 
Q 2878 531 3122 666 
L 3122 134 
Q 2881 22 2623 -34 
Q 2366 -91 2075 -91 
Q 1284 -91 818 406 
Q 353 903 353 1747 
Q 353 2603 823 3093 
Q 1294 3584 2113 3584 
Q 2378 3584 2631 3529 
Q 2884 3475 3122 3366 
z
" transform="scale(0.015625)"/>
       <path id="DejaVuSans-73" d="M 2834 3397 
L 2834 2853 
Q 2591 2978 2328 3040 
Q 2066 3103 1784 3103 
Q 1356 3103 1142 2972 
Q 928 2841 928 2578 
Q 928 2378 1081 2264 
Q 1234 2150 1697 2047 
L 1894 2003 
Q 2506 1872 2764 1633 
Q 3022 1394 3022 966 
Q 3022 478 2636 193 
Q 2250 -91 1575 -91 
Q 1294 -91 989 -36 
Q 684 19 347 128 
L 347 722 
Q 666 556 975 473 
Q 1284 391 1588 391 
Q 1994 391 2212 530 
Q 2431 669 2431 922 
Q 2431 1156 2273 1281 
Q 2116 1406 1581 1522 
L 1381 1569 
Q 847 1681 609 1914 
Q 372 2147 372 2553 
Q 372 3047 722 3315 
Q 1072 3584 1716 3584 
Q 2034 3584 2315 3537 
Q 2597 3491 2834 3397 
z
" transform="scale(0.015625)"/>
       <path id="DejaVuSans-29" d="M 513 4856 
L 1013 4856 
Q 1481 4119 1714 3412 
Q 1947 2706 1947 2009 
Q 1947 1309 1714 600 
Q 1481 -109 1013 -844 
L 513 -844 
Q 928 -128 1133 580 
Q 1338 1288 1338 2009 
Q 1338 2731 1133 3434 
Q 928 4138 513 4856 
z
" transform="scale(0.015625)"/>
      </defs>
      <use xlink:href="#DejaVuSans-66"/>
      <use xlink:href="#DejaVuSans-6c" x="35.205078"/>
      <use xlink:href="#DejaVuSans-6f" x="62.988281"/>
      <use xlink:href="#DejaVuSans-77" x="124.169922"/>
      <use xlink:href="#DejaVuSans-20" x="205.957031"/>
      <use xlink:href="#DejaVuSans-28" x="237.744141"/>
      <use xlink:href="#DejaVuSans-63" x="276.757812"/>
      <use xlink:href="#DejaVuSans-6d" x="331.738281"/>
      <use xlink:href="#DejaVuSans-73" x="429.150391"/>
      <use xlink:href="#DejaVuSans-29" x="481.25"/>
     </g>
    </g>
   </g>
   <g id="line2d_12">
    <path d="M 67.682727 115.899247 
L 72.209281 115.808988 
L 72.64724 115.502782 
L 73.519266 113.983767 
L 73.892018 112.390517 
L 74.09348 111.764857 
L 74.222921 112.627001 
L 74.290075 112.372458 
L 74.356255 112.113635 
L 74.620977 109.635326 
L 74.69689 109.433552 
L 74.77183 110.969131 
L 74.849689 110.664682 
L 75.221468 108.336021 
L 75.495923 106.50364 
L 75.562103 105.99772 
L 75.626337 103.864746 
L 75.689598 105.511701 
L 75.752859 104.944711 
L 75.815147 104.40447 
L 75.997143 101.460098 
L 76.141183 100.462695 
L 76.21223 101.362335 
L 76.283277 100.859215 
L 76.761139 96.930118 
L 76.826346 91.08985 
L 76.889607 91.196744 
L 77.013209 91.2722 
L 77.074523 96.31393 
L 77.198125 91.569063 
L 77.31978 91.022421 
L 77.441436 93.531743 
L 77.563091 92.271013 
L 77.623432 89.863952 
L 77.6828 90.782596 
L 77.893021 88.819006 
L 77.963094 89.928578 
L 78.169422 88.056304 
L 78.237549 85.966025 
L 78.305676 87.606532 
L 78.373803 86.964158 
L 78.770886 83.075597 
L 78.83512 81.063938 
L 78.899354 82.261353 
L 79.886223 72.222735 
L 80.192794 69.80346 
L 80.260921 70.485549 
L 80.397175 66.730506 
L 80.532456 65.980567 
L 80.59961 68.951548 
L 80.667737 68.500151 
L 80.803991 66.749688 
L 81.005452 61.624063 
L 81.071633 61.466291 
L 81.204967 63.392385 
L 81.272121 62.762089 
L 81.735384 59.36531 
L 81.800592 55.995398 
L 81.865799 56.030584 
L 81.996214 56.028089 
L 82.061421 57.876929 
L 82.126628 57.584624 
L 82.257043 56.777537 
L 82.32225 57.562739 
L 82.387457 57.179334 
L 82.841962 53.759101 
L 82.906196 54.026402 
L 82.971403 55.212708 
L 83.035637 54.657086 
L 83.677978 50.33448 
L 83.741238 50.147812 
L 83.804499 51.113994 
L 83.868733 50.922343 
L 83.996228 50.159314 
L 84.060462 48.181653 
L 84.123723 49.349274 
L 84.314479 48.487739 
L 84.441 46.269758 
L 84.566549 46.297596 
L 84.629809 45.997874 
L 84.69307 48.288889 
L 84.756331 47.804964 
L 84.881879 47.032257 
L 84.94514 45.769585 
L 85.008401 45.913525 
L 85.196237 45.234426 
L 85.321785 45.679901 
L 85.759745 43.412816 
L 85.822032 43.521767 
L 86.008895 42.4202 
L 86.071182 42.189665 
L 86.13347 41.519891 
L 86.194784 42.358834 
L 86.257072 42.032828 
L 86.629824 40.41468 
L 86.691138 39.055975 
L 86.753426 39.762965 
L 86.999656 38.762759 
L 87.060971 36.752015 
L 87.122285 36.85168 
L 87.244914 36.924103 
L 87.306228 40.0746 
L 87.367542 38.568583 
L 88.042 35.097509 
L 88.103314 34.915158 
L 88.164628 34.969175 
L 88.225943 35.474627 
L 88.287257 35.144218 
L 88.408912 34.501928 
L 88.470227 34.963161 
L 88.653196 33.507107 
L 88.713537 33.421653 
L 88.835193 31.535935 
L 88.955875 31.939402 
L 89.07753 34.493731 
L 89.138845 34.32013 
L 89.2605 34.3557 
L 89.320841 32.939218 
L 89.442497 35.168011 
L 89.565125 35.341715 
L 89.626439 31.119012 
L 89.686781 33.768099 
L 89.990432 35.359511 
L 90.174375 36.917939 
L 90.234716 36.425611 
L 90.296031 36.068119 
L 90.418659 36.705426 
L 90.479974 39.052636 
L 90.541288 37.729896 
L 90.785572 38.542639 
L 90.846886 38.011974 
L 90.908201 38.142632 
L 91.092144 38.509896 
L 91.153458 40.630758 
L 91.215745 40.392846 
L 91.338374 40.043979 
L 91.399688 35.775201 
L 91.461003 36.68303 
L 91.583631 37.525165 
L 91.644946 40.493005 
L 91.70626 38.897545 
L 91.890203 39.158978 
L 91.951517 40.939264 
L 92.012832 40.554557 
L 92.196774 40.106713 
L 92.258089 38.778131 
L 92.381691 40.519324 
L 92.504319 40.764677 
L 92.565634 38.865042 
L 92.75055 41.473052 
L 92.811864 40.899469 
L 93.86686 49.011467 
L 93.93012 49.161859 
L 93.992408 46.811681 
L 94.054696 46.861709 
L 94.241558 48.578829 
L 94.303846 48.137517 
L 94.429394 50.958648 
L 94.618203 51.311665 
L 94.681464 51.254934 
L 94.807012 51.767633 
L 94.870273 50.399023 
L 94.995822 52.618527 
L 95.12137 52.985057 
L 95.184631 51.232432 
L 95.311152 53.614574 
L 95.437674 53.94973 
L 95.499962 54.522853 
L 95.563222 54.411154 
L 95.690717 54.646762 
L 95.753978 54.44037 
L 95.94376 55.29867 
L 96.007021 55.691222 
L 96.070282 56.863959 
L 96.133543 55.793599 
L 96.197777 56.383901 
L 96.261038 56.960097 
L 96.452767 60.140444 
L 96.581235 60.736922 
L 96.645469 59.747471 
L 96.709703 60.071292 
L 96.838171 61.241052 
L 96.902405 60.044397 
L 97.09608 63.344459 
L 97.160314 63.816084 
L 97.354963 66.004926 
L 97.42017 66.288683 
L 97.485377 65.398834 
L 97.550585 65.837605 
L 97.811414 67.839399 
L 97.876621 66.744459 
L 97.941828 67.362537 
L 98.007036 67.929138 
L 98.072243 70.196917 
L 98.138424 68.82947 
L 98.335019 70.176495 
L 98.53356 72.920351 
L 98.599741 73.017082 
L 98.665921 72.513023 
L 98.732102 71.018601 
L 98.798282 71.541521 
L 98.92967 72.483818 
L 99.063005 74.272401 
L 99.196339 74.701186 
L 99.262519 74.669744 
L 99.329673 74.254451 
L 99.462034 75.005423 
L 99.529188 76.553089 
L 99.595369 74.985216 
L 99.662522 75.394461 
L 99.795857 76.19049 
L 99.86301 77.574427 
L 99.930164 76.225796 
L 99.997318 76.668967 
L 100.064472 77.076239 
L 100.198779 79.078125 
L 100.401214 79.40998 
L 100.469341 79.323075 
L 100.671775 80.081095 
L 100.739902 77.584432 
L 100.875183 80.54762 
L 100.942337 80.791877 
L 101.010464 82.043907 
L 101.078591 79.753155 
L 101.146718 80.204295 
L 101.213872 80.63708 
L 101.281999 83.291946 
L 101.350126 82.199766 
L 101.48638 82.495092 
L 101.55548 82.714815 
L 101.751102 83.758703 
L 101.819229 83.892524 
L 101.878597 85.088295 
L 101.946724 83.322174 
L 102.015824 83.631349 
L 102.083951 83.891826 
L 102.152078 83.455891 
L 102.211446 85.592916 
L 102.280546 85.314557 
L 102.408041 85.515299 
L 102.467409 86.476826 
L 102.536509 86.242751 
L 102.734078 86.396637 
L 102.793445 85.677875 
L 102.981281 87.027348 
L 103.040649 83.334097 
L 103.159385 87.624213 
L 103.27812 87.743438 
L 103.337488 85.436112 
L 103.396856 86.334858 
L 103.57496 87.21535 
L 103.634327 87.145974 
L 103.693695 86.742113 
L 103.753063 87.047812 
L 103.871799 87.626167 
L 103.991508 89.60793 
L 104.170584 89.734975 
L 104.290293 88.901719 
L 104.350634 89.091652 
L 104.470343 89.452321 
L 104.650393 90.753456 
L 104.771075 90.851911 
L 104.831416 88.85034 
L 104.890784 89.778099 
L 105.071807 90.610684 
L 105.132149 91.189811 
L 105.19249 90.987149 
L 105.313172 91.266186 
L 105.433854 92.786306 
L 105.495168 92.721633 
L 105.616824 92.717857 
L 105.677165 91.524591 
L 105.737506 93.827235 
L 105.79882 93.697647 
L 105.920475 93.595129 
L 105.98179 90.919416 
L 106.042131 90.924328 
L 106.223154 91.857004 
L 106.284468 93.034823 
L 106.344809 90.980198 
L 106.40515 91.378846 
L 106.526806 92.424737 
L 106.648461 95.297782 
L 106.833377 94.885352 
L 106.894692 94.536774 
L 106.956006 94.635947 
L 107.078635 94.735993 
L 107.139949 92.89952 
L 107.263551 95.144754 
L 107.38618 95.233523 
L 107.447494 94.987082 
L 107.509781 95.121128 
L 108.249446 96.222112 
L 108.373048 95.498697 
L 108.434362 95.712309 
L 108.557964 96.054651 
L 108.620252 96.630568 
L 108.682539 96.549469 
L 108.868429 96.955641 
L 108.930716 96.294507 
L 108.993004 96.500064 
L 109.116606 96.833249 
L 109.178893 96.629493 
L 109.241181 98.292003 
L 109.303468 98.266772 
L 109.429017 98.283861 
L 109.491304 98.694018 
L 109.553592 98.244238 
L 109.615879 98.286342 
L 109.741428 98.516211 
L 109.867949 99.447904 
L 109.993498 99.365384 
L 110.056759 96.476986 
L 110.182307 98.998164 
L 110.308829 99.089979 
L 110.372089 95.724554 
L 110.434377 96.893378 
L 110.622213 98.00759 
L 110.685474 94.088497 
L 110.747761 94.754278 
L 110.872336 96.230321 
L 110.998858 101.174423 
L 111.254821 100.734716 
L 111.319055 100.178141 
L 111.383289 100.238127 
L 111.44655 100.303159 
L 111.575018 102.187941 
L 111.639252 102.046189 
L 111.76772 101.848184 
L 111.831954 100.57649 
L 111.896188 102.075878 
L 111.960422 102.001 
L 112.024656 101.935047 
L 112.089863 100.485382 
L 112.154097 101.305978 
L 112.282566 101.321246 
L 112.3468 101.368533 
L 112.475268 96.929489 
L 112.538529 97.649604 
L 112.66505 99.763748 
L 112.729284 102.364066 
L 112.794491 102.353472 
L 112.924906 102.340444 
L 112.991087 100.996789 
L 113.056294 104.031431 
L 113.122474 103.879457 
L 113.188655 103.742814 
L 113.254835 100.9917 
L 113.386223 103.136015 
L 113.518584 103.082325 
L 113.585738 100.622814 
L 113.650945 101.087327 
L 113.783306 101.579329 
L 113.849487 101.158135 
L 113.982821 103.159954 
L 114.116156 103.223825 
L 114.183309 102.378519 
L 114.317617 103.619877 
L 114.385744 103.632218 
L 114.453871 103.308001 
L 114.521025 100.338096 
L 114.588178 100.83649 
L 114.654359 101.288329 
L 114.721513 102.841341 
L 114.78964 101.806956 
L 114.857767 102.216983 
L 114.924921 102.502238 
L 114.994021 103.561888 
L 115.133195 106.688468 
L 115.273342 106.258267 
L 115.332709 103.429334 
L 115.392077 105.535539 
L 115.572127 105.33358 
L 115.632468 104.014595 
L 115.693783 105.272069 
L 115.755097 105.242807 
L 115.878699 105.078918 
L 116.002301 104.816983 
L 116.126876 104.895448 
L 116.190137 104.246 
L 116.315685 105.040968 
L 116.442207 105.127004 
L 116.506441 102.321078 
L 116.632962 104.782012 
L 116.76143 105.179734 
L 116.825664 106.034118 
L 116.890872 105.952219 
L 117.021286 105.947984 
L 117.152674 103.030322 
L 117.281142 103.766065 
L 117.346349 106.684464 
L 117.411557 104.027302 
L 117.477737 104.408092 
L 117.609125 104.89331 
L 117.742459 107.464579 
L 117.947814 107.106169 
L 118.015941 104.704617 
L 118.083094 104.982688 
L 118.150248 105.223687 
L 118.285529 107.479487 
L 118.354629 107.334095 
L 118.562903 107.232399 
L 118.702077 107.050904 
L 118.772151 107.075339 
L 118.842224 106.887753 
L 118.911324 105.703858 
L 118.980425 105.907262 
L 119.049525 106.110955 
L 119.118625 108.308769 
L 119.189672 108.149747 
L 119.331765 108.010323 
L 119.403785 107.372217 
L 119.474832 108.013123 
L 119.546852 107.889866 
L 119.617899 107.883673 
L 119.761939 106.259073 
L 119.832012 106.567035 
L 119.903059 106.760318 
L 120.045153 108.851836 
L 120.192112 108.72562 
L 120.266079 108.783311 
L 120.530801 108.599074 
L 120.590169 107.106684 
L 120.662189 107.211255 
L 120.807202 107.540825 
L 120.939563 108.946799 
L 121.11864 108.898183 
L 121.178981 108.455567 
L 121.238349 108.472194 
L 121.417425 108.620374 
L 121.536161 107.538734 
L 121.654897 107.84185 
L 121.788231 110.117945 
L 121.973147 109.92161 
L 122.096749 107.831472 
L 122.216458 108.14873 
L 122.275826 108.294281 
L 122.336167 108.995867 
L 122.397481 108.354018 
L 122.457822 108.61214 
L 122.886049 109.520248 
L 123.010624 110.471989 
L 123.073885 110.434903 
L 123.138119 110.396615 
L 123.20138 109.540953 
L 123.264641 110.152742 
L 123.454423 110.12963 
L 123.517684 110.734939 
L 123.581918 110.643826 
L 123.710386 110.587952 
L 123.77462 109.640324 
L 123.837881 110.33896 
L 123.966349 110.276822 
L 124.02961 110.295283 
L 124.093844 109.336249 
L 124.221339 110.536538 
L 124.286546 110.541774 
L 124.479248 109.406092 
L 124.542509 109.53514 
L 124.60577 109.6661 
L 124.799445 110.891104 
L 124.930833 110.996854 
L 124.99604 109.759825 
L 125.060274 109.972019 
L 125.189716 110.188581 
L 125.254923 111.368124 
L 125.321103 110.919064 
L 125.453464 110.985339 
L 125.519645 110.825975 
L 125.585826 110.375996 
L 125.652006 110.494208 
L 125.783394 110.658017 
L 125.849574 110.99751 
L 125.915755 110.78542 
L 126.049089 110.922236 
L 126.183397 112.136169 
L 126.320624 112.041537 
L 126.458825 110.805955 
L 126.594105 111.019677 
L 127.001894 111.566607 
L 127.070021 112.001883 
L 127.140095 111.970002 
L 127.279269 112.034328 
L 127.349342 112.67036 
L 127.420389 112.580412 
L 127.563455 112.474806 
L 127.776596 112.318637 
L 127.847642 112.3158 
L 127.989736 111.83314 
L 128.130856 111.927758 
L 128.271003 111.606903 
L 128.41115 111.770716 
L 128.553244 112.237696 
L 128.697284 112.295074 
L 128.842297 112.657598 
L 129.06225 112.71737 
L 129.135243 112.046955 
L 129.207263 112.124395 
L 129.865175 112.635118 
L 129.940115 113.260023 
L 130.015055 112.685032 
L 130.089021 112.730264 
L 130.163961 112.773555 
L 130.314814 113.367023 
L 130.700218 113.373321 
L 130.778077 113.21342 
L 130.854964 112.790987 
L 130.93185 112.870979 
L 131.007763 112.927137 
L 131.161535 113.545124 
L 131.339639 113.55853 
L 131.418471 113.48847 
L 131.617013 113.684237 
L 131.676381 113.715995 
L 131.736722 112.917673 
L 131.814581 113.065883 
L 132.285631 113.603677 
L 132.466654 113.750719 
L 132.527969 113.778613 
L 132.589283 113.452873 
L 132.649624 113.522351 
L 133.074931 113.738613 
L 133.137219 114.082314 
L 133.199506 113.999257 
L 133.387342 114.046024 
L 133.450603 113.944746 
L 133.576151 114.117942 
L 133.702673 114.203471 
L 133.829195 113.907103 
L 134.273967 114.099556 
L 134.402435 114.49426 
L 134.600976 114.468372 
L 134.667157 114.107414 
L 134.733337 114.170125 
L 134.863752 114.222015 
L 134.99514 114.703414 
L 135.130421 114.69078 
L 135.198548 114.416135 
L 135.333828 114.611445 
L 135.401955 114.618908 
L 135.537236 114.302001 
L 136.631161 114.712232 
L 137.201482 114.846008 
L 137.346495 115.037538 
L 137.790294 115.01307 
L 137.938227 114.967078 
L 138.691517 115.251188 
L 138.927042 115.294955 
L 139.164513 115.174981 
L 141.31538 115.543333 
L 141.578156 115.526178 
L 144.030729 115.698605 
L 148.935874 115.787102 
L 149.549017 115.7751 
L 167.943312 115.842715 
L 169.957925 115.842956 
L 171.622171 115.844871 
L 173.724376 115.850536 
L 178.717113 115.859343 
L 181.520053 115.858035 
L 271.652096 115.892415 
L 302.13407 115.894282 
L 340.937273 115.896035 
L 340.937273 115.896035 
" clip-path="url(#p155e983528)" style="fill: none; stroke: #1f77b4; stroke-width: 1.5; stroke-linecap: square"/>
   </g>
   <g id="patch_3">
    <path d="M 54.02 120.138259 
L 54.02 26.88 
" style="fill: none; stroke: #000000; stroke-width: 0.8; stroke-linejoin: miter; stroke-linecap: square"/>
   </g>
   <g id="patch_4">
    <path d="M 354.6 120.138259 
L 354.6 26.88 
" style="fill: none; stroke: #000000; stroke-width: 0.8; stroke-linejoin: miter; stroke-linecap: square"/>
   </g>
   <g id="patch_5">
    <path d="M 54.02 120.138259 
L 354.6 120.138259 
" style="fill: none; stroke: #000000; stroke-width: 0.8; stroke-linejoin: miter; stroke-linecap: square"/>
   </g>
   <g id="patch_6">
    <path d="M 54.02 26.88 
L 354.6 26.88 
" style="fill: none; stroke: #000000; stroke-width: 0.8; stroke-linejoin: miter; stroke-linecap: square"/>
   </g>
   <g id="text_7">
    <!-- 1 -->
    <g transform="translate(198.8128 50.299852) scale(0.1728 -0.1728)">
     <use xlink:href="#DejaVuSans-31"/>
    </g>
   </g>
   <g id="text_8">
    <!-- flows -->
    <g transform="translate(188.827188 20.88) scale(0.12 -0.12)">
     <use xlink:href="#DejaVuSans-66"/>
     <use xlink:href="#DejaVuSans-6c" x="35.205078"/>
     <use xlink:href="#DejaVuSans-6f" x="62.988281"/>
     <use xlink:href="#DejaVuSans-77" x="124.169922"/>
     <use xlink:href="#DejaVuSans-73" x="205.957031"/>
    </g>
   </g>
  </g>
  <g id="axes_2">
   <g id="patch_7">
    <path d="M 408.62 120.138259 
L 709.2 120.138259 
L 709.2 26.88 
L 408.62 26.88 
z
" style="fill: #ffffff"/>
   </g>
   <g id="matplotlib.axis_3">
    <g id="xtick_8">
     <g id="line2d_13">
      <g>
       <use xlink:href="#mc64d8f4939" x="422.282727" y="120.138259" style="stroke: #000000; stroke-width: 0.8"/>
      </g>
     </g>
    </g>
    <g id="xtick_9">
     <g id="line2d_14">
      <g>
       <use xlink:href="#mc64d8f4939" x="464.326829" y="120.138259" style="stroke: #000000; stroke-width: 0.8"/>
      </g>
     </g>
    </g>
    <g id="xtick_10">
     <g id="line2d_15">
      <g>
       <use xlink:href="#mc64d8f4939" x="506.370931" y="120.138259" style="stroke: #000000; stroke-width: 0.8"/>
      </g>
     </g>
    </g>
    <g id="xtick_11">
     <g id="line2d_16">
      <g>
       <use xlink:href="#mc64d8f4939" x="548.415033" y="120.138259" style="stroke: #000000; stroke-width: 0.8"/>
      </g>
     </g>
    </g>
    <g id="xtick_12">
     <g id="line2d_17">
      <g>
       <use xlink:href="#mc64d8f4939" x="590.459135" y="120.138259" style="stroke: #000000; stroke-width: 0.8"/>
      </g>
     </g>
    </g>
    <g id="xtick_13">
     <g id="line2d_18">
      <g>
       <use xlink:href="#mc64d8f4939" x="632.503237" y="120.138259" style="stroke: #000000; stroke-width: 0.8"/>
      </g>
     </g>
    </g>
    <g id="xtick_14">
     <g id="line2d_19">
      <g>
       <use xlink:href="#mc64d8f4939" x="674.547339" y="120.138259" style="stroke: #000000; stroke-width: 0.8"/>
      </g>
     </g>
    </g>
    <g id="text_9">
     <!-- time -->
     <g transform="translate(547.613906 138.736696) scale(0.1 -0.1)">
      <use xlink:href="#DejaVuSans-74"/>
      <use xlink:href="#DejaVuSans-69" x="39.208984"/>
      <use xlink:href="#DejaVuSans-6d" x="66.992188"/>
      <use xlink:href="#DejaVuSans-65" x="164.404297"/>
     </g>
    </g>
   </g>
   <g id="matplotlib.axis_4">
    <g id="ytick_5">
     <g id="line2d_20">
      <g>
       <use xlink:href="#m51f807b565" x="408.62" y="115.899247" style="stroke: #000000; stroke-width: 0.8"/>
      </g>
     </g>
     <g id="text_10">
      <!-- 0.00 -->
      <g transform="translate(379.354375 119.698466) scale(0.1 -0.1)">
       <use xlink:href="#DejaVuSans-30"/>
       <use xlink:href="#DejaVuSans-2e" x="63.623047"/>
       <use xlink:href="#DejaVuSans-30" x="95.410156"/>
       <use xlink:href="#DejaVuSans-30" x="159.033203"/>
      </g>
     </g>
    </g>
    <g id="ytick_6">
     <g id="line2d_21">
      <g>
       <use xlink:href="#m51f807b565" x="408.62" y="91.953032" style="stroke: #000000; stroke-width: 0.8"/>
      </g>
     </g>
     <g id="text_11">
      <!-- 0.05 -->
      <g transform="translate(379.354375 95.752251) scale(0.1 -0.1)">
       <defs>
        <path id="DejaVuSans-35" d="M 691 4666 
L 3169 4666 
L 3169 4134 
L 1269 4134 
L 1269 2991 
Q 1406 3038 1543 3061 
Q 1681 3084 1819 3084 
Q 2600 3084 3056 2656 
Q 3513 2228 3513 1497 
Q 3513 744 3044 326 
Q 2575 -91 1722 -91 
Q 1428 -91 1123 -41 
Q 819 9 494 109 
L 494 744 
Q 775 591 1075 516 
Q 1375 441 1709 441 
Q 2250 441 2565 725 
Q 2881 1009 2881 1497 
Q 2881 1984 2565 2268 
Q 2250 2553 1709 2553 
Q 1456 2553 1204 2497 
Q 953 2441 691 2322 
L 691 4666 
z
" transform="scale(0.015625)"/>
       </defs>
       <use xlink:href="#DejaVuSans-30"/>
       <use xlink:href="#DejaVuSans-2e" x="63.623047"/>
       <use xlink:href="#DejaVuSans-30" x="95.410156"/>
       <use xlink:href="#DejaVuSans-35" x="159.033203"/>
      </g>
     </g>
    </g>
    <g id="ytick_7">
     <g id="line2d_22">
      <g>
       <use xlink:href="#m51f807b565" x="408.62" y="68.006818" style="stroke: #000000; stroke-width: 0.8"/>
      </g>
     </g>
     <g id="text_12">
      <!-- 0.10 -->
      <g transform="translate(379.354375 71.806037) scale(0.1 -0.1)">
       <use xlink:href="#DejaVuSans-30"/>
       <use xlink:href="#DejaVuSans-2e" x="63.623047"/>
       <use xlink:href="#DejaVuSans-31" x="95.410156"/>
       <use xlink:href="#DejaVuSans-30" x="159.033203"/>
      </g>
     </g>
    </g>
    <g id="ytick_8">
     <g id="line2d_23">
      <g>
       <use xlink:href="#m51f807b565" x="408.62" y="44.060604" style="stroke: #000000; stroke-width: 0.8"/>
      </g>
     </g>
     <g id="text_13">
      <!-- 0.15 -->
      <g transform="translate(379.354375 47.859822) scale(0.1 -0.1)">
       <use xlink:href="#DejaVuSans-30"/>
       <use xlink:href="#DejaVuSans-2e" x="63.623047"/>
       <use xlink:href="#DejaVuSans-31" x="95.410156"/>
       <use xlink:href="#DejaVuSans-35" x="159.033203"/>
      </g>
     </g>
    </g>
    <g id="text_14">
     <!-- depth (m) -->
     <g transform="translate(373.274687 98.423973) rotate(-90) scale(0.1 -0.1)">
      <defs>
       <path id="DejaVuSans-64" d="M 2906 2969 
L 2906 4863 
L 3481 4863 
L 3481 0 
L 2906 0 
L 2906 525 
Q 2725 213 2448 61 
Q 2172 -91 1784 -91 
Q 1150 -91 751 415 
Q 353 922 353 1747 
Q 353 2572 751 3078 
Q 1150 3584 1784 3584 
Q 2172 3584 2448 3432 
Q 2725 3281 2906 2969 
z
M 947 1747 
Q 947 1113 1208 752 
Q 1469 391 1925 391 
Q 2381 391 2643 752 
Q 2906 1113 2906 1747 
Q 2906 2381 2643 2742 
Q 2381 3103 1925 3103 
Q 1469 3103 1208 2742 
Q 947 2381 947 1747 
z
" transform="scale(0.015625)"/>
       <path id="DejaVuSans-70" d="M 1159 525 
L 1159 -1331 
L 581 -1331 
L 581 3500 
L 1159 3500 
L 1159 2969 
Q 1341 3281 1617 3432 
Q 1894 3584 2278 3584 
Q 2916 3584 3314 3078 
Q 3713 2572 3713 1747 
Q 3713 922 3314 415 
Q 2916 -91 2278 -91 
Q 1894 -91 1617 61 
Q 1341 213 1159 525 
z
M 3116 1747 
Q 3116 2381 2855 2742 
Q 2594 3103 2138 3103 
Q 1681 3103 1420 2742 
Q 1159 2381 1159 1747 
Q 1159 1113 1420 752 
Q 1681 391 2138 391 
Q 2594 391 2855 752 
Q 3116 1113 3116 1747 
z
" transform="scale(0.015625)"/>
       <path id="DejaVuSans-68" d="M 3513 2113 
L 3513 0 
L 2938 0 
L 2938 2094 
Q 2938 2591 2744 2837 
Q 2550 3084 2163 3084 
Q 1697 3084 1428 2787 
Q 1159 2491 1159 1978 
L 1159 0 
L 581 0 
L 581 4863 
L 1159 4863 
L 1159 2956 
Q 1366 3272 1645 3428 
Q 1925 3584 2291 3584 
Q 2894 3584 3203 3211 
Q 3513 2838 3513 2113 
z
" transform="scale(0.015625)"/>
      </defs>
      <use xlink:href="#DejaVuSans-64"/>
      <use xlink:href="#DejaVuSans-65" x="63.476562"/>
      <use xlink:href="#DejaVuSans-70" x="125"/>
      <use xlink:href="#DejaVuSans-74" x="188.476562"/>
      <use xlink:href="#DejaVuSans-68" x="227.685547"/>
      <use xlink:href="#DejaVuSans-20" x="291.064453"/>
      <use xlink:href="#DejaVuSans-28" x="322.851562"/>
      <use xlink:href="#DejaVuSans-6d" x="361.865234"/>
      <use xlink:href="#DejaVuSans-29" x="459.277344"/>
     </g>
    </g>
   </g>
   <g id="line2d_24">
    <path d="M 422.282727 115.899247 
L 426.28373 115.806046 
L 426.634097 115.445739 
L 426.984465 114.703609 
L 427.510016 112.899975 
L 428.422918 108.536413 
L 429.449689 103.421929 
L 430.415147 94.821861 
L 431.426346 86.127935 
L 431.613209 86.227025 
L 432.10275 83.101352 
L 432.493021 80.35301 
L 433.627822 70.306246 
L 434.366514 63.658588 
L 434.997175 59.277427 
L 435.19961 58.222408 
L 435.472118 55.703136 
L 435.671633 55.427467 
L 435.804967 54.765439 
L 436.335384 51.70653 
L 436.400592 51.592893 
L 436.465799 51.645218 
L 436.596214 51.629232 
L 437.957781 45.485557 
L 438.977739 42.520284 
L 439.103288 42.581475 
L 439.229809 42.547345 
L 440.671182 37.899104 
L 440.794784 37.584098 
L 441.353426 35.948386 
L 441.599656 35.33327 
L 441.660971 35.411575 
L 441.844914 35.5187 
L 443.374852 31.119012 
L 443.435193 31.224181 
L 443.67753 31.621318 
L 443.8605 31.620092 
L 444.286781 32.671413 
L 444.713061 34.347464 
L 445.262943 35.562037 
L 445.692144 35.995959 
L 445.938374 35.417024 
L 446.061003 35.929562 
L 446.30626 36.618042 
L 446.551517 36.72985 
L 446.920376 36.295766 
L 447.043005 36.380143 
L 447.165634 36.801056 
L 447.59678 39.069479 
L 448.093134 41.186725 
L 448.716983 43.4888 
L 449.029394 44.786382 
L 449.407012 45.816015 
L 449.659082 46.471445 
L 450.4805 48.371378 
L 450.797777 50.122728 
L 451.117001 51.589441 
L 451.309703 52.745504 
L 451.890729 56.198284 
L 452.150585 57.416277 
L 453.06738 62.118236 
L 453.265921 62.402 
L 453.663005 64.336671 
L 453.929673 65.256989 
L 454.93406 69.371055 
L 455.339902 70.482231 
L 456.419229 73.715497 
L 456.478597 73.776132 
L 456.880546 74.865413 
L 457.937488 76.372375 
L 458.650875 78.863009 
L 458.830925 79.008492 
L 459.190052 79.849268 
L 459.371075 79.983667 
L 459.973513 81.544017 
L 460.337506 81.636757 
L 460.520475 81.462712 
L 460.823154 83.039027 
L 460.884468 83.090049 
L 461.187147 84.432999 
L 461.433377 84.14757 
L 461.739949 84.459957 
L 462.23241 84.985362 
L 463.344827 86.946073 
L 463.716606 87.801308 
L 463.841181 87.977179 
L 464.153592 88.051438 
L 464.404689 88.191551 
L 464.593498 88.040469 
L 464.845568 88.335452 
L 464.908829 88.388415 
L 465.347761 91.031996 
L 465.535597 92.418461 
L 465.854821 92.016581 
L 465.919055 92.081202 
L 466.110784 92.221333 
L 466.36772 91.707841 
L 466.431954 91.982265 
L 466.496188 91.872946 
L 466.689863 91.723249 
L 467.011034 92.11652 
L 467.26505 94.254359 
L 467.459699 94.158351 
L 467.591087 94.192672 
L 467.854835 93.637999 
L 468.052404 93.560148 
L 468.118584 93.538216 
L 468.516641 94.863016 
L 469.053871 95.128555 
L 469.457767 97.239058 
L 469.594021 97.676324 
L 469.663121 97.574349 
L 469.932709 96.684325 
L 470.172127 96.323902 
L 470.293783 96.338135 
L 470.540013 96.315806 
L 471.042207 96.752818 
L 471.297196 97.383496 
L 471.490872 97.492108 
L 471.687467 97.561329 
L 472.011557 99.030582 
L 472.275306 99.769275 
L 472.547814 99.349745 
L 472.885529 100.287097 
L 473.232977 100.1292 
L 473.442224 100.292699 
L 473.718625 101.00766 
L 474.074832 100.869689 
L 474.289919 100.891497 
L 474.574106 101.645785 
L 474.645153 101.583757 
L 474.99844 101.279872 
L 475.130801 101.233923 
L 475.480195 101.938472 
L 475.539563 101.912489 
L 475.71864 101.871898 
L 476.328863 102.951686 
L 476.388231 102.846633 
L 476.635435 102.56848 
L 477.057822 103.638145 
L 477.486049 104.312741 
L 478.37462 103.944526 
L 479.015014 104.36703 
L 479.333265 104.948725 
L 479.530833 104.95328 
L 479.921103 105.5354 
L 480.185826 105.737174 
L 480.716243 106.436678 
L 481.058825 106.302085 
L 481.601894 106.988321 
L 481.949342 106.977272 
L 482.234502 106.809423 
L 482.518689 106.84437 
L 483.51529 107.757784 
L 483.735243 107.893265 
L 484.317242 108.581142 
L 484.838901 108.945987 
L 485.300218 108.892356 
L 485.454964 108.982856 
L 485.761535 109.189211 
L 486.336722 109.26771 
L 486.885631 109.887211 
L 487.309965 110.144595 
L 487.861794 110.509773 
L 488.492455 110.789131 
L 489.002435 111.091317 
L 489.333337 111.200169 
L 489.59514 111.308302 
L 490.001955 111.353972 
L 490.677386 111.872628 
L 491.801482 112.528567 
L 492.68616 112.87357 
L 493.448209 113.151848 
L 493.921205 113.358685 
L 495.482287 114.002384 
L 497.141667 114.510728 
L 498.543137 114.772412 
L 500.645342 114.962558 
L 504.061425 115.083235 
L 509.842489 115.219521 
L 528.499559 115.452529 
L 547.769773 115.587745 
L 587.886853 115.716135 
L 681.785348 115.820595 
L 695.537273 115.8254 
L 695.537273 115.8254 
" clip-path="url(#p123845c3eb)" style="fill: none; stroke: #1f77b4; stroke-width: 1.5; stroke-linecap: square"/>
   </g>
   <g id="patch_8">
    <path d="M 408.62 120.138259 
L 408.62 26.88 
" style="fill: none; stroke: #000000; stroke-width: 0.8; stroke-linejoin: miter; stroke-linecap: square"/>
   </g>
   <g id="patch_9">
    <path d="M 709.2 120.138259 
L 709.2 26.88 
" style="fill: none; stroke: #000000; stroke-width: 0.8; stroke-linejoin: miter; stroke-linecap: square"/>
   </g>
   <g id="patch_10">
    <path d="M 408.62 120.138259 
L 709.2 120.138259 
" style="fill: none; stroke: #000000; stroke-width: 0.8; stroke-linejoin: miter; stroke-linecap: square"/>
   </g>
   <g id="patch_11">
    <path d="M 408.62 26.88 
L 709.2 26.88 
" style="fill: none; stroke: #000000; stroke-width: 0.8; stroke-linejoin: miter; stroke-linecap: square"/>
   </g>
   <g id="text_15">
    <!-- ('P1', 'depthN') -->
    <g transform="translate(494.8579 50.299852) scale(0.1728 -0.1728)">
     <defs>
      <path id="DejaVuSans-27" d="M 1147 4666 
L 1147 2931 
L 616 2931 
L 616 4666 
L 1147 4666 
z
" transform="scale(0.015625)"/>
      <path id="DejaVuSans-50" d="M 1259 4147 
L 1259 2394 
L 2053 2394 
Q 2494 2394 2734 2622 
Q 2975 2850 2975 3272 
Q 2975 3691 2734 3919 
Q 2494 4147 2053 4147 
L 1259 4147 
z
M 628 4666 
L 2053 4666 
Q 2838 4666 3239 4311 
Q 3641 3956 3641 3272 
Q 3641 2581 3239 2228 
Q 2838 1875 2053 1875 
L 1259 1875 
L 1259 0 
L 628 0 
L 628 4666 
z
" transform="scale(0.015625)"/>
      <path id="DejaVuSans-2c" d="M 750 794 
L 1409 794 
L 1409 256 
L 897 -744 
L 494 -744 
L 750 256 
L 750 794 
z
" transform="scale(0.015625)"/>
      <path id="DejaVuSans-4e" d="M 628 4666 
L 1478 4666 
L 3547 763 
L 3547 4666 
L 4159 4666 
L 4159 0 
L 3309 0 
L 1241 3903 
L 1241 0 
L 628 0 
L 628 4666 
z
" transform="scale(0.015625)"/>
     </defs>
     <use xlink:href="#DejaVuSans-28"/>
     <use xlink:href="#DejaVuSans-27" x="39.013672"/>
     <use xlink:href="#DejaVuSans-50" x="66.503906"/>
     <use xlink:href="#DejaVuSans-31" x="126.806641"/>
     <use xlink:href="#DejaVuSans-27" x="190.429688"/>
     <use xlink:href="#DejaVuSans-2c" x="217.919922"/>
     <use xlink:href="#DejaVuSans-20" x="249.707031"/>
     <use xlink:href="#DejaVuSans-27" x="281.494141"/>
     <use xlink:href="#DejaVuSans-64" x="308.984375"/>
     <use xlink:href="#DejaVuSans-65" x="372.460938"/>
     <use xlink:href="#DejaVuSans-70" x="433.984375"/>
     <use xlink:href="#DejaVuSans-74" x="497.460938"/>
     <use xlink:href="#DejaVuSans-68" x="536.669922"/>
     <use xlink:href="#DejaVuSans-4e" x="600.048828"/>
     <use xlink:href="#DejaVuSans-27" x="674.853516"/>
     <use xlink:href="#DejaVuSans-29" x="702.34375"/>
    </g>
   </g>
   <g id="text_16">
    <!-- depths -->
    <g transform="translate(538.319687 20.88) scale(0.12 -0.12)">
     <use xlink:href="#DejaVuSans-64"/>
     <use xlink:href="#DejaVuSans-65" x="63.476562"/>
     <use xlink:href="#DejaVuSans-70" x="125"/>
     <use xlink:href="#DejaVuSans-74" x="188.476562"/>
     <use xlink:href="#DejaVuSans-68" x="227.685547"/>
     <use xlink:href="#DejaVuSans-73" x="291.064453"/>
    </g>
   </g>
  </g>
  <g id="axes_3">
   <g id="patch_12">
    <path d="M 54.02 246.04 
L 354.6 246.04 
L 354.6 152.781741 
L 54.02 152.781741 
z
" style="fill: #ffffff"/>
   </g>
   <g id="matplotlib.axis_5">
    <g id="xtick_15">
     <g id="line2d_25">
      <g>
       <use xlink:href="#mc64d8f4939" x="67.682727" y="246.04" style="stroke: #000000; stroke-width: 0.8"/>
      </g>
     </g>
     <g id="text_17">
      <!-- 02-25 00 -->
      <g transform="translate(45.202259 260.638438) scale(0.1 -0.1)">
       <defs>
        <path id="DejaVuSans-2d" d="M 313 2009 
L 1997 2009 
L 1997 1497 
L 313 1497 
L 313 2009 
z
" transform="scale(0.015625)"/>
       </defs>
       <use xlink:href="#DejaVuSans-30"/>
       <use xlink:href="#DejaVuSans-32" x="63.623047"/>
       <use xlink:href="#DejaVuSans-2d" x="127.246094"/>
       <use xlink:href="#DejaVuSans-32" x="163.330078"/>
       <use xlink:href="#DejaVuSans-35" x="226.953125"/>
       <use xlink:href="#DejaVuSans-20" x="290.576172"/>
       <use xlink:href="#DejaVuSans-30" x="322.363281"/>
       <use xlink:href="#DejaVuSans-30" x="385.986328"/>
      </g>
     </g>
    </g>
    <g id="xtick_16">
     <g id="line2d_26">
      <g>
       <use xlink:href="#mc64d8f4939" x="109.726829" y="246.04" style="stroke: #000000; stroke-width: 0.8"/>
      </g>
     </g>
     <g id="text_18">
      <!-- 02-25 12 -->
      <g transform="translate(87.24636 260.638438) scale(0.1 -0.1)">
       <use xlink:href="#DejaVuSans-30"/>
       <use xlink:href="#DejaVuSans-32" x="63.623047"/>
       <use xlink:href="#DejaVuSans-2d" x="127.246094"/>
       <use xlink:href="#DejaVuSans-32" x="163.330078"/>
       <use xlink:href="#DejaVuSans-35" x="226.953125"/>
       <use xlink:href="#DejaVuSans-20" x="290.576172"/>
       <use xlink:href="#DejaVuSans-31" x="322.363281"/>
       <use xlink:href="#DejaVuSans-32" x="385.986328"/>
      </g>
     </g>
    </g>
    <g id="xtick_17">
     <g id="line2d_27">
      <g>
       <use xlink:href="#mc64d8f4939" x="151.770931" y="246.04" style="stroke: #000000; stroke-width: 0.8"/>
      </g>
     </g>
     <g id="text_19">
      <!-- 02-26 00 -->
      <g transform="translate(129.290462 260.638438) scale(0.1 -0.1)">
       <defs>
        <path id="DejaVuSans-36" d="M 2113 2584 
Q 1688 2584 1439 2293 
Q 1191 2003 1191 1497 
Q 1191 994 1439 701 
Q 1688 409 2113 409 
Q 2538 409 2786 701 
Q 3034 994 3034 1497 
Q 3034 2003 2786 2293 
Q 2538 2584 2113 2584 
z
M 3366 4563 
L 3366 3988 
Q 3128 4100 2886 4159 
Q 2644 4219 2406 4219 
Q 1781 4219 1451 3797 
Q 1122 3375 1075 2522 
Q 1259 2794 1537 2939 
Q 1816 3084 2150 3084 
Q 2853 3084 3261 2657 
Q 3669 2231 3669 1497 
Q 3669 778 3244 343 
Q 2819 -91 2113 -91 
Q 1303 -91 875 529 
Q 447 1150 447 2328 
Q 447 3434 972 4092 
Q 1497 4750 2381 4750 
Q 2619 4750 2861 4703 
Q 3103 4656 3366 4563 
z
" transform="scale(0.015625)"/>
       </defs>
       <use xlink:href="#DejaVuSans-30"/>
       <use xlink:href="#DejaVuSans-32" x="63.623047"/>
       <use xlink:href="#DejaVuSans-2d" x="127.246094"/>
       <use xlink:href="#DejaVuSans-32" x="163.330078"/>
       <use xlink:href="#DejaVuSans-36" x="226.953125"/>
       <use xlink:href="#DejaVuSans-20" x="290.576172"/>
       <use xlink:href="#DejaVuSans-30" x="322.363281"/>
       <use xlink:href="#DejaVuSans-30" x="385.986328"/>
      </g>
     </g>
    </g>
    <g id="xtick_18">
     <g id="line2d_28">
      <g>
       <use xlink:href="#mc64d8f4939" x="193.815033" y="246.04" style="stroke: #000000; stroke-width: 0.8"/>
      </g>
     </g>
     <g id="text_20">
      <!-- 02-26 12 -->
      <g transform="translate(171.334564 260.638438) scale(0.1 -0.1)">
       <use xlink:href="#DejaVuSans-30"/>
       <use xlink:href="#DejaVuSans-32" x="63.623047"/>
       <use xlink:href="#DejaVuSans-2d" x="127.246094"/>
       <use xlink:href="#DejaVuSans-32" x="163.330078"/>
       <use xlink:href="#DejaVuSans-36" x="226.953125"/>
       <use xlink:href="#DejaVuSans-20" x="290.576172"/>
       <use xlink:href="#DejaVuSans-31" x="322.363281"/>
       <use xlink:href="#DejaVuSans-32" x="385.986328"/>
      </g>
     </g>
    </g>
    <g id="xtick_19">
     <g id="line2d_29">
      <g>
       <use xlink:href="#mc64d8f4939" x="235.859135" y="246.04" style="stroke: #000000; stroke-width: 0.8"/>
      </g>
     </g>
     <g id="text_21">
      <!-- 02-27 00 -->
      <g transform="translate(213.378666 260.638438) scale(0.1 -0.1)">
       <defs>
        <path id="DejaVuSans-37" d="M 525 4666 
L 3525 4666 
L 3525 4397 
L 1831 0 
L 1172 0 
L 2766 4134 
L 525 4134 
L 525 4666 
z
" transform="scale(0.015625)"/>
       </defs>
       <use xlink:href="#DejaVuSans-30"/>
       <use xlink:href="#DejaVuSans-32" x="63.623047"/>
       <use xlink:href="#DejaVuSans-2d" x="127.246094"/>
       <use xlink:href="#DejaVuSans-32" x="163.330078"/>
       <use xlink:href="#DejaVuSans-37" x="226.953125"/>
       <use xlink:href="#DejaVuSans-20" x="290.576172"/>
       <use xlink:href="#DejaVuSans-30" x="322.363281"/>
       <use xlink:href="#DejaVuSans-30" x="385.986328"/>
      </g>
     </g>
    </g>
    <g id="xtick_20">
     <g id="line2d_30">
      <g>
       <use xlink:href="#mc64d8f4939" x="277.903237" y="246.04" style="stroke: #000000; stroke-width: 0.8"/>
      </g>
     </g>
     <g id="text_22">
      <!-- 02-27 12 -->
      <g transform="translate(255.422768 260.638438) scale(0.1 -0.1)">
       <use xlink:href="#DejaVuSans-30"/>
       <use xlink:href="#DejaVuSans-32" x="63.623047"/>
       <use xlink:href="#DejaVuSans-2d" x="127.246094"/>
       <use xlink:href="#DejaVuSans-32" x="163.330078"/>
       <use xlink:href="#DejaVuSans-37" x="226.953125"/>
       <use xlink:href="#DejaVuSans-20" x="290.576172"/>
       <use xlink:href="#DejaVuSans-31" x="322.363281"/>
       <use xlink:href="#DejaVuSans-32" x="385.986328"/>
      </g>
     </g>
    </g>
    <g id="xtick_21">
     <g id="line2d_31">
      <g>
       <use xlink:href="#mc64d8f4939" x="319.947339" y="246.04" style="stroke: #000000; stroke-width: 0.8"/>
      </g>
     </g>
     <g id="text_23">
      <!-- 02-28 00 -->
      <g transform="translate(297.46687 260.638438) scale(0.1 -0.1)">
       <defs>
        <path id="DejaVuSans-38" d="M 2034 2216 
Q 1584 2216 1326 1975 
Q 1069 1734 1069 1313 
Q 1069 891 1326 650 
Q 1584 409 2034 409 
Q 2484 409 2743 651 
Q 3003 894 3003 1313 
Q 3003 1734 2745 1975 
Q 2488 2216 2034 2216 
z
M 1403 2484 
Q 997 2584 770 2862 
Q 544 3141 544 3541 
Q 544 4100 942 4425 
Q 1341 4750 2034 4750 
Q 2731 4750 3128 4425 
Q 3525 4100 3525 3541 
Q 3525 3141 3298 2862 
Q 3072 2584 2669 2484 
Q 3125 2378 3379 2068 
Q 3634 1759 3634 1313 
Q 3634 634 3220 271 
Q 2806 -91 2034 -91 
Q 1263 -91 848 271 
Q 434 634 434 1313 
Q 434 1759 690 2068 
Q 947 2378 1403 2484 
z
M 1172 3481 
Q 1172 3119 1398 2916 
Q 1625 2713 2034 2713 
Q 2441 2713 2670 2916 
Q 2900 3119 2900 3481 
Q 2900 3844 2670 4047 
Q 2441 4250 2034 4250 
Q 1625 4250 1398 4047 
Q 1172 3844 1172 3481 
z
" transform="scale(0.015625)"/>
       </defs>
       <use xlink:href="#DejaVuSans-30"/>
       <use xlink:href="#DejaVuSans-32" x="63.623047"/>
       <use xlink:href="#DejaVuSans-2d" x="127.246094"/>
       <use xlink:href="#DejaVuSans-32" x="163.330078"/>
       <use xlink:href="#DejaVuSans-38" x="226.953125"/>
       <use xlink:href="#DejaVuSans-20" x="290.576172"/>
       <use xlink:href="#DejaVuSans-30" x="322.363281"/>
       <use xlink:href="#DejaVuSans-30" x="385.986328"/>
      </g>
     </g>
    </g>
    <g id="text_24">
     <!-- time -->
     <g transform="translate(193.013906 274.316562) scale(0.1 -0.1)">
      <use xlink:href="#DejaVuSans-74"/>
      <use xlink:href="#DejaVuSans-69" x="39.208984"/>
      <use xlink:href="#DejaVuSans-6d" x="66.992188"/>
      <use xlink:href="#DejaVuSans-65" x="164.404297"/>
     </g>
    </g>
   </g>
   <g id="matplotlib.axis_6">
    <g id="ytick_9">
     <g id="line2d_32">
      <g>
       <use xlink:href="#m51f807b565" x="54.02" y="241.800988" style="stroke: #000000; stroke-width: 0.8"/>
      </g>
     </g>
     <g id="text_25">
      <!-- 0.0 -->
      <g transform="translate(31.116875 245.600207) scale(0.1 -0.1)">
       <use xlink:href="#DejaVuSans-30"/>
       <use xlink:href="#DejaVuSans-2e" x="63.623047"/>
       <use xlink:href="#DejaVuSans-30" x="95.410156"/>
      </g>
     </g>
    </g>
    <g id="ytick_10">
     <g id="line2d_33">
      <g>
       <use xlink:href="#m51f807b565" x="54.02" y="201.517212" style="stroke: #000000; stroke-width: 0.8"/>
      </g>
     </g>
     <g id="text_26">
      <!-- 0.1 -->
      <g transform="translate(31.116875 205.316431) scale(0.1 -0.1)">
       <use xlink:href="#DejaVuSans-30"/>
       <use xlink:href="#DejaVuSans-2e" x="63.623047"/>
       <use xlink:href="#DejaVuSans-31" x="95.410156"/>
      </g>
     </g>
    </g>
    <g id="ytick_11">
     <g id="line2d_34">
      <g>
       <use xlink:href="#m51f807b565" x="54.02" y="161.233436" style="stroke: #000000; stroke-width: 0.8"/>
      </g>
     </g>
     <g id="text_27">
      <!-- 0.2 -->
      <g transform="translate(31.116875 165.032655) scale(0.1 -0.1)">
       <use xlink:href="#DejaVuSans-30"/>
       <use xlink:href="#DejaVuSans-2e" x="63.623047"/>
       <use xlink:href="#DejaVuSans-32" x="95.410156"/>
      </g>
     </g>
    </g>
    <g id="text_28">
     <!-- flow (cms) -->
     <g transform="translate(25.037188 225.423371) rotate(-90) scale(0.1 -0.1)">
      <use xlink:href="#DejaVuSans-66"/>
      <use xlink:href="#DejaVuSans-6c" x="35.205078"/>
      <use xlink:href="#DejaVuSans-6f" x="62.988281"/>
      <use xlink:href="#DejaVuSans-77" x="124.169922"/>
      <use xlink:href="#DejaVuSans-20" x="205.957031"/>
      <use xlink:href="#DejaVuSans-28" x="237.744141"/>
      <use xlink:href="#DejaVuSans-63" x="276.757812"/>
      <use xlink:href="#DejaVuSans-6d" x="331.738281"/>
      <use xlink:href="#DejaVuSans-73" x="429.150391"/>
      <use xlink:href="#DejaVuSans-29" x="481.25"/>
     </g>
    </g>
   </g>
   <g id="line2d_35">
    <path d="M 67.682727 241.800988 
L 73.347975 241.691733 
L 73.892018 241.4177 
L 74.290075 241.051559 
L 74.77183 240.271984 
L 75.428769 238.322123 
L 75.877434 235.903284 
L 76.492524 231.017354 
L 77.441436 220.596934 
L 78.705679 204.253749 
L 79.091083 197.414013 
L 79.340233 190.389862 
L 79.401547 189.713613 
L 79.462862 189.911777 
L 79.524176 190.326963 
L 79.645831 189.40837 
L 79.94559 184.580022 
L 80.004958 185.093219 
L 80.260921 182.148135 
L 80.329048 182.357889 
L 80.532456 179.344838 
L 80.667737 182.00078 
L 81.138786 177.805493 
L 81.204967 178.380348 
L 81.404482 175.628752 
L 81.536843 177.82267 
L 81.800592 175.265875 
L 81.996214 172.957295 
L 82.126628 175.232525 
L 82.32225 173.8454 
L 82.387457 174.460376 
L 82.452665 174.385091 
L 82.841962 171.413256 
L 82.906196 171.503281 
L 82.971403 171.7657 
L 83.165079 169.931716 
L 83.357781 173.25864 
L 83.422015 172.884222 
L 83.741238 167.947643 
L 83.868733 170.388012 
L 83.932967 170.224532 
L 84.377739 167.697974 
L 84.503288 168.152803 
L 84.629809 167.419952 
L 84.756331 168.371051 
L 84.819592 168.115329 
L 84.94514 166.80637 
L 85.196237 164.227466 
L 85.321785 166.244075 
L 85.384073 166.216895 
L 85.697457 163.921166 
L 85.759745 163.461733 
L 85.822032 163.804155 
L 85.946607 164.807369 
L 86.381647 162.852912 
L 86.505249 163.869685 
L 86.567536 163.753808 
L 86.691138 163.349857 
L 86.753426 163.45173 
L 86.938342 161.513302 
L 87.060971 162.098053 
L 87.244914 160.765293 
L 87.367542 163.091713 
L 87.42983 162.967406 
L 87.736401 160.716102 
L 87.797716 160.313407 
L 87.85903 160.354858 
L 87.980685 162.383245 
L 88.042 162.313756 
L 88.164628 161.864122 
L 88.287257 162.46508 
L 89.017189 159.052957 
L 89.138845 160.656048 
L 89.199186 160.536622 
L 89.320841 160.087291 
L 89.442497 160.928271 
L 89.503811 160.769464 
L 89.626439 160.228869 
L 89.868777 157.636018 
L 90.051747 160.238558 
L 90.113061 160.159851 
L 90.296031 159.821238 
L 90.418659 159.608579 
L 90.479974 159.489909 
L 90.541288 159.724214 
L 90.724258 158.492924 
L 90.785572 158.721272 
L 90.908201 159.514991 
L 91.092144 159.20212 
L 91.153458 159.433785 
L 91.215745 159.317357 
L 91.399688 158.846511 
L 91.522317 159.497064 
L 91.583631 159.424644 
L 91.70626 159.063514 
L 91.890203 157.371569 
L 92.074146 158.32811 
L 92.196774 157.989548 
L 92.320376 158.314474 
L 92.504319 157.720206 
L 92.689235 159.007297 
L 92.75055 158.92617 
L 93.059068 157.666963 
L 93.243984 158.732743 
L 93.306272 158.682429 
L 93.430847 158.560688 
L 93.493134 158.659746 
L 93.742285 158.065477 
L 93.804572 158.183825 
L 93.992408 157.86711 
L 94.054696 157.901052 
L 94.241558 157.630662 
L 94.367107 158.248817 
L 94.429394 158.21529 
L 94.555916 158.021969 
L 94.618203 158.067679 
L 94.870273 157.738198 
L 94.932561 157.806952 
L 95.12137 157.020753 
L 95.247892 157.455585 
L 95.437674 157.066517 
L 95.626483 158.126674 
L 95.690717 158.086649 
L 95.753978 157.824797 
L 95.817239 157.920312 
L 96.007021 157.832542 
L 96.070282 157.759374 
L 96.261038 158.765346 
L 96.388533 158.412329 
L 96.517001 158.616579 
L 96.581235 158.586854 
L 96.645469 158.159836 
L 96.709703 158.408003 
L 96.838171 158.729645 
L 96.902405 158.613827 
L 97.09608 157.753983 
L 97.160314 157.732024 
L 97.354963 158.049042 
L 97.550585 158.093979 
L 97.746207 158.194962 
L 97.811414 158.021041 
L 97.941828 157.34033 
L 98.072243 157.514975 
L 98.138424 157.887717 
L 98.203631 157.866468 
L 98.335019 157.986695 
L 98.599741 157.483392 
L 98.92967 158.835935 
L 99.129185 157.955143 
L 99.196339 157.985444 
L 99.262519 158.085667 
L 99.329673 157.970932 
L 99.729676 158.702626 
L 99.795857 158.791652 
L 99.86301 158.565348 
L 99.930164 158.728716 
L 100.064472 159.068849 
L 100.131625 158.955369 
L 100.33406 157.66557 
L 100.401214 157.758742 
L 100.671775 158.923416 
L 100.739902 158.787125 
L 100.807056 158.851509 
L 100.942337 159.062297 
L 101.078591 158.710745 
L 101.146718 158.89297 
L 101.281999 159.191696 
L 101.350126 158.974443 
L 101.418253 159.121942 
L 101.55548 159.41428 
L 101.623607 159.104064 
L 101.819229 159.843298 
L 101.878597 159.716669 
L 102.015824 158.949485 
L 102.152078 159.226113 
L 102.211446 159.160978 
L 102.348673 158.694128 
L 102.408041 158.794029 
L 102.605609 159.451851 
L 102.734078 159.709112 
L 102.793445 159.430831 
L 102.862546 159.598712 
L 103.040649 159.860744 
L 103.100017 159.421892 
L 103.159385 159.569376 
L 103.337488 159.773637 
L 103.456224 158.83835 
L 103.515592 158.854062 
L 103.634327 159.184494 
L 103.693695 158.964269 
L 103.753063 159.055952 
L 103.931167 159.599099 
L 103.991508 159.441601 
L 104.111217 159.16294 
L 104.230925 159.455026 
L 104.350634 158.98641 
L 104.529711 159.677937 
L 104.710734 160.6533 
L 104.771075 160.833756 
L 104.831416 160.501129 
L 105.071807 161.762004 
L 105.252831 160.203566 
L 105.677165 161.298678 
L 105.737506 161.010312 
L 105.79882 161.252045 
L 105.920475 161.58136 
L 106.042131 160.788339 
L 106.102472 160.865835 
L 106.284468 161.54122 
L 106.344809 160.993477 
L 106.40515 161.1467 
L 106.526806 161.711013 
L 106.587147 161.451465 
L 106.772063 162.817643 
L 106.833377 162.969056 
L 106.956006 162.130795 
L 107.078635 162.566699 
L 107.139949 162.241297 
L 107.201263 162.305794 
L 107.38618 163.369911 
L 107.509781 162.046765 
L 107.571096 162.055626 
L 107.755039 162.6645 
L 107.940928 164.211494 
L 108.002242 164.345063 
L 108.188132 161.5773 
L 108.31076 162.57971 
L 108.557964 164.297433 
L 108.682539 163.500256 
L 108.744827 163.539786 
L 108.868429 164.166751 
L 108.930716 163.782033 
L 108.993004 163.796908 
L 109.178893 164.526816 
L 109.303468 163.24496 
L 109.366729 163.356954 
L 109.553592 164.935968 
L 109.741428 166.239366 
L 109.867949 165.592846 
L 110.245568 166.804236 
L 110.308829 167.212631 
L 110.434377 166.01019 
L 110.496664 166.261234 
L 110.747761 168.544104 
L 110.872336 169.850654 
L 110.935597 169.695877 
L 111.063092 169.095694 
L 111.19156 169.811046 
L 111.254821 169.471733 
L 111.319055 168.730025 
L 111.383289 168.882648 
L 111.44655 169.361527 
L 111.510784 169.036602 
L 111.575018 168.991726 
L 111.639252 168.717616 
L 112.089863 171.144728 
L 112.154097 170.845366 
L 112.218332 170.446199 
L 112.411034 171.734791 
L 112.538529 169.286651 
L 112.66505 170.748007 
L 112.859699 174.910728 
L 112.991087 175.57268 
L 113.056294 174.632591 
L 113.122474 174.823792 
L 113.783306 181.315659 
L 113.849487 181.238347 
L 113.982821 179.611596 
L 114.385744 184.455239 
L 114.453871 184.14677 
L 114.521025 183.414083 
L 114.994021 189.639819 
L 115.063121 189.540493 
L 115.133195 189.037294 
L 116.064588 206.864675 
L 116.697196 212.16606 
L 117.281142 215.495623 
L 117.879687 218.494776 
L 118.702077 221.299819 
L 119.546852 223.337701 
L 120.530801 225.347177 
L 120.662189 225.387727 
L 121.476793 226.845672 
L 121.536161 226.798227 
L 121.728863 227.097654 
L 121.911833 227.627478 
L 122.035435 227.748083 
L 122.096749 227.617148 
L 122.156117 227.663339 
L 123.646152 229.653357 
L 126.458825 232.31106 
L 126.661259 232.434145 
L 127.420389 233.166524 
L 128.130856 233.629782 
L 128.341077 233.689709 
L 129.865175 234.856347 
L 129.940115 234.894176 
L 130.089021 234.832935 
L 130.163961 234.886526 
L 130.3917 235.334717 
L 131.007763 235.58549 
L 131.161535 235.735569 
L 131.676381 236.030798 
L 131.814581 235.968667 
L 132.345972 236.391214 
L 132.589283 236.490549 
L 132.770306 236.53869 
L 133.450603 236.949279 
L 133.576151 236.86213 
L 133.702673 236.970391 
L 133.892455 237.248165 
L 136.283714 238.310246 
L 137.790294 238.907355 
L 137.938227 238.81841 
L 138.384946 239.010481 
L 138.613658 239.228872 
L 142.103707 240.179088 
L 142.278891 240.183271 
L 142.716851 240.298507 
L 142.979626 240.184905 
L 143.329994 240.391416 
L 143.505177 240.289744 
L 143.680361 240.412111 
L 143.943137 240.503499 
L 144.906648 240.651105 
L 147.446812 240.912448 
L 147.972363 240.954388 
L 152.264365 241.198482 
L 154.80453 241.26148 
L 155.505265 241.318383 
L 163.21335 241.491146 
L 163.563718 241.48345 
L 164.527228 241.510903 
L 181.082094 241.637198 
L 186.863158 241.663727 
L 188.614995 241.676356 
L 193.344957 241.691396 
L 258.863682 241.767508 
L 340.937273 241.788062 
L 340.937273 241.788062 
" clip-path="url(#p9bd5153695)" style="fill: none; stroke: #1f77b4; stroke-width: 1.5; stroke-linecap: square"/>
   </g>
   <g id="patch_13">
    <path d="M 54.02 246.04 
L 54.02 152.781741 
" style="fill: none; stroke: #000000; stroke-width: 0.8; stroke-linejoin: miter; stroke-linecap: square"/>
   </g>
   <g id="patch_14">
    <path d="M 354.6 246.04 
L 354.6 152.781741 
" style="fill: none; stroke: #000000; stroke-width: 0.8; stroke-linejoin: miter; stroke-linecap: square"/>
   </g>
   <g id="patch_15">
    <path d="M 54.02 246.04 
L 354.6 246.04 
" style="fill: none; stroke: #000000; stroke-width: 0.8; stroke-linejoin: miter; stroke-linecap: square"/>
   </g>
   <g id="patch_16">
    <path d="M 54.02 152.781741 
L 354.6 152.781741 
" style="fill: none; stroke: #000000; stroke-width: 0.8; stroke-linejoin: miter; stroke-linecap: square"/>
   </g>
   <g id="text_29">
    <!-- 2 -->
    <g transform="translate(198.8128 176.201593) scale(0.1728 -0.1728)">
     <use xlink:href="#DejaVuSans-32"/>
    </g>
   </g>
  </g>
  <g id="axes_4">
   <g id="patch_17">
    <path d="M 408.62 246.04 
L 709.2 246.04 
L 709.2 152.781741 
L 408.62 152.781741 
z
" style="fill: #ffffff"/>
   </g>
   <g id="matplotlib.axis_7">
    <g id="xtick_22">
     <g id="line2d_36">
      <g>
       <use xlink:href="#mc64d8f4939" x="422.282727" y="246.04" style="stroke: #000000; stroke-width: 0.8"/>
      </g>
     </g>
     <g id="text_30">
      <!-- 02-25 00 -->
      <g transform="translate(399.802259 260.638438) scale(0.1 -0.1)">
       <use xlink:href="#DejaVuSans-30"/>
       <use xlink:href="#DejaVuSans-32" x="63.623047"/>
       <use xlink:href="#DejaVuSans-2d" x="127.246094"/>
       <use xlink:href="#DejaVuSans-32" x="163.330078"/>
       <use xlink:href="#DejaVuSans-35" x="226.953125"/>
       <use xlink:href="#DejaVuSans-20" x="290.576172"/>
       <use xlink:href="#DejaVuSans-30" x="322.363281"/>
       <use xlink:href="#DejaVuSans-30" x="385.986328"/>
      </g>
     </g>
    </g>
    <g id="xtick_23">
     <g id="line2d_37">
      <g>
       <use xlink:href="#mc64d8f4939" x="464.326829" y="246.04" style="stroke: #000000; stroke-width: 0.8"/>
      </g>
     </g>
     <g id="text_31">
      <!-- 02-25 12 -->
      <g transform="translate(441.84636 260.638438) scale(0.1 -0.1)">
       <use xlink:href="#DejaVuSans-30"/>
       <use xlink:href="#DejaVuSans-32" x="63.623047"/>
       <use xlink:href="#DejaVuSans-2d" x="127.246094"/>
       <use xlink:href="#DejaVuSans-32" x="163.330078"/>
       <use xlink:href="#DejaVuSans-35" x="226.953125"/>
       <use xlink:href="#DejaVuSans-20" x="290.576172"/>
       <use xlink:href="#DejaVuSans-31" x="322.363281"/>
       <use xlink:href="#DejaVuSans-32" x="385.986328"/>
      </g>
     </g>
    </g>
    <g id="xtick_24">
     <g id="line2d_38">
      <g>
       <use xlink:href="#mc64d8f4939" x="506.370931" y="246.04" style="stroke: #000000; stroke-width: 0.8"/>
      </g>
     </g>
     <g id="text_32">
      <!-- 02-26 00 -->
      <g transform="translate(483.890462 260.638438) scale(0.1 -0.1)">
       <use xlink:href="#DejaVuSans-30"/>
       <use xlink:href="#DejaVuSans-32" x="63.623047"/>
       <use xlink:href="#DejaVuSans-2d" x="127.246094"/>
       <use xlink:href="#DejaVuSans-32" x="163.330078"/>
       <use xlink:href="#DejaVuSans-36" x="226.953125"/>
       <use xlink:href="#DejaVuSans-20" x="290.576172"/>
       <use xlink:href="#DejaVuSans-30" x="322.363281"/>
       <use xlink:href="#DejaVuSans-30" x="385.986328"/>
      </g>
     </g>
    </g>
    <g id="xtick_25">
     <g id="line2d_39">
      <g>
       <use xlink:href="#mc64d8f4939" x="548.415033" y="246.04" style="stroke: #000000; stroke-width: 0.8"/>
      </g>
     </g>
     <g id="text_33">
      <!-- 02-26 12 -->
      <g transform="translate(525.934564 260.638438) scale(0.1 -0.1)">
       <use xlink:href="#DejaVuSans-30"/>
       <use xlink:href="#DejaVuSans-32" x="63.623047"/>
       <use xlink:href="#DejaVuSans-2d" x="127.246094"/>
       <use xlink:href="#DejaVuSans-32" x="163.330078"/>
       <use xlink:href="#DejaVuSans-36" x="226.953125"/>
       <use xlink:href="#DejaVuSans-20" x="290.576172"/>
       <use xlink:href="#DejaVuSans-31" x="322.363281"/>
       <use xlink:href="#DejaVuSans-32" x="385.986328"/>
      </g>
     </g>
    </g>
    <g id="xtick_26">
     <g id="line2d_40">
      <g>
       <use xlink:href="#mc64d8f4939" x="590.459135" y="246.04" style="stroke: #000000; stroke-width: 0.8"/>
      </g>
     </g>
     <g id="text_34">
      <!-- 02-27 00 -->
      <g transform="translate(567.978666 260.638438) scale(0.1 -0.1)">
       <use xlink:href="#DejaVuSans-30"/>
       <use xlink:href="#DejaVuSans-32" x="63.623047"/>
       <use xlink:href="#DejaVuSans-2d" x="127.246094"/>
       <use xlink:href="#DejaVuSans-32" x="163.330078"/>
       <use xlink:href="#DejaVuSans-37" x="226.953125"/>
       <use xlink:href="#DejaVuSans-20" x="290.576172"/>
       <use xlink:href="#DejaVuSans-30" x="322.363281"/>
       <use xlink:href="#DejaVuSans-30" x="385.986328"/>
      </g>
     </g>
    </g>
    <g id="xtick_27">
     <g id="line2d_41">
      <g>
       <use xlink:href="#mc64d8f4939" x="632.503237" y="246.04" style="stroke: #000000; stroke-width: 0.8"/>
      </g>
     </g>
     <g id="text_35">
      <!-- 02-27 12 -->
      <g transform="translate(610.022768 260.638438) scale(0.1 -0.1)">
       <use xlink:href="#DejaVuSans-30"/>
       <use xlink:href="#DejaVuSans-32" x="63.623047"/>
       <use xlink:href="#DejaVuSans-2d" x="127.246094"/>
       <use xlink:href="#DejaVuSans-32" x="163.330078"/>
       <use xlink:href="#DejaVuSans-37" x="226.953125"/>
       <use xlink:href="#DejaVuSans-20" x="290.576172"/>
       <use xlink:href="#DejaVuSans-31" x="322.363281"/>
       <use xlink:href="#DejaVuSans-32" x="385.986328"/>
      </g>
     </g>
    </g>
    <g id="xtick_28">
     <g id="line2d_42">
      <g>
       <use xlink:href="#mc64d8f4939" x="674.547339" y="246.04" style="stroke: #000000; stroke-width: 0.8"/>
      </g>
     </g>
     <g id="text_36">
      <!-- 02-28 00 -->
      <g transform="translate(652.06687 260.638438) scale(0.1 -0.1)">
       <use xlink:href="#DejaVuSans-30"/>
       <use xlink:href="#DejaVuSans-32" x="63.623047"/>
       <use xlink:href="#DejaVuSans-2d" x="127.246094"/>
       <use xlink:href="#DejaVuSans-32" x="163.330078"/>
       <use xlink:href="#DejaVuSans-38" x="226.953125"/>
       <use xlink:href="#DejaVuSans-20" x="290.576172"/>
       <use xlink:href="#DejaVuSans-30" x="322.363281"/>
       <use xlink:href="#DejaVuSans-30" x="385.986328"/>
      </g>
     </g>
    </g>
    <g id="text_37">
     <!-- time -->
     <g transform="translate(547.613906 274.316562) scale(0.1 -0.1)">
      <use xlink:href="#DejaVuSans-74"/>
      <use xlink:href="#DejaVuSans-69" x="39.208984"/>
      <use xlink:href="#DejaVuSans-6d" x="66.992188"/>
      <use xlink:href="#DejaVuSans-65" x="164.404297"/>
     </g>
    </g>
   </g>
   <g id="matplotlib.axis_8">
    <g id="ytick_12">
     <g id="line2d_43">
      <g>
       <use xlink:href="#m51f807b565" x="408.62" y="241.800988" style="stroke: #000000; stroke-width: 0.8"/>
      </g>
     </g>
     <g id="text_38">
      <!-- 0 -->
      <g transform="translate(395.2575 245.600207) scale(0.1 -0.1)">
       <use xlink:href="#DejaVuSans-30"/>
      </g>
     </g>
    </g>
    <g id="ytick_13">
     <g id="line2d_44">
      <g>
       <use xlink:href="#m51f807b565" x="408.62" y="198.770044" style="stroke: #000000; stroke-width: 0.8"/>
      </g>
     </g>
     <g id="text_39">
      <!-- 1 -->
      <g transform="translate(395.2575 202.569262) scale(0.1 -0.1)">
       <use xlink:href="#DejaVuSans-31"/>
      </g>
     </g>
    </g>
    <g id="ytick_14">
     <g id="line2d_45">
      <g>
       <use xlink:href="#m51f807b565" x="408.62" y="155.739099" style="stroke: #000000; stroke-width: 0.8"/>
      </g>
     </g>
     <g id="text_40">
      <!-- 2 -->
      <g transform="translate(395.2575 159.538318) scale(0.1 -0.1)">
       <use xlink:href="#DejaVuSans-32"/>
      </g>
     </g>
    </g>
    <g id="text_41">
     <!-- depth (m) -->
     <g transform="translate(389.177812 224.325714) rotate(-90) scale(0.1 -0.1)">
      <use xlink:href="#DejaVuSans-64"/>
      <use xlink:href="#DejaVuSans-65" x="63.476562"/>
      <use xlink:href="#DejaVuSans-70" x="125"/>
      <use xlink:href="#DejaVuSans-74" x="188.476562"/>
      <use xlink:href="#DejaVuSans-68" x="227.685547"/>
      <use xlink:href="#DejaVuSans-20" x="291.064453"/>
      <use xlink:href="#DejaVuSans-28" x="322.851562"/>
      <use xlink:href="#DejaVuSans-6d" x="361.865234"/>
      <use xlink:href="#DejaVuSans-29" x="459.277344"/>
     </g>
    </g>
   </g>
   <g id="line2d_46">
    <path d="M 422.282727 241.800988 
L 426.896873 241.708485 
L 427.597608 241.435333 
L 428.351871 240.884382 
L 429.220977 239.929113 
L 429.821468 239.004922 
L 430.537775 237.447573 
L 432.10275 233.318185 
L 433.940233 228.834993 
L 434.860921 226.565031 
L 436.004482 223.094974 
L 437.957781 215.606029 
L 440.359745 204.473303 
L 441.906228 196.105269 
L 445.630829 174.544714 
L 447.474152 165.855397 
L 448.404572 162.674259 
L 449.407012 160.063452 
L 450.417239 158.031265 
L 450.925272 157.356219 
L 451.373937 157.063032 
L 451.760314 157.035892 
L 452.215792 157.212444 
L 452.672243 157.611555 
L 453.265921 158.391529 
L 453.995854 159.670778 
L 454.93406 161.847697 
L 456.291734 165.874194 
L 457.393445 169.783985 
L 458.830925 175.645052 
L 461.61732 188.527607 
L 463.903468 200.215126 
L 467.854835 220.554623 
L 469.321513 226.881055 
L 470.111786 229.516126 
L 470.790137 230.878851 
L 471.556079 231.96112 
L 472.479687 232.886254 
L 473.649525 233.704806 
L 474.99844 234.394252 
L 477.118163 235.203844 
L 480.317213 236.154083 
L 485.223332 237.370535 
L 492.465234 238.895963 
L 496.090564 239.519496 
L 500.207383 240.03655 
L 505.638079 240.422914 
L 514.222083 240.768256 
L 527.448457 241.038396 
L 555.740634 241.29723 
L 607.507434 241.483814 
L 695.537273 241.60833 
L 695.537273 241.60833 
" clip-path="url(#p088a843d98)" style="fill: none; stroke: #1f77b4; stroke-width: 1.5; stroke-linecap: square"/>
   </g>
   <g id="patch_18">
    <path d="M 408.62 246.04 
L 408.62 152.781741 
" style="fill: none; stroke: #000000; stroke-width: 0.8; stroke-linejoin: miter; stroke-linecap: square"/>
   </g>
   <g id="patch_19">
    <path d="M 709.2 246.04 
L 709.2 152.781741 
" style="fill: none; stroke: #000000; stroke-width: 0.8; stroke-linejoin: miter; stroke-linecap: square"/>
   </g>
   <g id="patch_20">
    <path d="M 408.62 246.04 
L 709.2 246.04 
" style="fill: none; stroke: #000000; stroke-width: 0.8; stroke-linejoin: miter; stroke-linecap: square"/>
   </g>
   <g id="patch_21">
    <path d="M 408.62 152.781741 
L 709.2 152.781741 
" style="fill: none; stroke: #000000; stroke-width: 0.8; stroke-linejoin: miter; stroke-linecap: square"/>
   </g>
   <g id="text_42">
    <!-- ('P2', 'depthN') -->
    <g transform="translate(494.8579 176.201593) scale(0.1728 -0.1728)">
     <use xlink:href="#DejaVuSans-28"/>
     <use xlink:href="#DejaVuSans-27" x="39.013672"/>
     <use xlink:href="#DejaVuSans-50" x="66.503906"/>
     <use xlink:href="#DejaVuSans-32" x="126.806641"/>
     <use xlink:href="#DejaVuSans-27" x="190.429688"/>
     <use xlink:href="#DejaVuSans-2c" x="217.919922"/>
     <use xlink:href="#DejaVuSans-20" x="249.707031"/>
     <use xlink:href="#DejaVuSans-27" x="281.494141"/>
     <use xlink:href="#DejaVuSans-64" x="308.984375"/>
     <use xlink:href="#DejaVuSans-65" x="372.460938"/>
     <use xlink:href="#DejaVuSans-70" x="433.984375"/>
     <use xlink:href="#DejaVuSans-74" x="497.460938"/>
     <use xlink:href="#DejaVuSans-68" x="536.669922"/>
     <use xlink:href="#DejaVuSans-4e" x="600.048828"/>
     <use xlink:href="#DejaVuSans-27" x="674.853516"/>
     <use xlink:href="#DejaVuSans-29" x="702.34375"/>
    </g>
   </g>
   <g id="text_43">
    <!-- cost: 5.46e+03 -->
    <g transform="translate(492.53995 204.179071) scale(0.1728 -0.1728)">
     <defs>
      <path id="DejaVuSans-3a" d="M 750 794 
L 1409 794 
L 1409 0 
L 750 0 
L 750 794 
z
M 750 3309 
L 1409 3309 
L 1409 2516 
L 750 2516 
L 750 3309 
z
" transform="scale(0.015625)"/>
      <path id="DejaVuSans-34" d="M 2419 4116 
L 825 1625 
L 2419 1625 
L 2419 4116 
z
M 2253 4666 
L 3047 4666 
L 3047 1625 
L 3713 1625 
L 3713 1100 
L 3047 1100 
L 3047 0 
L 2419 0 
L 2419 1100 
L 313 1100 
L 313 1709 
L 2253 4666 
z
" transform="scale(0.015625)"/>
      <path id="DejaVuSans-2b" d="M 2944 4013 
L 2944 2272 
L 4684 2272 
L 4684 1741 
L 2944 1741 
L 2944 0 
L 2419 0 
L 2419 1741 
L 678 1741 
L 678 2272 
L 2419 2272 
L 2419 4013 
L 2944 4013 
z
" transform="scale(0.015625)"/>
     </defs>
     <use xlink:href="#DejaVuSans-63"/>
     <use xlink:href="#DejaVuSans-6f" x="54.980469"/>
     <use xlink:href="#DejaVuSans-73" x="116.162109"/>
     <use xlink:href="#DejaVuSans-74" x="168.261719"/>
     <use xlink:href="#DejaVuSans-3a" x="207.470703"/>
     <use xlink:href="#DejaVuSans-20" x="241.162109"/>
     <use xlink:href="#DejaVuSans-35" x="272.949219"/>
     <use xlink:href="#DejaVuSans-2e" x="336.572266"/>
     <use xlink:href="#DejaVuSans-34" x="368.359375"/>
     <use xlink:href="#DejaVuSans-36" x="431.982422"/>
     <use xlink:href="#DejaVuSans-65" x="495.605469"/>
     <use xlink:href="#DejaVuSans-2b" x="557.128906"/>
     <use xlink:href="#DejaVuSans-30" x="640.917969"/>
     <use xlink:href="#DejaVuSans-33" x="704.541016"/>
    </g>
   </g>
  </g>
 </g>
 <defs>
  <clipPath id="p155e983528">
   <rect x="54.02" y="26.88" width="300.58" height="93.258259"/>
  </clipPath>
  <clipPath id="p123845c3eb">
   <rect x="408.62" y="26.88" width="300.58" height="93.258259"/>
  </clipPath>
  <clipPath id="p9bd5153695">
   <rect x="54.02" y="152.781741" width="300.58" height="93.258259"/>
  </clipPath>
  <clipPath id="p088a843d98">
   <rect x="408.62" y="152.781741" width="300.58" height="93.258259"/>
  </clipPath>
 </defs>
</svg>
