<?xml version="1.0" encoding="utf-8" standalone="no"?>
<!DOCTYPE svg PUBLIC "-//W3C//DTD SVG 1.1//EN"
  "http://www.w3.org/Graphics/SVG/1.1/DTD/svg11.dtd">
<svg xmlns:xlink="http://www.w3.org/1999/xlink" width="720pt" height="288pt" viewBox="0 0 720 288" xmlns="http://www.w3.org/2000/svg" version="1.1">
 <metadata>
  <rdf:RDF xmlns:dc="http://purl.org/dc/elements/1.1/" xmlns:cc="http://creativecommons.org/ns#" xmlns:rdf="http://www.w3.org/1999/02/22-rdf-syntax-ns#">
   <cc:Work>
    <dc:type rdf:resource="http://purl.org/dc/dcmitype/StillImage"/>
    <dc:date>2025-02-12T14:55:18.039750</dc:date>
    <dc:format>image/svg+xml</dc:format>
    <dc:creator>
     <cc:Agent>
      <dc:title>Matplotlib v3.9.4, https://matplotlib.org/</dc:title>
     </cc:Agent>
    </dc:creator>
   </cc:Work>
  </rdf:RDF>
 </metadata>
 <defs>
  <style type="text/css">*{stroke-linejoin: round; stroke-linecap: butt}</style>
 </defs>
 <g id="figure_1">
  <g id="patch_1">
   <path d="M 0 288 
L 720 288 
L 720 0 
L 0 0 
z
" style="fill: #ffffff"/>
  </g>
  <g id="axes_1">
   <g id="patch_2">
    <path d="M 54.02 120.494477 
L 354.6 120.494477 
L 354.6 26.88 
L 54.02 26.88 
z
" style="fill: #ffffff"/>
   </g>
   <g id="matplotlib.axis_1">
    <g id="xtick_1">
     <g id="line2d_1">
      <defs>
       <path id="m66d8d66350" d="M 0 0 
L 0 3.5 
" style="stroke: #000000; stroke-width: 0.8"/>
      </defs>
      <g>
       <use xlink:href="#m66d8d66350" x="67.682727" y="120.494477" style="stroke: #000000; stroke-width: 0.8"/>
      </g>
     </g>
    </g>
    <g id="xtick_2">
     <g id="line2d_2">
      <g>
       <use xlink:href="#m66d8d66350" x="109.73282" y="120.494477" style="stroke: #000000; stroke-width: 0.8"/>
      </g>
     </g>
    </g>
    <g id="xtick_3">
     <g id="line2d_3">
      <g>
       <use xlink:href="#m66d8d66350" x="151.782913" y="120.494477" style="stroke: #000000; stroke-width: 0.8"/>
      </g>
     </g>
    </g>
    <g id="xtick_4">
     <g id="line2d_4">
      <g>
       <use xlink:href="#m66d8d66350" x="193.833005" y="120.494477" style="stroke: #000000; stroke-width: 0.8"/>
      </g>
     </g>
    </g>
    <g id="xtick_5">
     <g id="line2d_5">
      <g>
       <use xlink:href="#m66d8d66350" x="235.883098" y="120.494477" style="stroke: #000000; stroke-width: 0.8"/>
      </g>
     </g>
    </g>
    <g id="xtick_6">
     <g id="line2d_6">
      <g>
       <use xlink:href="#m66d8d66350" x="277.933191" y="120.494477" style="stroke: #000000; stroke-width: 0.8"/>
      </g>
     </g>
    </g>
    <g id="xtick_7">
     <g id="line2d_7">
      <g>
       <use xlink:href="#m66d8d66350" x="319.983283" y="120.494477" style="stroke: #000000; stroke-width: 0.8"/>
      </g>
     </g>
    </g>
    <g id="text_1">
     <!-- time -->
     <g transform="translate(193.013906 139.092915) scale(0.1 -0.1)">
      <defs>
       <path id="DejaVuSans-74" d="M 1172 4494 
L 1172 3500 
L 2356 3500 
L 2356 3053 
L 1172 3053 
L 1172 1153 
Q 1172 725 1289 603 
Q 1406 481 1766 481 
L 2356 481 
L 2356 0 
L 1766 0 
Q 1100 0 847 248 
Q 594 497 594 1153 
L 594 3053 
L 172 3053 
L 172 3500 
L 594 3500 
L 594 4494 
L 1172 4494 
z
" transform="scale(0.015625)"/>
       <path id="DejaVuSans-69" d="M 603 3500 
L 1178 3500 
L 1178 0 
L 603 0 
L 603 3500 
z
M 603 4863 
L 1178 4863 
L 1178 4134 
L 603 4134 
L 603 4863 
z
" transform="scale(0.015625)"/>
       <path id="DejaVuSans-6d" d="M 3328 2828 
Q 3544 3216 3844 3400 
Q 4144 3584 4550 3584 
Q 5097 3584 5394 3201 
Q 5691 2819 5691 2113 
L 5691 0 
L 5113 0 
L 5113 2094 
Q 5113 2597 4934 2840 
Q 4756 3084 4391 3084 
Q 3944 3084 3684 2787 
Q 3425 2491 3425 1978 
L 3425 0 
L 2847 0 
L 2847 2094 
Q 2847 2600 2669 2842 
Q 2491 3084 2119 3084 
Q 1678 3084 1418 2786 
Q 1159 2488 1159 1978 
L 1159 0 
L 581 0 
L 581 3500 
L 1159 3500 
L 1159 2956 
Q 1356 3278 1631 3431 
Q 1906 3584 2284 3584 
Q 2666 3584 2933 3390 
Q 3200 3197 3328 2828 
z
" transform="scale(0.015625)"/>
       <path id="DejaVuSans-65" d="M 3597 1894 
L 3597 1613 
L 953 1613 
Q 991 1019 1311 708 
Q 1631 397 2203 397 
Q 2534 397 2845 478 
Q 3156 559 3463 722 
L 3463 178 
Q 3153 47 2828 -22 
Q 2503 -91 2169 -91 
Q 1331 -91 842 396 
Q 353 884 353 1716 
Q 353 2575 817 3079 
Q 1281 3584 2069 3584 
Q 2775 3584 3186 3129 
Q 3597 2675 3597 1894 
z
M 3022 2063 
Q 3016 2534 2758 2815 
Q 2500 3097 2075 3097 
Q 1594 3097 1305 2825 
Q 1016 2553 972 2059 
L 3022 2063 
z
" transform="scale(0.015625)"/>
      </defs>
      <use xlink:href="#DejaVuSans-74"/>
      <use xlink:href="#DejaVuSans-69" x="39.208984"/>
      <use xlink:href="#DejaVuSans-6d" x="66.992188"/>
      <use xlink:href="#DejaVuSans-65" x="164.404297"/>
     </g>
    </g>
   </g>
   <g id="matplotlib.axis_2">
    <g id="ytick_1">
     <g id="line2d_8">
      <defs>
       <path id="mbd0ad75ff3" d="M 0 0 
L -3.5 0 
" style="stroke: #000000; stroke-width: 0.8"/>
      </defs>
      <g>
       <use xlink:href="#mbd0ad75ff3" x="54.02" y="116.239274" style="stroke: #000000; stroke-width: 0.8"/>
      </g>
     </g>
     <g id="text_2">
      <!-- 0.0 -->
      <g transform="translate(31.116875 120.038492) scale(0.1 -0.1)">
       <defs>
        <path id="DejaVuSans-30" d="M 2034 4250 
Q 1547 4250 1301 3770 
Q 1056 3291 1056 2328 
Q 1056 1369 1301 889 
Q 1547 409 2034 409 
Q 2525 409 2770 889 
Q 3016 1369 3016 2328 
Q 3016 3291 2770 3770 
Q 2525 4250 2034 4250 
z
M 2034 4750 
Q 2819 4750 3233 4129 
Q 3647 3509 3647 2328 
Q 3647 1150 3233 529 
Q 2819 -91 2034 -91 
Q 1250 -91 836 529 
Q 422 1150 422 2328 
Q 422 3509 836 4129 
Q 1250 4750 2034 4750 
z
" transform="scale(0.015625)"/>
        <path id="DejaVuSans-2e" d="M 684 794 
L 1344 794 
L 1344 0 
L 684 0 
L 684 794 
z
" transform="scale(0.015625)"/>
       </defs>
       <use xlink:href="#DejaVuSans-30"/>
       <use xlink:href="#DejaVuSans-2e" x="63.623047"/>
       <use xlink:href="#DejaVuSans-30" x="95.410156"/>
      </g>
     </g>
    </g>
    <g id="ytick_2">
     <g id="line2d_9">
      <g>
       <use xlink:href="#mbd0ad75ff3" x="54.02" y="91.57577" style="stroke: #000000; stroke-width: 0.8"/>
      </g>
     </g>
     <g id="text_3">
      <!-- 0.1 -->
      <g transform="translate(31.116875 95.374989) scale(0.1 -0.1)">
       <defs>
        <path id="DejaVuSans-31" d="M 794 531 
L 1825 531 
L 1825 4091 
L 703 3866 
L 703 4441 
L 1819 4666 
L 2450 4666 
L 2450 531 
L 3481 531 
L 3481 0 
L 794 0 
L 794 531 
z
" transform="scale(0.015625)"/>
       </defs>
       <use xlink:href="#DejaVuSans-30"/>
       <use xlink:href="#DejaVuSans-2e" x="63.623047"/>
       <use xlink:href="#DejaVuSans-31" x="95.410156"/>
      </g>
     </g>
    </g>
    <g id="ytick_3">
     <g id="line2d_10">
      <g>
       <use xlink:href="#mbd0ad75ff3" x="54.02" y="66.912267" style="stroke: #000000; stroke-width: 0.8"/>
      </g>
     </g>
     <g id="text_4">
      <!-- 0.2 -->
      <g transform="translate(31.116875 70.711486) scale(0.1 -0.1)">
       <defs>
        <path id="DejaVuSans-32" d="M 1228 531 
L 3431 531 
L 3431 0 
L 469 0 
L 469 531 
Q 828 903 1448 1529 
Q 2069 2156 2228 2338 
Q 2531 2678 2651 2914 
Q 2772 3150 2772 3378 
Q 2772 3750 2511 3984 
Q 2250 4219 1831 4219 
Q 1534 4219 1204 4116 
Q 875 4013 500 3803 
L 500 4441 
Q 881 4594 1212 4672 
Q 1544 4750 1819 4750 
Q 2544 4750 2975 4387 
Q 3406 4025 3406 3419 
Q 3406 3131 3298 2873 
Q 3191 2616 2906 2266 
Q 2828 2175 2409 1742 
Q 1991 1309 1228 531 
z
" transform="scale(0.015625)"/>
       </defs>
       <use xlink:href="#DejaVuSans-30"/>
       <use xlink:href="#DejaVuSans-2e" x="63.623047"/>
       <use xlink:href="#DejaVuSans-32" x="95.410156"/>
      </g>
     </g>
    </g>
    <g id="ytick_4">
     <g id="line2d_11">
      <g>
       <use xlink:href="#mbd0ad75ff3" x="54.02" y="42.248763" style="stroke: #000000; stroke-width: 0.8"/>
      </g>
     </g>
     <g id="text_5">
      <!-- 0.3 -->
      <g transform="translate(31.116875 46.047982) scale(0.1 -0.1)">
       <defs>
        <path id="DejaVuSans-33" d="M 2597 2516 
Q 3050 2419 3304 2112 
Q 3559 1806 3559 1356 
Q 3559 666 3084 287 
Q 2609 -91 1734 -91 
Q 1441 -91 1130 -33 
Q 819 25 488 141 
L 488 750 
Q 750 597 1062 519 
Q 1375 441 1716 441 
Q 2309 441 2620 675 
Q 2931 909 2931 1356 
Q 2931 1769 2642 2001 
Q 2353 2234 1838 2234 
L 1294 2234 
L 1294 2753 
L 1863 2753 
Q 2328 2753 2575 2939 
Q 2822 3125 2822 3475 
Q 2822 3834 2567 4026 
Q 2313 4219 1838 4219 
Q 1578 4219 1281 4162 
Q 984 4106 628 3988 
L 628 4550 
Q 988 4650 1302 4700 
Q 1616 4750 1894 4750 
Q 2613 4750 3031 4423 
Q 3450 4097 3450 3541 
Q 3450 3153 3228 2886 
Q 3006 2619 2597 2516 
z
" transform="scale(0.015625)"/>
       </defs>
       <use xlink:href="#DejaVuSans-30"/>
       <use xlink:href="#DejaVuSans-2e" x="63.623047"/>
       <use xlink:href="#DejaVuSans-33" x="95.410156"/>
      </g>
     </g>
    </g>
    <g id="text_6">
     <!-- flow (cms) -->
     <g transform="translate(25.037188 99.699739) rotate(-90) scale(0.1 -0.1)">
      <defs>
       <path id="DejaVuSans-66" d="M 2375 4863 
L 2375 4384 
L 1825 4384 
Q 1516 4384 1395 4259 
Q 1275 4134 1275 3809 
L 1275 3500 
L 2222 3500 
L 2222 3053 
L 1275 3053 
L 1275 0 
L 697 0 
L 697 3053 
L 147 3053 
L 147 3500 
L 697 3500 
L 697 3744 
Q 697 4328 969 4595 
Q 1241 4863 1831 4863 
L 2375 4863 
z
" transform="scale(0.015625)"/>
       <path id="DejaVuSans-6c" d="M 603 4863 
L 1178 4863 
L 1178 0 
L 603 0 
L 603 4863 
z
" transform="scale(0.015625)"/>
       <path id="DejaVuSans-6f" d="M 1959 3097 
Q 1497 3097 1228 2736 
Q 959 2375 959 1747 
Q 959 1119 1226 758 
Q 1494 397 1959 397 
Q 2419 397 2687 759 
Q 2956 1122 2956 1747 
Q 2956 2369 2687 2733 
Q 2419 3097 1959 3097 
z
M 1959 3584 
Q 2709 3584 3137 3096 
Q 3566 2609 3566 1747 
Q 3566 888 3137 398 
Q 2709 -91 1959 -91 
Q 1206 -91 779 398 
Q 353 888 353 1747 
Q 353 2609 779 3096 
Q 1206 3584 1959 3584 
z
" transform="scale(0.015625)"/>
       <path id="DejaVuSans-77" d="M 269 3500 
L 844 3500 
L 1563 769 
L 2278 3500 
L 2956 3500 
L 3675 769 
L 4391 3500 
L 4966 3500 
L 4050 0 
L 3372 0 
L 2619 2869 
L 1863 0 
L 1184 0 
L 269 3500 
z
" transform="scale(0.015625)"/>
       <path id="DejaVuSans-20" transform="scale(0.015625)"/>
       <path id="DejaVuSans-28" d="M 1984 4856 
Q 1566 4138 1362 3434 
Q 1159 2731 1159 2009 
Q 1159 1288 1364 580 
Q 1569 -128 1984 -844 
L 1484 -844 
Q 1016 -109 783 600 
Q 550 1309 550 2009 
Q 550 2706 781 3412 
Q 1013 4119 1484 4856 
L 1984 4856 
z
" transform="scale(0.015625)"/>
       <path id="DejaVuSans-63" d="M 3122 3366 
L 3122 2828 
Q 2878 2963 2633 3030 
Q 2388 3097 2138 3097 
Q 1578 3097 1268 2742 
Q 959 2388 959 1747 
Q 959 1106 1268 751 
Q 1578 397 2138 397 
Q 2388 397 2633 464 
Q 2878 531 3122 666 
L 3122 134 
Q 2881 22 2623 -34 
Q 2366 -91 2075 -91 
Q 1284 -91 818 406 
Q 353 903 353 1747 
Q 353 2603 823 3093 
Q 1294 3584 2113 3584 
Q 2378 3584 2631 3529 
Q 2884 3475 3122 3366 
z
" transform="scale(0.015625)"/>
       <path id="DejaVuSans-73" d="M 2834 3397 
L 2834 2853 
Q 2591 2978 2328 3040 
Q 2066 3103 1784 3103 
Q 1356 3103 1142 2972 
Q 928 2841 928 2578 
Q 928 2378 1081 2264 
Q 1234 2150 1697 2047 
L 1894 2003 
Q 2506 1872 2764 1633 
Q 3022 1394 3022 966 
Q 3022 478 2636 193 
Q 2250 -91 1575 -91 
Q 1294 -91 989 -36 
Q 684 19 347 128 
L 347 722 
Q 666 556 975 473 
Q 1284 391 1588 391 
Q 1994 391 2212 530 
Q 2431 669 2431 922 
Q 2431 1156 2273 1281 
Q 2116 1406 1581 1522 
L 1381 1569 
Q 847 1681 609 1914 
Q 372 2147 372 2553 
Q 372 3047 722 3315 
Q 1072 3584 1716 3584 
Q 2034 3584 2315 3537 
Q 2597 3491 2834 3397 
z
" transform="scale(0.015625)"/>
       <path id="DejaVuSans-29" d="M 513 4856 
L 1013 4856 
Q 1481 4119 1714 3412 
Q 1947 2706 1947 2009 
Q 1947 1309 1714 600 
Q 1481 -109 1013 -844 
L 513 -844 
Q 928 -128 1133 580 
Q 1338 1288 1338 2009 
Q 1338 2731 1133 3434 
Q 928 4138 513 4856 
z
" transform="scale(0.015625)"/>
      </defs>
      <use xlink:href="#DejaVuSans-66"/>
      <use xlink:href="#DejaVuSans-6c" x="35.205078"/>
      <use xlink:href="#DejaVuSans-6f" x="62.988281"/>
      <use xlink:href="#DejaVuSans-77" x="124.169922"/>
      <use xlink:href="#DejaVuSans-20" x="205.957031"/>
      <use xlink:href="#DejaVuSans-28" x="237.744141"/>
      <use xlink:href="#DejaVuSans-63" x="276.757812"/>
      <use xlink:href="#DejaVuSans-6d" x="331.738281"/>
      <use xlink:href="#DejaVuSans-73" x="429.150391"/>
      <use xlink:href="#DejaVuSans-29" x="481.25"/>
     </g>
    </g>
   </g>
   <g id="line2d_12">
    <path d="M 67.682727 116.239274 
L 72.209926 116.146843 
L 72.560343 115.896665 
L 72.998365 115.244763 
L 73.513284 113.987627 
L 74.404902 111.063732 
L 75.035653 108.585344 
L 75.704366 104.458477 
L 76.755619 96.32163 
L 76.949322 94.86759 
L 77.565472 90.519459 
L 78.638139 83.323009 
L 79.940524 70.767394 
L 80.059277 69.915404 
L 80.704629 64.741242 
L 81.375289 60.139486 
L 81.507669 59.438061 
L 82.099485 56.156019 
L 82.749704 53.215016 
L 83.520622 50.177572 
L 84.347997 47.051064 
L 88.809005 31.196266 
L 88.930678 31.152285 
L 89.1127 31.521805 
L 89.782387 33.960989 
L 90.333321 35.674587 
L 90.761609 36.647727 
L 91.743751 37.800949 
L 92.357955 38.192526 
L 92.665544 39.64424 
L 93.906606 47.019939 
L 94.53249 49.77505 
L 94.721326 50.437945 
L 95.352078 52.460356 
L 96.049019 54.890839 
L 97.920832 67.699367 
L 98.579812 71.083475 
L 99.778045 76.136871 
L 99.979535 76.893413 
L 100.654088 79.414498 
L 100.857525 80.077054 
L 101.537919 82.279608 
L 101.733569 82.825833 
L 102.440244 84.821803 
L 102.627133 85.276431 
L 103.319207 86.987363 
L 103.497336 87.39275 
L 104.275068 89.068585 
L 105.057667 90.697051 
L 105.238716 91.01788 
L 105.965832 92.335357 
L 108.85483 96.900433 
L 109.041719 97.138668 
L 109.917762 98.301076 
L 110.67408 99.223847 
L 111.499508 100.237293 
L 111.81975 100.567593 
L 112.852509 101.724108 
L 113.837571 102.737807 
L 114.170467 103.034798 
L 115.117568 103.943145 
L 116.09971 104.833559 
L 117.049731 105.632431 
L 117.376787 105.869854 
L 118.3161 106.615171 
L 119.216479 107.285131 
L 120.215168 108.002996 
L 120.651243 108.276518 
L 121.645066 108.93527 
L 122.99028 109.800486 
L 125.625224 111.217318 
L 128.740046 112.621593 
L 131.957073 113.804145 
L 134.967742 114.684557 
L 138.1361 115.384695 
L 141.200306 115.839023 
L 144.090276 116.044163 
L 149.872164 116.121805 
L 181.584942 116.199435 
L 316.933678 116.235158 
L 340.937273 116.236075 
L 340.937273 116.236075 
" clip-path="url(#p70535aa2e6)" style="fill: none; stroke: #1f77b4; stroke-width: 1.5; stroke-linecap: square"/>
   </g>
   <g id="patch_3">
    <path d="M 54.02 120.494477 
L 54.02 26.88 
" style="fill: none; stroke: #000000; stroke-width: 0.8; stroke-linejoin: miter; stroke-linecap: square"/>
   </g>
   <g id="patch_4">
    <path d="M 354.6 120.494477 
L 354.6 26.88 
" style="fill: none; stroke: #000000; stroke-width: 0.8; stroke-linejoin: miter; stroke-linecap: square"/>
   </g>
   <g id="patch_5">
    <path d="M 54.02 120.494477 
L 354.6 120.494477 
" style="fill: none; stroke: #000000; stroke-width: 0.8; stroke-linejoin: miter; stroke-linecap: square"/>
   </g>
   <g id="patch_6">
    <path d="M 54.02 26.88 
L 354.6 26.88 
" style="fill: none; stroke: #000000; stroke-width: 0.8; stroke-linejoin: miter; stroke-linecap: square"/>
   </g>
   <g id="text_7">
    <!-- 1 -->
    <g transform="translate(198.8128 50.371095) scale(0.1728 -0.1728)">
     <use xlink:href="#DejaVuSans-31"/>
    </g>
   </g>
   <g id="text_8">
    <!-- flows -->
    <g transform="translate(188.827188 20.88) scale(0.12 -0.12)">
     <use xlink:href="#DejaVuSans-66"/>
     <use xlink:href="#DejaVuSans-6c" x="35.205078"/>
     <use xlink:href="#DejaVuSans-6f" x="62.988281"/>
     <use xlink:href="#DejaVuSans-77" x="124.169922"/>
     <use xlink:href="#DejaVuSans-73" x="205.957031"/>
    </g>
   </g>
  </g>
  <g id="axes_2">
   <g id="patch_7">
    <path d="M 408.62 120.494477 
L 709.2 120.494477 
L 709.2 26.88 
L 408.62 26.88 
z
" style="fill: #ffffff"/>
   </g>
   <g id="matplotlib.axis_3">
    <g id="xtick_8">
     <g id="line2d_13">
      <g>
       <use xlink:href="#m66d8d66350" x="422.282727" y="120.494477" style="stroke: #000000; stroke-width: 0.8"/>
      </g>
     </g>
    </g>
    <g id="xtick_9">
     <g id="line2d_14">
      <g>
       <use xlink:href="#m66d8d66350" x="464.33282" y="120.494477" style="stroke: #000000; stroke-width: 0.8"/>
      </g>
     </g>
    </g>
    <g id="xtick_10">
     <g id="line2d_15">
      <g>
       <use xlink:href="#m66d8d66350" x="506.382913" y="120.494477" style="stroke: #000000; stroke-width: 0.8"/>
      </g>
     </g>
    </g>
    <g id="xtick_11">
     <g id="line2d_16">
      <g>
       <use xlink:href="#m66d8d66350" x="548.433005" y="120.494477" style="stroke: #000000; stroke-width: 0.8"/>
      </g>
     </g>
    </g>
    <g id="xtick_12">
     <g id="line2d_17">
      <g>
       <use xlink:href="#m66d8d66350" x="590.483098" y="120.494477" style="stroke: #000000; stroke-width: 0.8"/>
      </g>
     </g>
    </g>
    <g id="xtick_13">
     <g id="line2d_18">
      <g>
       <use xlink:href="#m66d8d66350" x="632.533191" y="120.494477" style="stroke: #000000; stroke-width: 0.8"/>
      </g>
     </g>
    </g>
    <g id="xtick_14">
     <g id="line2d_19">
      <g>
       <use xlink:href="#m66d8d66350" x="674.583283" y="120.494477" style="stroke: #000000; stroke-width: 0.8"/>
      </g>
     </g>
    </g>
    <g id="text_9">
     <!-- time -->
     <g transform="translate(547.613906 139.092915) scale(0.1 -0.1)">
      <use xlink:href="#DejaVuSans-74"/>
      <use xlink:href="#DejaVuSans-69" x="39.208984"/>
      <use xlink:href="#DejaVuSans-6d" x="66.992188"/>
      <use xlink:href="#DejaVuSans-65" x="164.404297"/>
     </g>
    </g>
   </g>
   <g id="matplotlib.axis_4">
    <g id="ytick_5">
     <g id="line2d_20">
      <g>
       <use xlink:href="#mbd0ad75ff3" x="408.62" y="116.239274" style="stroke: #000000; stroke-width: 0.8"/>
      </g>
     </g>
     <g id="text_10">
      <!-- 0.00 -->
      <g transform="translate(379.354375 120.038492) scale(0.1 -0.1)">
       <use xlink:href="#DejaVuSans-30"/>
       <use xlink:href="#DejaVuSans-2e" x="63.623047"/>
       <use xlink:href="#DejaVuSans-30" x="95.410156"/>
       <use xlink:href="#DejaVuSans-30" x="159.033203"/>
      </g>
     </g>
    </g>
    <g id="ytick_6">
     <g id="line2d_21">
      <g>
       <use xlink:href="#mbd0ad75ff3" x="408.62" y="90.580307" style="stroke: #000000; stroke-width: 0.8"/>
      </g>
     </g>
     <g id="text_11">
      <!-- 0.05 -->
      <g transform="translate(379.354375 94.379526) scale(0.1 -0.1)">
       <defs>
        <path id="DejaVuSans-35" d="M 691 4666 
L 3169 4666 
L 3169 4134 
L 1269 4134 
L 1269 2991 
Q 1406 3038 1543 3061 
Q 1681 3084 1819 3084 
Q 2600 3084 3056 2656 
Q 3513 2228 3513 1497 
Q 3513 744 3044 326 
Q 2575 -91 1722 -91 
Q 1428 -91 1123 -41 
Q 819 9 494 109 
L 494 744 
Q 775 591 1075 516 
Q 1375 441 1709 441 
Q 2250 441 2565 725 
Q 2881 1009 2881 1497 
Q 2881 1984 2565 2268 
Q 2250 2553 1709 2553 
Q 1456 2553 1204 2497 
Q 953 2441 691 2322 
L 691 4666 
z
" transform="scale(0.015625)"/>
       </defs>
       <use xlink:href="#DejaVuSans-30"/>
       <use xlink:href="#DejaVuSans-2e" x="63.623047"/>
       <use xlink:href="#DejaVuSans-30" x="95.410156"/>
       <use xlink:href="#DejaVuSans-35" x="159.033203"/>
      </g>
     </g>
    </g>
    <g id="ytick_7">
     <g id="line2d_22">
      <g>
       <use xlink:href="#mbd0ad75ff3" x="408.62" y="64.921341" style="stroke: #000000; stroke-width: 0.8"/>
      </g>
     </g>
     <g id="text_12">
      <!-- 0.10 -->
      <g transform="translate(379.354375 68.72056) scale(0.1 -0.1)">
       <use xlink:href="#DejaVuSans-30"/>
       <use xlink:href="#DejaVuSans-2e" x="63.623047"/>
       <use xlink:href="#DejaVuSans-31" x="95.410156"/>
       <use xlink:href="#DejaVuSans-30" x="159.033203"/>
      </g>
     </g>
    </g>
    <g id="ytick_8">
     <g id="line2d_23">
      <g>
       <use xlink:href="#mbd0ad75ff3" x="408.62" y="39.262375" style="stroke: #000000; stroke-width: 0.8"/>
      </g>
     </g>
     <g id="text_13">
      <!-- 0.15 -->
      <g transform="translate(379.354375 43.061593) scale(0.1 -0.1)">
       <use xlink:href="#DejaVuSans-30"/>
       <use xlink:href="#DejaVuSans-2e" x="63.623047"/>
       <use xlink:href="#DejaVuSans-31" x="95.410156"/>
       <use xlink:href="#DejaVuSans-35" x="159.033203"/>
      </g>
     </g>
    </g>
    <g id="text_14">
     <!-- depth (m) -->
     <g transform="translate(373.274687 98.602082) rotate(-90) scale(0.1 -0.1)">
      <defs>
       <path id="DejaVuSans-64" d="M 2906 2969 
L 2906 4863 
L 3481 4863 
L 3481 0 
L 2906 0 
L 2906 525 
Q 2725 213 2448 61 
Q 2172 -91 1784 -91 
Q 1150 -91 751 415 
Q 353 922 353 1747 
Q 353 2572 751 3078 
Q 1150 3584 1784 3584 
Q 2172 3584 2448 3432 
Q 2725 3281 2906 2969 
z
M 947 1747 
Q 947 1113 1208 752 
Q 1469 391 1925 391 
Q 2381 391 2643 752 
Q 2906 1113 2906 1747 
Q 2906 2381 2643 2742 
Q 2381 3103 1925 3103 
Q 1469 3103 1208 2742 
Q 947 2381 947 1747 
z
" transform="scale(0.015625)"/>
       <path id="DejaVuSans-70" d="M 1159 525 
L 1159 -1331 
L 581 -1331 
L 581 3500 
L 1159 3500 
L 1159 2969 
Q 1341 3281 1617 3432 
Q 1894 3584 2278 3584 
Q 2916 3584 3314 3078 
Q 3713 2572 3713 1747 
Q 3713 922 3314 415 
Q 2916 -91 2278 -91 
Q 1894 -91 1617 61 
Q 1341 213 1159 525 
z
M 3116 1747 
Q 3116 2381 2855 2742 
Q 2594 3103 2138 3103 
Q 1681 3103 1420 2742 
Q 1159 2381 1159 1747 
Q 1159 1113 1420 752 
Q 1681 391 2138 391 
Q 2594 391 2855 752 
Q 3116 1113 3116 1747 
z
" transform="scale(0.015625)"/>
       <path id="DejaVuSans-68" d="M 3513 2113 
L 3513 0 
L 2938 0 
L 2938 2094 
Q 2938 2591 2744 2837 
Q 2550 3084 2163 3084 
Q 1697 3084 1428 2787 
Q 1159 2491 1159 1978 
L 1159 0 
L 581 0 
L 581 4863 
L 1159 4863 
L 1159 2956 
Q 1366 3272 1645 3428 
Q 1925 3584 2291 3584 
Q 2894 3584 3203 3211 
Q 3513 2838 3513 2113 
z
" transform="scale(0.015625)"/>
      </defs>
      <use xlink:href="#DejaVuSans-64"/>
      <use xlink:href="#DejaVuSans-65" x="63.476562"/>
      <use xlink:href="#DejaVuSans-70" x="125"/>
      <use xlink:href="#DejaVuSans-74" x="188.476562"/>
      <use xlink:href="#DejaVuSans-68" x="227.685547"/>
      <use xlink:href="#DejaVuSans-20" x="291.064453"/>
      <use xlink:href="#DejaVuSans-28" x="322.851562"/>
      <use xlink:href="#DejaVuSans-6d" x="361.865234"/>
      <use xlink:href="#DejaVuSans-29" x="459.277344"/>
     </g>
    </g>
   </g>
   <g id="line2d_24">
    <path d="M 422.282727 116.239274 
L 426.2843 116.139417 
L 426.634717 115.753512 
L 426.985135 114.958274 
L 427.510761 113.037966 
L 428.688553 107.29272 
L 429.845904 101.124468 
L 430.666464 93.898458 
L 432.045746 82.416269 
L 433.687842 70.223397 
L 434.718653 61.546885 
L 435.708582 55.215119 
L 436.568078 50.950214 
L 437.543407 47.426639 
L 438.947997 43.161529 
L 440.767247 38.097804 
L 443.409005 31.165036 
L 443.530678 31.155537 
L 443.774023 31.554764 
L 445.484255 35.380132 
L 446.098459 35.95727 
L 446.71169 36.208656 
L 446.896632 36.285702 
L 447.080601 36.746251 
L 447.574106 38.959506 
L 448.693495 43.839014 
L 449.573432 46.534959 
L 450.649019 49.488568 
L 451.739207 56.01054 
L 452.849835 61.634389 
L 454.043201 66.339827 
L 455.933509 72.70501 
L 457.227133 76.233014 
L 459.055144 80.425897 
L 460.992174 84.196012 
L 463.020701 87.626591 
L 465.14754 90.80669 
L 468.305191 94.951515 
L 471.391785 98.480296 
L 473.676312 100.828783 
L 476.364792 103.345072 
L 477.965032 104.565835 
L 481.235594 106.784743 
L 485.118414 109.176417 
L 489.501552 111.584619 
L 493.115719 113.312874 
L 495.800306 114.379028 
L 497.726628 114.928345 
L 499.478716 115.170222 
L 502.720077 115.35643 
L 511.2177 115.555593 
L 532.155142 115.805493 
L 568.948973 115.997398 
L 643.938305 116.129196 
L 695.537273 116.164329 
L 695.537273 116.164329 
" clip-path="url(#p73d534e09b)" style="fill: none; stroke: #1f77b4; stroke-width: 1.5; stroke-linecap: square"/>
   </g>
   <g id="patch_8">
    <path d="M 408.62 120.494477 
L 408.62 26.88 
" style="fill: none; stroke: #000000; stroke-width: 0.8; stroke-linejoin: miter; stroke-linecap: square"/>
   </g>
   <g id="patch_9">
    <path d="M 709.2 120.494477 
L 709.2 26.88 
" style="fill: none; stroke: #000000; stroke-width: 0.8; stroke-linejoin: miter; stroke-linecap: square"/>
   </g>
   <g id="patch_10">
    <path d="M 408.62 120.494477 
L 709.2 120.494477 
" style="fill: none; stroke: #000000; stroke-width: 0.8; stroke-linejoin: miter; stroke-linecap: square"/>
   </g>
   <g id="patch_11">
    <path d="M 408.62 26.88 
L 709.2 26.88 
" style="fill: none; stroke: #000000; stroke-width: 0.8; stroke-linejoin: miter; stroke-linecap: square"/>
   </g>
   <g id="text_15">
    <!-- ('P1', 'depthN') -->
    <g transform="translate(494.8579 50.371095) scale(0.1728 -0.1728)">
     <defs>
      <path id="DejaVuSans-27" d="M 1147 4666 
L 1147 2931 
L 616 2931 
L 616 4666 
L 1147 4666 
z
" transform="scale(0.015625)"/>
      <path id="DejaVuSans-50" d="M 1259 4147 
L 1259 2394 
L 2053 2394 
Q 2494 2394 2734 2622 
Q 2975 2850 2975 3272 
Q 2975 3691 2734 3919 
Q 2494 4147 2053 4147 
L 1259 4147 
z
M 628 4666 
L 2053 4666 
Q 2838 4666 3239 4311 
Q 3641 3956 3641 3272 
Q 3641 2581 3239 2228 
Q 2838 1875 2053 1875 
L 1259 1875 
L 1259 0 
L 628 0 
L 628 4666 
z
" transform="scale(0.015625)"/>
      <path id="DejaVuSans-2c" d="M 750 794 
L 1409 794 
L 1409 256 
L 897 -744 
L 494 -744 
L 750 256 
L 750 794 
z
" transform="scale(0.015625)"/>
      <path id="DejaVuSans-4e" d="M 628 4666 
L 1478 4666 
L 3547 763 
L 3547 4666 
L 4159 4666 
L 4159 0 
L 3309 0 
L 1241 3903 
L 1241 0 
L 628 0 
L 628 4666 
z
" transform="scale(0.015625)"/>
     </defs>
     <use xlink:href="#DejaVuSans-28"/>
     <use xlink:href="#DejaVuSans-27" x="39.013672"/>
     <use xlink:href="#DejaVuSans-50" x="66.503906"/>
     <use xlink:href="#DejaVuSans-31" x="126.806641"/>
     <use xlink:href="#DejaVuSans-27" x="190.429688"/>
     <use xlink:href="#DejaVuSans-2c" x="217.919922"/>
     <use xlink:href="#DejaVuSans-20" x="249.707031"/>
     <use xlink:href="#DejaVuSans-27" x="281.494141"/>
     <use xlink:href="#DejaVuSans-64" x="308.984375"/>
     <use xlink:href="#DejaVuSans-65" x="372.460938"/>
     <use xlink:href="#DejaVuSans-70" x="433.984375"/>
     <use xlink:href="#DejaVuSans-74" x="497.460938"/>
     <use xlink:href="#DejaVuSans-68" x="536.669922"/>
     <use xlink:href="#DejaVuSans-4e" x="600.048828"/>
     <use xlink:href="#DejaVuSans-27" x="674.853516"/>
     <use xlink:href="#DejaVuSans-29" x="702.34375"/>
    </g>
   </g>
   <g id="text_16">
    <!-- depths -->
    <g transform="translate(538.319687 20.88) scale(0.12 -0.12)">
     <use xlink:href="#DejaVuSans-64"/>
     <use xlink:href="#DejaVuSans-65" x="63.476562"/>
     <use xlink:href="#DejaVuSans-70" x="125"/>
     <use xlink:href="#DejaVuSans-74" x="188.476562"/>
     <use xlink:href="#DejaVuSans-68" x="227.685547"/>
     <use xlink:href="#DejaVuSans-73" x="291.064453"/>
    </g>
   </g>
  </g>
  <g id="axes_3">
   <g id="patch_12">
    <path d="M 54.02 246.04 
L 354.6 246.04 
L 354.6 152.425523 
L 54.02 152.425523 
z
" style="fill: #ffffff"/>
   </g>
   <g id="matplotlib.axis_5">
    <g id="xtick_15">
     <g id="line2d_25">
      <g>
       <use xlink:href="#m66d8d66350" x="67.682727" y="246.04" style="stroke: #000000; stroke-width: 0.8"/>
      </g>
     </g>
     <g id="text_17">
      <!-- 02-25 00 -->
      <g transform="translate(45.202259 260.638438) scale(0.1 -0.1)">
       <defs>
        <path id="DejaVuSans-2d" d="M 313 2009 
L 1997 2009 
L 1997 1497 
L 313 1497 
L 313 2009 
z
" transform="scale(0.015625)"/>
       </defs>
       <use xlink:href="#DejaVuSans-30"/>
       <use xlink:href="#DejaVuSans-32" x="63.623047"/>
       <use xlink:href="#DejaVuSans-2d" x="127.246094"/>
       <use xlink:href="#DejaVuSans-32" x="163.330078"/>
       <use xlink:href="#DejaVuSans-35" x="226.953125"/>
       <use xlink:href="#DejaVuSans-20" x="290.576172"/>
       <use xlink:href="#DejaVuSans-30" x="322.363281"/>
       <use xlink:href="#DejaVuSans-30" x="385.986328"/>
      </g>
     </g>
    </g>
    <g id="xtick_16">
     <g id="line2d_26">
      <g>
       <use xlink:href="#m66d8d66350" x="109.73282" y="246.04" style="stroke: #000000; stroke-width: 0.8"/>
      </g>
     </g>
     <g id="text_18">
      <!-- 02-25 12 -->
      <g transform="translate(87.252351 260.638438) scale(0.1 -0.1)">
       <use xlink:href="#DejaVuSans-30"/>
       <use xlink:href="#DejaVuSans-32" x="63.623047"/>
       <use xlink:href="#DejaVuSans-2d" x="127.246094"/>
       <use xlink:href="#DejaVuSans-32" x="163.330078"/>
       <use xlink:href="#DejaVuSans-35" x="226.953125"/>
       <use xlink:href="#DejaVuSans-20" x="290.576172"/>
       <use xlink:href="#DejaVuSans-31" x="322.363281"/>
       <use xlink:href="#DejaVuSans-32" x="385.986328"/>
      </g>
     </g>
    </g>
    <g id="xtick_17">
     <g id="line2d_27">
      <g>
       <use xlink:href="#m66d8d66350" x="151.782913" y="246.04" style="stroke: #000000; stroke-width: 0.8"/>
      </g>
     </g>
     <g id="text_19">
      <!-- 02-26 00 -->
      <g transform="translate(129.302444 260.638438) scale(0.1 -0.1)">
       <defs>
        <path id="DejaVuSans-36" d="M 2113 2584 
Q 1688 2584 1439 2293 
Q 1191 2003 1191 1497 
Q 1191 994 1439 701 
Q 1688 409 2113 409 
Q 2538 409 2786 701 
Q 3034 994 3034 1497 
Q 3034 2003 2786 2293 
Q 2538 2584 2113 2584 
z
M 3366 4563 
L 3366 3988 
Q 3128 4100 2886 4159 
Q 2644 4219 2406 4219 
Q 1781 4219 1451 3797 
Q 1122 3375 1075 2522 
Q 1259 2794 1537 2939 
Q 1816 3084 2150 3084 
Q 2853 3084 3261 2657 
Q 3669 2231 3669 1497 
Q 3669 778 3244 343 
Q 2819 -91 2113 -91 
Q 1303 -91 875 529 
Q 447 1150 447 2328 
Q 447 3434 972 4092 
Q 1497 4750 2381 4750 
Q 2619 4750 2861 4703 
Q 3103 4656 3366 4563 
z
" transform="scale(0.015625)"/>
       </defs>
       <use xlink:href="#DejaVuSans-30"/>
       <use xlink:href="#DejaVuSans-32" x="63.623047"/>
       <use xlink:href="#DejaVuSans-2d" x="127.246094"/>
       <use xlink:href="#DejaVuSans-32" x="163.330078"/>
       <use xlink:href="#DejaVuSans-36" x="226.953125"/>
       <use xlink:href="#DejaVuSans-20" x="290.576172"/>
       <use xlink:href="#DejaVuSans-30" x="322.363281"/>
       <use xlink:href="#DejaVuSans-30" x="385.986328"/>
      </g>
     </g>
    </g>
    <g id="xtick_18">
     <g id="line2d_28">
      <g>
       <use xlink:href="#m66d8d66350" x="193.833005" y="246.04" style="stroke: #000000; stroke-width: 0.8"/>
      </g>
     </g>
     <g id="text_20">
      <!-- 02-26 12 -->
      <g transform="translate(171.352537 260.638438) scale(0.1 -0.1)">
       <use xlink:href="#DejaVuSans-30"/>
       <use xlink:href="#DejaVuSans-32" x="63.623047"/>
       <use xlink:href="#DejaVuSans-2d" x="127.246094"/>
       <use xlink:href="#DejaVuSans-32" x="163.330078"/>
       <use xlink:href="#DejaVuSans-36" x="226.953125"/>
       <use xlink:href="#DejaVuSans-20" x="290.576172"/>
       <use xlink:href="#DejaVuSans-31" x="322.363281"/>
       <use xlink:href="#DejaVuSans-32" x="385.986328"/>
      </g>
     </g>
    </g>
    <g id="xtick_19">
     <g id="line2d_29">
      <g>
       <use xlink:href="#m66d8d66350" x="235.883098" y="246.04" style="stroke: #000000; stroke-width: 0.8"/>
      </g>
     </g>
     <g id="text_21">
      <!-- 02-27 00 -->
      <g transform="translate(213.402629 260.638438) scale(0.1 -0.1)">
       <defs>
        <path id="DejaVuSans-37" d="M 525 4666 
L 3525 4666 
L 3525 4397 
L 1831 0 
L 1172 0 
L 2766 4134 
L 525 4134 
L 525 4666 
z
" transform="scale(0.015625)"/>
       </defs>
       <use xlink:href="#DejaVuSans-30"/>
       <use xlink:href="#DejaVuSans-32" x="63.623047"/>
       <use xlink:href="#DejaVuSans-2d" x="127.246094"/>
       <use xlink:href="#DejaVuSans-32" x="163.330078"/>
       <use xlink:href="#DejaVuSans-37" x="226.953125"/>
       <use xlink:href="#DejaVuSans-20" x="290.576172"/>
       <use xlink:href="#DejaVuSans-30" x="322.363281"/>
       <use xlink:href="#DejaVuSans-30" x="385.986328"/>
      </g>
     </g>
    </g>
    <g id="xtick_20">
     <g id="line2d_30">
      <g>
       <use xlink:href="#m66d8d66350" x="277.933191" y="246.04" style="stroke: #000000; stroke-width: 0.8"/>
      </g>
     </g>
     <g id="text_22">
      <!-- 02-27 12 -->
      <g transform="translate(255.452722 260.638438) scale(0.1 -0.1)">
       <use xlink:href="#DejaVuSans-30"/>
       <use xlink:href="#DejaVuSans-32" x="63.623047"/>
       <use xlink:href="#DejaVuSans-2d" x="127.246094"/>
       <use xlink:href="#DejaVuSans-32" x="163.330078"/>
       <use xlink:href="#DejaVuSans-37" x="226.953125"/>
       <use xlink:href="#DejaVuSans-20" x="290.576172"/>
       <use xlink:href="#DejaVuSans-31" x="322.363281"/>
       <use xlink:href="#DejaVuSans-32" x="385.986328"/>
      </g>
     </g>
    </g>
    <g id="xtick_21">
     <g id="line2d_31">
      <g>
       <use xlink:href="#m66d8d66350" x="319.983283" y="246.04" style="stroke: #000000; stroke-width: 0.8"/>
      </g>
     </g>
     <g id="text_23">
      <!-- 02-28 00 -->
      <g transform="translate(297.502815 260.638438) scale(0.1 -0.1)">
       <defs>
        <path id="DejaVuSans-38" d="M 2034 2216 
Q 1584 2216 1326 1975 
Q 1069 1734 1069 1313 
Q 1069 891 1326 650 
Q 1584 409 2034 409 
Q 2484 409 2743 651 
Q 3003 894 3003 1313 
Q 3003 1734 2745 1975 
Q 2488 2216 2034 2216 
z
M 1403 2484 
Q 997 2584 770 2862 
Q 544 3141 544 3541 
Q 544 4100 942 4425 
Q 1341 4750 2034 4750 
Q 2731 4750 3128 4425 
Q 3525 4100 3525 3541 
Q 3525 3141 3298 2862 
Q 3072 2584 2669 2484 
Q 3125 2378 3379 2068 
Q 3634 1759 3634 1313 
Q 3634 634 3220 271 
Q 2806 -91 2034 -91 
Q 1263 -91 848 271 
Q 434 634 434 1313 
Q 434 1759 690 2068 
Q 947 2378 1403 2484 
z
M 1172 3481 
Q 1172 3119 1398 2916 
Q 1625 2713 2034 2713 
Q 2441 2713 2670 2916 
Q 2900 3119 2900 3481 
Q 2900 3844 2670 4047 
Q 2441 4250 2034 4250 
Q 1625 4250 1398 4047 
Q 1172 3844 1172 3481 
z
" transform="scale(0.015625)"/>
       </defs>
       <use xlink:href="#DejaVuSans-30"/>
       <use xlink:href="#DejaVuSans-32" x="63.623047"/>
       <use xlink:href="#DejaVuSans-2d" x="127.246094"/>
       <use xlink:href="#DejaVuSans-32" x="163.330078"/>
       <use xlink:href="#DejaVuSans-38" x="226.953125"/>
       <use xlink:href="#DejaVuSans-20" x="290.576172"/>
       <use xlink:href="#DejaVuSans-30" x="322.363281"/>
       <use xlink:href="#DejaVuSans-30" x="385.986328"/>
      </g>
     </g>
    </g>
    <g id="text_24">
     <!-- time -->
     <g transform="translate(193.013906 274.316563) scale(0.1 -0.1)">
      <use xlink:href="#DejaVuSans-74"/>
      <use xlink:href="#DejaVuSans-69" x="39.208984"/>
      <use xlink:href="#DejaVuSans-6d" x="66.992188"/>
      <use xlink:href="#DejaVuSans-65" x="164.404297"/>
     </g>
    </g>
   </g>
   <g id="matplotlib.axis_6">
    <g id="ytick_9">
     <g id="line2d_32">
      <g>
       <use xlink:href="#mbd0ad75ff3" x="54.02" y="241.784796" style="stroke: #000000; stroke-width: 0.8"/>
      </g>
     </g>
     <g id="text_25">
      <!-- 0.0 -->
      <g transform="translate(31.116875 245.584015) scale(0.1 -0.1)">
       <use xlink:href="#DejaVuSans-30"/>
       <use xlink:href="#DejaVuSans-2e" x="63.623047"/>
       <use xlink:href="#DejaVuSans-30" x="95.410156"/>
      </g>
     </g>
    </g>
    <g id="ytick_10">
     <g id="line2d_33">
      <g>
       <use xlink:href="#mbd0ad75ff3" x="54.02" y="200.784378" style="stroke: #000000; stroke-width: 0.8"/>
      </g>
     </g>
     <g id="text_26">
      <!-- 0.1 -->
      <g transform="translate(31.116875 204.583596) scale(0.1 -0.1)">
       <use xlink:href="#DejaVuSans-30"/>
       <use xlink:href="#DejaVuSans-2e" x="63.623047"/>
       <use xlink:href="#DejaVuSans-31" x="95.410156"/>
      </g>
     </g>
    </g>
    <g id="ytick_11">
     <g id="line2d_34">
      <g>
       <use xlink:href="#mbd0ad75ff3" x="54.02" y="159.783959" style="stroke: #000000; stroke-width: 0.8"/>
      </g>
     </g>
     <g id="text_27">
      <!-- 0.2 -->
      <g transform="translate(31.116875 163.583177) scale(0.1 -0.1)">
       <use xlink:href="#DejaVuSans-30"/>
       <use xlink:href="#DejaVuSans-2e" x="63.623047"/>
       <use xlink:href="#DejaVuSans-32" x="95.410156"/>
      </g>
     </g>
    </g>
    <g id="text_28">
     <!-- flow (cms) -->
     <g transform="translate(25.037188 225.245261) rotate(-90) scale(0.1 -0.1)">
      <use xlink:href="#DejaVuSans-66"/>
      <use xlink:href="#DejaVuSans-6c" x="35.205078"/>
      <use xlink:href="#DejaVuSans-6f" x="62.988281"/>
      <use xlink:href="#DejaVuSans-77" x="124.169922"/>
      <use xlink:href="#DejaVuSans-20" x="205.957031"/>
      <use xlink:href="#DejaVuSans-28" x="237.744141"/>
      <use xlink:href="#DejaVuSans-63" x="276.757812"/>
      <use xlink:href="#DejaVuSans-6d" x="331.738281"/>
      <use xlink:href="#DejaVuSans-73" x="429.150391"/>
      <use xlink:href="#DejaVuSans-29" x="481.25"/>
     </g>
    </g>
   </g>
   <g id="line2d_35">
    <path d="M 67.682727 241.784796 
L 73.261178 241.693182 
L 73.814059 241.450929 
L 74.281282 241.02148 
L 74.814696 240.168581 
L 75.245904 238.954575 
L 75.704366 236.840566 
L 76.210525 233.316022 
L 76.885079 226.712131 
L 78.305243 209.293238 
L 78.961302 199.645725 
L 79.520023 187.647065 
L 79.940524 184.659811 
L 80.059277 184.44381 
L 80.569329 180.98942 
L 80.636492 181.081291 
L 81.108582 177.962642 
L 81.174772 178.01612 
L 81.241935 177.884037 
L 81.441479 176.366028 
L 81.507669 176.586423 
L 82.034268 173.825336 
L 82.099485 174.003653 
L 82.620244 171.552504 
L 82.684487 171.789041 
L 83.20038 169.654679 
L 83.264623 169.892654 
L 83.457352 168.625008 
L 83.520622 168.945375 
L 83.584865 168.939438 
L 83.776622 167.845773 
L 83.839891 168.206972 
L 83.904135 167.998754 
L 84.030674 167.101953 
L 84.094917 167.303188 
L 84.158187 167.411032 
L 84.347997 166.295783 
L 84.411266 166.72514 
L 84.474536 166.630719 
L 84.601076 165.810681 
L 84.664346 165.864858 
L 84.727616 166.08249 
L 84.916452 164.982298 
L 84.979721 165.314003 
L 85.042018 165.363295 
L 85.230854 164.432653 
L 85.29315 164.827738 
L 85.35642 164.70124 
L 85.481013 163.924921 
L 85.543309 164.006383 
L 85.606579 164.260611 
L 85.793469 163.257029 
L 85.855765 163.590061 
L 85.918061 163.661641 
L 86.104951 162.689567 
L 86.167247 163.14407 
L 86.229544 163.089159 
L 86.353163 162.380563 
L 86.41546 162.468568 
L 86.477756 162.734052 
L 86.539079 162.542712 
L 86.663672 161.805164 
L 86.787291 162.252679 
L 86.972234 161.282723 
L 87.095853 161.75144 
L 87.280796 160.956368 
L 87.342119 161.369282 
L 87.403442 161.281228 
L 87.526088 160.61223 
L 87.587411 160.720678 
L 87.648734 161.013884 
L 87.710057 160.85535 
L 87.832703 160.175457 
L 87.955349 160.633437 
L 88.139319 159.742524 
L 88.260991 160.220504 
L 88.443987 159.490999 
L 88.50531 159.91155 
L 88.56566 159.865304 
L 88.748656 159.237185 
L 88.809005 159.589848 
L 88.870328 159.492905 
L 88.991028 158.91461 
L 89.052351 159.144018 
L 89.1127 159.374608 
L 89.174023 159.235309 
L 89.295696 158.681787 
L 89.417369 159.137297 
L 89.600365 158.47484 
L 89.722037 158.887907 
L 89.905033 158.366241 
L 89.966356 158.694025 
L 90.026706 158.681469 
L 90.210675 158.247144 
L 90.271998 158.511199 
L 90.333321 158.4486 
L 90.454994 158.023377 
L 90.516317 158.189361 
L 90.57764 158.360287 
L 90.638963 158.255347 
L 90.761609 157.84891 
L 90.884255 158.187077 
L 91.068224 157.688879 
L 91.190871 157.993004 
L 91.37484 157.636219 
L 91.436163 157.875911 
L 91.498459 157.832326 
L 91.621105 157.46819 
L 91.682428 157.606428 
L 91.743751 157.747569 
L 91.805074 157.652166 
L 91.927721 157.280736 
L 92.050367 157.585609 
L 92.235309 157.156106 
L 92.357955 157.446137 
L 92.541924 157.170289 
L 92.603247 157.388345 
L 92.665544 157.368843 
L 92.78819 157.094386 
L 92.850486 157.205058 
L 92.911809 157.327913 
L 92.974106 157.26872 
L 93.097725 157.015922 
L 93.221345 157.249541 
L 93.407261 157.001482 
L 93.531854 157.167088 
L 93.718743 157.004413 
L 93.843336 157.085745 
L 93.968902 156.889244 
L 94.031199 156.99934 
L 94.156765 156.996596 
L 94.281358 156.837875 
L 94.406924 156.990279 
L 94.59576 156.869667 
L 94.721326 156.931833 
L 94.847866 156.776972 
L 94.910162 156.865243 
L 95.036702 156.861411 
L 95.163242 156.760252 
L 95.289781 156.853548 
L 95.478617 156.777875 
L 95.605157 156.803964 
L 95.73267 156.680726 
L 95.79594 156.770845 
L 95.922479 156.76858 
L 96.049019 156.731881 
L 96.240775 156.779716 
L 96.368288 156.784229 
L 96.560044 156.793421 
L 97.01072 156.834453 
L 98.118429 156.930444 
L 98.513622 156.982306 
L 98.712191 157.002878 
L 99.110305 157.084323 
L 99.243658 157.192744 
L 99.377011 157.112741 
L 99.577528 157.185933 
L 99.710881 157.209792 
L 99.845208 157.285157 
L 99.979535 157.251473 
L 100.113861 157.420739 
L 100.248188 157.290273 
L 100.383488 157.469126 
L 100.450651 157.387826 
L 100.585951 157.418357 
L 100.721251 157.515244 
L 100.789388 157.411689 
L 100.857525 157.46875 
L 100.992825 157.654232 
L 101.129098 157.524259 
L 101.265372 157.751516 
L 101.401645 157.587975 
L 101.537919 157.813737 
L 101.606056 157.75585 
L 101.665432 157.662775 
L 101.733569 157.730633 
L 101.861082 157.966068 
L 101.997355 157.784746 
L 102.184244 157.997018 
L 102.243621 157.861216 
L 102.311757 157.91683 
L 102.440244 158.185827 
L 102.567757 157.973706 
L 102.755619 158.251884 
L 102.824729 158.074836 
L 102.89384 158.139465 
L 103.022326 158.436648 
L 103.141079 158.19795 
L 103.319207 158.561366 
L 103.378584 158.365038 
L 103.43796 158.326828 
L 103.617062 158.72789 
L 103.736788 158.464179 
L 103.91589 158.837811 
L 104.035616 158.613998 
L 104.214719 158.953704 
L 104.275068 158.746806 
L 104.335418 158.778602 
L 104.515494 159.14132 
L 104.57487 158.921809 
L 104.63522 158.963741 
L 104.755919 159.304287 
L 104.816269 159.261323 
L 104.876618 159.066492 
L 104.936968 159.130606 
L 105.057667 159.49296 
L 105.118017 159.374768 
L 105.178367 159.234053 
L 105.238716 159.33293 
L 105.359416 159.720659 
L 105.480115 159.424055 
L 105.662137 159.943459 
L 105.722487 159.680017 
L 105.78381 159.654098 
L 105.965832 160.165918 
L 106.026182 159.870658 
L 106.087505 159.885832 
L 106.209178 160.29096 
L 106.269528 160.251144 
L 106.330851 160.037714 
L 106.392174 160.126259 
L 106.513846 160.573169 
L 106.575169 160.433082 
L 106.636493 160.271503 
L 106.696842 160.397823 
L 106.819488 160.874262 
L 106.942134 160.529756 
L 107.126104 161.105598 
L 107.187427 160.803284 
L 107.24875 160.824288 
L 107.432719 161.37085 
L 107.494042 161.074758 
L 107.555365 161.142434 
L 107.678984 161.656699 
L 107.740307 161.515338 
L 107.802604 161.353256 
L 107.987546 162.076039 
L 108.048869 161.803649 
L 108.111166 161.720252 
L 108.296108 162.415941 
L 108.358405 162.051378 
L 108.420701 162.07955 
L 108.544321 162.645123 
L 108.606617 162.614552 
L 108.668914 162.371462 
L 108.730237 162.518278 
L 108.85483 163.147723 
L 108.917126 162.971068 
L 108.979422 162.807481 
L 109.166312 163.657928 
L 109.228608 163.272995 
L 109.290905 163.273584 
L 109.478767 164.007498 
L 109.541064 163.669748 
L 109.604334 163.809101 
L 109.728926 164.518604 
L 109.792196 164.329385 
L 109.854493 164.164112 
L 110.043329 165.147106 
L 110.105625 164.730363 
L 110.168895 164.750382 
L 110.357731 165.60451 
L 110.421001 165.247304 
L 110.484271 165.423325 
L 110.61081 166.242712 
L 110.67408 165.924695 
L 110.73735 165.85065 
L 110.927159 166.922385 
L 110.990429 166.514785 
L 111.053699 166.660848 
L 111.181212 167.545919 
L 111.244482 167.516037 
L 111.308725 167.252939 
L 111.499508 168.46954 
L 111.563751 168.037447 
L 111.627994 168.094292 
L 111.81975 169.061835 
L 111.883994 168.831493 
L 112.398913 171.168055 
L 112.463156 170.842474 
L 112.982942 173.515518 
L 113.048158 173.217194 
L 113.572811 176.185842 
L 113.639001 176.071345 
L 114.103304 179.579699 
L 114.170467 179.552452 
L 114.236657 179.665792 
L 114.708748 183.802145 
L 114.775911 183.63875 
L 115.186678 187.241894 
L 115.533202 192.273673 
L 115.854418 201.277901 
L 116.473489 208.216962 
L 117.180164 213.523171 
L 117.909227 217.335479 
L 118.797924 220.615694 
L 119.78396 223.234045 
L 120.724247 225.151183 
L 121.885491 227.036649 
L 123.177169 228.747763 
L 125.031461 230.764506 
L 127.047335 232.592996 
L 129.250098 234.29246 
L 131.503477 235.776132 
L 133.801631 237.065088 
L 136.18739 238.187094 
L 138.66854 239.137705 
L 141.54975 239.976268 
L 144.177881 240.488312 
L 147.506846 240.863313 
L 152.325086 241.162058 
L 160.03427 241.398514 
L 174.138572 241.577455 
L 204.099263 241.696999 
L 293.630918 241.763612 
L 340.937273 241.771792 
L 340.937273 241.771792 
" clip-path="url(#p3e53b15858)" style="fill: none; stroke: #1f77b4; stroke-width: 1.5; stroke-linecap: square"/>
   </g>
   <g id="patch_13">
    <path d="M 54.02 246.04 
L 54.02 152.425523 
" style="fill: none; stroke: #000000; stroke-width: 0.8; stroke-linejoin: miter; stroke-linecap: square"/>
   </g>
   <g id="patch_14">
    <path d="M 354.6 246.04 
L 354.6 152.425523 
" style="fill: none; stroke: #000000; stroke-width: 0.8; stroke-linejoin: miter; stroke-linecap: square"/>
   </g>
   <g id="patch_15">
    <path d="M 54.02 246.04 
L 354.6 246.04 
" style="fill: none; stroke: #000000; stroke-width: 0.8; stroke-linejoin: miter; stroke-linecap: square"/>
   </g>
   <g id="patch_16">
    <path d="M 54.02 152.425523 
L 354.6 152.425523 
" style="fill: none; stroke: #000000; stroke-width: 0.8; stroke-linejoin: miter; stroke-linecap: square"/>
   </g>
   <g id="text_29">
    <!-- 2 -->
    <g transform="translate(198.8128 175.916618) scale(0.1728 -0.1728)">
     <use xlink:href="#DejaVuSans-32"/>
    </g>
   </g>
  </g>
  <g id="axes_4">
   <g id="patch_17">
    <path d="M 408.62 246.04 
L 709.2 246.04 
L 709.2 152.425523 
L 408.62 152.425523 
z
" style="fill: #ffffff"/>
   </g>
   <g id="matplotlib.axis_7">
    <g id="xtick_22">
     <g id="line2d_36">
      <g>
       <use xlink:href="#m66d8d66350" x="422.282727" y="246.04" style="stroke: #000000; stroke-width: 0.8"/>
      </g>
     </g>
     <g id="text_30">
      <!-- 02-25 00 -->
      <g transform="translate(399.802259 260.638438) scale(0.1 -0.1)">
       <use xlink:href="#DejaVuSans-30"/>
       <use xlink:href="#DejaVuSans-32" x="63.623047"/>
       <use xlink:href="#DejaVuSans-2d" x="127.246094"/>
       <use xlink:href="#DejaVuSans-32" x="163.330078"/>
       <use xlink:href="#DejaVuSans-35" x="226.953125"/>
       <use xlink:href="#DejaVuSans-20" x="290.576172"/>
       <use xlink:href="#DejaVuSans-30" x="322.363281"/>
       <use xlink:href="#DejaVuSans-30" x="385.986328"/>
      </g>
     </g>
    </g>
    <g id="xtick_23">
     <g id="line2d_37">
      <g>
       <use xlink:href="#m66d8d66350" x="464.33282" y="246.04" style="stroke: #000000; stroke-width: 0.8"/>
      </g>
     </g>
     <g id="text_31">
      <!-- 02-25 12 -->
      <g transform="translate(441.852351 260.638438) scale(0.1 -0.1)">
       <use xlink:href="#DejaVuSans-30"/>
       <use xlink:href="#DejaVuSans-32" x="63.623047"/>
       <use xlink:href="#DejaVuSans-2d" x="127.246094"/>
       <use xlink:href="#DejaVuSans-32" x="163.330078"/>
       <use xlink:href="#DejaVuSans-35" x="226.953125"/>
       <use xlink:href="#DejaVuSans-20" x="290.576172"/>
       <use xlink:href="#DejaVuSans-31" x="322.363281"/>
       <use xlink:href="#DejaVuSans-32" x="385.986328"/>
      </g>
     </g>
    </g>
    <g id="xtick_24">
     <g id="line2d_38">
      <g>
       <use xlink:href="#m66d8d66350" x="506.382913" y="246.04" style="stroke: #000000; stroke-width: 0.8"/>
      </g>
     </g>
     <g id="text_32">
      <!-- 02-26 00 -->
      <g transform="translate(483.902444 260.638438) scale(0.1 -0.1)">
       <use xlink:href="#DejaVuSans-30"/>
       <use xlink:href="#DejaVuSans-32" x="63.623047"/>
       <use xlink:href="#DejaVuSans-2d" x="127.246094"/>
       <use xlink:href="#DejaVuSans-32" x="163.330078"/>
       <use xlink:href="#DejaVuSans-36" x="226.953125"/>
       <use xlink:href="#DejaVuSans-20" x="290.576172"/>
       <use xlink:href="#DejaVuSans-30" x="322.363281"/>
       <use xlink:href="#DejaVuSans-30" x="385.986328"/>
      </g>
     </g>
    </g>
    <g id="xtick_25">
     <g id="line2d_39">
      <g>
       <use xlink:href="#m66d8d66350" x="548.433005" y="246.04" style="stroke: #000000; stroke-width: 0.8"/>
      </g>
     </g>
     <g id="text_33">
      <!-- 02-26 12 -->
      <g transform="translate(525.952537 260.638438) scale(0.1 -0.1)">
       <use xlink:href="#DejaVuSans-30"/>
       <use xlink:href="#DejaVuSans-32" x="63.623047"/>
       <use xlink:href="#DejaVuSans-2d" x="127.246094"/>
       <use xlink:href="#DejaVuSans-32" x="163.330078"/>
       <use xlink:href="#DejaVuSans-36" x="226.953125"/>
       <use xlink:href="#DejaVuSans-20" x="290.576172"/>
       <use xlink:href="#DejaVuSans-31" x="322.363281"/>
       <use xlink:href="#DejaVuSans-32" x="385.986328"/>
      </g>
     </g>
    </g>
    <g id="xtick_26">
     <g id="line2d_40">
      <g>
       <use xlink:href="#m66d8d66350" x="590.483098" y="246.04" style="stroke: #000000; stroke-width: 0.8"/>
      </g>
     </g>
     <g id="text_34">
      <!-- 02-27 00 -->
      <g transform="translate(568.002629 260.638438) scale(0.1 -0.1)">
       <use xlink:href="#DejaVuSans-30"/>
       <use xlink:href="#DejaVuSans-32" x="63.623047"/>
       <use xlink:href="#DejaVuSans-2d" x="127.246094"/>
       <use xlink:href="#DejaVuSans-32" x="163.330078"/>
       <use xlink:href="#DejaVuSans-37" x="226.953125"/>
       <use xlink:href="#DejaVuSans-20" x="290.576172"/>
       <use xlink:href="#DejaVuSans-30" x="322.363281"/>
       <use xlink:href="#DejaVuSans-30" x="385.986328"/>
      </g>
     </g>
    </g>
    <g id="xtick_27">
     <g id="line2d_41">
      <g>
       <use xlink:href="#m66d8d66350" x="632.533191" y="246.04" style="stroke: #000000; stroke-width: 0.8"/>
      </g>
     </g>
     <g id="text_35">
      <!-- 02-27 12 -->
      <g transform="translate(610.052722 260.638438) scale(0.1 -0.1)">
       <use xlink:href="#DejaVuSans-30"/>
       <use xlink:href="#DejaVuSans-32" x="63.623047"/>
       <use xlink:href="#DejaVuSans-2d" x="127.246094"/>
       <use xlink:href="#DejaVuSans-32" x="163.330078"/>
       <use xlink:href="#DejaVuSans-37" x="226.953125"/>
       <use xlink:href="#DejaVuSans-20" x="290.576172"/>
       <use xlink:href="#DejaVuSans-31" x="322.363281"/>
       <use xlink:href="#DejaVuSans-32" x="385.986328"/>
      </g>
     </g>
    </g>
    <g id="xtick_28">
     <g id="line2d_42">
      <g>
       <use xlink:href="#m66d8d66350" x="674.583283" y="246.04" style="stroke: #000000; stroke-width: 0.8"/>
      </g>
     </g>
     <g id="text_36">
      <!-- 02-28 00 -->
      <g transform="translate(652.102815 260.638438) scale(0.1 -0.1)">
       <use xlink:href="#DejaVuSans-30"/>
       <use xlink:href="#DejaVuSans-32" x="63.623047"/>
       <use xlink:href="#DejaVuSans-2d" x="127.246094"/>
       <use xlink:href="#DejaVuSans-32" x="163.330078"/>
       <use xlink:href="#DejaVuSans-38" x="226.953125"/>
       <use xlink:href="#DejaVuSans-20" x="290.576172"/>
       <use xlink:href="#DejaVuSans-30" x="322.363281"/>
       <use xlink:href="#DejaVuSans-30" x="385.986328"/>
      </g>
     </g>
    </g>
    <g id="text_37">
     <!-- time -->
     <g transform="translate(547.613906 274.316563) scale(0.1 -0.1)">
      <use xlink:href="#DejaVuSans-74"/>
      <use xlink:href="#DejaVuSans-69" x="39.208984"/>
      <use xlink:href="#DejaVuSans-6d" x="66.992188"/>
      <use xlink:href="#DejaVuSans-65" x="164.404297"/>
     </g>
    </g>
   </g>
   <g id="matplotlib.axis_8">
    <g id="ytick_12">
     <g id="line2d_43">
      <g>
       <use xlink:href="#mbd0ad75ff3" x="408.62" y="241.784796" style="stroke: #000000; stroke-width: 0.8"/>
      </g>
     </g>
     <g id="text_38">
      <!-- 0 -->
      <g transform="translate(395.2575 245.584015) scale(0.1 -0.1)">
       <use xlink:href="#DejaVuSans-30"/>
      </g>
     </g>
    </g>
    <g id="ytick_13">
     <g id="line2d_44">
      <g>
       <use xlink:href="#mbd0ad75ff3" x="408.62" y="198.920312" style="stroke: #000000; stroke-width: 0.8"/>
      </g>
     </g>
     <g id="text_39">
      <!-- 1 -->
      <g transform="translate(395.2575 202.719531) scale(0.1 -0.1)">
       <use xlink:href="#DejaVuSans-31"/>
      </g>
     </g>
    </g>
    <g id="ytick_14">
     <g id="line2d_45">
      <g>
       <use xlink:href="#mbd0ad75ff3" x="408.62" y="156.055828" style="stroke: #000000; stroke-width: 0.8"/>
      </g>
     </g>
     <g id="text_40">
      <!-- 2 -->
      <g transform="translate(395.2575 159.855046) scale(0.1 -0.1)">
       <use xlink:href="#DejaVuSans-32"/>
      </g>
     </g>
    </g>
    <g id="text_41">
     <!-- depth (m) -->
     <g transform="translate(389.177812 224.147605) rotate(-90) scale(0.1 -0.1)">
      <use xlink:href="#DejaVuSans-64"/>
      <use xlink:href="#DejaVuSans-65" x="63.476562"/>
      <use xlink:href="#DejaVuSans-70" x="125"/>
      <use xlink:href="#DejaVuSans-74" x="188.476562"/>
      <use xlink:href="#DejaVuSans-68" x="227.685547"/>
      <use xlink:href="#DejaVuSans-20" x="291.064453"/>
      <use xlink:href="#DejaVuSans-28" x="322.851562"/>
      <use xlink:href="#DejaVuSans-6d" x="361.865234"/>
      <use xlink:href="#DejaVuSans-29" x="459.277344"/>
     </g>
    </g>
   </g>
   <g id="line2d_46">
    <path d="M 422.282727 241.784796 
L 426.89753 241.692657 
L 427.598365 241.42056 
L 428.342029 240.881655 
L 429.184977 239.967264 
L 429.845904 238.956187 
L 430.607088 237.280629 
L 434.964918 226.303124 
L 436.107669 222.622444 
L 437.671893 216.68591 
L 439.137806 210.35439 
L 440.580358 203.293592 
L 442.064765 195.067224 
L 446.036163 172.379667 
L 447.697725 164.805838 
L 448.568902 161.970024 
L 449.573432 159.413426 
L 450.585749 157.416235 
L 451.095801 156.87105 
L 451.545504 156.688128 
L 451.999099 156.743682 
L 452.520832 157.066316 
L 453.113622 157.721046 
L 453.843658 158.889048 
L 454.713861 160.762865 
L 455.797235 163.741645 
L 456.971134 167.630437 
L 458.336788 172.858726 
L 460.201788 180.964024 
L 462.402604 191.585493 
L 469.308748 225.930599 
L 470.203285 229.204672 
L 470.82333 230.581125 
L 471.585488 231.766395 
L 472.442064 232.705565 
L 473.467035 233.507509 
L 474.815168 234.26528 
L 476.607164 235.00591 
L 479.241135 235.845262 
L 483.268016 236.9011 
L 489.238739 238.240518 
L 495.456702 239.399827 
L 499.391111 239.927639 
L 504.121747 240.310194 
L 511.2177 240.644306 
L 522.518662 240.932452 
L 541.879226 241.178029 
L 577.884618 241.38318 
L 651.47228 241.546143 
L 695.537273 241.59309 
L 695.537273 241.59309 
" clip-path="url(#p85dd253613)" style="fill: none; stroke: #1f77b4; stroke-width: 1.5; stroke-linecap: square"/>
   </g>
   <g id="patch_18">
    <path d="M 408.62 246.04 
L 408.62 152.425523 
" style="fill: none; stroke: #000000; stroke-width: 0.8; stroke-linejoin: miter; stroke-linecap: square"/>
   </g>
   <g id="patch_19">
    <path d="M 709.2 246.04 
L 709.2 152.425523 
" style="fill: none; stroke: #000000; stroke-width: 0.8; stroke-linejoin: miter; stroke-linecap: square"/>
   </g>
   <g id="patch_20">
    <path d="M 408.62 246.04 
L 709.2 246.04 
" style="fill: none; stroke: #000000; stroke-width: 0.8; stroke-linejoin: miter; stroke-linecap: square"/>
   </g>
   <g id="patch_21">
    <path d="M 408.62 152.425523 
L 709.2 152.425523 
" style="fill: none; stroke: #000000; stroke-width: 0.8; stroke-linejoin: miter; stroke-linecap: square"/>
   </g>
   <g id="text_42">
    <!-- ('P2', 'depthN') -->
    <g transform="translate(494.8579 175.916618) scale(0.1728 -0.1728)">
     <use xlink:href="#DejaVuSans-28"/>
     <use xlink:href="#DejaVuSans-27" x="39.013672"/>
     <use xlink:href="#DejaVuSans-50" x="66.503906"/>
     <use xlink:href="#DejaVuSans-32" x="126.806641"/>
     <use xlink:href="#DejaVuSans-27" x="190.429688"/>
     <use xlink:href="#DejaVuSans-2c" x="217.919922"/>
     <use xlink:href="#DejaVuSans-20" x="249.707031"/>
     <use xlink:href="#DejaVuSans-27" x="281.494141"/>
     <use xlink:href="#DejaVuSans-64" x="308.984375"/>
     <use xlink:href="#DejaVuSans-65" x="372.460938"/>
     <use xlink:href="#DejaVuSans-70" x="433.984375"/>
     <use xlink:href="#DejaVuSans-74" x="497.460938"/>
     <use xlink:href="#DejaVuSans-68" x="536.669922"/>
     <use xlink:href="#DejaVuSans-4e" x="600.048828"/>
     <use xlink:href="#DejaVuSans-27" x="674.853516"/>
     <use xlink:href="#DejaVuSans-29" x="702.34375"/>
    </g>
   </g>
   <g id="text_43">
    <!-- cost: 5.42e+03 -->
    <g transform="translate(492.53995 204.000961) scale(0.1728 -0.1728)">
     <defs>
      <path id="DejaVuSans-3a" d="M 750 794 
L 1409 794 
L 1409 0 
L 750 0 
L 750 794 
z
M 750 3309 
L 1409 3309 
L 1409 2516 
L 750 2516 
L 750 3309 
z
" transform="scale(0.015625)"/>
      <path id="DejaVuSans-34" d="M 2419 4116 
L 825 1625 
L 2419 1625 
L 2419 4116 
z
M 2253 4666 
L 3047 4666 
L 3047 1625 
L 3713 1625 
L 3713 1100 
L 3047 1100 
L 3047 0 
L 2419 0 
L 2419 1100 
L 313 1100 
L 313 1709 
L 2253 4666 
z
" transform="scale(0.015625)"/>
      <path id="DejaVuSans-2b" d="M 2944 4013 
L 2944 2272 
L 4684 2272 
L 4684 1741 
L 2944 1741 
L 2944 0 
L 2419 0 
L 2419 1741 
L 678 1741 
L 678 2272 
L 2419 2272 
L 2419 4013 
L 2944 4013 
z
" transform="scale(0.015625)"/>
     </defs>
     <use xlink:href="#DejaVuSans-63"/>
     <use xlink:href="#DejaVuSans-6f" x="54.980469"/>
     <use xlink:href="#DejaVuSans-73" x="116.162109"/>
     <use xlink:href="#DejaVuSans-74" x="168.261719"/>
     <use xlink:href="#DejaVuSans-3a" x="207.470703"/>
     <use xlink:href="#DejaVuSans-20" x="241.162109"/>
     <use xlink:href="#DejaVuSans-35" x="272.949219"/>
     <use xlink:href="#DejaVuSans-2e" x="336.572266"/>
     <use xlink:href="#DejaVuSans-34" x="368.359375"/>
     <use xlink:href="#DejaVuSans-32" x="431.982422"/>
     <use xlink:href="#DejaVuSans-65" x="495.605469"/>
     <use xlink:href="#DejaVuSans-2b" x="557.128906"/>
     <use xlink:href="#DejaVuSans-30" x="640.917969"/>
     <use xlink:href="#DejaVuSans-33" x="704.541016"/>
    </g>
   </g>
  </g>
 </g>
 <defs>
  <clipPath id="p70535aa2e6">
   <rect x="54.02" y="26.88" width="300.58" height="93.614477"/>
  </clipPath>
  <clipPath id="p73d534e09b">
   <rect x="408.62" y="26.88" width="300.58" height="93.614477"/>
  </clipPath>
  <clipPath id="p3e53b15858">
   <rect x="54.02" y="152.425523" width="300.58" height="93.614477"/>
  </clipPath>
  <clipPath id="p85dd253613">
   <rect x="408.62" y="152.425523" width="300.58" height="93.614477"/>
  </clipPath>
 </defs>
</svg>
