<?xml version="1.0" encoding="utf-8" standalone="no"?>
<!DOCTYPE svg PUBLIC "-//W3C//DTD SVG 1.1//EN"
  "http://www.w3.org/Graphics/SVG/1.1/DTD/svg11.dtd">
<svg xmlns:xlink="http://www.w3.org/1999/xlink" width="720pt" height="720pt" viewBox="0 0 720 720" xmlns="http://www.w3.org/2000/svg" version="1.1">
 <metadata>
  <rdf:RDF xmlns:dc="http://purl.org/dc/elements/1.1/" xmlns:cc="http://creativecommons.org/ns#" xmlns:rdf="http://www.w3.org/1999/02/22-rdf-syntax-ns#">
   <cc:Work>
    <dc:type rdf:resource="http://purl.org/dc/dcmitype/StillImage"/>
    <dc:date>2025-02-27T16:55:30.968395</dc:date>
    <dc:format>image/svg+xml</dc:format>
    <dc:creator>
     <cc:Agent>
      <dc:title>Matplotlib v3.9.4, https://matplotlib.org/</dc:title>
     </cc:Agent>
    </dc:creator>
   </cc:Work>
  </rdf:RDF>
 </metadata>
 <defs>
  <style type="text/css">*{stroke-linejoin: round; stroke-linecap: butt}</style>
 </defs>
 <g id="figure_1">
  <g id="patch_1">
   <path d="M 0 720 
L 720 720 
L 720 0 
L 0 0 
z
" style="fill: #ffffff"/>
  </g>
  <g id="axes_1">
   <g id="patch_2">
    <path d="M 86.718866 249.807843 
L 377.539433 249.807843 
L 377.539433 42.12 
L 86.718866 42.12 
z
" style="fill: #ffffff"/>
   </g>
   <g id="matplotlib.axis_1"/>
   <g id="matplotlib.axis_2">
    <g id="ytick_1">
     <g id="line2d_1">
      <defs>
       <path id="m13ce562157" d="M 0 0 
L -3.5 0 
" style="stroke: #000000; stroke-width: 0.8"/>
      </defs>
      <g>
       <use xlink:href="#m13ce562157" x="86.718866" y="240.367487" style="stroke: #000000; stroke-width: 0.8"/>
      </g>
     </g>
     <g id="text_1">
      <!-- 0.0 -->
      <g transform="translate(56.818366 245.838362) scale(0.144 -0.144)">
       <defs>
        <path id="DejaVuSans-30" d="M 2034 4250 
Q 1547 4250 1301 3770 
Q 1056 3291 1056 2328 
Q 1056 1369 1301 889 
Q 1547 409 2034 409 
Q 2525 409 2770 889 
Q 3016 1369 3016 2328 
Q 3016 3291 2770 3770 
Q 2525 4250 2034 4250 
z
M 2034 4750 
Q 2819 4750 3233 4129 
Q 3647 3509 3647 2328 
Q 3647 1150 3233 529 
Q 2819 -91 2034 -91 
Q 1250 -91 836 529 
Q 422 1150 422 2328 
Q 422 3509 836 4129 
Q 1250 4750 2034 4750 
z
" transform="scale(0.015625)"/>
        <path id="DejaVuSans-2e" d="M 684 794 
L 1344 794 
L 1344 0 
L 684 0 
L 684 794 
z
" transform="scale(0.015625)"/>
       </defs>
       <use xlink:href="#DejaVuSans-30"/>
       <use xlink:href="#DejaVuSans-2e" x="63.623047"/>
       <use xlink:href="#DejaVuSans-30" x="95.410156"/>
      </g>
     </g>
    </g>
    <g id="ytick_2">
     <g id="line2d_2">
      <g>
       <use xlink:href="#m13ce562157" x="86.718866" y="202.606061" style="stroke: #000000; stroke-width: 0.8"/>
      </g>
     </g>
     <g id="text_2">
      <!-- 0.2 -->
      <g transform="translate(56.818366 208.076936) scale(0.144 -0.144)">
       <defs>
        <path id="DejaVuSans-32" d="M 1228 531 
L 3431 531 
L 3431 0 
L 469 0 
L 469 531 
Q 828 903 1448 1529 
Q 2069 2156 2228 2338 
Q 2531 2678 2651 2914 
Q 2772 3150 2772 3378 
Q 2772 3750 2511 3984 
Q 2250 4219 1831 4219 
Q 1534 4219 1204 4116 
Q 875 4013 500 3803 
L 500 4441 
Q 881 4594 1212 4672 
Q 1544 4750 1819 4750 
Q 2544 4750 2975 4387 
Q 3406 4025 3406 3419 
Q 3406 3131 3298 2873 
Q 3191 2616 2906 2266 
Q 2828 2175 2409 1742 
Q 1991 1309 1228 531 
z
" transform="scale(0.015625)"/>
       </defs>
       <use xlink:href="#DejaVuSans-30"/>
       <use xlink:href="#DejaVuSans-2e" x="63.623047"/>
       <use xlink:href="#DejaVuSans-32" x="95.410156"/>
      </g>
     </g>
    </g>
    <g id="ytick_3">
     <g id="line2d_3">
      <g>
       <use xlink:href="#m13ce562157" x="86.718866" y="164.844635" style="stroke: #000000; stroke-width: 0.8"/>
      </g>
     </g>
     <g id="text_3">
      <!-- 0.4 -->
      <g transform="translate(56.818366 170.31551) scale(0.144 -0.144)">
       <defs>
        <path id="DejaVuSans-34" d="M 2419 4116 
L 825 1625 
L 2419 1625 
L 2419 4116 
z
M 2253 4666 
L 3047 4666 
L 3047 1625 
L 3713 1625 
L 3713 1100 
L 3047 1100 
L 3047 0 
L 2419 0 
L 2419 1100 
L 313 1100 
L 313 1709 
L 2253 4666 
z
" transform="scale(0.015625)"/>
       </defs>
       <use xlink:href="#DejaVuSans-30"/>
       <use xlink:href="#DejaVuSans-2e" x="63.623047"/>
       <use xlink:href="#DejaVuSans-34" x="95.410156"/>
      </g>
     </g>
    </g>
    <g id="ytick_4">
     <g id="line2d_4">
      <g>
       <use xlink:href="#m13ce562157" x="86.718866" y="127.083209" style="stroke: #000000; stroke-width: 0.8"/>
      </g>
     </g>
     <g id="text_4">
      <!-- 0.6 -->
      <g transform="translate(56.818366 132.554084) scale(0.144 -0.144)">
       <defs>
        <path id="DejaVuSans-36" d="M 2113 2584 
Q 1688 2584 1439 2293 
Q 1191 2003 1191 1497 
Q 1191 994 1439 701 
Q 1688 409 2113 409 
Q 2538 409 2786 701 
Q 3034 994 3034 1497 
Q 3034 2003 2786 2293 
Q 2538 2584 2113 2584 
z
M 3366 4563 
L 3366 3988 
Q 3128 4100 2886 4159 
Q 2644 4219 2406 4219 
Q 1781 4219 1451 3797 
Q 1122 3375 1075 2522 
Q 1259 2794 1537 2939 
Q 1816 3084 2150 3084 
Q 2853 3084 3261 2657 
Q 3669 2231 3669 1497 
Q 3669 778 3244 343 
Q 2819 -91 2113 -91 
Q 1303 -91 875 529 
Q 447 1150 447 2328 
Q 447 3434 972 4092 
Q 1497 4750 2381 4750 
Q 2619 4750 2861 4703 
Q 3103 4656 3366 4563 
z
" transform="scale(0.015625)"/>
       </defs>
       <use xlink:href="#DejaVuSans-30"/>
       <use xlink:href="#DejaVuSans-2e" x="63.623047"/>
       <use xlink:href="#DejaVuSans-36" x="95.410156"/>
      </g>
     </g>
    </g>
    <g id="ytick_5">
     <g id="line2d_5">
      <g>
       <use xlink:href="#m13ce562157" x="86.718866" y="89.321783" style="stroke: #000000; stroke-width: 0.8"/>
      </g>
     </g>
     <g id="text_5">
      <!-- 0.8 -->
      <g transform="translate(56.818366 94.792658) scale(0.144 -0.144)">
       <defs>
        <path id="DejaVuSans-38" d="M 2034 2216 
Q 1584 2216 1326 1975 
Q 1069 1734 1069 1313 
Q 1069 891 1326 650 
Q 1584 409 2034 409 
Q 2484 409 2743 651 
Q 3003 894 3003 1313 
Q 3003 1734 2745 1975 
Q 2488 2216 2034 2216 
z
M 1403 2484 
Q 997 2584 770 2862 
Q 544 3141 544 3541 
Q 544 4100 942 4425 
Q 1341 4750 2034 4750 
Q 2731 4750 3128 4425 
Q 3525 4100 3525 3541 
Q 3525 3141 3298 2862 
Q 3072 2584 2669 2484 
Q 3125 2378 3379 2068 
Q 3634 1759 3634 1313 
Q 3634 634 3220 271 
Q 2806 -91 2034 -91 
Q 1263 -91 848 271 
Q 434 634 434 1313 
Q 434 1759 690 2068 
Q 947 2378 1403 2484 
z
M 1172 3481 
Q 1172 3119 1398 2916 
Q 1625 2713 2034 2713 
Q 2441 2713 2670 2916 
Q 2900 3119 2900 3481 
Q 2900 3844 2670 4047 
Q 2441 4250 2034 4250 
Q 1625 4250 1398 4047 
Q 1172 3844 1172 3481 
z
" transform="scale(0.015625)"/>
       </defs>
       <use xlink:href="#DejaVuSans-30"/>
       <use xlink:href="#DejaVuSans-2e" x="63.623047"/>
       <use xlink:href="#DejaVuSans-38" x="95.410156"/>
      </g>
     </g>
    </g>
    <g id="ytick_6">
     <g id="line2d_6">
      <g>
       <use xlink:href="#m13ce562157" x="86.718866" y="51.560357" style="stroke: #000000; stroke-width: 0.8"/>
      </g>
     </g>
     <g id="text_6">
      <!-- 1.0 -->
      <g transform="translate(56.818366 57.031232) scale(0.144 -0.144)">
       <defs>
        <path id="DejaVuSans-31" d="M 794 531 
L 1825 531 
L 1825 4091 
L 703 3866 
L 703 4441 
L 1819 4666 
L 2450 4666 
L 2450 531 
L 3481 531 
L 3481 0 
L 794 0 
L 794 531 
z
" transform="scale(0.015625)"/>
       </defs>
       <use xlink:href="#DejaVuSans-31"/>
       <use xlink:href="#DejaVuSans-2e" x="63.623047"/>
       <use xlink:href="#DejaVuSans-30" x="95.410156"/>
      </g>
     </g>
    </g>
    <g id="text_7">
     <!-- $m$ -->
     <g transform="translate(33.351166 142.370222) scale(0.1728 -0.1728)">
      <defs>
       <path id="DejaVuSans-Oblique-6d" d="M 5747 2113 
L 5338 0 
L 4763 0 
L 5166 2094 
Q 5191 2228 5203 2325 
Q 5216 2422 5216 2491 
Q 5216 2772 5059 2928 
Q 4903 3084 4622 3084 
Q 4203 3084 3875 2770 
Q 3547 2456 3450 1953 
L 3066 0 
L 2491 0 
L 2900 2094 
Q 2925 2209 2937 2307 
Q 2950 2406 2950 2484 
Q 2950 2769 2794 2926 
Q 2638 3084 2363 3084 
Q 1938 3084 1609 2770 
Q 1281 2456 1184 1953 
L 800 0 
L 225 0 
L 909 3500 
L 1484 3500 
L 1375 2956 
Q 1609 3263 1923 3423 
Q 2238 3584 2597 3584 
Q 2978 3584 3223 3384 
Q 3469 3184 3519 2828 
Q 3781 3197 4126 3390 
Q 4472 3584 4856 3584 
Q 5306 3584 5551 3325 
Q 5797 3066 5797 2591 
Q 5797 2488 5784 2364 
Q 5772 2241 5747 2113 
z
" transform="scale(0.015625)"/>
      </defs>
      <use xlink:href="#DejaVuSans-Oblique-6d"/>
     </g>
    </g>
   </g>
   <g id="line2d_7">
    <path d="M 99.937982 240.367487 
L 103.613886 240.344883 
L 104.17941 240.059052 
L 104.744934 239.38754 
L 106.724267 235.758797 
L 107.289791 234.30127 
L 109.551885 227.152915 
L 110.400171 224.941808 
L 111.81398 220.251135 
L 112.945028 217.578804 
L 114.076075 215.701191 
L 115.489884 213.957784 
L 118.883027 210.399528 
L 120.296836 209.07489 
L 120.579598 209.189442 
L 122.276169 210.615843 
L 123.124454 210.88413 
L 123.689978 211.008845 
L 124.255502 211.878949 
L 125.386549 213.726709 
L 126.234835 214.719576 
L 127.365882 216.004587 
L 129.345215 220.166215 
L 130.476263 221.918072 
L 131.890072 223.77462 
L 134.152167 226.110619 
L 135.848738 227.555975 
L 139.524642 230.019325 
L 143.200546 231.977481 
L 146.593688 233.519637 
L 151.966164 235.565253 
L 155.642068 236.579766 
L 160.731781 237.793467 
L 169.78016 239.515848 
L 173.173303 239.909048 
L 177.41473 240.039015 
L 196.077013 240.170447 
L 255.457002 240.293089 
L 364.320316 240.339897 
L 364.320316 240.339897 
" clip-path="url(#p60da4440d8)" style="fill: none; stroke: #0000ff; stroke-opacity: 0.6; stroke-width: 3; stroke-linecap: square"/>
   </g>
   <g id="line2d_8">
    <path d="M 99.937982 240.367487 
L 103.613886 240.344883 
L 104.17941 240.059052 
L 104.744934 239.38754 
L 106.724267 235.764732 
L 107.572552 233.54587 
L 108.7036 230.395038 
L 109.834647 228.20106 
L 110.400171 227.079565 
L 111.81398 223.581814 
L 113.227789 221.326736 
L 114.076075 220.416716 
L 115.207122 219.42691 
L 117.186455 217.890575 
L 120.014074 215.843855 
L 120.296836 215.724777 
L 120.86236 216.109071 
L 121.710645 216.708737 
L 122.558931 217.005153 
L 123.689978 217.174608 
L 124.538264 218.262745 
L 125.386549 219.24261 
L 126.234835 219.922741 
L 127.08312 220.492222 
L 127.648644 221.384113 
L 128.49693 222.813974 
L 129.627977 224.263138 
L 131.324548 226.048876 
L 133.586643 227.896193 
L 135.848738 229.325226 
L 138.110833 230.521855 
L 140.372927 231.582484 
L 146.310926 233.839893 
L 149.986831 235.018287 
L 156.207591 236.725346 
L 165.538733 238.782351 
L 171.476731 239.742602 
L 174.021588 239.952516 
L 178.82854 240.057165 
L 203.994345 240.200754 
L 263.939858 240.300295 
L 364.320316 240.339898 
L 364.320316 240.339898 
" clip-path="url(#p60da4440d8)" style="fill: none; stroke: #000000; stroke-opacity: 0.6; stroke-width: 3; stroke-linecap: square"/>
   </g>
   <g id="line2d_9">
    <path d="M 99.937982 240.367487 
L 103.613886 240.344883 
L 104.17941 240.059052 
L 104.744934 239.38754 
L 106.724267 235.758797 
L 107.572552 233.525674 
L 109.551885 228.078792 
L 110.400171 225.906445 
L 111.81398 221.579592 
L 112.662266 219.51894 
L 113.510551 217.891778 
L 114.358837 216.719273 
L 116.33817 214.529072 
L 120.296836 210.703834 
L 120.579598 210.816285 
L 121.993407 212.063022 
L 122.841693 212.412202 
L 123.689978 212.600116 
L 124.255502 213.410423 
L 125.103787 214.822803 
L 125.952073 215.889805 
L 127.365882 217.455058 
L 129.062453 220.97752 
L 130.193501 222.701414 
L 131.890072 224.90853 
L 134.152167 227.133784 
L 137.545309 229.648516 
L 141.221213 231.732818 
L 144.048832 233.043175 
L 151.40064 235.42778 
L 155.924829 236.647467 
L 161.014543 237.853311 
L 165.255971 238.728183 
L 169.78016 239.514359 
L 173.173303 239.908396 
L 177.41473 240.038867 
L 196.077013 240.170404 
L 255.457002 240.29308 
L 364.320316 240.339895 
L 364.320316 240.339895 
" clip-path="url(#p60da4440d8)" style="fill: none; stroke: #008000; stroke-opacity: 0.6; stroke-width: 3; stroke-linecap: square"/>
   </g>
   <g id="line2d_10">
    <path d="M 86.718866 51.560357 
L 377.539433 51.560357 
" clip-path="url(#p60da4440d8)" style="fill: none; stroke-dasharray: 11.1,4.8; stroke-dashoffset: 0; stroke: #ff0000; stroke-width: 3"/>
   </g>
   <g id="patch_3">
    <path d="M 86.718866 249.807843 
L 86.718866 42.12 
" style="fill: none; stroke: #000000; stroke-width: 0.8; stroke-linejoin: miter; stroke-linecap: square"/>
   </g>
   <g id="patch_4">
    <path d="M 377.539433 249.807843 
L 377.539433 42.12 
" style="fill: none; stroke: #000000; stroke-width: 0.8; stroke-linejoin: miter; stroke-linecap: square"/>
   </g>
   <g id="patch_5">
    <path d="M 86.718866 249.807843 
L 377.539433 249.807843 
" style="fill: none; stroke: #000000; stroke-width: 0.8; stroke-linejoin: miter; stroke-linecap: square"/>
   </g>
   <g id="patch_6">
    <path d="M 86.718866 42.12 
L 377.539433 42.12 
" style="fill: none; stroke: #000000; stroke-width: 0.8; stroke-linejoin: miter; stroke-linecap: square"/>
   </g>
   <g id="text_8">
    <!-- Depth in P1 -->
    <g transform="translate(181.737699 77.657569) scale(0.1728 -0.1728)">
     <defs>
      <path id="DejaVuSans-44" d="M 1259 4147 
L 1259 519 
L 2022 519 
Q 2988 519 3436 956 
Q 3884 1394 3884 2338 
Q 3884 3275 3436 3711 
Q 2988 4147 2022 4147 
L 1259 4147 
z
M 628 4666 
L 1925 4666 
Q 3281 4666 3915 4102 
Q 4550 3538 4550 2338 
Q 4550 1131 3912 565 
Q 3275 0 1925 0 
L 628 0 
L 628 4666 
z
" transform="scale(0.015625)"/>
      <path id="DejaVuSans-65" d="M 3597 1894 
L 3597 1613 
L 953 1613 
Q 991 1019 1311 708 
Q 1631 397 2203 397 
Q 2534 397 2845 478 
Q 3156 559 3463 722 
L 3463 178 
Q 3153 47 2828 -22 
Q 2503 -91 2169 -91 
Q 1331 -91 842 396 
Q 353 884 353 1716 
Q 353 2575 817 3079 
Q 1281 3584 2069 3584 
Q 2775 3584 3186 3129 
Q 3597 2675 3597 1894 
z
M 3022 2063 
Q 3016 2534 2758 2815 
Q 2500 3097 2075 3097 
Q 1594 3097 1305 2825 
Q 1016 2553 972 2059 
L 3022 2063 
z
" transform="scale(0.015625)"/>
      <path id="DejaVuSans-70" d="M 1159 525 
L 1159 -1331 
L 581 -1331 
L 581 3500 
L 1159 3500 
L 1159 2969 
Q 1341 3281 1617 3432 
Q 1894 3584 2278 3584 
Q 2916 3584 3314 3078 
Q 3713 2572 3713 1747 
Q 3713 922 3314 415 
Q 2916 -91 2278 -91 
Q 1894 -91 1617 61 
Q 1341 213 1159 525 
z
M 3116 1747 
Q 3116 2381 2855 2742 
Q 2594 3103 2138 3103 
Q 1681 3103 1420 2742 
Q 1159 2381 1159 1747 
Q 1159 1113 1420 752 
Q 1681 391 2138 391 
Q 2594 391 2855 752 
Q 3116 1113 3116 1747 
z
" transform="scale(0.015625)"/>
      <path id="DejaVuSans-74" d="M 1172 4494 
L 1172 3500 
L 2356 3500 
L 2356 3053 
L 1172 3053 
L 1172 1153 
Q 1172 725 1289 603 
Q 1406 481 1766 481 
L 2356 481 
L 2356 0 
L 1766 0 
Q 1100 0 847 248 
Q 594 497 594 1153 
L 594 3053 
L 172 3053 
L 172 3500 
L 594 3500 
L 594 4494 
L 1172 4494 
z
" transform="scale(0.015625)"/>
      <path id="DejaVuSans-68" d="M 3513 2113 
L 3513 0 
L 2938 0 
L 2938 2094 
Q 2938 2591 2744 2837 
Q 2550 3084 2163 3084 
Q 1697 3084 1428 2787 
Q 1159 2491 1159 1978 
L 1159 0 
L 581 0 
L 581 4863 
L 1159 4863 
L 1159 2956 
Q 1366 3272 1645 3428 
Q 1925 3584 2291 3584 
Q 2894 3584 3203 3211 
Q 3513 2838 3513 2113 
z
" transform="scale(0.015625)"/>
      <path id="DejaVuSans-20" transform="scale(0.015625)"/>
      <path id="DejaVuSans-69" d="M 603 3500 
L 1178 3500 
L 1178 0 
L 603 0 
L 603 3500 
z
M 603 4863 
L 1178 4863 
L 1178 4134 
L 603 4134 
L 603 4863 
z
" transform="scale(0.015625)"/>
      <path id="DejaVuSans-6e" d="M 3513 2113 
L 3513 0 
L 2938 0 
L 2938 2094 
Q 2938 2591 2744 2837 
Q 2550 3084 2163 3084 
Q 1697 3084 1428 2787 
Q 1159 2491 1159 1978 
L 1159 0 
L 581 0 
L 581 3500 
L 1159 3500 
L 1159 2956 
Q 1366 3272 1645 3428 
Q 1925 3584 2291 3584 
Q 2894 3584 3203 3211 
Q 3513 2838 3513 2113 
z
" transform="scale(0.015625)"/>
      <path id="DejaVuSans-50" d="M 1259 4147 
L 1259 2394 
L 2053 2394 
Q 2494 2394 2734 2622 
Q 2975 2850 2975 3272 
Q 2975 3691 2734 3919 
Q 2494 4147 2053 4147 
L 1259 4147 
z
M 628 4666 
L 2053 4666 
Q 2838 4666 3239 4311 
Q 3641 3956 3641 3272 
Q 3641 2581 3239 2228 
Q 2838 1875 2053 1875 
L 1259 1875 
L 1259 0 
L 628 0 
L 628 4666 
z
" transform="scale(0.015625)"/>
     </defs>
     <use xlink:href="#DejaVuSans-44"/>
     <use xlink:href="#DejaVuSans-65" x="77.001953"/>
     <use xlink:href="#DejaVuSans-70" x="138.525391"/>
     <use xlink:href="#DejaVuSans-74" x="202.001953"/>
     <use xlink:href="#DejaVuSans-68" x="241.210938"/>
     <use xlink:href="#DejaVuSans-20" x="304.589844"/>
     <use xlink:href="#DejaVuSans-69" x="336.376953"/>
     <use xlink:href="#DejaVuSans-6e" x="364.160156"/>
     <use xlink:href="#DejaVuSans-20" x="427.539062"/>
     <use xlink:href="#DejaVuSans-50" x="459.326172"/>
     <use xlink:href="#DejaVuSans-31" x="519.628906"/>
    </g>
   </g>
   <g id="legend_1">
    <g id="patch_7">
     <path d="M 224.548433 190.396922 
L 367.459433 190.396922 
Q 370.339433 190.396922 370.339433 187.516922 
L 370.339433 104.410922 
Q 370.339433 101.530922 367.459433 101.530922 
L 224.548433 101.530922 
Q 221.668433 101.530922 221.668433 104.410922 
L 221.668433 187.516922 
Q 221.668433 190.396922 224.548433 190.396922 
z
" style="fill: #ffffff; opacity: 0.8; stroke: #cccccc; stroke-linejoin: miter"/>
    </g>
    <g id="line2d_11">
     <path d="M 227.428433 113.192672 
L 241.828433 113.192672 
L 256.228433 113.192672 
" style="fill: none; stroke: #0000ff; stroke-opacity: 0.6; stroke-width: 3; stroke-linecap: square"/>
    </g>
    <g id="text_9">
     <!-- equal filling -->
     <g transform="translate(267.748433 118.232672) scale(0.144 -0.144)">
      <defs>
       <path id="DejaVuSans-71" d="M 947 1747 
Q 947 1113 1208 752 
Q 1469 391 1925 391 
Q 2381 391 2643 752 
Q 2906 1113 2906 1747 
Q 2906 2381 2643 2742 
Q 2381 3103 1925 3103 
Q 1469 3103 1208 2742 
Q 947 2381 947 1747 
z
M 2906 525 
Q 2725 213 2448 61 
Q 2172 -91 1784 -91 
Q 1150 -91 751 415 
Q 353 922 353 1747 
Q 353 2572 751 3078 
Q 1150 3584 1784 3584 
Q 2172 3584 2448 3432 
Q 2725 3281 2906 2969 
L 2906 3500 
L 3481 3500 
L 3481 -1331 
L 2906 -1331 
L 2906 525 
z
" transform="scale(0.015625)"/>
       <path id="DejaVuSans-75" d="M 544 1381 
L 544 3500 
L 1119 3500 
L 1119 1403 
Q 1119 906 1312 657 
Q 1506 409 1894 409 
Q 2359 409 2629 706 
Q 2900 1003 2900 1516 
L 2900 3500 
L 3475 3500 
L 3475 0 
L 2900 0 
L 2900 538 
Q 2691 219 2414 64 
Q 2138 -91 1772 -91 
Q 1169 -91 856 284 
Q 544 659 544 1381 
z
M 1991 3584 
L 1991 3584 
z
" transform="scale(0.015625)"/>
       <path id="DejaVuSans-61" d="M 2194 1759 
Q 1497 1759 1228 1600 
Q 959 1441 959 1056 
Q 959 750 1161 570 
Q 1363 391 1709 391 
Q 2188 391 2477 730 
Q 2766 1069 2766 1631 
L 2766 1759 
L 2194 1759 
z
M 3341 1997 
L 3341 0 
L 2766 0 
L 2766 531 
Q 2569 213 2275 61 
Q 1981 -91 1556 -91 
Q 1019 -91 701 211 
Q 384 513 384 1019 
Q 384 1609 779 1909 
Q 1175 2209 1959 2209 
L 2766 2209 
L 2766 2266 
Q 2766 2663 2505 2880 
Q 2244 3097 1772 3097 
Q 1472 3097 1187 3025 
Q 903 2953 641 2809 
L 641 3341 
Q 956 3463 1253 3523 
Q 1550 3584 1831 3584 
Q 2591 3584 2966 3190 
Q 3341 2797 3341 1997 
z
" transform="scale(0.015625)"/>
       <path id="DejaVuSans-6c" d="M 603 4863 
L 1178 4863 
L 1178 0 
L 603 0 
L 603 4863 
z
" transform="scale(0.015625)"/>
       <path id="DejaVuSans-66" d="M 2375 4863 
L 2375 4384 
L 1825 4384 
Q 1516 4384 1395 4259 
Q 1275 4134 1275 3809 
L 1275 3500 
L 2222 3500 
L 2222 3053 
L 1275 3053 
L 1275 0 
L 697 0 
L 697 3053 
L 147 3053 
L 147 3500 
L 697 3500 
L 697 3744 
Q 697 4328 969 4595 
Q 1241 4863 1831 4863 
L 2375 4863 
z
" transform="scale(0.015625)"/>
       <path id="DejaVuSans-67" d="M 2906 1791 
Q 2906 2416 2648 2759 
Q 2391 3103 1925 3103 
Q 1463 3103 1205 2759 
Q 947 2416 947 1791 
Q 947 1169 1205 825 
Q 1463 481 1925 481 
Q 2391 481 2648 825 
Q 2906 1169 2906 1791 
z
M 3481 434 
Q 3481 -459 3084 -895 
Q 2688 -1331 1869 -1331 
Q 1566 -1331 1297 -1286 
Q 1028 -1241 775 -1147 
L 775 -588 
Q 1028 -725 1275 -790 
Q 1522 -856 1778 -856 
Q 2344 -856 2625 -561 
Q 2906 -266 2906 331 
L 2906 616 
Q 2728 306 2450 153 
Q 2172 0 1784 0 
Q 1141 0 747 490 
Q 353 981 353 1791 
Q 353 2603 747 3093 
Q 1141 3584 1784 3584 
Q 2172 3584 2450 3431 
Q 2728 3278 2906 2969 
L 2906 3500 
L 3481 3500 
L 3481 434 
z
" transform="scale(0.015625)"/>
      </defs>
      <use xlink:href="#DejaVuSans-65"/>
      <use xlink:href="#DejaVuSans-71" x="61.523438"/>
      <use xlink:href="#DejaVuSans-75" x="125"/>
      <use xlink:href="#DejaVuSans-61" x="188.378906"/>
      <use xlink:href="#DejaVuSans-6c" x="249.658203"/>
      <use xlink:href="#DejaVuSans-20" x="277.441406"/>
      <use xlink:href="#DejaVuSans-66" x="309.228516"/>
      <use xlink:href="#DejaVuSans-69" x="344.433594"/>
      <use xlink:href="#DejaVuSans-6c" x="372.216797"/>
      <use xlink:href="#DejaVuSans-6c" x="400"/>
      <use xlink:href="#DejaVuSans-69" x="427.783203"/>
      <use xlink:href="#DejaVuSans-6e" x="455.566406"/>
      <use xlink:href="#DejaVuSans-67" x="518.945312"/>
     </g>
    </g>
    <g id="line2d_12">
     <path d="M 227.428433 134.329172 
L 241.828433 134.329172 
L 256.228433 134.329172 
" style="fill: none; stroke: #000000; stroke-opacity: 0.6; stroke-width: 3; stroke-linecap: square"/>
    </g>
    <g id="text_10">
     <!-- uncontrolled -->
     <g transform="translate(267.748433 139.369172) scale(0.144 -0.144)">
      <defs>
       <path id="DejaVuSans-63" d="M 3122 3366 
L 3122 2828 
Q 2878 2963 2633 3030 
Q 2388 3097 2138 3097 
Q 1578 3097 1268 2742 
Q 959 2388 959 1747 
Q 959 1106 1268 751 
Q 1578 397 2138 397 
Q 2388 397 2633 464 
Q 2878 531 3122 666 
L 3122 134 
Q 2881 22 2623 -34 
Q 2366 -91 2075 -91 
Q 1284 -91 818 406 
Q 353 903 353 1747 
Q 353 2603 823 3093 
Q 1294 3584 2113 3584 
Q 2378 3584 2631 3529 
Q 2884 3475 3122 3366 
z
" transform="scale(0.015625)"/>
       <path id="DejaVuSans-6f" d="M 1959 3097 
Q 1497 3097 1228 2736 
Q 959 2375 959 1747 
Q 959 1119 1226 758 
Q 1494 397 1959 397 
Q 2419 397 2687 759 
Q 2956 1122 2956 1747 
Q 2956 2369 2687 2733 
Q 2419 3097 1959 3097 
z
M 1959 3584 
Q 2709 3584 3137 3096 
Q 3566 2609 3566 1747 
Q 3566 888 3137 398 
Q 2709 -91 1959 -91 
Q 1206 -91 779 398 
Q 353 888 353 1747 
Q 353 2609 779 3096 
Q 1206 3584 1959 3584 
z
" transform="scale(0.015625)"/>
       <path id="DejaVuSans-72" d="M 2631 2963 
Q 2534 3019 2420 3045 
Q 2306 3072 2169 3072 
Q 1681 3072 1420 2755 
Q 1159 2438 1159 1844 
L 1159 0 
L 581 0 
L 581 3500 
L 1159 3500 
L 1159 2956 
Q 1341 3275 1631 3429 
Q 1922 3584 2338 3584 
Q 2397 3584 2469 3576 
Q 2541 3569 2628 3553 
L 2631 2963 
z
" transform="scale(0.015625)"/>
       <path id="DejaVuSans-64" d="M 2906 2969 
L 2906 4863 
L 3481 4863 
L 3481 0 
L 2906 0 
L 2906 525 
Q 2725 213 2448 61 
Q 2172 -91 1784 -91 
Q 1150 -91 751 415 
Q 353 922 353 1747 
Q 353 2572 751 3078 
Q 1150 3584 1784 3584 
Q 2172 3584 2448 3432 
Q 2725 3281 2906 2969 
z
M 947 1747 
Q 947 1113 1208 752 
Q 1469 391 1925 391 
Q 2381 391 2643 752 
Q 2906 1113 2906 1747 
Q 2906 2381 2643 2742 
Q 2381 3103 1925 3103 
Q 1469 3103 1208 2742 
Q 947 2381 947 1747 
z
" transform="scale(0.015625)"/>
      </defs>
      <use xlink:href="#DejaVuSans-75"/>
      <use xlink:href="#DejaVuSans-6e" x="63.378906"/>
      <use xlink:href="#DejaVuSans-63" x="126.757812"/>
      <use xlink:href="#DejaVuSans-6f" x="181.738281"/>
      <use xlink:href="#DejaVuSans-6e" x="242.919922"/>
      <use xlink:href="#DejaVuSans-74" x="306.298828"/>
      <use xlink:href="#DejaVuSans-72" x="345.507812"/>
      <use xlink:href="#DejaVuSans-6f" x="384.371094"/>
      <use xlink:href="#DejaVuSans-6c" x="445.552734"/>
      <use xlink:href="#DejaVuSans-6c" x="473.335938"/>
      <use xlink:href="#DejaVuSans-65" x="501.119141"/>
      <use xlink:href="#DejaVuSans-64" x="562.642578"/>
     </g>
    </g>
    <g id="line2d_13">
     <path d="M 227.428433 155.465672 
L 241.828433 155.465672 
L 256.228433 155.465672 
" style="fill: none; stroke: #008000; stroke-opacity: 0.6; stroke-width: 3; stroke-linecap: square"/>
    </g>
    <g id="text_11">
     <!-- constant flow -->
     <g transform="translate(267.748433 160.505672) scale(0.144 -0.144)">
      <defs>
       <path id="DejaVuSans-73" d="M 2834 3397 
L 2834 2853 
Q 2591 2978 2328 3040 
Q 2066 3103 1784 3103 
Q 1356 3103 1142 2972 
Q 928 2841 928 2578 
Q 928 2378 1081 2264 
Q 1234 2150 1697 2047 
L 1894 2003 
Q 2506 1872 2764 1633 
Q 3022 1394 3022 966 
Q 3022 478 2636 193 
Q 2250 -91 1575 -91 
Q 1294 -91 989 -36 
Q 684 19 347 128 
L 347 722 
Q 666 556 975 473 
Q 1284 391 1588 391 
Q 1994 391 2212 530 
Q 2431 669 2431 922 
Q 2431 1156 2273 1281 
Q 2116 1406 1581 1522 
L 1381 1569 
Q 847 1681 609 1914 
Q 372 2147 372 2553 
Q 372 3047 722 3315 
Q 1072 3584 1716 3584 
Q 2034 3584 2315 3537 
Q 2597 3491 2834 3397 
z
" transform="scale(0.015625)"/>
       <path id="DejaVuSans-77" d="M 269 3500 
L 844 3500 
L 1563 769 
L 2278 3500 
L 2956 3500 
L 3675 769 
L 4391 3500 
L 4966 3500 
L 4050 0 
L 3372 0 
L 2619 2869 
L 1863 0 
L 1184 0 
L 269 3500 
z
" transform="scale(0.015625)"/>
      </defs>
      <use xlink:href="#DejaVuSans-63"/>
      <use xlink:href="#DejaVuSans-6f" x="54.980469"/>
      <use xlink:href="#DejaVuSans-6e" x="116.162109"/>
      <use xlink:href="#DejaVuSans-73" x="179.541016"/>
      <use xlink:href="#DejaVuSans-74" x="231.640625"/>
      <use xlink:href="#DejaVuSans-61" x="270.849609"/>
      <use xlink:href="#DejaVuSans-6e" x="332.128906"/>
      <use xlink:href="#DejaVuSans-74" x="395.507812"/>
      <use xlink:href="#DejaVuSans-20" x="434.716797"/>
      <use xlink:href="#DejaVuSans-66" x="466.503906"/>
      <use xlink:href="#DejaVuSans-6c" x="501.708984"/>
      <use xlink:href="#DejaVuSans-6f" x="529.492188"/>
      <use xlink:href="#DejaVuSans-77" x="590.673828"/>
     </g>
    </g>
    <g id="line2d_14">
     <path d="M 227.428433 176.602172 
L 241.828433 176.602172 
L 256.228433 176.602172 
" style="fill: none; stroke-dasharray: 11.1,4.8; stroke-dashoffset: 0; stroke: #ff0000; stroke-width: 3"/>
    </g>
    <g id="text_12">
     <!-- Threshold -->
     <g transform="translate(267.748433 181.642172) scale(0.144 -0.144)">
      <defs>
       <path id="DejaVuSans-54" d="M -19 4666 
L 3928 4666 
L 3928 4134 
L 2272 4134 
L 2272 0 
L 1638 0 
L 1638 4134 
L -19 4134 
L -19 4666 
z
" transform="scale(0.015625)"/>
      </defs>
      <use xlink:href="#DejaVuSans-54"/>
      <use xlink:href="#DejaVuSans-68" x="61.083984"/>
      <use xlink:href="#DejaVuSans-72" x="124.462891"/>
      <use xlink:href="#DejaVuSans-65" x="163.326172"/>
      <use xlink:href="#DejaVuSans-73" x="224.849609"/>
      <use xlink:href="#DejaVuSans-68" x="276.949219"/>
      <use xlink:href="#DejaVuSans-6f" x="340.328125"/>
      <use xlink:href="#DejaVuSans-6c" x="401.509766"/>
      <use xlink:href="#DejaVuSans-64" x="429.292969"/>
     </g>
    </g>
   </g>
  </g>
  <g id="axes_2">
   <g id="patch_8">
    <path d="M 418.379433 249.807843 
L 709.2 249.807843 
L 709.2 42.12 
L 418.379433 42.12 
z
" style="fill: #ffffff"/>
   </g>
   <g id="matplotlib.axis_3"/>
   <g id="matplotlib.axis_4">
    <g id="ytick_7">
     <g id="line2d_15">
      <g>
       <use xlink:href="#m13ce562157" x="418.379433" y="240.367487" style="stroke: #000000; stroke-width: 0.8"/>
      </g>
     </g>
     <g id="text_13">
      <!-- 0.0 -->
      <g transform="translate(388.478933 245.838362) scale(0.144 -0.144)">
       <use xlink:href="#DejaVuSans-30"/>
       <use xlink:href="#DejaVuSans-2e" x="63.623047"/>
       <use xlink:href="#DejaVuSans-30" x="95.410156"/>
      </g>
     </g>
    </g>
    <g id="ytick_8">
     <g id="line2d_16">
      <g>
       <use xlink:href="#m13ce562157" x="418.379433" y="192.823794" style="stroke: #000000; stroke-width: 0.8"/>
      </g>
     </g>
     <g id="text_14">
      <!-- 0.5 -->
      <g transform="translate(388.478933 198.294669) scale(0.144 -0.144)">
       <defs>
        <path id="DejaVuSans-35" d="M 691 4666 
L 3169 4666 
L 3169 4134 
L 1269 4134 
L 1269 2991 
Q 1406 3038 1543 3061 
Q 1681 3084 1819 3084 
Q 2600 3084 3056 2656 
Q 3513 2228 3513 1497 
Q 3513 744 3044 326 
Q 2575 -91 1722 -91 
Q 1428 -91 1123 -41 
Q 819 9 494 109 
L 494 744 
Q 775 591 1075 516 
Q 1375 441 1709 441 
Q 2250 441 2565 725 
Q 2881 1009 2881 1497 
Q 2881 1984 2565 2268 
Q 2250 2553 1709 2553 
Q 1456 2553 1204 2497 
Q 953 2441 691 2322 
L 691 4666 
z
" transform="scale(0.015625)"/>
       </defs>
       <use xlink:href="#DejaVuSans-30"/>
       <use xlink:href="#DejaVuSans-2e" x="63.623047"/>
       <use xlink:href="#DejaVuSans-35" x="95.410156"/>
      </g>
     </g>
    </g>
    <g id="ytick_9">
     <g id="line2d_17">
      <g>
       <use xlink:href="#m13ce562157" x="418.379433" y="145.2801" style="stroke: #000000; stroke-width: 0.8"/>
      </g>
     </g>
     <g id="text_15">
      <!-- 1.0 -->
      <g transform="translate(388.478933 150.750975) scale(0.144 -0.144)">
       <use xlink:href="#DejaVuSans-31"/>
       <use xlink:href="#DejaVuSans-2e" x="63.623047"/>
       <use xlink:href="#DejaVuSans-30" x="95.410156"/>
      </g>
     </g>
    </g>
    <g id="ytick_10">
     <g id="line2d_18">
      <g>
       <use xlink:href="#m13ce562157" x="418.379433" y="97.736407" style="stroke: #000000; stroke-width: 0.8"/>
      </g>
     </g>
     <g id="text_16">
      <!-- 1.5 -->
      <g transform="translate(388.478933 103.207282) scale(0.144 -0.144)">
       <use xlink:href="#DejaVuSans-31"/>
       <use xlink:href="#DejaVuSans-2e" x="63.623047"/>
       <use xlink:href="#DejaVuSans-35" x="95.410156"/>
      </g>
     </g>
    </g>
    <g id="ytick_11">
     <g id="line2d_19">
      <g>
       <use xlink:href="#m13ce562157" x="418.379433" y="50.192714" style="stroke: #000000; stroke-width: 0.8"/>
      </g>
     </g>
     <g id="text_17">
      <!-- 2.0 -->
      <g transform="translate(388.478933 55.663589) scale(0.144 -0.144)">
       <use xlink:href="#DejaVuSans-32"/>
       <use xlink:href="#DejaVuSans-2e" x="63.623047"/>
       <use xlink:href="#DejaVuSans-30" x="95.410156"/>
      </g>
     </g>
    </g>
   </g>
   <g id="line2d_20">
    <path d="M 431.59855 240.367487 
L 435.557215 240.308395 
L 436.122739 240.053831 
L 436.688263 239.446822 
L 437.253787 238.435783 
L 438.102072 236.486672 
L 438.950358 233.35844 
L 439.515881 230.359004 
L 442.060738 215.486214 
L 444.322833 201.861986 
L 446.019404 187.835793 
L 447.433213 174.143108 
L 448.847023 158.883181 
L 449.97807 145.347558 
L 453.936736 92.536339 
L 455.350545 76.416033 
L 455.916069 70.898797 
L 457.047116 62.530584 
L 457.895402 57.646266 
L 458.743688 53.667637 
L 459.309211 52.119561 
L 459.591973 51.711968 
L 459.874735 51.585695 
L 460.157497 51.680744 
L 460.72302 52.37813 
L 461.288544 53.793764 
L 461.854068 55.820934 
L 462.702353 59.75105 
L 463.833401 66.563349 
L 465.529972 79.819366 
L 466.661019 90.198724 
L 468.923114 113.664832 
L 470.336924 129.351922 
L 471.750733 145.87818 
L 473.447304 166.222313 
L 476.274922 198.188196 
L 477.40597 209.040601 
L 477.971494 213.182912 
L 478.819779 216.927661 
L 479.668065 219.419614 
L 480.799112 221.634235 
L 481.647398 222.905356 
L 483.061207 224.449027 
L 484.192254 225.426181 
L 485.888826 226.709161 
L 488.716444 228.498365 
L 495.219967 231.997042 
L 500.30968 234.290753 
L 502.571775 235.168249 
L 504.83387 235.91654 
L 508.509774 236.740978 
L 511.620154 237.224636 
L 518.123677 237.881316 
L 524.344438 238.280589 
L 537.351483 238.783334 
L 551.772338 239.106 
L 573.545 239.396732 
L 620.76623 239.717074 
L 687.78079 239.92531 
L 695.980883 239.942052 
L 695.980883 239.942052 
" clip-path="url(#p9a1097ba39)" style="fill: none; stroke: #0000ff; stroke-opacity: 0.6; stroke-width: 3; stroke-linecap: square"/>
   </g>
   <g id="line2d_21">
    <path d="M 431.59855 240.367487 
L 435.557215 240.308395 
L 436.122739 240.053836 
L 436.688263 239.447421 
L 437.253787 238.440232 
L 438.102072 236.513499 
L 438.950358 233.476066 
L 439.798643 228.995624 
L 441.212453 221.288221 
L 443.474547 210.213338 
L 444.888357 205.139782 
L 445.736642 203.043866 
L 446.584928 201.435364 
L 447.715975 199.67997 
L 451.391879 195.193958 
L 451.957403 194.617606 
L 452.240165 194.537763 
L 452.805689 194.780612 
L 454.219498 195.71944 
L 455.067783 196.037544 
L 455.350545 196.120753 
L 455.916069 196.765384 
L 459.309211 201.816181 
L 461.005782 205.661386 
L 463.550639 210.185607 
L 464.964448 212.2626 
L 466.095496 213.696276 
L 468.357591 216.17499 
L 472.316257 219.650655 
L 477.688732 223.482366 
L 480.799112 225.444915 
L 485.606064 228.139025 
L 490.978539 230.84041 
L 495.78549 233.042834 
L 500.30968 234.871455 
L 504.551108 236.26601 
L 508.227012 237.032892 
L 511.620154 237.504962 
L 516.144344 237.941705 
L 522.082343 238.327095 
L 530.565199 238.686962 
L 542.723958 239.011603 
L 569.020811 239.396652 
L 615.393755 239.714463 
L 681.560029 239.922178 
L 695.980883 239.951152 
L 695.980883 239.951152 
" clip-path="url(#p9a1097ba39)" style="fill: none; stroke: #000000; stroke-opacity: 0.6; stroke-width: 3; stroke-linecap: square"/>
   </g>
   <g id="line2d_22">
    <path d="M 431.59855 240.367487 
L 435.557215 240.308395 
L 436.122739 240.053831 
L 436.688263 239.446822 
L 437.253787 238.435782 
L 438.102072 236.486671 
L 438.950358 233.363071 
L 439.798643 228.72431 
L 441.495214 218.66528 
L 444.040071 203.879224 
L 444.888357 197.471137 
L 446.584928 182.501699 
L 447.998737 168.198379 
L 449.129784 155.513238 
L 451.391879 125.757509 
L 452.522927 109.786554 
L 453.653974 95.821878 
L 455.350545 76.239533 
L 456.481593 66.366066 
L 457.61264 59.167878 
L 458.460926 54.883416 
L 459.026449 52.677831 
L 459.591973 51.691141 
L 459.874735 51.560357 
L 460.157497 51.635828 
L 460.440259 51.917348 
L 461.005782 53.015768 
L 461.854068 55.727267 
L 462.702353 59.806853 
L 463.267877 63.009739 
L 464.681686 72.896964 
L 466.095496 84.672313 
L 467.792067 101.631845 
L 468.923114 113.508707 
L 476.840446 203.527342 
L 477.688732 211.137057 
L 478.254255 214.636046 
L 479.102541 217.811107 
L 479.950827 220.053932 
L 480.51635 221.15527 
L 481.93016 223.230398 
L 483.343969 224.698038 
L 484.757778 225.874414 
L 486.171587 226.903607 
L 488.999206 228.680314 
L 494.654443 231.711014 
L 500.592442 234.410285 
L 504.551108 235.827298 
L 506.813203 236.400739 
L 509.640821 236.933766 
L 513.316725 237.430315 
L 520.668534 238.062768 
L 527.73758 238.443323 
L 542.723958 238.92261 
L 559.972431 239.23475 
L 596.731472 239.585686 
L 646.214797 239.815426 
L 695.980883 239.942031 
L 695.980883 239.942031 
" clip-path="url(#p9a1097ba39)" style="fill: none; stroke: #008000; stroke-opacity: 0.6; stroke-width: 3; stroke-linecap: square"/>
   </g>
   <g id="line2d_23">
    <path d="M 418.379433 50.192714 
L 709.2 50.192714 
" clip-path="url(#p9a1097ba39)" style="fill: none; stroke-dasharray: 11.1,4.8; stroke-dashoffset: 0; stroke: #ff0000; stroke-width: 3"/>
   </g>
   <g id="patch_9">
    <path d="M 418.379433 249.807843 
L 418.379433 42.12 
" style="fill: none; stroke: #000000; stroke-width: 0.8; stroke-linejoin: miter; stroke-linecap: square"/>
   </g>
   <g id="patch_10">
    <path d="M 709.2 249.807843 
L 709.2 42.12 
" style="fill: none; stroke: #000000; stroke-width: 0.8; stroke-linejoin: miter; stroke-linecap: square"/>
   </g>
   <g id="patch_11">
    <path d="M 418.379433 249.807843 
L 709.2 249.807843 
" style="fill: none; stroke: #000000; stroke-width: 0.8; stroke-linejoin: miter; stroke-linecap: square"/>
   </g>
   <g id="patch_12">
    <path d="M 418.379433 42.12 
L 709.2 42.12 
" style="fill: none; stroke: #000000; stroke-width: 0.8; stroke-linejoin: miter; stroke-linecap: square"/>
   </g>
   <g id="text_18">
    <!-- Depth in P2 -->
    <g transform="translate(513.398266 77.657569) scale(0.1728 -0.1728)">
     <use xlink:href="#DejaVuSans-44"/>
     <use xlink:href="#DejaVuSans-65" x="77.001953"/>
     <use xlink:href="#DejaVuSans-70" x="138.525391"/>
     <use xlink:href="#DejaVuSans-74" x="202.001953"/>
     <use xlink:href="#DejaVuSans-68" x="241.210938"/>
     <use xlink:href="#DejaVuSans-20" x="304.589844"/>
     <use xlink:href="#DejaVuSans-69" x="336.376953"/>
     <use xlink:href="#DejaVuSans-6e" x="364.160156"/>
     <use xlink:href="#DejaVuSans-20" x="427.539062"/>
     <use xlink:href="#DejaVuSans-50" x="459.326172"/>
     <use xlink:href="#DejaVuSans-32" x="519.628906"/>
    </g>
   </g>
  </g>
  <g id="axes_3">
   <g id="patch_13">
    <path d="M 86.718866 469.163922 
L 377.539433 469.163922 
L 377.539433 261.476078 
L 86.718866 261.476078 
z
" style="fill: #ffffff"/>
   </g>
   <g id="matplotlib.axis_5"/>
   <g id="matplotlib.axis_6">
    <g id="ytick_12">
     <g id="line2d_24">
      <g>
       <use xlink:href="#m13ce562157" x="86.718866" y="459.723565" style="stroke: #000000; stroke-width: 0.8"/>
      </g>
     </g>
     <g id="text_19">
      <!-- 0.0 -->
      <g transform="translate(56.818366 465.19444) scale(0.144 -0.144)">
       <use xlink:href="#DejaVuSans-30"/>
       <use xlink:href="#DejaVuSans-2e" x="63.623047"/>
       <use xlink:href="#DejaVuSans-30" x="95.410156"/>
      </g>
     </g>
    </g>
    <g id="ytick_13">
     <g id="line2d_25">
      <g>
       <use xlink:href="#m13ce562157" x="86.718866" y="405.152337" style="stroke: #000000; stroke-width: 0.8"/>
      </g>
     </g>
     <g id="text_20">
      <!-- 0.1 -->
      <g transform="translate(56.818366 410.623212) scale(0.144 -0.144)">
       <use xlink:href="#DejaVuSans-30"/>
       <use xlink:href="#DejaVuSans-2e" x="63.623047"/>
       <use xlink:href="#DejaVuSans-31" x="95.410156"/>
      </g>
     </g>
    </g>
    <g id="ytick_14">
     <g id="line2d_26">
      <g>
       <use xlink:href="#m13ce562157" x="86.718866" y="350.58111" style="stroke: #000000; stroke-width: 0.8"/>
      </g>
     </g>
     <g id="text_21">
      <!-- 0.2 -->
      <g transform="translate(56.818366 356.051985) scale(0.144 -0.144)">
       <use xlink:href="#DejaVuSans-30"/>
       <use xlink:href="#DejaVuSans-2e" x="63.623047"/>
       <use xlink:href="#DejaVuSans-32" x="95.410156"/>
      </g>
     </g>
    </g>
    <g id="ytick_15">
     <g id="line2d_27">
      <g>
       <use xlink:href="#m13ce562157" x="86.718866" y="296.009882" style="stroke: #000000; stroke-width: 0.8"/>
      </g>
     </g>
     <g id="text_22">
      <!-- 0.3 -->
      <g transform="translate(56.818366 301.480757) scale(0.144 -0.144)">
       <defs>
        <path id="DejaVuSans-33" d="M 2597 2516 
Q 3050 2419 3304 2112 
Q 3559 1806 3559 1356 
Q 3559 666 3084 287 
Q 2609 -91 1734 -91 
Q 1441 -91 1130 -33 
Q 819 25 488 141 
L 488 750 
Q 750 597 1062 519 
Q 1375 441 1716 441 
Q 2309 441 2620 675 
Q 2931 909 2931 1356 
Q 2931 1769 2642 2001 
Q 2353 2234 1838 2234 
L 1294 2234 
L 1294 2753 
L 1863 2753 
Q 2328 2753 2575 2939 
Q 2822 3125 2822 3475 
Q 2822 3834 2567 4026 
Q 2313 4219 1838 4219 
Q 1578 4219 1281 4162 
Q 984 4106 628 3988 
L 628 4550 
Q 988 4650 1302 4700 
Q 1616 4750 1894 4750 
Q 2613 4750 3031 4423 
Q 3450 4097 3450 3541 
Q 3450 3153 3228 2886 
Q 3006 2619 2597 2516 
z
" transform="scale(0.015625)"/>
       </defs>
       <use xlink:href="#DejaVuSans-30"/>
       <use xlink:href="#DejaVuSans-2e" x="63.623047"/>
       <use xlink:href="#DejaVuSans-33" x="95.410156"/>
      </g>
     </g>
    </g>
    <g id="text_23">
     <!-- $m^3 / s$ -->
     <g transform="translate(11.427966 361.7263) scale(0.1728 -0.1728)">
      <defs>
       <path id="DejaVuSans-2f" d="M 1625 4666 
L 2156 4666 
L 531 -594 
L 0 -594 
L 1625 4666 
z
" transform="scale(0.015625)"/>
       <path id="DejaVuSans-Oblique-73" d="M 3200 3397 
L 3091 2853 
Q 2863 2978 2609 3040 
Q 2356 3103 2088 3103 
Q 1634 3103 1373 2948 
Q 1113 2794 1113 2528 
Q 1113 2219 1719 2053 
Q 1766 2041 1788 2034 
L 1972 1978 
Q 2547 1819 2739 1644 
Q 2931 1469 2931 1166 
Q 2931 609 2489 259 
Q 2047 -91 1331 -91 
Q 1053 -91 747 -37 
Q 441 16 72 128 
L 184 722 
Q 500 559 806 475 
Q 1113 391 1394 391 
Q 1816 391 2080 572 
Q 2344 753 2344 1031 
Q 2344 1331 1650 1516 
L 1591 1531 
L 1394 1581 
Q 956 1697 753 1886 
Q 550 2075 550 2369 
Q 550 2928 970 3256 
Q 1391 3584 2113 3584 
Q 2397 3584 2667 3537 
Q 2938 3491 3200 3397 
z
" transform="scale(0.015625)"/>
      </defs>
      <use xlink:href="#DejaVuSans-Oblique-6d" transform="translate(0 0.765625)"/>
      <use xlink:href="#DejaVuSans-33" transform="translate(102.062005 39.046875) scale(0.7)"/>
      <use xlink:href="#DejaVuSans-2f" transform="translate(149.332513 0.765625)"/>
      <use xlink:href="#DejaVuSans-Oblique-73" transform="translate(183.023919 0.765625)"/>
     </g>
    </g>
   </g>
   <g id="line2d_28">
    <path d="M 99.937982 459.723565 
L 103.896648 459.689695 
L 104.17941 459.511515 
L 104.462172 459.137866 
L 104.744934 458.335091 
L 105.310458 455.492252 
L 106.724267 444.659694 
L 107.289791 437.976067 
L 108.420838 418.665656 
L 109.551885 400.207455 
L 110.400171 386.774346 
L 112.379504 346.425703 
L 113.227789 333.557997 
L 114.076075 323.359645 
L 115.772646 307.869423 
L 120.014074 273.225698 
L 120.296836 271.592858 
L 120.579598 272.512469 
L 121.993407 282.892802 
L 122.558931 285.053012 
L 123.124454 286.206727 
L 123.407216 286.47668 
L 123.689978 287.189874 
L 124.255502 294.053296 
L 125.386549 308.476439 
L 125.952073 313.839468 
L 127.365882 325.571063 
L 128.779691 348.549855 
L 130.476263 367.300524 
L 131.60731 377.354668 
L 133.303881 389.129892 
L 134.71769 397.076447 
L 136.1315 403.769891 
L 138.393595 412.665705 
L 140.938451 420.740379 
L 143.76607 428.110922 
L 145.462641 431.975386 
L 146.87645 434.823833 
L 148.007498 436.988474 
L 151.966164 443.461244 
L 153.945496 446.272539 
L 156.490353 449.259878 
L 158.186924 451.024163 
L 160.731781 453.327322 
L 164.407685 455.958501 
L 166.387018 457.062318 
L 168.931875 458.201031 
L 171.19397 458.889938 
L 172.890541 459.204974 
L 175.152636 459.367292 
L 180.525111 459.478117 
L 200.035679 459.604552 
L 249.519003 459.68842 
L 364.320316 459.716481 
L 364.320316 459.716481 
" clip-path="url(#p321aabcbe1)" style="fill: none; stroke: #0000ff; stroke-opacity: 0.6; stroke-width: 3; stroke-linecap: square"/>
   </g>
   <g id="line2d_29">
    <path d="M 99.937982 459.723565 
L 103.896648 459.689695 
L 104.17941 459.511515 
L 104.462172 459.137865 
L 104.744934 458.335076 
L 105.310458 455.492569 
L 106.724267 444.687497 
L 107.289791 437.348054 
L 108.420838 416.263522 
L 109.551885 398.470217 
L 110.400171 385.267175 
L 112.096742 349.070748 
L 112.945028 335.512311 
L 113.793313 325.053052 
L 115.489884 309.378189 
L 117.186455 295.342998 
L 120.014074 272.370333 
L 120.296836 270.916435 
L 120.579598 272.446057 
L 121.427883 280.183867 
L 121.993407 283.52196 
L 122.558931 285.405736 
L 123.124454 286.413688 
L 123.407216 286.621383 
L 123.689978 287.245611 
L 124.255502 295.125614 
L 125.386549 309.74308 
L 126.234835 316.957036 
L 127.08312 322.815257 
L 127.648644 331.835579 
L 128.49693 346.024439 
L 129.345215 357.002218 
L 131.324548 375.980795 
L 133.021119 388.183089 
L 134.71769 397.65654 
L 136.414262 405.50958 
L 137.545309 410.0364 
L 140.372927 419.485064 
L 143.483308 427.739044 
L 145.745403 432.817692 
L 149.986831 440.595826 
L 152.531687 444.355599 
L 153.945496 446.250852 
L 156.490353 449.257756 
L 160.166257 452.822149 
L 162.14559 454.43425 
L 165.255971 456.457993 
L 167.235304 457.497835 
L 169.214637 458.290865 
L 170.628446 458.738077 
L 172.325017 459.118364 
L 174.021588 459.30727 
L 177.41473 459.431068 
L 188.442443 459.546196 
L 220.394532 459.656588 
L 331.237179 459.713342 
L 364.320316 459.716481 
L 364.320316 459.716481 
" clip-path="url(#p321aabcbe1)" style="fill: none; stroke: #000000; stroke-opacity: 0.6; stroke-width: 3; stroke-linecap: square"/>
   </g>
   <g id="line2d_30">
    <path d="M 99.937982 459.723565 
L 103.896648 459.689695 
L 104.17941 459.511515 
L 104.462172 459.137866 
L 104.744934 458.335091 
L 105.310458 455.492252 
L 106.724267 444.659694 
L 107.289791 437.257972 
L 109.551885 400.182096 
L 110.400171 386.229616 
L 112.379504 345.813039 
L 113.793313 326.033296 
L 114.924361 315.142139 
L 117.751979 291.339183 
L 119.731312 275.416055 
L 120.296836 271.490446 
L 120.579598 272.436104 
L 121.710645 281.420082 
L 122.276169 284.1684 
L 122.841693 285.770435 
L 123.407216 286.49708 
L 123.689978 287.322218 
L 124.255502 294.01844 
L 125.103787 305.414146 
L 125.669311 311.406701 
L 126.517597 318.13233 
L 127.08312 322.162827 
L 127.648644 330.710404 
L 128.779691 348.590606 
L 129.627977 359.023075 
L 131.890072 379.714342 
L 133.869405 392.797819 
L 136.414262 405.080232 
L 138.676356 413.761688 
L 141.221213 421.657971 
L 144.048832 429.087397 
L 147.724736 436.666738 
L 149.704069 440.152446 
L 152.248925 444.005859 
L 155.642068 448.330572 
L 159.883495 452.56262 
L 161.862828 454.213691 
L 164.690447 456.126732 
L 166.952542 457.363725 
L 168.931875 458.19734 
L 171.19397 458.887465 
L 172.890541 459.203721 
L 175.152636 459.366882 
L 180.525111 459.478 
L 200.035679 459.604514 
L 249.236241 459.688209 
L 364.320316 459.71648 
L 364.320316 459.71648 
" clip-path="url(#p321aabcbe1)" style="fill: none; stroke: #008000; stroke-opacity: 0.6; stroke-width: 3; stroke-linecap: square"/>
   </g>
   <g id="patch_14">
    <path d="M 86.718866 469.163922 
L 86.718866 261.476078 
" style="fill: none; stroke: #000000; stroke-width: 0.8; stroke-linejoin: miter; stroke-linecap: square"/>
   </g>
   <g id="patch_15">
    <path d="M 377.539433 469.163922 
L 377.539433 261.476078 
" style="fill: none; stroke: #000000; stroke-width: 0.8; stroke-linejoin: miter; stroke-linecap: square"/>
   </g>
   <g id="patch_16">
    <path d="M 86.718866 469.163922 
L 377.539433 469.163922 
" style="fill: none; stroke: #000000; stroke-width: 0.8; stroke-linejoin: miter; stroke-linecap: square"/>
   </g>
   <g id="patch_17">
    <path d="M 86.718866 261.476078 
L 377.539433 261.476078 
" style="fill: none; stroke: #000000; stroke-width: 0.8; stroke-linejoin: miter; stroke-linecap: square"/>
   </g>
   <g id="text_24">
    <!-- Flow out of P1 -->
    <g transform="translate(170.984949 297.013647) scale(0.1728 -0.1728)">
     <defs>
      <path id="DejaVuSans-46" d="M 628 4666 
L 3309 4666 
L 3309 4134 
L 1259 4134 
L 1259 2759 
L 3109 2759 
L 3109 2228 
L 1259 2228 
L 1259 0 
L 628 0 
L 628 4666 
z
" transform="scale(0.015625)"/>
     </defs>
     <use xlink:href="#DejaVuSans-46"/>
     <use xlink:href="#DejaVuSans-6c" x="57.519531"/>
     <use xlink:href="#DejaVuSans-6f" x="85.302734"/>
     <use xlink:href="#DejaVuSans-77" x="146.484375"/>
     <use xlink:href="#DejaVuSans-20" x="228.271484"/>
     <use xlink:href="#DejaVuSans-6f" x="260.058594"/>
     <use xlink:href="#DejaVuSans-75" x="321.240234"/>
     <use xlink:href="#DejaVuSans-74" x="384.619141"/>
     <use xlink:href="#DejaVuSans-20" x="423.828125"/>
     <use xlink:href="#DejaVuSans-6f" x="455.615234"/>
     <use xlink:href="#DejaVuSans-66" x="516.796875"/>
     <use xlink:href="#DejaVuSans-20" x="552.001953"/>
     <use xlink:href="#DejaVuSans-50" x="583.789062"/>
     <use xlink:href="#DejaVuSans-31" x="644.091797"/>
    </g>
   </g>
  </g>
  <g id="axes_4">
   <g id="patch_18">
    <path d="M 418.379433 469.163922 
L 709.2 469.163922 
L 709.2 261.476078 
L 418.379433 261.476078 
z
" style="fill: #ffffff"/>
   </g>
   <g id="matplotlib.axis_7"/>
   <g id="matplotlib.axis_8">
    <g id="ytick_16">
     <g id="line2d_31">
      <g>
       <use xlink:href="#m13ce562157" x="418.379433" y="459.723565" style="stroke: #000000; stroke-width: 0.8"/>
      </g>
     </g>
     <g id="text_25">
      <!-- 0.0 -->
      <g transform="translate(388.478933 465.19444) scale(0.144 -0.144)">
       <use xlink:href="#DejaVuSans-30"/>
       <use xlink:href="#DejaVuSans-2e" x="63.623047"/>
       <use xlink:href="#DejaVuSans-30" x="95.410156"/>
      </g>
     </g>
    </g>
    <g id="ytick_17">
     <g id="line2d_32">
      <g>
       <use xlink:href="#m13ce562157" x="418.379433" y="404.138221" style="stroke: #000000; stroke-width: 0.8"/>
      </g>
     </g>
     <g id="text_26">
      <!-- 0.1 -->
      <g transform="translate(388.478933 409.609096) scale(0.144 -0.144)">
       <use xlink:href="#DejaVuSans-30"/>
       <use xlink:href="#DejaVuSans-2e" x="63.623047"/>
       <use xlink:href="#DejaVuSans-31" x="95.410156"/>
      </g>
     </g>
    </g>
    <g id="ytick_18">
     <g id="line2d_33">
      <g>
       <use xlink:href="#m13ce562157" x="418.379433" y="348.552876" style="stroke: #000000; stroke-width: 0.8"/>
      </g>
     </g>
     <g id="text_27">
      <!-- 0.2 -->
      <g transform="translate(388.478933 354.023751) scale(0.144 -0.144)">
       <use xlink:href="#DejaVuSans-30"/>
       <use xlink:href="#DejaVuSans-2e" x="63.623047"/>
       <use xlink:href="#DejaVuSans-32" x="95.410156"/>
      </g>
     </g>
    </g>
    <g id="ytick_19">
     <g id="line2d_34">
      <g>
       <use xlink:href="#m13ce562157" x="418.379433" y="292.967532" style="stroke: #000000; stroke-width: 0.8"/>
      </g>
     </g>
     <g id="text_28">
      <!-- 0.3 -->
      <g transform="translate(388.478933 298.438407) scale(0.144 -0.144)">
       <use xlink:href="#DejaVuSans-30"/>
       <use xlink:href="#DejaVuSans-2e" x="63.623047"/>
       <use xlink:href="#DejaVuSans-33" x="95.410156"/>
      </g>
     </g>
    </g>
   </g>
   <g id="line2d_35">
    <path d="M 431.59855 459.723565 
L 436.688263 459.647555 
L 437.253787 459.35952 
L 437.81931 458.735402 
L 438.102072 458.215636 
L 438.667596 456.357372 
L 438.950358 454.970204 
L 439.515881 450.307895 
L 440.364167 439.267894 
L 441.495214 419.733575 
L 442.060738 409.346144 
L 442.3435 403.093205 
L 442.909024 386.200978 
L 444.040071 376.848625 
L 444.605595 372.557794 
L 446.019404 364.353076 
L 446.86769 360.544763 
L 447.433213 358.486083 
L 448.281499 355.715221 
L 449.412546 352.660976 
L 449.695308 352.213647 
L 450.543594 350.253677 
L 450.826356 349.904577 
L 451.674641 348.333559 
L 451.957403 347.885302 
L 452.240165 347.735975 
L 452.805689 347.046264 
L 454.50226 345.721678 
L 454.785022 345.619744 
L 455.350545 345.188054 
L 458.743688 344.437636 
L 462.702353 345.143708 
L 464.116163 345.714563 
L 464.964448 346.069288 
L 467.792067 347.984394 
L 469.7714 350.220582 
L 471.185209 352.497494 
L 471.467971 352.958269 
L 473.164542 357.198459 
L 474.578351 362.774407 
L 475.143875 365.755873 
L 475.709399 369.387717 
L 476.274922 373.841448 
L 476.840446 378.7599 
L 477.688732 389.316466 
L 477.971494 401.054605 
L 478.537017 411.696581 
L 479.102541 418.7553 
L 479.668065 423.710962 
L 480.799112 430.26099 
L 481.647398 433.773051 
L 482.778445 437.072556 
L 483.909493 439.66842 
L 485.888826 443.182887 
L 487.585397 445.600346 
L 490.978539 449.45914 
L 492.957872 451.301149 
L 494.937205 452.92215 
L 496.351014 453.934733 
L 498.330347 455.143525 
L 499.744156 455.900453 
L 501.723489 456.812126 
L 505.399393 457.938684 
L 507.661488 458.330999 
L 510.771869 458.683075 
L 516.99263 459.06314 
L 524.909961 459.298691 
L 538.48253 459.480148 
L 565.627668 459.610191 
L 634.621561 459.688663 
L 695.980883 459.705921 
L 695.980883 459.705921 
" clip-path="url(#pc6b2de8f88)" style="fill: none; stroke: #0000ff; stroke-opacity: 0.6; stroke-width: 3; stroke-linecap: square"/>
   </g>
   <g id="line2d_36">
    <path d="M 431.59855 459.723565 
L 436.688263 459.643093 
L 437.253787 459.326459 
L 437.81931 458.626634 
L 438.102072 458.040585 
L 438.667596 455.931331 
L 438.950358 454.35829 
L 439.515881 449.250816 
L 440.364167 436.392792 
L 441.777976 410.600448 
L 442.3435 399.225041 
L 444.040071 359.300315 
L 444.888357 342.724962 
L 445.736642 329.76794 
L 446.584928 319.428886 
L 447.715975 307.725803 
L 451.957403 271.566774 
L 452.240165 270.916435 
L 452.522927 271.525979 
L 453.08845 274.344863 
L 453.936736 278.645865 
L 454.50226 280.801534 
L 455.067783 282.14292 
L 455.350545 282.687556 
L 455.633307 284.507079 
L 456.481593 293.792406 
L 457.61264 306.400181 
L 459.026449 318.395135 
L 459.874735 330.58489 
L 461.005782 346.274136 
L 462.985115 367.395148 
L 464.681686 380.955814 
L 466.378258 391.533106 
L 467.792067 398.844894 
L 469.205876 405.128115 
L 471.750733 414.381868 
L 473.164542 418.736892 
L 475.992161 426.208903 
L 477.971494 430.702972 
L 479.385303 433.599829 
L 482.212921 438.636392 
L 485.04054 442.942521 
L 487.868159 446.56637 
L 491.544063 450.380351 
L 493.523396 452.135727 
L 495.502729 453.629762 
L 497.764823 455.065127 
L 499.461395 455.996611 
L 502.854537 457.408247 
L 505.682155 458.135755 
L 508.227012 458.520517 
L 511.620154 458.836028 
L 516.709868 459.107826 
L 524.909961 459.33191 
L 543.289482 459.529361 
L 578.351952 459.641455 
L 695.980883 459.706415 
L 695.980883 459.706415 
" clip-path="url(#pc6b2de8f88)" style="fill: none; stroke: #000000; stroke-opacity: 0.6; stroke-width: 3; stroke-linecap: square"/>
   </g>
   <g id="line2d_37">
    <path d="M 431.59855 459.723565 
L 436.688263 459.647555 
L 437.253787 459.359523 
L 437.81931 458.735408 
L 438.102072 458.215644 
L 438.667596 456.358038 
L 438.950358 454.976494 
L 439.515881 450.578817 
L 440.364167 439.541144 
L 441.495214 420.115668 
L 442.3435 402.823954 
L 442.626262 392.361438 
L 442.909024 386.085097 
L 445.45388 367.254827 
L 446.302166 362.83974 
L 448.564261 355.000011 
L 449.412546 352.652424 
L 449.97807 351.431748 
L 450.826356 349.844743 
L 451.674641 348.290117 
L 451.957403 348.058796 
L 452.522927 347.349409 
L 453.936736 346.114741 
L 455.350545 345.224106 
L 455.633307 345.202031 
L 456.198831 344.95036 
L 457.329878 344.708819 
L 458.743688 344.449868 
L 459.874735 344.566477 
L 461.571306 344.844578 
L 463.550639 345.46113 
L 464.681686 345.953281 
L 467.509305 347.83056 
L 468.923114 349.201331 
L 470.336924 351.064345 
L 470.902447 351.958037 
L 471.750733 353.60513 
L 473.164542 357.136593 
L 474.578351 362.726777 
L 475.992161 371.204918 
L 477.123208 381.935366 
L 477.688732 388.934717 
L 477.971494 400.641598 
L 478.254255 407.727003 
L 478.819779 415.536501 
L 479.668065 423.618732 
L 480.233588 427.466304 
L 481.364636 432.751259 
L 482.495683 436.30735 
L 483.909493 439.680967 
L 485.888826 443.191975 
L 487.585397 445.568015 
L 489.281968 447.659966 
L 491.826824 450.271851 
L 493.806157 452.034524 
L 495.502729 453.341385 
L 497.764823 454.82072 
L 500.592442 456.322862 
L 503.420061 457.407199 
L 505.399393 457.936361 
L 507.661488 458.329458 
L 510.771869 458.682119 
L 516.99263 459.062685 
L 524.909961 459.298469 
L 538.48253 459.480058 
L 565.627668 459.610164 
L 634.621561 459.688659 
L 695.980883 459.705919 
L 695.980883 459.705919 
" clip-path="url(#pc6b2de8f88)" style="fill: none; stroke: #008000; stroke-opacity: 0.6; stroke-width: 3; stroke-linecap: square"/>
   </g>
   <g id="patch_19">
    <path d="M 418.379433 469.163922 
L 418.379433 261.476078 
" style="fill: none; stroke: #000000; stroke-width: 0.8; stroke-linejoin: miter; stroke-linecap: square"/>
   </g>
   <g id="patch_20">
    <path d="M 709.2 469.163922 
L 709.2 261.476078 
" style="fill: none; stroke: #000000; stroke-width: 0.8; stroke-linejoin: miter; stroke-linecap: square"/>
   </g>
   <g id="patch_21">
    <path d="M 418.379433 469.163922 
L 709.2 469.163922 
" style="fill: none; stroke: #000000; stroke-width: 0.8; stroke-linejoin: miter; stroke-linecap: square"/>
   </g>
   <g id="patch_22">
    <path d="M 418.379433 261.476078 
L 709.2 261.476078 
" style="fill: none; stroke: #000000; stroke-width: 0.8; stroke-linejoin: miter; stroke-linecap: square"/>
   </g>
   <g id="text_29">
    <!-- Flow out of P2 -->
    <g transform="translate(502.645516 297.013647) scale(0.1728 -0.1728)">
     <use xlink:href="#DejaVuSans-46"/>
     <use xlink:href="#DejaVuSans-6c" x="57.519531"/>
     <use xlink:href="#DejaVuSans-6f" x="85.302734"/>
     <use xlink:href="#DejaVuSans-77" x="146.484375"/>
     <use xlink:href="#DejaVuSans-20" x="228.271484"/>
     <use xlink:href="#DejaVuSans-6f" x="260.058594"/>
     <use xlink:href="#DejaVuSans-75" x="321.240234"/>
     <use xlink:href="#DejaVuSans-74" x="384.619141"/>
     <use xlink:href="#DejaVuSans-20" x="423.828125"/>
     <use xlink:href="#DejaVuSans-6f" x="455.615234"/>
     <use xlink:href="#DejaVuSans-66" x="516.796875"/>
     <use xlink:href="#DejaVuSans-20" x="552.001953"/>
     <use xlink:href="#DejaVuSans-50" x="583.789062"/>
     <use xlink:href="#DejaVuSans-32" x="644.091797"/>
    </g>
   </g>
  </g>
  <g id="axes_5">
   <g id="patch_23">
    <path d="M 86.718866 688.52 
L 709.2 688.52 
L 709.2 480.832157 
L 86.718866 480.832157 
z
" style="fill: #ffffff"/>
   </g>
   <g id="matplotlib.axis_9">
    <g id="xtick_1">
     <g id="line2d_38">
      <defs>
       <path id="m6296f1620c" d="M 0 0 
L 0 3.5 
" style="stroke: #000000; stroke-width: 0.8"/>
      </defs>
      <g>
       <use xlink:href="#m6296f1620c" x="115.011447" y="688.52" style="stroke: #000000; stroke-width: 0.8"/>
      </g>
     </g>
     <g id="text_30">
      <!-- 02-25 00 -->
      <g transform="translate(82.639572 706.46175) scale(0.144 -0.144)">
       <defs>
        <path id="DejaVuSans-2d" d="M 313 2009 
L 1997 2009 
L 1997 1497 
L 313 1497 
L 313 2009 
z
" transform="scale(0.015625)"/>
       </defs>
       <use xlink:href="#DejaVuSans-30"/>
       <use xlink:href="#DejaVuSans-32" x="63.623047"/>
       <use xlink:href="#DejaVuSans-2d" x="127.246094"/>
       <use xlink:href="#DejaVuSans-32" x="163.330078"/>
       <use xlink:href="#DejaVuSans-35" x="226.953125"/>
       <use xlink:href="#DejaVuSans-20" x="290.576172"/>
       <use xlink:href="#DejaVuSans-30" x="322.363281"/>
       <use xlink:href="#DejaVuSans-30" x="385.986328"/>
      </g>
     </g>
    </g>
    <g id="xtick_2">
     <g id="line2d_39">
      <g>
       <use xlink:href="#m6296f1620c" x="202.072056" y="688.52" style="stroke: #000000; stroke-width: 0.8"/>
      </g>
     </g>
     <g id="text_31">
      <!-- 02-25 12 -->
      <g transform="translate(169.700181 706.46175) scale(0.144 -0.144)">
       <use xlink:href="#DejaVuSans-30"/>
       <use xlink:href="#DejaVuSans-32" x="63.623047"/>
       <use xlink:href="#DejaVuSans-2d" x="127.246094"/>
       <use xlink:href="#DejaVuSans-32" x="163.330078"/>
       <use xlink:href="#DejaVuSans-35" x="226.953125"/>
       <use xlink:href="#DejaVuSans-20" x="290.576172"/>
       <use xlink:href="#DejaVuSans-31" x="322.363281"/>
       <use xlink:href="#DejaVuSans-32" x="385.986328"/>
      </g>
     </g>
    </g>
    <g id="xtick_3">
     <g id="line2d_40">
      <g>
       <use xlink:href="#m6296f1620c" x="289.132664" y="688.52" style="stroke: #000000; stroke-width: 0.8"/>
      </g>
     </g>
     <g id="text_32">
      <!-- 02-26 00 -->
      <g transform="translate(256.760789 706.46175) scale(0.144 -0.144)">
       <use xlink:href="#DejaVuSans-30"/>
       <use xlink:href="#DejaVuSans-32" x="63.623047"/>
       <use xlink:href="#DejaVuSans-2d" x="127.246094"/>
       <use xlink:href="#DejaVuSans-32" x="163.330078"/>
       <use xlink:href="#DejaVuSans-36" x="226.953125"/>
       <use xlink:href="#DejaVuSans-20" x="290.576172"/>
       <use xlink:href="#DejaVuSans-30" x="322.363281"/>
       <use xlink:href="#DejaVuSans-30" x="385.986328"/>
      </g>
     </g>
    </g>
    <g id="xtick_4">
     <g id="line2d_41">
      <g>
       <use xlink:href="#m6296f1620c" x="376.193273" y="688.52" style="stroke: #000000; stroke-width: 0.8"/>
      </g>
     </g>
     <g id="text_33">
      <!-- 02-26 12 -->
      <g transform="translate(343.821398 706.46175) scale(0.144 -0.144)">
       <use xlink:href="#DejaVuSans-30"/>
       <use xlink:href="#DejaVuSans-32" x="63.623047"/>
       <use xlink:href="#DejaVuSans-2d" x="127.246094"/>
       <use xlink:href="#DejaVuSans-32" x="163.330078"/>
       <use xlink:href="#DejaVuSans-36" x="226.953125"/>
       <use xlink:href="#DejaVuSans-20" x="290.576172"/>
       <use xlink:href="#DejaVuSans-31" x="322.363281"/>
       <use xlink:href="#DejaVuSans-32" x="385.986328"/>
      </g>
     </g>
    </g>
    <g id="xtick_5">
     <g id="line2d_42">
      <g>
       <use xlink:href="#m6296f1620c" x="463.253882" y="688.52" style="stroke: #000000; stroke-width: 0.8"/>
      </g>
     </g>
     <g id="text_34">
      <!-- 02-27 00 -->
      <g transform="translate(430.882007 706.46175) scale(0.144 -0.144)">
       <defs>
        <path id="DejaVuSans-37" d="M 525 4666 
L 3525 4666 
L 3525 4397 
L 1831 0 
L 1172 0 
L 2766 4134 
L 525 4134 
L 525 4666 
z
" transform="scale(0.015625)"/>
       </defs>
       <use xlink:href="#DejaVuSans-30"/>
       <use xlink:href="#DejaVuSans-32" x="63.623047"/>
       <use xlink:href="#DejaVuSans-2d" x="127.246094"/>
       <use xlink:href="#DejaVuSans-32" x="163.330078"/>
       <use xlink:href="#DejaVuSans-37" x="226.953125"/>
       <use xlink:href="#DejaVuSans-20" x="290.576172"/>
       <use xlink:href="#DejaVuSans-30" x="322.363281"/>
       <use xlink:href="#DejaVuSans-30" x="385.986328"/>
      </g>
     </g>
    </g>
    <g id="xtick_6">
     <g id="line2d_43">
      <g>
       <use xlink:href="#m6296f1620c" x="550.31449" y="688.52" style="stroke: #000000; stroke-width: 0.8"/>
      </g>
     </g>
     <g id="text_35">
      <!-- 02-27 12 -->
      <g transform="translate(517.942615 706.46175) scale(0.144 -0.144)">
       <use xlink:href="#DejaVuSans-30"/>
       <use xlink:href="#DejaVuSans-32" x="63.623047"/>
       <use xlink:href="#DejaVuSans-2d" x="127.246094"/>
       <use xlink:href="#DejaVuSans-32" x="163.330078"/>
       <use xlink:href="#DejaVuSans-37" x="226.953125"/>
       <use xlink:href="#DejaVuSans-20" x="290.576172"/>
       <use xlink:href="#DejaVuSans-31" x="322.363281"/>
       <use xlink:href="#DejaVuSans-32" x="385.986328"/>
      </g>
     </g>
    </g>
    <g id="xtick_7">
     <g id="line2d_44">
      <g>
       <use xlink:href="#m6296f1620c" x="637.375099" y="688.52" style="stroke: #000000; stroke-width: 0.8"/>
      </g>
     </g>
     <g id="text_36">
      <!-- 02-28 00 -->
      <g transform="translate(605.003224 706.46175) scale(0.144 -0.144)">
       <use xlink:href="#DejaVuSans-30"/>
       <use xlink:href="#DejaVuSans-32" x="63.623047"/>
       <use xlink:href="#DejaVuSans-2d" x="127.246094"/>
       <use xlink:href="#DejaVuSans-32" x="163.330078"/>
       <use xlink:href="#DejaVuSans-38" x="226.953125"/>
       <use xlink:href="#DejaVuSans-20" x="290.576172"/>
       <use xlink:href="#DejaVuSans-30" x="322.363281"/>
       <use xlink:href="#DejaVuSans-30" x="385.986328"/>
      </g>
     </g>
    </g>
   </g>
   <g id="matplotlib.axis_10">
    <g id="ytick_20">
     <g id="line2d_45">
      <g>
       <use xlink:href="#m13ce562157" x="86.718866" y="679.079643" style="stroke: #000000; stroke-width: 0.8"/>
      </g>
     </g>
     <g id="text_37">
      <!-- 0.0 -->
      <g transform="translate(56.818366 684.550518) scale(0.144 -0.144)">
       <use xlink:href="#DejaVuSans-30"/>
       <use xlink:href="#DejaVuSans-2e" x="63.623047"/>
       <use xlink:href="#DejaVuSans-30" x="95.410156"/>
      </g>
     </g>
    </g>
    <g id="ytick_21">
     <g id="line2d_46">
      <g>
       <use xlink:href="#m13ce562157" x="86.718866" y="623.972109" style="stroke: #000000; stroke-width: 0.8"/>
      </g>
     </g>
     <g id="text_38">
      <!-- 0.2 -->
      <g transform="translate(56.818366 629.442984) scale(0.144 -0.144)">
       <use xlink:href="#DejaVuSans-30"/>
       <use xlink:href="#DejaVuSans-2e" x="63.623047"/>
       <use xlink:href="#DejaVuSans-32" x="95.410156"/>
      </g>
     </g>
    </g>
    <g id="ytick_22">
     <g id="line2d_47">
      <g>
       <use xlink:href="#m13ce562157" x="86.718866" y="568.864575" style="stroke: #000000; stroke-width: 0.8"/>
      </g>
     </g>
     <g id="text_39">
      <!-- 0.4 -->
      <g transform="translate(56.818366 574.33545) scale(0.144 -0.144)">
       <use xlink:href="#DejaVuSans-30"/>
       <use xlink:href="#DejaVuSans-2e" x="63.623047"/>
       <use xlink:href="#DejaVuSans-34" x="95.410156"/>
      </g>
     </g>
    </g>
    <g id="ytick_23">
     <g id="line2d_48">
      <g>
       <use xlink:href="#m13ce562157" x="86.718866" y="513.757041" style="stroke: #000000; stroke-width: 0.8"/>
      </g>
     </g>
     <g id="text_40">
      <!-- 0.6 -->
      <g transform="translate(56.818366 519.227916) scale(0.144 -0.144)">
       <use xlink:href="#DejaVuSans-30"/>
       <use xlink:href="#DejaVuSans-2e" x="63.623047"/>
       <use xlink:href="#DejaVuSans-36" x="95.410156"/>
      </g>
     </g>
    </g>
    <g id="text_41">
     <!-- $m^3 / s$ -->
     <g transform="translate(11.427966 581.082378) scale(0.1728 -0.1728)">
      <use xlink:href="#DejaVuSans-Oblique-6d" transform="translate(0 0.765625)"/>
      <use xlink:href="#DejaVuSans-33" transform="translate(102.062005 39.046875) scale(0.7)"/>
      <use xlink:href="#DejaVuSans-2f" transform="translate(149.332513 0.765625)"/>
      <use xlink:href="#DejaVuSans-Oblique-73" transform="translate(183.023919 0.765625)"/>
     </g>
    </g>
   </g>
   <g id="line2d_49">
    <path d="M 115.013463 679.079643 
L 124.807781 678.974312 
L 125.472827 678.654993 
L 126.137874 678.06268 
L 126.857333 677.111584 
L 127.705771 675.629107 
L 128.759768 673.394017 
L 130.04754 670.143985 
L 130.950391 666.664002 
L 131.619468 663.247368 
L 132.957621 654.589755 
L 137.397309 620.734457 
L 138.64679 607.466001 
L 139.287653 598.668736 
L 139.749155 595.002577 
L 140.081678 593.021076 
L 141.186058 585.564356 
L 141.389603 584.371376 
L 141.911563 581.298678 
L 143.044157 575.030204 
L 143.281962 573.678354 
L 143.594332 572.119972 
L 143.731372 571.638511 
L 144.839782 566.627966 
L 144.99496 566.084646 
L 145.438324 564.333519 
L 145.591486 563.846535 
L 146.147707 561.914775 
L 146.433878 560.592772 
L 146.625331 560.173277 
L 146.740202 559.963193 
L 147.082802 558.425383 
L 147.233949 558.212495 
L 147.348821 558.003701 
L 149.027559 552.792483 
L 149.140415 552.674603 
L 149.384265 551.766852 
L 149.628116 551.107301 
L 149.740972 551.011891 
L 149.946532 550.304363 
L 150.244795 549.483825 
L 150.357651 549.344121 
L 150.617624 548.371886 
L 150.841321 547.819807 
L 150.952162 547.723099 
L 151.17586 546.95725 
L 151.435833 546.260614 
L 151.546674 546.182744 
L 151.750218 545.523593 
L 152.064604 544.687807 
L 152.175445 544.575927 
L 152.415264 543.740957 
L 152.673222 543.142369 
L 152.784063 543.020072 
L 152.987607 542.334741 
L 153.227427 541.597202 
L 153.263702 541.607947 
L 153.374543 541.539447 
L 153.576072 540.906583 
L 153.86829 540.182844 
L 153.979131 540.081781 
L 154.198798 539.358022 
L 154.472877 538.712294 
L 154.583718 538.614055 
L 154.803385 537.900661 
L 155.039174 537.1872 
L 155.093587 537.202482 
L 155.204428 537.102987 
L 155.42208 536.391004 
L 155.641747 535.75812 
L 155.678022 535.768972 
L 155.786848 535.708975 
L 155.968224 535.179316 
L 156.258426 534.350544 
L 156.294701 534.362658 
L 156.403527 534.280914 
L 156.621178 533.5993 
L 156.893243 532.980123 
L 157.002069 532.889951 
L 157.21972 532.211461 
L 157.471632 531.530222 
L 157.507907 531.540508 
L 157.616733 531.448383 
L 157.834384 530.769542 
L 158.068158 530.164235 
L 158.086296 530.17043 
L 158.211244 530.098384 
L 158.410758 529.506453 
L 158.662669 528.771248 
L 158.715067 528.804268 
L 158.860168 528.787866 
L 159.21889 528.451618 
L 159.255165 528.525545 
L 159.595749 529.178409 
L 159.883936 529.431135 
L 160.226536 530.246637 
L 160.53286 530.675732 
L 160.821047 531.31492 
L 161.147524 531.769468 
L 161.417573 532.29149 
L 161.762188 532.679894 
L 162.0141 533.089129 
L 162.358714 533.396154 
L 162.594504 533.735024 
L 162.957256 533.964318 
L 163.193045 534.226839 
L 163.573935 534.379002 
L 163.791587 534.575684 
L 164.172477 534.663048 
L 164.392144 534.824293 
L 164.773034 534.846064 
L 164.972548 534.963167 
L 165.407851 534.940913 
L 165.589227 534.995777 
L 165.972133 534.911492 
L 166.699653 536.448329 
L 168.309871 541.58577 
L 170.675824 547.744999 
L 170.824956 548.007788 
L 171.27235 548.899787 
L 171.608904 549.515614 
L 172.429128 550.79181 
L 173.273535 551.950839 
L 173.89223 553.745886 
L 175.520586 560.387664 
L 175.712038 560.971555 
L 176.786189 564.915668 
L 176.997795 565.602437 
L 177.96715 568.673245 
L 178.14248 569.083656 
L 178.882092 571.159644 
L 179.76479 573.451178 
L 179.960274 573.789477 
L 181.69947 577.728032 
L 181.997734 578.444652 
L 182.414899 579.253875 
L 184.017056 582.572301 
L 184.218585 582.807264 
L 185.875155 585.803757 
L 186.056531 585.998894 
L 188.341872 589.579417 
L 188.505111 589.740916 
L 189.657858 591.35096 
L 189.925892 591.839259 
L 190.151605 592.096187 
L 190.316858 592.23594 
L 191.332566 593.717247 
L 191.497819 593.783095 
L 191.788022 594.335911 
L 191.955291 594.482708 
L 192.120545 594.55732 
L 192.392609 595.076825 
L 192.557863 595.229257 
L 192.725132 595.305199 
L 193.853696 596.717378 
L 194.020965 596.927312 
L 194.397824 597.45381 
L 194.544941 597.519349 
L 194.796852 598.00566 
L 194.966137 598.150012 
L 195.133406 598.196593 
L 195.387333 598.681383 
L 195.554602 598.882993 
L 195.57677 598.872672 
L 195.723887 598.889544 
L 195.955645 599.306077 
L 196.167251 599.603569 
L 196.187404 599.592057 
L 196.356688 599.625285 
L 196.590462 600.070544 
L 196.759747 600.280619 
L 196.779899 600.270241 
L 196.949184 600.309734 
L 197.182958 600.762998 
L 197.352242 601.028363 
L 197.394563 601.003591 
L 197.563848 601.024753 
L 197.797622 601.480775 
L 197.968922 601.69463 
L 197.989075 601.682103 
L 198.160374 601.710911 
L 198.436469 602.279115 
L 198.565448 602.450123 
L 198.607769 602.421558 
L 198.756901 602.424947 
L 198.948354 602.776987 
L 199.161974 603.154365 
L 199.204296 603.123373 
L 199.375595 603.128868 
L 199.589216 603.555474 
L 199.762531 603.842757 
L 199.804853 603.81504 
L 199.953984 603.806807 
L 200.147452 604.164402 
L 200.383241 604.611662 
L 200.425562 604.577035 
L 200.576709 604.567805 
L 200.770177 604.940341 
L 200.985814 605.341984 
L 201.028135 605.305378 
L 201.179282 605.292752 
L 201.37275 605.673977 
L 201.568233 606.094086 
L 201.632722 606.046964 
L 201.783869 606.031421 
L 201.977337 606.42236 
L 202.172821 606.853674 
L 202.23731 606.804291 
L 202.388457 606.78635 
L 202.58394 607.188132 
L 202.779423 607.631669 
L 202.843913 607.580143 
L 202.997075 607.560446 
L 203.192558 607.97436 
L 203.388041 608.431245 
L 203.452531 608.377722 
L 203.583525 608.335783 
L 203.605693 608.357015 
L 203.801176 608.784475 
L 203.998675 609.187977 
L 204.043011 609.148833 
L 204.174005 609.103811 
L 204.194158 609.124219 
L 204.369489 609.495949 
L 204.611324 610.040624 
L 204.653645 610.000862 
L 204.786654 609.97342 
L 204.806807 609.998032 
L 205.004306 610.462061 
L 205.201804 610.966582 
L 205.268309 610.908554 
L 205.401318 610.866493 
L 205.421471 610.890869 
L 205.620985 611.368357 
L 205.818483 611.817046 
L 205.86282 611.775173 
L 205.995829 611.732829 
L 206.017997 611.756838 
L 206.193328 612.17642 
L 206.41501 612.718833 
L 206.459346 612.684095 
L 206.592356 612.662151 
L 206.614524 612.689444 
L 206.814038 613.205273 
L 207.03572 613.768301 
L 207.080056 613.726857 
L 207.213065 613.713503 
L 207.390411 614.148141 
L 207.636277 614.804723 
L 207.680613 614.763864 
L 207.79347 614.734451 
L 207.815638 614.758464 
L 207.992983 615.216838 
L 208.240864 615.903496 
L 208.285201 615.863942 
L 208.396042 615.842439 
L 208.420225 615.869076 
L 208.599586 616.353966 
L 208.845452 617.073407 
L 208.891804 617.035932 
L 209.00466 617.024836 
L 209.026828 617.054592 
L 209.206189 617.569068 
L 209.456085 618.324146 
L 209.52259 618.271894 
L 209.637462 618.325415 
L 209.841006 618.960581 
L 210.044551 619.581437 
L 210.090902 619.55892 
L 210.205774 619.575823 
L 210.364982 620.006983 
L 210.685413 621.018471 
L 210.72975 621.00043 
L 210.844621 621.108781 
L 211.052196 621.834007 
L 211.28194 622.519532 
L 211.306123 622.512299 
L 211.420995 622.573899 
L 211.606402 623.173207 
L 211.930864 624.116475 
L 212.045735 624.273681 
L 212.279509 625.18815 
L 212.537467 625.878111 
L 212.654353 626.069299 
L 212.914326 627.149488 
L 213.150115 627.780464 
L 213.269018 628.029303 
L 214.056997 631.222754 
L 214.671661 637.845842 
L 215.04852 639.857208 
L 216.054151 643.911109 
L 217.410442 647.895553 
L 218.474516 650.353895 
L 220.927127 654.499348 
L 222.027476 655.954612 
L 223.385783 657.502753 
L 227.893991 661.651677 
L 229.552576 662.913063 
L 232.468703 664.874523 
L 236.890253 667.440116 
L 241.688663 669.815412 
L 244.870809 671.197422 
L 249.880825 673.093905 
L 254.181458 674.471295 
L 259.193489 675.800221 
L 263.826645 676.77224 
L 267.945901 677.429835 
L 272.117555 677.883901 
L 277.196091 678.183317 
L 286.083528 678.457601 
L 301.440052 678.686579 
L 330.460255 678.866524 
L 393.035067 678.990188 
L 571.146562 679.057863 
L 680.905403 679.067287 
L 680.905403 679.067287 
" clip-path="url(#p05b1aab320)" style="fill: none; stroke: #0000ff; stroke-opacity: 0.6; stroke-width: 3; stroke-linecap: square"/>
   </g>
   <g id="line2d_50">
    <path d="M 115.013463 679.079643 
L 124.807781 678.974312 
L 125.472827 678.654946 
L 126.137874 678.061626 
L 126.857333 677.106574 
L 127.802505 675.419644 
L 128.967344 672.844787 
L 130.001188 670.139266 
L 130.553378 667.989477 
L 131.240593 664.443094 
L 132.334896 657.301716 
L 133.632744 647.432613 
L 136.514612 624.839782 
L 137.770138 614.241526 
L 140.009128 590.128908 
L 141.498428 575.453932 
L 143.263824 560.537734 
L 144.342005 552.698906 
L 146.03485 542.849931 
L 147.518105 535.590128 
L 149.59184 526.493223 
L 153.344314 511.437235 
L 157.443418 495.566842 
L 158.789633 490.510005 
L 159.027437 490.272513 
L 159.214859 490.401037 
L 159.571566 491.093461 
L 160.337377 493.404931 
L 162.392974 499.390142 
L 163.495339 501.539408 
L 164.168447 502.480645 
L 164.841554 503.166434 
L 165.706114 503.71218 
L 166.052744 503.967678 
L 166.278457 504.598158 
L 166.780265 507.035835 
L 167.634749 512.24817 
L 169.631903 523.659056 
L 170.99424 529.812213 
L 172.277981 534.496999 
L 173.608074 539.187225 
L 174.305365 543.946361 
L 175.403699 552.215669 
L 176.747898 561.668154 
L 178.785358 573.761096 
L 180.574938 582.457026 
L 183.063823 593.147387 
L 184.52491 598.591205 
L 187.195171 607.130399 
L 189.542986 613.46831 
L 191.584477 618.308329 
L 193.456683 622.314653 
L 197.138621 629.228784 
L 200.111177 634.082893 
L 202.513405 637.624602 
L 204.532727 640.380052 
L 208.476653 645.253185 
L 211.366582 648.459677 
L 216.277848 653.312229 
L 219.480147 656.125365 
L 224.43575 660.010417 
L 227.565498 662.204106 
L 231.801641 664.884692 
L 236.749183 667.637055 
L 239.852732 669.174347 
L 245.59833 671.664793 
L 250.271791 673.375516 
L 254.314467 674.641388 
L 258.931501 675.85366 
L 263.423586 676.799273 
L 268.105109 677.539064 
L 272.276763 677.972044 
L 277.536675 678.258807 
L 286.786865 678.51469 
L 303.594399 678.730566 
L 336.242127 678.896292 
L 410.485479 679.00803 
L 642.707561 679.065136 
L 680.905403 679.067532 
L 680.905403 679.067532 
" clip-path="url(#p05b1aab320)" style="fill: none; stroke: #000000; stroke-opacity: 0.6; stroke-width: 3; stroke-linecap: square"/>
   </g>
   <g id="line2d_51">
    <path d="M 115.013463 679.079643 
L 124.807781 678.974312 
L 125.472827 678.654993 
L 126.137874 678.06268 
L 126.857333 677.111585 
L 127.705771 675.629109 
L 128.759768 673.39402 
L 130.04754 670.143992 
L 130.7408 667.364011 
L 131.643651 662.441765 
L 132.967698 653.76669 
L 137.893071 615.846282 
L 138.838243 604.356948 
L 139.432754 597.451148 
L 140.571394 589.417593 
L 140.797107 587.923072 
L 141.242486 585.177054 
L 141.506489 583.307278 
L 141.826921 581.610551 
L 142.068756 580.079553 
L 142.387172 578.325963 
L 142.54638 577.584064 
L 143.019974 575.028588 
L 143.217472 574.00599 
L 143.668898 571.829998 
L 144.001421 569.869199 
L 144.215042 569.15501 
L 144.390372 568.472005 
L 144.815599 566.603809 
L 144.950623 566.199079 
L 146.008652 562.138505 
L 146.123523 561.933856 
L 146.371404 560.824639 
L 146.639438 560.056749 
L 146.75431 559.837605 
L 147.892949 556.256058 
L 148.062234 555.720697 
L 148.439094 554.512953 
L 148.55195 554.343592 
L 148.777663 553.455164 
L 149.041666 552.775632 
L 149.154522 552.616511 
L 149.434648 551.500482 
L 149.642223 551.091484 
L 149.753064 550.941133 
L 149.978776 550.099576 
L 150.238749 549.387797 
L 150.351605 549.282843 
L 150.575303 548.489286 
L 150.835276 547.794216 
L 150.948132 547.709693 
L 151.151676 547.026264 
L 151.447924 546.186629 
L 151.558765 546.092542 
L 151.744172 545.48378 
L 152.078711 544.66249 
L 152.189552 544.505439 
L 152.483784 543.392516 
L 152.630901 543.112994 
L 152.651054 543.117683 
L 152.759879 543.045876 
L 152.927148 542.545575 
L 153.275794 541.60298 
L 153.386635 541.480627 
L 153.644592 540.573179 
L 153.827984 540.079889 
L 153.864259 540.093437 
L 153.973085 540.025149 
L 154.174614 539.392499 
L 154.430556 538.612213 
L 154.468847 538.625784 
L 154.577673 538.559663 
L 154.779202 537.935975 
L 155.035144 537.164387 
L 155.071419 537.177915 
L 155.180245 537.113697 
L 155.379759 536.498494 
L 155.635701 535.735057 
L 155.671976 535.748934 
L 155.780802 535.699826 
L 155.962178 535.175414 
L 156.288655 534.356525 
L 156.399496 534.261407 
L 156.617148 533.564834 
L 156.850922 532.883672 
L 156.887197 532.896803 
L 156.996023 532.837091 
L 157.177399 532.311957 
L 157.447448 531.504176 
L 157.501861 531.523599 
L 157.610687 531.441587 
L 157.828338 530.765527 
L 158.062112 530.097124 
L 158.098387 530.109749 
L 158.205198 530.05185 
L 158.386574 529.538484 
L 158.656623 528.749192 
L 158.709021 528.785412 
L 158.872259 528.765034 
L 159.230981 528.452812 
L 159.249119 528.484512 
L 159.680392 529.235229 
L 159.87789 529.440902 
L 160.22049 530.27861 
L 160.544952 530.765218 
L 160.815001 531.371502 
L 161.159616 531.86973 
L 161.429665 532.348746 
L 161.756142 532.7101 
L 162.010069 533.142503 
L 162.370806 533.480769 
L 162.606595 533.777267 
L 162.969348 533.994032 
L 163.205137 534.253086 
L 163.56789 534.400215 
L 163.785541 534.612301 
L 164.186584 534.720364 
L 164.386098 534.844993 
L 164.785126 534.855642 
L 164.98464 534.967694 
L 165.385683 534.930378 
L 165.585197 535.020356 
L 165.984224 534.960602 
L 166.657332 536.346726 
L 167.588397 539.423708 
L 169.557337 545.200261 
L 170.689931 547.824995 
L 170.800772 548.007227 
L 171.379161 549.081211 
L 172.126834 550.388321 
L 172.537954 550.95207 
L 172.687085 551.186027 
L 173.098205 551.751053 
L 173.231214 551.899084 
L 173.79348 553.423499 
L 174.623781 556.783246 
L 175.401683 560.031622 
L 176.300504 563.263238 
L 177.400853 566.998423 
L 177.691055 567.92929 
L 178.547554 570.485641 
L 178.799465 571.004347 
L 179.76076 573.538231 
L 179.917952 573.760189 
L 184.015041 582.645225 
L 184.176264 582.799443 
L 184.55917 583.68745 
L 185.264522 584.836841 
L 185.447913 585.049164 
L 186.501911 586.864411 
L 186.66515 587.03736 
L 187.70504 588.715614 
L 187.868279 588.87045 
L 188.914215 590.472675 
L 189.079469 590.605184 
L 190.149589 592.14735 
L 190.29469 592.259014 
L 191.393024 593.762221 
L 191.538125 593.892777 
L 192.035902 594.53309 
L 192.203172 594.742304 
L 192.578016 595.273222 
L 192.723117 595.355353 
L 192.995181 595.885393 
L 193.162451 596.025672 
L 193.307552 596.070225 
L 193.53931 596.487215 
L 193.769053 596.764576 
L 193.91617 596.801964 
L 194.166066 597.265607 
L 194.375656 597.496519 
L 194.522773 597.540203 
L 194.754531 597.967455 
L 194.943969 598.206994 
L 194.964122 598.19677 
L 195.111238 598.22083 
L 195.322843 598.594408 
L 195.532434 598.9396 
L 195.574755 598.918559 
L 195.723887 598.936103 
L 195.955645 599.358795 
L 196.145083 599.660373 
L 196.187404 599.637195 
L 196.33452 599.648418 
L 196.546126 600.026654 
L 196.757731 600.326164 
L 196.779899 600.314816 
L 196.927016 600.331668 
L 197.140637 600.716985 
L 197.352242 601.074816 
L 197.394563 601.047531 
L 197.543695 601.046926 
L 197.777469 601.481691 
L 197.946753 601.749881 
L 197.989075 601.725484 
L 198.138206 601.731715 
L 198.329659 602.076902 
L 198.565448 602.495309 
L 198.607769 602.464347 
L 198.756901 602.468781 
L 198.990675 602.927097 
L 199.161974 603.198818 
L 199.204296 603.165439 
L 199.355442 603.149056 
L 199.569063 603.551707 
L 199.760516 603.886614 
L 199.804853 603.856651 
L 199.953984 603.849075 
L 200.147452 604.211261 
L 200.361073 604.664596 
L 200.425562 604.618096 
L 200.576709 604.609843 
L 200.770177 604.986815 
L 200.963645 605.394716 
L 201.028135 605.34577 
L 201.179282 605.334118 
L 201.37275 605.719723 
L 201.568233 606.137945 
L 201.632722 606.086721 
L 201.783869 606.072142 
L 201.977337 606.46739 
L 202.172821 606.896852 
L 202.23731 606.843427 
L 202.390472 606.826436 
L 202.606108 607.290529 
L 202.779423 607.674179 
L 202.845928 607.618664 
L 202.974907 607.578891 
L 202.997075 607.599892 
L 203.192558 608.017981 
L 203.388041 608.473061 
L 203.454546 608.415596 
L 203.583525 608.374106 
L 203.605693 608.395799 
L 203.803192 608.827371 
L 203.976507 609.236161 
L 204.020843 609.208946 
L 204.196174 609.162067 
L 204.413825 609.662645 
L 204.589155 610.08825 
L 204.65566 610.037627 
L 204.786654 610.010622 
L 204.808822 610.035668 
L 205.006321 610.503575 
L 205.203819 611.006295 
L 205.268309 610.944485 
L 205.401318 610.902797 
L 205.423486 610.927605 
L 205.620985 611.408947 
L 205.798331 611.862967 
L 205.86282 611.810851 
L 205.995829 611.787807 
L 206.173175 612.185409 
L 206.392842 612.794535 
L 206.459346 612.741943 
L 206.592356 612.703158 
L 206.614524 612.729252 
L 206.814038 613.243308 
L 207.013552 613.810878 
L 207.082071 613.759519 
L 207.192913 613.724365 
L 207.215081 613.746557 
L 207.392426 614.184548 
L 207.616124 614.845873 
L 207.682628 614.795711 
L 207.79347 614.766287 
L 207.815638 614.790661 
L 207.994999 615.252276 
L 208.240864 615.96692 
L 208.285201 615.938461 
L 208.420225 615.950882 
L 208.599586 616.429838 
L 208.847467 617.172213 
L 208.891804 617.146091 
L 209.028843 617.168268 
L 209.208204 617.670618 
L 209.458101 618.441557 
L 209.502437 618.417258 
L 209.639477 618.453569 
L 209.843021 619.071775 
L 210.070749 619.703835 
L 210.092918 619.693714 
L 210.229957 619.746459 
L 210.435517 620.390219 
L 210.687429 621.151477 
L 210.709597 621.144661 
L 210.824468 621.200398 
L 211.00786 621.762 
L 211.35449 622.651573 
L 211.469362 622.835188 
L 211.747472 623.936945 
L 211.932879 624.271914 
L 212.049766 624.412064 
L 212.28354 625.298611 
L 212.541497 626.01284 
L 212.658384 626.219731 
L 212.940525 627.403715 
L 213.154146 627.925976 
L 213.273048 628.157504 
L 214.061027 631.227537 
L 215.131147 640.325747 
L 215.876805 643.352175 
L 216.852206 646.50142 
L 218.234697 649.927541 
L 219.175838 651.790497 
L 220.620802 654.143532 
L 221.981124 655.976446 
L 223.998431 658.235578 
L 226.255558 660.342125 
L 229.411505 662.816402 
L 232.656125 664.989964 
L 236.771351 667.375145 
L 241.861978 669.894033 
L 244.894993 671.206883 
L 249.907024 673.102828 
L 254.209672 674.479395 
L 259.175351 675.795443 
L 263.804476 676.768206 
L 267.923733 677.426749 
L 272.095387 677.882074 
L 277.173923 678.182317 
L 286.000901 678.455755 
L 301.357425 678.68574 
L 330.196252 678.865523 
L 391.864183 678.989002 
L 567.013199 679.057325 
L 680.905403 679.067287 
L 680.905403 679.067287 
" clip-path="url(#p05b1aab320)" style="fill: none; stroke: #008000; stroke-opacity: 0.6; stroke-width: 3; stroke-linecap: square"/>
   </g>
   <g id="line2d_52">
    <path d="M 86.718866 610.195226 
L 709.2 610.195226 
" clip-path="url(#p05b1aab320)" style="fill: none; stroke-dasharray: 11.1,4.8; stroke-dashoffset: 0; stroke: #ff0000; stroke-width: 3"/>
   </g>
   <g id="patch_24">
    <path d="M 86.718866 688.52 
L 86.718866 480.832157 
" style="fill: none; stroke: #000000; stroke-width: 0.8; stroke-linejoin: miter; stroke-linecap: square"/>
   </g>
   <g id="patch_25">
    <path d="M 709.2 688.52 
L 709.2 480.832157 
" style="fill: none; stroke: #000000; stroke-width: 0.8; stroke-linejoin: miter; stroke-linecap: square"/>
   </g>
   <g id="patch_26">
    <path d="M 86.718866 688.52 
L 709.2 688.52 
" style="fill: none; stroke: #000000; stroke-width: 0.8; stroke-linejoin: miter; stroke-linecap: square"/>
   </g>
   <g id="patch_27">
    <path d="M 86.718866 480.832157 
L 709.2 480.832157 
" style="fill: none; stroke: #000000; stroke-width: 0.8; stroke-linejoin: miter; stroke-linecap: square"/>
   </g>
   <g id="text_42">
    <!-- Cost Difference from Uncontrolled -->
    <g transform="translate(375.29486 570.094458) scale(0.1728 -0.1728)">
     <defs>
      <path id="DejaVuSans-43" d="M 4122 4306 
L 4122 3641 
Q 3803 3938 3442 4084 
Q 3081 4231 2675 4231 
Q 1875 4231 1450 3742 
Q 1025 3253 1025 2328 
Q 1025 1406 1450 917 
Q 1875 428 2675 428 
Q 3081 428 3442 575 
Q 3803 722 4122 1019 
L 4122 359 
Q 3791 134 3420 21 
Q 3050 -91 2638 -91 
Q 1578 -91 968 557 
Q 359 1206 359 2328 
Q 359 3453 968 4101 
Q 1578 4750 2638 4750 
Q 3056 4750 3426 4639 
Q 3797 4528 4122 4306 
z
" transform="scale(0.015625)"/>
      <path id="DejaVuSans-6d" d="M 3328 2828 
Q 3544 3216 3844 3400 
Q 4144 3584 4550 3584 
Q 5097 3584 5394 3201 
Q 5691 2819 5691 2113 
L 5691 0 
L 5113 0 
L 5113 2094 
Q 5113 2597 4934 2840 
Q 4756 3084 4391 3084 
Q 3944 3084 3684 2787 
Q 3425 2491 3425 1978 
L 3425 0 
L 2847 0 
L 2847 2094 
Q 2847 2600 2669 2842 
Q 2491 3084 2119 3084 
Q 1678 3084 1418 2786 
Q 1159 2488 1159 1978 
L 1159 0 
L 581 0 
L 581 3500 
L 1159 3500 
L 1159 2956 
Q 1356 3278 1631 3431 
Q 1906 3584 2284 3584 
Q 2666 3584 2933 3390 
Q 3200 3197 3328 2828 
z
" transform="scale(0.015625)"/>
      <path id="DejaVuSans-55" d="M 556 4666 
L 1191 4666 
L 1191 1831 
Q 1191 1081 1462 751 
Q 1734 422 2344 422 
Q 2950 422 3222 751 
Q 3494 1081 3494 1831 
L 3494 4666 
L 4128 4666 
L 4128 1753 
Q 4128 841 3676 375 
Q 3225 -91 2344 -91 
Q 1459 -91 1007 375 
Q 556 841 556 1753 
L 556 4666 
z
" transform="scale(0.015625)"/>
     </defs>
     <use xlink:href="#DejaVuSans-43"/>
     <use xlink:href="#DejaVuSans-6f" x="69.824219"/>
     <use xlink:href="#DejaVuSans-73" x="131.005859"/>
     <use xlink:href="#DejaVuSans-74" x="183.105469"/>
     <use xlink:href="#DejaVuSans-20" x="222.314453"/>
     <use xlink:href="#DejaVuSans-44" x="254.101562"/>
     <use xlink:href="#DejaVuSans-69" x="331.103516"/>
     <use xlink:href="#DejaVuSans-66" x="358.886719"/>
     <use xlink:href="#DejaVuSans-66" x="394.091797"/>
     <use xlink:href="#DejaVuSans-65" x="429.296875"/>
     <use xlink:href="#DejaVuSans-72" x="490.820312"/>
     <use xlink:href="#DejaVuSans-65" x="529.683594"/>
     <use xlink:href="#DejaVuSans-6e" x="591.207031"/>
     <use xlink:href="#DejaVuSans-63" x="654.585938"/>
     <use xlink:href="#DejaVuSans-65" x="709.566406"/>
     <use xlink:href="#DejaVuSans-20" x="771.089844"/>
     <use xlink:href="#DejaVuSans-66" x="802.876953"/>
     <use xlink:href="#DejaVuSans-72" x="838.082031"/>
     <use xlink:href="#DejaVuSans-6f" x="876.945312"/>
     <use xlink:href="#DejaVuSans-6d" x="938.126953"/>
     <use xlink:href="#DejaVuSans-20" x="1035.539062"/>
     <use xlink:href="#DejaVuSans-55" x="1067.326172"/>
     <use xlink:href="#DejaVuSans-6e" x="1140.519531"/>
     <use xlink:href="#DejaVuSans-63" x="1203.898438"/>
     <use xlink:href="#DejaVuSans-6f" x="1258.878906"/>
     <use xlink:href="#DejaVuSans-6e" x="1320.060547"/>
     <use xlink:href="#DejaVuSans-74" x="1383.439453"/>
     <use xlink:href="#DejaVuSans-72" x="1422.648438"/>
     <use xlink:href="#DejaVuSans-6f" x="1461.511719"/>
     <use xlink:href="#DejaVuSans-6c" x="1522.693359"/>
     <use xlink:href="#DejaVuSans-6c" x="1550.476562"/>
     <use xlink:href="#DejaVuSans-65" x="1578.259766"/>
     <use xlink:href="#DejaVuSans-64" x="1639.783203"/>
    </g>
    <!-- Constant Flow = -21.7% -->
    <g transform="translate(417.85091 589.444278) scale(0.1728 -0.1728)">
     <defs>
      <path id="DejaVuSans-3d" d="M 678 2906 
L 4684 2906 
L 4684 2381 
L 678 2381 
L 678 2906 
z
M 678 1631 
L 4684 1631 
L 4684 1100 
L 678 1100 
L 678 1631 
z
" transform="scale(0.015625)"/>
      <path id="DejaVuSans-25" d="M 4653 2053 
Q 4381 2053 4226 1822 
Q 4072 1591 4072 1178 
Q 4072 772 4226 539 
Q 4381 306 4653 306 
Q 4919 306 5073 539 
Q 5228 772 5228 1178 
Q 5228 1588 5073 1820 
Q 4919 2053 4653 2053 
z
M 4653 2450 
Q 5147 2450 5437 2106 
Q 5728 1763 5728 1178 
Q 5728 594 5436 251 
Q 5144 -91 4653 -91 
Q 4153 -91 3862 251 
Q 3572 594 3572 1178 
Q 3572 1766 3864 2108 
Q 4156 2450 4653 2450 
z
M 1428 4353 
Q 1159 4353 1004 4120 
Q 850 3888 850 3481 
Q 850 3069 1003 2837 
Q 1156 2606 1428 2606 
Q 1700 2606 1854 2837 
Q 2009 3069 2009 3481 
Q 2009 3884 1853 4118 
Q 1697 4353 1428 4353 
z
M 4250 4750 
L 4750 4750 
L 1831 -91 
L 1331 -91 
L 4250 4750 
z
M 1428 4750 
Q 1922 4750 2215 4408 
Q 2509 4066 2509 3481 
Q 2509 2891 2217 2550 
Q 1925 2209 1428 2209 
Q 931 2209 642 2551 
Q 353 2894 353 3481 
Q 353 4063 643 4406 
Q 934 4750 1428 4750 
z
" transform="scale(0.015625)"/>
     </defs>
     <use xlink:href="#DejaVuSans-43"/>
     <use xlink:href="#DejaVuSans-6f" x="69.824219"/>
     <use xlink:href="#DejaVuSans-6e" x="131.005859"/>
     <use xlink:href="#DejaVuSans-73" x="194.384766"/>
     <use xlink:href="#DejaVuSans-74" x="246.484375"/>
     <use xlink:href="#DejaVuSans-61" x="285.693359"/>
     <use xlink:href="#DejaVuSans-6e" x="346.972656"/>
     <use xlink:href="#DejaVuSans-74" x="410.351562"/>
     <use xlink:href="#DejaVuSans-20" x="449.560547"/>
     <use xlink:href="#DejaVuSans-46" x="481.347656"/>
     <use xlink:href="#DejaVuSans-6c" x="538.867188"/>
     <use xlink:href="#DejaVuSans-6f" x="566.650391"/>
     <use xlink:href="#DejaVuSans-77" x="627.832031"/>
     <use xlink:href="#DejaVuSans-20" x="709.619141"/>
     <use xlink:href="#DejaVuSans-3d" x="741.40625"/>
     <use xlink:href="#DejaVuSans-20" x="825.195312"/>
     <use xlink:href="#DejaVuSans-2d" x="856.982422"/>
     <use xlink:href="#DejaVuSans-32" x="893.066406"/>
     <use xlink:href="#DejaVuSans-31" x="956.689453"/>
     <use xlink:href="#DejaVuSans-2e" x="1020.3125"/>
     <use xlink:href="#DejaVuSans-37" x="1052.099609"/>
     <use xlink:href="#DejaVuSans-25" x="1115.722656"/>
    </g>
    <!-- Equal Filling = -21.6% -->
    <g transform="translate(427.39406 608.794098) scale(0.1728 -0.1728)">
     <defs>
      <path id="DejaVuSans-45" d="M 628 4666 
L 3578 4666 
L 3578 4134 
L 1259 4134 
L 1259 2753 
L 3481 2753 
L 3481 2222 
L 1259 2222 
L 1259 531 
L 3634 531 
L 3634 0 
L 628 0 
L 628 4666 
z
" transform="scale(0.015625)"/>
     </defs>
     <use xlink:href="#DejaVuSans-45"/>
     <use xlink:href="#DejaVuSans-71" x="63.183594"/>
     <use xlink:href="#DejaVuSans-75" x="126.660156"/>
     <use xlink:href="#DejaVuSans-61" x="190.039062"/>
     <use xlink:href="#DejaVuSans-6c" x="251.318359"/>
     <use xlink:href="#DejaVuSans-20" x="279.101562"/>
     <use xlink:href="#DejaVuSans-46" x="310.888672"/>
     <use xlink:href="#DejaVuSans-69" x="361.158203"/>
     <use xlink:href="#DejaVuSans-6c" x="388.941406"/>
     <use xlink:href="#DejaVuSans-6c" x="416.724609"/>
     <use xlink:href="#DejaVuSans-69" x="444.507812"/>
     <use xlink:href="#DejaVuSans-6e" x="472.291016"/>
     <use xlink:href="#DejaVuSans-67" x="535.669922"/>
     <use xlink:href="#DejaVuSans-20" x="599.146484"/>
     <use xlink:href="#DejaVuSans-3d" x="630.933594"/>
     <use xlink:href="#DejaVuSans-20" x="714.722656"/>
     <use xlink:href="#DejaVuSans-2d" x="746.509766"/>
     <use xlink:href="#DejaVuSans-32" x="782.59375"/>
     <use xlink:href="#DejaVuSans-31" x="846.216797"/>
     <use xlink:href="#DejaVuSans-2e" x="909.839844"/>
     <use xlink:href="#DejaVuSans-36" x="941.626953"/>
     <use xlink:href="#DejaVuSans-25" x="1005.25"/>
    </g>
   </g>
   <g id="text_43">
    <!-- Flow at 8 -->
    <g transform="translate(358.566433 516.369725) scale(0.1728 -0.1728)">
     <use xlink:href="#DejaVuSans-46"/>
     <use xlink:href="#DejaVuSans-6c" x="57.519531"/>
     <use xlink:href="#DejaVuSans-6f" x="85.302734"/>
     <use xlink:href="#DejaVuSans-77" x="146.484375"/>
     <use xlink:href="#DejaVuSans-20" x="228.271484"/>
     <use xlink:href="#DejaVuSans-61" x="260.058594"/>
     <use xlink:href="#DejaVuSans-74" x="321.337891"/>
     <use xlink:href="#DejaVuSans-20" x="360.546875"/>
     <use xlink:href="#DejaVuSans-38" x="392.333984"/>
    </g>
   </g>
  </g>
  <g id="text_44">
   <!-- Scenario Theta | Version 2 | Level 1 -->
   <g transform="translate(182.996875 29.684375) scale(0.2 -0.2)">
    <defs>
     <path id="DejaVuSans-53" d="M 3425 4513 
L 3425 3897 
Q 3066 4069 2747 4153 
Q 2428 4238 2131 4238 
Q 1616 4238 1336 4038 
Q 1056 3838 1056 3469 
Q 1056 3159 1242 3001 
Q 1428 2844 1947 2747 
L 2328 2669 
Q 3034 2534 3370 2195 
Q 3706 1856 3706 1288 
Q 3706 609 3251 259 
Q 2797 -91 1919 -91 
Q 1588 -91 1214 -16 
Q 841 59 441 206 
L 441 856 
Q 825 641 1194 531 
Q 1563 422 1919 422 
Q 2459 422 2753 634 
Q 3047 847 3047 1241 
Q 3047 1584 2836 1778 
Q 2625 1972 2144 2069 
L 1759 2144 
Q 1053 2284 737 2584 
Q 422 2884 422 3419 
Q 422 4038 858 4394 
Q 1294 4750 2059 4750 
Q 2388 4750 2728 4690 
Q 3069 4631 3425 4513 
z
" transform="scale(0.015625)"/>
     <path id="DejaVuSans-7c" d="M 1344 4891 
L 1344 -1509 
L 813 -1509 
L 813 4891 
L 1344 4891 
z
" transform="scale(0.015625)"/>
     <path id="DejaVuSans-56" d="M 1831 0 
L 50 4666 
L 709 4666 
L 2188 738 
L 3669 4666 
L 4325 4666 
L 2547 0 
L 1831 0 
z
" transform="scale(0.015625)"/>
     <path id="DejaVuSans-4c" d="M 628 4666 
L 1259 4666 
L 1259 531 
L 3531 531 
L 3531 0 
L 628 0 
L 628 4666 
z
" transform="scale(0.015625)"/>
     <path id="DejaVuSans-76" d="M 191 3500 
L 800 3500 
L 1894 563 
L 2988 3500 
L 3597 3500 
L 2284 0 
L 1503 0 
L 191 3500 
z
" transform="scale(0.015625)"/>
    </defs>
    <use xlink:href="#DejaVuSans-53"/>
    <use xlink:href="#DejaVuSans-63" x="63.476562"/>
    <use xlink:href="#DejaVuSans-65" x="118.457031"/>
    <use xlink:href="#DejaVuSans-6e" x="179.980469"/>
    <use xlink:href="#DejaVuSans-61" x="243.359375"/>
    <use xlink:href="#DejaVuSans-72" x="304.638672"/>
    <use xlink:href="#DejaVuSans-69" x="345.751953"/>
    <use xlink:href="#DejaVuSans-6f" x="373.535156"/>
    <use xlink:href="#DejaVuSans-20" x="434.716797"/>
    <use xlink:href="#DejaVuSans-54" x="466.503906"/>
    <use xlink:href="#DejaVuSans-68" x="527.587891"/>
    <use xlink:href="#DejaVuSans-65" x="590.966797"/>
    <use xlink:href="#DejaVuSans-74" x="652.490234"/>
    <use xlink:href="#DejaVuSans-61" x="691.699219"/>
    <use xlink:href="#DejaVuSans-20" x="752.978516"/>
    <use xlink:href="#DejaVuSans-7c" x="784.765625"/>
    <use xlink:href="#DejaVuSans-20" x="818.457031"/>
    <use xlink:href="#DejaVuSans-56" x="850.244141"/>
    <use xlink:href="#DejaVuSans-65" x="910.902344"/>
    <use xlink:href="#DejaVuSans-72" x="972.425781"/>
    <use xlink:href="#DejaVuSans-73" x="1013.539062"/>
    <use xlink:href="#DejaVuSans-69" x="1065.638672"/>
    <use xlink:href="#DejaVuSans-6f" x="1093.421875"/>
    <use xlink:href="#DejaVuSans-6e" x="1154.603516"/>
    <use xlink:href="#DejaVuSans-20" x="1217.982422"/>
    <use xlink:href="#DejaVuSans-32" x="1249.769531"/>
    <use xlink:href="#DejaVuSans-20" x="1313.392578"/>
    <use xlink:href="#DejaVuSans-7c" x="1345.179688"/>
    <use xlink:href="#DejaVuSans-20" x="1378.871094"/>
    <use xlink:href="#DejaVuSans-4c" x="1410.658203"/>
    <use xlink:href="#DejaVuSans-65" x="1464.621094"/>
    <use xlink:href="#DejaVuSans-76" x="1526.144531"/>
    <use xlink:href="#DejaVuSans-65" x="1585.324219"/>
    <use xlink:href="#DejaVuSans-6c" x="1646.847656"/>
    <use xlink:href="#DejaVuSans-20" x="1674.630859"/>
    <use xlink:href="#DejaVuSans-31" x="1706.417969"/>
   </g>
  </g>
 </g>
 <defs>
  <clipPath id="p60da4440d8">
   <rect x="86.718866" y="42.12" width="290.820567" height="207.687843"/>
  </clipPath>
  <clipPath id="p9a1097ba39">
   <rect x="418.379433" y="42.12" width="290.820567" height="207.687843"/>
  </clipPath>
  <clipPath id="p321aabcbe1">
   <rect x="86.718866" y="261.476078" width="290.820567" height="207.687843"/>
  </clipPath>
  <clipPath id="pc6b2de8f88">
   <rect x="418.379433" y="261.476078" width="290.820567" height="207.687843"/>
  </clipPath>
  <clipPath id="p05b1aab320">
   <rect x="86.718866" y="480.832157" width="622.481134" height="207.687843"/>
  </clipPath>
 </defs>
</svg>
