<?xml version="1.0" encoding="utf-8" standalone="no"?>
<!DOCTYPE svg PUBLIC "-//W3C//DTD SVG 1.1//EN"
  "http://www.w3.org/Graphics/SVG/1.1/DTD/svg11.dtd">
<svg xmlns:xlink="http://www.w3.org/1999/xlink" width="720pt" height="288pt" viewBox="0 0 720 288" xmlns="http://www.w3.org/2000/svg" version="1.1">
 <metadata>
  <rdf:RDF xmlns:dc="http://purl.org/dc/elements/1.1/" xmlns:cc="http://creativecommons.org/ns#" xmlns:rdf="http://www.w3.org/1999/02/22-rdf-syntax-ns#">
   <cc:Work>
    <dc:type rdf:resource="http://purl.org/dc/dcmitype/StillImage"/>
    <dc:date>2025-01-28T16:35:28.943504</dc:date>
    <dc:format>image/svg+xml</dc:format>
    <dc:creator>
     <cc:Agent>
      <dc:title>Matplotlib v3.9.4, https://matplotlib.org/</dc:title>
     </cc:Agent>
    </dc:creator>
   </cc:Work>
  </rdf:RDF>
 </metadata>
 <defs>
  <style type="text/css">*{stroke-linejoin: round; stroke-linecap: butt}</style>
 </defs>
 <g id="figure_1">
  <g id="patch_1">
   <path d="M 0 288 
L 720 288 
L 720 0 
L 0 0 
z
" style="fill: #ffffff"/>
  </g>
  <g id="axes_1">
   <g id="patch_2">
    <path d="M 47.72 118.966663 
L 351.45 118.966663 
L 351.45 26.88 
L 47.72 26.88 
z
" style="fill: #ffffff"/>
   </g>
   <g id="matplotlib.axis_1">
    <g id="xtick_1">
     <g id="line2d_1">
      <defs>
       <path id="mb8cdd65c09" d="M 0 0 
L 0 3.5 
" style="stroke: #000000; stroke-width: 0.8"/>
      </defs>
      <g>
       <use xlink:href="#mb8cdd65c09" x="61.525909" y="118.966663" style="stroke: #000000; stroke-width: 0.8"/>
      </g>
     </g>
    </g>
    <g id="xtick_2">
     <g id="line2d_2">
      <g>
       <use xlink:href="#mb8cdd65c09" x="104.01713" y="118.966663" style="stroke: #000000; stroke-width: 0.8"/>
      </g>
     </g>
    </g>
    <g id="xtick_3">
     <g id="line2d_3">
      <g>
       <use xlink:href="#mb8cdd65c09" x="146.508351" y="118.966663" style="stroke: #000000; stroke-width: 0.8"/>
      </g>
     </g>
    </g>
    <g id="xtick_4">
     <g id="line2d_4">
      <g>
       <use xlink:href="#mb8cdd65c09" x="188.999571" y="118.966663" style="stroke: #000000; stroke-width: 0.8"/>
      </g>
     </g>
    </g>
    <g id="xtick_5">
     <g id="line2d_5">
      <g>
       <use xlink:href="#mb8cdd65c09" x="231.490792" y="118.966663" style="stroke: #000000; stroke-width: 0.8"/>
      </g>
     </g>
    </g>
    <g id="xtick_6">
     <g id="line2d_6">
      <g>
       <use xlink:href="#mb8cdd65c09" x="273.982013" y="118.966663" style="stroke: #000000; stroke-width: 0.8"/>
      </g>
     </g>
    </g>
    <g id="xtick_7">
     <g id="line2d_7">
      <g>
       <use xlink:href="#mb8cdd65c09" x="316.473234" y="118.966663" style="stroke: #000000; stroke-width: 0.8"/>
      </g>
     </g>
    </g>
    <g id="text_1">
     <!-- time -->
     <g transform="translate(188.288906 137.565101) scale(0.1 -0.1)">
      <defs>
       <path id="DejaVuSans-74" d="M 1172 4494 
L 1172 3500 
L 2356 3500 
L 2356 3053 
L 1172 3053 
L 1172 1153 
Q 1172 725 1289 603 
Q 1406 481 1766 481 
L 2356 481 
L 2356 0 
L 1766 0 
Q 1100 0 847 248 
Q 594 497 594 1153 
L 594 3053 
L 172 3053 
L 172 3500 
L 594 3500 
L 594 4494 
L 1172 4494 
z
" transform="scale(0.015625)"/>
       <path id="DejaVuSans-69" d="M 603 3500 
L 1178 3500 
L 1178 0 
L 603 0 
L 603 3500 
z
M 603 4863 
L 1178 4863 
L 1178 4134 
L 603 4134 
L 603 4863 
z
" transform="scale(0.015625)"/>
       <path id="DejaVuSans-6d" d="M 3328 2828 
Q 3544 3216 3844 3400 
Q 4144 3584 4550 3584 
Q 5097 3584 5394 3201 
Q 5691 2819 5691 2113 
L 5691 0 
L 5113 0 
L 5113 2094 
Q 5113 2597 4934 2840 
Q 4756 3084 4391 3084 
Q 3944 3084 3684 2787 
Q 3425 2491 3425 1978 
L 3425 0 
L 2847 0 
L 2847 2094 
Q 2847 2600 2669 2842 
Q 2491 3084 2119 3084 
Q 1678 3084 1418 2786 
Q 1159 2488 1159 1978 
L 1159 0 
L 581 0 
L 581 3500 
L 1159 3500 
L 1159 2956 
Q 1356 3278 1631 3431 
Q 1906 3584 2284 3584 
Q 2666 3584 2933 3390 
Q 3200 3197 3328 2828 
z
" transform="scale(0.015625)"/>
       <path id="DejaVuSans-65" d="M 3597 1894 
L 3597 1613 
L 953 1613 
Q 991 1019 1311 708 
Q 1631 397 2203 397 
Q 2534 397 2845 478 
Q 3156 559 3463 722 
L 3463 178 
Q 3153 47 2828 -22 
Q 2503 -91 2169 -91 
Q 1331 -91 842 396 
Q 353 884 353 1716 
Q 353 2575 817 3079 
Q 1281 3584 2069 3584 
Q 2775 3584 3186 3129 
Q 3597 2675 3597 1894 
z
M 3022 2063 
Q 3016 2534 2758 2815 
Q 2500 3097 2075 3097 
Q 1594 3097 1305 2825 
Q 1016 2553 972 2059 
L 3022 2063 
z
" transform="scale(0.015625)"/>
      </defs>
      <use xlink:href="#DejaVuSans-74"/>
      <use xlink:href="#DejaVuSans-69" x="39.208984"/>
      <use xlink:href="#DejaVuSans-6d" x="66.992188"/>
      <use xlink:href="#DejaVuSans-65" x="164.404297"/>
     </g>
    </g>
   </g>
   <g id="matplotlib.axis_2">
    <g id="ytick_1">
     <g id="line2d_8">
      <defs>
       <path id="m43eef60b9e" d="M 0 0 
L -3.5 0 
" style="stroke: #000000; stroke-width: 0.8"/>
      </defs>
      <g>
       <use xlink:href="#m43eef60b9e" x="47.72" y="114.780906" style="stroke: #000000; stroke-width: 0.8"/>
      </g>
     </g>
     <g id="text_2">
      <!-- 0.0 -->
      <g transform="translate(24.816875 118.580124) scale(0.1 -0.1)">
       <defs>
        <path id="DejaVuSans-30" d="M 2034 4250 
Q 1547 4250 1301 3770 
Q 1056 3291 1056 2328 
Q 1056 1369 1301 889 
Q 1547 409 2034 409 
Q 2525 409 2770 889 
Q 3016 1369 3016 2328 
Q 3016 3291 2770 3770 
Q 2525 4250 2034 4250 
z
M 2034 4750 
Q 2819 4750 3233 4129 
Q 3647 3509 3647 2328 
Q 3647 1150 3233 529 
Q 2819 -91 2034 -91 
Q 1250 -91 836 529 
Q 422 1150 422 2328 
Q 422 3509 836 4129 
Q 1250 4750 2034 4750 
z
" transform="scale(0.015625)"/>
        <path id="DejaVuSans-2e" d="M 684 794 
L 1344 794 
L 1344 0 
L 684 0 
L 684 794 
z
" transform="scale(0.015625)"/>
       </defs>
       <use xlink:href="#DejaVuSans-30"/>
       <use xlink:href="#DejaVuSans-2e" x="63.623047"/>
       <use xlink:href="#DejaVuSans-30" x="95.410156"/>
      </g>
     </g>
    </g>
    <g id="ytick_2">
     <g id="line2d_9">
      <g>
       <use xlink:href="#m43eef60b9e" x="47.72" y="86.872075" style="stroke: #000000; stroke-width: 0.8"/>
      </g>
     </g>
     <g id="text_3">
      <!-- 0.1 -->
      <g transform="translate(24.816875 90.671294) scale(0.1 -0.1)">
       <defs>
        <path id="DejaVuSans-31" d="M 794 531 
L 1825 531 
L 1825 4091 
L 703 3866 
L 703 4441 
L 1819 4666 
L 2450 4666 
L 2450 531 
L 3481 531 
L 3481 0 
L 794 0 
L 794 531 
z
" transform="scale(0.015625)"/>
       </defs>
       <use xlink:href="#DejaVuSans-30"/>
       <use xlink:href="#DejaVuSans-2e" x="63.623047"/>
       <use xlink:href="#DejaVuSans-31" x="95.410156"/>
      </g>
     </g>
    </g>
    <g id="ytick_3">
     <g id="line2d_10">
      <g>
       <use xlink:href="#m43eef60b9e" x="47.72" y="58.963244" style="stroke: #000000; stroke-width: 0.8"/>
      </g>
     </g>
     <g id="text_4">
      <!-- 0.2 -->
      <g transform="translate(24.816875 62.762463) scale(0.1 -0.1)">
       <defs>
        <path id="DejaVuSans-32" d="M 1228 531 
L 3431 531 
L 3431 0 
L 469 0 
L 469 531 
Q 828 903 1448 1529 
Q 2069 2156 2228 2338 
Q 2531 2678 2651 2914 
Q 2772 3150 2772 3378 
Q 2772 3750 2511 3984 
Q 2250 4219 1831 4219 
Q 1534 4219 1204 4116 
Q 875 4013 500 3803 
L 500 4441 
Q 881 4594 1212 4672 
Q 1544 4750 1819 4750 
Q 2544 4750 2975 4387 
Q 3406 4025 3406 3419 
Q 3406 3131 3298 2873 
Q 3191 2616 2906 2266 
Q 2828 2175 2409 1742 
Q 1991 1309 1228 531 
z
" transform="scale(0.015625)"/>
       </defs>
       <use xlink:href="#DejaVuSans-30"/>
       <use xlink:href="#DejaVuSans-2e" x="63.623047"/>
       <use xlink:href="#DejaVuSans-32" x="95.410156"/>
      </g>
     </g>
    </g>
    <g id="ytick_4">
     <g id="line2d_11">
      <g>
       <use xlink:href="#m43eef60b9e" x="47.72" y="31.054414" style="stroke: #000000; stroke-width: 0.8"/>
      </g>
     </g>
     <g id="text_5">
      <!-- 0.3 -->
      <g transform="translate(24.816875 34.853632) scale(0.1 -0.1)">
       <defs>
        <path id="DejaVuSans-33" d="M 2597 2516 
Q 3050 2419 3304 2112 
Q 3559 1806 3559 1356 
Q 3559 666 3084 287 
Q 2609 -91 1734 -91 
Q 1441 -91 1130 -33 
Q 819 25 488 141 
L 488 750 
Q 750 597 1062 519 
Q 1375 441 1716 441 
Q 2309 441 2620 675 
Q 2931 909 2931 1356 
Q 2931 1769 2642 2001 
Q 2353 2234 1838 2234 
L 1294 2234 
L 1294 2753 
L 1863 2753 
Q 2328 2753 2575 2939 
Q 2822 3125 2822 3475 
Q 2822 3834 2567 4026 
Q 2313 4219 1838 4219 
Q 1578 4219 1281 4162 
Q 984 4106 628 3988 
L 628 4550 
Q 988 4650 1302 4700 
Q 1616 4750 1894 4750 
Q 2613 4750 3031 4423 
Q 3450 4097 3450 3541 
Q 3450 3153 3228 2886 
Q 3006 2619 2597 2516 
z
" transform="scale(0.015625)"/>
       </defs>
       <use xlink:href="#DejaVuSans-30"/>
       <use xlink:href="#DejaVuSans-2e" x="63.623047"/>
       <use xlink:href="#DejaVuSans-33" x="95.410156"/>
      </g>
     </g>
    </g>
    <g id="text_6">
     <!-- flow (cms) -->
     <g transform="translate(18.737188 98.935832) rotate(-90) scale(0.1 -0.1)">
      <defs>
       <path id="DejaVuSans-66" d="M 2375 4863 
L 2375 4384 
L 1825 4384 
Q 1516 4384 1395 4259 
Q 1275 4134 1275 3809 
L 1275 3500 
L 2222 3500 
L 2222 3053 
L 1275 3053 
L 1275 0 
L 697 0 
L 697 3053 
L 147 3053 
L 147 3500 
L 697 3500 
L 697 3744 
Q 697 4328 969 4595 
Q 1241 4863 1831 4863 
L 2375 4863 
z
" transform="scale(0.015625)"/>
       <path id="DejaVuSans-6c" d="M 603 4863 
L 1178 4863 
L 1178 0 
L 603 0 
L 603 4863 
z
" transform="scale(0.015625)"/>
       <path id="DejaVuSans-6f" d="M 1959 3097 
Q 1497 3097 1228 2736 
Q 959 2375 959 1747 
Q 959 1119 1226 758 
Q 1494 397 1959 397 
Q 2419 397 2687 759 
Q 2956 1122 2956 1747 
Q 2956 2369 2687 2733 
Q 2419 3097 1959 3097 
z
M 1959 3584 
Q 2709 3584 3137 3096 
Q 3566 2609 3566 1747 
Q 3566 888 3137 398 
Q 2709 -91 1959 -91 
Q 1206 -91 779 398 
Q 353 888 353 1747 
Q 353 2609 779 3096 
Q 1206 3584 1959 3584 
z
" transform="scale(0.015625)"/>
       <path id="DejaVuSans-77" d="M 269 3500 
L 844 3500 
L 1563 769 
L 2278 3500 
L 2956 3500 
L 3675 769 
L 4391 3500 
L 4966 3500 
L 4050 0 
L 3372 0 
L 2619 2869 
L 1863 0 
L 1184 0 
L 269 3500 
z
" transform="scale(0.015625)"/>
       <path id="DejaVuSans-20" transform="scale(0.015625)"/>
       <path id="DejaVuSans-28" d="M 1984 4856 
Q 1566 4138 1362 3434 
Q 1159 2731 1159 2009 
Q 1159 1288 1364 580 
Q 1569 -128 1984 -844 
L 1484 -844 
Q 1016 -109 783 600 
Q 550 1309 550 2009 
Q 550 2706 781 3412 
Q 1013 4119 1484 4856 
L 1984 4856 
z
" transform="scale(0.015625)"/>
       <path id="DejaVuSans-63" d="M 3122 3366 
L 3122 2828 
Q 2878 2963 2633 3030 
Q 2388 3097 2138 3097 
Q 1578 3097 1268 2742 
Q 959 2388 959 1747 
Q 959 1106 1268 751 
Q 1578 397 2138 397 
Q 2388 397 2633 464 
Q 2878 531 3122 666 
L 3122 134 
Q 2881 22 2623 -34 
Q 2366 -91 2075 -91 
Q 1284 -91 818 406 
Q 353 903 353 1747 
Q 353 2603 823 3093 
Q 1294 3584 2113 3584 
Q 2378 3584 2631 3529 
Q 2884 3475 3122 3366 
z
" transform="scale(0.015625)"/>
       <path id="DejaVuSans-73" d="M 2834 3397 
L 2834 2853 
Q 2591 2978 2328 3040 
Q 2066 3103 1784 3103 
Q 1356 3103 1142 2972 
Q 928 2841 928 2578 
Q 928 2378 1081 2264 
Q 1234 2150 1697 2047 
L 1894 2003 
Q 2506 1872 2764 1633 
Q 3022 1394 3022 966 
Q 3022 478 2636 193 
Q 2250 -91 1575 -91 
Q 1294 -91 989 -36 
Q 684 19 347 128 
L 347 722 
Q 666 556 975 473 
Q 1284 391 1588 391 
Q 1994 391 2212 530 
Q 2431 669 2431 922 
Q 2431 1156 2273 1281 
Q 2116 1406 1581 1522 
L 1381 1569 
Q 847 1681 609 1914 
Q 372 2147 372 2553 
Q 372 3047 722 3315 
Q 1072 3584 1716 3584 
Q 2034 3584 2315 3537 
Q 2597 3491 2834 3397 
z
" transform="scale(0.015625)"/>
       <path id="DejaVuSans-29" d="M 513 4856 
L 1013 4856 
Q 1481 4119 1714 3412 
Q 1947 2706 1947 2009 
Q 1947 1309 1714 600 
Q 1481 -109 1013 -844 
L 513 -844 
Q 928 -128 1133 580 
Q 1338 1288 1338 2009 
Q 1338 2731 1133 3434 
Q 928 4138 513 4856 
z
" transform="scale(0.015625)"/>
      </defs>
      <use xlink:href="#DejaVuSans-66"/>
      <use xlink:href="#DejaVuSans-6c" x="35.205078"/>
      <use xlink:href="#DejaVuSans-6f" x="62.988281"/>
      <use xlink:href="#DejaVuSans-77" x="124.169922"/>
      <use xlink:href="#DejaVuSans-20" x="205.957031"/>
      <use xlink:href="#DejaVuSans-28" x="237.744141"/>
      <use xlink:href="#DejaVuSans-63" x="276.757812"/>
      <use xlink:href="#DejaVuSans-6d" x="331.738281"/>
      <use xlink:href="#DejaVuSans-73" x="429.150391"/>
      <use xlink:href="#DejaVuSans-29" x="481.25"/>
     </g>
    </g>
   </g>
   <g id="line2d_12">
    <path d="M 61.525909 114.780906 
L 66.189124 114.674971 
L 66.543217 114.271971 
L 66.897311 113.829134 
L 66.985834 113.933771 
L 67.074358 113.763427 
L 67.415664 112.102859 
L 67.494352 112.282099 
L 67.718611 111.079556 
L 68.059918 109.848188 
L 68.124835 111.855772 
L 68.19467 111.551536 
L 68.594993 109.813268 
L 68.777941 108.305943 
L 68.932365 107.081065 
L 69.006134 107.704974 
L 69.153673 106.777489 
L 69.497931 102.715094 
L 69.562848 99.669962 
L 69.625798 103.974475 
L 69.690715 103.271674 
L 69.754649 102.61458 
L 69.818582 98.816077 
L 69.879565 100.92681 
L 70.625129 94.383286 
L 70.692997 91.426124 
L 70.757914 78.015083 
L 70.818896 80.022694 
L 70.938895 81.970731 
L 70.999878 92.781851 
L 71.061844 82.279994 
L 71.122827 82.339479 
L 71.242825 82.958052 
L 71.364791 93.522337 
L 71.427741 92.309738 
L 71.614623 88.362731 
L 71.675606 89.928451 
L 72.127075 83.640859 
L 72.195927 78.662188 
L 72.264778 85.15334 
L 72.33363 84.175178 
L 72.402481 83.137417 
L 72.471333 78.525915 
L 72.538217 80.853388 
L 72.736903 77.59638 
L 72.86477 54.4291 
L 72.924769 57.294488 
L 72.985752 59.465336 
L 73.109685 81.148796 
L 73.173618 80.774035 
L 73.36837 76.095842 
L 73.43132 46.466872 
L 73.500171 51.546087 
L 73.568039 53.987352 
L 73.69689 79.587117 
L 73.75984 77.725933 
L 73.947706 70.720084 
L 74.008689 37.113475 
L 74.075573 43.662403 
L 74.208358 48.970542 
L 74.276226 73.170592 
L 74.337209 72.914899 
L 74.519174 64.463118 
L 74.588025 68.906934 
L 74.656877 67.852723 
L 74.776875 66.669295 
L 74.836874 56.921994 
L 74.904742 56.941948 
L 75.105395 54.645685 
L 75.23818 50.474015 
L 75.370965 50.047777 
L 75.436866 35.252696 
L 75.501783 54.197284 
L 75.568667 53.303233 
L 75.635552 52.378224 
L 75.702436 49.62047 
L 75.768337 60.600415 
L 75.835221 59.233276 
L 75.96899 58.03705 
L 76.035874 39.513043 
L 76.100791 40.857528 
L 76.230626 41.867021 
L 76.295543 49.52786 
L 76.361443 41.857889 
L 76.427344 42.100886 
L 76.555211 42.315285 
L 76.619145 50.770848 
L 76.684062 47.018582 
L 76.878813 46.313487 
L 76.943731 48.574186 
L 77.008648 47.657297 
L 77.138482 46.97803 
L 77.268316 31.065757 
L 77.331266 32.589077 
L 77.457166 34.440422 
L 77.586017 61.941525 
L 77.652901 61.0716 
L 77.719785 60.211637 
L 77.78667 38.123116 
L 77.851587 54.457394 
L 77.917488 53.647793 
L 78.049289 52.386362 
L 78.11519 48.369017 
L 78.180107 48.600438 
L 78.309941 47.644399 
L 78.373875 48.123369 
L 78.438792 59.880898 
L 78.503709 59.042552 
L 78.635511 57.616201 
L 78.701411 36.114691 
L 78.765345 45.933036 
L 78.893212 45.137944 
L 79.021079 54.564073 
L 79.085996 53.19514 
L 79.214847 52.043274 
L 79.279764 48.699988 
L 79.343698 58.700685 
L 79.409598 58.012134 
L 79.474515 57.371767 
L 79.540416 55.468757 
L 79.670251 40.140744 
L 79.79615 39.567131 
L 79.92205 56.954923 
L 79.986967 56.402855 
L 80.117785 55.243981 
L 80.181719 52.771355 
L 80.246636 53.454927 
L 80.374503 52.407592 
L 80.438437 44.302711 
L 80.50237 53.007965 
L 80.566304 52.223951 
L 80.695154 51.233248 
L 80.759088 55.436903 
L 80.887939 49.549219 
L 80.950889 49.096934 
L 81.014822 51.119736 
L 81.078756 45.710772 
L 81.142689 45.893434 
L 81.269573 45.089923 
L 81.333506 45.519783 
L 81.522356 41.950094 
L 81.585306 41.599367 
L 81.647273 49.455237 
L 81.774156 41.660969 
L 81.900056 40.970764 
L 81.963006 48.139839 
L 82.025956 47.457196 
L 82.153823 46.619645 
L 82.217757 42.680586 
L 82.280707 49.499333 
L 82.34464 49.038013 
L 82.472507 48.19002 
L 82.663324 43.211912 
L 82.725291 42.846612 
L 82.788241 40.631833 
L 82.851191 47.323975 
L 82.91414 47.037432 
L 83.04004 46.301297 
L 83.10299 49.550204 
L 83.22889 41.227431 
L 83.353807 40.680755 
L 83.415773 48.597824 
L 83.478723 46.450893 
L 83.605606 45.836296 
L 83.66954 45.952401 
L 83.73249 47.187566 
L 83.79544 47.039557 
L 83.922323 46.486986 
L 83.985273 39.491505 
L 84.048223 44.495001 
L 84.238057 43.827696 
L 84.301007 47.162558 
L 84.426907 44.090221 
L 84.489857 43.871503 
L 84.55379 44.550623 
L 84.680674 50.317713 
L 84.808541 49.807871 
L 84.998374 42.67298 
L 85.123291 42.313033 
L 85.185257 47.992966 
L 85.248207 44.824529 
L 85.374107 44.432503 
L 85.500007 48.45629 
L 85.56394 50.092767 
L 85.627874 49.863275 
L 85.690824 49.64442 
L 85.754757 49.912641 
L 85.880657 44.685737 
L 86.006557 44.331871 
L 86.069507 46.649428 
L 86.195407 44.190011 
L 86.320323 43.854542 
L 86.38229 45.892663 
L 86.44524 45.173512 
L 86.633106 44.562413 
L 86.696056 49.475218 
L 86.759006 49.068224 
L 86.948839 48.347401 
L 87.074739 47.139549 
L 87.201623 46.901194 
L 87.264573 46.417991 
L 87.391456 44.727711 
L 87.453422 44.64412 
L 87.579322 51.538225 
L 87.70719 51.158139 
L 87.771123 51.045782 
L 87.834073 48.349569 
L 87.898007 49.665439 
L 88.025874 49.556263 
L 88.089807 49.468462 
L 88.152757 48.01366 
L 88.216691 48.859453 
L 88.343574 48.708342 
L 88.406524 47.180163 
L 88.470458 48.949525 
L 88.533408 48.899637 
L 88.659308 48.774369 
L 88.723241 47.688659 
L 88.848157 40.22679 
L 88.973074 40.258104 
L 89.098974 48.753377 
L 89.224874 48.658704 
L 89.350774 46.340239 
L 89.540607 46.345607 
L 89.729457 42.798743 
L 89.792407 42.812943 
L 89.855357 42.828263 
L 89.917323 49.42617 
L 89.981257 44.842879 
L 90.106173 44.88151 
L 90.169123 48.303341 
L 90.231089 43.404874 
L 90.294039 43.781258 
L 90.419939 43.880605 
L 90.482889 46.461199 
L 90.545839 45.018336 
L 90.735673 45.217619 
L 90.862556 43.716297 
L 90.987472 43.90715 
L 91.113372 45.523691 
L 91.302222 45.876618 
L 91.365172 43.13636 
L 91.428122 44.685488 
L 91.554022 44.834372 
L 91.616972 44.959495 
L 91.679922 49.974032 
L 91.742872 49.6713 
L 91.933689 49.892959 
L 92.059589 46.789236 
L 92.186472 47.063236 
L 92.249422 48.178667 
L 92.312372 45.066021 
L 92.375322 45.171641 
L 92.502206 45.515739 
L 92.565156 44.754599 
L 92.628106 40.645571 
L 92.691056 40.879836 
L 92.753022 41.122008 
L 92.878922 48.86211 
L 93.004822 47.773461 
L 93.068755 47.951975 
L 93.131705 44.973071 
L 93.257605 49.463698 
L 93.384489 49.810972 
L 93.448422 47.025214 
L 93.511372 47.253894 
L 93.638256 47.666032 
L 93.701206 46.132703 
L 93.765139 49.243315 
L 93.828089 49.106505 
L 93.954973 49.533923 
L 94.080873 36.319629 
L 94.204805 37.07997 
L 94.267755 37.5019 
L 94.329722 46.642575 
L 94.392672 42.207177 
L 94.580538 43.272437 
L 94.643488 44.690566 
L 94.706438 42.635264 
L 94.768404 43.030768 
L 94.831354 43.416683 
L 94.894304 47.795517 
L 94.958238 46.095911 
L 95.149055 47.263937 
L 95.212988 47.032154 
L 95.340855 52.62823 
L 95.404789 52.91208 
L 95.468722 50.859074 
L 95.595606 37.658668 
L 95.720522 38.855821 
L 95.783472 49.242941 
L 95.847406 38.846564 
L 95.910356 39.776019 
L 96.035272 40.991121 
L 96.098222 42.907546 
L 96.225106 50.631333 
L 96.352973 51.479868 
L 96.416906 46.687259 
L 96.479856 49.437925 
L 96.608707 50.411923 
L 96.736574 43.723157 
L 96.863457 45.085576 
L 96.926407 45.757829 
L 97.117224 51.748989 
L 97.246075 52.860889 
L 97.310992 33.599119 
L 97.372959 34.850675 
L 97.497875 37.220116 
L 97.560825 45.905538 
L 97.624758 45.293579 
L 97.815576 48.174601 
L 97.878525 46.270832 
L 98.006393 54.404427 
L 98.07131 55.165639 
L 98.135243 52.715185 
L 98.20016 45.948162 
L 98.264094 47.98309 
L 98.391961 50.292444 
L 98.455895 36.285337 
L 98.519828 39.944661 
L 98.709662 45.420879 
L 98.773595 45.312026 
L 98.837529 45.283721 
L 98.966379 52.141817 
L 99.365718 71.138499 
L 99.638173 78.702883 
L 99.707025 77.115147 
L 99.844728 79.86879 
L 99.982431 75.053913 
L 100.180133 80.544645 
L 100.240132 90.433073 
L 100.302099 89.261743 
L 100.427015 89.205662 
L 100.488981 87.861904 
L 100.612914 74.632365 
L 100.741765 79.428079 
L 100.864714 93.973683 
L 101.055531 92.802777 
L 101.182415 82.815183 
L 101.244381 83.979731 
L 101.366347 85.802025 
L 101.491263 95.511163 
L 101.554213 95.078829 
L 101.617163 94.684583 
L 101.681096 88.562764 
L 101.743063 94.404154 
L 101.804045 94.091665 
L 101.926995 93.63021 
L 101.988961 93.693914 
L 102.051911 91.470336 
L 102.115844 91.633558 
L 102.245679 91.754673 
L 102.310596 92.114676 
L 102.375513 94.05958 
L 102.441414 93.916231 
L 102.507314 93.782559 
L 102.574199 92.647115 
L 102.641083 93.196584 
L 102.837802 93.151689 
L 102.903702 93.48406 
L 102.969603 92.960041 
L 103.037471 93.015356 
L 103.174191 93.219977 
L 103.241075 87.600895 
L 103.306976 88.467739 
L 103.37386 89.235679 
L 103.507629 95.208809 
L 103.646315 95.08815 
L 103.715167 95.020347 
L 103.785002 94.785304 
L 103.855821 95.000737 
L 103.91582 94.980737 
L 103.986638 94.969246 
L 104.177456 95.361011 
L 104.319093 95.350254 
L 104.389912 85.212953 
L 104.458763 85.2195 
L 104.596466 88.48453 
L 104.666301 94.54261 
L 104.73712 90.292807 
L 104.806955 91.219274 
L 104.87679 92.021593 
L 104.947609 102.013784 
L 105.008592 100.854678 
L 105.256457 97.696669 
L 105.319407 98.847146 
L 105.382357 98.665033 
L 105.509241 98.396213 
L 105.633173 94.6846 
L 105.694156 94.962553 
L 105.755139 95.234312 
L 105.878088 100.750453 
L 105.941038 100.361753 
L 106.066938 99.883805 
L 106.191854 90.155594 
L 106.374802 93.041018 
L 106.499719 102.415545 
L 106.565619 102.085547 
L 106.632504 101.746086 
L 106.698405 97.585564 
L 106.763322 101.554975 
L 106.827255 101.016423 
L 106.95709 100.605329 
L 107.021023 95.174827 
L 107.084957 100.001997 
L 107.149874 99.783911 
L 107.214791 99.707544 
L 107.279708 99.238291 
L 107.344625 100.90336 
L 107.408559 100.571785 
L 107.538393 100.357394 
L 107.60331 94.183131 
L 107.66626 100.867943 
L 107.731177 100.64217 
L 107.861995 100.479031 
L 107.988879 91.325545 
L 108.111828 93.609351 
L 108.237728 103.547249 
L 108.304612 103.077084 
L 108.441331 102.601524 
L 108.510183 101.310714 
L 108.577067 102.088328 
L 108.713787 101.841449 
L 108.781655 97.370929 
L 108.848539 101.671931 
L 108.91444 101.453589 
L 108.981324 101.403606 
L 109.113126 92.987686 
L 109.176076 94.265532 
L 109.302959 96.108955 
L 109.366893 101.504503 
L 109.432793 97.191796 
L 109.496727 97.798564 
L 109.627545 98.768198 
L 109.693445 103.375965 
L 109.76033 99.100296 
L 109.826231 99.47933 
L 109.893115 99.805386 
L 110.026884 105.799651 
L 110.170488 105.211114 
L 110.243274 105.000125 
L 110.313109 98.010144 
L 110.380977 98.824011 
L 110.515729 99.7685 
L 110.584581 105.580425 
L 110.655399 105.199442 
L 110.796053 104.753504 
L 110.865888 101.817146 
L 110.936707 104.87627 
L 111.008509 104.739568 
L 111.080312 104.576691 
L 111.152114 102.841763 
L 111.221949 97.890612 
L 111.288833 98.723205 
L 111.354734 99.350372 
L 111.49047 106.042617 
L 111.632107 105.298737 
L 111.702926 105.312593 
L 111.773745 105.754473 
L 111.993086 105.173493 
L 112.065872 105.267633 
L 112.281279 104.884224 
L 112.352098 101.303827 
L 112.493735 104.544121 
L 112.565537 104.521196 
L 112.636356 99.92248 
L 112.777993 104.783616 
L 112.850779 104.760779 
L 112.996351 105.133555 
L 113.213725 105.012597 
L 113.286511 104.689453 
L 113.359297 104.718103 
L 113.433066 104.745398 
L 113.506836 101.809765 
L 113.578638 105.300867 
L 113.651424 105.232915 
L 113.725193 105.232115 
L 113.798963 104.910726 
L 113.872732 105.077018 
L 114.019288 105.142942 
L 114.092074 104.994875 
L 114.16486 99.746149 
L 114.234695 100.631139 
L 114.30453 101.316427 
L 114.374365 105.437495 
L 114.446167 101.4358 
L 114.517969 102.151119 
L 114.588788 102.667112 
L 114.66059 104.371119 
L 114.733376 103.125228 
L 114.806162 103.60185 
L 114.878948 103.942442 
L 115.025504 108.543143 
L 115.212386 108.134649 
L 115.275336 108.056119 
L 115.462219 107.423622 
L 115.525169 107.360192 
L 115.587135 106.514917 
L 115.648118 106.60206 
L 115.83205 106.684696 
L 115.953032 103.238034 
L 116.100571 104.181158 
L 116.235323 108.741233 
L 116.298273 108.575814 
L 116.425156 108.383365 
L 116.488106 107.699004 
L 116.551056 108.573457 
L 116.615974 108.530957 
L 116.745808 108.266761 
L 116.810725 107.677861 
L 116.874658 107.713299 
L 117.000558 107.691128 
L 117.063508 107.326155 
L 117.126458 107.997351 
L 117.190392 107.983804 
L 117.320226 108.043373 
L 117.44711 106.567981 
L 117.573993 106.795539 
L 117.636943 104.483529 
L 117.699893 108.530203 
L 117.763827 108.2297 
L 117.892677 108.212088 
L 117.957594 107.485923 
L 118.086445 108.693712 
L 118.151362 108.665674 
L 118.216279 107.923692 
L 118.281197 108.11937 
L 118.476932 108.189886 
L 118.542832 106.716035 
L 118.607749 108.786333 
L 118.67365 108.736255 
L 118.738567 108.727718 
L 118.804468 106.959559 
L 118.869385 109.427053 
L 118.935286 109.130072 
L 119.070038 109.093221 
L 119.200856 105.098141 
L 119.262822 105.569265 
L 119.325772 105.949133 
L 119.452656 110.014488 
L 119.586425 109.849991 
L 119.654293 109.804923 
L 119.788061 106.370843 
L 119.852978 106.693625 
L 120.243465 108.04769 
L 120.309366 110.792503 
L 120.377233 110.475074 
L 120.516904 110.372712 
L 120.585755 108.193962 
L 120.654607 110.298863 
L 120.723458 110.094487 
L 120.793293 110.070431 
L 120.862145 109.416979 
L 120.930996 110.152652 
L 120.999848 109.944057 
L 121.209353 110.042133 
L 121.280172 110.745367 
L 121.351974 110.726325 
L 121.423776 110.684588 
L 121.566397 107.93052 
L 121.702133 108.39816 
L 121.770001 109.106127 
L 121.838853 108.613939 
L 121.908688 108.909284 
L 122.047374 109.213671 
L 122.118193 111.394881 
L 122.190979 111.208613 
L 122.340485 111.082034 
L 122.414255 108.771429 
L 122.486057 109.194327 
L 122.556876 109.350669 
L 122.627694 110.08107 
L 122.70048 109.561277 
L 122.773266 109.597397 
L 123.278833 110.698258 
L 123.352602 110.294971 
L 123.426372 110.350421 
L 123.499158 110.427923 
L 123.572927 112.359546 
L 123.650631 112.243772 
L 123.729319 112.180075 
L 123.808006 111.553962 
L 123.884726 111.886934 
L 123.961447 111.742082 
L 124.11292 111.699435 
L 124.18964 111.960361 
L 124.267344 111.909883 
L 124.346031 111.881487 
L 124.501439 109.881603 
L 124.648978 110.223562 
L 124.723731 111.063074 
L 124.798484 110.460201 
L 124.873237 110.595833 
L 124.94799 110.712256 
L 125.023727 111.25645 
L 125.100447 110.765972 
L 125.176184 110.968163 
L 125.252904 111.057952 
L 125.407328 112.526226 
L 125.590277 112.441554 
L 125.651259 112.170583 
L 125.712242 112.396422 
L 125.835191 112.350308 
L 125.896174 111.109205 
L 125.956173 112.343027 
L 126.016173 112.216043 
L 126.138138 112.225304 
L 126.199121 111.582081 
L 126.260104 112.677199 
L 126.321086 112.549543 
L 126.443052 112.5327 
L 126.564034 111.368152 
L 126.624033 111.489648 
L 126.783375 111.669433 
L 126.843374 112.81618 
L 126.905341 112.699861 
L 127.02829 112.687174 
L 127.152223 111.140767 
L 127.272221 111.42076 
L 127.33222 111.51156 
L 127.392219 112.565864 
L 127.454186 111.528336 
L 127.514185 111.702972 
L 127.634183 111.841655 
L 127.757132 112.691742 
L 127.820082 112.665521 
L 127.884999 112.675476 
L 128.012866 112.476713 
L 128.140734 112.69122 
L 128.270568 112.813341 
L 128.401386 113.042661 
L 128.534171 113.024136 
L 128.600072 112.771248 
L 128.664989 113.101553 
L 128.730889 113.080648 
L 128.861707 113.141078 
L 128.927608 111.97964 
L 128.991542 112.182164 
L 129.119409 112.311208 
L 129.250227 113.392448 
L 129.386946 113.36499 
L 129.455797 113.208436 
L 129.524649 113.259429 
L 129.662352 113.25829 
L 129.731204 113.074475 
L 129.868907 113.350209 
L 129.937758 113.356707 
L 130.007593 113.098403 
L 130.076445 112.389055 
L 130.142345 112.524655 
L 130.273163 112.656629 
L 130.404965 113.650612 
L 130.546602 113.592186 
L 130.618405 113.362764 
L 130.689223 112.71804 
L 130.757091 112.835158 
L 130.891843 113.059806 
L 130.960695 113.170418 
L 131.029546 113.011223 
L 131.099382 113.066056 
L 131.169217 113.112471 
L 131.310854 113.790073 
L 131.678718 113.848131 
L 131.754455 113.847966 
L 131.829208 113.544444 
L 131.978714 113.711134 
L 132.053467 113.72124 
L 132.129203 113.186936 
L 132.201989 113.291724 
L 132.347561 113.377016 
L 132.420347 113.550886 
L 132.494116 113.441796 
L 132.641655 113.525602 
L 132.792145 114.079386 
L 132.869849 114.057818 
L 132.948536 114.060573 
L 133.028208 113.54167 
L 133.104928 113.624985 
L 133.258368 113.687448 
L 133.335089 113.848019 
L 133.487545 113.769632 
L 133.64197 113.822875 
L 133.878032 113.895429 
L 134.039341 114.23119 
L 134.716053 114.244285 
L 134.801626 113.966138 
L 134.885231 114.014272 
L 136.518979 114.472102 
L 136.696026 114.353869 
L 137.138643 114.505362 
L 137.31569 114.570768 
L 137.935353 114.473557 
L 138.1124 114.485809 
L 140.414008 114.59343 
L 140.679578 114.57525 
L 140.945148 114.64286 
L 141.830382 114.640336 
L 142.007429 114.568119 
L 146.522121 114.687975 
L 146.787691 114.634047 
L 147.230308 114.684523 
L 148.027018 114.681659 
L 148.292588 114.636056 
L 148.912252 114.685514 
L 149.177822 114.644631 
L 149.531916 114.681763 
L 149.886009 114.65709 
L 151.21386 114.656102 
L 152.01057 114.699508 
L 174.052891 114.729982 
L 192.90837 114.752618 
L 194.855885 114.759599 
L 204.416409 114.760166 
L 209.904859 114.754451 
L 235.753684 114.766686 
L 241.950321 114.770343 
L 248.678097 114.771913 
L 252.484603 114.772657 
L 284.175971 114.773803 
L 337.644091 114.776629 
L 337.644091 114.776629 
" clip-path="url(#p8edff31104)" style="fill: none; stroke: #1f77b4; stroke-width: 1.5; stroke-linecap: square"/>
   </g>
   <g id="patch_3">
    <path d="M 47.72 118.966663 
L 47.72 26.88 
" style="fill: none; stroke: #000000; stroke-width: 0.8; stroke-linejoin: miter; stroke-linecap: square"/>
   </g>
   <g id="patch_4">
    <path d="M 351.45 118.966663 
L 351.45 26.88 
" style="fill: none; stroke: #000000; stroke-width: 0.8; stroke-linejoin: miter; stroke-linecap: square"/>
   </g>
   <g id="patch_5">
    <path d="M 47.72 118.966663 
L 351.45 118.966663 
" style="fill: none; stroke: #000000; stroke-width: 0.8; stroke-linejoin: miter; stroke-linecap: square"/>
   </g>
   <g id="patch_6">
    <path d="M 47.72 26.88 
L 351.45 26.88 
" style="fill: none; stroke: #000000; stroke-width: 0.8; stroke-linejoin: miter; stroke-linecap: square"/>
   </g>
   <g id="text_7">
    <!-- 1 -->
    <g transform="translate(194.0878 50.065533) scale(0.1728 -0.1728)">
     <use xlink:href="#DejaVuSans-31"/>
    </g>
   </g>
   <g id="text_8">
    <!-- flows -->
    <g transform="translate(184.102188 20.88) scale(0.12 -0.12)">
     <use xlink:href="#DejaVuSans-66"/>
     <use xlink:href="#DejaVuSans-6c" x="35.205078"/>
     <use xlink:href="#DejaVuSans-6f" x="62.988281"/>
     <use xlink:href="#DejaVuSans-77" x="124.169922"/>
     <use xlink:href="#DejaVuSans-73" x="205.957031"/>
    </g>
   </g>
  </g>
  <g id="axes_2">
   <g id="patch_7">
    <path d="M 405.47 118.966663 
L 709.2 118.966663 
L 709.2 26.88 
L 405.47 26.88 
z
" style="fill: #ffffff"/>
   </g>
   <g id="matplotlib.axis_3">
    <g id="xtick_8">
     <g id="line2d_13">
      <g>
       <use xlink:href="#mb8cdd65c09" x="419.275909" y="118.966663" style="stroke: #000000; stroke-width: 0.8"/>
      </g>
     </g>
    </g>
    <g id="xtick_9">
     <g id="line2d_14">
      <g>
       <use xlink:href="#mb8cdd65c09" x="461.76713" y="118.966663" style="stroke: #000000; stroke-width: 0.8"/>
      </g>
     </g>
    </g>
    <g id="xtick_10">
     <g id="line2d_15">
      <g>
       <use xlink:href="#mb8cdd65c09" x="504.258351" y="118.966663" style="stroke: #000000; stroke-width: 0.8"/>
      </g>
     </g>
    </g>
    <g id="xtick_11">
     <g id="line2d_16">
      <g>
       <use xlink:href="#mb8cdd65c09" x="546.749571" y="118.966663" style="stroke: #000000; stroke-width: 0.8"/>
      </g>
     </g>
    </g>
    <g id="xtick_12">
     <g id="line2d_17">
      <g>
       <use xlink:href="#mb8cdd65c09" x="589.240792" y="118.966663" style="stroke: #000000; stroke-width: 0.8"/>
      </g>
     </g>
    </g>
    <g id="xtick_13">
     <g id="line2d_18">
      <g>
       <use xlink:href="#mb8cdd65c09" x="631.732013" y="118.966663" style="stroke: #000000; stroke-width: 0.8"/>
      </g>
     </g>
    </g>
    <g id="xtick_14">
     <g id="line2d_19">
      <g>
       <use xlink:href="#mb8cdd65c09" x="674.223234" y="118.966663" style="stroke: #000000; stroke-width: 0.8"/>
      </g>
     </g>
    </g>
    <g id="text_9">
     <!-- time -->
     <g transform="translate(546.038906 137.565101) scale(0.1 -0.1)">
      <use xlink:href="#DejaVuSans-74"/>
      <use xlink:href="#DejaVuSans-69" x="39.208984"/>
      <use xlink:href="#DejaVuSans-6d" x="66.992188"/>
      <use xlink:href="#DejaVuSans-65" x="164.404297"/>
     </g>
    </g>
   </g>
   <g id="matplotlib.axis_4">
    <g id="ytick_5">
     <g id="line2d_20">
      <g>
       <use xlink:href="#m43eef60b9e" x="405.47" y="114.780906" style="stroke: #000000; stroke-width: 0.8"/>
      </g>
     </g>
     <g id="text_10">
      <!-- 0.0 -->
      <g transform="translate(382.566875 118.580124) scale(0.1 -0.1)">
       <use xlink:href="#DejaVuSans-30"/>
       <use xlink:href="#DejaVuSans-2e" x="63.623047"/>
       <use xlink:href="#DejaVuSans-30" x="95.410156"/>
      </g>
     </g>
    </g>
    <g id="ytick_6">
     <g id="line2d_21">
      <g>
       <use xlink:href="#m43eef60b9e" x="405.47" y="71.85111" style="stroke: #000000; stroke-width: 0.8"/>
      </g>
     </g>
     <g id="text_11">
      <!-- 0.5 -->
      <g transform="translate(382.566875 75.650328) scale(0.1 -0.1)">
       <defs>
        <path id="DejaVuSans-35" d="M 691 4666 
L 3169 4666 
L 3169 4134 
L 1269 4134 
L 1269 2991 
Q 1406 3038 1543 3061 
Q 1681 3084 1819 3084 
Q 2600 3084 3056 2656 
Q 3513 2228 3513 1497 
Q 3513 744 3044 326 
Q 2575 -91 1722 -91 
Q 1428 -91 1123 -41 
Q 819 9 494 109 
L 494 744 
Q 775 591 1075 516 
Q 1375 441 1709 441 
Q 2250 441 2565 725 
Q 2881 1009 2881 1497 
Q 2881 1984 2565 2268 
Q 2250 2553 1709 2553 
Q 1456 2553 1204 2497 
Q 953 2441 691 2322 
L 691 4666 
z
" transform="scale(0.015625)"/>
       </defs>
       <use xlink:href="#DejaVuSans-30"/>
       <use xlink:href="#DejaVuSans-2e" x="63.623047"/>
       <use xlink:href="#DejaVuSans-35" x="95.410156"/>
      </g>
     </g>
    </g>
    <g id="ytick_7">
     <g id="line2d_22">
      <g>
       <use xlink:href="#m43eef60b9e" x="405.47" y="28.921314" style="stroke: #000000; stroke-width: 0.8"/>
      </g>
     </g>
     <g id="text_12">
      <!-- 1.0 -->
      <g transform="translate(382.566875 32.720532) scale(0.1 -0.1)">
       <use xlink:href="#DejaVuSans-31"/>
       <use xlink:href="#DejaVuSans-2e" x="63.623047"/>
       <use xlink:href="#DejaVuSans-30" x="95.410156"/>
      </g>
     </g>
    </g>
    <g id="text_13">
     <!-- depth (m) -->
     <g transform="translate(376.487188 97.838175) rotate(-90) scale(0.1 -0.1)">
      <defs>
       <path id="DejaVuSans-64" d="M 2906 2969 
L 2906 4863 
L 3481 4863 
L 3481 0 
L 2906 0 
L 2906 525 
Q 2725 213 2448 61 
Q 2172 -91 1784 -91 
Q 1150 -91 751 415 
Q 353 922 353 1747 
Q 353 2572 751 3078 
Q 1150 3584 1784 3584 
Q 2172 3584 2448 3432 
Q 2725 3281 2906 2969 
z
M 947 1747 
Q 947 1113 1208 752 
Q 1469 391 1925 391 
Q 2381 391 2643 752 
Q 2906 1113 2906 1747 
Q 2906 2381 2643 2742 
Q 2381 3103 1925 3103 
Q 1469 3103 1208 2742 
Q 947 2381 947 1747 
z
" transform="scale(0.015625)"/>
       <path id="DejaVuSans-70" d="M 1159 525 
L 1159 -1331 
L 581 -1331 
L 581 3500 
L 1159 3500 
L 1159 2969 
Q 1341 3281 1617 3432 
Q 1894 3584 2278 3584 
Q 2916 3584 3314 3078 
Q 3713 2572 3713 1747 
Q 3713 922 3314 415 
Q 2916 -91 2278 -91 
Q 1894 -91 1617 61 
Q 1341 213 1159 525 
z
M 3116 1747 
Q 3116 2381 2855 2742 
Q 2594 3103 2138 3103 
Q 1681 3103 1420 2742 
Q 1159 2381 1159 1747 
Q 1159 1113 1420 752 
Q 1681 391 2138 391 
Q 2594 391 2855 752 
Q 3116 1113 3116 1747 
z
" transform="scale(0.015625)"/>
       <path id="DejaVuSans-68" d="M 3513 2113 
L 3513 0 
L 2938 0 
L 2938 2094 
Q 2938 2591 2744 2837 
Q 2550 3084 2163 3084 
Q 1697 3084 1428 2787 
Q 1159 2491 1159 1978 
L 1159 0 
L 581 0 
L 581 4863 
L 1159 4863 
L 1159 2956 
Q 1366 3272 1645 3428 
Q 1925 3584 2291 3584 
Q 2894 3584 3203 3211 
Q 3513 2838 3513 2113 
z
" transform="scale(0.015625)"/>
      </defs>
      <use xlink:href="#DejaVuSans-64"/>
      <use xlink:href="#DejaVuSans-65" x="63.476562"/>
      <use xlink:href="#DejaVuSans-70" x="125"/>
      <use xlink:href="#DejaVuSans-74" x="188.476562"/>
      <use xlink:href="#DejaVuSans-68" x="227.685547"/>
      <use xlink:href="#DejaVuSans-20" x="291.064453"/>
      <use xlink:href="#DejaVuSans-28" x="322.851562"/>
      <use xlink:href="#DejaVuSans-6d" x="361.865234"/>
      <use xlink:href="#DejaVuSans-29" x="459.277344"/>
     </g>
    </g>
   </g>
   <g id="line2d_23">
    <path d="M 419.275909 114.780906 
L 423.762077 114.671686 
L 424.470264 114.302407 
L 425.609265 113.375471 
L 426.014505 112.930689 
L 427.504649 110.669544 
L 428.442997 108.901451 
L 428.507914 109.009268 
L 428.749878 109.341937 
L 428.932826 109.417687 
L 429.052824 109.359629 
L 429.666586 107.821362 
L 430.552804 106.320476 
L 430.796735 107.204528 
L 431.11837 105.910388 
L 431.18132 106.094361 
L 431.386891 106.69662 
L 431.697706 105.232557 
L 431.758689 105.361671 
L 431.958358 106.13423 
L 432.788511 103.164426 
L 433.054081 102.948756 
L 433.318667 102.762977 
L 433.585221 102.103613 
L 433.785874 101.451846 
L 434.045543 101.660949 
L 434.177344 101.559902 
L 434.305211 101.582725 
L 434.758648 100.729666 
L 434.953399 100.417512 
L 435.018316 100.433771 
L 435.207166 100.781316 
L 435.270116 100.685194 
L 435.733388 97.995183 
L 437.093698 90.675119 
L 437.4832 88.186313 
L 437.67205 87.205982 
L 438.828756 77.985916 
L 440.222507 67.719877 
L 441.165773 60.200867 
L 442.051007 53.951623 
L 444.888673 36.934784 
L 445.775874 33.629703 
L 446.346358 32.065734 
L 446.535208 31.788237 
L 446.786024 31.800841 
L 447.227657 31.173972 
L 447.479457 31.11487 
L 448.106989 31.554484 
L 448.674522 32.887285 
L 449.746639 37.005364 
L 450.378106 40.554326 
L 451.071539 45.06032 
L 451.767923 49.823038 
L 455.310825 86.311965 
L 456.914082 104.360852 
L 457.319322 106.27723 
L 458.052099 108.202926 
L 458.238981 108.205125 
L 458.301931 108.301447 
L 458.552748 109.163414 
L 458.869465 108.90622 
L 459.178313 109.400881 
L 459.554045 109.040646 
L 459.865844 108.924892 
L 460.991075 109.175994 
L 461.257629 109.450454 
L 461.927456 109.3587 
L 462.069093 109.357604 
L 462.697609 110.528797 
L 463.32219 110.151528 
L 463.628088 110.280758 
L 463.880871 110.152533 
L 464.186769 110.703567 
L 464.577255 110.346969 
L 464.899874 110.256392 
L 465.611995 110.181587 
L 465.987728 110.817114 
L 466.054612 110.756177 
L 466.463787 110.540889 
L 466.863126 110.68439 
L 467.182793 111.205227 
L 467.51033 111.462011 
L 467.709016 111.586425 
L 467.993274 111.28717 
L 468.334581 111.509466 
L 468.830312 111.216752 
L 468.971949 111.319592 
L 469.24047 111.539375 
L 469.815872 111.281413 
L 470.171933 111.264112 
L 471.036511 111.283267 
L 471.842074 111.395519 
L 472.41059 112.04914 
L 472.83747 112.135437 
L 473.275169 111.953686 
L 473.58205 111.991211 
L 473.776801 112.161865 
L 473.985323 112.232444 
L 474.560725 112.073256 
L 475.19711 112.129661 
L 475.707594 112.242678 
L 476.292832 112.26445 
L 476.886923 112.316237 
L 477.202656 112.577237 
L 477.538061 112.598878 
L 477.993465 112.893226 
L 479.384265 112.921348 
L 479.868193 113.104985 
L 480.236057 113.115466 
L 480.956047 113.316793 
L 482.473731 113.35177 
L 483.157328 113.508443 
L 484.071086 113.463988 
L 484.593374 113.532375 
L 485.022221 113.596715 
L 485.634999 113.709322 
L 497.455821 114.580225 
L 523.39317 114.691962 
L 563.317213 114.730687 
L 669.810835 114.764378 
L 695.394091 114.766651 
L 695.394091 114.766651 
" clip-path="url(#p86fdde4b7d)" style="fill: none; stroke: #1f77b4; stroke-width: 1.5; stroke-linecap: square"/>
   </g>
   <g id="patch_8">
    <path d="M 405.47 118.966663 
L 405.47 26.88 
" style="fill: none; stroke: #000000; stroke-width: 0.8; stroke-linejoin: miter; stroke-linecap: square"/>
   </g>
   <g id="patch_9">
    <path d="M 709.2 118.966663 
L 709.2 26.88 
" style="fill: none; stroke: #000000; stroke-width: 0.8; stroke-linejoin: miter; stroke-linecap: square"/>
   </g>
   <g id="patch_10">
    <path d="M 405.47 118.966663 
L 709.2 118.966663 
" style="fill: none; stroke: #000000; stroke-width: 0.8; stroke-linejoin: miter; stroke-linecap: square"/>
   </g>
   <g id="patch_11">
    <path d="M 405.47 26.88 
L 709.2 26.88 
" style="fill: none; stroke: #000000; stroke-width: 0.8; stroke-linejoin: miter; stroke-linecap: square"/>
   </g>
   <g id="text_14">
    <!-- ('P1', 'depthN') -->
    <g transform="translate(493.2829 50.065533) scale(0.1728 -0.1728)">
     <defs>
      <path id="DejaVuSans-27" d="M 1147 4666 
L 1147 2931 
L 616 2931 
L 616 4666 
L 1147 4666 
z
" transform="scale(0.015625)"/>
      <path id="DejaVuSans-50" d="M 1259 4147 
L 1259 2394 
L 2053 2394 
Q 2494 2394 2734 2622 
Q 2975 2850 2975 3272 
Q 2975 3691 2734 3919 
Q 2494 4147 2053 4147 
L 1259 4147 
z
M 628 4666 
L 2053 4666 
Q 2838 4666 3239 4311 
Q 3641 3956 3641 3272 
Q 3641 2581 3239 2228 
Q 2838 1875 2053 1875 
L 1259 1875 
L 1259 0 
L 628 0 
L 628 4666 
z
" transform="scale(0.015625)"/>
      <path id="DejaVuSans-2c" d="M 750 794 
L 1409 794 
L 1409 256 
L 897 -744 
L 494 -744 
L 750 256 
L 750 794 
z
" transform="scale(0.015625)"/>
      <path id="DejaVuSans-4e" d="M 628 4666 
L 1478 4666 
L 3547 763 
L 3547 4666 
L 4159 4666 
L 4159 0 
L 3309 0 
L 1241 3903 
L 1241 0 
L 628 0 
L 628 4666 
z
" transform="scale(0.015625)"/>
     </defs>
     <use xlink:href="#DejaVuSans-28"/>
     <use xlink:href="#DejaVuSans-27" x="39.013672"/>
     <use xlink:href="#DejaVuSans-50" x="66.503906"/>
     <use xlink:href="#DejaVuSans-31" x="126.806641"/>
     <use xlink:href="#DejaVuSans-27" x="190.429688"/>
     <use xlink:href="#DejaVuSans-2c" x="217.919922"/>
     <use xlink:href="#DejaVuSans-20" x="249.707031"/>
     <use xlink:href="#DejaVuSans-27" x="281.494141"/>
     <use xlink:href="#DejaVuSans-64" x="308.984375"/>
     <use xlink:href="#DejaVuSans-65" x="372.460938"/>
     <use xlink:href="#DejaVuSans-70" x="433.984375"/>
     <use xlink:href="#DejaVuSans-74" x="497.460938"/>
     <use xlink:href="#DejaVuSans-68" x="536.669922"/>
     <use xlink:href="#DejaVuSans-4e" x="600.048828"/>
     <use xlink:href="#DejaVuSans-27" x="674.853516"/>
     <use xlink:href="#DejaVuSans-29" x="702.34375"/>
    </g>
   </g>
   <g id="text_15">
    <!-- depths -->
    <g transform="translate(536.744688 20.88) scale(0.12 -0.12)">
     <use xlink:href="#DejaVuSans-64"/>
     <use xlink:href="#DejaVuSans-65" x="63.476562"/>
     <use xlink:href="#DejaVuSans-70" x="125"/>
     <use xlink:href="#DejaVuSans-74" x="188.476562"/>
     <use xlink:href="#DejaVuSans-68" x="227.685547"/>
     <use xlink:href="#DejaVuSans-73" x="291.064453"/>
    </g>
   </g>
  </g>
  <g id="axes_3">
   <g id="patch_12">
    <path d="M 47.72 246.04 
L 351.45 246.04 
L 351.45 153.953337 
L 47.72 153.953337 
z
" style="fill: #ffffff"/>
   </g>
   <g id="matplotlib.axis_5">
    <g id="xtick_15">
     <g id="line2d_24">
      <g>
       <use xlink:href="#mb8cdd65c09" x="61.525909" y="246.04" style="stroke: #000000; stroke-width: 0.8"/>
      </g>
     </g>
     <g id="text_16">
      <!-- 02-25 00 -->
      <g transform="translate(39.04544 260.638438) scale(0.1 -0.1)">
       <defs>
        <path id="DejaVuSans-2d" d="M 313 2009 
L 1997 2009 
L 1997 1497 
L 313 1497 
L 313 2009 
z
" transform="scale(0.015625)"/>
       </defs>
       <use xlink:href="#DejaVuSans-30"/>
       <use xlink:href="#DejaVuSans-32" x="63.623047"/>
       <use xlink:href="#DejaVuSans-2d" x="127.246094"/>
       <use xlink:href="#DejaVuSans-32" x="163.330078"/>
       <use xlink:href="#DejaVuSans-35" x="226.953125"/>
       <use xlink:href="#DejaVuSans-20" x="290.576172"/>
       <use xlink:href="#DejaVuSans-30" x="322.363281"/>
       <use xlink:href="#DejaVuSans-30" x="385.986328"/>
      </g>
     </g>
    </g>
    <g id="xtick_16">
     <g id="line2d_25">
      <g>
       <use xlink:href="#mb8cdd65c09" x="104.01713" y="246.04" style="stroke: #000000; stroke-width: 0.8"/>
      </g>
     </g>
     <g id="text_17">
      <!-- 02-25 12 -->
      <g transform="translate(81.536661 260.638438) scale(0.1 -0.1)">
       <use xlink:href="#DejaVuSans-30"/>
       <use xlink:href="#DejaVuSans-32" x="63.623047"/>
       <use xlink:href="#DejaVuSans-2d" x="127.246094"/>
       <use xlink:href="#DejaVuSans-32" x="163.330078"/>
       <use xlink:href="#DejaVuSans-35" x="226.953125"/>
       <use xlink:href="#DejaVuSans-20" x="290.576172"/>
       <use xlink:href="#DejaVuSans-31" x="322.363281"/>
       <use xlink:href="#DejaVuSans-32" x="385.986328"/>
      </g>
     </g>
    </g>
    <g id="xtick_17">
     <g id="line2d_26">
      <g>
       <use xlink:href="#mb8cdd65c09" x="146.508351" y="246.04" style="stroke: #000000; stroke-width: 0.8"/>
      </g>
     </g>
     <g id="text_18">
      <!-- 02-26 00 -->
      <g transform="translate(124.027882 260.638438) scale(0.1 -0.1)">
       <defs>
        <path id="DejaVuSans-36" d="M 2113 2584 
Q 1688 2584 1439 2293 
Q 1191 2003 1191 1497 
Q 1191 994 1439 701 
Q 1688 409 2113 409 
Q 2538 409 2786 701 
Q 3034 994 3034 1497 
Q 3034 2003 2786 2293 
Q 2538 2584 2113 2584 
z
M 3366 4563 
L 3366 3988 
Q 3128 4100 2886 4159 
Q 2644 4219 2406 4219 
Q 1781 4219 1451 3797 
Q 1122 3375 1075 2522 
Q 1259 2794 1537 2939 
Q 1816 3084 2150 3084 
Q 2853 3084 3261 2657 
Q 3669 2231 3669 1497 
Q 3669 778 3244 343 
Q 2819 -91 2113 -91 
Q 1303 -91 875 529 
Q 447 1150 447 2328 
Q 447 3434 972 4092 
Q 1497 4750 2381 4750 
Q 2619 4750 2861 4703 
Q 3103 4656 3366 4563 
z
" transform="scale(0.015625)"/>
       </defs>
       <use xlink:href="#DejaVuSans-30"/>
       <use xlink:href="#DejaVuSans-32" x="63.623047"/>
       <use xlink:href="#DejaVuSans-2d" x="127.246094"/>
       <use xlink:href="#DejaVuSans-32" x="163.330078"/>
       <use xlink:href="#DejaVuSans-36" x="226.953125"/>
       <use xlink:href="#DejaVuSans-20" x="290.576172"/>
       <use xlink:href="#DejaVuSans-30" x="322.363281"/>
       <use xlink:href="#DejaVuSans-30" x="385.986328"/>
      </g>
     </g>
    </g>
    <g id="xtick_18">
     <g id="line2d_27">
      <g>
       <use xlink:href="#mb8cdd65c09" x="188.999571" y="246.04" style="stroke: #000000; stroke-width: 0.8"/>
      </g>
     </g>
     <g id="text_19">
      <!-- 02-26 12 -->
      <g transform="translate(166.519103 260.638438) scale(0.1 -0.1)">
       <use xlink:href="#DejaVuSans-30"/>
       <use xlink:href="#DejaVuSans-32" x="63.623047"/>
       <use xlink:href="#DejaVuSans-2d" x="127.246094"/>
       <use xlink:href="#DejaVuSans-32" x="163.330078"/>
       <use xlink:href="#DejaVuSans-36" x="226.953125"/>
       <use xlink:href="#DejaVuSans-20" x="290.576172"/>
       <use xlink:href="#DejaVuSans-31" x="322.363281"/>
       <use xlink:href="#DejaVuSans-32" x="385.986328"/>
      </g>
     </g>
    </g>
    <g id="xtick_19">
     <g id="line2d_28">
      <g>
       <use xlink:href="#mb8cdd65c09" x="231.490792" y="246.04" style="stroke: #000000; stroke-width: 0.8"/>
      </g>
     </g>
     <g id="text_20">
      <!-- 02-27 00 -->
      <g transform="translate(209.010323 260.638438) scale(0.1 -0.1)">
       <defs>
        <path id="DejaVuSans-37" d="M 525 4666 
L 3525 4666 
L 3525 4397 
L 1831 0 
L 1172 0 
L 2766 4134 
L 525 4134 
L 525 4666 
z
" transform="scale(0.015625)"/>
       </defs>
       <use xlink:href="#DejaVuSans-30"/>
       <use xlink:href="#DejaVuSans-32" x="63.623047"/>
       <use xlink:href="#DejaVuSans-2d" x="127.246094"/>
       <use xlink:href="#DejaVuSans-32" x="163.330078"/>
       <use xlink:href="#DejaVuSans-37" x="226.953125"/>
       <use xlink:href="#DejaVuSans-20" x="290.576172"/>
       <use xlink:href="#DejaVuSans-30" x="322.363281"/>
       <use xlink:href="#DejaVuSans-30" x="385.986328"/>
      </g>
     </g>
    </g>
    <g id="xtick_20">
     <g id="line2d_29">
      <g>
       <use xlink:href="#mb8cdd65c09" x="273.982013" y="246.04" style="stroke: #000000; stroke-width: 0.8"/>
      </g>
     </g>
     <g id="text_21">
      <!-- 02-27 12 -->
      <g transform="translate(251.501544 260.638438) scale(0.1 -0.1)">
       <use xlink:href="#DejaVuSans-30"/>
       <use xlink:href="#DejaVuSans-32" x="63.623047"/>
       <use xlink:href="#DejaVuSans-2d" x="127.246094"/>
       <use xlink:href="#DejaVuSans-32" x="163.330078"/>
       <use xlink:href="#DejaVuSans-37" x="226.953125"/>
       <use xlink:href="#DejaVuSans-20" x="290.576172"/>
       <use xlink:href="#DejaVuSans-31" x="322.363281"/>
       <use xlink:href="#DejaVuSans-32" x="385.986328"/>
      </g>
     </g>
    </g>
    <g id="xtick_21">
     <g id="line2d_30">
      <g>
       <use xlink:href="#mb8cdd65c09" x="316.473234" y="246.04" style="stroke: #000000; stroke-width: 0.8"/>
      </g>
     </g>
     <g id="text_22">
      <!-- 02-28 00 -->
      <g transform="translate(293.992765 260.638438) scale(0.1 -0.1)">
       <defs>
        <path id="DejaVuSans-38" d="M 2034 2216 
Q 1584 2216 1326 1975 
Q 1069 1734 1069 1313 
Q 1069 891 1326 650 
Q 1584 409 2034 409 
Q 2484 409 2743 651 
Q 3003 894 3003 1313 
Q 3003 1734 2745 1975 
Q 2488 2216 2034 2216 
z
M 1403 2484 
Q 997 2584 770 2862 
Q 544 3141 544 3541 
Q 544 4100 942 4425 
Q 1341 4750 2034 4750 
Q 2731 4750 3128 4425 
Q 3525 4100 3525 3541 
Q 3525 3141 3298 2862 
Q 3072 2584 2669 2484 
Q 3125 2378 3379 2068 
Q 3634 1759 3634 1313 
Q 3634 634 3220 271 
Q 2806 -91 2034 -91 
Q 1263 -91 848 271 
Q 434 634 434 1313 
Q 434 1759 690 2068 
Q 947 2378 1403 2484 
z
M 1172 3481 
Q 1172 3119 1398 2916 
Q 1625 2713 2034 2713 
Q 2441 2713 2670 2916 
Q 2900 3119 2900 3481 
Q 2900 3844 2670 4047 
Q 2441 4250 2034 4250 
Q 1625 4250 1398 4047 
Q 1172 3844 1172 3481 
z
" transform="scale(0.015625)"/>
       </defs>
       <use xlink:href="#DejaVuSans-30"/>
       <use xlink:href="#DejaVuSans-32" x="63.623047"/>
       <use xlink:href="#DejaVuSans-2d" x="127.246094"/>
       <use xlink:href="#DejaVuSans-32" x="163.330078"/>
       <use xlink:href="#DejaVuSans-38" x="226.953125"/>
       <use xlink:href="#DejaVuSans-20" x="290.576172"/>
       <use xlink:href="#DejaVuSans-30" x="322.363281"/>
       <use xlink:href="#DejaVuSans-30" x="385.986328"/>
      </g>
     </g>
    </g>
    <g id="text_23">
     <!-- time -->
     <g transform="translate(188.288906 274.316563) scale(0.1 -0.1)">
      <use xlink:href="#DejaVuSans-74"/>
      <use xlink:href="#DejaVuSans-69" x="39.208984"/>
      <use xlink:href="#DejaVuSans-6d" x="66.992188"/>
      <use xlink:href="#DejaVuSans-65" x="164.404297"/>
     </g>
    </g>
   </g>
   <g id="matplotlib.axis_6">
    <g id="ytick_8">
     <g id="line2d_31">
      <g>
       <use xlink:href="#m43eef60b9e" x="47.72" y="241.854243" style="stroke: #000000; stroke-width: 0.8"/>
      </g>
     </g>
     <g id="text_24">
      <!-- 0.0 -->
      <g transform="translate(24.816875 245.653461) scale(0.1 -0.1)">
       <use xlink:href="#DejaVuSans-30"/>
       <use xlink:href="#DejaVuSans-2e" x="63.623047"/>
       <use xlink:href="#DejaVuSans-30" x="95.410156"/>
      </g>
     </g>
    </g>
    <g id="ytick_9">
     <g id="line2d_32">
      <g>
       <use xlink:href="#m43eef60b9e" x="47.72" y="209.398887" style="stroke: #000000; stroke-width: 0.8"/>
      </g>
     </g>
     <g id="text_25">
      <!-- 0.1 -->
      <g transform="translate(24.816875 213.198105) scale(0.1 -0.1)">
       <use xlink:href="#DejaVuSans-30"/>
       <use xlink:href="#DejaVuSans-2e" x="63.623047"/>
       <use xlink:href="#DejaVuSans-31" x="95.410156"/>
      </g>
     </g>
    </g>
    <g id="ytick_10">
     <g id="line2d_33">
      <g>
       <use xlink:href="#m43eef60b9e" x="47.72" y="176.943531" style="stroke: #000000; stroke-width: 0.8"/>
      </g>
     </g>
     <g id="text_26">
      <!-- 0.2 -->
      <g transform="translate(24.816875 180.74275) scale(0.1 -0.1)">
       <use xlink:href="#DejaVuSans-30"/>
       <use xlink:href="#DejaVuSans-2e" x="63.623047"/>
       <use xlink:href="#DejaVuSans-32" x="95.410156"/>
      </g>
     </g>
    </g>
    <g id="text_27">
     <!-- flow (cms) -->
     <g transform="translate(18.737188 226.009168) rotate(-90) scale(0.1 -0.1)">
      <use xlink:href="#DejaVuSans-66"/>
      <use xlink:href="#DejaVuSans-6c" x="35.205078"/>
      <use xlink:href="#DejaVuSans-6f" x="62.988281"/>
      <use xlink:href="#DejaVuSans-77" x="124.169922"/>
      <use xlink:href="#DejaVuSans-20" x="205.957031"/>
      <use xlink:href="#DejaVuSans-28" x="237.744141"/>
      <use xlink:href="#DejaVuSans-63" x="276.757812"/>
      <use xlink:href="#DejaVuSans-6d" x="331.738281"/>
      <use xlink:href="#DejaVuSans-73" x="429.150391"/>
      <use xlink:href="#DejaVuSans-29" x="481.25"/>
     </g>
    </g>
   </g>
   <g id="line2d_34">
    <path d="M 61.525909 241.854243 
L 67.250421 241.757423 
L 67.927133 241.454114 
L 68.33434 241.120735 
L 68.657942 240.552122 
L 68.777941 240.512219 
L 69.153673 239.658034 
L 69.497931 238.533075 
L 69.754649 237.378363 
L 70.206118 234.525864 
L 71.122827 227.272177 
L 71.916586 219.525844 
L 72.127075 216.446969 
L 72.402481 214.882993 
L 74.075573 192.830503 
L 74.141474 193.034422 
L 74.208358 192.766145 
L 74.276226 191.491787 
L 74.337209 191.750278 
L 74.458191 190.923906 
L 74.588025 188.321752 
L 74.656877 190.152458 
L 74.716876 189.914992 
L 74.776875 189.450609 
L 75.038511 182.765499 
L 75.105395 182.356958 
L 75.23818 185.4944 
L 75.304081 185.428225 
L 75.436866 183.965059 
L 75.568667 186.15619 
L 75.702436 185.067223 
L 75.768337 181.090074 
L 75.835221 182.733946 
L 75.902105 182.629106 
L 75.96899 182.167304 
L 76.035874 178.811718 
L 76.230626 187.130042 
L 76.295543 186.471076 
L 76.491278 177.289163 
L 76.619145 176.708122 
L 76.748979 177.790392 
L 76.878813 177.045245 
L 76.943731 177.238103 
L 77.073565 180.092026 
L 77.138482 179.819022 
L 77.268316 176.35555 
L 77.331266 176.615959 
L 77.394216 176.69531 
L 77.520116 176.399357 
L 77.652901 180.861682 
L 77.719785 180.361051 
L 77.78667 178.425356 
L 77.851587 178.754888 
L 77.917488 179.900167 
L 77.983388 179.586171 
L 78.049289 179.128857 
L 78.245024 173.411049 
L 78.438792 172.589548 
L 78.503709 172.944516 
L 78.701411 171.009179 
L 78.829278 172.563663 
L 79.021079 171.655408 
L 79.214847 168.640129 
L 79.279764 169.01753 
L 79.409598 172.790624 
L 79.474515 172.539339 
L 79.540416 172.131209 
L 79.79615 167.947157 
L 79.8591 167.978897 
L 79.92205 169.955925 
L 79.986967 168.939243 
L 80.246636 164.560143 
L 80.374503 162.799157 
L 80.438437 163.221431 
L 80.566304 169.514487 
L 80.695154 168.815128 
L 80.887939 164.803218 
L 81.014822 164.254747 
L 81.205639 168.25902 
L 81.269573 168.049505 
L 81.333506 168.427863 
L 81.522356 162.883674 
L 81.585306 162.547283 
L 81.711206 166.242598 
L 81.900056 165.333416 
L 82.089889 169.550894 
L 82.153823 169.257551 
L 82.472507 166.336069 
L 82.536441 167.090437 
L 82.725291 162.282969 
L 82.788241 162.058377 
L 82.851191 163.288913 
L 83.04004 160.821927 
L 83.10299 162.227855 
L 83.166924 161.813268 
L 83.353807 158.354651 
L 83.542656 166.17085 
L 83.605606 166.103419 
L 83.73249 165.814078 
L 83.922323 163.123038 
L 83.985273 162.91674 
L 84.048223 162.988313 
L 84.174123 164.635083 
L 84.238057 164.479619 
L 84.301007 163.816092 
L 84.489857 167.315577 
L 84.55379 167.029923 
L 84.61674 164.589726 
L 84.680674 165.163414 
L 84.808541 164.855606 
L 84.871491 165.023257 
L 85.060341 158.475573 
L 85.123291 158.266215 
L 85.311157 164.191613 
L 85.374107 164.189608 
L 85.500007 163.799762 
L 85.690824 161.470987 
L 85.754757 161.544391 
L 85.880657 163.083595 
L 85.943607 163.057144 
L 86.006557 162.912398 
L 86.069507 163.185012 
L 86.257373 158.323969 
L 86.320323 158.139094 
L 86.38229 160.07796 
L 86.44524 159.418128 
L 86.57114 158.845827 
L 86.633106 159.149775 
L 86.696056 161.395359 
L 86.759006 161.14891 
L 86.885889 160.598886 
L 86.948839 160.712909 
L 87.138673 164.463936 
L 87.201623 164.382594 
L 87.453422 160.534139 
L 87.516372 160.744561 
L 87.70719 164.248137 
L 87.771123 164.188125 
L 87.834073 163.161654 
L 88.025874 166.728009 
L 88.089807 166.685417 
L 88.216691 163.277284 
L 88.406524 162.793512 
L 88.659308 159.264463 
L 88.910124 163.492166 
L 88.973074 163.524482 
L 89.036024 163.168294 
L 89.224874 158.703409 
L 89.287824 159.009481 
L 89.477657 163.712127 
L 89.540607 163.753936 
L 89.603557 163.484903 
L 89.729457 161.752583 
L 89.855357 161.791531 
L 89.917323 162.097662 
L 90.106173 158.910657 
L 90.169123 159.297848 
L 90.419939 164.625208 
L 90.545839 163.55334 
L 90.735673 165.339268 
L 90.924522 161.670311 
L 91.050422 161.899753 
L 91.113372 162.294563 
L 91.176322 162.058486 
L 91.302222 162.102976 
L 91.365172 162.235082 
L 91.554022 161.134073 
L 91.616972 161.215359 
L 91.805822 162.68445 
L 91.933689 162.828072 
L 91.996639 163.514163 
L 92.059589 163.256283 
L 92.122539 163.190254 
L 92.186472 163.266171 
L 92.249422 162.536547 
L 92.312372 162.755913 
L 92.502206 164.53342 
L 92.628106 162.695207 
L 92.691056 163.002083 
L 92.815972 163.444377 
L 93.004822 162.064808 
L 93.068755 162.151119 
L 93.321539 161.465763 
L 93.384489 161.597271 
L 93.701206 163.966817 
L 93.891039 161.306008 
L 93.954973 161.429695 
L 94.204805 163.301283 
L 94.329722 164.485473 
L 94.517588 160.771429 
L 94.580538 161.009579 
L 94.831354 165.109082 
L 94.894304 165.270344 
L 95.149055 167.91386 
L 95.276922 165.314877 
L 95.340855 165.69753 
L 95.468722 166.217598 
L 95.532656 165.21907 
L 95.720522 167.70771 
L 95.783472 167.689519 
L 95.910356 165.363245 
L 95.972322 165.579491 
L 96.098222 166.116685 
L 96.289039 163.291169 
L 96.352973 163.583244 
L 96.608707 170.092699 
L 96.67264 169.75629 
L 96.800507 163.979767 
L 96.863457 163.996874 
L 96.926407 164.372585 
L 97.182142 168.814568 
L 97.246075 169.1585 
L 97.310992 167.174886 
L 97.497875 171.034643 
L 97.560825 170.85206 
L 97.687708 165.869541 
L 97.751642 165.983358 
L 97.878525 167.360454 
L 97.942459 166.887203 
L 98.006393 166.043563 
L 98.07131 166.127843 
L 98.135243 166.522214 
L 98.391961 169.925624 
L 98.519828 169.554839 
L 98.709662 172.077185 
L 98.773595 172.381593 
L 98.966379 176.056319 
L 99.097197 173.027604 
L 99.164082 173.471748 
L 99.29785 174.513125 
L 99.433586 170.498568 
L 99.501454 170.80554 
L 99.569322 171.462936 
L 99.638173 171.455561 
L 99.775877 170.149321 
L 99.91358 172.201486 
L 100.120134 176.718812 
L 100.180133 177.298323 
L 100.240132 176.617324 
L 100.427015 183.128973 
L 100.488981 183.382592 
L 100.551931 178.000098 
L 100.612914 178.561534 
L 100.927664 184.25258 
L 101.055531 185.412251 
L 101.119465 184.125401 
L 101.244381 178.829316 
L 101.428313 181.827882 
L 101.554213 178.160244 
L 101.617163 178.857992 
L 101.743063 168.844958 
L 101.804045 169.23483 
L 101.988961 179.234667 
L 102.180762 191.143976 
L 102.245679 192.322433 
L 102.310596 188.353375 
L 102.507314 196.657687 
L 102.574199 196.997231 
L 102.641083 191.143449 
L 102.706 192.103034 
L 102.903702 197.882019 
L 103.037471 202.734443 
L 103.105339 203.410579 
L 103.241075 199.54397 
L 103.306976 200.388283 
L 103.785002 208.038768 
L 103.91582 212.197036 
L 103.986638 212.474388 
L 104.106637 208.134568 
L 104.248274 208.887363 
L 104.319093 209.385343 
L 104.527615 213.837617 
L 104.596466 214.175534 
L 104.666301 211.039122 
L 104.73712 211.053974 
L 104.87679 211.940827 
L 105.008592 213.610318 
L 105.070558 213.53309 
L 105.194491 214.043387 
L 105.382357 217.948218 
L 105.509241 218.010087 
L 105.633173 214.803105 
L 105.755139 215.272084 
L 105.816122 215.552429 
L 105.878088 216.678041 
L 105.941038 216.329526 
L 106.130871 217.372922 
L 106.31382 220.446233 
L 106.374802 220.562306 
L 106.436769 219.072184 
L 106.565619 220.721658 
L 106.632504 220.776144 
L 106.698405 220.428074 
L 106.827255 218.168466 
L 106.95709 218.506974 
L 107.214791 221.452376 
L 107.279708 221.41545 
L 107.408559 219.308059 
L 107.926912 220.901211 
L 107.988879 220.077515 
L 108.049861 220.238699 
L 108.111828 220.460045 
L 108.441331 224.31182 
L 108.510183 222.639205 
L 108.644935 224.588852 
L 108.713787 224.612308 
L 108.91444 221.905393 
L 109.113126 222.234871 
L 109.302959 223.133887 
L 109.366893 223.358992 
L 109.496727 222.70089 
L 109.627545 223.022233 
L 109.693445 224.459915 
L 109.76033 223.336737 
L 109.826231 223.415793 
L 109.893115 223.549314 
L 110.170488 226.818837 
L 110.313109 225.81357 
L 110.447861 226.530436 
L 110.515729 226.589695 
L 110.655399 224.562928 
L 110.796053 224.763731 
L 111.008509 227.429798 
L 111.080312 227.445585 
L 111.152114 226.789916 
L 111.288833 224.72296 
L 111.421618 225.239394 
L 111.49047 225.700661 
L 111.560305 225.683812 
L 111.702926 225.902417 
L 111.919317 228.436062 
L 111.993086 228.449778 
L 112.137674 226.245922 
L 112.281279 226.430632 
L 112.493735 227.060391 
L 112.565537 227.152556 
L 112.777993 227.82771 
L 112.850779 227.903675 
L 112.923565 228.146252 
L 112.996351 227.318148 
L 113.068153 227.372739 
L 113.140939 227.464393 
L 113.433066 229.308046 
L 113.506836 228.035358 
L 113.651424 228.972856 
L 113.725193 229.039391 
L 113.798963 229.602693 
L 113.872732 228.14407 
L 113.945518 228.193565 
L 114.019288 228.285574 
L 114.092074 228.839539 
L 114.234695 228.220663 
L 114.30453 228.343904 
L 114.446167 228.93324 
L 114.517969 228.686449 
L 114.588788 228.7955 
L 115.275336 229.983383 
L 115.400252 231.275489 
L 115.525169 231.323717 
L 115.648118 230.1134 
L 115.709101 230.154885 
L 115.83205 230.279374 
L 115.893033 230.666961 
L 115.953032 230.193256 
L 116.026801 230.24165 
L 116.100571 230.343782 
L 116.17434 230.884234 
L 116.235323 230.792291 
L 116.425156 231.013002 
L 116.680891 232.565794 
L 116.745808 232.252679 
L 116.874658 231.195356 
L 117.000558 231.292476 
L 117.190392 232.661019 
L 117.255309 232.690625 
L 117.38416 232.166716 
L 117.51006 232.713743 
L 117.573993 232.749677 
L 117.636943 232.124807 
L 117.699893 232.294525 
L 117.892677 232.603347 
L 118.021528 231.985287 
L 118.216279 232.229861 
L 118.412014 233.495903 
L 118.476932 233.52411 
L 118.607749 232.391882 
L 118.67365 232.458732 
L 118.804468 232.576346 
L 119.00217 234.019526 
L 119.070038 234.044628 
L 119.136923 232.934063 
L 119.200856 233.075755 
L 119.388722 233.263932 
L 119.452656 232.96975 
L 119.518557 233.115027 
L 119.72216 233.434045 
L 119.852978 234.170355 
L 119.917895 234.21497 
L 119.982813 234.076648 
L 120.112647 233.37146 
L 120.243465 233.506272 
L 120.309366 233.851259 
L 120.377233 233.795084 
L 120.516904 233.919364 
L 120.585755 234.225002 
L 120.654607 233.984641 
L 120.723458 234.035133 
L 120.862145 234.140241 
L 121.069683 234.761487 
L 121.139518 234.800288 
L 121.209353 234.649264 
L 121.351974 235.172101 
L 121.423776 235.204456 
L 121.496562 234.75841 
L 121.634265 235.174642 
L 122.047374 235.536988 
L 122.265732 235.859472 
L 122.556876 235.86964 
L 122.844085 235.957354 
L 122.915887 235.990273 
L 122.988673 235.735079 
L 123.133261 236.042104 
L 123.206047 236.078185 
L 123.278833 235.981716 
L 123.808006 236.553923 
L 123.961447 235.771288 
L 124.11292 235.977917 
L 124.267344 236.779715 
L 124.424719 236.743406 
L 124.575209 236.724391 
L 124.94799 236.780127 
L 125.023727 236.735423 
L 125.252904 237.060759 
L 125.329625 236.839147 
L 125.529294 237.209604 
L 125.896174 237.340372 
L 126.077155 237.428332 
L 126.199121 237.422518 
L 126.321086 236.925161 
L 126.443052 236.997409 
L 126.624033 237.592851 
L 126.783375 237.634473 
L 126.843374 237.203457 
L 126.905341 237.219244 
L 127.02829 237.296632 
L 127.33222 237.94037 
L 127.392219 237.823773 
L 127.454186 237.424863 
L 127.514185 237.439846 
L 127.634183 237.50551 
L 127.820082 238.18289 
L 127.948933 238.225726 
L 128.012866 238.137932 
L 128.205651 238.30938 
L 128.335485 238.343918 
L 128.467286 238.417272 
L 128.795807 238.086738 
L 129.119409 238.617398 
L 129.318094 238.682767 
L 130.007593 238.894588 
L 130.142345 238.540871 
L 130.273163 238.592967 
L 130.546602 239.149734 
L 130.618405 239.12867 
L 130.757091 238.795484 
L 130.891843 238.843867 
L 131.029546 239.266049 
L 131.169217 239.313409 
L 131.38364 239.083827 
L 131.456426 239.112221 
L 131.678718 239.517045 
L 132.129203 239.562529 
L 132.274775 239.521301 
L 132.792145 239.777165 
L 133.028208 239.809037 
L 133.258368 239.779332 
L 133.411809 239.671169 
L 133.564266 239.74899 
L 133.719673 240.002115 
L 133.799344 240.022418 
L 133.878032 239.918683 
L 134.039341 240.114101 
L 134.968837 240.265096 
L 135.136047 240.225372 
L 135.643582 240.342122 
L 135.81571 240.268959 
L 135.902266 240.288031 
L 136.076362 240.495762 
L 138.200924 240.81941 
L 138.555017 240.74751 
L 138.820587 240.890832 
L 138.997634 240.909596 
L 139.971391 240.983741 
L 140.591055 240.964621 
L 140.945148 241.087491 
L 141.122195 241.020958 
L 147.141785 241.391643 
L 147.495878 241.364677 
L 170.157862 241.697234 
L 176.531546 241.731451 
L 203.796746 241.79277 
L 290.372608 241.837103 
L 337.644091 241.843649 
L 337.644091 241.843649 
" clip-path="url(#p3dbfbab926)" style="fill: none; stroke: #1f77b4; stroke-width: 1.5; stroke-linecap: square"/>
   </g>
   <g id="patch_13">
    <path d="M 47.72 246.04 
L 47.72 153.953337 
" style="fill: none; stroke: #000000; stroke-width: 0.8; stroke-linejoin: miter; stroke-linecap: square"/>
   </g>
   <g id="patch_14">
    <path d="M 351.45 246.04 
L 351.45 153.953337 
" style="fill: none; stroke: #000000; stroke-width: 0.8; stroke-linejoin: miter; stroke-linecap: square"/>
   </g>
   <g id="patch_15">
    <path d="M 47.72 246.04 
L 351.45 246.04 
" style="fill: none; stroke: #000000; stroke-width: 0.8; stroke-linejoin: miter; stroke-linecap: square"/>
   </g>
   <g id="patch_16">
    <path d="M 47.72 153.953337 
L 351.45 153.953337 
" style="fill: none; stroke: #000000; stroke-width: 0.8; stroke-linejoin: miter; stroke-linecap: square"/>
   </g>
   <g id="text_28">
    <!-- 2 -->
    <g transform="translate(194.0878 177.13887) scale(0.1728 -0.1728)">
     <use xlink:href="#DejaVuSans-32"/>
    </g>
   </g>
  </g>
  <g id="axes_4">
   <g id="patch_17">
    <path d="M 405.47 246.04 
L 709.2 246.04 
L 709.2 153.953337 
L 405.47 153.953337 
z
" style="fill: #ffffff"/>
   </g>
   <g id="matplotlib.axis_7">
    <g id="xtick_22">
     <g id="line2d_35">
      <g>
       <use xlink:href="#mb8cdd65c09" x="419.275909" y="246.04" style="stroke: #000000; stroke-width: 0.8"/>
      </g>
     </g>
     <g id="text_29">
      <!-- 02-25 00 -->
      <g transform="translate(396.79544 260.638438) scale(0.1 -0.1)">
       <use xlink:href="#DejaVuSans-30"/>
       <use xlink:href="#DejaVuSans-32" x="63.623047"/>
       <use xlink:href="#DejaVuSans-2d" x="127.246094"/>
       <use xlink:href="#DejaVuSans-32" x="163.330078"/>
       <use xlink:href="#DejaVuSans-35" x="226.953125"/>
       <use xlink:href="#DejaVuSans-20" x="290.576172"/>
       <use xlink:href="#DejaVuSans-30" x="322.363281"/>
       <use xlink:href="#DejaVuSans-30" x="385.986328"/>
      </g>
     </g>
    </g>
    <g id="xtick_23">
     <g id="line2d_36">
      <g>
       <use xlink:href="#mb8cdd65c09" x="461.76713" y="246.04" style="stroke: #000000; stroke-width: 0.8"/>
      </g>
     </g>
     <g id="text_30">
      <!-- 02-25 12 -->
      <g transform="translate(439.286661 260.638438) scale(0.1 -0.1)">
       <use xlink:href="#DejaVuSans-30"/>
       <use xlink:href="#DejaVuSans-32" x="63.623047"/>
       <use xlink:href="#DejaVuSans-2d" x="127.246094"/>
       <use xlink:href="#DejaVuSans-32" x="163.330078"/>
       <use xlink:href="#DejaVuSans-35" x="226.953125"/>
       <use xlink:href="#DejaVuSans-20" x="290.576172"/>
       <use xlink:href="#DejaVuSans-31" x="322.363281"/>
       <use xlink:href="#DejaVuSans-32" x="385.986328"/>
      </g>
     </g>
    </g>
    <g id="xtick_24">
     <g id="line2d_37">
      <g>
       <use xlink:href="#mb8cdd65c09" x="504.258351" y="246.04" style="stroke: #000000; stroke-width: 0.8"/>
      </g>
     </g>
     <g id="text_31">
      <!-- 02-26 00 -->
      <g transform="translate(481.777882 260.638438) scale(0.1 -0.1)">
       <use xlink:href="#DejaVuSans-30"/>
       <use xlink:href="#DejaVuSans-32" x="63.623047"/>
       <use xlink:href="#DejaVuSans-2d" x="127.246094"/>
       <use xlink:href="#DejaVuSans-32" x="163.330078"/>
       <use xlink:href="#DejaVuSans-36" x="226.953125"/>
       <use xlink:href="#DejaVuSans-20" x="290.576172"/>
       <use xlink:href="#DejaVuSans-30" x="322.363281"/>
       <use xlink:href="#DejaVuSans-30" x="385.986328"/>
      </g>
     </g>
    </g>
    <g id="xtick_25">
     <g id="line2d_38">
      <g>
       <use xlink:href="#mb8cdd65c09" x="546.749571" y="246.04" style="stroke: #000000; stroke-width: 0.8"/>
      </g>
     </g>
     <g id="text_32">
      <!-- 02-26 12 -->
      <g transform="translate(524.269103 260.638438) scale(0.1 -0.1)">
       <use xlink:href="#DejaVuSans-30"/>
       <use xlink:href="#DejaVuSans-32" x="63.623047"/>
       <use xlink:href="#DejaVuSans-2d" x="127.246094"/>
       <use xlink:href="#DejaVuSans-32" x="163.330078"/>
       <use xlink:href="#DejaVuSans-36" x="226.953125"/>
       <use xlink:href="#DejaVuSans-20" x="290.576172"/>
       <use xlink:href="#DejaVuSans-31" x="322.363281"/>
       <use xlink:href="#DejaVuSans-32" x="385.986328"/>
      </g>
     </g>
    </g>
    <g id="xtick_26">
     <g id="line2d_39">
      <g>
       <use xlink:href="#mb8cdd65c09" x="589.240792" y="246.04" style="stroke: #000000; stroke-width: 0.8"/>
      </g>
     </g>
     <g id="text_33">
      <!-- 02-27 00 -->
      <g transform="translate(566.760323 260.638438) scale(0.1 -0.1)">
       <use xlink:href="#DejaVuSans-30"/>
       <use xlink:href="#DejaVuSans-32" x="63.623047"/>
       <use xlink:href="#DejaVuSans-2d" x="127.246094"/>
       <use xlink:href="#DejaVuSans-32" x="163.330078"/>
       <use xlink:href="#DejaVuSans-37" x="226.953125"/>
       <use xlink:href="#DejaVuSans-20" x="290.576172"/>
       <use xlink:href="#DejaVuSans-30" x="322.363281"/>
       <use xlink:href="#DejaVuSans-30" x="385.986328"/>
      </g>
     </g>
    </g>
    <g id="xtick_27">
     <g id="line2d_40">
      <g>
       <use xlink:href="#mb8cdd65c09" x="631.732013" y="246.04" style="stroke: #000000; stroke-width: 0.8"/>
      </g>
     </g>
     <g id="text_34">
      <!-- 02-27 12 -->
      <g transform="translate(609.251544 260.638438) scale(0.1 -0.1)">
       <use xlink:href="#DejaVuSans-30"/>
       <use xlink:href="#DejaVuSans-32" x="63.623047"/>
       <use xlink:href="#DejaVuSans-2d" x="127.246094"/>
       <use xlink:href="#DejaVuSans-32" x="163.330078"/>
       <use xlink:href="#DejaVuSans-37" x="226.953125"/>
       <use xlink:href="#DejaVuSans-20" x="290.576172"/>
       <use xlink:href="#DejaVuSans-31" x="322.363281"/>
       <use xlink:href="#DejaVuSans-32" x="385.986328"/>
      </g>
     </g>
    </g>
    <g id="xtick_28">
     <g id="line2d_41">
      <g>
       <use xlink:href="#mb8cdd65c09" x="674.223234" y="246.04" style="stroke: #000000; stroke-width: 0.8"/>
      </g>
     </g>
     <g id="text_35">
      <!-- 02-28 00 -->
      <g transform="translate(651.742765 260.638438) scale(0.1 -0.1)">
       <use xlink:href="#DejaVuSans-30"/>
       <use xlink:href="#DejaVuSans-32" x="63.623047"/>
       <use xlink:href="#DejaVuSans-2d" x="127.246094"/>
       <use xlink:href="#DejaVuSans-32" x="163.330078"/>
       <use xlink:href="#DejaVuSans-38" x="226.953125"/>
       <use xlink:href="#DejaVuSans-20" x="290.576172"/>
       <use xlink:href="#DejaVuSans-30" x="322.363281"/>
       <use xlink:href="#DejaVuSans-30" x="385.986328"/>
      </g>
     </g>
    </g>
    <g id="text_36">
     <!-- time -->
     <g transform="translate(546.038906 274.316563) scale(0.1 -0.1)">
      <use xlink:href="#DejaVuSans-74"/>
      <use xlink:href="#DejaVuSans-69" x="39.208984"/>
      <use xlink:href="#DejaVuSans-6d" x="66.992188"/>
      <use xlink:href="#DejaVuSans-65" x="164.404297"/>
     </g>
    </g>
   </g>
   <g id="matplotlib.axis_8">
    <g id="ytick_11">
     <g id="line2d_42">
      <g>
       <use xlink:href="#m43eef60b9e" x="405.47" y="241.854243" style="stroke: #000000; stroke-width: 0.8"/>
      </g>
     </g>
     <g id="text_37">
      <!-- 0.0 -->
      <g transform="translate(382.566875 245.653461) scale(0.1 -0.1)">
       <use xlink:href="#DejaVuSans-30"/>
       <use xlink:href="#DejaVuSans-2e" x="63.623047"/>
       <use xlink:href="#DejaVuSans-30" x="95.410156"/>
      </g>
     </g>
    </g>
    <g id="ytick_12">
     <g id="line2d_43">
      <g>
       <use xlink:href="#m43eef60b9e" x="405.47" y="212.813795" style="stroke: #000000; stroke-width: 0.8"/>
      </g>
     </g>
     <g id="text_38">
      <!-- 0.5 -->
      <g transform="translate(382.566875 216.613014) scale(0.1 -0.1)">
       <use xlink:href="#DejaVuSans-30"/>
       <use xlink:href="#DejaVuSans-2e" x="63.623047"/>
       <use xlink:href="#DejaVuSans-35" x="95.410156"/>
      </g>
     </g>
    </g>
    <g id="ytick_13">
     <g id="line2d_44">
      <g>
       <use xlink:href="#m43eef60b9e" x="405.47" y="183.773347" style="stroke: #000000; stroke-width: 0.8"/>
      </g>
     </g>
     <g id="text_39">
      <!-- 1.0 -->
      <g transform="translate(382.566875 187.572566) scale(0.1 -0.1)">
       <use xlink:href="#DejaVuSans-31"/>
       <use xlink:href="#DejaVuSans-2e" x="63.623047"/>
       <use xlink:href="#DejaVuSans-30" x="95.410156"/>
      </g>
     </g>
    </g>
    <g id="ytick_14">
     <g id="line2d_45">
      <g>
       <use xlink:href="#m43eef60b9e" x="405.47" y="154.7329" style="stroke: #000000; stroke-width: 0.8"/>
      </g>
     </g>
     <g id="text_40">
      <!-- 1.5 -->
      <g transform="translate(382.566875 158.532119) scale(0.1 -0.1)">
       <use xlink:href="#DejaVuSans-31"/>
       <use xlink:href="#DejaVuSans-2e" x="63.623047"/>
       <use xlink:href="#DejaVuSans-35" x="95.410156"/>
      </g>
     </g>
    </g>
    <g id="text_41">
     <!-- depth (m) -->
     <g transform="translate(376.487188 224.911512) rotate(-90) scale(0.1 -0.1)">
      <use xlink:href="#DejaVuSans-64"/>
      <use xlink:href="#DejaVuSans-65" x="63.476562"/>
      <use xlink:href="#DejaVuSans-70" x="125"/>
      <use xlink:href="#DejaVuSans-74" x="188.476562"/>
      <use xlink:href="#DejaVuSans-68" x="227.685547"/>
      <use xlink:href="#DejaVuSans-20" x="291.064453"/>
      <use xlink:href="#DejaVuSans-28" x="322.851562"/>
      <use xlink:href="#DejaVuSans-6d" x="361.865234"/>
      <use xlink:href="#DejaVuSans-29" x="459.277344"/>
     </g>
    </g>
   </g>
   <g id="line2d_46">
    <path d="M 419.275909 241.854243 
L 423.8506 241.755797 
L 424.470264 241.480624 
L 425.08501 240.979306 
L 425.809918 240.084211 
L 426.605645 238.746024 
L 427.247931 237.13189 
L 428.02792 234.610591 
L 431.758689 222.024164 
L 433.785874 215.177379 
L 434.305211 212.996631 
L 434.888482 210.666747 
L 435.601587 207.425533 
L 436.451411 203.583066 
L 439.019573 190.959495 
L 441.988057 173.804288 
L 443.819507 165.426777 
L 445.014573 161.502289 
L 446.283408 158.991238 
L 446.660124 158.626956 
L 446.911924 158.494695 
L 447.164707 158.371942 
L 447.542407 158.168092 
L 447.793223 158.210167 
L 448.737472 159.059267 
L 449.241072 160.237333 
L 450.315156 163.663298 
L 451.134489 167.229956 
L 452.079722 172.009752 
L 455.565576 193.375066 
L 458.431766 212.180077 
L 459.493063 218.759529 
L 459.865844 221.096851 
L 460.787471 224.578773 
L 461.927456 227.099107 
L 462.277615 227.543749 
L 462.556955 227.97226 
L 463.006457 228.471433 
L 463.444156 228.825055 
L 463.941854 229.226261 
L 464.448405 229.443535 
L 464.834957 229.721131 
L 465.223476 229.974084 
L 466.054612 230.468777 
L 466.598539 230.64292 
L 467.709016 231.275132 
L 468.265729 231.346035 
L 468.615888 231.530836 
L 468.971949 231.632075 
L 469.595547 231.905249 
L 469.887674 232.02228 
L 470.963725 232.485904 
L 471.548963 232.637229 
L 472.05453 232.904319 
L 474.301056 233.729778 
L 475.19711 233.951145 
L 476.292832 234.283065 
L 476.886923 234.464989 
L 477.993465 234.847455 
L 480.164255 235.422312 
L 482.325209 235.967212 
L 487.826445 237.460168 
L 489.951989 238.000179 
L 494.357503 238.959938 
L 497.809914 239.491085 
L 500.377092 239.773508 
L 506.573729 240.222838 
L 516.222777 240.613714 
L 528.350479 240.887353 
L 547.648575 241.123175 
L 585.00544 241.350663 
L 657.063469 241.539341 
L 695.394091 241.593067 
L 695.394091 241.593067 
" clip-path="url(#pd98fe05bb2)" style="fill: none; stroke: #1f77b4; stroke-width: 1.5; stroke-linecap: square"/>
   </g>
   <g id="patch_18">
    <path d="M 405.47 246.04 
L 405.47 153.953337 
" style="fill: none; stroke: #000000; stroke-width: 0.8; stroke-linejoin: miter; stroke-linecap: square"/>
   </g>
   <g id="patch_19">
    <path d="M 709.2 246.04 
L 709.2 153.953337 
" style="fill: none; stroke: #000000; stroke-width: 0.8; stroke-linejoin: miter; stroke-linecap: square"/>
   </g>
   <g id="patch_20">
    <path d="M 405.47 246.04 
L 709.2 246.04 
" style="fill: none; stroke: #000000; stroke-width: 0.8; stroke-linejoin: miter; stroke-linecap: square"/>
   </g>
   <g id="patch_21">
    <path d="M 405.47 153.953337 
L 709.2 153.953337 
" style="fill: none; stroke: #000000; stroke-width: 0.8; stroke-linejoin: miter; stroke-linecap: square"/>
   </g>
   <g id="text_42">
    <!-- ('P2', 'depthN') -->
    <g transform="translate(493.2829 177.13887) scale(0.1728 -0.1728)">
     <use xlink:href="#DejaVuSans-28"/>
     <use xlink:href="#DejaVuSans-27" x="39.013672"/>
     <use xlink:href="#DejaVuSans-50" x="66.503906"/>
     <use xlink:href="#DejaVuSans-32" x="126.806641"/>
     <use xlink:href="#DejaVuSans-27" x="190.429688"/>
     <use xlink:href="#DejaVuSans-2c" x="217.919922"/>
     <use xlink:href="#DejaVuSans-20" x="249.707031"/>
     <use xlink:href="#DejaVuSans-27" x="281.494141"/>
     <use xlink:href="#DejaVuSans-64" x="308.984375"/>
     <use xlink:href="#DejaVuSans-65" x="372.460938"/>
     <use xlink:href="#DejaVuSans-70" x="433.984375"/>
     <use xlink:href="#DejaVuSans-74" x="497.460938"/>
     <use xlink:href="#DejaVuSans-68" x="536.669922"/>
     <use xlink:href="#DejaVuSans-4e" x="600.048828"/>
     <use xlink:href="#DejaVuSans-27" x="674.853516"/>
     <use xlink:href="#DejaVuSans-29" x="702.34375"/>
    </g>
   </g>
  </g>
 </g>
 <defs>
  <clipPath id="p8edff31104">
   <rect x="47.72" y="26.88" width="303.73" height="92.086663"/>
  </clipPath>
  <clipPath id="p86fdde4b7d">
   <rect x="405.47" y="26.88" width="303.73" height="92.086663"/>
  </clipPath>
  <clipPath id="p3dbfbab926">
   <rect x="47.72" y="153.953337" width="303.73" height="92.086663"/>
  </clipPath>
  <clipPath id="pd98fe05bb2">
   <rect x="405.47" y="153.953337" width="303.73" height="92.086663"/>
  </clipPath>
 </defs>
</svg>
