<?xml version="1.0" encoding="utf-8" standalone="no"?>
<!DOCTYPE svg PUBLIC "-//W3C//DTD SVG 1.1//EN"
  "http://www.w3.org/Graphics/SVG/1.1/DTD/svg11.dtd">
<svg xmlns:xlink="http://www.w3.org/1999/xlink" width="720pt" height="288pt" viewBox="0 0 720 288" xmlns="http://www.w3.org/2000/svg" version="1.1">
 <metadata>
  <rdf:RDF xmlns:dc="http://purl.org/dc/elements/1.1/" xmlns:cc="http://creativecommons.org/ns#" xmlns:rdf="http://www.w3.org/1999/02/22-rdf-syntax-ns#">
   <cc:Work>
    <dc:type rdf:resource="http://purl.org/dc/dcmitype/StillImage"/>
    <dc:date>2025-01-28T16:38:27.855385</dc:date>
    <dc:format>image/svg+xml</dc:format>
    <dc:creator>
     <cc:Agent>
      <dc:title>Matplotlib v3.9.4, https://matplotlib.org/</dc:title>
     </cc:Agent>
    </dc:creator>
   </cc:Work>
  </rdf:RDF>
 </metadata>
 <defs>
  <style type="text/css">*{stroke-linejoin: round; stroke-linecap: butt}</style>
 </defs>
 <g id="figure_1">
  <g id="patch_1">
   <path d="M 0 288 
L 720 288 
L 720 0 
L 0 0 
z
" style="fill: #ffffff"/>
  </g>
  <g id="axes_1">
   <g id="patch_2">
    <path d="M 47.72 120.52 
L 354.6 120.52 
L 354.6 26.88 
L 47.72 26.88 
z
" style="fill: #ffffff"/>
   </g>
   <g id="matplotlib.axis_1">
    <g id="xtick_1">
     <g id="line2d_1">
      <defs>
       <path id="m2903047a27" d="M 0 0 
L 0 3.5 
" style="stroke: #000000; stroke-width: 0.8"/>
      </defs>
      <g>
       <use xlink:href="#m2903047a27" x="61.669091" y="120.52" style="stroke: #000000; stroke-width: 0.8"/>
      </g>
     </g>
    </g>
    <g id="xtick_2">
     <g id="line2d_2">
      <g>
       <use xlink:href="#m2903047a27" x="104.589676" y="120.52" style="stroke: #000000; stroke-width: 0.8"/>
      </g>
     </g>
    </g>
    <g id="xtick_3">
     <g id="line2d_3">
      <g>
       <use xlink:href="#m2903047a27" x="147.510262" y="120.52" style="stroke: #000000; stroke-width: 0.8"/>
      </g>
     </g>
    </g>
    <g id="xtick_4">
     <g id="line2d_4">
      <g>
       <use xlink:href="#m2903047a27" x="190.430847" y="120.52" style="stroke: #000000; stroke-width: 0.8"/>
      </g>
     </g>
    </g>
    <g id="xtick_5">
     <g id="line2d_5">
      <g>
       <use xlink:href="#m2903047a27" x="233.351433" y="120.52" style="stroke: #000000; stroke-width: 0.8"/>
      </g>
     </g>
    </g>
    <g id="xtick_6">
     <g id="line2d_6">
      <g>
       <use xlink:href="#m2903047a27" x="276.272018" y="120.52" style="stroke: #000000; stroke-width: 0.8"/>
      </g>
     </g>
    </g>
    <g id="xtick_7">
     <g id="line2d_7">
      <g>
       <use xlink:href="#m2903047a27" x="319.192603" y="120.52" style="stroke: #000000; stroke-width: 0.8"/>
      </g>
     </g>
    </g>
    <g id="text_1">
     <!-- time -->
     <g transform="translate(189.863906 139.118437) scale(0.1 -0.1)">
      <defs>
       <path id="DejaVuSans-74" d="M 1172 4494 
L 1172 3500 
L 2356 3500 
L 2356 3053 
L 1172 3053 
L 1172 1153 
Q 1172 725 1289 603 
Q 1406 481 1766 481 
L 2356 481 
L 2356 0 
L 1766 0 
Q 1100 0 847 248 
Q 594 497 594 1153 
L 594 3053 
L 172 3053 
L 172 3500 
L 594 3500 
L 594 4494 
L 1172 4494 
z
" transform="scale(0.015625)"/>
       <path id="DejaVuSans-69" d="M 603 3500 
L 1178 3500 
L 1178 0 
L 603 0 
L 603 3500 
z
M 603 4863 
L 1178 4863 
L 1178 4134 
L 603 4134 
L 603 4863 
z
" transform="scale(0.015625)"/>
       <path id="DejaVuSans-6d" d="M 3328 2828 
Q 3544 3216 3844 3400 
Q 4144 3584 4550 3584 
Q 5097 3584 5394 3201 
Q 5691 2819 5691 2113 
L 5691 0 
L 5113 0 
L 5113 2094 
Q 5113 2597 4934 2840 
Q 4756 3084 4391 3084 
Q 3944 3084 3684 2787 
Q 3425 2491 3425 1978 
L 3425 0 
L 2847 0 
L 2847 2094 
Q 2847 2600 2669 2842 
Q 2491 3084 2119 3084 
Q 1678 3084 1418 2786 
Q 1159 2488 1159 1978 
L 1159 0 
L 581 0 
L 581 3500 
L 1159 3500 
L 1159 2956 
Q 1356 3278 1631 3431 
Q 1906 3584 2284 3584 
Q 2666 3584 2933 3390 
Q 3200 3197 3328 2828 
z
" transform="scale(0.015625)"/>
       <path id="DejaVuSans-65" d="M 3597 1894 
L 3597 1613 
L 953 1613 
Q 991 1019 1311 708 
Q 1631 397 2203 397 
Q 2534 397 2845 478 
Q 3156 559 3463 722 
L 3463 178 
Q 3153 47 2828 -22 
Q 2503 -91 2169 -91 
Q 1331 -91 842 396 
Q 353 884 353 1716 
Q 353 2575 817 3079 
Q 1281 3584 2069 3584 
Q 2775 3584 3186 3129 
Q 3597 2675 3597 1894 
z
M 3022 2063 
Q 3016 2534 2758 2815 
Q 2500 3097 2075 3097 
Q 1594 3097 1305 2825 
Q 1016 2553 972 2059 
L 3022 2063 
z
" transform="scale(0.015625)"/>
      </defs>
      <use xlink:href="#DejaVuSans-74"/>
      <use xlink:href="#DejaVuSans-69" x="39.208984"/>
      <use xlink:href="#DejaVuSans-6d" x="66.992188"/>
      <use xlink:href="#DejaVuSans-65" x="164.404297"/>
     </g>
    </g>
   </g>
   <g id="matplotlib.axis_2">
    <g id="ytick_1">
     <g id="line2d_8">
      <defs>
       <path id="m0286419014" d="M 0 0 
L -3.5 0 
" style="stroke: #000000; stroke-width: 0.8"/>
      </defs>
      <g>
       <use xlink:href="#m0286419014" x="47.72" y="116.263636" style="stroke: #000000; stroke-width: 0.8"/>
      </g>
     </g>
     <g id="text_2">
      <!-- 0.0 -->
      <g transform="translate(24.816875 120.062855) scale(0.1 -0.1)">
       <defs>
        <path id="DejaVuSans-30" d="M 2034 4250 
Q 1547 4250 1301 3770 
Q 1056 3291 1056 2328 
Q 1056 1369 1301 889 
Q 1547 409 2034 409 
Q 2525 409 2770 889 
Q 3016 1369 3016 2328 
Q 3016 3291 2770 3770 
Q 2525 4250 2034 4250 
z
M 2034 4750 
Q 2819 4750 3233 4129 
Q 3647 3509 3647 2328 
Q 3647 1150 3233 529 
Q 2819 -91 2034 -91 
Q 1250 -91 836 529 
Q 422 1150 422 2328 
Q 422 3509 836 4129 
Q 1250 4750 2034 4750 
z
" transform="scale(0.015625)"/>
        <path id="DejaVuSans-2e" d="M 684 794 
L 1344 794 
L 1344 0 
L 684 0 
L 684 794 
z
" transform="scale(0.015625)"/>
       </defs>
       <use xlink:href="#DejaVuSans-30"/>
       <use xlink:href="#DejaVuSans-2e" x="63.623047"/>
       <use xlink:href="#DejaVuSans-30" x="95.410156"/>
      </g>
     </g>
    </g>
    <g id="ytick_2">
     <g id="line2d_9">
      <g>
       <use xlink:href="#m0286419014" x="47.72" y="85.000636" style="stroke: #000000; stroke-width: 0.8"/>
      </g>
     </g>
     <g id="text_3">
      <!-- 0.1 -->
      <g transform="translate(24.816875 88.799854) scale(0.1 -0.1)">
       <defs>
        <path id="DejaVuSans-31" d="M 794 531 
L 1825 531 
L 1825 4091 
L 703 3866 
L 703 4441 
L 1819 4666 
L 2450 4666 
L 2450 531 
L 3481 531 
L 3481 0 
L 794 0 
L 794 531 
z
" transform="scale(0.015625)"/>
       </defs>
       <use xlink:href="#DejaVuSans-30"/>
       <use xlink:href="#DejaVuSans-2e" x="63.623047"/>
       <use xlink:href="#DejaVuSans-31" x="95.410156"/>
      </g>
     </g>
    </g>
    <g id="ytick_3">
     <g id="line2d_10">
      <g>
       <use xlink:href="#m0286419014" x="47.72" y="53.737635" style="stroke: #000000; stroke-width: 0.8"/>
      </g>
     </g>
     <g id="text_4">
      <!-- 0.2 -->
      <g transform="translate(24.816875 57.536854) scale(0.1 -0.1)">
       <defs>
        <path id="DejaVuSans-32" d="M 1228 531 
L 3431 531 
L 3431 0 
L 469 0 
L 469 531 
Q 828 903 1448 1529 
Q 2069 2156 2228 2338 
Q 2531 2678 2651 2914 
Q 2772 3150 2772 3378 
Q 2772 3750 2511 3984 
Q 2250 4219 1831 4219 
Q 1534 4219 1204 4116 
Q 875 4013 500 3803 
L 500 4441 
Q 881 4594 1212 4672 
Q 1544 4750 1819 4750 
Q 2544 4750 2975 4387 
Q 3406 4025 3406 3419 
Q 3406 3131 3298 2873 
Q 3191 2616 2906 2266 
Q 2828 2175 2409 1742 
Q 1991 1309 1228 531 
z
" transform="scale(0.015625)"/>
       </defs>
       <use xlink:href="#DejaVuSans-30"/>
       <use xlink:href="#DejaVuSans-2e" x="63.623047"/>
       <use xlink:href="#DejaVuSans-32" x="95.410156"/>
      </g>
     </g>
    </g>
    <g id="text_5">
     <!-- flow (cms) -->
     <g transform="translate(18.737188 99.7125) rotate(-90) scale(0.1 -0.1)">
      <defs>
       <path id="DejaVuSans-66" d="M 2375 4863 
L 2375 4384 
L 1825 4384 
Q 1516 4384 1395 4259 
Q 1275 4134 1275 3809 
L 1275 3500 
L 2222 3500 
L 2222 3053 
L 1275 3053 
L 1275 0 
L 697 0 
L 697 3053 
L 147 3053 
L 147 3500 
L 697 3500 
L 697 3744 
Q 697 4328 969 4595 
Q 1241 4863 1831 4863 
L 2375 4863 
z
" transform="scale(0.015625)"/>
       <path id="DejaVuSans-6c" d="M 603 4863 
L 1178 4863 
L 1178 0 
L 603 0 
L 603 4863 
z
" transform="scale(0.015625)"/>
       <path id="DejaVuSans-6f" d="M 1959 3097 
Q 1497 3097 1228 2736 
Q 959 2375 959 1747 
Q 959 1119 1226 758 
Q 1494 397 1959 397 
Q 2419 397 2687 759 
Q 2956 1122 2956 1747 
Q 2956 2369 2687 2733 
Q 2419 3097 1959 3097 
z
M 1959 3584 
Q 2709 3584 3137 3096 
Q 3566 2609 3566 1747 
Q 3566 888 3137 398 
Q 2709 -91 1959 -91 
Q 1206 -91 779 398 
Q 353 888 353 1747 
Q 353 2609 779 3096 
Q 1206 3584 1959 3584 
z
" transform="scale(0.015625)"/>
       <path id="DejaVuSans-77" d="M 269 3500 
L 844 3500 
L 1563 769 
L 2278 3500 
L 2956 3500 
L 3675 769 
L 4391 3500 
L 4966 3500 
L 4050 0 
L 3372 0 
L 2619 2869 
L 1863 0 
L 1184 0 
L 269 3500 
z
" transform="scale(0.015625)"/>
       <path id="DejaVuSans-20" transform="scale(0.015625)"/>
       <path id="DejaVuSans-28" d="M 1984 4856 
Q 1566 4138 1362 3434 
Q 1159 2731 1159 2009 
Q 1159 1288 1364 580 
Q 1569 -128 1984 -844 
L 1484 -844 
Q 1016 -109 783 600 
Q 550 1309 550 2009 
Q 550 2706 781 3412 
Q 1013 4119 1484 4856 
L 1984 4856 
z
" transform="scale(0.015625)"/>
       <path id="DejaVuSans-63" d="M 3122 3366 
L 3122 2828 
Q 2878 2963 2633 3030 
Q 2388 3097 2138 3097 
Q 1578 3097 1268 2742 
Q 959 2388 959 1747 
Q 959 1106 1268 751 
Q 1578 397 2138 397 
Q 2388 397 2633 464 
Q 2878 531 3122 666 
L 3122 134 
Q 2881 22 2623 -34 
Q 2366 -91 2075 -91 
Q 1284 -91 818 406 
Q 353 903 353 1747 
Q 353 2603 823 3093 
Q 1294 3584 2113 3584 
Q 2378 3584 2631 3529 
Q 2884 3475 3122 3366 
z
" transform="scale(0.015625)"/>
       <path id="DejaVuSans-73" d="M 2834 3397 
L 2834 2853 
Q 2591 2978 2328 3040 
Q 2066 3103 1784 3103 
Q 1356 3103 1142 2972 
Q 928 2841 928 2578 
Q 928 2378 1081 2264 
Q 1234 2150 1697 2047 
L 1894 2003 
Q 2506 1872 2764 1633 
Q 3022 1394 3022 966 
Q 3022 478 2636 193 
Q 2250 -91 1575 -91 
Q 1294 -91 989 -36 
Q 684 19 347 128 
L 347 722 
Q 666 556 975 473 
Q 1284 391 1588 391 
Q 1994 391 2212 530 
Q 2431 669 2431 922 
Q 2431 1156 2273 1281 
Q 2116 1406 1581 1522 
L 1381 1569 
Q 847 1681 609 1914 
Q 372 2147 372 2553 
Q 372 3047 722 3315 
Q 1072 3584 1716 3584 
Q 2034 3584 2315 3537 
Q 2597 3491 2834 3397 
z
" transform="scale(0.015625)"/>
       <path id="DejaVuSans-29" d="M 513 4856 
L 1013 4856 
Q 1481 4119 1714 3412 
Q 1947 2706 1947 2009 
Q 1947 1309 1714 600 
Q 1481 -109 1013 -844 
L 513 -844 
Q 928 -128 1133 580 
Q 1338 1288 1338 2009 
Q 1338 2731 1133 3434 
Q 928 4138 513 4856 
z
" transform="scale(0.015625)"/>
      </defs>
      <use xlink:href="#DejaVuSans-66"/>
      <use xlink:href="#DejaVuSans-6c" x="35.205078"/>
      <use xlink:href="#DejaVuSans-6f" x="62.988281"/>
      <use xlink:href="#DejaVuSans-77" x="124.169922"/>
      <use xlink:href="#DejaVuSans-20" x="205.957031"/>
      <use xlink:href="#DejaVuSans-28" x="237.744141"/>
      <use xlink:href="#DejaVuSans-63" x="276.757812"/>
      <use xlink:href="#DejaVuSans-6d" x="331.738281"/>
      <use xlink:href="#DejaVuSans-73" x="429.150391"/>
      <use xlink:href="#DejaVuSans-29" x="481.25"/>
     </g>
    </g>
   </g>
   <g id="line2d_11">
    <path d="M 61.669091 116.263636 
L 66.290009 116.183251 
L 66.468844 116.068161 
L 67.09477 115.197645 
L 67.184187 115.314927 
L 67.273605 115.124147 
L 67.618361 113.264289 
L 67.697844 113.466078 
L 67.924369 112.118877 
L 68.269124 110.742122 
L 68.334698 112.99458 
L 68.405238 112.653462 
L 68.809606 110.709809 
L 69.014274 108.914274 
L 69.092763 108.449919 
L 69.170258 105.645191 
L 69.243779 108.015398 
L 69.318294 107.444853 
L 70.001844 102.054949 
L 70.064437 95.676392 
L 70.139945 100.432662 
L 70.200551 99.705406 
L 70.625783 95.353815 
L 70.696323 95.886627 
L 70.903971 93.504447 
L 70.971532 80.793959 
L 71.037105 92.377529 
L 71.102678 91.580925 
L 71.169245 90.830873 
L 71.233824 82.294441 
L 71.29741 88.262503 
L 71.360003 88.866912 
L 71.487175 87.521874 
L 71.549767 81.343058 
L 71.611366 88.423669 
L 71.672965 87.434326 
L 71.797157 85.941968 
L 71.928303 74.258087 
L 71.99785 74.994478 
L 72.066404 75.436077 
L 72.205499 86.787445 
L 72.348567 84.274007 
L 72.420101 74.786842 
L 72.489649 81.287483 
L 72.558202 80.328355 
L 72.965551 75.684313 
L 73.032117 67.570766 
L 73.096697 74.933407 
L 73.16227 73.45747 
L 73.293416 71.366411 
L 73.422575 79.787795 
L 73.554715 78.577522 
L 73.620288 78.029956 
L 73.74746 68.508949 
L 73.873639 67.71713 
L 73.936231 65.158862 
L 73.998824 79.661295 
L 74.063403 78.913248 
L 74.255155 76.119078 
L 74.317748 89.912104 
L 74.383321 89.279286 
L 74.449887 88.643376 
L 74.578053 40.695694 
L 74.713173 42.817636 
L 74.780734 43.092075 
L 74.907906 91.18261 
L 74.971492 90.561494 
L 75.037065 89.963375 
L 75.100651 78.483363 
L 75.163243 36.126928 
L 75.230804 36.576131 
L 75.36195 37.211957 
L 75.496077 78.872918 
L 75.556682 78.309118 
L 75.678887 77.13821 
L 75.875606 62.189789 
L 75.943166 61.685884 
L 76.010726 67.375873 
L 76.078287 31.136364 
L 76.142866 32.713874 
L 76.270038 33.086419 
L 76.334618 61.723277 
L 76.401184 60.404071 
L 76.534318 59.403155 
L 76.600884 73.243015 
L 76.668445 70.938966 
L 76.873112 69.110741 
L 77.008233 58.587587 
L 77.141366 57.690424 
L 77.207932 61.452903 
L 77.342059 56.798603 
L 77.474199 55.946102 
L 77.540766 56.147643 
L 77.672905 53.158085 
L 77.738479 52.773408 
L 77.804052 62.753084 
L 77.935198 44.796509 
L 78.065351 44.245356 
L 78.19749 65.19294 
L 78.333604 64.226576 
L 78.400171 53.572782 
L 78.467731 58.210946 
L 78.667431 56.977481 
L 78.86415 44.962189 
L 78.929724 44.664108 
L 79.06087 56.644176 
L 79.127436 56.318211 
L 79.26057 55.509178 
L 79.327136 53.921424 
L 79.39271 55.402095 
L 79.459276 55.005615 
L 79.524849 54.616777 
L 79.591416 48.427857 
L 79.656989 53.285392 
L 79.722562 52.901538 
L 79.854702 52.163388 
L 79.985848 55.657049 
L 80.118981 54.886174 
L 80.185548 43.400885 
L 80.250128 49.681754 
L 80.445853 48.5888 
L 80.638599 37.545443 
L 80.703178 37.298994 
L 80.897911 45.603901 
L 81.02707 44.970549 
L 81.091649 51.123815 
L 81.156229 49.327006 
L 81.352948 48.690872 
L 81.547681 43.611755 
L 81.61226 43.305777 
L 81.741419 48.940967 
L 81.806992 48.618892 
L 81.936152 47.956588 
L 82.001725 38.034304 
L 82.065311 39.834114 
L 82.193476 39.272024 
L 82.320649 44.314956 
L 82.514387 43.418672 
L 82.578967 40.7519 
L 82.643546 44.136397 
L 82.708126 43.824963 
L 82.900871 43.109347 
L 82.965451 43.361894 
L 83.093616 42.754069 
L 83.157203 43.16203 
L 83.221782 46.066362 
L 83.286362 45.372513 
L 83.415521 44.787558 
L 83.4801 36.877643 
L 83.54468 43.106874 
L 83.60926 42.854943 
L 83.738419 42.071361 
L 83.803992 47.205996 
L 83.868571 46.794456 
L 83.997731 46.286716 
L 84.06231 39.18503 
L 84.12689 40.095438 
L 84.318642 39.453405 
L 84.382228 41.745001 
L 84.445814 40.429663 
L 84.573979 40.044695 
L 84.702145 44.518305 
L 84.830311 43.808955 
L 84.89489 43.610632 
L 84.958476 40.635943 
L 85.023056 43.860294 
L 85.086642 43.69881 
L 85.215801 43.319241 
L 85.407553 37.650188 
L 85.471139 37.498729 
L 85.597317 43.570401 
L 85.725483 42.960506 
L 85.790063 42.787051 
L 85.853649 38.789044 
L 85.918228 42.610309 
L 85.982808 42.446447 
L 86.110973 42.115063 
L 86.174559 37.112864 
L 86.238145 37.873455 
L 86.365318 37.587946 
L 86.428904 38.864534 
L 86.493483 44.53859 
L 86.557069 43.88414 
L 86.686228 43.553502 
L 86.87798 36.88326 
L 87.003165 36.656286 
L 87.129344 42.220687 
L 87.193923 42.089148 
L 87.257509 41.967421 
L 87.449261 36.366479 
L 87.576433 36.216057 
L 87.703605 40.820523 
L 87.89635 40.554694 
L 87.96093 43.590863 
L 88.089096 39.978577 
L 88.152682 39.911189 
L 88.280847 42.974092 
L 88.344433 42.779935 
L 88.472599 42.638747 
L 88.600765 39.696479 
L 88.791523 39.537502 
L 88.918695 41.868534 
L 89.046861 41.76872 
L 89.237619 39.561877 
L 89.684708 39.274969 
L 89.81188 43.253208 
L 89.941039 43.174877 
L 90.004626 39.819232 
L 90.069205 40.145406 
L 90.196377 39.775752 
L 90.259963 39.763121 
L 90.323549 40.826971 
L 90.387135 35.288872 
L 90.450721 35.302794 
L 90.5769 35.3651 
L 90.768652 40.970662 
L 90.833231 40.985541 
L 90.896817 40.881019 
L 90.960403 38.617886 
L 91.023989 39.041052 
L 91.152155 39.128641 
L 91.215741 44.308579 
L 91.280321 44.136929 
L 91.473066 44.236269 
L 91.601232 40.530465 
L 91.729397 40.660431 
L 91.792983 39.162766 
L 91.856569 40.176929 
L 91.920155 40.011304 
L 91.983741 40.093331 
L 92.048321 40.177467 
L 92.111907 40.050939 
L 92.239079 40.759878 
L 92.623576 41.404639 
L 92.687162 41.231758 
L 92.751742 42.073285 
L 92.815328 41.95314 
L 92.943493 42.169228 
L 93.008073 38.522119 
L 93.136239 41.869932 
L 93.520736 42.664527 
L 93.648901 37.705646 
L 93.839659 38.471451 
L 93.903245 37.953898 
L 94.094997 39.397605 
L 94.158583 39.577954 
L 94.222169 43.077409 
L 94.286749 42.59044 
L 94.414914 42.914774 
L 94.542087 32.006743 
L 94.669259 32.993938 
L 94.731851 33.266372 
L 94.795437 43.942557 
L 94.860017 42.895625 
L 95.051768 43.46618 
L 95.116348 41.452461 
L 95.244514 43.292411 
L 95.309093 43.492425 
L 95.438252 34.727284 
L 95.566418 35.760652 
L 95.630004 36.057154 
L 95.69359 46.739365 
L 95.75817 43.36132 
L 95.950915 44.0451 
L 96.079081 37.277425 
L 96.142667 37.596998 
L 96.207246 37.907641 
L 96.399991 44.415764 
L 96.529151 44.91403 
L 96.59373 40.777524 
L 96.722889 45.742282 
L 96.787469 45.992053 
L 96.981208 40.227794 
L 97.109373 40.899344 
L 97.173953 47.17475 
L 97.238533 46.465891 
L 97.433265 47.324598 
L 97.497844 42.741796 
L 97.562424 44.392052 
L 97.691583 45.026598 
L 97.756163 42.661149 
L 97.821736 34.860645 
L 97.885322 35.669072 
L 98.013488 36.620893 
L 98.077074 46.917435 
L 98.141653 41.307302 
L 98.398978 42.734901 
L 98.463558 42.101174 
L 98.528137 42.541908 
L 98.592717 42.979078 
L 98.657296 44.856238 
L 98.722869 37.69684 
L 98.787449 38.611673 
L 98.915615 39.685798 
L 98.980194 48.330895 
L 99.045767 44.963038 
L 99.17592 45.906523 
L 99.241493 47.400783 
L 99.306073 42.515113 
L 99.371646 43.751015 
L 99.566378 46.10006 
L 99.762104 49.013438 
L 99.826684 49.485025 
L 99.956836 38.039134 
L 100.085002 39.544868 
L 100.215155 50.393013 
L 100.412868 51.998301 
L 100.479434 43.71639 
L 100.613561 57.323655 
L 100.681121 57.764325 
L 100.748681 39.7298 
L 100.883802 60.715789 
L 101.018922 61.518577 
L 101.086482 50.346665 
L 101.153049 51.759608 
L 101.286182 53.086122 
L 101.420309 39.782349 
L 101.552449 42.019644 
L 101.619015 45.658721 
L 101.753142 38.409249 
L 101.886276 41.306269 
L 101.953836 50.048168 
L 102.021396 36.284576 
L 102.088956 38.067419 
L 102.156516 39.904648 
L 102.224076 51.824876 
L 102.293624 51.397387 
L 102.493324 55.281701 
L 102.682095 78.283258 
L 102.747668 78.573802 
L 102.876827 72.692315 
L 103.004993 79.100324 
L 103.069572 79.407148 
L 103.198731 60.050786 
L 103.448108 69.529958 
L 103.510701 66.81909 
L 103.705433 75.174312 
L 103.771999 71.894873 
L 103.970706 81.076247 
L 104.175373 85.520994 
L 104.665185 91.853018 
L 104.736719 91.451918 
L 104.880781 92.096786 
L 104.941387 89.131257 
L 105.07452 93.888635 
L 105.197718 94.075663 
L 105.258323 80.030741 
L 105.328864 80.750243 
L 105.466965 85.305671 
L 105.537506 98.832665 
L 105.600098 98.644155 
L 105.793837 97.910533 
L 105.857423 86.720664 
L 105.919022 86.815005 
L 106.100839 92.773456 
L 106.163431 92.115801 
L 106.226024 90.848559 
L 106.287623 91.615495 
L 106.349222 92.320814 
L 106.4754 102.078916 
L 106.6751 100.81816 
L 106.804259 90.364596 
L 106.866852 91.33739 
L 106.928451 92.193249 
L 106.99005 95.465843 
L 107.053636 93.750627 
L 107.117222 93.528861 
L 107.2434 94.630119 
L 107.37256 103.823271 
L 107.438133 103.058585 
L 107.571266 102.234439 
L 107.701419 92.841262 
L 107.764011 93.642508 
L 107.826604 94.329023 
L 107.889196 97.042213 
L 107.953776 95.538779 
L 108.018356 95.392056 
L 108.146521 96.305753 
L 108.276674 103.912415 
L 108.411794 102.72931 
L 108.478361 99.48478 
L 108.545921 103.73742 
L 108.613481 103.439606 
L 108.750589 102.810792 
L 108.818149 97.066103 
L 108.885709 101.063921 
L 108.953269 101.048916 
L 109.020829 100.955385 
L 109.08839 98.011876 
L 109.15595 102.787178 
L 109.22351 102.31787 
L 109.361611 101.987863 
L 109.429171 100.645472 
L 109.496731 102.079214 
L 109.564291 101.977954 
L 109.631852 101.871783 
L 109.698418 99.819965 
L 109.764985 92.135867 
L 109.828571 93.45099 
L 110.152462 97.422971 
L 110.485296 99.294585 
L 110.551862 99.635954 
L 110.620416 106.812117 
L 110.690957 106.503819 
L 110.837006 105.779875 
L 110.909534 101.519985 
L 110.981068 104.937306 
L 111.051609 104.759943 
L 111.12215 104.553043 
L 111.19269 100.416469 
L 111.263231 103.066178 
L 111.333772 102.963552 
L 111.404313 102.939164 
L 111.474854 100.826592 
L 111.545394 104.805894 
L 111.615935 104.36189 
L 111.759997 104.16967 
L 111.831532 96.009467 
L 111.899092 96.961224 
L 112.032225 98.601285 
L 112.099785 103.058561 
L 112.169332 99.213397 
L 112.237886 99.879159 
L 112.307433 100.396872 
L 112.448515 106.095325 
L 112.593571 105.698822 
L 112.666099 105.854678 
L 112.738626 106.814853 
L 112.812148 106.526023 
L 113.253276 105.271148 
L 113.32481 97.992779 
L 113.394358 99.093012 
L 113.534446 100.566395 
L 113.60598 107.465972 
L 113.680495 107.384881 
L 113.801706 107.070532 
L 113.862311 103.258073 
L 113.936826 106.929783 
L 114.011341 106.805273 
L 114.085856 106.676234 
L 114.160371 105.670243 
L 114.232899 99.299781 
L 114.303439 100.232457 
L 114.372987 100.961659 
L 114.514068 107.817712 
L 114.636273 107.280451 
L 114.697872 107.173978 
L 114.759471 106.787083 
L 114.82107 103.174883 
L 114.894591 103.831604 
L 114.967119 104.101082 
L 115.114162 107.240204 
L 115.235372 107.123002 
L 115.295978 107.064331 
L 115.432092 104.143404 
L 115.973567 108.377453 
L 116.035166 107.781227 
L 116.223937 107.66384 
L 116.285536 106.664971 
L 116.347135 106.851905 
L 116.531932 107.311921 
L 116.593531 102.810067 
L 116.668046 103.181696 
L 116.816082 104.270164 
L 116.890597 109.176954 
L 116.953189 108.828869 
L 117.082349 108.683549 
L 117.147922 104.480998 
L 117.210514 108.750712 
L 117.2741 108.453673 
L 117.401272 108.373457 
L 117.527451 103.990874 
L 117.588056 104.658737 
L 117.709267 105.388671 
L 117.834452 110.100201 
L 117.900025 109.909226 
L 117.966592 109.800397 
L 118.034152 107.835699 
L 118.099725 109.605172 
L 118.165299 109.29337 
L 118.296445 109.194556 
L 118.362018 108.064579 
L 118.426597 109.384951 
L 118.492171 109.371837 
L 118.623317 109.164135 
L 118.687896 109.545688 
L 118.75347 109.286075 
L 118.885609 109.263737 
L 118.952176 107.764099 
L 119.017749 109.176296 
L 119.083322 108.927437 
L 119.149889 108.946529 
L 119.417149 109.51359 
L 119.484709 109.507561 
L 119.551276 108.225578 
L 119.617842 109.936593 
L 119.685403 109.915794 
L 119.752963 109.892778 
L 119.821516 109.703248 
L 119.888083 104.79583 
L 119.951669 105.480898 
L 120.141434 107.684586 
L 120.206013 111.148159 
L 120.273574 110.790265 
L 120.409687 110.554137 
L 120.478241 106.559964 
L 120.543814 106.880169 
L 121.00382 109.415094 
L 121.070386 108.502493 
L 121.137946 108.929743 
L 121.609874 109.832949 
L 121.679421 112.663606 
L 121.750956 112.382815 
L 121.823484 112.28396 
L 122.03908 110.855198 
L 122.180162 110.870768 
L 122.32025 109.504857 
L 122.458351 109.853814 
L 122.598439 112.393187 
L 122.67196 112.216852 
L 122.747468 112.157056 
L 122.821983 111.52639 
L 122.895505 109.78196 
L 122.967039 109.967544 
L 123.038573 110.131529 
L 123.183629 112.664516 
L 123.334646 112.559689 
L 123.411148 111.82271 
L 123.485663 109.971141 
L 123.557197 110.168715 
L 123.628731 110.3432 
L 123.701259 110.991355 
L 123.773787 112.700026 
L 123.850289 112.6136 
L 123.926791 112.566305 
L 124.004287 111.339959 
L 124.079795 112.954873 
L 124.15729 112.849193 
L 124.235779 112.800817 
L 124.313275 111.55841 
L 124.389777 112.51204 
L 124.465285 112.357202 
L 124.615309 112.443564 
L 124.691811 112.684725 
L 124.769306 112.654335 
L 124.847795 112.639102 
L 124.925291 110.015586 
L 124.999806 110.297046 
L 125.443914 111.423636 
L 125.519423 112.646926 
L 125.595925 111.611444 
L 125.672427 111.750368 
L 125.748929 111.863249 
L 125.902926 113.623521 
L 126.085736 113.527438 
L 126.147335 113.222325 
L 126.208934 113.473535 
L 126.331139 113.421701 
L 126.392738 111.935262 
L 126.47222 113.413012 
L 126.533819 113.275247 
L 126.656024 113.277707 
L 126.716629 113.044882 
L 126.777235 113.719533 
L 126.83784 113.659912 
L 126.960044 113.633011 
L 127.081255 112.337039 
L 127.141861 112.469841 
L 127.221343 112.556584 
L 127.281949 112.442434 
L 127.362425 113.908768 
L 127.424024 113.774956 
L 127.550202 113.764831 
L 127.6734 112.031919 
L 127.734006 112.236609 
L 127.874094 112.708913 
L 127.934699 114.035942 
L 127.998285 113.886577 
L 128.448355 113.937027 
L 128.512935 112.372265 
L 128.575528 112.665576 
L 129.0713 113.316732 
L 129.134886 114.4178 
L 129.199466 114.341972 
L 129.330612 114.338682 
L 129.396185 114.003857 
L 129.462752 114.650455 
L 129.530312 114.587474 
L 129.666426 114.569283 
L 129.734979 114.301371 
L 129.80254 114.325864 
L 129.938654 114.335268 
L 130.073774 113.400198 
L 130.203927 113.557881 
L 130.2695 114.300668 
L 130.336066 113.589352 
L 130.402633 113.741443 
L 130.535766 113.856134 
L 130.602333 114.140534 
L 130.6689 113.939434 
L 130.802033 114.055453 
L 130.8686 114.55727 
L 130.93616 114.077384 
L 131.004713 114.180768 
L 131.773707 114.747185 
L 131.845242 115.340129 
L 131.919757 115.28273 
L 131.994271 115.276153 
L 132.06978 114.882448 
L 132.144295 115.315824 
L 132.219803 115.268562 
L 132.296305 115.265797 
L 132.372807 114.839129 
L 132.447322 115.182048 
L 132.52283 115.146523 
L 132.598339 115.152442 
L 132.748362 114.578625 
L 132.967933 114.844852 
L 133.042448 115.291554 
L 133.117956 115.258954 
L 133.503447 115.330147 
L 133.659431 114.825491 
L 133.811442 114.913759 
L 133.964446 115.403948 
L 134.12043 115.409339 
L 134.198919 115.232703 
L 134.437367 115.421113 
L 134.517843 115.05001 
L 134.597325 115.116276 
L 134.675814 115.147681 
L 134.755297 115.381963 
L 134.835773 115.185779 
L 134.915256 115.242034 
L 134.995732 115.270746 
L 135.076208 115.488526 
L 135.157678 115.301139 
L 135.238154 115.350302 
L 135.400099 115.509308 
L 135.567013 115.437002 
L 135.73492 115.791826 
L 135.909781 115.788857 
L 135.998206 115.469764 
L 136.083649 115.513231 
L 136.1681 115.534078 
L 136.25255 115.685948 
L 136.424431 115.59623 
L 136.956964 115.88973 
L 137.404054 115.891196 
L 137.582889 115.716338 
L 137.672307 115.740338 
L 137.851143 115.966938 
L 138.029979 115.932002 
L 138.208815 115.805965 
L 138.655904 115.90005 
L 138.83474 116.018632 
L 139.460665 115.920576 
L 139.639501 115.934089 
L 142.143202 116.127183 
L 142.411455 116.094388 
L 151.174408 116.165928 
L 151.442662 116.11449 
L 151.710915 116.171996 
L 152.068587 116.131235 
L 152.336841 116.160672 
L 152.78393 116.178061 
L 217.343644 116.240345 
L 218.863748 116.24247 
L 224.139403 116.241078 
L 226.196015 116.250044 
L 231.203416 116.25034 
L 248.997576 116.251713 
L 258.744125 116.254578 
L 340.650909 116.259 
L 340.650909 116.259 
" clip-path="url(#p5c3f731159)" style="fill: none; stroke: #1f77b4; stroke-width: 1.5; stroke-linecap: square"/>
   </g>
   <g id="patch_3">
    <path d="M 47.72 120.52 
L 47.72 26.88 
" style="fill: none; stroke: #000000; stroke-width: 0.8; stroke-linejoin: miter; stroke-linecap: square"/>
   </g>
   <g id="patch_4">
    <path d="M 354.6 120.52 
L 354.6 26.88 
" style="fill: none; stroke: #000000; stroke-width: 0.8; stroke-linejoin: miter; stroke-linecap: square"/>
   </g>
   <g id="patch_5">
    <path d="M 47.72 120.52 
L 354.6 120.52 
" style="fill: none; stroke: #000000; stroke-width: 0.8; stroke-linejoin: miter; stroke-linecap: square"/>
   </g>
   <g id="patch_6">
    <path d="M 47.72 26.88 
L 354.6 26.88 
" style="fill: none; stroke: #000000; stroke-width: 0.8; stroke-linejoin: miter; stroke-linecap: square"/>
   </g>
   <g id="text_6">
    <!-- 1 -->
    <g transform="translate(195.6628 50.3762) scale(0.1728 -0.1728)">
     <use xlink:href="#DejaVuSans-31"/>
    </g>
   </g>
   <g id="text_7">
    <!-- flows -->
    <g transform="translate(185.677188 20.88) scale(0.12 -0.12)">
     <use xlink:href="#DejaVuSans-66"/>
     <use xlink:href="#DejaVuSans-6c" x="35.205078"/>
     <use xlink:href="#DejaVuSans-6f" x="62.988281"/>
     <use xlink:href="#DejaVuSans-77" x="124.169922"/>
     <use xlink:href="#DejaVuSans-73" x="205.957031"/>
    </g>
   </g>
  </g>
  <g id="axes_2">
   <g id="patch_7">
    <path d="M 402.32 120.52 
L 709.2 120.52 
L 709.2 26.88 
L 402.32 26.88 
z
" style="fill: #ffffff"/>
   </g>
   <g id="matplotlib.axis_3">
    <g id="xtick_8">
     <g id="line2d_12">
      <g>
       <use xlink:href="#m2903047a27" x="416.269091" y="120.52" style="stroke: #000000; stroke-width: 0.8"/>
      </g>
     </g>
    </g>
    <g id="xtick_9">
     <g id="line2d_13">
      <g>
       <use xlink:href="#m2903047a27" x="459.189676" y="120.52" style="stroke: #000000; stroke-width: 0.8"/>
      </g>
     </g>
    </g>
    <g id="xtick_10">
     <g id="line2d_14">
      <g>
       <use xlink:href="#m2903047a27" x="502.110262" y="120.52" style="stroke: #000000; stroke-width: 0.8"/>
      </g>
     </g>
    </g>
    <g id="xtick_11">
     <g id="line2d_15">
      <g>
       <use xlink:href="#m2903047a27" x="545.030847" y="120.52" style="stroke: #000000; stroke-width: 0.8"/>
      </g>
     </g>
    </g>
    <g id="xtick_12">
     <g id="line2d_16">
      <g>
       <use xlink:href="#m2903047a27" x="587.951433" y="120.52" style="stroke: #000000; stroke-width: 0.8"/>
      </g>
     </g>
    </g>
    <g id="xtick_13">
     <g id="line2d_17">
      <g>
       <use xlink:href="#m2903047a27" x="630.872018" y="120.52" style="stroke: #000000; stroke-width: 0.8"/>
      </g>
     </g>
    </g>
    <g id="xtick_14">
     <g id="line2d_18">
      <g>
       <use xlink:href="#m2903047a27" x="673.792603" y="120.52" style="stroke: #000000; stroke-width: 0.8"/>
      </g>
     </g>
    </g>
    <g id="text_8">
     <!-- time -->
     <g transform="translate(544.463906 139.118437) scale(0.1 -0.1)">
      <use xlink:href="#DejaVuSans-74"/>
      <use xlink:href="#DejaVuSans-69" x="39.208984"/>
      <use xlink:href="#DejaVuSans-6d" x="66.992188"/>
      <use xlink:href="#DejaVuSans-65" x="164.404297"/>
     </g>
    </g>
   </g>
   <g id="matplotlib.axis_4">
    <g id="ytick_4">
     <g id="line2d_19">
      <g>
       <use xlink:href="#m0286419014" x="402.32" y="116.263636" style="stroke: #000000; stroke-width: 0.8"/>
      </g>
     </g>
     <g id="text_9">
      <!-- 0.0 -->
      <g transform="translate(379.416875 120.062855) scale(0.1 -0.1)">
       <use xlink:href="#DejaVuSans-30"/>
       <use xlink:href="#DejaVuSans-2e" x="63.623047"/>
       <use xlink:href="#DejaVuSans-30" x="95.410156"/>
      </g>
     </g>
    </g>
    <g id="ytick_5">
     <g id="line2d_20">
      <g>
       <use xlink:href="#m0286419014" x="402.32" y="84.300499" style="stroke: #000000; stroke-width: 0.8"/>
      </g>
     </g>
     <g id="text_10">
      <!-- 0.5 -->
      <g transform="translate(379.416875 88.099718) scale(0.1 -0.1)">
       <defs>
        <path id="DejaVuSans-35" d="M 691 4666 
L 3169 4666 
L 3169 4134 
L 1269 4134 
L 1269 2991 
Q 1406 3038 1543 3061 
Q 1681 3084 1819 3084 
Q 2600 3084 3056 2656 
Q 3513 2228 3513 1497 
Q 3513 744 3044 326 
Q 2575 -91 1722 -91 
Q 1428 -91 1123 -41 
Q 819 9 494 109 
L 494 744 
Q 775 591 1075 516 
Q 1375 441 1709 441 
Q 2250 441 2565 725 
Q 2881 1009 2881 1497 
Q 2881 1984 2565 2268 
Q 2250 2553 1709 2553 
Q 1456 2553 1204 2497 
Q 953 2441 691 2322 
L 691 4666 
z
" transform="scale(0.015625)"/>
       </defs>
       <use xlink:href="#DejaVuSans-30"/>
       <use xlink:href="#DejaVuSans-2e" x="63.623047"/>
       <use xlink:href="#DejaVuSans-35" x="95.410156"/>
      </g>
     </g>
    </g>
    <g id="ytick_6">
     <g id="line2d_21">
      <g>
       <use xlink:href="#m0286419014" x="402.32" y="52.337361" style="stroke: #000000; stroke-width: 0.8"/>
      </g>
     </g>
     <g id="text_11">
      <!-- 1.0 -->
      <g transform="translate(379.416875 56.13658) scale(0.1 -0.1)">
       <use xlink:href="#DejaVuSans-31"/>
       <use xlink:href="#DejaVuSans-2e" x="63.623047"/>
       <use xlink:href="#DejaVuSans-30" x="95.410156"/>
      </g>
     </g>
    </g>
    <g id="text_12">
     <!-- depth (m) -->
     <g transform="translate(373.337187 98.614844) rotate(-90) scale(0.1 -0.1)">
      <defs>
       <path id="DejaVuSans-64" d="M 2906 2969 
L 2906 4863 
L 3481 4863 
L 3481 0 
L 2906 0 
L 2906 525 
Q 2725 213 2448 61 
Q 2172 -91 1784 -91 
Q 1150 -91 751 415 
Q 353 922 353 1747 
Q 353 2572 751 3078 
Q 1150 3584 1784 3584 
Q 2172 3584 2448 3432 
Q 2725 3281 2906 2969 
z
M 947 1747 
Q 947 1113 1208 752 
Q 1469 391 1925 391 
Q 2381 391 2643 752 
Q 2906 1113 2906 1747 
Q 2906 2381 2643 2742 
Q 2381 3103 1925 3103 
Q 1469 3103 1208 2742 
Q 947 2381 947 1747 
z
" transform="scale(0.015625)"/>
       <path id="DejaVuSans-70" d="M 1159 525 
L 1159 -1331 
L 581 -1331 
L 581 3500 
L 1159 3500 
L 1159 2969 
Q 1341 3281 1617 3432 
Q 1894 3584 2278 3584 
Q 2916 3584 3314 3078 
Q 3713 2572 3713 1747 
Q 3713 922 3314 415 
Q 2916 -91 2278 -91 
Q 1894 -91 1617 61 
Q 1341 213 1159 525 
z
M 3116 1747 
Q 3116 2381 2855 2742 
Q 2594 3103 2138 3103 
Q 1681 3103 1420 2742 
Q 1159 2381 1159 1747 
Q 1159 1113 1420 752 
Q 1681 391 2138 391 
Q 2594 391 2855 752 
Q 3116 1113 3116 1747 
z
" transform="scale(0.015625)"/>
       <path id="DejaVuSans-68" d="M 3513 2113 
L 3513 0 
L 2938 0 
L 2938 2094 
Q 2938 2591 2744 2837 
Q 2550 3084 2163 3084 
Q 1697 3084 1428 2787 
Q 1159 2491 1159 1978 
L 1159 0 
L 581 0 
L 581 4863 
L 1159 4863 
L 1159 2956 
Q 1366 3272 1645 3428 
Q 1925 3584 2291 3584 
Q 2894 3584 3203 3211 
Q 3513 2838 3513 2113 
z
" transform="scale(0.015625)"/>
      </defs>
      <use xlink:href="#DejaVuSans-64"/>
      <use xlink:href="#DejaVuSans-65" x="63.476562"/>
      <use xlink:href="#DejaVuSans-70" x="125"/>
      <use xlink:href="#DejaVuSans-74" x="188.476562"/>
      <use xlink:href="#DejaVuSans-68" x="227.685547"/>
      <use xlink:href="#DejaVuSans-20" x="291.064453"/>
      <use xlink:href="#DejaVuSans-28" x="322.851562"/>
      <use xlink:href="#DejaVuSans-6d" x="361.865234"/>
      <use xlink:href="#DejaVuSans-29" x="459.277344"/>
     </g>
    </g>
   </g>
   <g id="line2d_22">
    <path d="M 416.269091 116.263636 
L 420.890009 116.158757 
L 421.69477 115.811585 
L 423.473192 114.504752 
L 424.06335 113.863857 
L 425.833824 111.501792 
L 425.960003 111.415448 
L 426.457762 110.904279 
L 426.735951 111.016395 
L 427.22775 110.324117 
L 428.088148 108.935395 
L 428.411046 108.177969 
L 428.598824 107.634835 
L 429.178053 104.678837 
L 429.246607 104.788071 
L 429.4473 104.965067 
L 429.763243 102.633717 
L 429.96195 102.964175 
L 430.027523 102.846982 
L 430.610726 99.540017 
L 430.678287 99.418049 
L 430.742866 99.504458 
L 430.870038 99.653282 
L 431.134318 98.516064 
L 432.600771 90.888614 
L 432.72993 90.247172 
L 433.399571 86.063429 
L 433.727436 84.431882 
L 435.303178 74.90174 
L 435.62707 73.076146 
L 439.558476 47.422058 
L 440.710973 41.486249 
L 442.112847 35.697777 
L 443.774033 32.101591 
L 444.732791 31.219793 
L 444.987135 31.161191 
L 446.073066 32.188621 
L 446.520155 33.24744 
L 447.351742 35.914538 
L 448.185315 39.255411 
L 449.331851 45.766694 
L 451.773953 61.781008 
L 452.613488 68.095658 
L 455.213561 88.872605 
L 455.952749 93.924364 
L 457.216522 105.050001 
L 457.669572 106.465325 
L 457.798731 107.229685 
L 458.371999 110.116205 
L 458.775373 111.095634 
L 459.265185 111.678663 
L 459.858323 112.061765 
L 460.137506 112.6689 
L 460.393837 112.531205 
L 461.011814 113.19737 
L 461.340673 112.927944 
L 461.653636 113.228647 
L 461.90798 113.399906 
L 462.236839 113.156571 
L 462.618356 113.452141 
L 462.876674 113.499202 
L 463.418149 113.197055 
L 464.231852 113.063189 
L 464.364985 113.194281 
L 464.752462 113.644727 
L 465.151862 113.848755 
L 466.004313 113.483001 
L 466.499092 113.613122 
L 466.907433 113.929626 
L 467.121043 113.891662 
L 467.853276 113.663026 
L 468.20598 113.931685 
L 468.760371 113.756968 
L 469.114068 114.036266 
L 469.494591 114.013967 
L 469.774767 114.039054 
L 470.106607 114.074745 
L 470.512961 114.121878 
L 471.131932 114.117656 
L 471.617769 114.305545 
L 472.064858 114.289624 
L 472.434452 114.435005 
L 473.026597 114.353412 
L 473.883022 114.35863 
L 474.488083 114.415884 
L 474.806013 114.596644 
L 475.143814 114.629608 
L 475.737946 114.871257 
L 476.350956 114.943761 
L 476.780162 114.911204 
L 477.783629 115.019693 
L 478.157197 115.036681 
L 478.526791 115.046117 
L 479.893891 115.168576 
L 480.563532 115.268465 
L 481.62065 115.240387 
L 482.726451 115.367331 
L 483.482529 115.473224 
L 484.130312 115.501183 
L 484.936066 115.570008 
L 486.445242 115.73665 
L 487.793465 115.776086 
L 490.598206 115.954904 
L 493.524158 116.07271 
L 505.953244 116.159818 
L 522.048463 116.193878 
L 555.490753 116.224186 
L 695.250909 116.252899 
L 695.250909 116.252899 
" clip-path="url(#pe26aec53ee)" style="fill: none; stroke: #1f77b4; stroke-width: 1.5; stroke-linecap: square"/>
   </g>
   <g id="patch_8">
    <path d="M 402.32 120.52 
L 402.32 26.88 
" style="fill: none; stroke: #000000; stroke-width: 0.8; stroke-linejoin: miter; stroke-linecap: square"/>
   </g>
   <g id="patch_9">
    <path d="M 709.2 120.52 
L 709.2 26.88 
" style="fill: none; stroke: #000000; stroke-width: 0.8; stroke-linejoin: miter; stroke-linecap: square"/>
   </g>
   <g id="patch_10">
    <path d="M 402.32 120.52 
L 709.2 120.52 
" style="fill: none; stroke: #000000; stroke-width: 0.8; stroke-linejoin: miter; stroke-linecap: square"/>
   </g>
   <g id="patch_11">
    <path d="M 402.32 26.88 
L 709.2 26.88 
" style="fill: none; stroke: #000000; stroke-width: 0.8; stroke-linejoin: miter; stroke-linecap: square"/>
   </g>
   <g id="text_13">
    <!-- ('P1', 'depthN') -->
    <g transform="translate(491.7079 50.3762) scale(0.1728 -0.1728)">
     <defs>
      <path id="DejaVuSans-27" d="M 1147 4666 
L 1147 2931 
L 616 2931 
L 616 4666 
L 1147 4666 
z
" transform="scale(0.015625)"/>
      <path id="DejaVuSans-50" d="M 1259 4147 
L 1259 2394 
L 2053 2394 
Q 2494 2394 2734 2622 
Q 2975 2850 2975 3272 
Q 2975 3691 2734 3919 
Q 2494 4147 2053 4147 
L 1259 4147 
z
M 628 4666 
L 2053 4666 
Q 2838 4666 3239 4311 
Q 3641 3956 3641 3272 
Q 3641 2581 3239 2228 
Q 2838 1875 2053 1875 
L 1259 1875 
L 1259 0 
L 628 0 
L 628 4666 
z
" transform="scale(0.015625)"/>
      <path id="DejaVuSans-2c" d="M 750 794 
L 1409 794 
L 1409 256 
L 897 -744 
L 494 -744 
L 750 256 
L 750 794 
z
" transform="scale(0.015625)"/>
      <path id="DejaVuSans-4e" d="M 628 4666 
L 1478 4666 
L 3547 763 
L 3547 4666 
L 4159 4666 
L 4159 0 
L 3309 0 
L 1241 3903 
L 1241 0 
L 628 0 
L 628 4666 
z
" transform="scale(0.015625)"/>
     </defs>
     <use xlink:href="#DejaVuSans-28"/>
     <use xlink:href="#DejaVuSans-27" x="39.013672"/>
     <use xlink:href="#DejaVuSans-50" x="66.503906"/>
     <use xlink:href="#DejaVuSans-31" x="126.806641"/>
     <use xlink:href="#DejaVuSans-27" x="190.429688"/>
     <use xlink:href="#DejaVuSans-2c" x="217.919922"/>
     <use xlink:href="#DejaVuSans-20" x="249.707031"/>
     <use xlink:href="#DejaVuSans-27" x="281.494141"/>
     <use xlink:href="#DejaVuSans-64" x="308.984375"/>
     <use xlink:href="#DejaVuSans-65" x="372.460938"/>
     <use xlink:href="#DejaVuSans-70" x="433.984375"/>
     <use xlink:href="#DejaVuSans-74" x="497.460938"/>
     <use xlink:href="#DejaVuSans-68" x="536.669922"/>
     <use xlink:href="#DejaVuSans-4e" x="600.048828"/>
     <use xlink:href="#DejaVuSans-27" x="674.853516"/>
     <use xlink:href="#DejaVuSans-29" x="702.34375"/>
    </g>
   </g>
   <g id="text_14">
    <!-- depths -->
    <g transform="translate(535.169688 20.88) scale(0.12 -0.12)">
     <use xlink:href="#DejaVuSans-64"/>
     <use xlink:href="#DejaVuSans-65" x="63.476562"/>
     <use xlink:href="#DejaVuSans-70" x="125"/>
     <use xlink:href="#DejaVuSans-74" x="188.476562"/>
     <use xlink:href="#DejaVuSans-68" x="227.685547"/>
     <use xlink:href="#DejaVuSans-73" x="291.064453"/>
    </g>
   </g>
  </g>
  <g id="axes_3">
   <g id="patch_12">
    <path d="M 47.72 246.04 
L 354.6 246.04 
L 354.6 152.4 
L 47.72 152.4 
z
" style="fill: #ffffff"/>
   </g>
   <g id="matplotlib.axis_5">
    <g id="xtick_15">
     <g id="line2d_23">
      <g>
       <use xlink:href="#m2903047a27" x="61.669091" y="246.04" style="stroke: #000000; stroke-width: 0.8"/>
      </g>
     </g>
     <g id="text_15">
      <!-- 02-25 00 -->
      <g transform="translate(39.188622 260.638437) scale(0.1 -0.1)">
       <defs>
        <path id="DejaVuSans-2d" d="M 313 2009 
L 1997 2009 
L 1997 1497 
L 313 1497 
L 313 2009 
z
" transform="scale(0.015625)"/>
       </defs>
       <use xlink:href="#DejaVuSans-30"/>
       <use xlink:href="#DejaVuSans-32" x="63.623047"/>
       <use xlink:href="#DejaVuSans-2d" x="127.246094"/>
       <use xlink:href="#DejaVuSans-32" x="163.330078"/>
       <use xlink:href="#DejaVuSans-35" x="226.953125"/>
       <use xlink:href="#DejaVuSans-20" x="290.576172"/>
       <use xlink:href="#DejaVuSans-30" x="322.363281"/>
       <use xlink:href="#DejaVuSans-30" x="385.986328"/>
      </g>
     </g>
    </g>
    <g id="xtick_16">
     <g id="line2d_24">
      <g>
       <use xlink:href="#m2903047a27" x="104.589676" y="246.04" style="stroke: #000000; stroke-width: 0.8"/>
      </g>
     </g>
     <g id="text_16">
      <!-- 02-25 12 -->
      <g transform="translate(82.109208 260.638437) scale(0.1 -0.1)">
       <use xlink:href="#DejaVuSans-30"/>
       <use xlink:href="#DejaVuSans-32" x="63.623047"/>
       <use xlink:href="#DejaVuSans-2d" x="127.246094"/>
       <use xlink:href="#DejaVuSans-32" x="163.330078"/>
       <use xlink:href="#DejaVuSans-35" x="226.953125"/>
       <use xlink:href="#DejaVuSans-20" x="290.576172"/>
       <use xlink:href="#DejaVuSans-31" x="322.363281"/>
       <use xlink:href="#DejaVuSans-32" x="385.986328"/>
      </g>
     </g>
    </g>
    <g id="xtick_17">
     <g id="line2d_25">
      <g>
       <use xlink:href="#m2903047a27" x="147.510262" y="246.04" style="stroke: #000000; stroke-width: 0.8"/>
      </g>
     </g>
     <g id="text_17">
      <!-- 02-26 00 -->
      <g transform="translate(125.029793 260.638437) scale(0.1 -0.1)">
       <defs>
        <path id="DejaVuSans-36" d="M 2113 2584 
Q 1688 2584 1439 2293 
Q 1191 2003 1191 1497 
Q 1191 994 1439 701 
Q 1688 409 2113 409 
Q 2538 409 2786 701 
Q 3034 994 3034 1497 
Q 3034 2003 2786 2293 
Q 2538 2584 2113 2584 
z
M 3366 4563 
L 3366 3988 
Q 3128 4100 2886 4159 
Q 2644 4219 2406 4219 
Q 1781 4219 1451 3797 
Q 1122 3375 1075 2522 
Q 1259 2794 1537 2939 
Q 1816 3084 2150 3084 
Q 2853 3084 3261 2657 
Q 3669 2231 3669 1497 
Q 3669 778 3244 343 
Q 2819 -91 2113 -91 
Q 1303 -91 875 529 
Q 447 1150 447 2328 
Q 447 3434 972 4092 
Q 1497 4750 2381 4750 
Q 2619 4750 2861 4703 
Q 3103 4656 3366 4563 
z
" transform="scale(0.015625)"/>
       </defs>
       <use xlink:href="#DejaVuSans-30"/>
       <use xlink:href="#DejaVuSans-32" x="63.623047"/>
       <use xlink:href="#DejaVuSans-2d" x="127.246094"/>
       <use xlink:href="#DejaVuSans-32" x="163.330078"/>
       <use xlink:href="#DejaVuSans-36" x="226.953125"/>
       <use xlink:href="#DejaVuSans-20" x="290.576172"/>
       <use xlink:href="#DejaVuSans-30" x="322.363281"/>
       <use xlink:href="#DejaVuSans-30" x="385.986328"/>
      </g>
     </g>
    </g>
    <g id="xtick_18">
     <g id="line2d_26">
      <g>
       <use xlink:href="#m2903047a27" x="190.430847" y="246.04" style="stroke: #000000; stroke-width: 0.8"/>
      </g>
     </g>
     <g id="text_18">
      <!-- 02-26 12 -->
      <g transform="translate(167.950378 260.638437) scale(0.1 -0.1)">
       <use xlink:href="#DejaVuSans-30"/>
       <use xlink:href="#DejaVuSans-32" x="63.623047"/>
       <use xlink:href="#DejaVuSans-2d" x="127.246094"/>
       <use xlink:href="#DejaVuSans-32" x="163.330078"/>
       <use xlink:href="#DejaVuSans-36" x="226.953125"/>
       <use xlink:href="#DejaVuSans-20" x="290.576172"/>
       <use xlink:href="#DejaVuSans-31" x="322.363281"/>
       <use xlink:href="#DejaVuSans-32" x="385.986328"/>
      </g>
     </g>
    </g>
    <g id="xtick_19">
     <g id="line2d_27">
      <g>
       <use xlink:href="#m2903047a27" x="233.351433" y="246.04" style="stroke: #000000; stroke-width: 0.8"/>
      </g>
     </g>
     <g id="text_19">
      <!-- 02-27 00 -->
      <g transform="translate(210.870964 260.638437) scale(0.1 -0.1)">
       <defs>
        <path id="DejaVuSans-37" d="M 525 4666 
L 3525 4666 
L 3525 4397 
L 1831 0 
L 1172 0 
L 2766 4134 
L 525 4134 
L 525 4666 
z
" transform="scale(0.015625)"/>
       </defs>
       <use xlink:href="#DejaVuSans-30"/>
       <use xlink:href="#DejaVuSans-32" x="63.623047"/>
       <use xlink:href="#DejaVuSans-2d" x="127.246094"/>
       <use xlink:href="#DejaVuSans-32" x="163.330078"/>
       <use xlink:href="#DejaVuSans-37" x="226.953125"/>
       <use xlink:href="#DejaVuSans-20" x="290.576172"/>
       <use xlink:href="#DejaVuSans-30" x="322.363281"/>
       <use xlink:href="#DejaVuSans-30" x="385.986328"/>
      </g>
     </g>
    </g>
    <g id="xtick_20">
     <g id="line2d_28">
      <g>
       <use xlink:href="#m2903047a27" x="276.272018" y="246.04" style="stroke: #000000; stroke-width: 0.8"/>
      </g>
     </g>
     <g id="text_20">
      <!-- 02-27 12 -->
      <g transform="translate(253.791549 260.638437) scale(0.1 -0.1)">
       <use xlink:href="#DejaVuSans-30"/>
       <use xlink:href="#DejaVuSans-32" x="63.623047"/>
       <use xlink:href="#DejaVuSans-2d" x="127.246094"/>
       <use xlink:href="#DejaVuSans-32" x="163.330078"/>
       <use xlink:href="#DejaVuSans-37" x="226.953125"/>
       <use xlink:href="#DejaVuSans-20" x="290.576172"/>
       <use xlink:href="#DejaVuSans-31" x="322.363281"/>
       <use xlink:href="#DejaVuSans-32" x="385.986328"/>
      </g>
     </g>
    </g>
    <g id="xtick_21">
     <g id="line2d_29">
      <g>
       <use xlink:href="#m2903047a27" x="319.192603" y="246.04" style="stroke: #000000; stroke-width: 0.8"/>
      </g>
     </g>
     <g id="text_21">
      <!-- 02-28 00 -->
      <g transform="translate(296.712135 260.638437) scale(0.1 -0.1)">
       <defs>
        <path id="DejaVuSans-38" d="M 2034 2216 
Q 1584 2216 1326 1975 
Q 1069 1734 1069 1313 
Q 1069 891 1326 650 
Q 1584 409 2034 409 
Q 2484 409 2743 651 
Q 3003 894 3003 1313 
Q 3003 1734 2745 1975 
Q 2488 2216 2034 2216 
z
M 1403 2484 
Q 997 2584 770 2862 
Q 544 3141 544 3541 
Q 544 4100 942 4425 
Q 1341 4750 2034 4750 
Q 2731 4750 3128 4425 
Q 3525 4100 3525 3541 
Q 3525 3141 3298 2862 
Q 3072 2584 2669 2484 
Q 3125 2378 3379 2068 
Q 3634 1759 3634 1313 
Q 3634 634 3220 271 
Q 2806 -91 2034 -91 
Q 1263 -91 848 271 
Q 434 634 434 1313 
Q 434 1759 690 2068 
Q 947 2378 1403 2484 
z
M 1172 3481 
Q 1172 3119 1398 2916 
Q 1625 2713 2034 2713 
Q 2441 2713 2670 2916 
Q 2900 3119 2900 3481 
Q 2900 3844 2670 4047 
Q 2441 4250 2034 4250 
Q 1625 4250 1398 4047 
Q 1172 3844 1172 3481 
z
" transform="scale(0.015625)"/>
       </defs>
       <use xlink:href="#DejaVuSans-30"/>
       <use xlink:href="#DejaVuSans-32" x="63.623047"/>
       <use xlink:href="#DejaVuSans-2d" x="127.246094"/>
       <use xlink:href="#DejaVuSans-32" x="163.330078"/>
       <use xlink:href="#DejaVuSans-38" x="226.953125"/>
       <use xlink:href="#DejaVuSans-20" x="290.576172"/>
       <use xlink:href="#DejaVuSans-30" x="322.363281"/>
       <use xlink:href="#DejaVuSans-30" x="385.986328"/>
      </g>
     </g>
    </g>
    <g id="text_22">
     <!-- time -->
     <g transform="translate(189.863906 274.316562) scale(0.1 -0.1)">
      <use xlink:href="#DejaVuSans-74"/>
      <use xlink:href="#DejaVuSans-69" x="39.208984"/>
      <use xlink:href="#DejaVuSans-6d" x="66.992188"/>
      <use xlink:href="#DejaVuSans-65" x="164.404297"/>
     </g>
    </g>
   </g>
   <g id="matplotlib.axis_6">
    <g id="ytick_7">
     <g id="line2d_30">
      <g>
       <use xlink:href="#m0286419014" x="47.72" y="241.783636" style="stroke: #000000; stroke-width: 0.8"/>
      </g>
     </g>
     <g id="text_23">
      <!-- 0.0 -->
      <g transform="translate(24.816875 245.582855) scale(0.1 -0.1)">
       <use xlink:href="#DejaVuSans-30"/>
       <use xlink:href="#DejaVuSans-2e" x="63.623047"/>
       <use xlink:href="#DejaVuSans-30" x="95.410156"/>
      </g>
     </g>
    </g>
    <g id="ytick_8">
     <g id="line2d_31">
      <g>
       <use xlink:href="#m0286419014" x="47.72" y="209.625152" style="stroke: #000000; stroke-width: 0.8"/>
      </g>
     </g>
     <g id="text_24">
      <!-- 0.1 -->
      <g transform="translate(24.816875 213.424371) scale(0.1 -0.1)">
       <use xlink:href="#DejaVuSans-30"/>
       <use xlink:href="#DejaVuSans-2e" x="63.623047"/>
       <use xlink:href="#DejaVuSans-31" x="95.410156"/>
      </g>
     </g>
    </g>
    <g id="ytick_9">
     <g id="line2d_32">
      <g>
       <use xlink:href="#m0286419014" x="47.72" y="177.466667" style="stroke: #000000; stroke-width: 0.8"/>
      </g>
     </g>
     <g id="text_25">
      <!-- 0.2 -->
      <g transform="translate(24.816875 181.265886) scale(0.1 -0.1)">
       <use xlink:href="#DejaVuSans-30"/>
       <use xlink:href="#DejaVuSans-2e" x="63.623047"/>
       <use xlink:href="#DejaVuSans-32" x="95.410156"/>
      </g>
     </g>
    </g>
    <g id="text_26">
     <!-- flow (cms) -->
     <g transform="translate(18.737188 225.2325) rotate(-90) scale(0.1 -0.1)">
      <use xlink:href="#DejaVuSans-66"/>
      <use xlink:href="#DejaVuSans-6c" x="35.205078"/>
      <use xlink:href="#DejaVuSans-6f" x="62.988281"/>
      <use xlink:href="#DejaVuSans-77" x="124.169922"/>
      <use xlink:href="#DejaVuSans-20" x="205.957031"/>
      <use xlink:href="#DejaVuSans-28" x="237.744141"/>
      <use xlink:href="#DejaVuSans-63" x="276.757812"/>
      <use xlink:href="#DejaVuSans-6d" x="331.738281"/>
      <use xlink:href="#DejaVuSans-73" x="429.150391"/>
      <use xlink:href="#DejaVuSans-29" x="481.25"/>
     </g>
    </g>
   </g>
   <g id="line2d_33">
    <path d="M 61.669091 241.783636 
L 67.451448 241.6877 
L 68.134998 241.386984 
L 68.54632 241.056115 
L 68.873192 240.492826 
L 68.934791 240.517551 
L 69.170258 240.085969 
L 69.46335 239.15765 
L 69.533891 239.087589 
L 70.001844 237.259806 
L 70.971532 230.643468 
L 72.965551 211.180361 
L 73.357002 206.024915 
L 73.422575 206.069605 
L 74.515461 192.707275 
L 74.713173 187.444861 
L 74.8473 186.355484 
L 74.907906 188.283465 
L 74.971492 187.710207 
L 75.100651 185.982707 
L 75.296377 180.713339 
L 75.36195 180.087222 
L 75.427523 178.077385 
L 75.496077 181.005257 
L 75.556682 180.600303 
L 75.678887 178.525527 
L 75.808046 172.793801 
L 75.875606 172.437132 
L 75.943166 171.359768 
L 76.010726 172.496769 
L 76.270038 168.379403 
L 76.334618 170.059106 
L 76.534318 167.263911 
L 76.600884 167.293495 
L 76.736005 171.231611 
L 76.804558 171.056292 
L 76.873112 170.641189 
L 77.074799 167.587537 
L 77.141366 167.315219 
L 77.275493 169.109132 
L 77.474199 167.648452 
L 77.540766 170.188757 
L 77.738479 166.984974 
L 77.804052 167.913478 
L 77.870618 167.642289 
L 78.065351 165.920595 
L 78.19749 171.727815 
L 78.333604 170.617573 
L 78.400171 170.783123 
L 78.467731 171.172493 
L 78.733998 168.382017 
L 78.86415 171.502718 
L 78.929724 171.218022 
L 78.995297 170.175188 
L 79.127436 172.430349 
L 79.26057 171.440296 
L 79.327136 166.56205 
L 79.39271 169.146315 
L 79.459276 169.466782 
L 79.524849 169.073687 
L 79.591416 167.284736 
L 79.722562 169.713885 
L 79.854702 168.953813 
L 79.920275 169.134447 
L 79.985848 170.244696 
L 80.052415 169.845284 
L 80.185548 169.042196 
L 80.445853 162.148733 
L 80.510433 164.11771 
L 80.703178 172.431315 
L 80.767758 171.572647 
L 80.96249 166.137222 
L 81.091649 164.785177 
L 81.221802 168.361923 
L 81.417528 167.733255 
L 81.547681 169.418655 
L 81.61226 169.114753 
L 81.806992 165.258201 
L 81.936152 164.317831 
L 82.001725 165.619281 
L 82.193476 162.526416 
L 82.257062 162.28688 
L 82.385228 167.356305 
L 82.449808 167.300482 
L 82.514387 166.92769 
L 82.578967 167.391723 
L 82.836292 164.083699 
L 82.900871 164.652621 
L 83.093616 162.439193 
L 83.157203 163.022202 
L 83.286362 166.920981 
L 83.350941 166.825998 
L 83.4801 165.675097 
L 83.673839 170.676473 
L 83.738419 170.312179 
L 83.933151 165.294139 
L 84.382228 163.121105 
L 84.510393 164.918138 
L 84.573979 164.823399 
L 84.89489 162.14244 
L 84.958476 162.658256 
L 85.151221 166.024948 
L 85.280381 165.60027 
L 85.471139 159.141253 
L 85.533731 159.632779 
L 85.661897 164.729492 
L 85.790063 164.435364 
L 85.982808 163.572012 
L 86.110973 163.037374 
L 86.238145 165.489515 
L 86.301732 165.416656 
L 86.428904 164.917275 
L 86.493483 164.178483 
L 86.621649 165.060131 
L 86.686228 164.879455 
L 86.750808 164.347724 
L 86.940573 156.81739 
L 87.003165 156.656364 
L 87.193923 164.187798 
L 87.322089 163.886789 
L 87.512847 164.885573 
L 87.640019 164.640979 
L 87.831771 166.46624 
L 87.89635 166.392014 
L 87.96093 164.373986 
L 88.024516 164.812748 
L 88.152682 165.207376 
L 88.280847 164.302876 
L 88.472599 162.89079 
L 88.537179 162.688631 
L 88.727937 161.095624 
L 88.791523 161.038419 
L 88.855109 162.464779 
L 88.918695 161.455689 
L 89.046861 160.555709 
L 89.110447 161.024277 
L 89.301205 164.869135 
L 89.364791 164.824615 
L 89.42937 164.996639 
L 89.621122 163.506013 
L 89.684708 163.464572 
L 90.004626 165.078501 
L 90.259963 160.616146 
L 90.323549 161.393817 
L 90.514307 166.037356 
L 90.5769 166.116157 
L 90.768652 162.679509 
L 90.896817 162.608145 
L 90.960403 162.875076 
L 91.152155 166.580116 
L 91.280321 164.167592 
L 91.473066 165.188224 
L 91.665811 162.40644 
L 91.729397 162.438803 
L 91.856569 162.654171 
L 91.983741 162.608405 
L 92.048321 162.691237 
L 92.111907 163.481201 
L 92.175493 163.265882 
L 92.239079 163.157657 
L 92.303659 163.229953 
L 92.367245 163.344332 
L 92.558996 165.427831 
L 92.623576 165.526317 
L 92.687162 165.472498 
L 92.751742 164.628797 
L 92.815328 164.946361 
L 92.943493 165.250718 
L 93.008073 164.455775 
L 93.071659 165.026333 
L 93.264404 166.363342 
L 93.457149 162.085759 
L 93.520736 162.128848 
L 93.585315 162.470518 
L 93.776073 164.490947 
L 93.839659 164.693365 
L 93.903245 164.587148 
L 94.031411 163.912438 
L 94.094997 163.981311 
L 94.158583 164.171782 
L 94.222169 163.78368 
L 94.350335 162.10518 
L 94.414914 162.211776 
L 94.795437 165.441895 
L 94.923603 164.115652 
L 94.988182 164.176746 
L 95.051768 164.407547 
L 95.116348 163.985113 
L 95.309093 167.587219 
L 95.373673 167.638598 
L 95.438252 166.838988 
L 95.630004 168.553608 
L 95.822749 163.447599 
L 96.015495 164.369481 
L 96.207246 167.410759 
L 96.270832 167.486537 
L 96.335412 165.761528 
L 96.529151 168.138594 
L 96.722889 163.607619 
L 96.787469 163.833525 
L 96.852049 164.211749 
L 97.173953 168.892456 
L 97.367692 164.931406 
L 97.433265 165.31331 
L 97.691583 168.540032 
L 97.756163 168.593501 
L 97.821736 168.420178 
L 98.013488 170.282722 
L 98.077074 169.938353 
L 98.206233 164.647739 
L 98.270812 164.917299 
L 98.398978 166.261457 
L 98.592717 169.748848 
L 98.657296 170.101071 
L 98.722869 169.75474 
L 98.851035 170.808996 
L 98.915615 171.411609 
L 99.045767 169.672877 
L 99.110347 169.930684 
L 99.241493 171.168692 
L 99.371646 170.014203 
L 99.566378 172.372299 
L 99.697524 164.199378 
L 99.762104 164.556104 
L 99.826684 165.484621 
L 99.892257 169.990084 
L 99.956836 168.66451 
L 100.085002 169.902858 
L 100.215155 172.420419 
L 100.280728 171.806626 
L 100.412868 173.340204 
L 100.681121 179.930745 
L 100.748681 179.833126 
L 100.883802 175.62871 
L 101.086482 178.227212 
L 101.153049 173.737338 
L 101.219616 176.434434 
L 101.485882 184.685705 
L 101.886276 191.683961 
L 102.156516 197.616488 
L 102.224076 198.024352 
L 102.293624 194.953379 
L 102.493324 200.510381 
L 102.553929 199.225194 
L 102.747668 204.468069 
L 102.813241 204.398873 
L 102.876827 200.383553 
L 102.940413 200.507072 
L 103.135145 203.809506 
L 103.198731 202.341462 
L 103.26033 202.999047 
L 103.448108 205.726272 
L 103.63986 210.875776 
L 103.705433 211.268037 
L 103.771999 207.742135 
L 103.837573 207.792688 
L 104.383022 212.300176 
L 104.453562 211.900212 
L 104.941387 214.831732 
L 105.136119 216.566054 
L 105.197718 216.691308 
L 105.328864 214.301122 
L 105.466965 215.011883 
L 105.729258 220.23116 
L 105.793837 220.235453 
L 105.919022 218.797598 
L 106.040233 219.049327 
L 106.163431 218.618898 
L 106.349222 219.760111 
L 106.411814 218.632377 
L 106.608533 220.88289 
L 106.6751 220.898504 
L 106.740673 218.193079 
L 106.804259 219.117966 
L 107.053636 219.739036 
L 107.180808 221.354894 
L 107.2434 221.435321 
L 107.37256 218.88071 
L 107.438133 218.946871 
L 107.571266 219.228925 
L 107.636839 220.499087 
L 107.701419 218.967241 
L 107.764011 219.037543 
L 107.889196 219.6467 
L 108.018356 221.385244 
L 108.146521 221.595347 
L 108.276674 220.566089 
L 108.478361 221.315785 
L 108.613481 222.38273 
L 108.750589 222.524331 
L 108.953269 223.731511 
L 109.020829 223.774614 
L 109.08839 222.829719 
L 109.15595 223.268607 
L 109.292064 224.609214 
L 109.361611 224.632769 
L 109.496731 222.051185 
L 109.564291 222.189679 
L 109.828571 222.909671 
L 109.956737 223.233814 
L 110.021316 223.792313 
L 110.086889 222.805923 
L 110.152462 222.93274 
L 110.218036 223.092672 
L 110.283609 224.035375 
L 110.351169 223.806123 
L 110.418729 223.513566 
L 110.485296 223.627896 
L 110.551862 223.761543 
L 110.763485 226.751918 
L 110.837006 226.751666 
L 110.981068 224.463454 
L 111.051609 224.552555 
L 111.12215 224.644028 
L 111.333772 226.72957 
L 111.404313 226.766974 
L 111.474854 226.213726 
L 111.688463 227.356846 
L 111.759997 227.333796 
L 111.899092 224.738231 
L 112.032225 225.038957 
L 112.307433 227.54308 
L 112.448515 226.00311 
L 112.521043 226.109131 
L 112.666099 226.482059 
L 112.886663 228.207624 
L 112.961178 227.975397 
L 113.107227 226.694963 
L 113.253276 226.888317 
L 113.463905 228.757621 
L 113.534446 228.833099 
L 113.60598 228.047865 
L 113.7411 229.230973 
L 113.801706 229.252881 
L 113.936826 227.498052 
L 114.011341 227.611509 
L 114.085856 227.704604 
L 114.160371 228.209411 
L 114.303439 227.542465 
L 114.442534 227.965181 
L 114.636273 230.11211 
L 114.697872 230.133938 
L 114.894591 228.348595 
L 114.967119 228.4358 
L 115.04064 228.543522 
L 115.114162 228.993034 
L 115.174767 228.908856 
L 115.432092 229.163056 
L 115.506607 229.119857 
L 115.654643 229.312385 
L 115.851362 229.640328 
L 115.973567 229.80088 
L 116.097758 231.132837 
L 116.223937 231.196145 
L 116.347135 230.061036 
L 116.408734 230.107667 
L 116.593531 230.35479 
L 116.668046 230.136478 
L 116.741567 230.225223 
L 116.816082 230.335262 
L 117.017769 232.150157 
L 117.082349 232.175148 
L 117.2741 230.933114 
L 117.401272 231.050946 
L 117.464858 231.751046 
L 117.588056 230.970161 
L 117.709267 231.115845 
L 117.966592 232.801754 
L 118.099725 232.201182 
L 118.165299 232.463063 
L 118.296445 232.53658 
L 118.426597 231.835742 
L 118.492171 231.894145 
L 118.557744 231.951166 
L 118.687896 232.474226 
L 118.819043 233.151928 
L 118.885609 233.183548 
L 118.952176 232.378556 
L 119.149889 233.463345 
L 119.216455 233.487825 
L 119.283022 232.965847 
L 119.417149 233.649851 
L 119.484709 233.677518 
L 119.551276 232.661264 
L 119.685403 233.862476 
L 119.821516 233.907586 
L 119.951669 232.975456 
L 120.141434 233.080622 
L 120.206013 232.951256 
L 120.478241 233.66103 
L 120.609387 234.171964 
L 120.674961 234.21735 
L 120.806107 233.294929 
L 121.27108 233.739127 
L 121.33864 234.060857 
L 121.4062 233.865638 
L 121.609874 234.147302 
L 121.823484 234.375707 
L 122.250702 234.582427 
L 122.388803 234.563552 
L 122.458351 234.617372 
L 122.67196 235.773105 
L 122.747468 235.801772 
L 122.821983 235.643706 
L 122.895505 235.684601 
L 123.038573 235.807095 
L 123.110108 235.655473 
L 123.334646 235.883352 
L 123.485663 235.832461 
L 123.926791 236.299722 
L 124.004287 236.073565 
L 124.15729 236.365232 
L 124.313275 236.412265 
L 124.389777 235.626477 
L 124.465285 235.666091 
L 124.5398 235.712274 
L 124.847795 236.684527 
L 125.072333 236.547468 
L 125.443914 236.779995 
L 125.519423 236.518418 
L 125.672427 236.896926 
L 125.748929 236.931883 
L 125.825431 236.718003 
L 126.025131 237.085457 
L 126.392738 237.212299 
L 126.656024 237.329603 
L 126.777235 236.786808 
L 126.83784 236.821934 
L 126.960044 236.89208 
L 127.141861 237.47382 
L 127.550202 237.587348 
L 127.612795 237.536162 
L 127.813488 237.772226 
L 128.512935 237.939698 
L 128.636133 237.784097 
L 128.759331 237.86782 
L 128.945121 238.143401 
L 129.0713 238.203369 
L 129.134886 237.842589 
L 129.199466 237.86777 
L 129.330612 237.941486 
L 129.530312 238.411231 
L 130.203927 238.63325 
L 130.2695 238.470495 
L 130.4692 238.749099 
L 130.535766 238.77197 
L 130.6689 238.406857 
L 130.735466 238.430717 
L 130.802033 238.459629 
L 131.004713 238.911223 
L 132.296305 239.375029 
L 132.372807 239.22337 
L 132.598339 239.434294 
L 132.967933 239.440078 
L 133.117956 239.378833 
L 133.269967 239.534951 
L 133.503447 239.679545 
L 133.811442 239.718712 
L 133.887944 239.486453 
L 133.964446 239.522976 
L 134.198919 239.699792 
L 134.517843 239.90522 
L 135.076208 239.963831 
L 135.238154 239.864192 
L 135.82235 240.20404 
L 135.909781 240.223092 
L 136.083649 240.075201 
L 136.25255 240.214584 
L 136.424431 240.333628 
L 136.599293 240.352504 
L 136.778128 240.419357 
L 136.956964 240.290858 
L 137.1358 240.332755 
L 137.314636 240.499769 
L 137.672307 240.540332 
L 137.851143 240.444535 
L 138.029979 240.506881 
L 138.208815 240.644992 
L 138.298232 240.657522 
L 138.477068 240.542466 
L 138.655904 240.65187 
L 138.924158 240.748351 
L 139.102993 240.650598 
L 139.281829 240.747859 
L 139.550083 240.774325 
L 139.728919 240.722558 
L 144.020977 241.136168 
L 144.289231 241.128124 
L 144.557484 241.176251 
L 144.825738 241.145111 
L 145.362245 241.227645 
L 148.760125 241.354243 
L 149.028379 241.314121 
L 150.548483 241.362378 
L 160.38445 241.541887 
L 164.676509 241.591701 
L 175.138402 241.644394 
L 229.146805 241.744868 
L 340.650909 241.773404 
L 340.650909 241.773404 
" clip-path="url(#pbb1f503177)" style="fill: none; stroke: #1f77b4; stroke-width: 1.5; stroke-linecap: square"/>
   </g>
   <g id="patch_13">
    <path d="M 47.72 246.04 
L 47.72 152.4 
" style="fill: none; stroke: #000000; stroke-width: 0.8; stroke-linejoin: miter; stroke-linecap: square"/>
   </g>
   <g id="patch_14">
    <path d="M 354.6 246.04 
L 354.6 152.4 
" style="fill: none; stroke: #000000; stroke-width: 0.8; stroke-linejoin: miter; stroke-linecap: square"/>
   </g>
   <g id="patch_15">
    <path d="M 47.72 246.04 
L 354.6 246.04 
" style="fill: none; stroke: #000000; stroke-width: 0.8; stroke-linejoin: miter; stroke-linecap: square"/>
   </g>
   <g id="patch_16">
    <path d="M 47.72 152.4 
L 354.6 152.4 
" style="fill: none; stroke: #000000; stroke-width: 0.8; stroke-linejoin: miter; stroke-linecap: square"/>
   </g>
   <g id="text_27">
    <!-- 2 -->
    <g transform="translate(195.6628 175.8962) scale(0.1728 -0.1728)">
     <use xlink:href="#DejaVuSans-32"/>
    </g>
   </g>
  </g>
  <g id="axes_4">
   <g id="patch_17">
    <path d="M 402.32 246.04 
L 709.2 246.04 
L 709.2 152.4 
L 402.32 152.4 
z
" style="fill: #ffffff"/>
   </g>
   <g id="matplotlib.axis_7">
    <g id="xtick_22">
     <g id="line2d_34">
      <g>
       <use xlink:href="#m2903047a27" x="416.269091" y="246.04" style="stroke: #000000; stroke-width: 0.8"/>
      </g>
     </g>
     <g id="text_28">
      <!-- 02-25 00 -->
      <g transform="translate(393.788622 260.638437) scale(0.1 -0.1)">
       <use xlink:href="#DejaVuSans-30"/>
       <use xlink:href="#DejaVuSans-32" x="63.623047"/>
       <use xlink:href="#DejaVuSans-2d" x="127.246094"/>
       <use xlink:href="#DejaVuSans-32" x="163.330078"/>
       <use xlink:href="#DejaVuSans-35" x="226.953125"/>
       <use xlink:href="#DejaVuSans-20" x="290.576172"/>
       <use xlink:href="#DejaVuSans-30" x="322.363281"/>
       <use xlink:href="#DejaVuSans-30" x="385.986328"/>
      </g>
     </g>
    </g>
    <g id="xtick_23">
     <g id="line2d_35">
      <g>
       <use xlink:href="#m2903047a27" x="459.189676" y="246.04" style="stroke: #000000; stroke-width: 0.8"/>
      </g>
     </g>
     <g id="text_29">
      <!-- 02-25 12 -->
      <g transform="translate(436.709208 260.638437) scale(0.1 -0.1)">
       <use xlink:href="#DejaVuSans-30"/>
       <use xlink:href="#DejaVuSans-32" x="63.623047"/>
       <use xlink:href="#DejaVuSans-2d" x="127.246094"/>
       <use xlink:href="#DejaVuSans-32" x="163.330078"/>
       <use xlink:href="#DejaVuSans-35" x="226.953125"/>
       <use xlink:href="#DejaVuSans-20" x="290.576172"/>
       <use xlink:href="#DejaVuSans-31" x="322.363281"/>
       <use xlink:href="#DejaVuSans-32" x="385.986328"/>
      </g>
     </g>
    </g>
    <g id="xtick_24">
     <g id="line2d_36">
      <g>
       <use xlink:href="#m2903047a27" x="502.110262" y="246.04" style="stroke: #000000; stroke-width: 0.8"/>
      </g>
     </g>
     <g id="text_30">
      <!-- 02-26 00 -->
      <g transform="translate(479.629793 260.638437) scale(0.1 -0.1)">
       <use xlink:href="#DejaVuSans-30"/>
       <use xlink:href="#DejaVuSans-32" x="63.623047"/>
       <use xlink:href="#DejaVuSans-2d" x="127.246094"/>
       <use xlink:href="#DejaVuSans-32" x="163.330078"/>
       <use xlink:href="#DejaVuSans-36" x="226.953125"/>
       <use xlink:href="#DejaVuSans-20" x="290.576172"/>
       <use xlink:href="#DejaVuSans-30" x="322.363281"/>
       <use xlink:href="#DejaVuSans-30" x="385.986328"/>
      </g>
     </g>
    </g>
    <g id="xtick_25">
     <g id="line2d_37">
      <g>
       <use xlink:href="#m2903047a27" x="545.030847" y="246.04" style="stroke: #000000; stroke-width: 0.8"/>
      </g>
     </g>
     <g id="text_31">
      <!-- 02-26 12 -->
      <g transform="translate(522.550378 260.638437) scale(0.1 -0.1)">
       <use xlink:href="#DejaVuSans-30"/>
       <use xlink:href="#DejaVuSans-32" x="63.623047"/>
       <use xlink:href="#DejaVuSans-2d" x="127.246094"/>
       <use xlink:href="#DejaVuSans-32" x="163.330078"/>
       <use xlink:href="#DejaVuSans-36" x="226.953125"/>
       <use xlink:href="#DejaVuSans-20" x="290.576172"/>
       <use xlink:href="#DejaVuSans-31" x="322.363281"/>
       <use xlink:href="#DejaVuSans-32" x="385.986328"/>
      </g>
     </g>
    </g>
    <g id="xtick_26">
     <g id="line2d_38">
      <g>
       <use xlink:href="#m2903047a27" x="587.951433" y="246.04" style="stroke: #000000; stroke-width: 0.8"/>
      </g>
     </g>
     <g id="text_32">
      <!-- 02-27 00 -->
      <g transform="translate(565.470964 260.638437) scale(0.1 -0.1)">
       <use xlink:href="#DejaVuSans-30"/>
       <use xlink:href="#DejaVuSans-32" x="63.623047"/>
       <use xlink:href="#DejaVuSans-2d" x="127.246094"/>
       <use xlink:href="#DejaVuSans-32" x="163.330078"/>
       <use xlink:href="#DejaVuSans-37" x="226.953125"/>
       <use xlink:href="#DejaVuSans-20" x="290.576172"/>
       <use xlink:href="#DejaVuSans-30" x="322.363281"/>
       <use xlink:href="#DejaVuSans-30" x="385.986328"/>
      </g>
     </g>
    </g>
    <g id="xtick_27">
     <g id="line2d_39">
      <g>
       <use xlink:href="#m2903047a27" x="630.872018" y="246.04" style="stroke: #000000; stroke-width: 0.8"/>
      </g>
     </g>
     <g id="text_33">
      <!-- 02-27 12 -->
      <g transform="translate(608.391549 260.638437) scale(0.1 -0.1)">
       <use xlink:href="#DejaVuSans-30"/>
       <use xlink:href="#DejaVuSans-32" x="63.623047"/>
       <use xlink:href="#DejaVuSans-2d" x="127.246094"/>
       <use xlink:href="#DejaVuSans-32" x="163.330078"/>
       <use xlink:href="#DejaVuSans-37" x="226.953125"/>
       <use xlink:href="#DejaVuSans-20" x="290.576172"/>
       <use xlink:href="#DejaVuSans-31" x="322.363281"/>
       <use xlink:href="#DejaVuSans-32" x="385.986328"/>
      </g>
     </g>
    </g>
    <g id="xtick_28">
     <g id="line2d_40">
      <g>
       <use xlink:href="#m2903047a27" x="673.792603" y="246.04" style="stroke: #000000; stroke-width: 0.8"/>
      </g>
     </g>
     <g id="text_34">
      <!-- 02-28 00 -->
      <g transform="translate(651.312135 260.638437) scale(0.1 -0.1)">
       <use xlink:href="#DejaVuSans-30"/>
       <use xlink:href="#DejaVuSans-32" x="63.623047"/>
       <use xlink:href="#DejaVuSans-2d" x="127.246094"/>
       <use xlink:href="#DejaVuSans-32" x="163.330078"/>
       <use xlink:href="#DejaVuSans-38" x="226.953125"/>
       <use xlink:href="#DejaVuSans-20" x="290.576172"/>
       <use xlink:href="#DejaVuSans-30" x="322.363281"/>
       <use xlink:href="#DejaVuSans-30" x="385.986328"/>
      </g>
     </g>
    </g>
    <g id="text_35">
     <!-- time -->
     <g transform="translate(544.463906 274.316562) scale(0.1 -0.1)">
      <use xlink:href="#DejaVuSans-74"/>
      <use xlink:href="#DejaVuSans-69" x="39.208984"/>
      <use xlink:href="#DejaVuSans-6d" x="66.992188"/>
      <use xlink:href="#DejaVuSans-65" x="164.404297"/>
     </g>
    </g>
   </g>
   <g id="matplotlib.axis_8">
    <g id="ytick_10">
     <g id="line2d_41">
      <g>
       <use xlink:href="#m0286419014" x="402.32" y="241.783636" style="stroke: #000000; stroke-width: 0.8"/>
      </g>
     </g>
     <g id="text_36">
      <!-- 0.0 -->
      <g transform="translate(379.416875 245.582855) scale(0.1 -0.1)">
       <use xlink:href="#DejaVuSans-30"/>
       <use xlink:href="#DejaVuSans-2e" x="63.623047"/>
       <use xlink:href="#DejaVuSans-30" x="95.410156"/>
      </g>
     </g>
    </g>
    <g id="ytick_11">
     <g id="line2d_42">
      <g>
       <use xlink:href="#m0286419014" x="402.32" y="209.803743" style="stroke: #000000; stroke-width: 0.8"/>
      </g>
     </g>
     <g id="text_37">
      <!-- 0.5 -->
      <g transform="translate(379.416875 213.602962) scale(0.1 -0.1)">
       <use xlink:href="#DejaVuSans-30"/>
       <use xlink:href="#DejaVuSans-2e" x="63.623047"/>
       <use xlink:href="#DejaVuSans-35" x="95.410156"/>
      </g>
     </g>
    </g>
    <g id="ytick_12">
     <g id="line2d_43">
      <g>
       <use xlink:href="#m0286419014" x="402.32" y="177.82385" style="stroke: #000000; stroke-width: 0.8"/>
      </g>
     </g>
     <g id="text_38">
      <!-- 1.0 -->
      <g transform="translate(379.416875 181.623069) scale(0.1 -0.1)">
       <use xlink:href="#DejaVuSans-31"/>
       <use xlink:href="#DejaVuSans-2e" x="63.623047"/>
       <use xlink:href="#DejaVuSans-30" x="95.410156"/>
      </g>
     </g>
    </g>
    <g id="text_39">
     <!-- depth (m) -->
     <g transform="translate(373.337187 224.134844) rotate(-90) scale(0.1 -0.1)">
      <use xlink:href="#DejaVuSans-64"/>
      <use xlink:href="#DejaVuSans-65" x="63.476562"/>
      <use xlink:href="#DejaVuSans-70" x="125"/>
      <use xlink:href="#DejaVuSans-74" x="188.476562"/>
      <use xlink:href="#DejaVuSans-68" x="227.685547"/>
      <use xlink:href="#DejaVuSans-20" x="291.064453"/>
      <use xlink:href="#DejaVuSans-28" x="322.851562"/>
      <use xlink:href="#DejaVuSans-6d" x="361.865234"/>
      <use xlink:href="#DejaVuSans-29" x="459.277344"/>
     </g>
    </g>
   </g>
   <g id="line2d_44">
    <path d="M 416.269091 241.783636 
L 420.890009 241.675226 
L 421.515934 241.3722 
L 422.136891 240.820131 
L 422.869124 239.834327 
L 423.692763 238.315624 
L 424.341539 236.540995 
L 425.225783 233.364773 
L 428.411046 221.62849 
L 429.700651 217.404255 
L 430.339492 215.855195 
L 431.807932 213.23408 
L 432.72993 210.751967 
L 433.794003 206.266576 
L 435.821802 195.976887 
L 437.629037 184.550426 
L 439.686642 172.024952 
L 440.582808 167.723998 
L 441.922089 161.898179 
L 442.689096 159.420801 
L 443.137179 158.488725 
L 444.02937 157.40081 
L 444.732791 156.810192 
L 445.050721 156.714599 
L 445.24148 156.680258 
L 445.815741 157.176955 
L 446.265811 158.012874 
L 447.030831 160.305626 
L 447.800818 163.056518 
L 448.312487 165.445813 
L 449.205673 170.192216 
L 450.422749 177.373531 
L 453.387449 198.525683 
L 454.815155 209.752895 
L 455.819616 216.855077 
L 456.419709 220.132444 
L 457.023776 222.298237 
L 458.048108 225.028099 
L 458.305433 225.33656 
L 458.705826 226.082865 
L 459.480781 227.065447 
L 460.393837 227.607752 
L 462.301419 228.60312 
L 463.011794 229.068411 
L 463.75595 229.338364 
L 464.029171 229.414503 
L 464.492157 229.731004 
L 465.437006 230.170927 
L 466.145394 230.424243 
L 466.499092 230.568978 
L 467.121043 230.867156 
L 467.853276 231.184081 
L 468.401706 231.305452 
L 469.114068 231.669549 
L 469.567119 231.857076 
L 470.697758 232.361618 
L 471.193531 232.571382 
L 472.309267 233.002224 
L 474.551669 233.629359 
L 477.421983 234.687492 
L 478.75729 235.003836 
L 480.931139 235.608313 
L 485.335466 236.904139 
L 486.819803 237.292869 
L 494.239501 239.001438 
L 497.190291 239.399994 
L 502.376528 239.859223 
L 510.602974 240.296341 
L 520.170688 240.589541 
L 539.842623 240.920928 
L 571.67539 241.175643 
L 628.36633 241.382519 
L 695.250909 241.498165 
L 695.250909 241.498165 
" clip-path="url(#pb686201821)" style="fill: none; stroke: #1f77b4; stroke-width: 1.5; stroke-linecap: square"/>
   </g>
   <g id="patch_18">
    <path d="M 402.32 246.04 
L 402.32 152.4 
" style="fill: none; stroke: #000000; stroke-width: 0.8; stroke-linejoin: miter; stroke-linecap: square"/>
   </g>
   <g id="patch_19">
    <path d="M 709.2 246.04 
L 709.2 152.4 
" style="fill: none; stroke: #000000; stroke-width: 0.8; stroke-linejoin: miter; stroke-linecap: square"/>
   </g>
   <g id="patch_20">
    <path d="M 402.32 246.04 
L 709.2 246.04 
" style="fill: none; stroke: #000000; stroke-width: 0.8; stroke-linejoin: miter; stroke-linecap: square"/>
   </g>
   <g id="patch_21">
    <path d="M 402.32 152.4 
L 709.2 152.4 
" style="fill: none; stroke: #000000; stroke-width: 0.8; stroke-linejoin: miter; stroke-linecap: square"/>
   </g>
   <g id="text_40">
    <!-- ('P2', 'depthN') -->
    <g transform="translate(491.7079 175.8962) scale(0.1728 -0.1728)">
     <use xlink:href="#DejaVuSans-28"/>
     <use xlink:href="#DejaVuSans-27" x="39.013672"/>
     <use xlink:href="#DejaVuSans-50" x="66.503906"/>
     <use xlink:href="#DejaVuSans-32" x="126.806641"/>
     <use xlink:href="#DejaVuSans-27" x="190.429688"/>
     <use xlink:href="#DejaVuSans-2c" x="217.919922"/>
     <use xlink:href="#DejaVuSans-20" x="249.707031"/>
     <use xlink:href="#DejaVuSans-27" x="281.494141"/>
     <use xlink:href="#DejaVuSans-64" x="308.984375"/>
     <use xlink:href="#DejaVuSans-65" x="372.460938"/>
     <use xlink:href="#DejaVuSans-70" x="433.984375"/>
     <use xlink:href="#DejaVuSans-74" x="497.460938"/>
     <use xlink:href="#DejaVuSans-68" x="536.669922"/>
     <use xlink:href="#DejaVuSans-4e" x="600.048828"/>
     <use xlink:href="#DejaVuSans-27" x="674.853516"/>
     <use xlink:href="#DejaVuSans-29" x="702.34375"/>
    </g>
   </g>
  </g>
 </g>
 <defs>
  <clipPath id="p5c3f731159">
   <rect x="47.72" y="26.88" width="306.88" height="93.64"/>
  </clipPath>
  <clipPath id="pe26aec53ee">
   <rect x="402.32" y="26.88" width="306.88" height="93.64"/>
  </clipPath>
  <clipPath id="pbb1f503177">
   <rect x="47.72" y="152.4" width="306.88" height="93.64"/>
  </clipPath>
  <clipPath id="pb686201821">
   <rect x="402.32" y="152.4" width="306.88" height="93.64"/>
  </clipPath>
 </defs>
</svg>
