<?xml version="1.0" encoding="utf-8" standalone="no"?>
<!DOCTYPE svg PUBLIC "-//W3C//DTD SVG 1.1//EN"
  "http://www.w3.org/Graphics/SVG/1.1/DTD/svg11.dtd">
<svg xmlns:xlink="http://www.w3.org/1999/xlink" width="720pt" height="288pt" viewBox="0 0 720 288" xmlns="http://www.w3.org/2000/svg" version="1.1">
 <metadata>
  <rdf:RDF xmlns:dc="http://purl.org/dc/elements/1.1/" xmlns:cc="http://creativecommons.org/ns#" xmlns:rdf="http://www.w3.org/1999/02/22-rdf-syntax-ns#">
   <cc:Work>
    <dc:type rdf:resource="http://purl.org/dc/dcmitype/StillImage"/>
    <dc:date>2025-01-28T16:39:28.631284</dc:date>
    <dc:format>image/svg+xml</dc:format>
    <dc:creator>
     <cc:Agent>
      <dc:title>Matplotlib v3.9.4, https://matplotlib.org/</dc:title>
     </cc:Agent>
    </dc:creator>
   </cc:Work>
  </rdf:RDF>
 </metadata>
 <defs>
  <style type="text/css">*{stroke-linejoin: round; stroke-linecap: butt}</style>
 </defs>
 <g id="figure_1">
  <g id="patch_1">
   <path d="M 0 288 
L 720 288 
L 720 0 
L 0 0 
z
" style="fill: #ffffff"/>
  </g>
  <g id="axes_1">
   <g id="patch_2">
    <path d="M 47.72 120.52 
L 354.6 120.52 
L 354.6 26.88 
L 47.72 26.88 
z
" style="fill: #ffffff"/>
   </g>
   <g id="matplotlib.axis_1">
    <g id="xtick_1">
     <g id="line2d_1">
      <defs>
       <path id="m396205897e" d="M 0 0 
L 0 3.5 
" style="stroke: #000000; stroke-width: 0.8"/>
      </defs>
      <g>
       <use xlink:href="#m396205897e" x="61.669091" y="120.52" style="stroke: #000000; stroke-width: 0.8"/>
      </g>
     </g>
    </g>
    <g id="xtick_2">
     <g id="line2d_2">
      <g>
       <use xlink:href="#m396205897e" x="104.595638" y="120.52" style="stroke: #000000; stroke-width: 0.8"/>
      </g>
     </g>
    </g>
    <g id="xtick_3">
     <g id="line2d_3">
      <g>
       <use xlink:href="#m396205897e" x="147.522186" y="120.52" style="stroke: #000000; stroke-width: 0.8"/>
      </g>
     </g>
    </g>
    <g id="xtick_4">
     <g id="line2d_4">
      <g>
       <use xlink:href="#m396205897e" x="190.448733" y="120.52" style="stroke: #000000; stroke-width: 0.8"/>
      </g>
     </g>
    </g>
    <g id="xtick_5">
     <g id="line2d_5">
      <g>
       <use xlink:href="#m396205897e" x="233.375281" y="120.52" style="stroke: #000000; stroke-width: 0.8"/>
      </g>
     </g>
    </g>
    <g id="xtick_6">
     <g id="line2d_6">
      <g>
       <use xlink:href="#m396205897e" x="276.301828" y="120.52" style="stroke: #000000; stroke-width: 0.8"/>
      </g>
     </g>
    </g>
    <g id="xtick_7">
     <g id="line2d_7">
      <g>
       <use xlink:href="#m396205897e" x="319.228376" y="120.52" style="stroke: #000000; stroke-width: 0.8"/>
      </g>
     </g>
    </g>
    <g id="text_1">
     <!-- time -->
     <g transform="translate(189.863906 139.118437) scale(0.1 -0.1)">
      <defs>
       <path id="DejaVuSans-74" d="M 1172 4494 
L 1172 3500 
L 2356 3500 
L 2356 3053 
L 1172 3053 
L 1172 1153 
Q 1172 725 1289 603 
Q 1406 481 1766 481 
L 2356 481 
L 2356 0 
L 1766 0 
Q 1100 0 847 248 
Q 594 497 594 1153 
L 594 3053 
L 172 3053 
L 172 3500 
L 594 3500 
L 594 4494 
L 1172 4494 
z
" transform="scale(0.015625)"/>
       <path id="DejaVuSans-69" d="M 603 3500 
L 1178 3500 
L 1178 0 
L 603 0 
L 603 3500 
z
M 603 4863 
L 1178 4863 
L 1178 4134 
L 603 4134 
L 603 4863 
z
" transform="scale(0.015625)"/>
       <path id="DejaVuSans-6d" d="M 3328 2828 
Q 3544 3216 3844 3400 
Q 4144 3584 4550 3584 
Q 5097 3584 5394 3201 
Q 5691 2819 5691 2113 
L 5691 0 
L 5113 0 
L 5113 2094 
Q 5113 2597 4934 2840 
Q 4756 3084 4391 3084 
Q 3944 3084 3684 2787 
Q 3425 2491 3425 1978 
L 3425 0 
L 2847 0 
L 2847 2094 
Q 2847 2600 2669 2842 
Q 2491 3084 2119 3084 
Q 1678 3084 1418 2786 
Q 1159 2488 1159 1978 
L 1159 0 
L 581 0 
L 581 3500 
L 1159 3500 
L 1159 2956 
Q 1356 3278 1631 3431 
Q 1906 3584 2284 3584 
Q 2666 3584 2933 3390 
Q 3200 3197 3328 2828 
z
" transform="scale(0.015625)"/>
       <path id="DejaVuSans-65" d="M 3597 1894 
L 3597 1613 
L 953 1613 
Q 991 1019 1311 708 
Q 1631 397 2203 397 
Q 2534 397 2845 478 
Q 3156 559 3463 722 
L 3463 178 
Q 3153 47 2828 -22 
Q 2503 -91 2169 -91 
Q 1331 -91 842 396 
Q 353 884 353 1716 
Q 353 2575 817 3079 
Q 1281 3584 2069 3584 
Q 2775 3584 3186 3129 
Q 3597 2675 3597 1894 
z
M 3022 2063 
Q 3016 2534 2758 2815 
Q 2500 3097 2075 3097 
Q 1594 3097 1305 2825 
Q 1016 2553 972 2059 
L 3022 2063 
z
" transform="scale(0.015625)"/>
      </defs>
      <use xlink:href="#DejaVuSans-74"/>
      <use xlink:href="#DejaVuSans-69" x="39.208984"/>
      <use xlink:href="#DejaVuSans-6d" x="66.992188"/>
      <use xlink:href="#DejaVuSans-65" x="164.404297"/>
     </g>
    </g>
   </g>
   <g id="matplotlib.axis_2">
    <g id="ytick_1">
     <g id="line2d_8">
      <defs>
       <path id="m7967f41be7" d="M 0 0 
L -3.5 0 
" style="stroke: #000000; stroke-width: 0.8"/>
      </defs>
      <g>
       <use xlink:href="#m7967f41be7" x="47.72" y="116.263636" style="stroke: #000000; stroke-width: 0.8"/>
      </g>
     </g>
     <g id="text_2">
      <!-- 0.0 -->
      <g transform="translate(24.816875 120.062855) scale(0.1 -0.1)">
       <defs>
        <path id="DejaVuSans-30" d="M 2034 4250 
Q 1547 4250 1301 3770 
Q 1056 3291 1056 2328 
Q 1056 1369 1301 889 
Q 1547 409 2034 409 
Q 2525 409 2770 889 
Q 3016 1369 3016 2328 
Q 3016 3291 2770 3770 
Q 2525 4250 2034 4250 
z
M 2034 4750 
Q 2819 4750 3233 4129 
Q 3647 3509 3647 2328 
Q 3647 1150 3233 529 
Q 2819 -91 2034 -91 
Q 1250 -91 836 529 
Q 422 1150 422 2328 
Q 422 3509 836 4129 
Q 1250 4750 2034 4750 
z
" transform="scale(0.015625)"/>
        <path id="DejaVuSans-2e" d="M 684 794 
L 1344 794 
L 1344 0 
L 684 0 
L 684 794 
z
" transform="scale(0.015625)"/>
       </defs>
       <use xlink:href="#DejaVuSans-30"/>
       <use xlink:href="#DejaVuSans-2e" x="63.623047"/>
       <use xlink:href="#DejaVuSans-30" x="95.410156"/>
      </g>
     </g>
    </g>
    <g id="ytick_2">
     <g id="line2d_9">
      <g>
       <use xlink:href="#m7967f41be7" x="47.72" y="82.07286" style="stroke: #000000; stroke-width: 0.8"/>
      </g>
     </g>
     <g id="text_3">
      <!-- 0.1 -->
      <g transform="translate(24.816875 85.872079) scale(0.1 -0.1)">
       <defs>
        <path id="DejaVuSans-31" d="M 794 531 
L 1825 531 
L 1825 4091 
L 703 3866 
L 703 4441 
L 1819 4666 
L 2450 4666 
L 2450 531 
L 3481 531 
L 3481 0 
L 794 0 
L 794 531 
z
" transform="scale(0.015625)"/>
       </defs>
       <use xlink:href="#DejaVuSans-30"/>
       <use xlink:href="#DejaVuSans-2e" x="63.623047"/>
       <use xlink:href="#DejaVuSans-31" x="95.410156"/>
      </g>
     </g>
    </g>
    <g id="ytick_3">
     <g id="line2d_10">
      <g>
       <use xlink:href="#m7967f41be7" x="47.72" y="47.882084" style="stroke: #000000; stroke-width: 0.8"/>
      </g>
     </g>
     <g id="text_4">
      <!-- 0.2 -->
      <g transform="translate(24.816875 51.681302) scale(0.1 -0.1)">
       <defs>
        <path id="DejaVuSans-32" d="M 1228 531 
L 3431 531 
L 3431 0 
L 469 0 
L 469 531 
Q 828 903 1448 1529 
Q 2069 2156 2228 2338 
Q 2531 2678 2651 2914 
Q 2772 3150 2772 3378 
Q 2772 3750 2511 3984 
Q 2250 4219 1831 4219 
Q 1534 4219 1204 4116 
Q 875 4013 500 3803 
L 500 4441 
Q 881 4594 1212 4672 
Q 1544 4750 1819 4750 
Q 2544 4750 2975 4387 
Q 3406 4025 3406 3419 
Q 3406 3131 3298 2873 
Q 3191 2616 2906 2266 
Q 2828 2175 2409 1742 
Q 1991 1309 1228 531 
z
" transform="scale(0.015625)"/>
       </defs>
       <use xlink:href="#DejaVuSans-30"/>
       <use xlink:href="#DejaVuSans-2e" x="63.623047"/>
       <use xlink:href="#DejaVuSans-32" x="95.410156"/>
      </g>
     </g>
    </g>
    <g id="text_5">
     <!-- flow (cms) -->
     <g transform="translate(18.737188 99.7125) rotate(-90) scale(0.1 -0.1)">
      <defs>
       <path id="DejaVuSans-66" d="M 2375 4863 
L 2375 4384 
L 1825 4384 
Q 1516 4384 1395 4259 
Q 1275 4134 1275 3809 
L 1275 3500 
L 2222 3500 
L 2222 3053 
L 1275 3053 
L 1275 0 
L 697 0 
L 697 3053 
L 147 3053 
L 147 3500 
L 697 3500 
L 697 3744 
Q 697 4328 969 4595 
Q 1241 4863 1831 4863 
L 2375 4863 
z
" transform="scale(0.015625)"/>
       <path id="DejaVuSans-6c" d="M 603 4863 
L 1178 4863 
L 1178 0 
L 603 0 
L 603 4863 
z
" transform="scale(0.015625)"/>
       <path id="DejaVuSans-6f" d="M 1959 3097 
Q 1497 3097 1228 2736 
Q 959 2375 959 1747 
Q 959 1119 1226 758 
Q 1494 397 1959 397 
Q 2419 397 2687 759 
Q 2956 1122 2956 1747 
Q 2956 2369 2687 2733 
Q 2419 3097 1959 3097 
z
M 1959 3584 
Q 2709 3584 3137 3096 
Q 3566 2609 3566 1747 
Q 3566 888 3137 398 
Q 2709 -91 1959 -91 
Q 1206 -91 779 398 
Q 353 888 353 1747 
Q 353 2609 779 3096 
Q 1206 3584 1959 3584 
z
" transform="scale(0.015625)"/>
       <path id="DejaVuSans-77" d="M 269 3500 
L 844 3500 
L 1563 769 
L 2278 3500 
L 2956 3500 
L 3675 769 
L 4391 3500 
L 4966 3500 
L 4050 0 
L 3372 0 
L 2619 2869 
L 1863 0 
L 1184 0 
L 269 3500 
z
" transform="scale(0.015625)"/>
       <path id="DejaVuSans-20" transform="scale(0.015625)"/>
       <path id="DejaVuSans-28" d="M 1984 4856 
Q 1566 4138 1362 3434 
Q 1159 2731 1159 2009 
Q 1159 1288 1364 580 
Q 1569 -128 1984 -844 
L 1484 -844 
Q 1016 -109 783 600 
Q 550 1309 550 2009 
Q 550 2706 781 3412 
Q 1013 4119 1484 4856 
L 1984 4856 
z
" transform="scale(0.015625)"/>
       <path id="DejaVuSans-63" d="M 3122 3366 
L 3122 2828 
Q 2878 2963 2633 3030 
Q 2388 3097 2138 3097 
Q 1578 3097 1268 2742 
Q 959 2388 959 1747 
Q 959 1106 1268 751 
Q 1578 397 2138 397 
Q 2388 397 2633 464 
Q 2878 531 3122 666 
L 3122 134 
Q 2881 22 2623 -34 
Q 2366 -91 2075 -91 
Q 1284 -91 818 406 
Q 353 903 353 1747 
Q 353 2603 823 3093 
Q 1294 3584 2113 3584 
Q 2378 3584 2631 3529 
Q 2884 3475 3122 3366 
z
" transform="scale(0.015625)"/>
       <path id="DejaVuSans-73" d="M 2834 3397 
L 2834 2853 
Q 2591 2978 2328 3040 
Q 2066 3103 1784 3103 
Q 1356 3103 1142 2972 
Q 928 2841 928 2578 
Q 928 2378 1081 2264 
Q 1234 2150 1697 2047 
L 1894 2003 
Q 2506 1872 2764 1633 
Q 3022 1394 3022 966 
Q 3022 478 2636 193 
Q 2250 -91 1575 -91 
Q 1294 -91 989 -36 
Q 684 19 347 128 
L 347 722 
Q 666 556 975 473 
Q 1284 391 1588 391 
Q 1994 391 2212 530 
Q 2431 669 2431 922 
Q 2431 1156 2273 1281 
Q 2116 1406 1581 1522 
L 1381 1569 
Q 847 1681 609 1914 
Q 372 2147 372 2553 
Q 372 3047 722 3315 
Q 1072 3584 1716 3584 
Q 2034 3584 2315 3537 
Q 2597 3491 2834 3397 
z
" transform="scale(0.015625)"/>
       <path id="DejaVuSans-29" d="M 513 4856 
L 1013 4856 
Q 1481 4119 1714 3412 
Q 1947 2706 1947 2009 
Q 1947 1309 1714 600 
Q 1481 -109 1013 -844 
L 513 -844 
Q 928 -128 1133 580 
Q 1338 1288 1338 2009 
Q 1338 2731 1133 3434 
Q 928 4138 513 4856 
z
" transform="scale(0.015625)"/>
      </defs>
      <use xlink:href="#DejaVuSans-66"/>
      <use xlink:href="#DejaVuSans-6c" x="35.205078"/>
      <use xlink:href="#DejaVuSans-6f" x="62.988281"/>
      <use xlink:href="#DejaVuSans-77" x="124.169922"/>
      <use xlink:href="#DejaVuSans-20" x="205.957031"/>
      <use xlink:href="#DejaVuSans-28" x="237.744141"/>
      <use xlink:href="#DejaVuSans-63" x="276.757812"/>
      <use xlink:href="#DejaVuSans-6d" x="331.738281"/>
      <use xlink:href="#DejaVuSans-73" x="429.150391"/>
      <use xlink:href="#DejaVuSans-29" x="481.25"/>
     </g>
    </g>
   </g>
   <g id="line2d_11">
    <path d="M 61.669091 116.263636 
L 66.20122 116.181659 
L 66.737802 115.826417 
L 67.095523 115.257052 
L 67.274384 114.927582 
L 67.631111 113.892733 
L 67.717561 112.685793 
L 67.798048 113.035545 
L 67.95306 112.429744 
L 68.164712 110.026238 
L 68.230294 109.795046 
L 68.360465 111.995887 
L 68.429028 111.621442 
L 68.498585 111.263277 
L 68.566155 109.428383 
L 68.630743 109.678692 
L 69.340224 106.174592 
L 69.760546 102.360239 
L 69.954312 99.163613 
L 70.016913 98.534906 
L 70.078521 99.067989 
L 70.275267 96.20251 
L 70.348799 96.950521 
L 70.916185 91.04792 
L 71.115912 86.998581 
L 71.245089 85.577958 
L 71.309678 86.530563 
L 71.869114 79.422142 
L 71.929728 80.913362 
L 71.990342 80.291798 
L 73.286088 65.606012 
L 73.350676 66.555975 
L 73.477866 60.643308 
L 73.541461 60.05028 
L 73.666663 61.290253 
L 73.854467 57.571526 
L 73.916075 59.594476 
L 73.977682 66.378489 
L 74.040283 65.230466 
L 74.165486 64.05551 
L 74.227093 64.392248 
L 74.289695 65.987776 
L 74.351302 65.231534 
L 74.474517 63.980019 
L 74.536125 65.436044 
L 74.719954 61.679193 
L 74.780568 61.103914 
L 74.841181 51.922252 
L 74.901795 73.58245 
L 74.963403 72.758697 
L 75.087612 71.336701 
L 75.289327 61.447922 
L 75.358884 60.794537 
L 75.497997 67.20515 
L 75.567554 66.509933 
L 75.628168 65.906741 
L 75.834852 63.062494 
L 75.970984 61.804867 
L 76.107117 65.207262 
L 76.244244 63.958043 
L 76.311813 59.294477 
L 76.379383 60.556728 
L 76.582091 58.870936 
L 76.783807 53.150948 
L 76.850382 52.680463 
L 76.917952 55.967692 
L 76.984528 54.589766 
L 77.452546 51.628382 
L 77.520116 51.77181 
L 77.586692 53.536535 
L 77.653268 53.058892 
L 77.719844 52.600827 
L 77.78642 48.697061 
L 77.852996 53.310943 
L 77.919571 52.459183 
L 78.053717 51.564499 
L 78.319027 45.571179 
L 78.385603 48.861225 
L 78.451185 47.365142 
L 78.649919 46.149105 
L 78.781083 47.865518 
L 78.847659 47.469131 
L 78.913241 47.069792 
L 79.109988 43.349335 
L 79.241153 42.619439 
L 79.306735 42.88616 
L 79.372317 44.656646 
L 79.437899 44.306603 
L 79.569064 43.600063 
L 79.764817 40.918576 
L 79.830399 40.569755 
L 79.96057 44.171628 
L 80.157316 43.06314 
L 80.287487 39.23314 
L 80.417658 38.556869 
L 80.48324 42.032493 
L 80.547829 40.425238 
L 80.743582 39.372332 
L 80.80817 40.533403 
L 80.938341 37.106726 
L 81.001936 36.779017 
L 81.131113 41.384341 
L 81.390461 40.00835 
L 81.45505 40.144647 
L 81.648815 39.118819 
L 81.777992 36.541394 
L 81.907169 35.886178 
L 82.036347 38.882051 
L 82.100935 38.589466 
L 82.231106 37.90918 
L 82.295694 36.23326 
L 82.360283 37.288169 
L 82.553055 36.379486 
L 82.745827 34.027612 
L 82.810416 33.711647 
L 82.87401 36.789166 
L 82.938599 35.340636 
L 83.131371 34.35895 
L 83.259554 37.796847 
L 83.324143 37.473263 
L 83.388732 37.16204 
L 83.581504 35.318981 
L 83.709687 34.770558 
L 83.773282 35.3861 
L 83.966054 33.796496 
L 84.029649 33.554321 
L 84.094237 35.27814 
L 84.158826 35.128617 
L 84.287009 34.657329 
L 84.350604 34.992363 
L 84.415193 36.074168 
L 84.478788 35.820008 
L 84.606971 35.375128 
L 84.798749 33.459279 
L 84.926933 33.061986 
L 84.990528 34.358519 
L 85.055116 33.989888 
L 85.1833 33.603778 
L 85.310489 34.29697 
L 85.503261 33.768214 
L 85.631445 34.95014 
L 86.143185 33.470197 
L 86.33397 32.057598 
L 86.398558 31.896982 
L 86.462153 34.776195 
L 86.525748 34.395076 
L 86.717526 33.885087 
L 86.782115 33.983764 
L 86.84571 34.304108 
L 86.910298 34.147044 
L 86.973893 33.997893 
L 87.165672 32.560701 
L 87.292861 32.320685 
L 87.421045 33.997134 
L 87.48464 33.897262 
L 87.612823 33.636128 
L 87.804601 32.292166 
L 87.868196 32.208723 
L 87.995386 34.081279 
L 88.058981 33.947676 
L 88.187164 33.790364 
L 88.378943 32.349998 
L 88.506132 32.234289 
L 88.634316 33.630775 
L 88.761506 33.518705 
L 88.826094 33.022141 
L 88.889689 33.748496 
L 88.953284 33.723888 
L 89.081467 33.630155 
L 89.145062 32.658564 
L 89.208657 33.045761 
L 89.400436 32.94492 
L 89.46403 33.325927 
L 89.528619 33.17452 
L 89.655809 33.115886 
L 89.974777 31.919236 
L 90.038372 34.152943 
L 90.101967 33.175353 
L 90.293745 33.127791 
L 90.421928 33.331805 
L 90.549118 33.32551 
L 90.677302 34.50308 
L 90.740896 34.414456 
L 90.86908 34.441389 
L 90.933668 32.741547 
L 90.997263 33.636444 
L 91.189042 33.743315 
L 91.252637 33.092183 
L 91.38082 33.653587 
L 91.444415 33.708536 
L 91.572598 31.136364 
L 91.699788 31.382572 
L 91.763383 31.470307 
L 91.955161 34.107656 
L 92.082351 34.274762 
L 92.14694 31.812943 
L 92.210535 32.143103 
L 92.337724 32.36204 
L 92.402313 34.508721 
L 92.465908 33.621011 
L 92.657686 33.966188 
L 92.721281 33.612393 
L 92.785869 33.729807 
L 92.976654 34.112746 
L 93.040249 32.805699 
L 93.104838 33.293251 
L 93.232027 33.577219 
L 93.296616 31.917364 
L 93.424799 33.931825 
L 93.552983 34.235247 
L 93.616578 33.735044 
L 93.680173 34.085201 
L 93.80935 34.410776 
L 93.937533 33.845996 
L 94.129311 34.464662 
L 94.1939 34.418494 
L 94.257495 33.758842 
L 94.322083 33.955617 
L 94.450267 34.342055 
L 94.513862 34.023053 
L 94.706634 34.756968 
L 94.834817 33.757091 
L 94.898412 33.89439 
L 95.026596 34.341171 
L 95.154779 32.576868 
L 95.219368 32.820774 
L 95.346557 33.321505 
L 95.411146 35.100688 
L 95.474741 34.33958 
L 95.667513 35.493264 
L 95.732101 32.982103 
L 95.795696 33.285763 
L 95.92388 33.844629 
L 95.988468 35.268033 
L 96.053057 34.762262 
L 96.245829 35.603699 
L 96.309424 33.443674 
L 96.374012 34.181913 
L 96.502196 34.792723 
L 96.566784 36.280739 
L 96.631373 32.432775 
L 96.695961 33.017112 
L 96.824145 33.700217 
L 96.88774 35.884449 
L 96.952328 34.472901 
L 97.1451 35.471907 
L 97.209689 37.179865 
L 97.274277 36.179649 
L 97.467049 36.921371 
L 97.531638 36.446596 
L 97.726397 37.566572 
L 97.790986 37.123706 
L 97.855574 33.869207 
L 97.920163 34.28725 
L 97.984751 34.715149 
L 98.113928 36.29744 
L 98.178517 36.435692 
L 98.373276 38.005549 
L 98.437865 35.999976 
L 98.502453 36.421344 
L 98.631631 37.332381 
L 98.696219 38.67819 
L 98.761801 36.878234 
L 98.82639 37.36201 
L 98.890978 37.840039 
L 98.955567 37.471183 
L 99.15132 39.884156 
L 99.215909 40.360544 
L 99.281491 37.22595 
L 99.478237 41.015898 
L 99.54382 41.233901 
L 99.609402 38.747088 
L 99.674984 39.317427 
L 99.806149 40.442458 
L 99.871731 39.641118 
L 100.069471 42.92609 
L 100.136047 44.054301 
L 100.201629 40.368546 
L 100.267212 41.209425 
L 100.400363 42.466518 
L 100.532521 41.257987 
L 100.66468 42.635477 
L 100.797831 39.626409 
L 100.863414 40.526288 
L 100.995572 42.094226 
L 101.062148 44.332884 
L 101.128723 39.696458 
L 101.195299 40.542359 
L 101.662324 46.379384 
L 101.7289 43.848882 
L 101.79647 44.824078 
L 102.5139 55.583161 
L 102.574513 53.21739 
L 102.636121 54.953277 
L 102.821937 56.89386 
L 102.883545 47.030178 
L 102.945152 48.409353 
L 103.067374 51.285169 
L 103.25319 58.704358 
L 103.379386 61.063549 
L 103.442981 53.788728 
L 103.699348 70.255521 
L 104.240898 83.072415 
L 104.664202 88.260454 
L 104.928518 89.900773 
L 104.989132 88.651192 
L 105.06167 89.21765 
L 105.376663 90.473329 
L 105.499878 91.036791 
L 105.560492 83.579458 
L 105.682713 92.324558 
L 105.745315 92.475977 
L 105.806922 91.025659 
L 105.992739 93.187363 
L 106.117941 93.642649 
L 106.369339 94.020846 
L 106.432934 92.498617 
L 106.55913 94.780897 
L 106.68632 94.870025 
L 106.749915 93.932858 
L 106.81351 94.054898 
L 106.939706 94.356637 
L 107.003301 94.027564 
L 107.131484 95.369602 
L 107.259668 95.506755 
L 107.324256 95.268556 
L 107.387851 89.975679 
L 107.450453 91.019163 
L 107.576649 92.245858 
L 107.769421 96.857705 
L 107.899591 96.864919 
L 107.96418 97.276211 
L 108.029762 97.226543 
L 108.160927 97.254343 
L 108.226509 96.274215 
L 108.292091 98.497269 
L 108.357673 98.438058 
L 108.424249 98.376789 
L 108.490825 97.21472 
L 108.556407 97.71505 
L 108.688565 97.73138 
L 108.755141 97.778802 
L 108.820724 95.533576 
L 108.885312 89.505761 
L 108.948907 90.774724 
L 109.076097 92.712631 
L 109.140685 98.262288 
L 109.207261 98.05668 
L 109.340413 98.234371 
L 109.407983 101.082753 
L 109.474558 91.304657 
L 109.540141 92.63824 
L 109.669318 94.382782 
L 109.7349 102.832264 
L 109.803463 102.588085 
L 109.942577 102.071811 
L 110.012134 100.011215 
L 110.080697 100.777783 
L 110.217824 100.668995 
L 110.286387 99.695006 
L 110.35495 102.094606 
L 110.424507 101.786772 
L 110.563621 101.545208 
L 110.633178 99.965498 
L 110.701741 101.324087 
L 110.771298 101.289705 
L 110.840855 101.244552 
L 110.909418 100.919242 
L 110.978975 101.575541 
L 111.048532 101.534892 
L 111.119082 101.497395 
L 111.188639 101.233092 
L 111.258196 100.29943 
L 111.32676 100.35597 
L 111.465873 100.715364 
L 111.604987 101.248349 
L 111.745095 101.348839 
L 111.814652 100.544108 
L 111.955753 101.752462 
L 112.026303 101.790203 
L 112.166411 100.376569 
L 112.306518 100.772599 
L 112.447619 102.647457 
L 112.51817 102.426667 
L 112.589714 102.453655 
L 112.874898 102.980107 
L 112.947435 102.993536 
L 113.01898 103.197466 
L 113.091518 103.137602 
L 113.2356 103.180389 
L 113.379682 102.077452 
L 113.451226 102.224277 
L 113.523764 102.373876 
L 113.595308 98.647075 
L 113.738397 102.846775 
L 113.810935 102.963595 
L 113.883473 104.031907 
L 113.957004 103.792081 
L 114.398194 104.195191 
L 114.472719 103.593623 
L 114.620776 104.492038 
L 114.695301 104.525483 
L 114.769826 101.204396 
L 114.917883 104.624013 
L 114.992408 104.672071 
L 115.066934 104.515131 
L 115.141459 103.973444 
L 115.215984 104.157392 
L 115.290509 104.281945 
L 115.486262 104.993221 
L 115.6373 105.118108 
L 115.773433 104.805187 
L 115.924471 105.005991 
L 115.99999 105.973263 
L 116.060604 105.888901 
L 116.307034 105.929447 
L 116.367648 105.82968 
L 116.429255 105.868821 
L 116.490863 105.91372 
L 116.553464 105.253651 
L 116.614078 106.020268 
L 116.675686 105.78845 
L 116.798901 105.947274 
L 116.860508 106.522155 
L 116.922116 105.328741 
L 116.984717 105.580481 
L 117.107932 105.793779 
L 117.16954 103.829645 
L 117.232141 106.806462 
L 117.293748 106.79957 
L 117.419944 106.853029 
L 117.483539 107.460584 
L 117.546141 106.795644 
L 117.609735 106.847193 
L 117.672337 106.893006 
L 117.991305 107.771708 
L 118.0549 107.111509 
L 118.118495 104.625938 
L 118.181096 105.0593 
L 118.305304 105.570094 
L 118.495095 107.675824 
L 118.559684 107.710249 
L 118.624273 106.976467 
L 118.688861 108.663633 
L 118.75345 108.329997 
L 118.884614 108.334456 
L 118.950196 107.967229 
L 119.015779 108.694517 
L 119.081361 108.652437 
L 119.213519 108.639287 
L 119.280095 103.974808 
L 119.34369 104.331077 
L 119.468892 105.237554 
L 119.661664 108.413875 
L 119.860398 108.440542 
L 119.92598 106.167446 
L 119.990569 106.504265 
L 120.055158 106.790665 
L 120.119746 107.961619 
L 120.185328 107.80604 
L 120.251904 107.375103 
L 120.317486 107.554393 
L 120.383069 107.748453 
L 120.448651 109.731716 
L 120.51622 107.767546 
L 120.582796 108.106627 
L 120.715948 108.5758 
L 120.783518 109.073661 
L 120.852081 108.563309 
L 120.918657 108.652995 
L 121.258492 109.178435 
L 121.396612 111.307196 
L 121.539701 111.163386 
L 121.750359 108.968822 
L 121.819916 109.085983 
L 121.888479 109.220297 
L 121.958036 109.896637 
L 122.027593 109.398882 
L 122.09715 109.488481 
L 122.166706 109.598041 
L 122.306814 112.238235 
L 122.453877 111.902754 
L 122.527409 111.623448 
L 122.599947 109.150671 
L 122.670497 109.409805 
L 122.740054 109.568628 
L 122.810605 110.28033 
L 122.881155 109.542142 
L 122.952699 109.874007 
L 123.093801 110.102562 
L 123.165345 110.595689 
L 123.237883 110.248377 
L 123.309427 110.323923 
L 123.380971 110.419944 
L 123.527041 112.694194 
L 123.603553 112.578004 
L 123.679072 112.500797 
L 123.754591 111.358895 
L 123.829116 111.820121 
L 123.979161 111.80589 
L 124.053686 111.629823 
L 124.129205 112.212405 
L 124.204724 112.19512 
L 124.281236 112.164187 
L 124.356755 110.875759 
L 124.431281 111.252758 
L 124.580331 111.369623 
L 124.732363 112.411408 
L 124.886381 112.298496 
L 125.0404 112.119871 
L 125.116913 112.124821 
L 125.426938 112.482764 
L 125.580957 110.061533 
L 125.655482 110.425258 
L 125.730007 110.643745 
L 125.880052 112.45783 
L 125.957558 112.401993 
L 126.036058 112.422071 
L 126.114558 111.237897 
L 126.192064 113.227632 
L 126.271558 113.057474 
L 126.332171 113.043714 
L 126.453399 112.842608 
L 126.654121 112.921893 
L 126.714734 111.930369 
L 126.794228 113.085536 
L 126.855836 113.053646 
L 126.977063 112.961489 
L 127.038671 110.928025 
L 127.116177 111.347181 
L 127.193683 111.534893 
L 127.350683 113.382905 
L 127.5365 113.354802 
L 127.599101 113.186678 
L 127.660708 111.642873 
L 127.721322 111.936669 
L 127.800816 112.07466 
L 127.940923 113.286035 
L 128.002531 113.018736 
L 128.12674 113.097155 
L 128.189341 112.540387 
L 128.250948 113.21292 
L 128.312556 113.175377 
L 128.501353 113.377447 
L 128.564948 113.822594 
L 128.628543 113.804588 
L 128.75772 113.812261 
L 128.952479 113.640529 
L 129.017068 113.658158 
L 129.081657 113.429508 
L 129.146245 112.772971 
L 129.20984 112.921368 
L 129.336036 113.080274 
L 129.463226 114.482035 
L 129.597371 114.379541 
L 129.664941 114.342208 
L 129.73251 113.012562 
L 129.797099 113.232724 
L 129.926276 113.365245 
L 130.057441 114.541299 
L 130.12501 114.52053 
L 130.26313 114.508876 
L 130.399263 113.481955 
L 130.532415 113.615592 
L 130.735124 114.401465 
L 130.803687 114.411171 
L 130.942801 114.2361 
L 131.080921 114.289764 
L 131.288598 113.954999 
L 131.356167 114.014479 
L 131.425724 114.068176 
L 131.564838 114.955711 
L 131.636382 114.913975 
L 131.709914 114.914068 
L 131.853996 114.157775 
L 132.064654 114.417928 
L 132.136198 114.969824 
L 132.208736 114.93538 
L 132.355799 114.970483 
L 132.430325 114.322503 
L 132.502863 114.43076 
L 132.575401 114.46933 
L 132.870521 115.144258 
L 133.022552 114.921202 
L 133.17359 115.099063 
L 133.250103 115.099447 
L 133.327609 114.610776 
L 133.402134 114.70063 
L 133.477653 114.73832 
L 133.552178 114.903953 
L 133.627697 114.810792 
L 133.856241 114.920784 
L 134.011254 115.258916 
L 134.410709 115.392924 
L 134.491196 115.202085 
L 134.652171 115.358249 
L 134.732658 115.403641 
L 134.814139 115.269078 
L 135.058582 115.42007 
L 135.141057 115.169356 
L 135.221544 115.22811 
L 135.303025 115.257655 
L 135.467974 115.640595 
L 135.638885 115.644171 
L 135.724341 115.303648 
L 135.807809 115.356638 
L 135.891278 115.382591 
L 135.974746 115.547747 
L 136.14367 115.45926 
L 136.229125 115.492288 
L 136.40103 115.721255 
L 136.489467 115.729546 
L 136.665347 115.556386 
L 136.840233 115.648961 
L 137.018099 115.822826 
L 137.10753 115.829708 
L 137.28639 115.669138 
L 138.896136 115.998366 
L 139.074997 115.885048 
L 140.774172 116.016481 
L 141.042463 116.002864 
L 141.310754 116.044536 
L 141.579045 116.011109 
L 141.936766 116.023953 
L 146.497712 116.075301 
L 153.562706 116.155952 
L 153.830997 116.12268 
L 154.099288 116.17464 
L 154.7253 116.127418 
L 155.083022 116.154454 
L 198.993302 116.227072 
L 213.212721 116.238971 
L 215.985061 116.236926 
L 224.928091 116.247572 
L 245.139341 116.248663 
L 262.488821 116.25491 
L 339.935467 116.258929 
L 340.650909 116.25991 
L 340.650909 116.25991 
" clip-path="url(#p7cb12517c1)" style="fill: none; stroke: #1f77b4; stroke-width: 1.5; stroke-linecap: square"/>
   </g>
   <g id="patch_3">
    <path d="M 47.72 120.52 
L 47.72 26.88 
" style="fill: none; stroke: #000000; stroke-width: 0.8; stroke-linejoin: miter; stroke-linecap: square"/>
   </g>
   <g id="patch_4">
    <path d="M 354.6 120.52 
L 354.6 26.88 
" style="fill: none; stroke: #000000; stroke-width: 0.8; stroke-linejoin: miter; stroke-linecap: square"/>
   </g>
   <g id="patch_5">
    <path d="M 47.72 120.52 
L 354.6 120.52 
" style="fill: none; stroke: #000000; stroke-width: 0.8; stroke-linejoin: miter; stroke-linecap: square"/>
   </g>
   <g id="patch_6">
    <path d="M 47.72 26.88 
L 354.6 26.88 
" style="fill: none; stroke: #000000; stroke-width: 0.8; stroke-linejoin: miter; stroke-linecap: square"/>
   </g>
   <g id="text_6">
    <!-- 1 -->
    <g transform="translate(195.6628 50.3762) scale(0.1728 -0.1728)">
     <use xlink:href="#DejaVuSans-31"/>
    </g>
   </g>
   <g id="text_7">
    <!-- flows -->
    <g transform="translate(185.677188 20.88) scale(0.12 -0.12)">
     <use xlink:href="#DejaVuSans-66"/>
     <use xlink:href="#DejaVuSans-6c" x="35.205078"/>
     <use xlink:href="#DejaVuSans-6f" x="62.988281"/>
     <use xlink:href="#DejaVuSans-77" x="124.169922"/>
     <use xlink:href="#DejaVuSans-73" x="205.957031"/>
    </g>
   </g>
  </g>
  <g id="axes_2">
   <g id="patch_7">
    <path d="M 402.32 120.52 
L 709.2 120.52 
L 709.2 26.88 
L 402.32 26.88 
z
" style="fill: #ffffff"/>
   </g>
   <g id="matplotlib.axis_3">
    <g id="xtick_8">
     <g id="line2d_12">
      <g>
       <use xlink:href="#m396205897e" x="416.269091" y="120.52" style="stroke: #000000; stroke-width: 0.8"/>
      </g>
     </g>
    </g>
    <g id="xtick_9">
     <g id="line2d_13">
      <g>
       <use xlink:href="#m396205897e" x="459.195638" y="120.52" style="stroke: #000000; stroke-width: 0.8"/>
      </g>
     </g>
    </g>
    <g id="xtick_10">
     <g id="line2d_14">
      <g>
       <use xlink:href="#m396205897e" x="502.122186" y="120.52" style="stroke: #000000; stroke-width: 0.8"/>
      </g>
     </g>
    </g>
    <g id="xtick_11">
     <g id="line2d_15">
      <g>
       <use xlink:href="#m396205897e" x="545.048733" y="120.52" style="stroke: #000000; stroke-width: 0.8"/>
      </g>
     </g>
    </g>
    <g id="xtick_12">
     <g id="line2d_16">
      <g>
       <use xlink:href="#m396205897e" x="587.975281" y="120.52" style="stroke: #000000; stroke-width: 0.8"/>
      </g>
     </g>
    </g>
    <g id="xtick_13">
     <g id="line2d_17">
      <g>
       <use xlink:href="#m396205897e" x="630.901828" y="120.52" style="stroke: #000000; stroke-width: 0.8"/>
      </g>
     </g>
    </g>
    <g id="xtick_14">
     <g id="line2d_18">
      <g>
       <use xlink:href="#m396205897e" x="673.828376" y="120.52" style="stroke: #000000; stroke-width: 0.8"/>
      </g>
     </g>
    </g>
    <g id="text_8">
     <!-- time -->
     <g transform="translate(544.463906 139.118437) scale(0.1 -0.1)">
      <use xlink:href="#DejaVuSans-74"/>
      <use xlink:href="#DejaVuSans-69" x="39.208984"/>
      <use xlink:href="#DejaVuSans-6d" x="66.992188"/>
      <use xlink:href="#DejaVuSans-65" x="164.404297"/>
     </g>
    </g>
   </g>
   <g id="matplotlib.axis_4">
    <g id="ytick_4">
     <g id="line2d_19">
      <g>
       <use xlink:href="#m7967f41be7" x="402.32" y="116.263636" style="stroke: #000000; stroke-width: 0.8"/>
      </g>
     </g>
     <g id="text_9">
      <!-- 0.0 -->
      <g transform="translate(379.416875 120.062855) scale(0.1 -0.1)">
       <use xlink:href="#DejaVuSans-30"/>
       <use xlink:href="#DejaVuSans-2e" x="63.623047"/>
       <use xlink:href="#DejaVuSans-30" x="95.410156"/>
      </g>
     </g>
    </g>
    <g id="ytick_5">
     <g id="line2d_20">
      <g>
       <use xlink:href="#m7967f41be7" x="402.32" y="84.400674" style="stroke: #000000; stroke-width: 0.8"/>
      </g>
     </g>
     <g id="text_10">
      <!-- 0.5 -->
      <g transform="translate(379.416875 88.199893) scale(0.1 -0.1)">
       <defs>
        <path id="DejaVuSans-35" d="M 691 4666 
L 3169 4666 
L 3169 4134 
L 1269 4134 
L 1269 2991 
Q 1406 3038 1543 3061 
Q 1681 3084 1819 3084 
Q 2600 3084 3056 2656 
Q 3513 2228 3513 1497 
Q 3513 744 3044 326 
Q 2575 -91 1722 -91 
Q 1428 -91 1123 -41 
Q 819 9 494 109 
L 494 744 
Q 775 591 1075 516 
Q 1375 441 1709 441 
Q 2250 441 2565 725 
Q 2881 1009 2881 1497 
Q 2881 1984 2565 2268 
Q 2250 2553 1709 2553 
Q 1456 2553 1204 2497 
Q 953 2441 691 2322 
L 691 4666 
z
" transform="scale(0.015625)"/>
       </defs>
       <use xlink:href="#DejaVuSans-30"/>
       <use xlink:href="#DejaVuSans-2e" x="63.623047"/>
       <use xlink:href="#DejaVuSans-35" x="95.410156"/>
      </g>
     </g>
    </g>
    <g id="ytick_6">
     <g id="line2d_21">
      <g>
       <use xlink:href="#m7967f41be7" x="402.32" y="52.537712" style="stroke: #000000; stroke-width: 0.8"/>
      </g>
     </g>
     <g id="text_11">
      <!-- 1.0 -->
      <g transform="translate(379.416875 56.336931) scale(0.1 -0.1)">
       <use xlink:href="#DejaVuSans-31"/>
       <use xlink:href="#DejaVuSans-2e" x="63.623047"/>
       <use xlink:href="#DejaVuSans-30" x="95.410156"/>
      </g>
     </g>
    </g>
    <g id="text_12">
     <!-- depth (m) -->
     <g transform="translate(373.337187 98.614844) rotate(-90) scale(0.1 -0.1)">
      <defs>
       <path id="DejaVuSans-64" d="M 2906 2969 
L 2906 4863 
L 3481 4863 
L 3481 0 
L 2906 0 
L 2906 525 
Q 2725 213 2448 61 
Q 2172 -91 1784 -91 
Q 1150 -91 751 415 
Q 353 922 353 1747 
Q 353 2572 751 3078 
Q 1150 3584 1784 3584 
Q 2172 3584 2448 3432 
Q 2725 3281 2906 2969 
z
M 947 1747 
Q 947 1113 1208 752 
Q 1469 391 1925 391 
Q 2381 391 2643 752 
Q 2906 1113 2906 1747 
Q 2906 2381 2643 2742 
Q 2381 3103 1925 3103 
Q 1469 3103 1208 2742 
Q 947 2381 947 1747 
z
" transform="scale(0.015625)"/>
       <path id="DejaVuSans-70" d="M 1159 525 
L 1159 -1331 
L 581 -1331 
L 581 3500 
L 1159 3500 
L 1159 2969 
Q 1341 3281 1617 3432 
Q 1894 3584 2278 3584 
Q 2916 3584 3314 3078 
Q 3713 2572 3713 1747 
Q 3713 922 3314 415 
Q 2916 -91 2278 -91 
Q 1894 -91 1617 61 
Q 1341 213 1159 525 
z
M 3116 1747 
Q 3116 2381 2855 2742 
Q 2594 3103 2138 3103 
Q 1681 3103 1420 2742 
Q 1159 2381 1159 1747 
Q 1159 1113 1420 752 
Q 1681 391 2138 391 
Q 2594 391 2855 752 
Q 3116 1113 3116 1747 
z
" transform="scale(0.015625)"/>
       <path id="DejaVuSans-68" d="M 3513 2113 
L 3513 0 
L 2938 0 
L 2938 2094 
Q 2938 2591 2744 2837 
Q 2550 3084 2163 3084 
Q 1697 3084 1428 2787 
Q 1159 2491 1159 1978 
L 1159 0 
L 581 0 
L 581 4863 
L 1159 4863 
L 1159 2956 
Q 1366 3272 1645 3428 
Q 1925 3584 2291 3584 
Q 2894 3584 3203 3211 
Q 3513 2838 3513 2113 
z
" transform="scale(0.015625)"/>
      </defs>
      <use xlink:href="#DejaVuSans-64"/>
      <use xlink:href="#DejaVuSans-65" x="63.476562"/>
      <use xlink:href="#DejaVuSans-70" x="125"/>
      <use xlink:href="#DejaVuSans-74" x="188.476562"/>
      <use xlink:href="#DejaVuSans-68" x="227.685547"/>
      <use xlink:href="#DejaVuSans-20" x="291.064453"/>
      <use xlink:href="#DejaVuSans-28" x="322.851562"/>
      <use xlink:href="#DejaVuSans-6d" x="361.865234"/>
      <use xlink:href="#DejaVuSans-29" x="459.277344"/>
     </g>
    </g>
   </g>
   <g id="line2d_22">
    <path d="M 416.269091 116.263636 
L 420.89065 116.160576 
L 421.606093 115.85193 
L 423.029028 114.885156 
L 424.292977 113.583334 
L 426.100463 111.294519 
L 426.945082 110.447116 
L 427.886088 109.402901 
L 428.391866 108.86974 
L 428.577682 108.594182 
L 429.441181 105.795225 
L 430.503415 100.218563 
L 433.841153 82.50221 
L 435.40817 73.765485 
L 436.313404 68.125245 
L 437.666782 59.059898 
L 439.015193 50.402053 
L 440.038673 44.998489 
L 441.892861 36.34066 
L 442.658981 34.082057 
L 443.297911 32.794353 
L 443.936841 31.881369 
L 444.511182 31.405388 
L 445.213707 31.145276 
L 445.597263 31.356899 
L 445.98082 31.891753 
L 446.363383 32.784796 
L 447.129503 35.098329 
L 447.896616 38.117252 
L 449.17845 44.439762 
L 450.332101 51.468594 
L 452.520163 67.072998 
L 457.052292 102.240129 
L 458.498082 110.45435 
L 458.910455 111.252919 
L 459.40729 111.720801 
L 460.717941 112.354467 
L 462.050453 112.679623 
L 462.303838 112.805307 
L 463.420724 112.878812 
L 463.740685 113.234116 
L 464.140141 113.406739 
L 464.3349 113.5135 
L 464.817824 113.359625 
L 466.836961 113.419057 
L 467.403353 113.497596 
L 468.123764 113.58953 
L 468.483473 113.687617 
L 470.161781 113.88502 
L 472.843697 114.299796 
L 473.288861 114.38506 
L 473.94369 114.461424 
L 474.261664 114.59304 
L 474.785328 114.748277 
L 475.518657 114.921204 
L 476.139701 114.935497 
L 476.558036 114.992818 
L 477.053877 114.989111 
L 477.340054 115.033669 
L 478.203553 115.100452 
L 478.881236 115.064692 
L 479.794419 115.085449 
L 480.330007 115.174007 
L 480.871558 115.213241 
L 481.716177 115.268141 
L 482.260708 115.329281 
L 483.038752 115.439747 
L 491.528669 116.00579 
L 500.918851 116.14884 
L 517.016307 116.190822 
L 585.519922 116.237844 
L 695.250909 116.253247 
L 695.250909 116.253247 
" clip-path="url(#p05219b7b69)" style="fill: none; stroke: #1f77b4; stroke-width: 1.5; stroke-linecap: square"/>
   </g>
   <g id="patch_8">
    <path d="M 402.32 120.52 
L 402.32 26.88 
" style="fill: none; stroke: #000000; stroke-width: 0.8; stroke-linejoin: miter; stroke-linecap: square"/>
   </g>
   <g id="patch_9">
    <path d="M 709.2 120.52 
L 709.2 26.88 
" style="fill: none; stroke: #000000; stroke-width: 0.8; stroke-linejoin: miter; stroke-linecap: square"/>
   </g>
   <g id="patch_10">
    <path d="M 402.32 120.52 
L 709.2 120.52 
" style="fill: none; stroke: #000000; stroke-width: 0.8; stroke-linejoin: miter; stroke-linecap: square"/>
   </g>
   <g id="patch_11">
    <path d="M 402.32 26.88 
L 709.2 26.88 
" style="fill: none; stroke: #000000; stroke-width: 0.8; stroke-linejoin: miter; stroke-linecap: square"/>
   </g>
   <g id="text_13">
    <!-- ('P1', 'depthN') -->
    <g transform="translate(491.7079 50.3762) scale(0.1728 -0.1728)">
     <defs>
      <path id="DejaVuSans-27" d="M 1147 4666 
L 1147 2931 
L 616 2931 
L 616 4666 
L 1147 4666 
z
" transform="scale(0.015625)"/>
      <path id="DejaVuSans-50" d="M 1259 4147 
L 1259 2394 
L 2053 2394 
Q 2494 2394 2734 2622 
Q 2975 2850 2975 3272 
Q 2975 3691 2734 3919 
Q 2494 4147 2053 4147 
L 1259 4147 
z
M 628 4666 
L 2053 4666 
Q 2838 4666 3239 4311 
Q 3641 3956 3641 3272 
Q 3641 2581 3239 2228 
Q 2838 1875 2053 1875 
L 1259 1875 
L 1259 0 
L 628 0 
L 628 4666 
z
" transform="scale(0.015625)"/>
      <path id="DejaVuSans-2c" d="M 750 794 
L 1409 794 
L 1409 256 
L 897 -744 
L 494 -744 
L 750 256 
L 750 794 
z
" transform="scale(0.015625)"/>
      <path id="DejaVuSans-4e" d="M 628 4666 
L 1478 4666 
L 3547 763 
L 3547 4666 
L 4159 4666 
L 4159 0 
L 3309 0 
L 1241 3903 
L 1241 0 
L 628 0 
L 628 4666 
z
" transform="scale(0.015625)"/>
     </defs>
     <use xlink:href="#DejaVuSans-28"/>
     <use xlink:href="#DejaVuSans-27" x="39.013672"/>
     <use xlink:href="#DejaVuSans-50" x="66.503906"/>
     <use xlink:href="#DejaVuSans-31" x="126.806641"/>
     <use xlink:href="#DejaVuSans-27" x="190.429688"/>
     <use xlink:href="#DejaVuSans-2c" x="217.919922"/>
     <use xlink:href="#DejaVuSans-20" x="249.707031"/>
     <use xlink:href="#DejaVuSans-27" x="281.494141"/>
     <use xlink:href="#DejaVuSans-64" x="308.984375"/>
     <use xlink:href="#DejaVuSans-65" x="372.460938"/>
     <use xlink:href="#DejaVuSans-70" x="433.984375"/>
     <use xlink:href="#DejaVuSans-74" x="497.460938"/>
     <use xlink:href="#DejaVuSans-68" x="536.669922"/>
     <use xlink:href="#DejaVuSans-4e" x="600.048828"/>
     <use xlink:href="#DejaVuSans-27" x="674.853516"/>
     <use xlink:href="#DejaVuSans-29" x="702.34375"/>
    </g>
   </g>
   <g id="text_14">
    <!-- depths -->
    <g transform="translate(535.169688 20.88) scale(0.12 -0.12)">
     <use xlink:href="#DejaVuSans-64"/>
     <use xlink:href="#DejaVuSans-65" x="63.476562"/>
     <use xlink:href="#DejaVuSans-70" x="125"/>
     <use xlink:href="#DejaVuSans-74" x="188.476562"/>
     <use xlink:href="#DejaVuSans-68" x="227.685547"/>
     <use xlink:href="#DejaVuSans-73" x="291.064453"/>
    </g>
   </g>
  </g>
  <g id="axes_3">
   <g id="patch_12">
    <path d="M 47.72 246.04 
L 354.6 246.04 
L 354.6 152.4 
L 47.72 152.4 
z
" style="fill: #ffffff"/>
   </g>
   <g id="matplotlib.axis_5">
    <g id="xtick_15">
     <g id="line2d_23">
      <g>
       <use xlink:href="#m396205897e" x="61.669091" y="246.04" style="stroke: #000000; stroke-width: 0.8"/>
      </g>
     </g>
     <g id="text_15">
      <!-- 02-25 00 -->
      <g transform="translate(39.188622 260.638437) scale(0.1 -0.1)">
       <defs>
        <path id="DejaVuSans-2d" d="M 313 2009 
L 1997 2009 
L 1997 1497 
L 313 1497 
L 313 2009 
z
" transform="scale(0.015625)"/>
       </defs>
       <use xlink:href="#DejaVuSans-30"/>
       <use xlink:href="#DejaVuSans-32" x="63.623047"/>
       <use xlink:href="#DejaVuSans-2d" x="127.246094"/>
       <use xlink:href="#DejaVuSans-32" x="163.330078"/>
       <use xlink:href="#DejaVuSans-35" x="226.953125"/>
       <use xlink:href="#DejaVuSans-20" x="290.576172"/>
       <use xlink:href="#DejaVuSans-30" x="322.363281"/>
       <use xlink:href="#DejaVuSans-30" x="385.986328"/>
      </g>
     </g>
    </g>
    <g id="xtick_16">
     <g id="line2d_24">
      <g>
       <use xlink:href="#m396205897e" x="104.595638" y="246.04" style="stroke: #000000; stroke-width: 0.8"/>
      </g>
     </g>
     <g id="text_16">
      <!-- 02-25 12 -->
      <g transform="translate(82.11517 260.638437) scale(0.1 -0.1)">
       <use xlink:href="#DejaVuSans-30"/>
       <use xlink:href="#DejaVuSans-32" x="63.623047"/>
       <use xlink:href="#DejaVuSans-2d" x="127.246094"/>
       <use xlink:href="#DejaVuSans-32" x="163.330078"/>
       <use xlink:href="#DejaVuSans-35" x="226.953125"/>
       <use xlink:href="#DejaVuSans-20" x="290.576172"/>
       <use xlink:href="#DejaVuSans-31" x="322.363281"/>
       <use xlink:href="#DejaVuSans-32" x="385.986328"/>
      </g>
     </g>
    </g>
    <g id="xtick_17">
     <g id="line2d_25">
      <g>
       <use xlink:href="#m396205897e" x="147.522186" y="246.04" style="stroke: #000000; stroke-width: 0.8"/>
      </g>
     </g>
     <g id="text_17">
      <!-- 02-26 00 -->
      <g transform="translate(125.041717 260.638437) scale(0.1 -0.1)">
       <defs>
        <path id="DejaVuSans-36" d="M 2113 2584 
Q 1688 2584 1439 2293 
Q 1191 2003 1191 1497 
Q 1191 994 1439 701 
Q 1688 409 2113 409 
Q 2538 409 2786 701 
Q 3034 994 3034 1497 
Q 3034 2003 2786 2293 
Q 2538 2584 2113 2584 
z
M 3366 4563 
L 3366 3988 
Q 3128 4100 2886 4159 
Q 2644 4219 2406 4219 
Q 1781 4219 1451 3797 
Q 1122 3375 1075 2522 
Q 1259 2794 1537 2939 
Q 1816 3084 2150 3084 
Q 2853 3084 3261 2657 
Q 3669 2231 3669 1497 
Q 3669 778 3244 343 
Q 2819 -91 2113 -91 
Q 1303 -91 875 529 
Q 447 1150 447 2328 
Q 447 3434 972 4092 
Q 1497 4750 2381 4750 
Q 2619 4750 2861 4703 
Q 3103 4656 3366 4563 
z
" transform="scale(0.015625)"/>
       </defs>
       <use xlink:href="#DejaVuSans-30"/>
       <use xlink:href="#DejaVuSans-32" x="63.623047"/>
       <use xlink:href="#DejaVuSans-2d" x="127.246094"/>
       <use xlink:href="#DejaVuSans-32" x="163.330078"/>
       <use xlink:href="#DejaVuSans-36" x="226.953125"/>
       <use xlink:href="#DejaVuSans-20" x="290.576172"/>
       <use xlink:href="#DejaVuSans-30" x="322.363281"/>
       <use xlink:href="#DejaVuSans-30" x="385.986328"/>
      </g>
     </g>
    </g>
    <g id="xtick_18">
     <g id="line2d_26">
      <g>
       <use xlink:href="#m396205897e" x="190.448733" y="246.04" style="stroke: #000000; stroke-width: 0.8"/>
      </g>
     </g>
     <g id="text_18">
      <!-- 02-26 12 -->
      <g transform="translate(167.968265 260.638437) scale(0.1 -0.1)">
       <use xlink:href="#DejaVuSans-30"/>
       <use xlink:href="#DejaVuSans-32" x="63.623047"/>
       <use xlink:href="#DejaVuSans-2d" x="127.246094"/>
       <use xlink:href="#DejaVuSans-32" x="163.330078"/>
       <use xlink:href="#DejaVuSans-36" x="226.953125"/>
       <use xlink:href="#DejaVuSans-20" x="290.576172"/>
       <use xlink:href="#DejaVuSans-31" x="322.363281"/>
       <use xlink:href="#DejaVuSans-32" x="385.986328"/>
      </g>
     </g>
    </g>
    <g id="xtick_19">
     <g id="line2d_27">
      <g>
       <use xlink:href="#m396205897e" x="233.375281" y="246.04" style="stroke: #000000; stroke-width: 0.8"/>
      </g>
     </g>
     <g id="text_19">
      <!-- 02-27 00 -->
      <g transform="translate(210.894812 260.638437) scale(0.1 -0.1)">
       <defs>
        <path id="DejaVuSans-37" d="M 525 4666 
L 3525 4666 
L 3525 4397 
L 1831 0 
L 1172 0 
L 2766 4134 
L 525 4134 
L 525 4666 
z
" transform="scale(0.015625)"/>
       </defs>
       <use xlink:href="#DejaVuSans-30"/>
       <use xlink:href="#DejaVuSans-32" x="63.623047"/>
       <use xlink:href="#DejaVuSans-2d" x="127.246094"/>
       <use xlink:href="#DejaVuSans-32" x="163.330078"/>
       <use xlink:href="#DejaVuSans-37" x="226.953125"/>
       <use xlink:href="#DejaVuSans-20" x="290.576172"/>
       <use xlink:href="#DejaVuSans-30" x="322.363281"/>
       <use xlink:href="#DejaVuSans-30" x="385.986328"/>
      </g>
     </g>
    </g>
    <g id="xtick_20">
     <g id="line2d_28">
      <g>
       <use xlink:href="#m396205897e" x="276.301828" y="246.04" style="stroke: #000000; stroke-width: 0.8"/>
      </g>
     </g>
     <g id="text_20">
      <!-- 02-27 12 -->
      <g transform="translate(253.82136 260.638437) scale(0.1 -0.1)">
       <use xlink:href="#DejaVuSans-30"/>
       <use xlink:href="#DejaVuSans-32" x="63.623047"/>
       <use xlink:href="#DejaVuSans-2d" x="127.246094"/>
       <use xlink:href="#DejaVuSans-32" x="163.330078"/>
       <use xlink:href="#DejaVuSans-37" x="226.953125"/>
       <use xlink:href="#DejaVuSans-20" x="290.576172"/>
       <use xlink:href="#DejaVuSans-31" x="322.363281"/>
       <use xlink:href="#DejaVuSans-32" x="385.986328"/>
      </g>
     </g>
    </g>
    <g id="xtick_21">
     <g id="line2d_29">
      <g>
       <use xlink:href="#m396205897e" x="319.228376" y="246.04" style="stroke: #000000; stroke-width: 0.8"/>
      </g>
     </g>
     <g id="text_21">
      <!-- 02-28 00 -->
      <g transform="translate(296.747907 260.638437) scale(0.1 -0.1)">
       <defs>
        <path id="DejaVuSans-38" d="M 2034 2216 
Q 1584 2216 1326 1975 
Q 1069 1734 1069 1313 
Q 1069 891 1326 650 
Q 1584 409 2034 409 
Q 2484 409 2743 651 
Q 3003 894 3003 1313 
Q 3003 1734 2745 1975 
Q 2488 2216 2034 2216 
z
M 1403 2484 
Q 997 2584 770 2862 
Q 544 3141 544 3541 
Q 544 4100 942 4425 
Q 1341 4750 2034 4750 
Q 2731 4750 3128 4425 
Q 3525 4100 3525 3541 
Q 3525 3141 3298 2862 
Q 3072 2584 2669 2484 
Q 3125 2378 3379 2068 
Q 3634 1759 3634 1313 
Q 3634 634 3220 271 
Q 2806 -91 2034 -91 
Q 1263 -91 848 271 
Q 434 634 434 1313 
Q 434 1759 690 2068 
Q 947 2378 1403 2484 
z
M 1172 3481 
Q 1172 3119 1398 2916 
Q 1625 2713 2034 2713 
Q 2441 2713 2670 2916 
Q 2900 3119 2900 3481 
Q 2900 3844 2670 4047 
Q 2441 4250 2034 4250 
Q 1625 4250 1398 4047 
Q 1172 3844 1172 3481 
z
" transform="scale(0.015625)"/>
       </defs>
       <use xlink:href="#DejaVuSans-30"/>
       <use xlink:href="#DejaVuSans-32" x="63.623047"/>
       <use xlink:href="#DejaVuSans-2d" x="127.246094"/>
       <use xlink:href="#DejaVuSans-32" x="163.330078"/>
       <use xlink:href="#DejaVuSans-38" x="226.953125"/>
       <use xlink:href="#DejaVuSans-20" x="290.576172"/>
       <use xlink:href="#DejaVuSans-30" x="322.363281"/>
       <use xlink:href="#DejaVuSans-30" x="385.986328"/>
      </g>
     </g>
    </g>
    <g id="text_22">
     <!-- time -->
     <g transform="translate(189.863906 274.316562) scale(0.1 -0.1)">
      <use xlink:href="#DejaVuSans-74"/>
      <use xlink:href="#DejaVuSans-69" x="39.208984"/>
      <use xlink:href="#DejaVuSans-6d" x="66.992188"/>
      <use xlink:href="#DejaVuSans-65" x="164.404297"/>
     </g>
    </g>
   </g>
   <g id="matplotlib.axis_6">
    <g id="ytick_7">
     <g id="line2d_30">
      <g>
       <use xlink:href="#m7967f41be7" x="47.72" y="241.783636" style="stroke: #000000; stroke-width: 0.8"/>
      </g>
     </g>
     <g id="text_23">
      <!-- 0.0 -->
      <g transform="translate(24.816875 245.582855) scale(0.1 -0.1)">
       <use xlink:href="#DejaVuSans-30"/>
       <use xlink:href="#DejaVuSans-2e" x="63.623047"/>
       <use xlink:href="#DejaVuSans-30" x="95.410156"/>
      </g>
     </g>
    </g>
    <g id="ytick_8">
     <g id="line2d_31">
      <g>
       <use xlink:href="#m7967f41be7" x="47.72" y="207.516918" style="stroke: #000000; stroke-width: 0.8"/>
      </g>
     </g>
     <g id="text_24">
      <!-- 0.1 -->
      <g transform="translate(24.816875 211.316137) scale(0.1 -0.1)">
       <use xlink:href="#DejaVuSans-30"/>
       <use xlink:href="#DejaVuSans-2e" x="63.623047"/>
       <use xlink:href="#DejaVuSans-31" x="95.410156"/>
      </g>
     </g>
    </g>
    <g id="ytick_9">
     <g id="line2d_32">
      <g>
       <use xlink:href="#m7967f41be7" x="47.72" y="173.250199" style="stroke: #000000; stroke-width: 0.8"/>
      </g>
     </g>
     <g id="text_25">
      <!-- 0.2 -->
      <g transform="translate(24.816875 177.049418) scale(0.1 -0.1)">
       <use xlink:href="#DejaVuSans-30"/>
       <use xlink:href="#DejaVuSans-2e" x="63.623047"/>
       <use xlink:href="#DejaVuSans-32" x="95.410156"/>
      </g>
     </g>
    </g>
    <g id="text_26">
     <!-- flow (cms) -->
     <g transform="translate(18.737188 225.2325) rotate(-90) scale(0.1 -0.1)">
      <use xlink:href="#DejaVuSans-66"/>
      <use xlink:href="#DejaVuSans-6c" x="35.205078"/>
      <use xlink:href="#DejaVuSans-6f" x="62.988281"/>
      <use xlink:href="#DejaVuSans-77" x="124.169922"/>
      <use xlink:href="#DejaVuSans-20" x="205.957031"/>
      <use xlink:href="#DejaVuSans-28" x="237.744141"/>
      <use xlink:href="#DejaVuSans-63" x="276.757812"/>
      <use xlink:href="#DejaVuSans-6d" x="331.738281"/>
      <use xlink:href="#DejaVuSans-73" x="429.150391"/>
      <use xlink:href="#DejaVuSans-29" x="481.25"/>
     </g>
    </g>
   </g>
   <g id="line2d_33">
    <path d="M 61.669091 241.783636 
L 67.453244 241.689183 
L 68.098136 241.403241 
L 68.566155 240.966676 
L 68.877174 240.472768 
L 69.036161 240.273174 
L 69.412762 239.292247 
L 69.826129 237.800823 
L 70.275267 235.283821 
L 70.848615 230.925487 
L 71.990342 219.813634 
L 73.220506 205.628664 
L 75.697725 173.061497 
L 75.834852 167.15301 
L 75.970984 165.682483 
L 76.039548 166.715169 
L 76.244244 164.528628 
L 76.311813 164.387977 
L 76.446952 165.677286 
L 76.582091 164.963409 
L 76.649661 165.820343 
L 76.717231 165.647419 
L 76.850382 165.048167 
L 76.917952 165.296313 
L 76.984528 166.263371 
L 77.051104 166.098597 
L 77.185249 165.290681 
L 77.319395 167.348454 
L 77.385971 167.123454 
L 77.78642 164.930713 
L 77.919571 168.112892 
L 77.987141 167.882217 
L 78.120293 166.814515 
L 78.186869 166.974972 
L 78.319027 166.400799 
L 78.781083 163.827629 
L 78.978824 162.467263 
L 79.109988 165.345465 
L 79.241153 164.673881 
L 79.306735 165.289283 
L 79.569064 162.865009 
L 79.634646 163.804749 
L 79.699235 163.619679 
L 79.830399 162.788383 
L 79.894988 163.155881 
L 79.96057 164.321418 
L 80.026152 164.169025 
L 80.157316 163.238049 
L 80.353069 165.173777 
L 80.417658 164.789572 
L 80.547829 163.974087 
L 80.613411 163.982877 
L 80.872759 161.938971 
L 81.066525 160.83454 
L 81.131113 160.907582 
L 81.325872 157.582198 
L 81.45505 161.579017 
L 81.519638 161.081944 
L 81.648815 160.118254 
L 81.777992 162.305135 
L 81.907169 161.656976 
L 81.971758 161.74157 
L 82.036347 162.707277 
L 82.100935 162.249176 
L 82.553055 159.335121 
L 82.617644 160.659526 
L 82.681238 160.425335 
L 82.810416 159.596915 
L 82.87401 159.859171 
L 83.002194 161.746437 
L 83.131371 161.037372 
L 83.452326 157.672628 
L 83.581504 159.774704 
L 83.709687 159.197297 
L 83.773282 159.376281 
L 83.901465 160.587714 
L 84.415193 159.057104 
L 84.606971 157.359893 
L 84.735154 158.892935 
L 84.798749 158.786851 
L 84.926933 158.313066 
L 84.990528 159.217407 
L 85.055116 158.970128 
L 85.1833 158.386771 
L 85.246895 158.44662 
L 85.438673 160.811894 
L 85.503261 160.622541 
L 85.759628 158.026414 
L 85.823223 157.808204 
L 85.887812 158.773747 
L 86.078596 157.241861 
L 86.143185 157.595456 
L 86.270375 158.835488 
L 86.398558 158.462473 
L 86.525748 159.384272 
L 86.717526 158.677132 
L 86.84571 159.108166 
L 86.910298 158.975538 
L 87.037488 158.47885 
L 87.102077 158.674621 
L 87.165672 158.867379 
L 87.229266 158.823526 
L 87.48464 158.085283 
L 87.612823 157.816322 
L 87.740013 158.510082 
L 87.931791 158.276365 
L 87.995386 158.084101 
L 88.058981 158.143893 
L 88.187164 157.990609 
L 88.442538 159.075506 
L 88.506132 159.009964 
L 88.570721 158.779341 
L 88.761506 157.702185 
L 88.826094 157.762853 
L 88.889689 158.180741 
L 88.953284 158.054858 
L 89.081467 157.894498 
L 89.336841 158.609918 
L 89.400436 158.569387 
L 89.655809 158.155604 
L 89.719404 158.119933 
L 90.038372 158.712255 
L 90.101967 158.414747 
L 90.166555 158.470653 
L 90.293745 158.464129 
L 90.35734 158.18504 
L 90.549118 159.042969 
L 90.677302 158.337161 
L 90.740896 158.650587 
L 90.86908 158.741894 
L 91.060858 158.575605 
L 91.252637 158.640444 
L 91.38082 158.088245 
L 91.444415 158.109634 
L 91.572598 158.361895 
L 91.636193 158.177463 
L 91.826978 158.416059 
L 92.018756 158.836655 
L 92.082351 158.933983 
L 92.14694 158.741971 
L 92.210535 158.764641 
L 92.337724 159.029995 
L 92.402313 158.912135 
L 92.529503 158.478328 
L 92.721281 159.026788 
L 92.913059 156.656364 
L 92.976654 156.795568 
L 93.168432 160.114781 
L 93.232027 160.303694 
L 93.296616 160.14287 
L 93.424799 159.108852 
L 93.616578 159.395311 
L 93.80935 161.686474 
L 93.872945 161.830254 
L 94.001128 159.321877 
L 94.129311 159.583925 
L 94.1939 159.799159 
L 94.257495 159.547846 
L 94.450267 160.287348 
L 94.642045 158.887247 
L 94.706634 159.072153 
L 94.963001 160.526299 
L 95.026596 160.810813 
L 95.091184 160.778675 
L 95.219368 159.360326 
L 95.539329 160.4907 
L 95.667513 161.097434 
L 95.732101 160.52774 
L 95.795696 160.539058 
L 95.92388 161.166034 
L 96.053057 160.323739 
L 96.116652 160.501885 
L 96.245829 161.199517 
L 96.309424 161.11183 
L 96.374012 161.125784 
L 96.566784 161.957213 
L 96.695961 160.820696 
L 96.824145 161.62931 
L 96.88774 161.440922 
L 96.952328 160.295467 
L 97.016917 160.320636 
L 97.467049 162.749815 
L 97.531638 162.562022 
L 97.726397 163.693713 
L 97.790986 163.265808 
L 97.855574 163.181543 
L 98.04934 164.870433 
L 98.113928 163.365572 
L 98.178517 163.738982 
L 98.307694 164.908995 
L 98.373276 164.375543 
L 98.437865 162.661849 
L 98.502453 162.73981 
L 98.696219 164.19113 
L 98.761801 163.38424 
L 98.82639 163.57973 
L 99.215909 166.12647 
L 99.281491 165.962558 
L 99.54382 169.596525 
L 99.609402 168.234778 
L 99.674984 168.832711 
L 99.806149 170.286402 
L 99.937313 168.607412 
L 100.136047 170.467122 
L 100.201629 169.307737 
L 100.400363 174.468121 
L 100.532521 170.680794 
L 100.599097 170.88958 
L 100.731255 172.472883 
L 100.797831 172.046723 
L 100.863414 172.097777 
L 101.062148 174.480546 
L 101.128723 174.110954 
L 101.328451 176.399902 
L 101.461603 173.836305 
L 101.662324 177.788531 
L 102.14028 192.582867 
L 102.697729 199.351318 
L 103.190589 203.411581 
L 104.034215 209.235527 
L 104.928518 212.959081 
L 105.194821 213.704323 
L 105.86853 215.476176 
L 106.81351 217.450168 
L 107.324256 218.531106 
L 107.387851 218.371131 
L 107.450453 218.392749 
L 108.357673 220.282155 
L 108.755141 220.919757 
L 108.820724 220.843102 
L 108.885312 220.66272 
L 108.948907 220.717541 
L 109.076097 221.026724 
L 109.273837 221.655429 
L 109.407983 221.878677 
L 109.474558 221.778429 
L 109.540141 221.712238 
L 109.669318 221.987543 
L 109.87302 222.716598 
L 110.909418 223.816825 
L 111.119082 224.18729 
L 111.188639 224.244048 
L 111.258196 224.128217 
L 111.32676 224.185793 
L 111.814652 224.943129 
L 112.026303 225.266826 
L 112.377069 225.501219 
L 113.308138 226.606423 
L 113.595308 226.78846 
L 113.883473 227.223755 
L 114.103074 227.530827 
L 114.546251 227.943535 
L 115.351123 228.670777 
L 116.553464 229.852352 
L 116.614078 229.75452 
L 116.922116 230.134573 
L 117.046325 230.181154 
L 118.181096 231.112602 
L 119.280095 232.102053 
L 119.34369 231.957754 
L 119.406291 231.999282 
L 119.531493 232.144636 
L 119.727246 232.48901 
L 119.860398 232.590414 
L 119.990569 232.484447 
L 121.681795 233.902768 
L 121.819916 233.924104 
L 122.881155 234.599328 
L 123.02325 234.620694 
L 125.116913 235.951295 
L 126.114558 236.44094 
L 126.453399 236.646569 
L 131.782452 238.875782 
L 131.995097 238.868604 
L 132.208736 239.034658 
L 133.477653 239.415198 
L 139.164427 240.646139 
L 139.343287 240.656002 
L 139.879869 240.644629 
L 140.14816 240.72933 
L 140.953033 240.841468 
L 141.757906 240.908496 
L 146.766003 241.205675 
L 175.11541 241.633984 
L 192.46489 241.698466 
L 226.269546 241.740126 
L 340.650909 241.772576 
L 340.650909 241.772576 
" clip-path="url(#pc997df7864)" style="fill: none; stroke: #1f77b4; stroke-width: 1.5; stroke-linecap: square"/>
   </g>
   <g id="patch_13">
    <path d="M 47.72 246.04 
L 47.72 152.4 
" style="fill: none; stroke: #000000; stroke-width: 0.8; stroke-linejoin: miter; stroke-linecap: square"/>
   </g>
   <g id="patch_14">
    <path d="M 354.6 246.04 
L 354.6 152.4 
" style="fill: none; stroke: #000000; stroke-width: 0.8; stroke-linejoin: miter; stroke-linecap: square"/>
   </g>
   <g id="patch_15">
    <path d="M 47.72 246.04 
L 354.6 246.04 
" style="fill: none; stroke: #000000; stroke-width: 0.8; stroke-linejoin: miter; stroke-linecap: square"/>
   </g>
   <g id="patch_16">
    <path d="M 47.72 152.4 
L 354.6 152.4 
" style="fill: none; stroke: #000000; stroke-width: 0.8; stroke-linejoin: miter; stroke-linecap: square"/>
   </g>
   <g id="text_27">
    <!-- 2 -->
    <g transform="translate(195.6628 175.8962) scale(0.1728 -0.1728)">
     <use xlink:href="#DejaVuSans-32"/>
    </g>
   </g>
  </g>
  <g id="axes_4">
   <g id="patch_17">
    <path d="M 402.32 246.04 
L 709.2 246.04 
L 709.2 152.4 
L 402.32 152.4 
z
" style="fill: #ffffff"/>
   </g>
   <g id="matplotlib.axis_7">
    <g id="xtick_22">
     <g id="line2d_34">
      <g>
       <use xlink:href="#m396205897e" x="416.269091" y="246.04" style="stroke: #000000; stroke-width: 0.8"/>
      </g>
     </g>
     <g id="text_28">
      <!-- 02-25 00 -->
      <g transform="translate(393.788622 260.638437) scale(0.1 -0.1)">
       <use xlink:href="#DejaVuSans-30"/>
       <use xlink:href="#DejaVuSans-32" x="63.623047"/>
       <use xlink:href="#DejaVuSans-2d" x="127.246094"/>
       <use xlink:href="#DejaVuSans-32" x="163.330078"/>
       <use xlink:href="#DejaVuSans-35" x="226.953125"/>
       <use xlink:href="#DejaVuSans-20" x="290.576172"/>
       <use xlink:href="#DejaVuSans-30" x="322.363281"/>
       <use xlink:href="#DejaVuSans-30" x="385.986328"/>
      </g>
     </g>
    </g>
    <g id="xtick_23">
     <g id="line2d_35">
      <g>
       <use xlink:href="#m396205897e" x="459.195638" y="246.04" style="stroke: #000000; stroke-width: 0.8"/>
      </g>
     </g>
     <g id="text_29">
      <!-- 02-25 12 -->
      <g transform="translate(436.71517 260.638437) scale(0.1 -0.1)">
       <use xlink:href="#DejaVuSans-30"/>
       <use xlink:href="#DejaVuSans-32" x="63.623047"/>
       <use xlink:href="#DejaVuSans-2d" x="127.246094"/>
       <use xlink:href="#DejaVuSans-32" x="163.330078"/>
       <use xlink:href="#DejaVuSans-35" x="226.953125"/>
       <use xlink:href="#DejaVuSans-20" x="290.576172"/>
       <use xlink:href="#DejaVuSans-31" x="322.363281"/>
       <use xlink:href="#DejaVuSans-32" x="385.986328"/>
      </g>
     </g>
    </g>
    <g id="xtick_24">
     <g id="line2d_36">
      <g>
       <use xlink:href="#m396205897e" x="502.122186" y="246.04" style="stroke: #000000; stroke-width: 0.8"/>
      </g>
     </g>
     <g id="text_30">
      <!-- 02-26 00 -->
      <g transform="translate(479.641717 260.638437) scale(0.1 -0.1)">
       <use xlink:href="#DejaVuSans-30"/>
       <use xlink:href="#DejaVuSans-32" x="63.623047"/>
       <use xlink:href="#DejaVuSans-2d" x="127.246094"/>
       <use xlink:href="#DejaVuSans-32" x="163.330078"/>
       <use xlink:href="#DejaVuSans-36" x="226.953125"/>
       <use xlink:href="#DejaVuSans-20" x="290.576172"/>
       <use xlink:href="#DejaVuSans-30" x="322.363281"/>
       <use xlink:href="#DejaVuSans-30" x="385.986328"/>
      </g>
     </g>
    </g>
    <g id="xtick_25">
     <g id="line2d_37">
      <g>
       <use xlink:href="#m396205897e" x="545.048733" y="246.04" style="stroke: #000000; stroke-width: 0.8"/>
      </g>
     </g>
     <g id="text_31">
      <!-- 02-26 12 -->
      <g transform="translate(522.568265 260.638437) scale(0.1 -0.1)">
       <use xlink:href="#DejaVuSans-30"/>
       <use xlink:href="#DejaVuSans-32" x="63.623047"/>
       <use xlink:href="#DejaVuSans-2d" x="127.246094"/>
       <use xlink:href="#DejaVuSans-32" x="163.330078"/>
       <use xlink:href="#DejaVuSans-36" x="226.953125"/>
       <use xlink:href="#DejaVuSans-20" x="290.576172"/>
       <use xlink:href="#DejaVuSans-31" x="322.363281"/>
       <use xlink:href="#DejaVuSans-32" x="385.986328"/>
      </g>
     </g>
    </g>
    <g id="xtick_26">
     <g id="line2d_38">
      <g>
       <use xlink:href="#m396205897e" x="587.975281" y="246.04" style="stroke: #000000; stroke-width: 0.8"/>
      </g>
     </g>
     <g id="text_32">
      <!-- 02-27 00 -->
      <g transform="translate(565.494812 260.638437) scale(0.1 -0.1)">
       <use xlink:href="#DejaVuSans-30"/>
       <use xlink:href="#DejaVuSans-32" x="63.623047"/>
       <use xlink:href="#DejaVuSans-2d" x="127.246094"/>
       <use xlink:href="#DejaVuSans-32" x="163.330078"/>
       <use xlink:href="#DejaVuSans-37" x="226.953125"/>
       <use xlink:href="#DejaVuSans-20" x="290.576172"/>
       <use xlink:href="#DejaVuSans-30" x="322.363281"/>
       <use xlink:href="#DejaVuSans-30" x="385.986328"/>
      </g>
     </g>
    </g>
    <g id="xtick_27">
     <g id="line2d_39">
      <g>
       <use xlink:href="#m396205897e" x="630.901828" y="246.04" style="stroke: #000000; stroke-width: 0.8"/>
      </g>
     </g>
     <g id="text_33">
      <!-- 02-27 12 -->
      <g transform="translate(608.42136 260.638437) scale(0.1 -0.1)">
       <use xlink:href="#DejaVuSans-30"/>
       <use xlink:href="#DejaVuSans-32" x="63.623047"/>
       <use xlink:href="#DejaVuSans-2d" x="127.246094"/>
       <use xlink:href="#DejaVuSans-32" x="163.330078"/>
       <use xlink:href="#DejaVuSans-37" x="226.953125"/>
       <use xlink:href="#DejaVuSans-20" x="290.576172"/>
       <use xlink:href="#DejaVuSans-31" x="322.363281"/>
       <use xlink:href="#DejaVuSans-32" x="385.986328"/>
      </g>
     </g>
    </g>
    <g id="xtick_28">
     <g id="line2d_40">
      <g>
       <use xlink:href="#m396205897e" x="673.828376" y="246.04" style="stroke: #000000; stroke-width: 0.8"/>
      </g>
     </g>
     <g id="text_34">
      <!-- 02-28 00 -->
      <g transform="translate(651.347907 260.638437) scale(0.1 -0.1)">
       <use xlink:href="#DejaVuSans-30"/>
       <use xlink:href="#DejaVuSans-32" x="63.623047"/>
       <use xlink:href="#DejaVuSans-2d" x="127.246094"/>
       <use xlink:href="#DejaVuSans-32" x="163.330078"/>
       <use xlink:href="#DejaVuSans-38" x="226.953125"/>
       <use xlink:href="#DejaVuSans-20" x="290.576172"/>
       <use xlink:href="#DejaVuSans-30" x="322.363281"/>
       <use xlink:href="#DejaVuSans-30" x="385.986328"/>
      </g>
     </g>
    </g>
    <g id="text_35">
     <!-- time -->
     <g transform="translate(544.463906 274.316562) scale(0.1 -0.1)">
      <use xlink:href="#DejaVuSans-74"/>
      <use xlink:href="#DejaVuSans-69" x="39.208984"/>
      <use xlink:href="#DejaVuSans-6d" x="66.992188"/>
      <use xlink:href="#DejaVuSans-65" x="164.404297"/>
     </g>
    </g>
   </g>
   <g id="matplotlib.axis_8">
    <g id="ytick_10">
     <g id="line2d_41">
      <g>
       <use xlink:href="#m7967f41be7" x="402.32" y="241.783636" style="stroke: #000000; stroke-width: 0.8"/>
      </g>
     </g>
     <g id="text_36">
      <!-- 0.0 -->
      <g transform="translate(379.416875 245.582855) scale(0.1 -0.1)">
       <use xlink:href="#DejaVuSans-30"/>
       <use xlink:href="#DejaVuSans-2e" x="63.623047"/>
       <use xlink:href="#DejaVuSans-30" x="95.410156"/>
      </g>
     </g>
    </g>
    <g id="ytick_11">
     <g id="line2d_42">
      <g>
       <use xlink:href="#m7967f41be7" x="402.32" y="209.933158" style="stroke: #000000; stroke-width: 0.8"/>
      </g>
     </g>
     <g id="text_37">
      <!-- 0.5 -->
      <g transform="translate(379.416875 213.732377) scale(0.1 -0.1)">
       <use xlink:href="#DejaVuSans-30"/>
       <use xlink:href="#DejaVuSans-2e" x="63.623047"/>
       <use xlink:href="#DejaVuSans-35" x="95.410156"/>
      </g>
     </g>
    </g>
    <g id="ytick_12">
     <g id="line2d_43">
      <g>
       <use xlink:href="#m7967f41be7" x="402.32" y="178.08268" style="stroke: #000000; stroke-width: 0.8"/>
      </g>
     </g>
     <g id="text_38">
      <!-- 1.0 -->
      <g transform="translate(379.416875 181.881898) scale(0.1 -0.1)">
       <use xlink:href="#DejaVuSans-31"/>
       <use xlink:href="#DejaVuSans-2e" x="63.623047"/>
       <use xlink:href="#DejaVuSans-30" x="95.410156"/>
      </g>
     </g>
    </g>
    <g id="text_39">
     <!-- depth (m) -->
     <g transform="translate(373.337187 224.134844) rotate(-90) scale(0.1 -0.1)">
      <use xlink:href="#DejaVuSans-64"/>
      <use xlink:href="#DejaVuSans-65" x="63.476562"/>
      <use xlink:href="#DejaVuSans-70" x="125"/>
      <use xlink:href="#DejaVuSans-74" x="188.476562"/>
      <use xlink:href="#DejaVuSans-68" x="227.685547"/>
      <use xlink:href="#DejaVuSans-20" x="291.064453"/>
      <use xlink:href="#DejaVuSans-28" x="322.851562"/>
      <use xlink:href="#DejaVuSans-6d" x="361.865234"/>
      <use xlink:href="#DejaVuSans-29" x="459.277344"/>
     </g>
    </g>
   </g>
   <g id="line2d_44">
    <path d="M 416.269091 241.783636 
L 420.89065 241.675729 
L 421.516663 241.374194 
L 422.142675 240.818311 
L 422.894883 239.802555 
L 423.714661 238.281703 
L 424.360546 236.490388 
L 425.379058 232.806208 
L 427.623759 224.591423 
L 429.626004 217.755838 
L 430.297725 215.989027 
L 430.911813 215.117371 
L 431.718673 213.331889 
L 432.38642 211.307852 
L 433.906735 205.30324 
L 434.953069 200.276557 
L 437.024872 188.310855 
L 439.463338 173.293941 
L 441.702077 162.535251 
L 442.340013 160.410847 
L 443.106132 158.633001 
L 443.745062 157.699233 
L 444.382999 157.054669 
L 445.021928 156.674079 
L 445.277302 156.693876 
L 445.597263 156.92761 
L 445.98082 157.495431 
L 446.555161 158.827034 
L 447.257686 161.070988 
L 448.024799 164.229321 
L 449.17845 169.857422 
L 450.845829 180.057495 
L 452.973276 195.109274 
L 454.801629 208.569595 
L 456.74028 220.653698 
L 457.421937 222.68727 
L 458.170171 224.241782 
L 458.910455 225.274613 
L 459.855435 226.194653 
L 461.095536 227.111399 
L 463.156407 228.320727 
L 466.696854 230.037985 
L 470.59999 231.714755 
L 475.789929 233.708729 
L 480.480052 235.291786 
L 485.265567 236.778199 
L 491.440233 238.395722 
L 495.195312 239.100846 
L 498.772524 239.532026 
L 504.406633 239.972305 
L 513.260234 240.38308 
L 529.178829 240.767351 
L 549.032357 241.010519 
L 588.560553 241.249454 
L 663.771441 241.452498 
L 695.250909 241.498238 
L 695.250909 241.498238 
" clip-path="url(#pc32c02a79d)" style="fill: none; stroke: #1f77b4; stroke-width: 1.5; stroke-linecap: square"/>
   </g>
   <g id="patch_18">
    <path d="M 402.32 246.04 
L 402.32 152.4 
" style="fill: none; stroke: #000000; stroke-width: 0.8; stroke-linejoin: miter; stroke-linecap: square"/>
   </g>
   <g id="patch_19">
    <path d="M 709.2 246.04 
L 709.2 152.4 
" style="fill: none; stroke: #000000; stroke-width: 0.8; stroke-linejoin: miter; stroke-linecap: square"/>
   </g>
   <g id="patch_20">
    <path d="M 402.32 246.04 
L 709.2 246.04 
" style="fill: none; stroke: #000000; stroke-width: 0.8; stroke-linejoin: miter; stroke-linecap: square"/>
   </g>
   <g id="patch_21">
    <path d="M 402.32 152.4 
L 709.2 152.4 
" style="fill: none; stroke: #000000; stroke-width: 0.8; stroke-linejoin: miter; stroke-linecap: square"/>
   </g>
   <g id="text_40">
    <!-- ('P2', 'depthN') -->
    <g transform="translate(491.7079 175.8962) scale(0.1728 -0.1728)">
     <use xlink:href="#DejaVuSans-28"/>
     <use xlink:href="#DejaVuSans-27" x="39.013672"/>
     <use xlink:href="#DejaVuSans-50" x="66.503906"/>
     <use xlink:href="#DejaVuSans-32" x="126.806641"/>
     <use xlink:href="#DejaVuSans-27" x="190.429688"/>
     <use xlink:href="#DejaVuSans-2c" x="217.919922"/>
     <use xlink:href="#DejaVuSans-20" x="249.707031"/>
     <use xlink:href="#DejaVuSans-27" x="281.494141"/>
     <use xlink:href="#DejaVuSans-64" x="308.984375"/>
     <use xlink:href="#DejaVuSans-65" x="372.460938"/>
     <use xlink:href="#DejaVuSans-70" x="433.984375"/>
     <use xlink:href="#DejaVuSans-74" x="497.460938"/>
     <use xlink:href="#DejaVuSans-68" x="536.669922"/>
     <use xlink:href="#DejaVuSans-4e" x="600.048828"/>
     <use xlink:href="#DejaVuSans-27" x="674.853516"/>
     <use xlink:href="#DejaVuSans-29" x="702.34375"/>
    </g>
   </g>
  </g>
 </g>
 <defs>
  <clipPath id="p7cb12517c1">
   <rect x="47.72" y="26.88" width="306.88" height="93.64"/>
  </clipPath>
  <clipPath id="p05219b7b69">
   <rect x="402.32" y="26.88" width="306.88" height="93.64"/>
  </clipPath>
  <clipPath id="pc997df7864">
   <rect x="47.72" y="152.4" width="306.88" height="93.64"/>
  </clipPath>
  <clipPath id="pc32c02a79d">
   <rect x="402.32" y="152.4" width="306.88" height="93.64"/>
  </clipPath>
 </defs>
</svg>
