<?xml version="1.0" encoding="utf-8" standalone="no"?>
<!DOCTYPE svg PUBLIC "-//W3C//DTD SVG 1.1//EN"
  "http://www.w3.org/Graphics/SVG/1.1/DTD/svg11.dtd">
<svg xmlns:xlink="http://www.w3.org/1999/xlink" width="720pt" height="288pt" viewBox="0 0 720 288" xmlns="http://www.w3.org/2000/svg" version="1.1">
 <metadata>
  <rdf:RDF xmlns:dc="http://purl.org/dc/elements/1.1/" xmlns:cc="http://creativecommons.org/ns#" xmlns:rdf="http://www.w3.org/1999/02/22-rdf-syntax-ns#">
   <cc:Work>
    <dc:type rdf:resource="http://purl.org/dc/dcmitype/StillImage"/>
    <dc:date>2025-01-28T15:49:27.672570</dc:date>
    <dc:format>image/svg+xml</dc:format>
    <dc:creator>
     <cc:Agent>
      <dc:title>Matplotlib v3.9.4, https://matplotlib.org/</dc:title>
     </cc:Agent>
    </dc:creator>
   </cc:Work>
  </rdf:RDF>
 </metadata>
 <defs>
  <style type="text/css">*{stroke-linejoin: round; stroke-linecap: butt}</style>
 </defs>
 <g id="figure_1">
  <g id="patch_1">
   <path d="M 0 288 
L 720 288 
L 720 0 
L 0 0 
z
" style="fill: #ffffff"/>
  </g>
  <g id="axes_1">
   <g id="patch_2">
    <path d="M 47.72 120.52 
L 354.6 120.52 
L 354.6 26.88 
L 47.72 26.88 
z
" style="fill: #ffffff"/>
   </g>
   <g id="matplotlib.axis_1">
    <g id="xtick_1">
     <g id="line2d_1">
      <defs>
       <path id="m6b944caacf" d="M 0 0 
L 0 3.5 
" style="stroke: #000000; stroke-width: 0.8"/>
      </defs>
      <g>
       <use xlink:href="#m6b944caacf" x="61.669091" y="120.52" style="stroke: #000000; stroke-width: 0.8"/>
      </g>
     </g>
    </g>
    <g id="xtick_2">
     <g id="line2d_2">
      <g>
       <use xlink:href="#m6b944caacf" x="104.590288" y="120.52" style="stroke: #000000; stroke-width: 0.8"/>
      </g>
     </g>
    </g>
    <g id="xtick_3">
     <g id="line2d_3">
      <g>
       <use xlink:href="#m6b944caacf" x="147.511485" y="120.52" style="stroke: #000000; stroke-width: 0.8"/>
      </g>
     </g>
    </g>
    <g id="xtick_4">
     <g id="line2d_4">
      <g>
       <use xlink:href="#m6b944caacf" x="190.432681" y="120.52" style="stroke: #000000; stroke-width: 0.8"/>
      </g>
     </g>
    </g>
    <g id="xtick_5">
     <g id="line2d_5">
      <g>
       <use xlink:href="#m6b944caacf" x="233.353878" y="120.52" style="stroke: #000000; stroke-width: 0.8"/>
      </g>
     </g>
    </g>
    <g id="xtick_6">
     <g id="line2d_6">
      <g>
       <use xlink:href="#m6b944caacf" x="276.275075" y="120.52" style="stroke: #000000; stroke-width: 0.8"/>
      </g>
     </g>
    </g>
    <g id="xtick_7">
     <g id="line2d_7">
      <g>
       <use xlink:href="#m6b944caacf" x="319.196272" y="120.52" style="stroke: #000000; stroke-width: 0.8"/>
      </g>
     </g>
    </g>
    <g id="text_1">
     <!-- time -->
     <g transform="translate(189.863906 139.118437) scale(0.1 -0.1)">
      <defs>
       <path id="DejaVuSans-74" d="M 1172 4494 
L 1172 3500 
L 2356 3500 
L 2356 3053 
L 1172 3053 
L 1172 1153 
Q 1172 725 1289 603 
Q 1406 481 1766 481 
L 2356 481 
L 2356 0 
L 1766 0 
Q 1100 0 847 248 
Q 594 497 594 1153 
L 594 3053 
L 172 3053 
L 172 3500 
L 594 3500 
L 594 4494 
L 1172 4494 
z
" transform="scale(0.015625)"/>
       <path id="DejaVuSans-69" d="M 603 3500 
L 1178 3500 
L 1178 0 
L 603 0 
L 603 3500 
z
M 603 4863 
L 1178 4863 
L 1178 4134 
L 603 4134 
L 603 4863 
z
" transform="scale(0.015625)"/>
       <path id="DejaVuSans-6d" d="M 3328 2828 
Q 3544 3216 3844 3400 
Q 4144 3584 4550 3584 
Q 5097 3584 5394 3201 
Q 5691 2819 5691 2113 
L 5691 0 
L 5113 0 
L 5113 2094 
Q 5113 2597 4934 2840 
Q 4756 3084 4391 3084 
Q 3944 3084 3684 2787 
Q 3425 2491 3425 1978 
L 3425 0 
L 2847 0 
L 2847 2094 
Q 2847 2600 2669 2842 
Q 2491 3084 2119 3084 
Q 1678 3084 1418 2786 
Q 1159 2488 1159 1978 
L 1159 0 
L 581 0 
L 581 3500 
L 1159 3500 
L 1159 2956 
Q 1356 3278 1631 3431 
Q 1906 3584 2284 3584 
Q 2666 3584 2933 3390 
Q 3200 3197 3328 2828 
z
" transform="scale(0.015625)"/>
       <path id="DejaVuSans-65" d="M 3597 1894 
L 3597 1613 
L 953 1613 
Q 991 1019 1311 708 
Q 1631 397 2203 397 
Q 2534 397 2845 478 
Q 3156 559 3463 722 
L 3463 178 
Q 3153 47 2828 -22 
Q 2503 -91 2169 -91 
Q 1331 -91 842 396 
Q 353 884 353 1716 
Q 353 2575 817 3079 
Q 1281 3584 2069 3584 
Q 2775 3584 3186 3129 
Q 3597 2675 3597 1894 
z
M 3022 2063 
Q 3016 2534 2758 2815 
Q 2500 3097 2075 3097 
Q 1594 3097 1305 2825 
Q 1016 2553 972 2059 
L 3022 2063 
z
" transform="scale(0.015625)"/>
      </defs>
      <use xlink:href="#DejaVuSans-74"/>
      <use xlink:href="#DejaVuSans-69" x="39.208984"/>
      <use xlink:href="#DejaVuSans-6d" x="66.992188"/>
      <use xlink:href="#DejaVuSans-65" x="164.404297"/>
     </g>
    </g>
   </g>
   <g id="matplotlib.axis_2">
    <g id="ytick_1">
     <g id="line2d_8">
      <defs>
       <path id="me6d3345088" d="M 0 0 
L -3.5 0 
" style="stroke: #000000; stroke-width: 0.8"/>
      </defs>
      <g>
       <use xlink:href="#me6d3345088" x="47.72" y="116.263636" style="stroke: #000000; stroke-width: 0.8"/>
      </g>
     </g>
     <g id="text_2">
      <!-- 0.0 -->
      <g transform="translate(24.816875 120.062855) scale(0.1 -0.1)">
       <defs>
        <path id="DejaVuSans-30" d="M 2034 4250 
Q 1547 4250 1301 3770 
Q 1056 3291 1056 2328 
Q 1056 1369 1301 889 
Q 1547 409 2034 409 
Q 2525 409 2770 889 
Q 3016 1369 3016 2328 
Q 3016 3291 2770 3770 
Q 2525 4250 2034 4250 
z
M 2034 4750 
Q 2819 4750 3233 4129 
Q 3647 3509 3647 2328 
Q 3647 1150 3233 529 
Q 2819 -91 2034 -91 
Q 1250 -91 836 529 
Q 422 1150 422 2328 
Q 422 3509 836 4129 
Q 1250 4750 2034 4750 
z
" transform="scale(0.015625)"/>
        <path id="DejaVuSans-2e" d="M 684 794 
L 1344 794 
L 1344 0 
L 684 0 
L 684 794 
z
" transform="scale(0.015625)"/>
       </defs>
       <use xlink:href="#DejaVuSans-30"/>
       <use xlink:href="#DejaVuSans-2e" x="63.623047"/>
       <use xlink:href="#DejaVuSans-30" x="95.410156"/>
      </g>
     </g>
    </g>
    <g id="ytick_2">
     <g id="line2d_9">
      <g>
       <use xlink:href="#me6d3345088" x="47.72" y="81.400289" style="stroke: #000000; stroke-width: 0.8"/>
      </g>
     </g>
     <g id="text_3">
      <!-- 0.2 -->
      <g transform="translate(24.816875 85.199508) scale(0.1 -0.1)">
       <defs>
        <path id="DejaVuSans-32" d="M 1228 531 
L 3431 531 
L 3431 0 
L 469 0 
L 469 531 
Q 828 903 1448 1529 
Q 2069 2156 2228 2338 
Q 2531 2678 2651 2914 
Q 2772 3150 2772 3378 
Q 2772 3750 2511 3984 
Q 2250 4219 1831 4219 
Q 1534 4219 1204 4116 
Q 875 4013 500 3803 
L 500 4441 
Q 881 4594 1212 4672 
Q 1544 4750 1819 4750 
Q 2544 4750 2975 4387 
Q 3406 4025 3406 3419 
Q 3406 3131 3298 2873 
Q 3191 2616 2906 2266 
Q 2828 2175 2409 1742 
Q 1991 1309 1228 531 
z
" transform="scale(0.015625)"/>
       </defs>
       <use xlink:href="#DejaVuSans-30"/>
       <use xlink:href="#DejaVuSans-2e" x="63.623047"/>
       <use xlink:href="#DejaVuSans-32" x="95.410156"/>
      </g>
     </g>
    </g>
    <g id="ytick_3">
     <g id="line2d_10">
      <g>
       <use xlink:href="#me6d3345088" x="47.72" y="46.536941" style="stroke: #000000; stroke-width: 0.8"/>
      </g>
     </g>
     <g id="text_4">
      <!-- 0.4 -->
      <g transform="translate(24.816875 50.33616) scale(0.1 -0.1)">
       <defs>
        <path id="DejaVuSans-34" d="M 2419 4116 
L 825 1625 
L 2419 1625 
L 2419 4116 
z
M 2253 4666 
L 3047 4666 
L 3047 1625 
L 3713 1625 
L 3713 1100 
L 3047 1100 
L 3047 0 
L 2419 0 
L 2419 1100 
L 313 1100 
L 313 1709 
L 2253 4666 
z
" transform="scale(0.015625)"/>
       </defs>
       <use xlink:href="#DejaVuSans-30"/>
       <use xlink:href="#DejaVuSans-2e" x="63.623047"/>
       <use xlink:href="#DejaVuSans-34" x="95.410156"/>
      </g>
     </g>
    </g>
    <g id="text_5">
     <!-- flow (cms) -->
     <g transform="translate(18.737188 99.7125) rotate(-90) scale(0.1 -0.1)">
      <defs>
       <path id="DejaVuSans-66" d="M 2375 4863 
L 2375 4384 
L 1825 4384 
Q 1516 4384 1395 4259 
Q 1275 4134 1275 3809 
L 1275 3500 
L 2222 3500 
L 2222 3053 
L 1275 3053 
L 1275 0 
L 697 0 
L 697 3053 
L 147 3053 
L 147 3500 
L 697 3500 
L 697 3744 
Q 697 4328 969 4595 
Q 1241 4863 1831 4863 
L 2375 4863 
z
" transform="scale(0.015625)"/>
       <path id="DejaVuSans-6c" d="M 603 4863 
L 1178 4863 
L 1178 0 
L 603 0 
L 603 4863 
z
" transform="scale(0.015625)"/>
       <path id="DejaVuSans-6f" d="M 1959 3097 
Q 1497 3097 1228 2736 
Q 959 2375 959 1747 
Q 959 1119 1226 758 
Q 1494 397 1959 397 
Q 2419 397 2687 759 
Q 2956 1122 2956 1747 
Q 2956 2369 2687 2733 
Q 2419 3097 1959 3097 
z
M 1959 3584 
Q 2709 3584 3137 3096 
Q 3566 2609 3566 1747 
Q 3566 888 3137 398 
Q 2709 -91 1959 -91 
Q 1206 -91 779 398 
Q 353 888 353 1747 
Q 353 2609 779 3096 
Q 1206 3584 1959 3584 
z
" transform="scale(0.015625)"/>
       <path id="DejaVuSans-77" d="M 269 3500 
L 844 3500 
L 1563 769 
L 2278 3500 
L 2956 3500 
L 3675 769 
L 4391 3500 
L 4966 3500 
L 4050 0 
L 3372 0 
L 2619 2869 
L 1863 0 
L 1184 0 
L 269 3500 
z
" transform="scale(0.015625)"/>
       <path id="DejaVuSans-20" transform="scale(0.015625)"/>
       <path id="DejaVuSans-28" d="M 1984 4856 
Q 1566 4138 1362 3434 
Q 1159 2731 1159 2009 
Q 1159 1288 1364 580 
Q 1569 -128 1984 -844 
L 1484 -844 
Q 1016 -109 783 600 
Q 550 1309 550 2009 
Q 550 2706 781 3412 
Q 1013 4119 1484 4856 
L 1984 4856 
z
" transform="scale(0.015625)"/>
       <path id="DejaVuSans-63" d="M 3122 3366 
L 3122 2828 
Q 2878 2963 2633 3030 
Q 2388 3097 2138 3097 
Q 1578 3097 1268 2742 
Q 959 2388 959 1747 
Q 959 1106 1268 751 
Q 1578 397 2138 397 
Q 2388 397 2633 464 
Q 2878 531 3122 666 
L 3122 134 
Q 2881 22 2623 -34 
Q 2366 -91 2075 -91 
Q 1284 -91 818 406 
Q 353 903 353 1747 
Q 353 2603 823 3093 
Q 1294 3584 2113 3584 
Q 2378 3584 2631 3529 
Q 2884 3475 3122 3366 
z
" transform="scale(0.015625)"/>
       <path id="DejaVuSans-73" d="M 2834 3397 
L 2834 2853 
Q 2591 2978 2328 3040 
Q 2066 3103 1784 3103 
Q 1356 3103 1142 2972 
Q 928 2841 928 2578 
Q 928 2378 1081 2264 
Q 1234 2150 1697 2047 
L 1894 2003 
Q 2506 1872 2764 1633 
Q 3022 1394 3022 966 
Q 3022 478 2636 193 
Q 2250 -91 1575 -91 
Q 1294 -91 989 -36 
Q 684 19 347 128 
L 347 722 
Q 666 556 975 473 
Q 1284 391 1588 391 
Q 1994 391 2212 530 
Q 2431 669 2431 922 
Q 2431 1156 2273 1281 
Q 2116 1406 1581 1522 
L 1381 1569 
Q 847 1681 609 1914 
Q 372 2147 372 2553 
Q 372 3047 722 3315 
Q 1072 3584 1716 3584 
Q 2034 3584 2315 3537 
Q 2597 3491 2834 3397 
z
" transform="scale(0.015625)"/>
       <path id="DejaVuSans-29" d="M 513 4856 
L 1013 4856 
Q 1481 4119 1714 3412 
Q 1947 2706 1947 2009 
Q 1947 1309 1714 600 
Q 1481 -109 1013 -844 
L 513 -844 
Q 928 -128 1133 580 
Q 1338 1288 1338 2009 
Q 1338 2731 1133 3434 
Q 928 4138 513 4856 
z
" transform="scale(0.015625)"/>
      </defs>
      <use xlink:href="#DejaVuSans-66"/>
      <use xlink:href="#DejaVuSans-6c" x="35.205078"/>
      <use xlink:href="#DejaVuSans-6f" x="62.988281"/>
      <use xlink:href="#DejaVuSans-77" x="124.169922"/>
      <use xlink:href="#DejaVuSans-20" x="205.957031"/>
      <use xlink:href="#DejaVuSans-28" x="237.744141"/>
      <use xlink:href="#DejaVuSans-63" x="276.757812"/>
      <use xlink:href="#DejaVuSans-6d" x="331.738281"/>
      <use xlink:href="#DejaVuSans-73" x="429.150391"/>
      <use xlink:href="#DejaVuSans-29" x="481.25"/>
     </g>
    </g>
   </g>
   <g id="line2d_11">
    <path d="M 61.669091 116.263636 
L 66.379494 116.166339 
L 67.005428 115.923557 
L 67.273685 115.243892 
L 67.363104 115.298936 
L 67.619439 114.621192 
L 67.924458 113.988738 
L 67.996987 114.331213 
L 68.205632 113.327435 
L 68.528534 112.576502 
L 68.590134 112.992604 
L 68.713334 112.062572 
L 68.792817 111.887897 
L 68.949798 113.326051 
L 69.011397 113.105386 
L 69.439616 111.162417 
L 69.578712 107.210671 
L 69.705886 106.987894 
L 69.76848 107.209185 
L 69.831073 109.244688 
L 69.896647 108.810379 
L 70.024815 107.958752 
L 70.087408 108.514321 
L 70.150001 108.413141 
L 70.274195 107.475093 
L 70.334801 105.054283 
L 70.408323 106.925169 
L 70.481846 106.730289 
L 70.555368 106.170363 
L 70.698439 102.938018 
L 70.902116 101.997723 
L 70.968684 102.340271 
L 71.164412 100.996011 
L 71.35716 101.971493 
L 71.549908 100.248309 
L 71.611508 89.781358 
L 71.681056 91.395443 
L 71.819159 92.951957 
L 71.889701 100.79597 
L 71.950307 100.715597 
L 72.073507 99.504925 
L 72.134113 99.870135 
L 72.206642 99.807353 
L 72.699441 95.280103 
L 72.767002 87.782967 
L 72.83357 94.321714 
L 72.901131 93.81399 
L 73.03526 93.2414 
L 73.100834 93.530211 
L 73.296562 91.345497 
L 73.362136 81.42039 
L 73.42473 89.279339 
L 73.488317 88.899535 
L 73.551904 88.457258 
L 73.615491 89.218535 
L 73.678084 89.067241 
L 73.865864 87.222789 
L 73.998006 65.741607 
L 74.064574 70.464469 
L 74.131141 72.991435 
L 74.267257 91.97874 
L 74.32985 90.559072 
L 74.765024 84.088373 
L 74.82563 75.118404 
L 74.894185 81.439188 
L 74.961746 80.981737 
L 75.096868 80.185072 
L 75.163436 82.500011 
L 75.230997 81.437092 
L 75.368106 80.942591 
L 75.435667 80.240002 
L 75.57079 77.960788 
L 75.638351 77.815675 
L 75.704918 78.841763 
L 75.77248 74.106937 
L 75.839047 74.308524 
L 75.970195 74.20889 
L 76.035769 82.392151 
L 76.102337 81.34406 
L 76.238453 80.629463 
L 76.306014 72.809839 
L 76.372581 84.254237 
L 76.441136 83.727814 
L 76.576258 82.874341 
L 76.7084 62.672532 
L 76.83458 65.209661 
L 76.898167 75.983089 
L 76.963741 68.642989 
L 77.157483 69.078459 
L 77.287638 78.373618 
L 77.354205 78.003423 
L 77.485353 77.625776 
L 77.616501 75.623017 
L 77.746656 75.086277 
L 77.811236 63.042933 
L 77.875817 77.459549 
L 77.941391 77.194862 
L 78.006965 76.857157 
L 78.072539 77.167701 
L 78.13712 57.773651 
L 78.198719 60.953204 
L 78.323906 61.57709 
L 78.449093 80.812321 
L 78.514667 80.260174 
L 78.647802 79.343032 
L 78.713376 68.108803 
L 78.777957 76.140621 
L 78.843531 75.797902 
L 78.909105 75.454164 
L 79.167427 70.410053 
L 79.231014 70.219669 
L 79.294601 74.903486 
L 79.358188 31.136364 
L 79.425749 36.584544 
L 79.560871 45.599011 
L 79.687052 81.387605 
L 79.820187 80.293581 
L 79.887748 73.570019 
L 79.953322 76.869301 
L 80.148057 75.582498 
L 80.339812 64.84729 
L 80.403398 64.752044 
L 80.466985 76.629466 
L 80.530572 76.155671 
L 80.595153 76.457553 
L 80.726301 75.641243 
L 80.917062 60.741954 
L 81.041255 60.741659 
L 81.103849 64.096591 
L 81.165448 51.806073 
L 81.227048 52.149568 
L 81.348261 52.759325 
L 81.409861 68.286611 
L 81.473448 67.291731 
L 81.599628 66.804354 
L 81.726802 81.911522 
L 81.792376 81.37786 
L 81.923524 80.413545 
L 82.180853 72.209911 
L 82.245433 72.530975 
L 82.435201 61.757436 
L 82.497794 61.631325 
L 82.560387 72.171586 
L 82.622981 50.439193 
L 82.684581 52.140502 
L 82.805793 52.391368 
L 82.928993 75.869115 
L 83.122735 74.674675 
L 83.186321 75.409985 
L 83.313495 68.104298 
L 83.377082 67.851894 
L 83.439676 71.783617 
L 83.503263 70.984769 
L 83.69303 69.82601 
L 83.756617 65.043537 
L 83.81921 78.840723 
L 83.883791 78.487257 
L 84.013945 77.864261 
L 84.206693 73.563256 
L 84.333867 73.090001 
L 84.397454 74.913512 
L 84.462035 74.00737 
L 84.590202 73.571213 
L 84.71837 64.45944 
L 84.77997 64.520589 
L 84.905156 64.364419 
L 84.966756 75.743967 
L 85.092937 65.177692 
L 85.218123 65.016187 
L 85.346291 78.829939 
L 85.475452 78.370472 
L 85.603619 69.523947 
L 85.667206 69.587665 
L 85.793387 69.333057 
L 85.85598 73.721994 
L 85.920561 72.351092 
L 86.111322 71.862321 
L 86.174909 73.961738 
L 86.302082 71.374706 
L 86.365669 71.237552 
L 86.49185 76.357219 
L 86.55643 76.054904 
L 86.685591 75.705264 
L 86.877346 71.427823 
L 87.00452 71.201927 
L 87.068107 73.080757 
L 87.132687 72.402297 
L 87.259861 72.197408 
L 87.322454 73.626445 
L 87.386041 72.982098 
L 87.576802 72.691547 
L 87.640389 72.240485 
L 87.703976 72.674217 
L 87.767563 72.628976 
L 87.895731 72.490987 
L 87.959318 76.394786 
L 88.022904 74.144265 
L 88.151072 74.004785 
L 88.215652 75.834003 
L 88.280233 71.571667 
L 88.34382 71.858072 
L 88.47 71.782247 
L 88.533587 73.588331 
L 88.659768 70.720803 
L 88.785948 70.690781 
L 88.848541 75.367337 
L 88.912128 72.486096 
L 89.039302 72.432776 
L 89.102889 73.426649 
L 89.166476 77.679063 
L 89.230063 76.792754 
L 89.359224 76.674694 
L 89.422811 72.040455 
L 89.487392 73.039913 
L 89.677159 72.958455 
L 89.740746 74.403357 
L 89.804333 73.392578 
L 89.931507 73.365284 
L 90.058681 74.75514 
L 90.185855 74.053608 
L 90.249442 74.036566 
L 90.313029 76.362336 
L 90.377609 75.105057 
L 90.569363 75.047249 
L 90.63295 70.923897 
L 90.696537 73.751541 
L 90.887298 73.816848 
L 90.950885 71.388805 
L 91.014472 72.297412 
L 91.141646 72.400962 
L 91.331413 73.674679 
L 91.458587 73.783271 
L 91.522174 75.46621 
L 91.585761 73.833796 
L 91.649348 73.862465 
L 91.777516 73.999595 
L 91.90469 71.635159 
L 91.968277 71.748097 
L 92.031863 71.859222 
L 92.09545 71.666666 
L 92.159037 73.869923 
L 92.223618 73.799195 
L 92.351785 73.995153 
L 92.60812 77.505571 
L 92.672701 77.57223 
L 92.736288 72.774195 
L 92.799875 73.116295 
L 92.928042 73.383683 
L 92.991629 73.856616 
L 93.05621 76.137362 
L 93.119797 76.012925 
L 93.247964 76.229946 
L 93.312545 70.614707 
L 93.376132 72.283167 
L 93.565899 72.823366 
L 93.629486 77.268009 
L 93.693073 75.844007 
L 93.822234 76.120478 
L 93.950401 71.181031 
L 94.203756 72.608758 
L 94.330929 74.727705 
L 94.459097 75.113273 
L 94.522684 74.861044 
L 94.651845 78.097958 
L 94.716425 78.251833 
L 94.845586 71.026645 
L 94.909173 71.629662 
L 95.036347 72.222124 
L 95.292682 76.363497 
L 95.356269 76.592284 
L 95.484437 76.017937 
L 95.549017 76.272125 
L 95.613598 76.524325 
L 95.677185 68.785647 
L 95.740772 73.72032 
L 95.93352 74.875871 
L 95.997106 74.567276 
L 96.127261 78.452623 
L 96.191842 78.710837 
L 96.257416 77.994706 
L 96.385583 71.257567 
L 96.512757 72.240413 
L 96.576344 68.75321 
L 96.704511 77.266173 
L 96.834666 77.997103 
L 96.899246 75.026363 
L 97.028407 79.855111 
L 97.092988 80.186398 
L 97.158562 68.816233 
L 97.222149 70.47778 
L 97.41291 72.718758 
L 97.47749 75.677364 
L 97.541077 62.216803 
L 97.603671 63.607742 
L 97.728858 66.248297 
L 97.791451 75.929243 
L 97.854044 51.859841 
L 97.914651 59.024471 
L 98.234573 84.956769 
L 98.434275 87.631756 
L 98.637952 90.965521 
L 98.773075 78.778618 
L 98.904223 85.462811 
L 98.97079 96.691849 
L 99.039345 88.821275 
L 99.1079 90.586119 
L 99.244016 93.07726 
L 99.313564 102.812936 
L 99.375164 102.325614 
L 99.50035 101.549955 
L 99.562944 100.1607 
L 99.624544 101.584686 
L 99.687137 101.277936 
L 99.812324 100.788019 
L 99.874917 98.980305 
L 99.935524 89.301368 
L 100.005072 91.185791 
L 100.072633 92.660801 
L 100.202788 103.199399 
L 100.389574 102.026215 
L 100.451174 98.365796 
L 100.512774 101.648246 
L 100.575367 101.324286 
L 100.700554 101.026723 
L 100.763148 99.550674 
L 100.825741 101.774135 
L 100.889328 101.616841 
L 101.015508 101.344002 
L 101.079095 100.201685 
L 101.141689 101.314886 
L 101.205276 101.232494 
L 101.268863 101.161006 
L 101.333443 101.259078 
L 101.459624 99.791216 
L 101.585804 100.024409 
L 101.711984 91.652973 
L 101.773584 93.403069 
L 101.896784 95.754487 
L 101.960371 103.811268 
L 102.023958 101.962737 
L 102.214719 101.816272 
L 102.278306 102.077817 
L 102.342886 104.141885 
L 102.407467 103.911477 
L 102.472047 103.700431 
L 102.667776 102.271547 
L 102.800911 102.246329 
L 102.867479 103.177457 
L 102.934046 103.07948 
L 103.068175 102.943559 
L 103.135736 98.13072 
L 103.270858 102.95974 
L 103.406974 102.915705 
L 103.545077 103.468568 
L 103.684174 103.373251 
L 103.824264 102.54041 
L 103.894805 102.617752 
L 103.965347 102.697095 
L 104.034895 101.569993 
L 104.104444 102.076332 
L 104.245527 102.407329 
L 104.316069 99.870188 
L 104.385617 100.391495 
L 104.667784 103.922845 
L 104.728391 104.889044 
L 104.788997 104.820061 
L 104.911203 104.774219 
L 104.972803 105.3054 
L 105.033409 105.161307 
L 105.156609 105.013513 
L 105.279809 103.839678 
L 105.340415 104.412333 
L 105.462621 104.452889 
L 105.524221 104.213351 
L 105.584828 97.049477 
L 105.655369 98.625732 
L 105.725911 99.687323 
L 105.918659 106.647647 
L 106.108426 106.261455 
L 106.2356 106.866367 
L 106.299187 106.72945 
L 106.363768 106.601771 
L 106.490942 103.934626 
L 106.553535 104.067818 
L 106.740322 104.695541 
L 106.803909 106.192229 
L 106.867496 106.16991 
L 106.932076 106.131004 
L 107.060244 106.353892 
L 107.123831 106.746742 
L 107.188411 106.680986 
L 107.252992 106.618372 
L 107.317572 103.71967 
L 107.381159 106.747558 
L 107.44574 106.617752 
L 107.575894 106.545619 
L 107.640475 103.093392 
L 107.767649 106.004597 
L 107.833223 106.047573 
L 107.897803 103.818484 
L 107.96139 104.725894 
L 108.154138 105.343158 
L 108.283299 107.251947 
L 108.349867 107.194825 
L 108.415441 107.159898 
L 108.482008 107.301882 
L 108.613156 105.043324 
L 108.742317 105.479462 
L 108.807891 104.780999 
L 108.872472 102.650286 
L 108.936059 103.416586 
L 109.063233 104.427751 
L 109.195374 109.37626 
L 109.332484 109.050691 
L 109.401039 106.606567 
L 109.4686 107.22133 
L 109.603722 107.332672 
L 109.67029 107.663966 
L 109.803425 104.285966 
L 109.933579 105.202519 
L 110.066715 109.667515 
L 110.205811 109.365284 
L 110.275359 108.507029 
L 110.343914 108.592238 
L 110.481023 108.310788 
L 110.550572 108.300539 
L 110.688674 109.528771 
L 110.828764 109.331933 
L 110.899306 108.979114 
L 110.967861 105.040806 
L 111.034429 105.568394 
L 111.167564 106.120589 
L 111.235125 110.275371 
L 111.305667 110.096038 
L 111.448737 109.861308 
L 111.519279 106.621165 
L 111.587834 107.147024 
L 111.724943 107.546971 
L 111.793498 108.206081 
L 111.862053 106.204919 
L 111.929614 106.634621 
L 112.06573 107.262428 
L 112.135278 110.896076 
L 112.206813 110.714568 
L 112.349884 110.460894 
L 112.420426 109.715869 
L 112.491961 110.605122 
L 112.56449 110.511064 
L 113.147701 109.839086 
L 113.22023 109.826788 
L 113.292759 109.384548 
L 113.364294 106.032105 
L 113.432849 106.589395 
L 113.502397 107.046627 
L 113.642487 110.968763 
L 113.791519 110.803914 
L 113.866035 110.490167 
L 113.940551 110.899175 
L 114.015067 110.82163 
L 114.089583 110.761256 
L 114.15019 110.167493 
L 114.223712 106.696397 
L 114.294254 107.263075 
L 114.650937 108.762918 
L 114.723466 108.993159 
L 114.870511 111.459873 
L 115.020536 111.306906 
L 115.095052 108.78522 
L 115.168574 109.024963 
L 115.314626 109.452827 
L 115.388148 111.634627 
L 115.448754 109.589406 
L 115.52327 109.792564 
L 115.928637 110.41492 
L 115.989244 110.372584 
L 116.172056 110.621029 
L 116.233656 111.194966 
L 116.295256 111.173965 
L 116.356856 110.699819 
L 116.418456 110.735317 
L 116.541655 110.843709 
L 116.603255 112.923475 
L 116.667836 112.687542 
L 116.796997 112.501471 
L 116.862571 112.556388 
L 116.927151 111.584227 
L 116.990738 111.629558 
L 117.116919 111.612119 
L 117.179512 111.374898 
L 117.242105 110.229805 
L 117.303705 110.394653 
L 117.365305 110.531076 
L 117.426905 111.031049 
L 117.488505 110.746468 
L 117.676285 110.978872 
L 117.801472 113.019552 
L 117.93262 112.844229 
L 117.999188 112.774584 
L 118.065755 111.422985 
L 118.130336 112.811342 
L 118.196903 112.72635 
L 118.262477 112.671021 
L 118.393625 110.261507 
L 118.519806 110.727655 
L 118.582399 110.877394 
L 118.710567 113.054977 
L 118.911263 112.903011 
L 118.977831 112.729588 
L 119.044398 112.766447 
L 119.177533 112.708895 
L 119.309675 110.541212 
L 119.433868 110.927492 
L 119.496462 111.089841 
L 119.559055 112.328039 
L 119.622642 111.297679 
L 119.686229 111.444926 
L 119.749816 111.562723 
L 119.813403 112.132234 
L 119.877983 112.086607 
L 119.943558 111.787847 
L 120.009132 111.861887 
L 120.074706 111.946673 
L 120.207841 113.777211 
L 120.347931 113.627834 
L 120.70064 113.426086 
L 120.836756 111.531346 
L 120.968897 111.809101 
L 121.035465 113.108574 
L 121.10402 113.072014 
L 121.312664 113.234602 
L 121.382212 113.642277 
L 121.451761 113.564871 
L 121.878986 113.495243 
L 122.019076 111.783664 
L 122.086637 111.951005 
L 122.154198 112.10263 
L 122.292301 113.784769 
L 122.726481 113.701675 
L 122.798016 113.213752 
L 122.868558 114.028824 
L 122.940093 113.867619 
L 123.381227 113.770577 
L 123.524298 112.176001 
L 123.663395 112.487211 
L 123.732943 112.949921 
L 123.803485 112.742031 
L 123.946555 112.955692 
L 124.018091 113.337167 
L 124.090619 113.131015 
L 124.52778 113.53847 
L 124.601302 114.226593 
L 124.676812 113.527066 
L 124.751328 113.648474 
L 125.203391 113.897703 
L 125.279894 114.885594 
L 125.358384 114.789131 
L 125.436875 114.756839 
L 125.515365 114.483575 
L 125.593855 113.765123 
L 125.670358 113.817371 
L 125.746861 113.872723 
L 125.823364 114.33034 
L 125.900861 113.942943 
L 125.978357 113.997728 
L 126.055854 114.041942 
L 126.133351 114.966128 
L 126.193957 114.87102 
L 126.317157 114.840131 
L 126.378756 114.585521 
L 126.439363 114.949394 
L 126.500963 114.915131 
L 126.933155 114.76147 
L 126.995749 114.496427 
L 127.056355 114.800243 
L 127.117955 114.771111 
L 127.242148 114.770145 
L 127.304742 114.522181 
L 127.365348 113.750817 
L 127.443838 113.907101 
L 127.522328 113.997233 
L 127.600818 114.767095 
L 127.661425 114.026568 
L 127.740908 114.162391 
L 127.801515 114.215161 
L 127.880998 114.466096 
L 127.941605 115.109737 
L 128.004198 115.047793 
L 128.132366 115.036624 
L 128.195952 114.871159 
L 128.259539 114.214827 
L 128.322133 114.323056 
L 128.754325 114.604134 
L 128.880506 115.22845 
L 129.012647 115.205907 
L 129.079215 114.900408 
L 129.144789 115.096781 
L 129.343498 115.088824 
L 129.410066 115.244823 
L 129.476634 115.184556 
L 129.674349 115.27241 
L 129.740917 114.570476 
L 129.806491 114.688408 
L 130.262529 114.955477 
L 130.329096 115.525999 
L 130.398644 115.490566 
L 130.539728 115.480741 
L 130.678824 114.939836 
L 131.154733 115.152243 
L 131.223288 115.566175 
L 131.292836 115.544474 
L 131.435907 115.541961 
L 131.507442 115.147521 
L 131.577984 115.170395 
L 131.718074 115.218812 
L 131.860151 115.65816 
L 132.083699 115.567317 
L 132.157221 115.312434 
L 132.22975 115.354279 
L 132.302279 115.371199 
L 132.374808 115.582556 
L 132.44833 115.54882 
L 132.66691 115.663585 
L 132.741426 115.302654 
L 132.813955 115.360464 
L 133.180574 115.469868 
L 133.407102 115.813821 
L 133.483605 115.813168 
L 133.562096 115.623989 
L 133.638599 115.722997 
L 134.186043 115.59357 
L 134.42052 115.608732 
L 134.49901 115.707129 
L 134.578493 115.636896 
L 135.054402 115.789898 
L 135.218337 115.954827 
L 135.300802 115.956645 
L 135.468711 115.767985 
L 135.634633 115.800253 
L 135.804529 115.971637 
L 144.912368 116.168227 
L 145.538302 116.184426 
L 145.985398 116.194424 
L 147.8632 116.178246 
L 148.220877 116.193024 
L 148.93623 116.182735 
L 170.575667 116.229916 
L 172.006373 116.238834 
L 179.607002 116.2329 
L 211.976738 116.250603 
L 215.732342 116.255091 
L 293.258754 116.259366 
L 340.650909 116.261722 
L 340.650909 116.261722 
" clip-path="url(#p80b6b1dfbf)" style="fill: none; stroke: #1f77b4; stroke-width: 1.5; stroke-linecap: square"/>
   </g>
   <g id="patch_3">
    <path d="M 47.72 120.52 
L 47.72 26.88 
" style="fill: none; stroke: #000000; stroke-width: 0.8; stroke-linejoin: miter; stroke-linecap: square"/>
   </g>
   <g id="patch_4">
    <path d="M 354.6 120.52 
L 354.6 26.88 
" style="fill: none; stroke: #000000; stroke-width: 0.8; stroke-linejoin: miter; stroke-linecap: square"/>
   </g>
   <g id="patch_5">
    <path d="M 47.72 120.52 
L 354.6 120.52 
" style="fill: none; stroke: #000000; stroke-width: 0.8; stroke-linejoin: miter; stroke-linecap: square"/>
   </g>
   <g id="patch_6">
    <path d="M 47.72 26.88 
L 354.6 26.88 
" style="fill: none; stroke: #000000; stroke-width: 0.8; stroke-linejoin: miter; stroke-linecap: square"/>
   </g>
   <g id="text_6">
    <!-- 1 -->
    <g transform="translate(195.6628 50.3762) scale(0.1728 -0.1728)">
     <defs>
      <path id="DejaVuSans-31" d="M 794 531 
L 1825 531 
L 1825 4091 
L 703 3866 
L 703 4441 
L 1819 4666 
L 2450 4666 
L 2450 531 
L 3481 531 
L 3481 0 
L 794 0 
L 794 531 
z
" transform="scale(0.015625)"/>
     </defs>
     <use xlink:href="#DejaVuSans-31"/>
    </g>
   </g>
   <g id="text_7">
    <!-- flows -->
    <g transform="translate(185.677187 20.88) scale(0.12 -0.12)">
     <use xlink:href="#DejaVuSans-66"/>
     <use xlink:href="#DejaVuSans-6c" x="35.205078"/>
     <use xlink:href="#DejaVuSans-6f" x="62.988281"/>
     <use xlink:href="#DejaVuSans-77" x="124.169922"/>
     <use xlink:href="#DejaVuSans-73" x="205.957031"/>
    </g>
   </g>
  </g>
  <g id="axes_2">
   <g id="patch_7">
    <path d="M 402.32 120.52 
L 709.2 120.52 
L 709.2 26.88 
L 402.32 26.88 
z
" style="fill: #ffffff"/>
   </g>
   <g id="matplotlib.axis_3">
    <g id="xtick_8">
     <g id="line2d_12">
      <g>
       <use xlink:href="#m6b944caacf" x="416.269091" y="120.52" style="stroke: #000000; stroke-width: 0.8"/>
      </g>
     </g>
    </g>
    <g id="xtick_9">
     <g id="line2d_13">
      <g>
       <use xlink:href="#m6b944caacf" x="459.190288" y="120.52" style="stroke: #000000; stroke-width: 0.8"/>
      </g>
     </g>
    </g>
    <g id="xtick_10">
     <g id="line2d_14">
      <g>
       <use xlink:href="#m6b944caacf" x="502.111485" y="120.52" style="stroke: #000000; stroke-width: 0.8"/>
      </g>
     </g>
    </g>
    <g id="xtick_11">
     <g id="line2d_15">
      <g>
       <use xlink:href="#m6b944caacf" x="545.032681" y="120.52" style="stroke: #000000; stroke-width: 0.8"/>
      </g>
     </g>
    </g>
    <g id="xtick_12">
     <g id="line2d_16">
      <g>
       <use xlink:href="#m6b944caacf" x="587.953878" y="120.52" style="stroke: #000000; stroke-width: 0.8"/>
      </g>
     </g>
    </g>
    <g id="xtick_13">
     <g id="line2d_17">
      <g>
       <use xlink:href="#m6b944caacf" x="630.875075" y="120.52" style="stroke: #000000; stroke-width: 0.8"/>
      </g>
     </g>
    </g>
    <g id="xtick_14">
     <g id="line2d_18">
      <g>
       <use xlink:href="#m6b944caacf" x="673.796272" y="120.52" style="stroke: #000000; stroke-width: 0.8"/>
      </g>
     </g>
    </g>
    <g id="text_8">
     <!-- time -->
     <g transform="translate(544.463906 139.118437) scale(0.1 -0.1)">
      <use xlink:href="#DejaVuSans-74"/>
      <use xlink:href="#DejaVuSans-69" x="39.208984"/>
      <use xlink:href="#DejaVuSans-6d" x="66.992188"/>
      <use xlink:href="#DejaVuSans-65" x="164.404297"/>
     </g>
    </g>
   </g>
   <g id="matplotlib.axis_4">
    <g id="ytick_4">
     <g id="line2d_19">
      <g>
       <use xlink:href="#me6d3345088" x="402.32" y="116.263636" style="stroke: #000000; stroke-width: 0.8"/>
      </g>
     </g>
     <g id="text_9">
      <!-- 0.00 -->
      <g transform="translate(373.054375 120.062855) scale(0.1 -0.1)">
       <use xlink:href="#DejaVuSans-30"/>
       <use xlink:href="#DejaVuSans-2e" x="63.623047"/>
       <use xlink:href="#DejaVuSans-30" x="95.410156"/>
       <use xlink:href="#DejaVuSans-30" x="159.033203"/>
      </g>
     </g>
    </g>
    <g id="ytick_5">
     <g id="line2d_20">
      <g>
       <use xlink:href="#me6d3345088" x="402.32" y="88.068773" style="stroke: #000000; stroke-width: 0.8"/>
      </g>
     </g>
     <g id="text_10">
      <!-- 0.25 -->
      <g transform="translate(373.054375 91.867992) scale(0.1 -0.1)">
       <defs>
        <path id="DejaVuSans-35" d="M 691 4666 
L 3169 4666 
L 3169 4134 
L 1269 4134 
L 1269 2991 
Q 1406 3038 1543 3061 
Q 1681 3084 1819 3084 
Q 2600 3084 3056 2656 
Q 3513 2228 3513 1497 
Q 3513 744 3044 326 
Q 2575 -91 1722 -91 
Q 1428 -91 1123 -41 
Q 819 9 494 109 
L 494 744 
Q 775 591 1075 516 
Q 1375 441 1709 441 
Q 2250 441 2565 725 
Q 2881 1009 2881 1497 
Q 2881 1984 2565 2268 
Q 2250 2553 1709 2553 
Q 1456 2553 1204 2497 
Q 953 2441 691 2322 
L 691 4666 
z
" transform="scale(0.015625)"/>
       </defs>
       <use xlink:href="#DejaVuSans-30"/>
       <use xlink:href="#DejaVuSans-2e" x="63.623047"/>
       <use xlink:href="#DejaVuSans-32" x="95.410156"/>
       <use xlink:href="#DejaVuSans-35" x="159.033203"/>
      </g>
     </g>
    </g>
    <g id="ytick_6">
     <g id="line2d_21">
      <g>
       <use xlink:href="#me6d3345088" x="402.32" y="59.87391" style="stroke: #000000; stroke-width: 0.8"/>
      </g>
     </g>
     <g id="text_11">
      <!-- 0.50 -->
      <g transform="translate(373.054375 63.673129) scale(0.1 -0.1)">
       <use xlink:href="#DejaVuSans-30"/>
       <use xlink:href="#DejaVuSans-2e" x="63.623047"/>
       <use xlink:href="#DejaVuSans-35" x="95.410156"/>
       <use xlink:href="#DejaVuSans-30" x="159.033203"/>
      </g>
     </g>
    </g>
    <g id="ytick_7">
     <g id="line2d_22">
      <g>
       <use xlink:href="#me6d3345088" x="402.32" y="31.679047" style="stroke: #000000; stroke-width: 0.8"/>
      </g>
     </g>
     <g id="text_12">
      <!-- 0.75 -->
      <g transform="translate(373.054375 35.478266) scale(0.1 -0.1)">
       <defs>
        <path id="DejaVuSans-37" d="M 525 4666 
L 3525 4666 
L 3525 4397 
L 1831 0 
L 1172 0 
L 2766 4134 
L 525 4134 
L 525 4666 
z
" transform="scale(0.015625)"/>
       </defs>
       <use xlink:href="#DejaVuSans-30"/>
       <use xlink:href="#DejaVuSans-2e" x="63.623047"/>
       <use xlink:href="#DejaVuSans-37" x="95.410156"/>
       <use xlink:href="#DejaVuSans-35" x="159.033203"/>
      </g>
     </g>
    </g>
    <g id="text_13">
     <!-- depth (m) -->
     <g transform="translate(366.974687 98.614844) rotate(-90) scale(0.1 -0.1)">
      <defs>
       <path id="DejaVuSans-64" d="M 2906 2969 
L 2906 4863 
L 3481 4863 
L 3481 0 
L 2906 0 
L 2906 525 
Q 2725 213 2448 61 
Q 2172 -91 1784 -91 
Q 1150 -91 751 415 
Q 353 922 353 1747 
Q 353 2572 751 3078 
Q 1150 3584 1784 3584 
Q 2172 3584 2448 3432 
Q 2725 3281 2906 2969 
z
M 947 1747 
Q 947 1113 1208 752 
Q 1469 391 1925 391 
Q 2381 391 2643 752 
Q 2906 1113 2906 1747 
Q 2906 2381 2643 2742 
Q 2381 3103 1925 3103 
Q 1469 3103 1208 2742 
Q 947 2381 947 1747 
z
" transform="scale(0.015625)"/>
       <path id="DejaVuSans-70" d="M 1159 525 
L 1159 -1331 
L 581 -1331 
L 581 3500 
L 1159 3500 
L 1159 2969 
Q 1341 3281 1617 3432 
Q 1894 3584 2278 3584 
Q 2916 3584 3314 3078 
Q 3713 2572 3713 1747 
Q 3713 922 3314 415 
Q 2916 -91 2278 -91 
Q 1894 -91 1617 61 
Q 1341 213 1159 525 
z
M 3116 1747 
Q 3116 2381 2855 2742 
Q 2594 3103 2138 3103 
Q 1681 3103 1420 2742 
Q 1159 2381 1159 1747 
Q 1159 1113 1420 752 
Q 1681 391 2138 391 
Q 2594 391 2855 752 
Q 3116 1113 3116 1747 
z
" transform="scale(0.015625)"/>
       <path id="DejaVuSans-68" d="M 3513 2113 
L 3513 0 
L 2938 0 
L 2938 2094 
Q 2938 2591 2744 2837 
Q 2550 3084 2163 3084 
Q 1697 3084 1428 2787 
Q 1159 2491 1159 1978 
L 1159 0 
L 581 0 
L 581 4863 
L 1159 4863 
L 1159 2956 
Q 1366 3272 1645 3428 
Q 1925 3584 2291 3584 
Q 2894 3584 3203 3211 
Q 3513 2838 3513 2113 
z
" transform="scale(0.015625)"/>
      </defs>
      <use xlink:href="#DejaVuSans-64"/>
      <use xlink:href="#DejaVuSans-65" x="63.476562"/>
      <use xlink:href="#DejaVuSans-70" x="125"/>
      <use xlink:href="#DejaVuSans-74" x="188.476562"/>
      <use xlink:href="#DejaVuSans-68" x="227.685547"/>
      <use xlink:href="#DejaVuSans-20" x="291.064453"/>
      <use xlink:href="#DejaVuSans-28" x="322.851562"/>
      <use xlink:href="#DejaVuSans-6d" x="361.865234"/>
      <use xlink:href="#DejaVuSans-29" x="459.277344"/>
     </g>
    </g>
   </g>
   <g id="line2d_23">
    <path d="M 416.269091 116.263636 
L 420.711236 116.155713 
L 421.33717 115.791001 
L 422.37642 114.736593 
L 423.611397 113.291328 
L 424.242299 112.072365 
L 424.36848 111.934894 
L 426.149908 107.713278 
L 426.419159 108.479271 
L 428.088317 104.064206 
L 428.528458 103.050384 
L 428.797709 104.815273 
L 429.295475 102.186434 
L 429.561746 101.602162 
L 430.770892 98.976077 
L 431.24382 96.482222 
L 431.498167 97.642099 
L 431.628322 97.673177 
L 431.822063 97.747559 
L 432.346656 95.227997 
L 432.475817 94.744782 
L 432.672539 93.60713 
L 432.9865 94.762719 
L 433.049093 94.613969 
L 433.509105 91.402484 
L 433.894601 89.750898 
L 434.09331 92.75813 
L 434.160871 93.657576 
L 434.222471 93.424968 
L 434.813631 87.788929 
L 435.066985 87.259053 
L 435.455462 84.365656 
L 435.517062 84.373592 
L 435.641255 84.370711 
L 435.703849 84.071118 
L 435.948261 85.335337 
L 436.262222 83.731976 
L 436.973601 76.087403 
L 437.222981 75.168742 
L 437.284581 75.34956 
L 437.405793 75.672871 
L 437.528993 74.646787 
L 438.103263 68.701003 
L 438.678526 62.770955 
L 439.31837 57.067474 
L 439.818123 55.259518 
L 441.859861 39.576542 
L 442.559318 36.311255 
L 443.006413 34.690506 
L 443.448541 34.01912 
L 443.830063 33.180864 
L 444.149985 32.319538 
L 445.296537 31.253848 
L 445.550885 31.644483 
L 446.312935 34.183717 
L 446.631863 35.911319 
L 447.14354 38.669913 
L 447.399875 40.094185 
L 448.550401 49.157921 
L 449.316425 56.241567 
L 449.636347 59.786569 
L 450.791842 71.941143 
L 451.04917 75.327963 
L 451.628407 82.129822 
L 451.885736 85.484942 
L 452.391451 94.405034 
L 452.701437 100.969395 
L 453.237952 104.391772 
L 453.373075 105.705946 
L 453.639345 107.651914 
L 453.844016 108.529321 
L 454.474917 107.383655 
L 454.742181 108.621197 
L 455.175367 108.041405 
L 455.615508 107.761303 
L 455.741689 107.783276 
L 455.933443 107.704514 
L 456.311984 108.29829 
L 456.560371 109.187506 
L 457.007467 108.882864 
L 457.267776 108.714876 
L 458.565347 108.640824 
L 459.267784 109.497042 
L 459.818209 109.234141 
L 460.002015 109.304411 
L 460.124221 109.325904 
L 460.457059 110.308158 
L 460.963768 109.8863 
L 461.090942 109.932182 
L 461.403909 110.100207 
L 462.175894 109.987862 
L 462.367649 110.133753 
L 462.56139 110.267985 
L 462.883299 110.46669 
L 463.148576 110.43331 
L 463.599646 111.200735 
L 463.727813 111.309814 
L 464.001039 111.034136 
L 464.337851 111.132145 
L 464.599153 111.59564 
L 464.943914 111.379853 
L 465.358223 111.239527 
L 465.499306 111.162196 
L 465.767564 111.662559 
L 465.835125 111.625613 
L 466.119279 111.488783 
L 466.66573 112.145121 
L 466.735278 112.08121 
L 467.16449 111.78835 
L 467.529121 111.675672 
L 467.892759 111.634446 
L 468.170952 112.191522 
L 468.75019 111.91853 
L 469.395995 112.715618 
L 469.695052 112.620913 
L 470.12327 112.954621 
L 470.71145 113.216283 
L 471.141655 113.316964 
L 471.590738 113.041294 
L 471.842105 113.117018 
L 472.338878 113.392231 
L 472.993625 113.165052 
L 473.244993 113.356155 
L 473.777533 113.148349 
L 473.909675 113.228424 
L 474.349816 113.592518 
L 474.807841 113.710778 
L 475.30064 113.474487 
L 475.842122 113.701457 
L 476.686637 113.749584 
L 476.892301 113.810699 
L 477.687138 113.729571 
L 478.053756 113.756007 
L 478.546555 114.15405 
L 479.803391 114.570179 
L 480.270358 114.535841 
L 480.793957 114.618143 
L 481.717955 114.502609 
L 482.043838 114.58527 
L 482.541605 114.750287 
L 482.982739 114.809531 
L 483.54608 114.92288 
L 484.340917 114.949811 
L 484.998644 115.09905 
L 485.413947 115.154858 
L 486.318074 115.285597 
L 487.633529 115.42156 
L 488.469101 115.477933 
L 489.573925 115.637991 
L 491.554062 115.776713 
L 501.837266 116.071784 
L 527.053469 116.149934 
L 586.338372 116.213247 
L 695.250909 116.244558 
L 695.250909 116.244558 
" clip-path="url(#p4ac865050d)" style="fill: none; stroke: #1f77b4; stroke-width: 1.5; stroke-linecap: square"/>
   </g>
   <g id="patch_8">
    <path d="M 402.32 120.52 
L 402.32 26.88 
" style="fill: none; stroke: #000000; stroke-width: 0.8; stroke-linejoin: miter; stroke-linecap: square"/>
   </g>
   <g id="patch_9">
    <path d="M 709.2 120.52 
L 709.2 26.88 
" style="fill: none; stroke: #000000; stroke-width: 0.8; stroke-linejoin: miter; stroke-linecap: square"/>
   </g>
   <g id="patch_10">
    <path d="M 402.32 120.52 
L 709.2 120.52 
" style="fill: none; stroke: #000000; stroke-width: 0.8; stroke-linejoin: miter; stroke-linecap: square"/>
   </g>
   <g id="patch_11">
    <path d="M 402.32 26.88 
L 709.2 26.88 
" style="fill: none; stroke: #000000; stroke-width: 0.8; stroke-linejoin: miter; stroke-linecap: square"/>
   </g>
   <g id="text_14">
    <!-- ('P1', 'depthN') -->
    <g transform="translate(491.7079 50.3762) scale(0.1728 -0.1728)">
     <defs>
      <path id="DejaVuSans-27" d="M 1147 4666 
L 1147 2931 
L 616 2931 
L 616 4666 
L 1147 4666 
z
" transform="scale(0.015625)"/>
      <path id="DejaVuSans-50" d="M 1259 4147 
L 1259 2394 
L 2053 2394 
Q 2494 2394 2734 2622 
Q 2975 2850 2975 3272 
Q 2975 3691 2734 3919 
Q 2494 4147 2053 4147 
L 1259 4147 
z
M 628 4666 
L 2053 4666 
Q 2838 4666 3239 4311 
Q 3641 3956 3641 3272 
Q 3641 2581 3239 2228 
Q 2838 1875 2053 1875 
L 1259 1875 
L 1259 0 
L 628 0 
L 628 4666 
z
" transform="scale(0.015625)"/>
      <path id="DejaVuSans-2c" d="M 750 794 
L 1409 794 
L 1409 256 
L 897 -744 
L 494 -744 
L 750 256 
L 750 794 
z
" transform="scale(0.015625)"/>
      <path id="DejaVuSans-4e" d="M 628 4666 
L 1478 4666 
L 3547 763 
L 3547 4666 
L 4159 4666 
L 4159 0 
L 3309 0 
L 1241 3903 
L 1241 0 
L 628 0 
L 628 4666 
z
" transform="scale(0.015625)"/>
     </defs>
     <use xlink:href="#DejaVuSans-28"/>
     <use xlink:href="#DejaVuSans-27" x="39.013672"/>
     <use xlink:href="#DejaVuSans-50" x="66.503906"/>
     <use xlink:href="#DejaVuSans-31" x="126.806641"/>
     <use xlink:href="#DejaVuSans-27" x="190.429688"/>
     <use xlink:href="#DejaVuSans-2c" x="217.919922"/>
     <use xlink:href="#DejaVuSans-20" x="249.707031"/>
     <use xlink:href="#DejaVuSans-27" x="281.494141"/>
     <use xlink:href="#DejaVuSans-64" x="308.984375"/>
     <use xlink:href="#DejaVuSans-65" x="372.460938"/>
     <use xlink:href="#DejaVuSans-70" x="433.984375"/>
     <use xlink:href="#DejaVuSans-74" x="497.460938"/>
     <use xlink:href="#DejaVuSans-68" x="536.669922"/>
     <use xlink:href="#DejaVuSans-4e" x="600.048828"/>
     <use xlink:href="#DejaVuSans-27" x="674.853516"/>
     <use xlink:href="#DejaVuSans-29" x="702.34375"/>
    </g>
   </g>
   <g id="text_15">
    <!-- depths -->
    <g transform="translate(535.169687 20.88) scale(0.12 -0.12)">
     <use xlink:href="#DejaVuSans-64"/>
     <use xlink:href="#DejaVuSans-65" x="63.476562"/>
     <use xlink:href="#DejaVuSans-70" x="125"/>
     <use xlink:href="#DejaVuSans-74" x="188.476562"/>
     <use xlink:href="#DejaVuSans-68" x="227.685547"/>
     <use xlink:href="#DejaVuSans-73" x="291.064453"/>
    </g>
   </g>
  </g>
  <g id="axes_3">
   <g id="patch_12">
    <path d="M 47.72 246.04 
L 354.6 246.04 
L 354.6 152.4 
L 47.72 152.4 
z
" style="fill: #ffffff"/>
   </g>
   <g id="matplotlib.axis_5">
    <g id="xtick_15">
     <g id="line2d_24">
      <g>
       <use xlink:href="#m6b944caacf" x="61.669091" y="246.04" style="stroke: #000000; stroke-width: 0.8"/>
      </g>
     </g>
     <g id="text_16">
      <!-- 02-25 00 -->
      <g transform="translate(39.188622 260.638437) scale(0.1 -0.1)">
       <defs>
        <path id="DejaVuSans-2d" d="M 313 2009 
L 1997 2009 
L 1997 1497 
L 313 1497 
L 313 2009 
z
" transform="scale(0.015625)"/>
       </defs>
       <use xlink:href="#DejaVuSans-30"/>
       <use xlink:href="#DejaVuSans-32" x="63.623047"/>
       <use xlink:href="#DejaVuSans-2d" x="127.246094"/>
       <use xlink:href="#DejaVuSans-32" x="163.330078"/>
       <use xlink:href="#DejaVuSans-35" x="226.953125"/>
       <use xlink:href="#DejaVuSans-20" x="290.576172"/>
       <use xlink:href="#DejaVuSans-30" x="322.363281"/>
       <use xlink:href="#DejaVuSans-30" x="385.986328"/>
      </g>
     </g>
    </g>
    <g id="xtick_16">
     <g id="line2d_25">
      <g>
       <use xlink:href="#m6b944caacf" x="104.590288" y="246.04" style="stroke: #000000; stroke-width: 0.8"/>
      </g>
     </g>
     <g id="text_17">
      <!-- 02-25 12 -->
      <g transform="translate(82.109819 260.638437) scale(0.1 -0.1)">
       <use xlink:href="#DejaVuSans-30"/>
       <use xlink:href="#DejaVuSans-32" x="63.623047"/>
       <use xlink:href="#DejaVuSans-2d" x="127.246094"/>
       <use xlink:href="#DejaVuSans-32" x="163.330078"/>
       <use xlink:href="#DejaVuSans-35" x="226.953125"/>
       <use xlink:href="#DejaVuSans-20" x="290.576172"/>
       <use xlink:href="#DejaVuSans-31" x="322.363281"/>
       <use xlink:href="#DejaVuSans-32" x="385.986328"/>
      </g>
     </g>
    </g>
    <g id="xtick_17">
     <g id="line2d_26">
      <g>
       <use xlink:href="#m6b944caacf" x="147.511485" y="246.04" style="stroke: #000000; stroke-width: 0.8"/>
      </g>
     </g>
     <g id="text_18">
      <!-- 02-26 00 -->
      <g transform="translate(125.031016 260.638437) scale(0.1 -0.1)">
       <defs>
        <path id="DejaVuSans-36" d="M 2113 2584 
Q 1688 2584 1439 2293 
Q 1191 2003 1191 1497 
Q 1191 994 1439 701 
Q 1688 409 2113 409 
Q 2538 409 2786 701 
Q 3034 994 3034 1497 
Q 3034 2003 2786 2293 
Q 2538 2584 2113 2584 
z
M 3366 4563 
L 3366 3988 
Q 3128 4100 2886 4159 
Q 2644 4219 2406 4219 
Q 1781 4219 1451 3797 
Q 1122 3375 1075 2522 
Q 1259 2794 1537 2939 
Q 1816 3084 2150 3084 
Q 2853 3084 3261 2657 
Q 3669 2231 3669 1497 
Q 3669 778 3244 343 
Q 2819 -91 2113 -91 
Q 1303 -91 875 529 
Q 447 1150 447 2328 
Q 447 3434 972 4092 
Q 1497 4750 2381 4750 
Q 2619 4750 2861 4703 
Q 3103 4656 3366 4563 
z
" transform="scale(0.015625)"/>
       </defs>
       <use xlink:href="#DejaVuSans-30"/>
       <use xlink:href="#DejaVuSans-32" x="63.623047"/>
       <use xlink:href="#DejaVuSans-2d" x="127.246094"/>
       <use xlink:href="#DejaVuSans-32" x="163.330078"/>
       <use xlink:href="#DejaVuSans-36" x="226.953125"/>
       <use xlink:href="#DejaVuSans-20" x="290.576172"/>
       <use xlink:href="#DejaVuSans-30" x="322.363281"/>
       <use xlink:href="#DejaVuSans-30" x="385.986328"/>
      </g>
     </g>
    </g>
    <g id="xtick_18">
     <g id="line2d_27">
      <g>
       <use xlink:href="#m6b944caacf" x="190.432681" y="246.04" style="stroke: #000000; stroke-width: 0.8"/>
      </g>
     </g>
     <g id="text_19">
      <!-- 02-26 12 -->
      <g transform="translate(167.952213 260.638437) scale(0.1 -0.1)">
       <use xlink:href="#DejaVuSans-30"/>
       <use xlink:href="#DejaVuSans-32" x="63.623047"/>
       <use xlink:href="#DejaVuSans-2d" x="127.246094"/>
       <use xlink:href="#DejaVuSans-32" x="163.330078"/>
       <use xlink:href="#DejaVuSans-36" x="226.953125"/>
       <use xlink:href="#DejaVuSans-20" x="290.576172"/>
       <use xlink:href="#DejaVuSans-31" x="322.363281"/>
       <use xlink:href="#DejaVuSans-32" x="385.986328"/>
      </g>
     </g>
    </g>
    <g id="xtick_19">
     <g id="line2d_28">
      <g>
       <use xlink:href="#m6b944caacf" x="233.353878" y="246.04" style="stroke: #000000; stroke-width: 0.8"/>
      </g>
     </g>
     <g id="text_20">
      <!-- 02-27 00 -->
      <g transform="translate(210.87341 260.638437) scale(0.1 -0.1)">
       <use xlink:href="#DejaVuSans-30"/>
       <use xlink:href="#DejaVuSans-32" x="63.623047"/>
       <use xlink:href="#DejaVuSans-2d" x="127.246094"/>
       <use xlink:href="#DejaVuSans-32" x="163.330078"/>
       <use xlink:href="#DejaVuSans-37" x="226.953125"/>
       <use xlink:href="#DejaVuSans-20" x="290.576172"/>
       <use xlink:href="#DejaVuSans-30" x="322.363281"/>
       <use xlink:href="#DejaVuSans-30" x="385.986328"/>
      </g>
     </g>
    </g>
    <g id="xtick_20">
     <g id="line2d_29">
      <g>
       <use xlink:href="#m6b944caacf" x="276.275075" y="246.04" style="stroke: #000000; stroke-width: 0.8"/>
      </g>
     </g>
     <g id="text_21">
      <!-- 02-27 12 -->
      <g transform="translate(253.794606 260.638437) scale(0.1 -0.1)">
       <use xlink:href="#DejaVuSans-30"/>
       <use xlink:href="#DejaVuSans-32" x="63.623047"/>
       <use xlink:href="#DejaVuSans-2d" x="127.246094"/>
       <use xlink:href="#DejaVuSans-32" x="163.330078"/>
       <use xlink:href="#DejaVuSans-37" x="226.953125"/>
       <use xlink:href="#DejaVuSans-20" x="290.576172"/>
       <use xlink:href="#DejaVuSans-31" x="322.363281"/>
       <use xlink:href="#DejaVuSans-32" x="385.986328"/>
      </g>
     </g>
    </g>
    <g id="xtick_21">
     <g id="line2d_30">
      <g>
       <use xlink:href="#m6b944caacf" x="319.196272" y="246.04" style="stroke: #000000; stroke-width: 0.8"/>
      </g>
     </g>
     <g id="text_22">
      <!-- 02-28 00 -->
      <g transform="translate(296.715803 260.638437) scale(0.1 -0.1)">
       <defs>
        <path id="DejaVuSans-38" d="M 2034 2216 
Q 1584 2216 1326 1975 
Q 1069 1734 1069 1313 
Q 1069 891 1326 650 
Q 1584 409 2034 409 
Q 2484 409 2743 651 
Q 3003 894 3003 1313 
Q 3003 1734 2745 1975 
Q 2488 2216 2034 2216 
z
M 1403 2484 
Q 997 2584 770 2862 
Q 544 3141 544 3541 
Q 544 4100 942 4425 
Q 1341 4750 2034 4750 
Q 2731 4750 3128 4425 
Q 3525 4100 3525 3541 
Q 3525 3141 3298 2862 
Q 3072 2584 2669 2484 
Q 3125 2378 3379 2068 
Q 3634 1759 3634 1313 
Q 3634 634 3220 271 
Q 2806 -91 2034 -91 
Q 1263 -91 848 271 
Q 434 634 434 1313 
Q 434 1759 690 2068 
Q 947 2378 1403 2484 
z
M 1172 3481 
Q 1172 3119 1398 2916 
Q 1625 2713 2034 2713 
Q 2441 2713 2670 2916 
Q 2900 3119 2900 3481 
Q 2900 3844 2670 4047 
Q 2441 4250 2034 4250 
Q 1625 4250 1398 4047 
Q 1172 3844 1172 3481 
z
" transform="scale(0.015625)"/>
       </defs>
       <use xlink:href="#DejaVuSans-30"/>
       <use xlink:href="#DejaVuSans-32" x="63.623047"/>
       <use xlink:href="#DejaVuSans-2d" x="127.246094"/>
       <use xlink:href="#DejaVuSans-32" x="163.330078"/>
       <use xlink:href="#DejaVuSans-38" x="226.953125"/>
       <use xlink:href="#DejaVuSans-20" x="290.576172"/>
       <use xlink:href="#DejaVuSans-30" x="322.363281"/>
       <use xlink:href="#DejaVuSans-30" x="385.986328"/>
      </g>
     </g>
    </g>
    <g id="text_23">
     <!-- time -->
     <g transform="translate(189.863906 274.316562) scale(0.1 -0.1)">
      <use xlink:href="#DejaVuSans-74"/>
      <use xlink:href="#DejaVuSans-69" x="39.208984"/>
      <use xlink:href="#DejaVuSans-6d" x="66.992188"/>
      <use xlink:href="#DejaVuSans-65" x="164.404297"/>
     </g>
    </g>
   </g>
   <g id="matplotlib.axis_6">
    <g id="ytick_8">
     <g id="line2d_31">
      <g>
       <use xlink:href="#me6d3345088" x="47.72" y="241.783636" style="stroke: #000000; stroke-width: 0.8"/>
      </g>
     </g>
     <g id="text_24">
      <!-- 0.0 -->
      <g transform="translate(24.816875 245.582855) scale(0.1 -0.1)">
       <use xlink:href="#DejaVuSans-30"/>
       <use xlink:href="#DejaVuSans-2e" x="63.623047"/>
       <use xlink:href="#DejaVuSans-30" x="95.410156"/>
      </g>
     </g>
    </g>
    <g id="ytick_9">
     <g id="line2d_32">
      <g>
       <use xlink:href="#me6d3345088" x="47.72" y="208.605261" style="stroke: #000000; stroke-width: 0.8"/>
      </g>
     </g>
     <g id="text_25">
      <!-- 0.1 -->
      <g transform="translate(24.816875 212.40448) scale(0.1 -0.1)">
       <use xlink:href="#DejaVuSans-30"/>
       <use xlink:href="#DejaVuSans-2e" x="63.623047"/>
       <use xlink:href="#DejaVuSans-31" x="95.410156"/>
      </g>
     </g>
    </g>
    <g id="ytick_10">
     <g id="line2d_33">
      <g>
       <use xlink:href="#me6d3345088" x="47.72" y="175.426885" style="stroke: #000000; stroke-width: 0.8"/>
      </g>
     </g>
     <g id="text_26">
      <!-- 0.2 -->
      <g transform="translate(24.816875 179.226104) scale(0.1 -0.1)">
       <use xlink:href="#DejaVuSans-30"/>
       <use xlink:href="#DejaVuSans-2e" x="63.623047"/>
       <use xlink:href="#DejaVuSans-32" x="95.410156"/>
      </g>
     </g>
    </g>
    <g id="text_27">
     <!-- flow (cms) -->
     <g transform="translate(18.737188 225.2325) rotate(-90) scale(0.1 -0.1)">
      <use xlink:href="#DejaVuSans-66"/>
      <use xlink:href="#DejaVuSans-6c" x="35.205078"/>
      <use xlink:href="#DejaVuSans-6f" x="62.988281"/>
      <use xlink:href="#DejaVuSans-77" x="124.169922"/>
      <use xlink:href="#DejaVuSans-20" x="205.957031"/>
      <use xlink:href="#DejaVuSans-28" x="237.744141"/>
      <use xlink:href="#DejaVuSans-63" x="276.757812"/>
      <use xlink:href="#DejaVuSans-6d" x="331.738281"/>
      <use xlink:href="#DejaVuSans-73" x="429.150391"/>
      <use xlink:href="#DejaVuSans-29" x="481.25"/>
     </g>
    </g>
   </g>
   <g id="line2d_34">
    <path d="M 61.669091 241.783636 
L 67.452523 241.683515 
L 68.13807 241.387577 
L 68.590134 240.931481 
L 69.073991 240.039156 
L 69.76848 238.131394 
L 70.024815 236.968424 
L 70.274195 235.581951 
L 70.902116 231.023923 
L 73.296562 206.001134 
L 73.551904 202.460674 
L 73.804264 198.250387 
L 73.928458 196.346824 
L 74.131141 190.577384 
L 74.197709 190.519111 
L 74.267257 192.46474 
L 74.513656 187.866815 
L 74.634869 191.156012 
L 74.695475 190.943887 
L 74.82563 189.33203 
L 75.029307 179.548022 
L 75.096868 179.394655 
L 75.230997 184.630277 
L 75.704918 181.478888 
L 75.970195 176.644417 
L 76.170892 182.484495 
L 76.238453 181.949573 
L 76.306014 181.353507 
L 76.576258 176.202131 
L 76.64382 176.844907 
L 76.7084 176.123652 
L 76.770994 176.401324 
L 76.83458 176.2382 
L 76.898167 176.33999 
L 76.963741 177.741351 
L 77.028322 177.45292 
L 77.222063 176.195899 
L 77.419779 173.054725 
L 77.485353 173.193646 
L 77.551921 173.063685 
L 77.746656 165.745914 
L 77.875817 171.543435 
L 77.941391 171.280269 
L 78.323906 168.25302 
L 78.3865 168.662122 
L 78.514667 172.905344 
L 78.713376 171.3496 
L 78.843531 172.953899 
L 78.974679 172.246999 
L 79.03926 170.66556 
L 79.231014 162.869149 
L 79.425749 168.395176 
L 79.49331 168.596671 
L 79.560871 168.310934 
L 79.687052 175.505081 
L 79.753619 175.191617 
L 79.887748 173.690742 
L 80.083477 166.123245 
L 80.148057 165.694473 
L 80.213631 166.30678 
L 80.403398 171.628349 
L 80.530572 168.661084 
L 80.660727 170.837215 
L 80.791875 169.750937 
L 80.855462 165.71215 
L 80.917062 165.74165 
L 80.979655 165.756866 
L 81.041255 165.502394 
L 81.165448 166.122974 
L 81.287655 167.884289 
L 81.348261 167.686015 
L 81.409861 168.339397 
L 81.473448 168.124021 
L 81.792376 163.954116 
L 81.923524 161.944286 
L 81.988105 162.701826 
L 82.180853 168.53754 
L 82.245433 168.312094 
L 82.310014 166.998072 
L 82.373601 167.098813 
L 82.497794 167.735941 
L 82.560387 167.207804 
L 82.745187 161.500995 
L 82.805793 161.37528 
L 82.928993 165.566916 
L 83.058154 164.26504 
L 83.439676 162.111442 
L 83.630437 162.100353 
L 83.69303 161.915581 
L 83.756617 162.004176 
L 83.883791 165.248079 
L 83.949365 164.864537 
L 84.078526 163.508505 
L 84.27028 157.620753 
L 84.333867 157.502349 
L 84.525622 165.152014 
L 84.590202 165.058155 
L 84.654783 164.576738 
L 84.842563 161.033708 
L 84.905156 160.911522 
L 85.15553 165.844524 
L 85.218123 165.761491 
L 85.540032 159.001745 
L 85.7298 161.623948 
L 85.793387 161.567334 
L 85.85598 161.712358 
L 85.984148 163.109585 
L 86.047735 163.056899 
L 86.111322 162.892234 
L 86.365669 160.23455 
L 86.428263 160.386461 
L 86.55643 162.792966 
L 86.621011 162.684086 
L 86.685591 162.473013 
L 86.749178 161.790335 
L 86.940933 164.708751 
L 87.00452 164.598362 
L 87.259861 159.969478 
L 87.322454 160.013845 
L 87.386041 159.92272 
L 87.513215 160.698436 
L 87.576802 160.63293 
L 87.703976 161.723252 
L 87.767563 161.464885 
L 87.895731 161.159711 
L 87.959318 160.235884 
L 88.151072 165.342734 
L 88.215652 164.847316 
L 88.406413 159.896383 
L 88.47 159.882758 
L 88.533587 160.389645 
L 88.785948 156.656364 
L 88.912128 160.032291 
L 89.102889 159.780621 
L 89.166476 160.364604 
L 89.422811 158.704025 
L 89.487392 158.822872 
L 89.613572 157.987221 
L 89.677159 157.962575 
L 89.740746 159.16861 
L 89.804333 158.795322 
L 89.995094 158.4967 
L 90.058681 159.748652 
L 90.122268 159.251338 
L 90.249442 158.993813 
L 90.313029 159.082915 
L 90.377609 159.368184 
L 90.441196 159.145979 
L 90.63295 158.88445 
L 90.823711 160.829515 
L 90.950885 160.908607 
L 91.141646 157.611173 
L 91.204239 158.406232 
L 91.267826 158.198632 
L 91.395 156.864984 
L 91.458587 156.910696 
L 91.712935 160.614736 
L 91.841103 160.741531 
L 92.031863 163.461155 
L 92.09545 163.44798 
L 92.159037 162.333099 
L 92.223618 162.844994 
L 92.351785 163.190555 
L 92.60812 158.700686 
L 92.672701 158.78103 
L 92.736288 159.075273 
L 92.928042 163.423651 
L 92.991629 163.338716 
L 93.184377 158.981957 
L 93.247964 159.001511 
L 93.312545 159.769109 
L 93.376132 159.230277 
L 93.438725 158.803552 
L 93.502312 158.836905 
L 93.565899 159.003217 
L 93.757653 162.125347 
L 93.822234 162.233003 
L 93.885821 162.117721 
L 94.076582 159.32883 
L 94.140169 159.524319 
L 94.203756 160.795323 
L 94.267342 160.695292 
L 94.39551 159.795492 
L 94.459097 159.975233 
L 94.587264 161.634018 
L 94.651845 161.55204 
L 94.781006 161.822038 
L 94.909173 162.545916 
L 95.036347 163.422194 
L 95.099934 163.116174 
L 95.292682 157.904829 
L 95.356269 158.142554 
L 95.484437 160.411039 
L 95.613598 160.838875 
L 95.868939 163.03746 
L 96.257416 164.490442 
L 96.385583 162.224489 
L 96.44917 162.252088 
L 96.576344 162.940411 
L 96.834666 165.222537 
L 96.899246 164.291051 
L 97.092988 157.944393 
L 97.158562 158.677613 
L 97.349323 166.259028 
L 97.41291 166.701886 
L 97.541077 162.800362 
L 97.666264 164.062172 
L 97.791451 165.15986 
L 97.854044 161.079248 
L 97.914651 161.770325 
L 98.101437 166.599601 
L 98.168005 165.4261 
L 98.234573 164.827876 
L 98.30114 165.073338 
L 98.570391 167.102127 
L 98.706507 167.956312 
L 98.773075 164.949126 
L 98.838649 165.899976 
L 98.97079 168.332998 
L 99.1079 164.786718 
L 99.175461 165.22365 
L 99.244016 166.139425 
L 99.437757 172.151549 
L 99.624544 173.415461 
L 99.812324 176.158703 
L 99.874917 174.702425 
L 100.005072 166.741001 
L 100.142181 168.862901 
L 100.202788 172.235828 
L 100.264387 170.618292 
L 100.326981 170.402306 
L 100.389574 170.903917 
L 100.700554 177.184921 
L 100.763148 176.58116 
L 100.951921 179.27371 
L 101.015508 179.824455 
L 101.079095 177.406652 
L 101.268863 183.585194 
L 101.333443 183.569869 
L 101.459624 180.325194 
L 101.585804 181.383144 
L 101.896784 186.779204 
L 102.087545 177.413196 
L 102.214719 179.18281 
L 102.342886 182.499185 
L 102.472047 183.886511 
L 102.800911 194.703181 
L 102.934046 193.557604 
L 103.135736 197.612001 
L 103.203297 197.37295 
L 103.270858 197.51203 
L 103.406974 200.010986 
L 103.614625 204.506267 
L 104.245527 208.535176 
L 104.667784 210.862433 
L 104.850597 212.038192 
L 105.218209 213.091174 
L 105.279809 212.713785 
L 105.340415 212.871534 
L 106.427355 216.946601 
L 106.490942 216.651951 
L 106.553535 216.776714 
L 107.252992 218.419719 
L 107.317572 218.498846 
L 107.575894 219.245322 
L 107.640475 219.26164 
L 107.897803 219.828176 
L 107.96139 219.767416 
L 108.218719 220.417079 
L 108.415441 220.886738 
L 108.548576 220.922667 
L 108.613156 220.768081 
L 108.677737 220.880574 
L 109.127813 221.714217 
L 109.263929 222.395011 
L 109.401039 222.460935 
L 109.4686 222.408777 
L 109.737851 222.704477 
L 109.803425 222.562478 
L 109.868999 222.682361 
L 110.550572 223.92662 
L 110.619126 223.943198 
L 110.899306 224.414083 
L 111.034429 224.025035 
L 111.235125 224.584164 
L 111.377202 225.026852 
L 111.448737 225.093388 
L 111.587834 224.57949 
L 111.656388 224.676848 
L 111.724943 224.792876 
L 111.929614 225.391216 
L 112.06573 225.616889 
L 112.206813 223.420157 
L 112.349884 223.749854 
L 112.491961 226.760076 
L 112.638012 226.896177 
L 112.710541 226.765366 
L 112.929121 227.058572 
L 113.002644 226.856349 
L 113.075172 226.909077 
L 113.292759 227.226143 
L 113.364294 226.927115 
L 113.432849 226.962116 
L 113.570952 227.226004 
L 113.791519 227.836491 
L 114.223712 228.052143 
L 114.294254 227.938091 
L 114.723466 228.602547 
L 114.795995 228.153576 
L 114.870511 226.771239 
L 114.945026 226.918496 
L 115.020536 227.052334 
L 115.241103 229.152395 
L 116.295256 230.242118 
L 116.356856 230.124198 
L 116.418456 230.158302 
L 116.541655 230.281451 
L 116.732416 230.826005 
L 116.927151 230.804491 
L 117.242105 230.889096 
L 117.801472 231.465428 
L 117.999188 231.692832 
L 118.065755 231.615908 
L 118.329045 231.880559 
L 118.457212 231.839634 
L 118.911263 232.253961 
L 119.044398 232.024267 
L 119.244101 232.292547 
L 119.372268 230.895673 
L 119.496462 231.091207 
L 119.559055 232.16833 
L 119.622642 231.327488 
L 119.686229 231.389749 
L 119.813403 231.746122 
L 119.943558 233.087324 
L 120.074706 233.196151 
L 120.141273 232.727799 
L 120.277389 233.542077 
L 120.70064 233.765075 
L 120.903323 233.70665 
L 121.312664 234.003121 
L 121.451761 233.94847 
L 121.593838 234.039238 
L 121.80745 234.380984 
L 121.950521 234.384428 
L 122.086637 234.369789 
L 122.221759 234.477625 
L 122.36483 234.796702 
L 122.437359 234.836434 
L 122.582416 234.068247 
L 122.653952 234.153877 
L 122.798016 234.352478 
L 122.940093 234.987485 
L 123.16066 235.034956 
L 123.234183 234.893147 
L 123.307705 234.932656 
L 123.453756 234.981482 
L 123.663395 235.354876 
L 124.234684 235.664662 
L 124.308206 235.381902 
L 124.454257 235.782089 
L 125.203391 236.294972 
L 125.279894 235.585935 
L 125.358384 235.667636 
L 125.436875 235.728212 
L 125.593855 236.46572 
L 126.055854 236.730148 
L 126.378756 236.917845 
L 126.500963 236.83249 
L 126.748356 236.963921 
L 126.933155 237.164456 
L 127.304742 237.264032 
L 127.443838 237.045027 
L 127.522328 237.084362 
L 127.661425 237.267064 
L 127.801515 237.318337 
L 127.880998 237.195903 
L 128.067785 237.494271 
L 128.505939 237.720693 
L 128.630132 237.569445 
L 128.754325 237.687989 
L 128.94608 238.038537 
L 129.343498 238.228927 
L 129.476634 237.758173 
L 129.608775 237.81894 
L 129.806491 238.291486 
L 130.329096 238.566148 
L 130.61027 238.655928 
L 130.813947 238.662983 
L 131.085185 238.792183 
L 131.223288 238.613025 
L 131.292836 238.681191 
L 131.435907 238.742842 
L 131.577984 238.948507 
L 132.374808 239.107424 
L 132.44833 238.91112 
L 132.520859 238.942995 
L 132.594382 238.970266 
L 132.813955 239.282767 
L 133.25509 239.289278 
L 133.407102 239.273289 
L 133.869101 239.469842 
L 134.026082 239.713178 
L 134.42052 239.777274 
L 134.656984 239.71503 
L 134.973925 239.884588 
L 135.134879 239.782286 
L 135.385253 239.990419 
L 135.634633 240.092123 
L 136.417547 240.278286 
L 136.775224 240.3476 
L 136.954062 240.27218 
L 139.457799 240.765396 
L 139.636637 240.685663 
L 143.392242 241.101578 
L 143.57108 241.029715 
L 154.480218 241.439948 
L 156.805116 241.483076 
L 157.341631 241.508984 
L 159.487691 241.520086 
L 160.292463 241.54513 
L 162.7962 241.566061 
L 164.85284 241.589024 
L 165.568194 241.581733 
L 205.35972 241.7224 
L 208.936486 241.72593 
L 223.690648 241.740068 
L 265.628234 241.760182 
L 285.032192 241.765431 
L 304.704407 241.768966 
L 333.586795 241.772302 
L 340.650909 241.772981 
L 340.650909 241.772981 
" clip-path="url(#pa8063a8849)" style="fill: none; stroke: #1f77b4; stroke-width: 1.5; stroke-linecap: square"/>
   </g>
   <g id="patch_13">
    <path d="M 47.72 246.04 
L 47.72 152.4 
" style="fill: none; stroke: #000000; stroke-width: 0.8; stroke-linejoin: miter; stroke-linecap: square"/>
   </g>
   <g id="patch_14">
    <path d="M 354.6 246.04 
L 354.6 152.4 
" style="fill: none; stroke: #000000; stroke-width: 0.8; stroke-linejoin: miter; stroke-linecap: square"/>
   </g>
   <g id="patch_15">
    <path d="M 47.72 246.04 
L 354.6 246.04 
" style="fill: none; stroke: #000000; stroke-width: 0.8; stroke-linejoin: miter; stroke-linecap: square"/>
   </g>
   <g id="patch_16">
    <path d="M 47.72 152.4 
L 354.6 152.4 
" style="fill: none; stroke: #000000; stroke-width: 0.8; stroke-linejoin: miter; stroke-linecap: square"/>
   </g>
   <g id="text_28">
    <!-- 2 -->
    <g transform="translate(195.6628 175.8962) scale(0.1728 -0.1728)">
     <use xlink:href="#DejaVuSans-32"/>
    </g>
   </g>
  </g>
  <g id="axes_4">
   <g id="patch_17">
    <path d="M 402.32 246.04 
L 709.2 246.04 
L 709.2 152.4 
L 402.32 152.4 
z
" style="fill: #ffffff"/>
   </g>
   <g id="matplotlib.axis_7">
    <g id="xtick_22">
     <g id="line2d_35">
      <g>
       <use xlink:href="#m6b944caacf" x="416.269091" y="246.04" style="stroke: #000000; stroke-width: 0.8"/>
      </g>
     </g>
     <g id="text_29">
      <!-- 02-25 00 -->
      <g transform="translate(393.788622 260.638437) scale(0.1 -0.1)">
       <use xlink:href="#DejaVuSans-30"/>
       <use xlink:href="#DejaVuSans-32" x="63.623047"/>
       <use xlink:href="#DejaVuSans-2d" x="127.246094"/>
       <use xlink:href="#DejaVuSans-32" x="163.330078"/>
       <use xlink:href="#DejaVuSans-35" x="226.953125"/>
       <use xlink:href="#DejaVuSans-20" x="290.576172"/>
       <use xlink:href="#DejaVuSans-30" x="322.363281"/>
       <use xlink:href="#DejaVuSans-30" x="385.986328"/>
      </g>
     </g>
    </g>
    <g id="xtick_23">
     <g id="line2d_36">
      <g>
       <use xlink:href="#m6b944caacf" x="459.190288" y="246.04" style="stroke: #000000; stroke-width: 0.8"/>
      </g>
     </g>
     <g id="text_30">
      <!-- 02-25 12 -->
      <g transform="translate(436.709819 260.638437) scale(0.1 -0.1)">
       <use xlink:href="#DejaVuSans-30"/>
       <use xlink:href="#DejaVuSans-32" x="63.623047"/>
       <use xlink:href="#DejaVuSans-2d" x="127.246094"/>
       <use xlink:href="#DejaVuSans-32" x="163.330078"/>
       <use xlink:href="#DejaVuSans-35" x="226.953125"/>
       <use xlink:href="#DejaVuSans-20" x="290.576172"/>
       <use xlink:href="#DejaVuSans-31" x="322.363281"/>
       <use xlink:href="#DejaVuSans-32" x="385.986328"/>
      </g>
     </g>
    </g>
    <g id="xtick_24">
     <g id="line2d_37">
      <g>
       <use xlink:href="#m6b944caacf" x="502.111485" y="246.04" style="stroke: #000000; stroke-width: 0.8"/>
      </g>
     </g>
     <g id="text_31">
      <!-- 02-26 00 -->
      <g transform="translate(479.631016 260.638437) scale(0.1 -0.1)">
       <use xlink:href="#DejaVuSans-30"/>
       <use xlink:href="#DejaVuSans-32" x="63.623047"/>
       <use xlink:href="#DejaVuSans-2d" x="127.246094"/>
       <use xlink:href="#DejaVuSans-32" x="163.330078"/>
       <use xlink:href="#DejaVuSans-36" x="226.953125"/>
       <use xlink:href="#DejaVuSans-20" x="290.576172"/>
       <use xlink:href="#DejaVuSans-30" x="322.363281"/>
       <use xlink:href="#DejaVuSans-30" x="385.986328"/>
      </g>
     </g>
    </g>
    <g id="xtick_25">
     <g id="line2d_38">
      <g>
       <use xlink:href="#m6b944caacf" x="545.032681" y="246.04" style="stroke: #000000; stroke-width: 0.8"/>
      </g>
     </g>
     <g id="text_32">
      <!-- 02-26 12 -->
      <g transform="translate(522.552213 260.638437) scale(0.1 -0.1)">
       <use xlink:href="#DejaVuSans-30"/>
       <use xlink:href="#DejaVuSans-32" x="63.623047"/>
       <use xlink:href="#DejaVuSans-2d" x="127.246094"/>
       <use xlink:href="#DejaVuSans-32" x="163.330078"/>
       <use xlink:href="#DejaVuSans-36" x="226.953125"/>
       <use xlink:href="#DejaVuSans-20" x="290.576172"/>
       <use xlink:href="#DejaVuSans-31" x="322.363281"/>
       <use xlink:href="#DejaVuSans-32" x="385.986328"/>
      </g>
     </g>
    </g>
    <g id="xtick_26">
     <g id="line2d_39">
      <g>
       <use xlink:href="#m6b944caacf" x="587.953878" y="246.04" style="stroke: #000000; stroke-width: 0.8"/>
      </g>
     </g>
     <g id="text_33">
      <!-- 02-27 00 -->
      <g transform="translate(565.47341 260.638437) scale(0.1 -0.1)">
       <use xlink:href="#DejaVuSans-30"/>
       <use xlink:href="#DejaVuSans-32" x="63.623047"/>
       <use xlink:href="#DejaVuSans-2d" x="127.246094"/>
       <use xlink:href="#DejaVuSans-32" x="163.330078"/>
       <use xlink:href="#DejaVuSans-37" x="226.953125"/>
       <use xlink:href="#DejaVuSans-20" x="290.576172"/>
       <use xlink:href="#DejaVuSans-30" x="322.363281"/>
       <use xlink:href="#DejaVuSans-30" x="385.986328"/>
      </g>
     </g>
    </g>
    <g id="xtick_27">
     <g id="line2d_40">
      <g>
       <use xlink:href="#m6b944caacf" x="630.875075" y="246.04" style="stroke: #000000; stroke-width: 0.8"/>
      </g>
     </g>
     <g id="text_34">
      <!-- 02-27 12 -->
      <g transform="translate(608.394606 260.638437) scale(0.1 -0.1)">
       <use xlink:href="#DejaVuSans-30"/>
       <use xlink:href="#DejaVuSans-32" x="63.623047"/>
       <use xlink:href="#DejaVuSans-2d" x="127.246094"/>
       <use xlink:href="#DejaVuSans-32" x="163.330078"/>
       <use xlink:href="#DejaVuSans-37" x="226.953125"/>
       <use xlink:href="#DejaVuSans-20" x="290.576172"/>
       <use xlink:href="#DejaVuSans-31" x="322.363281"/>
       <use xlink:href="#DejaVuSans-32" x="385.986328"/>
      </g>
     </g>
    </g>
    <g id="xtick_28">
     <g id="line2d_41">
      <g>
       <use xlink:href="#m6b944caacf" x="673.796272" y="246.04" style="stroke: #000000; stroke-width: 0.8"/>
      </g>
     </g>
     <g id="text_35">
      <!-- 02-28 00 -->
      <g transform="translate(651.315803 260.638437) scale(0.1 -0.1)">
       <use xlink:href="#DejaVuSans-30"/>
       <use xlink:href="#DejaVuSans-32" x="63.623047"/>
       <use xlink:href="#DejaVuSans-2d" x="127.246094"/>
       <use xlink:href="#DejaVuSans-32" x="163.330078"/>
       <use xlink:href="#DejaVuSans-38" x="226.953125"/>
       <use xlink:href="#DejaVuSans-20" x="290.576172"/>
       <use xlink:href="#DejaVuSans-30" x="322.363281"/>
       <use xlink:href="#DejaVuSans-30" x="385.986328"/>
      </g>
     </g>
    </g>
    <g id="text_36">
     <!-- time -->
     <g transform="translate(544.463906 274.316562) scale(0.1 -0.1)">
      <use xlink:href="#DejaVuSans-74"/>
      <use xlink:href="#DejaVuSans-69" x="39.208984"/>
      <use xlink:href="#DejaVuSans-6d" x="66.992188"/>
      <use xlink:href="#DejaVuSans-65" x="164.404297"/>
     </g>
    </g>
   </g>
   <g id="matplotlib.axis_8">
    <g id="ytick_11">
     <g id="line2d_42">
      <g>
       <use xlink:href="#me6d3345088" x="402.32" y="241.783636" style="stroke: #000000; stroke-width: 0.8"/>
      </g>
     </g>
     <g id="text_37">
      <!-- 0.0 -->
      <g transform="translate(379.416875 245.582855) scale(0.1 -0.1)">
       <use xlink:href="#DejaVuSans-30"/>
       <use xlink:href="#DejaVuSans-2e" x="63.623047"/>
       <use xlink:href="#DejaVuSans-30" x="95.410156"/>
      </g>
     </g>
    </g>
    <g id="ytick_12">
     <g id="line2d_43">
      <g>
       <use xlink:href="#me6d3345088" x="402.32" y="211.979247" style="stroke: #000000; stroke-width: 0.8"/>
      </g>
     </g>
     <g id="text_38">
      <!-- 0.5 -->
      <g transform="translate(379.416875 215.778466) scale(0.1 -0.1)">
       <use xlink:href="#DejaVuSans-30"/>
       <use xlink:href="#DejaVuSans-2e" x="63.623047"/>
       <use xlink:href="#DejaVuSans-35" x="95.410156"/>
      </g>
     </g>
    </g>
    <g id="ytick_13">
     <g id="line2d_44">
      <g>
       <use xlink:href="#me6d3345088" x="402.32" y="182.174857" style="stroke: #000000; stroke-width: 0.8"/>
      </g>
     </g>
     <g id="text_39">
      <!-- 1.0 -->
      <g transform="translate(379.416875 185.974076) scale(0.1 -0.1)">
       <use xlink:href="#DejaVuSans-31"/>
       <use xlink:href="#DejaVuSans-2e" x="63.623047"/>
       <use xlink:href="#DejaVuSans-30" x="95.410156"/>
      </g>
     </g>
    </g>
    <g id="text_40">
     <!-- depth (m) -->
     <g transform="translate(373.337187 224.134844) rotate(-90) scale(0.1 -0.1)">
      <use xlink:href="#DejaVuSans-64"/>
      <use xlink:href="#DejaVuSans-65" x="63.476562"/>
      <use xlink:href="#DejaVuSans-70" x="125"/>
      <use xlink:href="#DejaVuSans-74" x="188.476562"/>
      <use xlink:href="#DejaVuSans-68" x="227.685547"/>
      <use xlink:href="#DejaVuSans-20" x="291.064453"/>
      <use xlink:href="#DejaVuSans-28" x="322.851562"/>
      <use xlink:href="#DejaVuSans-6d" x="361.865234"/>
      <use xlink:href="#DejaVuSans-29" x="459.277344"/>
     </g>
    </g>
   </g>
   <g id="line2d_45">
    <path d="M 416.269091 241.783636 
L 420.890074 241.682595 
L 421.516009 241.400092 
L 422.137968 240.885317 
L 422.872199 239.959951 
L 423.734597 238.471456 
L 424.431073 236.617918 
L 425.366994 233.415949 
L 427.367002 226.503708 
L 428.867257 221.727203 
L 430.570195 216.71397 
L 433.114667 207.419852 
L 434.487748 200.964002 
L 435.326301 196.434255 
L 437.528993 182.990206 
L 438.743106 175.545579 
L 439.630343 171.033435 
L 440.3298 167.734414 
L 442.049628 160.383188 
L 442.94382 158.046008 
L 443.385948 157.514116 
L 443.830063 157.034835 
L 444.340746 156.779686 
L 445.041196 156.667966 
L 445.487298 156.918408 
L 445.741646 157.319466 
L 446.185761 158.310815 
L 447.015372 160.335335 
L 448.102312 164.657904 
L 449.699934 172.782486 
L 452.575257 191.660907 
L 454.349731 203.889895 
L 454.864387 207.514079 
L 455.679095 212.549817 
L 456.878306 219.204005 
L 457.400911 221.636765 
L 458.006974 223.684075 
L 459.056159 225.586312 
L 459.940415 226.664168 
L 460.772013 227.44466 
L 462.625971 228.702836 
L 464.27029 229.580131 
L 468.466035 231.532864 
L 475.842122 234.283845 
L 479.879894 235.59107 
L 480.855557 235.875389 
L 492.448254 238.85847 
L 496.382697 239.454628 
L 502.194942 239.972435 
L 518.111553 240.618476 
L 536.800157 240.939304 
L 557.455983 241.128511 
L 614.594827 241.376393 
L 695.250909 241.517629 
L 695.250909 241.517629 
" clip-path="url(#pb2d5ffd9f8)" style="fill: none; stroke: #1f77b4; stroke-width: 1.5; stroke-linecap: square"/>
   </g>
   <g id="patch_18">
    <path d="M 402.32 246.04 
L 402.32 152.4 
" style="fill: none; stroke: #000000; stroke-width: 0.8; stroke-linejoin: miter; stroke-linecap: square"/>
   </g>
   <g id="patch_19">
    <path d="M 709.2 246.04 
L 709.2 152.4 
" style="fill: none; stroke: #000000; stroke-width: 0.8; stroke-linejoin: miter; stroke-linecap: square"/>
   </g>
   <g id="patch_20">
    <path d="M 402.32 246.04 
L 709.2 246.04 
" style="fill: none; stroke: #000000; stroke-width: 0.8; stroke-linejoin: miter; stroke-linecap: square"/>
   </g>
   <g id="patch_21">
    <path d="M 402.32 152.4 
L 709.2 152.4 
" style="fill: none; stroke: #000000; stroke-width: 0.8; stroke-linejoin: miter; stroke-linecap: square"/>
   </g>
   <g id="text_41">
    <!-- ('P2', 'depthN') -->
    <g transform="translate(491.7079 175.8962) scale(0.1728 -0.1728)">
     <use xlink:href="#DejaVuSans-28"/>
     <use xlink:href="#DejaVuSans-27" x="39.013672"/>
     <use xlink:href="#DejaVuSans-50" x="66.503906"/>
     <use xlink:href="#DejaVuSans-32" x="126.806641"/>
     <use xlink:href="#DejaVuSans-27" x="190.429688"/>
     <use xlink:href="#DejaVuSans-2c" x="217.919922"/>
     <use xlink:href="#DejaVuSans-20" x="249.707031"/>
     <use xlink:href="#DejaVuSans-27" x="281.494141"/>
     <use xlink:href="#DejaVuSans-64" x="308.984375"/>
     <use xlink:href="#DejaVuSans-65" x="372.460938"/>
     <use xlink:href="#DejaVuSans-70" x="433.984375"/>
     <use xlink:href="#DejaVuSans-74" x="497.460938"/>
     <use xlink:href="#DejaVuSans-68" x="536.669922"/>
     <use xlink:href="#DejaVuSans-4e" x="600.048828"/>
     <use xlink:href="#DejaVuSans-27" x="674.853516"/>
     <use xlink:href="#DejaVuSans-29" x="702.34375"/>
    </g>
   </g>
  </g>
 </g>
 <defs>
  <clipPath id="p80b6b1dfbf">
   <rect x="47.72" y="26.88" width="306.88" height="93.64"/>
  </clipPath>
  <clipPath id="p4ac865050d">
   <rect x="402.32" y="26.88" width="306.88" height="93.64"/>
  </clipPath>
  <clipPath id="pa8063a8849">
   <rect x="47.72" y="152.4" width="306.88" height="93.64"/>
  </clipPath>
  <clipPath id="pb2d5ffd9f8">
   <rect x="402.32" y="152.4" width="306.88" height="93.64"/>
  </clipPath>
 </defs>
</svg>
