<?xml version="1.0" encoding="utf-8" standalone="no"?>
<!DOCTYPE svg PUBLIC "-//W3C//DTD SVG 1.1//EN"
  "http://www.w3.org/Graphics/SVG/1.1/DTD/svg11.dtd">
<svg xmlns:xlink="http://www.w3.org/1999/xlink" width="720pt" height="288pt" viewBox="0 0 720 288" xmlns="http://www.w3.org/2000/svg" version="1.1">
 <metadata>
  <rdf:RDF xmlns:dc="http://purl.org/dc/elements/1.1/" xmlns:cc="http://creativecommons.org/ns#" xmlns:rdf="http://www.w3.org/1999/02/22-rdf-syntax-ns#">
   <cc:Work>
    <dc:type rdf:resource="http://purl.org/dc/dcmitype/StillImage"/>
    <dc:date>2025-01-28T16:22:55.256830</dc:date>
    <dc:format>image/svg+xml</dc:format>
    <dc:creator>
     <cc:Agent>
      <dc:title>Matplotlib v3.9.4, https://matplotlib.org/</dc:title>
     </cc:Agent>
    </dc:creator>
   </cc:Work>
  </rdf:RDF>
 </metadata>
 <defs>
  <style type="text/css">*{stroke-linejoin: round; stroke-linecap: butt}</style>
 </defs>
 <g id="figure_1">
  <g id="patch_1">
   <path d="M 0 288 
L 720 288 
L 720 0 
L 0 0 
z
" style="fill: #ffffff"/>
  </g>
  <g id="axes_1">
   <g id="patch_2">
    <path d="M 54.02 120.52 
L 354.6 120.52 
L 354.6 26.88 
L 54.02 26.88 
z
" style="fill: #ffffff"/>
   </g>
   <g id="matplotlib.axis_1">
    <g id="xtick_1">
     <g id="line2d_1">
      <defs>
       <path id="m608a2f8302" d="M 0 0 
L 0 3.5 
" style="stroke: #000000; stroke-width: 0.8"/>
      </defs>
      <g>
       <use xlink:href="#m608a2f8302" x="67.682727" y="120.52" style="stroke: #000000; stroke-width: 0.8"/>
      </g>
     </g>
    </g>
    <g id="xtick_2">
     <g id="line2d_2">
      <g>
       <use xlink:href="#m608a2f8302" x="109.734318" y="120.52" style="stroke: #000000; stroke-width: 0.8"/>
      </g>
     </g>
    </g>
    <g id="xtick_3">
     <g id="line2d_3">
      <g>
       <use xlink:href="#m608a2f8302" x="151.785909" y="120.52" style="stroke: #000000; stroke-width: 0.8"/>
      </g>
     </g>
    </g>
    <g id="xtick_4">
     <g id="line2d_4">
      <g>
       <use xlink:href="#m608a2f8302" x="193.837499" y="120.52" style="stroke: #000000; stroke-width: 0.8"/>
      </g>
     </g>
    </g>
    <g id="xtick_5">
     <g id="line2d_5">
      <g>
       <use xlink:href="#m608a2f8302" x="235.88909" y="120.52" style="stroke: #000000; stroke-width: 0.8"/>
      </g>
     </g>
    </g>
    <g id="xtick_6">
     <g id="line2d_6">
      <g>
       <use xlink:href="#m608a2f8302" x="277.94068" y="120.52" style="stroke: #000000; stroke-width: 0.8"/>
      </g>
     </g>
    </g>
    <g id="xtick_7">
     <g id="line2d_7">
      <g>
       <use xlink:href="#m608a2f8302" x="319.992271" y="120.52" style="stroke: #000000; stroke-width: 0.8"/>
      </g>
     </g>
    </g>
    <g id="text_1">
     <!-- time -->
     <g transform="translate(193.013906 139.118437) scale(0.1 -0.1)">
      <defs>
       <path id="DejaVuSans-74" d="M 1172 4494 
L 1172 3500 
L 2356 3500 
L 2356 3053 
L 1172 3053 
L 1172 1153 
Q 1172 725 1289 603 
Q 1406 481 1766 481 
L 2356 481 
L 2356 0 
L 1766 0 
Q 1100 0 847 248 
Q 594 497 594 1153 
L 594 3053 
L 172 3053 
L 172 3500 
L 594 3500 
L 594 4494 
L 1172 4494 
z
" transform="scale(0.015625)"/>
       <path id="DejaVuSans-69" d="M 603 3500 
L 1178 3500 
L 1178 0 
L 603 0 
L 603 3500 
z
M 603 4863 
L 1178 4863 
L 1178 4134 
L 603 4134 
L 603 4863 
z
" transform="scale(0.015625)"/>
       <path id="DejaVuSans-6d" d="M 3328 2828 
Q 3544 3216 3844 3400 
Q 4144 3584 4550 3584 
Q 5097 3584 5394 3201 
Q 5691 2819 5691 2113 
L 5691 0 
L 5113 0 
L 5113 2094 
Q 5113 2597 4934 2840 
Q 4756 3084 4391 3084 
Q 3944 3084 3684 2787 
Q 3425 2491 3425 1978 
L 3425 0 
L 2847 0 
L 2847 2094 
Q 2847 2600 2669 2842 
Q 2491 3084 2119 3084 
Q 1678 3084 1418 2786 
Q 1159 2488 1159 1978 
L 1159 0 
L 581 0 
L 581 3500 
L 1159 3500 
L 1159 2956 
Q 1356 3278 1631 3431 
Q 1906 3584 2284 3584 
Q 2666 3584 2933 3390 
Q 3200 3197 3328 2828 
z
" transform="scale(0.015625)"/>
       <path id="DejaVuSans-65" d="M 3597 1894 
L 3597 1613 
L 953 1613 
Q 991 1019 1311 708 
Q 1631 397 2203 397 
Q 2534 397 2845 478 
Q 3156 559 3463 722 
L 3463 178 
Q 3153 47 2828 -22 
Q 2503 -91 2169 -91 
Q 1331 -91 842 396 
Q 353 884 353 1716 
Q 353 2575 817 3079 
Q 1281 3584 2069 3584 
Q 2775 3584 3186 3129 
Q 3597 2675 3597 1894 
z
M 3022 2063 
Q 3016 2534 2758 2815 
Q 2500 3097 2075 3097 
Q 1594 3097 1305 2825 
Q 1016 2553 972 2059 
L 3022 2063 
z
" transform="scale(0.015625)"/>
      </defs>
      <use xlink:href="#DejaVuSans-74"/>
      <use xlink:href="#DejaVuSans-69" x="39.208984"/>
      <use xlink:href="#DejaVuSans-6d" x="66.992188"/>
      <use xlink:href="#DejaVuSans-65" x="164.404297"/>
     </g>
    </g>
   </g>
   <g id="matplotlib.axis_2">
    <g id="ytick_1">
     <g id="line2d_8">
      <defs>
       <path id="ma8e3436436" d="M 0 0 
L -3.5 0 
" style="stroke: #000000; stroke-width: 0.8"/>
      </defs>
      <g>
       <use xlink:href="#ma8e3436436" x="54.02" y="116.263636" style="stroke: #000000; stroke-width: 0.8"/>
      </g>
     </g>
     <g id="text_2">
      <!-- 0.0 -->
      <g transform="translate(31.116875 120.062855) scale(0.1 -0.1)">
       <defs>
        <path id="DejaVuSans-30" d="M 2034 4250 
Q 1547 4250 1301 3770 
Q 1056 3291 1056 2328 
Q 1056 1369 1301 889 
Q 1547 409 2034 409 
Q 2525 409 2770 889 
Q 3016 1369 3016 2328 
Q 3016 3291 2770 3770 
Q 2525 4250 2034 4250 
z
M 2034 4750 
Q 2819 4750 3233 4129 
Q 3647 3509 3647 2328 
Q 3647 1150 3233 529 
Q 2819 -91 2034 -91 
Q 1250 -91 836 529 
Q 422 1150 422 2328 
Q 422 3509 836 4129 
Q 1250 4750 2034 4750 
z
" transform="scale(0.015625)"/>
        <path id="DejaVuSans-2e" d="M 684 794 
L 1344 794 
L 1344 0 
L 684 0 
L 684 794 
z
" transform="scale(0.015625)"/>
       </defs>
       <use xlink:href="#DejaVuSans-30"/>
       <use xlink:href="#DejaVuSans-2e" x="63.623047"/>
       <use xlink:href="#DejaVuSans-30" x="95.410156"/>
      </g>
     </g>
    </g>
    <g id="ytick_2">
     <g id="line2d_9">
      <g>
       <use xlink:href="#ma8e3436436" x="54.02" y="91.583333" style="stroke: #000000; stroke-width: 0.8"/>
      </g>
     </g>
     <g id="text_3">
      <!-- 0.1 -->
      <g transform="translate(31.116875 95.382551) scale(0.1 -0.1)">
       <defs>
        <path id="DejaVuSans-31" d="M 794 531 
L 1825 531 
L 1825 4091 
L 703 3866 
L 703 4441 
L 1819 4666 
L 2450 4666 
L 2450 531 
L 3481 531 
L 3481 0 
L 794 0 
L 794 531 
z
" transform="scale(0.015625)"/>
       </defs>
       <use xlink:href="#DejaVuSans-30"/>
       <use xlink:href="#DejaVuSans-2e" x="63.623047"/>
       <use xlink:href="#DejaVuSans-31" x="95.410156"/>
      </g>
     </g>
    </g>
    <g id="ytick_3">
     <g id="line2d_10">
      <g>
       <use xlink:href="#ma8e3436436" x="54.02" y="66.903029" style="stroke: #000000; stroke-width: 0.8"/>
      </g>
     </g>
     <g id="text_4">
      <!-- 0.2 -->
      <g transform="translate(31.116875 70.702248) scale(0.1 -0.1)">
       <defs>
        <path id="DejaVuSans-32" d="M 1228 531 
L 3431 531 
L 3431 0 
L 469 0 
L 469 531 
Q 828 903 1448 1529 
Q 2069 2156 2228 2338 
Q 2531 2678 2651 2914 
Q 2772 3150 2772 3378 
Q 2772 3750 2511 3984 
Q 2250 4219 1831 4219 
Q 1534 4219 1204 4116 
Q 875 4013 500 3803 
L 500 4441 
Q 881 4594 1212 4672 
Q 1544 4750 1819 4750 
Q 2544 4750 2975 4387 
Q 3406 4025 3406 3419 
Q 3406 3131 3298 2873 
Q 3191 2616 2906 2266 
Q 2828 2175 2409 1742 
Q 1991 1309 1228 531 
z
" transform="scale(0.015625)"/>
       </defs>
       <use xlink:href="#DejaVuSans-30"/>
       <use xlink:href="#DejaVuSans-2e" x="63.623047"/>
       <use xlink:href="#DejaVuSans-32" x="95.410156"/>
      </g>
     </g>
    </g>
    <g id="ytick_4">
     <g id="line2d_11">
      <g>
       <use xlink:href="#ma8e3436436" x="54.02" y="42.222725" style="stroke: #000000; stroke-width: 0.8"/>
      </g>
     </g>
     <g id="text_5">
      <!-- 0.3 -->
      <g transform="translate(31.116875 46.021944) scale(0.1 -0.1)">
       <defs>
        <path id="DejaVuSans-33" d="M 2597 2516 
Q 3050 2419 3304 2112 
Q 3559 1806 3559 1356 
Q 3559 666 3084 287 
Q 2609 -91 1734 -91 
Q 1441 -91 1130 -33 
Q 819 25 488 141 
L 488 750 
Q 750 597 1062 519 
Q 1375 441 1716 441 
Q 2309 441 2620 675 
Q 2931 909 2931 1356 
Q 2931 1769 2642 2001 
Q 2353 2234 1838 2234 
L 1294 2234 
L 1294 2753 
L 1863 2753 
Q 2328 2753 2575 2939 
Q 2822 3125 2822 3475 
Q 2822 3834 2567 4026 
Q 2313 4219 1838 4219 
Q 1578 4219 1281 4162 
Q 984 4106 628 3988 
L 628 4550 
Q 988 4650 1302 4700 
Q 1616 4750 1894 4750 
Q 2613 4750 3031 4423 
Q 3450 4097 3450 3541 
Q 3450 3153 3228 2886 
Q 3006 2619 2597 2516 
z
" transform="scale(0.015625)"/>
       </defs>
       <use xlink:href="#DejaVuSans-30"/>
       <use xlink:href="#DejaVuSans-2e" x="63.623047"/>
       <use xlink:href="#DejaVuSans-33" x="95.410156"/>
      </g>
     </g>
    </g>
    <g id="text_6">
     <!-- flow (cms) -->
     <g transform="translate(25.037188 99.7125) rotate(-90) scale(0.1 -0.1)">
      <defs>
       <path id="DejaVuSans-66" d="M 2375 4863 
L 2375 4384 
L 1825 4384 
Q 1516 4384 1395 4259 
Q 1275 4134 1275 3809 
L 1275 3500 
L 2222 3500 
L 2222 3053 
L 1275 3053 
L 1275 0 
L 697 0 
L 697 3053 
L 147 3053 
L 147 3500 
L 697 3500 
L 697 3744 
Q 697 4328 969 4595 
Q 1241 4863 1831 4863 
L 2375 4863 
z
" transform="scale(0.015625)"/>
       <path id="DejaVuSans-6c" d="M 603 4863 
L 1178 4863 
L 1178 0 
L 603 0 
L 603 4863 
z
" transform="scale(0.015625)"/>
       <path id="DejaVuSans-6f" d="M 1959 3097 
Q 1497 3097 1228 2736 
Q 959 2375 959 1747 
Q 959 1119 1226 758 
Q 1494 397 1959 397 
Q 2419 397 2687 759 
Q 2956 1122 2956 1747 
Q 2956 2369 2687 2733 
Q 2419 3097 1959 3097 
z
M 1959 3584 
Q 2709 3584 3137 3096 
Q 3566 2609 3566 1747 
Q 3566 888 3137 398 
Q 2709 -91 1959 -91 
Q 1206 -91 779 398 
Q 353 888 353 1747 
Q 353 2609 779 3096 
Q 1206 3584 1959 3584 
z
" transform="scale(0.015625)"/>
       <path id="DejaVuSans-77" d="M 269 3500 
L 844 3500 
L 1563 769 
L 2278 3500 
L 2956 3500 
L 3675 769 
L 4391 3500 
L 4966 3500 
L 4050 0 
L 3372 0 
L 2619 2869 
L 1863 0 
L 1184 0 
L 269 3500 
z
" transform="scale(0.015625)"/>
       <path id="DejaVuSans-20" transform="scale(0.015625)"/>
       <path id="DejaVuSans-28" d="M 1984 4856 
Q 1566 4138 1362 3434 
Q 1159 2731 1159 2009 
Q 1159 1288 1364 580 
Q 1569 -128 1984 -844 
L 1484 -844 
Q 1016 -109 783 600 
Q 550 1309 550 2009 
Q 550 2706 781 3412 
Q 1013 4119 1484 4856 
L 1984 4856 
z
" transform="scale(0.015625)"/>
       <path id="DejaVuSans-63" d="M 3122 3366 
L 3122 2828 
Q 2878 2963 2633 3030 
Q 2388 3097 2138 3097 
Q 1578 3097 1268 2742 
Q 959 2388 959 1747 
Q 959 1106 1268 751 
Q 1578 397 2138 397 
Q 2388 397 2633 464 
Q 2878 531 3122 666 
L 3122 134 
Q 2881 22 2623 -34 
Q 2366 -91 2075 -91 
Q 1284 -91 818 406 
Q 353 903 353 1747 
Q 353 2603 823 3093 
Q 1294 3584 2113 3584 
Q 2378 3584 2631 3529 
Q 2884 3475 3122 3366 
z
" transform="scale(0.015625)"/>
       <path id="DejaVuSans-73" d="M 2834 3397 
L 2834 2853 
Q 2591 2978 2328 3040 
Q 2066 3103 1784 3103 
Q 1356 3103 1142 2972 
Q 928 2841 928 2578 
Q 928 2378 1081 2264 
Q 1234 2150 1697 2047 
L 1894 2003 
Q 2506 1872 2764 1633 
Q 3022 1394 3022 966 
Q 3022 478 2636 193 
Q 2250 -91 1575 -91 
Q 1294 -91 989 -36 
Q 684 19 347 128 
L 347 722 
Q 666 556 975 473 
Q 1284 391 1588 391 
Q 1994 391 2212 530 
Q 2431 669 2431 922 
Q 2431 1156 2273 1281 
Q 2116 1406 1581 1522 
L 1381 1569 
Q 847 1681 609 1914 
Q 372 2147 372 2553 
Q 372 3047 722 3315 
Q 1072 3584 1716 3584 
Q 2034 3584 2315 3537 
Q 2597 3491 2834 3397 
z
" transform="scale(0.015625)"/>
       <path id="DejaVuSans-29" d="M 513 4856 
L 1013 4856 
Q 1481 4119 1714 3412 
Q 1947 2706 1947 2009 
Q 1947 1309 1714 600 
Q 1481 -109 1013 -844 
L 513 -844 
Q 928 -128 1133 580 
Q 1338 1288 1338 2009 
Q 1338 2731 1133 3434 
Q 928 4138 513 4856 
z
" transform="scale(0.015625)"/>
      </defs>
      <use xlink:href="#DejaVuSans-66"/>
      <use xlink:href="#DejaVuSans-6c" x="35.205078"/>
      <use xlink:href="#DejaVuSans-6f" x="62.988281"/>
      <use xlink:href="#DejaVuSans-77" x="124.169922"/>
      <use xlink:href="#DejaVuSans-20" x="205.957031"/>
      <use xlink:href="#DejaVuSans-28" x="237.744141"/>
      <use xlink:href="#DejaVuSans-63" x="276.757812"/>
      <use xlink:href="#DejaVuSans-6d" x="331.738281"/>
      <use xlink:href="#DejaVuSans-73" x="429.150391"/>
      <use xlink:href="#DejaVuSans-29" x="481.25"/>
     </g>
    </g>
   </g>
   <g id="line2d_12">
    <path d="M 67.682727 116.263636 
L 72.210087 116.171184 
L 72.648125 115.87711 
L 72.998555 115.412947 
L 73.173769 115.175331 
L 73.60402 113.811967 
L 73.824985 112.849789 
L 74.095595 111.997533 
L 74.225059 113.001264 
L 74.292225 112.740708 
L 74.359391 112.474496 
L 74.625133 109.950579 
L 74.70106 109.735267 
L 74.776986 111.293865 
L 74.85486 110.970231 
L 75.227678 108.602041 
L 75.502182 106.720453 
L 75.883761 103.700823 
L 76.015172 98.130821 
L 76.154371 97.921434 
L 76.223483 102.254259 
L 76.295516 101.360633 
L 76.435688 99.894446 
L 76.505774 100.777737 
L 76.574887 100.262856 
L 76.711165 98.72876 
L 76.778331 95.09496 
L 76.843549 96.023569 
L 77.346806 92.374839 
L 77.408131 93.333312 
L 77.469456 92.635273 
L 77.59016 91.536014 
L 77.708917 88.923734 
L 77.918201 87.817672 
L 77.987314 85.362025 
L 78.055453 85.535387 
L 78.190758 85.222002 
L 78.257924 88.517916 
L 78.325089 87.091874 
L 78.460394 85.744318 
L 78.526587 83.992975 
L 78.592779 84.904262 
L 79.421156 75.696954 
L 79.602212 71.942509 
L 79.66159 71.628992 
L 79.721942 74.688228 
L 79.782294 73.748444 
L 80.207677 69.383916 
L 80.267055 69.999184 
L 80.403333 66.347287 
L 80.538638 65.460153 
L 80.605804 68.106475 
L 80.673943 67.620197 
L 80.809248 65.881917 
L 81.010745 60.994861 
L 81.076938 60.784133 
L 81.210296 62.434591 
L 81.276488 61.809886 
L 81.673642 58.416161 
L 81.738861 59.214673 
L 81.935491 56.758764 
L 82.00071 56.3472 
L 82.065929 58.556983 
L 82.132121 57.445982 
L 82.262559 56.388371 
L 82.327778 54.632533 
L 82.392023 55.438403 
L 82.909881 52.631469 
L 82.974126 50.082377 
L 83.038372 50.143036 
L 83.165889 50.183014 
L 83.229161 50.905352 
L 83.293407 50.79041 
L 83.421898 50.3409 
L 83.48517 51.665136 
L 83.612687 48.754454 
L 83.739232 48.558657 
L 83.803477 50.976431 
L 83.866749 50.624162 
L 84.374873 46.441948 
L 84.438145 47.055129 
L 84.501417 46.760187 
L 84.627961 46.193589 
L 84.690259 46.542343 
L 84.942374 44.906423 
L 85.004673 43.185646 
L 85.067945 43.290721 
L 85.192542 43.155623 
L 85.254841 44.76159 
L 85.318113 43.950854 
L 85.44271 43.347016 
L 85.505009 43.612003 
L 86.127996 39.570598 
L 86.189321 41.593934 
L 86.251619 41.17972 
L 86.68479 38.615464 
L 86.746115 39.270517 
L 86.80744 38.936989 
L 86.993363 37.447885 
L 87.177339 36.350734 
L 87.238664 36.210036 
L 87.299989 33.732558 
L 87.361314 37.079128 
L 87.422639 36.713396 
L 87.546263 36.049401 
L 87.607589 33.489726 
L 87.668914 33.764142 
L 87.790591 33.72898 
L 87.851916 34.766981 
L 87.973593 33.068109 
L 88.09527 32.915642 
L 88.156595 34.52145 
L 88.338624 32.693594 
L 88.39995 32.47625 
L 88.461275 32.726652 
L 88.703655 31.448645 
L 88.764981 33.641076 
L 88.825333 31.913463 
L 89.067713 31.136364 
L 89.311067 33.032645 
L 89.371419 31.189399 
L 89.431771 31.750708 
L 89.553448 32.480441 
L 89.6138 33.586082 
L 89.675125 32.751186 
L 89.857154 33.71943 
L 89.917506 36.101876 
L 89.978831 33.755303 
L 90.039183 34.085828 
L 90.16086 34.687308 
L 90.222185 37.060518 
L 90.28351 35.978889 
L 90.527838 36.412553 
L 90.772165 37.841439 
L 90.833491 37.636888 
L 91.078792 37.182296 
L 91.140117 36.73975 
L 91.201442 36.884261 
L 91.323119 37.150329 
L 91.384444 37.107413 
L 91.44577 35.854841 
L 91.507095 36.15057 
L 91.628772 36.696358 
L 91.690097 38.833427 
L 91.751422 38.438144 
L 91.874073 38.306229 
L 91.935398 37.859222 
L 92.058049 38.245774 
L 92.180699 38.178027 
L 92.241051 38.646316 
L 92.302376 37.894455 
L 92.363701 38.027462 
L 92.486352 38.539185 
L 92.609002 37.39726 
L 92.854303 40.103255 
L 93.039252 42.565754 
L 93.348799 44.651745 
L 93.411097 43.076623 
L 93.472423 44.290833 
L 93.659319 45.433271 
L 93.721617 44.89555 
L 93.90754 46.782558 
L 93.969838 47.124071 
L 94.094436 48.438599 
L 94.282305 48.886774 
L 94.344604 45.169867 
L 94.406902 46.299555 
L 94.5315 47.710527 
L 94.593798 51.087697 
L 94.657071 49.970058 
L 94.84494 50.731572 
L 94.970511 53.560542 
L 95.097055 53.293061 
L 95.223599 50.060084 
L 95.286871 50.58426 
L 95.412442 51.449739 
L 95.47474 54.548924 
L 95.538012 52.82258 
L 95.664557 53.180346 
L 95.727829 54.000419 
L 95.790127 53.137361 
L 95.853399 53.184353 
L 95.979943 54.054899 
L 96.234005 57.385625 
L 96.298251 57.67074 
L 96.361523 57.504555 
L 96.425768 56.262113 
L 96.48904 56.98805 
L 96.616558 58.213529 
L 96.744075 60.886176 
L 96.872566 61.59388 
L 96.936812 59.497969 
L 97.066276 63.496433 
L 97.130522 63.765361 
L 97.195741 60.628577 
L 97.259986 65.520339 
L 97.325205 65.366052 
L 97.454669 65.832151 
L 97.519888 62.459946 
L 97.584134 64.028204 
L 97.778817 66.19163 
L 97.909255 68.152917 
L 98.105885 68.842537 
L 98.172077 68.330119 
L 98.696749 71.432853 
L 98.762941 71.337643 
L 99.225314 74.14641 
L 99.29248 73.549402 
L 99.358672 73.908986 
L 99.491057 74.592896 
L 99.558222 75.671101 
L 99.624415 74.09033 
L 99.690607 74.586038 
L 99.823965 75.893859 
L 100.025462 77.238698 
L 100.629954 79.20541 
L 100.698093 78.816043 
L 100.765259 79.787505 
L 100.832424 79.781411 
L 100.967729 80.30187 
L 101.035868 81.022889 
L 101.103034 80.77254 
L 101.306478 81.769771 
L 101.374617 81.090453 
L 101.442757 81.392663 
L 101.579035 82.346828 
L 101.783452 83.116778 
L 101.919731 83.727975 
L 102.115387 84.382453 
L 102.242905 84.431977 
L 102.713065 85.610759 
L 102.772443 84.773495 
L 102.900934 86.516242 
L 102.970047 86.608048 
L 103.03916 85.049116 
L 103.166677 87.225276 
L 103.285434 87.365685 
L 103.344812 85.28313 
L 103.404191 86.105151 
L 103.59206 86.980548 
L 103.661173 86.422545 
L 103.729312 86.676424 
L 103.907447 87.262846 
L 103.966825 89.362259 
L 104.026204 89.253476 
L 104.145934 89.354592 
L 104.265664 90.567653 
L 104.385395 90.415967 
L 104.445746 90.409727 
L 104.506098 88.671835 
L 104.565477 89.653983 
L 104.745559 90.045368 
L 104.865289 89.086239 
L 105.045371 89.90875 
L 105.165101 92.737228 
L 105.225453 92.600202 
L 105.34713 92.47642 
L 105.407482 91.020238 
L 105.467834 91.167292 
L 105.648889 91.593287 
L 105.710214 90.835078 
L 105.830918 92.386803 
L 105.89127 92.462822 
L 105.952595 92.399664 
L 106.073299 92.052022 
L 106.497708 92.969224 
L 106.559033 92.230059 
L 106.68071 93.885994 
L 106.802388 94.020744 
L 106.863713 93.610796 
L 106.925038 93.824224 
L 107.10804 94.175316 
L 107.230691 93.418554 
L 107.291043 93.645352 
L 107.413693 94.354662 
L 107.658994 95.473844 
L 107.720319 95.24774 
L 107.843943 95.859588 
L 107.967567 95.949199 
L 108.028892 95.337896 
L 108.091191 96.898788 
L 108.152516 96.853383 
L 108.27614 96.824915 
L 108.400737 96.014123 
L 108.833908 96.895195 
L 108.896206 96.012529 
L 109.01983 97.33213 
L 109.144428 97.45441 
L 109.206726 96.859346 
L 109.269025 97.09399 
L 109.456894 97.373307 
L 109.520166 97.130635 
L 109.769361 98.336244 
L 109.832633 97.982908 
L 109.894932 98.151297 
L 110.020502 98.341827 
L 110.082801 97.589858 
L 110.208372 98.776587 
L 110.334916 98.809468 
L 110.397214 91.741152 
L 110.459513 92.970851 
L 110.583137 94.858704 
L 110.708708 100.896099 
L 110.77198 100.672315 
L 110.899497 100.546282 
L 110.962769 100.662098 
L 111.027015 101.093198 
L 111.09126 101.012855 
L 111.155506 100.9473 
L 111.219751 101.011746 
L 111.283997 101.089464 
L 111.539032 100.304563 
L 111.603277 101.73295 
L 111.667523 101.657441 
L 111.796987 101.508914 
L 111.862206 95.456421 
L 111.925478 96.129755 
L 112.052022 97.549667 
L 112.180513 102.969965 
L 112.37617 102.293119 
L 112.441389 100.761554 
L 112.506608 102.426662 
L 112.5728 102.385134 
L 112.638019 102.348605 
L 112.704211 101.653735 
L 112.770404 102.778038 
L 112.836596 102.722883 
L 112.901815 102.680481 
L 112.968007 102.776057 
L 113.0342 97.080548 
L 113.099419 98.086836 
L 113.229856 99.31416 
L 113.362241 103.385415 
L 113.497546 103.271825 
L 113.564712 103.369533 
L 113.632851 99.946267 
L 113.699043 100.523559 
L 113.766209 100.898981 
L 113.833375 102.03546 
L 113.901514 101.327198 
L 113.969653 100.66606 
L 114.036819 101.07446 
L 114.104958 101.432554 
L 114.17407 105.509703 
L 114.243183 105.385647 
L 114.372647 105.067278 
L 114.491404 101.559263 
L 114.550782 101.991277 
L 114.728918 102.621536 
L 114.850595 104.004866 
L 114.972272 104.070708 
L 115.03457 104.678239 
L 115.095896 103.299491 
L 115.158194 103.575606 
L 115.281818 103.802416 
L 115.406416 103.348588 
L 115.468714 103.52128 
L 115.531013 103.683755 
L 115.594285 104.29655 
L 115.657557 106.49775 
L 115.721802 106.150737 
L 115.851267 105.937383 
L 115.916486 106.415199 
L 115.981705 104.099041 
L 116.04595 104.243746 
L 116.174441 104.455618 
L 116.304879 106.905034 
L 116.371071 106.783536 
L 116.438237 106.667165 
L 116.504429 106.162359 
L 116.570622 102.564477 
L 116.634867 103.02242 
L 116.700086 103.396282 
L 116.830524 107.883576 
L 116.965829 107.546121 
L 117.033968 107.40589 
L 117.169273 103.530317 
L 117.234492 103.853317 
L 117.300684 104.176926 
L 117.434042 107.858823 
L 117.64138 107.19403 
L 117.710492 105.484553 
L 117.778631 105.664873 
L 117.91491 105.910914 
L 118.053135 108.157748 
L 118.19428 107.940078 
L 118.404538 107.196461 
L 118.474624 107.196603 
L 118.54471 106.392248 
L 118.614796 107.92952 
L 118.685856 107.852993 
L 118.756915 107.808193 
L 118.827974 106.19339 
L 118.89806 107.224381 
L 118.96912 107.212437 
L 119.040179 107.253646 
L 119.111239 105.419633 
L 119.252384 106.96946 
L 119.32247 107.063659 
L 119.393529 106.417872 
L 119.536622 107.537853 
L 119.679714 107.563133 
L 119.751747 108.356921 
L 119.824753 108.288415 
L 120.042798 108.183466 
L 120.188811 108.073671 
L 120.261817 108.003176 
L 120.334823 108.672165 
L 120.407829 108.553171 
L 120.526586 108.560804 
L 120.599592 106.432326 
L 120.745605 107.82926 
L 120.818611 107.941583 
L 120.937368 108.914081 
L 120.996746 108.890804 
L 121.116476 108.906541 
L 121.175855 107.841938 
L 121.235233 108.589273 
L 121.414342 108.730644 
L 121.534072 106.786815 
L 121.680085 107.398742 
L 121.813443 110.405158 
L 121.875741 110.335358 
L 121.999365 110.215398 
L 122.061664 107.798576 
L 122.122016 109.245473 
L 122.305991 109.360281 
L 122.427668 107.858705 
L 122.48802 108.04838 
L 122.852078 108.955965 
L 122.974728 110.708259 
L 123.038001 110.656412 
L 123.165518 110.585198 
L 123.22879 109.817082 
L 123.292062 110.3412 
L 123.418606 110.353869 
L 123.546124 110.86554 
L 123.610369 110.824573 
L 123.739834 110.776933 
L 123.867351 108.788673 
L 123.92965 109.080043 
L 124.054247 109.410243 
L 124.117519 110.309763 
L 124.180791 109.593886 
L 124.244063 109.727962 
L 124.307336 109.848168 
L 124.370608 110.208888 
L 124.43388 109.966825 
L 124.626616 110.289023 
L 124.690862 111.628019 
L 124.756081 111.551805 
L 124.889439 111.489931 
L 124.955631 111.303689 
L 125.021823 110.246017 
L 125.086069 110.346957 
L 125.216507 110.538752 
L 125.281725 111.785939 
L 125.347918 111.46816 
L 125.482249 111.461559 
L 125.548442 110.981239 
L 125.615607 111.979654 
L 125.682773 111.906751 
L 125.750912 111.878997 
L 125.819051 111.539367 
L 125.886217 110.502819 
L 125.952409 110.643766 
L 126.084794 110.8596 
L 126.150986 111.351915 
L 126.218152 111.023166 
L 126.35151 111.174929 
L 126.418676 111.61465 
L 126.486815 111.191534 
L 126.553981 111.353559 
L 126.621146 111.420298 
L 126.689286 111.728157 
L 126.757425 111.418009 
L 126.826537 111.562264 
L 126.962816 111.671309 
L 127.101041 112.459816 
L 127.171127 112.435172 
L 127.241213 112.420748 
L 127.311299 112.231973 
L 127.382358 113.001158 
L 127.454391 112.937471 
L 127.52545 112.895199 
L 127.597483 111.865372 
L 127.668543 112.770957 
L 127.739602 112.692314 
L 127.810661 112.677614 
L 127.882694 111.972059 
L 127.953754 112.691357 
L 128.024813 112.665396 
L 128.096846 112.662642 
L 128.168879 111.651227 
L 128.239938 112.645621 
L 128.310997 112.577255 
L 128.45409 112.668076 
L 128.526122 111.570785 
L 128.596208 111.771471 
L 128.737354 112.209747 
L 128.881419 113.191622 
L 129.029379 113.19425 
L 129.103358 111.931838 
L 129.175391 112.120163 
L 129.318483 112.44287 
L 129.536529 112.916745 
L 129.610508 112.826016 
L 129.684488 112.503432 
L 129.758468 112.618382 
L 129.905454 112.753552 
L 129.979433 113.349316 
L 130.054386 113.325756 
L 130.206239 113.261062 
L 130.281192 112.861677 
L 130.356145 112.938404 
L 130.506052 113.058042 
L 130.581978 113.784998 
L 130.658878 113.73151 
L 130.735778 113.726305 
L 130.813651 113.383964 
L 130.891524 114.020268 
L 130.970371 113.974563 
L 131.049218 113.958611 
L 131.127091 113.614032 
L 131.18647 113.706183 
L 131.323721 113.727093 
L 131.401595 113.197198 
L 131.479468 113.99387 
L 131.538846 113.927611 
L 131.598225 113.933588 
L 131.795828 113.243042 
L 131.872728 113.317124 
L 131.950602 113.40769 
L 132.029448 114.064121 
L 132.088827 114.026146 
L 132.20953 114.044838 
L 132.270856 113.730394 
L 132.331207 114.218272 
L 132.391559 114.174569 
L 132.51421 114.186896 
L 132.635887 113.547247 
L 132.696239 113.638913 
L 132.815969 113.736557 
L 132.937646 114.601565 
L 133.063217 114.541837 
L 133.126489 114.496369 
L 133.189761 113.697266 
L 133.251086 113.83079 
L 133.373736 113.918453 
L 133.496387 114.656134 
L 133.559659 114.637592 
L 133.68815 114.63447 
L 133.815667 114.01114 
L 134.003537 114.144199 
L 134.194326 114.565618 
L 134.259545 114.576868 
L 134.323791 114.439497 
L 134.38901 114.757912 
L 134.454229 114.730507 
L 134.519448 114.738065 
L 134.58564 114.622017 
L 134.650859 114.276231 
L 134.716078 114.349457 
L 134.909788 114.581498 
L 134.975006 114.989563 
L 135.042172 114.955036 
L 135.109338 114.958216 
L 135.177477 114.835085 
L 135.244643 114.469852 
L 135.310835 114.540652 
L 135.777102 114.861954 
L 135.91338 115.058467 
L 136.052578 115.085168 
L 136.19275 115.225926 
L 136.334869 115.121686 
L 136.476015 115.085644 
L 136.61716 115.110995 
L 136.687246 114.87076 
L 136.757332 114.924972 
L 137.539959 115.235897 
L 137.686945 115.379333 
L 137.835877 115.346602 
L 137.985784 115.513188 
L 138.06171 115.518578 
L 138.21259 115.298968 
L 139.849876 115.731473 
L 140.014383 115.666476 
L 142.243507 115.938667 
L 144.784124 116.109356 
L 145.134554 116.085096 
L 151.88033 116.150342 
L 174.745882 116.213158 
L 340.937273 116.26066 
L 340.937273 116.26066 
" clip-path="url(#pa175edea0c)" style="fill: none; stroke: #1f77b4; stroke-width: 1.5; stroke-linecap: square"/>
   </g>
   <g id="patch_3">
    <path d="M 54.02 120.52 
L 54.02 26.88 
" style="fill: none; stroke: #000000; stroke-width: 0.8; stroke-linejoin: miter; stroke-linecap: square"/>
   </g>
   <g id="patch_4">
    <path d="M 354.6 120.52 
L 354.6 26.88 
" style="fill: none; stroke: #000000; stroke-width: 0.8; stroke-linejoin: miter; stroke-linecap: square"/>
   </g>
   <g id="patch_5">
    <path d="M 54.02 120.52 
L 354.6 120.52 
" style="fill: none; stroke: #000000; stroke-width: 0.8; stroke-linejoin: miter; stroke-linecap: square"/>
   </g>
   <g id="patch_6">
    <path d="M 54.02 26.88 
L 354.6 26.88 
" style="fill: none; stroke: #000000; stroke-width: 0.8; stroke-linejoin: miter; stroke-linecap: square"/>
   </g>
   <g id="text_7">
    <!-- 1 -->
    <g transform="translate(198.8128 50.3762) scale(0.1728 -0.1728)">
     <use xlink:href="#DejaVuSans-31"/>
    </g>
   </g>
   <g id="text_8">
    <!-- flows -->
    <g transform="translate(188.827188 20.88) scale(0.12 -0.12)">
     <use xlink:href="#DejaVuSans-66"/>
     <use xlink:href="#DejaVuSans-6c" x="35.205078"/>
     <use xlink:href="#DejaVuSans-6f" x="62.988281"/>
     <use xlink:href="#DejaVuSans-77" x="124.169922"/>
     <use xlink:href="#DejaVuSans-73" x="205.957031"/>
    </g>
   </g>
  </g>
  <g id="axes_2">
   <g id="patch_7">
    <path d="M 408.62 120.52 
L 709.2 120.52 
L 709.2 26.88 
L 408.62 26.88 
z
" style="fill: #ffffff"/>
   </g>
   <g id="matplotlib.axis_3">
    <g id="xtick_8">
     <g id="line2d_13">
      <g>
       <use xlink:href="#m608a2f8302" x="422.282727" y="120.52" style="stroke: #000000; stroke-width: 0.8"/>
      </g>
     </g>
    </g>
    <g id="xtick_9">
     <g id="line2d_14">
      <g>
       <use xlink:href="#m608a2f8302" x="464.334318" y="120.52" style="stroke: #000000; stroke-width: 0.8"/>
      </g>
     </g>
    </g>
    <g id="xtick_10">
     <g id="line2d_15">
      <g>
       <use xlink:href="#m608a2f8302" x="506.385909" y="120.52" style="stroke: #000000; stroke-width: 0.8"/>
      </g>
     </g>
    </g>
    <g id="xtick_11">
     <g id="line2d_16">
      <g>
       <use xlink:href="#m608a2f8302" x="548.437499" y="120.52" style="stroke: #000000; stroke-width: 0.8"/>
      </g>
     </g>
    </g>
    <g id="xtick_12">
     <g id="line2d_17">
      <g>
       <use xlink:href="#m608a2f8302" x="590.48909" y="120.52" style="stroke: #000000; stroke-width: 0.8"/>
      </g>
     </g>
    </g>
    <g id="xtick_13">
     <g id="line2d_18">
      <g>
       <use xlink:href="#m608a2f8302" x="632.54068" y="120.52" style="stroke: #000000; stroke-width: 0.8"/>
      </g>
     </g>
    </g>
    <g id="xtick_14">
     <g id="line2d_19">
      <g>
       <use xlink:href="#m608a2f8302" x="674.592271" y="120.52" style="stroke: #000000; stroke-width: 0.8"/>
      </g>
     </g>
    </g>
    <g id="text_9">
     <!-- time -->
     <g transform="translate(547.613906 139.118437) scale(0.1 -0.1)">
      <use xlink:href="#DejaVuSans-74"/>
      <use xlink:href="#DejaVuSans-69" x="39.208984"/>
      <use xlink:href="#DejaVuSans-6d" x="66.992188"/>
      <use xlink:href="#DejaVuSans-65" x="164.404297"/>
     </g>
    </g>
   </g>
   <g id="matplotlib.axis_4">
    <g id="ytick_5">
     <g id="line2d_20">
      <g>
       <use xlink:href="#ma8e3436436" x="408.62" y="116.263636" style="stroke: #000000; stroke-width: 0.8"/>
      </g>
     </g>
     <g id="text_10">
      <!-- 0.00 -->
      <g transform="translate(379.354375 120.062855) scale(0.1 -0.1)">
       <use xlink:href="#DejaVuSans-30"/>
       <use xlink:href="#DejaVuSans-2e" x="63.623047"/>
       <use xlink:href="#DejaVuSans-30" x="95.410156"/>
       <use xlink:href="#DejaVuSans-30" x="159.033203"/>
      </g>
     </g>
    </g>
    <g id="ytick_6">
     <g id="line2d_21">
      <g>
       <use xlink:href="#ma8e3436436" x="408.62" y="92.482806" style="stroke: #000000; stroke-width: 0.8"/>
      </g>
     </g>
     <g id="text_11">
      <!-- 0.05 -->
      <g transform="translate(379.354375 96.282025) scale(0.1 -0.1)">
       <defs>
        <path id="DejaVuSans-35" d="M 691 4666 
L 3169 4666 
L 3169 4134 
L 1269 4134 
L 1269 2991 
Q 1406 3038 1543 3061 
Q 1681 3084 1819 3084 
Q 2600 3084 3056 2656 
Q 3513 2228 3513 1497 
Q 3513 744 3044 326 
Q 2575 -91 1722 -91 
Q 1428 -91 1123 -41 
Q 819 9 494 109 
L 494 744 
Q 775 591 1075 516 
Q 1375 441 1709 441 
Q 2250 441 2565 725 
Q 2881 1009 2881 1497 
Q 2881 1984 2565 2268 
Q 2250 2553 1709 2553 
Q 1456 2553 1204 2497 
Q 953 2441 691 2322 
L 691 4666 
z
" transform="scale(0.015625)"/>
       </defs>
       <use xlink:href="#DejaVuSans-30"/>
       <use xlink:href="#DejaVuSans-2e" x="63.623047"/>
       <use xlink:href="#DejaVuSans-30" x="95.410156"/>
       <use xlink:href="#DejaVuSans-35" x="159.033203"/>
      </g>
     </g>
    </g>
    <g id="ytick_7">
     <g id="line2d_22">
      <g>
       <use xlink:href="#ma8e3436436" x="408.62" y="68.701975" style="stroke: #000000; stroke-width: 0.8"/>
      </g>
     </g>
     <g id="text_12">
      <!-- 0.10 -->
      <g transform="translate(379.354375 72.501194) scale(0.1 -0.1)">
       <use xlink:href="#DejaVuSans-30"/>
       <use xlink:href="#DejaVuSans-2e" x="63.623047"/>
       <use xlink:href="#DejaVuSans-31" x="95.410156"/>
       <use xlink:href="#DejaVuSans-30" x="159.033203"/>
      </g>
     </g>
    </g>
    <g id="ytick_8">
     <g id="line2d_23">
      <g>
       <use xlink:href="#ma8e3436436" x="408.62" y="44.921145" style="stroke: #000000; stroke-width: 0.8"/>
      </g>
     </g>
     <g id="text_13">
      <!-- 0.15 -->
      <g transform="translate(379.354375 48.720364) scale(0.1 -0.1)">
       <use xlink:href="#DejaVuSans-30"/>
       <use xlink:href="#DejaVuSans-2e" x="63.623047"/>
       <use xlink:href="#DejaVuSans-31" x="95.410156"/>
       <use xlink:href="#DejaVuSans-35" x="159.033203"/>
      </g>
     </g>
    </g>
    <g id="text_14">
     <!-- depth (m) -->
     <g transform="translate(373.274687 98.614844) rotate(-90) scale(0.1 -0.1)">
      <defs>
       <path id="DejaVuSans-64" d="M 2906 2969 
L 2906 4863 
L 3481 4863 
L 3481 0 
L 2906 0 
L 2906 525 
Q 2725 213 2448 61 
Q 2172 -91 1784 -91 
Q 1150 -91 751 415 
Q 353 922 353 1747 
Q 353 2572 751 3078 
Q 1150 3584 1784 3584 
Q 2172 3584 2448 3432 
Q 2725 3281 2906 2969 
z
M 947 1747 
Q 947 1113 1208 752 
Q 1469 391 1925 391 
Q 2381 391 2643 752 
Q 2906 1113 2906 1747 
Q 2906 2381 2643 2742 
Q 2381 3103 1925 3103 
Q 1469 3103 1208 2742 
Q 947 2381 947 1747 
z
" transform="scale(0.015625)"/>
       <path id="DejaVuSans-70" d="M 1159 525 
L 1159 -1331 
L 581 -1331 
L 581 3500 
L 1159 3500 
L 1159 2969 
Q 1341 3281 1617 3432 
Q 1894 3584 2278 3584 
Q 2916 3584 3314 3078 
Q 3713 2572 3713 1747 
Q 3713 922 3314 415 
Q 2916 -91 2278 -91 
Q 1894 -91 1617 61 
Q 1341 213 1159 525 
z
M 3116 1747 
Q 3116 2381 2855 2742 
Q 2594 3103 2138 3103 
Q 1681 3103 1420 2742 
Q 1159 2381 1159 1747 
Q 1159 1113 1420 752 
Q 1681 391 2138 391 
Q 2594 391 2855 752 
Q 3116 1113 3116 1747 
z
" transform="scale(0.015625)"/>
       <path id="DejaVuSans-68" d="M 3513 2113 
L 3513 0 
L 2938 0 
L 2938 2094 
Q 2938 2591 2744 2837 
Q 2550 3084 2163 3084 
Q 1697 3084 1428 2787 
Q 1159 2491 1159 1978 
L 1159 0 
L 581 0 
L 581 4863 
L 1159 4863 
L 1159 2956 
Q 1366 3272 1645 3428 
Q 1925 3584 2291 3584 
Q 2894 3584 3203 3211 
Q 3513 2838 3513 2113 
z
" transform="scale(0.015625)"/>
      </defs>
      <use xlink:href="#DejaVuSans-64"/>
      <use xlink:href="#DejaVuSans-65" x="63.476562"/>
      <use xlink:href="#DejaVuSans-70" x="125"/>
      <use xlink:href="#DejaVuSans-74" x="188.476562"/>
      <use xlink:href="#DejaVuSans-68" x="227.685547"/>
      <use xlink:href="#DejaVuSans-20" x="291.064453"/>
      <use xlink:href="#DejaVuSans-28" x="322.851562"/>
      <use xlink:href="#DejaVuSans-6d" x="361.865234"/>
      <use xlink:href="#DejaVuSans-29" x="459.277344"/>
     </g>
    </g>
   </g>
   <g id="line2d_24">
    <path d="M 422.282727 116.263636 
L 426.284442 116.171042 
L 426.634872 115.81314 
L 426.985302 115.076153 
L 427.510947 113.278608 
L 428.121279 110.256842 
L 429.683613 101.856023 
L 430.615172 94.047479 
L 430.754371 93.810942 
L 431.760883 83.602984 
L 432.448115 78.598413 
L 432.722619 77.797056 
L 432.857924 77.264136 
L 435.070499 58.767213 
L 435.205804 57.929381 
L 435.544553 55.31847 
L 435.74313 54.818392 
L 436.273642 51.817672 
L 437.186707 47.537703 
L 437.509881 46.257535 
L 437.638372 46.356649 
L 437.765889 46.371539 
L 438.149415 45.363096 
L 438.339232 45.176089 
L 438.974873 42.540756 
L 439.667945 40.64921 
L 439.792542 40.548757 
L 440.913918 37.105475 
L 441.222491 36.267955 
L 441.469739 35.408041 
L 441.716013 34.830126 
L 441.961314 34.336118 
L 442.207589 33.599314 
L 442.390591 33.590968 
L 442.878273 32.816828 
L 443.607361 31.143903 
L 443.667713 31.191851 
L 443.971419 31.88394 
L 444.578831 34.060782 
L 444.76086 34.680672 
L 444.822185 34.611892 
L 445.556141 34.950241 
L 445.678792 34.974858 
L 446.04577 35.625142 
L 446.228772 36.205726 
L 446.290097 36.109538 
L 446.719374 35.844543 
L 446.841051 35.796378 
L 447.086352 36.39922 
L 447.270328 37.490617 
L 447.577927 38.972297 
L 448.259319 41.480824 
L 448.694436 43.17005 
L 448.882305 43.612373 
L 449.382641 46.251483 
L 449.508212 46.543703 
L 449.697055 46.208192 
L 449.760327 46.237242 
L 450.138012 47.719279 
L 450.516671 48.766734 
L 450.834005 49.869321 
L 450.961523 50.393685 
L 451.408321 53.278333 
L 452.314572 57.680231 
L 452.575447 58.829534 
L 452.837296 60.070845 
L 453.494352 62.887101 
L 454.825986 68.114986 
L 456.315313 72.891561 
L 457.500934 75.375442 
L 457.885434 75.967227 
L 458.261173 77.360405 
L 458.566825 78.479982 
L 459.225828 78.991151 
L 459.465289 79.614028 
L 459.704749 80.446064 
L 459.765101 80.393774 
L 459.94713 80.189151 
L 461.891043 84.435295 
L 462.136344 84.947179 
L 462.814815 85.355729 
L 462.87614 85.350246 
L 463.682129 86.689034 
L 463.869025 87.029327 
L 464.746073 88.598283 
L 464.934916 88.820451 
L 465.245436 92.115799 
L 465.308708 92.081609 
L 465.819751 91.503973 
L 465.948242 91.53634 
L 466.267523 91.343545 
L 466.396987 91.230173 
L 466.525478 92.245232 
L 466.716268 93.561277 
L 466.97617 93.098923 
L 467.041389 93.270582 
L 467.370404 93.091258 
L 467.568007 92.949673 
L 467.764637 94.403992 
L 467.896049 94.923844 
L 468.164712 94.764783 
L 468.704958 97.013924 
L 468.77407 96.875365 
L 469.032026 96.24131 
L 469.210161 96.822572 
L 469.450595 97.270053 
L 469.758194 97.540311 
L 470.194285 98.437865 
L 470.257557 98.326846 
L 470.516486 97.816695 
L 470.774441 98.330539 
L 470.83966 98.251877 
L 471.104429 97.707195 
L 471.364331 99.01853 
L 471.565829 98.451231 
L 471.633968 98.26932 
L 471.702107 98.324567 
L 471.966876 99.430407 
L 472.103155 99.251626 
L 472.24138 99.030984 
L 472.51491 99.570836 
L 472.583049 99.472867 
L 472.79428 98.998771 
L 472.864366 99.041409 
L 473.427974 98.931079 
L 474.279714 100.034891 
L 474.715804 100.190503 
L 475.199592 100.57713 
L 475.537368 101.086857 
L 475.716476 101.119009 
L 476.207078 102.289525 
L 476.353091 102.74445 
L 476.599365 102.355015 
L 476.844666 102.628747 
L 476.967317 102.8348 
L 477.390753 104.117232 
L 477.513403 104.321284 
L 477.574728 104.260905 
L 477.82879 104.136457 
L 478.210369 104.020728 
L 478.404079 104.016221 
L 478.907336 105.256731 
L 479.290862 105.758102 
L 479.555631 105.578062 
L 479.881725 106.026002 
L 480.486217 106.051682 
L 480.95151 106.826775 
L 481.701041 107.448004 
L 482.054391 107.228827 
L 482.268543 107.142363 
L 482.624813 107.112194 
L 482.768879 107.179992 
L 483.126122 107.448228 
L 483.408413 107.860649 
L 483.629379 107.781357 
L 484.136529 108.48043 
L 484.431474 108.809671 
L 484.654386 108.934054 
L 484.881192 109.07354 
L 485.181978 109.334611 
L 485.923721 109.301748 
L 486.198225 109.387529 
L 486.317955 109.481421 
L 486.688827 109.886225 
L 487.175535 110.037534 
L 487.537646 110.3815 
L 487.789761 110.415215 
L 488.096387 110.69489 
L 488.352395 110.716863 
L 488.794326 111.10039 
L 489.380323 111.424731 
L 489.642172 111.538029 
L 489.844643 111.625694 
L 490.445241 112.086405 
L 491.357332 112.399261 
L 492.139959 112.940061 
L 493.114349 113.343502 
L 494.205548 113.876943 
L 494.860658 114.121122 
L 496.230255 114.589037 
L 499.734554 115.254373 
L 502.450386 115.410112 
L 517.60648 115.704094 
L 532.499752 115.848614 
L 567.192314 116.024365 
L 602.673343 116.109783 
L 683.272225 116.184851 
L 695.537273 116.190573 
L 695.537273 116.190573 
" clip-path="url(#pa029b896e2)" style="fill: none; stroke: #1f77b4; stroke-width: 1.5; stroke-linecap: square"/>
   </g>
   <g id="patch_8">
    <path d="M 408.62 120.52 
L 408.62 26.88 
" style="fill: none; stroke: #000000; stroke-width: 0.8; stroke-linejoin: miter; stroke-linecap: square"/>
   </g>
   <g id="patch_9">
    <path d="M 709.2 120.52 
L 709.2 26.88 
" style="fill: none; stroke: #000000; stroke-width: 0.8; stroke-linejoin: miter; stroke-linecap: square"/>
   </g>
   <g id="patch_10">
    <path d="M 408.62 120.52 
L 709.2 120.52 
" style="fill: none; stroke: #000000; stroke-width: 0.8; stroke-linejoin: miter; stroke-linecap: square"/>
   </g>
   <g id="patch_11">
    <path d="M 408.62 26.88 
L 709.2 26.88 
" style="fill: none; stroke: #000000; stroke-width: 0.8; stroke-linejoin: miter; stroke-linecap: square"/>
   </g>
   <g id="text_15">
    <!-- ('P1', 'depthN') -->
    <g transform="translate(494.8579 50.3762) scale(0.1728 -0.1728)">
     <defs>
      <path id="DejaVuSans-27" d="M 1147 4666 
L 1147 2931 
L 616 2931 
L 616 4666 
L 1147 4666 
z
" transform="scale(0.015625)"/>
      <path id="DejaVuSans-50" d="M 1259 4147 
L 1259 2394 
L 2053 2394 
Q 2494 2394 2734 2622 
Q 2975 2850 2975 3272 
Q 2975 3691 2734 3919 
Q 2494 4147 2053 4147 
L 1259 4147 
z
M 628 4666 
L 2053 4666 
Q 2838 4666 3239 4311 
Q 3641 3956 3641 3272 
Q 3641 2581 3239 2228 
Q 2838 1875 2053 1875 
L 1259 1875 
L 1259 0 
L 628 0 
L 628 4666 
z
" transform="scale(0.015625)"/>
      <path id="DejaVuSans-2c" d="M 750 794 
L 1409 794 
L 1409 256 
L 897 -744 
L 494 -744 
L 750 256 
L 750 794 
z
" transform="scale(0.015625)"/>
      <path id="DejaVuSans-4e" d="M 628 4666 
L 1478 4666 
L 3547 763 
L 3547 4666 
L 4159 4666 
L 4159 0 
L 3309 0 
L 1241 3903 
L 1241 0 
L 628 0 
L 628 4666 
z
" transform="scale(0.015625)"/>
     </defs>
     <use xlink:href="#DejaVuSans-28"/>
     <use xlink:href="#DejaVuSans-27" x="39.013672"/>
     <use xlink:href="#DejaVuSans-50" x="66.503906"/>
     <use xlink:href="#DejaVuSans-31" x="126.806641"/>
     <use xlink:href="#DejaVuSans-27" x="190.429688"/>
     <use xlink:href="#DejaVuSans-2c" x="217.919922"/>
     <use xlink:href="#DejaVuSans-20" x="249.707031"/>
     <use xlink:href="#DejaVuSans-27" x="281.494141"/>
     <use xlink:href="#DejaVuSans-64" x="308.984375"/>
     <use xlink:href="#DejaVuSans-65" x="372.460938"/>
     <use xlink:href="#DejaVuSans-70" x="433.984375"/>
     <use xlink:href="#DejaVuSans-74" x="497.460938"/>
     <use xlink:href="#DejaVuSans-68" x="536.669922"/>
     <use xlink:href="#DejaVuSans-4e" x="600.048828"/>
     <use xlink:href="#DejaVuSans-27" x="674.853516"/>
     <use xlink:href="#DejaVuSans-29" x="702.34375"/>
    </g>
   </g>
   <g id="text_16">
    <!-- depths -->
    <g transform="translate(538.319687 20.88) scale(0.12 -0.12)">
     <use xlink:href="#DejaVuSans-64"/>
     <use xlink:href="#DejaVuSans-65" x="63.476562"/>
     <use xlink:href="#DejaVuSans-70" x="125"/>
     <use xlink:href="#DejaVuSans-74" x="188.476562"/>
     <use xlink:href="#DejaVuSans-68" x="227.685547"/>
     <use xlink:href="#DejaVuSans-73" x="291.064453"/>
    </g>
   </g>
  </g>
  <g id="axes_3">
   <g id="patch_12">
    <path d="M 54.02 246.04 
L 354.6 246.04 
L 354.6 152.4 
L 54.02 152.4 
z
" style="fill: #ffffff"/>
   </g>
   <g id="matplotlib.axis_5">
    <g id="xtick_15">
     <g id="line2d_25">
      <g>
       <use xlink:href="#m608a2f8302" x="67.682727" y="246.04" style="stroke: #000000; stroke-width: 0.8"/>
      </g>
     </g>
     <g id="text_17">
      <!-- 02-25 00 -->
      <g transform="translate(45.202259 260.638437) scale(0.1 -0.1)">
       <defs>
        <path id="DejaVuSans-2d" d="M 313 2009 
L 1997 2009 
L 1997 1497 
L 313 1497 
L 313 2009 
z
" transform="scale(0.015625)"/>
       </defs>
       <use xlink:href="#DejaVuSans-30"/>
       <use xlink:href="#DejaVuSans-32" x="63.623047"/>
       <use xlink:href="#DejaVuSans-2d" x="127.246094"/>
       <use xlink:href="#DejaVuSans-32" x="163.330078"/>
       <use xlink:href="#DejaVuSans-35" x="226.953125"/>
       <use xlink:href="#DejaVuSans-20" x="290.576172"/>
       <use xlink:href="#DejaVuSans-30" x="322.363281"/>
       <use xlink:href="#DejaVuSans-30" x="385.986328"/>
      </g>
     </g>
    </g>
    <g id="xtick_16">
     <g id="line2d_26">
      <g>
       <use xlink:href="#m608a2f8302" x="109.734318" y="246.04" style="stroke: #000000; stroke-width: 0.8"/>
      </g>
     </g>
     <g id="text_18">
      <!-- 02-25 12 -->
      <g transform="translate(87.253849 260.638437) scale(0.1 -0.1)">
       <use xlink:href="#DejaVuSans-30"/>
       <use xlink:href="#DejaVuSans-32" x="63.623047"/>
       <use xlink:href="#DejaVuSans-2d" x="127.246094"/>
       <use xlink:href="#DejaVuSans-32" x="163.330078"/>
       <use xlink:href="#DejaVuSans-35" x="226.953125"/>
       <use xlink:href="#DejaVuSans-20" x="290.576172"/>
       <use xlink:href="#DejaVuSans-31" x="322.363281"/>
       <use xlink:href="#DejaVuSans-32" x="385.986328"/>
      </g>
     </g>
    </g>
    <g id="xtick_17">
     <g id="line2d_27">
      <g>
       <use xlink:href="#m608a2f8302" x="151.785909" y="246.04" style="stroke: #000000; stroke-width: 0.8"/>
      </g>
     </g>
     <g id="text_19">
      <!-- 02-26 00 -->
      <g transform="translate(129.30544 260.638437) scale(0.1 -0.1)">
       <defs>
        <path id="DejaVuSans-36" d="M 2113 2584 
Q 1688 2584 1439 2293 
Q 1191 2003 1191 1497 
Q 1191 994 1439 701 
Q 1688 409 2113 409 
Q 2538 409 2786 701 
Q 3034 994 3034 1497 
Q 3034 2003 2786 2293 
Q 2538 2584 2113 2584 
z
M 3366 4563 
L 3366 3988 
Q 3128 4100 2886 4159 
Q 2644 4219 2406 4219 
Q 1781 4219 1451 3797 
Q 1122 3375 1075 2522 
Q 1259 2794 1537 2939 
Q 1816 3084 2150 3084 
Q 2853 3084 3261 2657 
Q 3669 2231 3669 1497 
Q 3669 778 3244 343 
Q 2819 -91 2113 -91 
Q 1303 -91 875 529 
Q 447 1150 447 2328 
Q 447 3434 972 4092 
Q 1497 4750 2381 4750 
Q 2619 4750 2861 4703 
Q 3103 4656 3366 4563 
z
" transform="scale(0.015625)"/>
       </defs>
       <use xlink:href="#DejaVuSans-30"/>
       <use xlink:href="#DejaVuSans-32" x="63.623047"/>
       <use xlink:href="#DejaVuSans-2d" x="127.246094"/>
       <use xlink:href="#DejaVuSans-32" x="163.330078"/>
       <use xlink:href="#DejaVuSans-36" x="226.953125"/>
       <use xlink:href="#DejaVuSans-20" x="290.576172"/>
       <use xlink:href="#DejaVuSans-30" x="322.363281"/>
       <use xlink:href="#DejaVuSans-30" x="385.986328"/>
      </g>
     </g>
    </g>
    <g id="xtick_18">
     <g id="line2d_28">
      <g>
       <use xlink:href="#m608a2f8302" x="193.837499" y="246.04" style="stroke: #000000; stroke-width: 0.8"/>
      </g>
     </g>
     <g id="text_20">
      <!-- 02-26 12 -->
      <g transform="translate(171.35703 260.638437) scale(0.1 -0.1)">
       <use xlink:href="#DejaVuSans-30"/>
       <use xlink:href="#DejaVuSans-32" x="63.623047"/>
       <use xlink:href="#DejaVuSans-2d" x="127.246094"/>
       <use xlink:href="#DejaVuSans-32" x="163.330078"/>
       <use xlink:href="#DejaVuSans-36" x="226.953125"/>
       <use xlink:href="#DejaVuSans-20" x="290.576172"/>
       <use xlink:href="#DejaVuSans-31" x="322.363281"/>
       <use xlink:href="#DejaVuSans-32" x="385.986328"/>
      </g>
     </g>
    </g>
    <g id="xtick_19">
     <g id="line2d_29">
      <g>
       <use xlink:href="#m608a2f8302" x="235.88909" y="246.04" style="stroke: #000000; stroke-width: 0.8"/>
      </g>
     </g>
     <g id="text_21">
      <!-- 02-27 00 -->
      <g transform="translate(213.408621 260.638437) scale(0.1 -0.1)">
       <defs>
        <path id="DejaVuSans-37" d="M 525 4666 
L 3525 4666 
L 3525 4397 
L 1831 0 
L 1172 0 
L 2766 4134 
L 525 4134 
L 525 4666 
z
" transform="scale(0.015625)"/>
       </defs>
       <use xlink:href="#DejaVuSans-30"/>
       <use xlink:href="#DejaVuSans-32" x="63.623047"/>
       <use xlink:href="#DejaVuSans-2d" x="127.246094"/>
       <use xlink:href="#DejaVuSans-32" x="163.330078"/>
       <use xlink:href="#DejaVuSans-37" x="226.953125"/>
       <use xlink:href="#DejaVuSans-20" x="290.576172"/>
       <use xlink:href="#DejaVuSans-30" x="322.363281"/>
       <use xlink:href="#DejaVuSans-30" x="385.986328"/>
      </g>
     </g>
    </g>
    <g id="xtick_20">
     <g id="line2d_30">
      <g>
       <use xlink:href="#m608a2f8302" x="277.94068" y="246.04" style="stroke: #000000; stroke-width: 0.8"/>
      </g>
     </g>
     <g id="text_22">
      <!-- 02-27 12 -->
      <g transform="translate(255.460212 260.638437) scale(0.1 -0.1)">
       <use xlink:href="#DejaVuSans-30"/>
       <use xlink:href="#DejaVuSans-32" x="63.623047"/>
       <use xlink:href="#DejaVuSans-2d" x="127.246094"/>
       <use xlink:href="#DejaVuSans-32" x="163.330078"/>
       <use xlink:href="#DejaVuSans-37" x="226.953125"/>
       <use xlink:href="#DejaVuSans-20" x="290.576172"/>
       <use xlink:href="#DejaVuSans-31" x="322.363281"/>
       <use xlink:href="#DejaVuSans-32" x="385.986328"/>
      </g>
     </g>
    </g>
    <g id="xtick_21">
     <g id="line2d_31">
      <g>
       <use xlink:href="#m608a2f8302" x="319.992271" y="246.04" style="stroke: #000000; stroke-width: 0.8"/>
      </g>
     </g>
     <g id="text_23">
      <!-- 02-28 00 -->
      <g transform="translate(297.511802 260.638437) scale(0.1 -0.1)">
       <defs>
        <path id="DejaVuSans-38" d="M 2034 2216 
Q 1584 2216 1326 1975 
Q 1069 1734 1069 1313 
Q 1069 891 1326 650 
Q 1584 409 2034 409 
Q 2484 409 2743 651 
Q 3003 894 3003 1313 
Q 3003 1734 2745 1975 
Q 2488 2216 2034 2216 
z
M 1403 2484 
Q 997 2584 770 2862 
Q 544 3141 544 3541 
Q 544 4100 942 4425 
Q 1341 4750 2034 4750 
Q 2731 4750 3128 4425 
Q 3525 4100 3525 3541 
Q 3525 3141 3298 2862 
Q 3072 2584 2669 2484 
Q 3125 2378 3379 2068 
Q 3634 1759 3634 1313 
Q 3634 634 3220 271 
Q 2806 -91 2034 -91 
Q 1263 -91 848 271 
Q 434 634 434 1313 
Q 434 1759 690 2068 
Q 947 2378 1403 2484 
z
M 1172 3481 
Q 1172 3119 1398 2916 
Q 1625 2713 2034 2713 
Q 2441 2713 2670 2916 
Q 2900 3119 2900 3481 
Q 2900 3844 2670 4047 
Q 2441 4250 2034 4250 
Q 1625 4250 1398 4047 
Q 1172 3844 1172 3481 
z
" transform="scale(0.015625)"/>
       </defs>
       <use xlink:href="#DejaVuSans-30"/>
       <use xlink:href="#DejaVuSans-32" x="63.623047"/>
       <use xlink:href="#DejaVuSans-2d" x="127.246094"/>
       <use xlink:href="#DejaVuSans-32" x="163.330078"/>
       <use xlink:href="#DejaVuSans-38" x="226.953125"/>
       <use xlink:href="#DejaVuSans-20" x="290.576172"/>
       <use xlink:href="#DejaVuSans-30" x="322.363281"/>
       <use xlink:href="#DejaVuSans-30" x="385.986328"/>
      </g>
     </g>
    </g>
    <g id="text_24">
     <!-- time -->
     <g transform="translate(193.013906 274.316562) scale(0.1 -0.1)">
      <use xlink:href="#DejaVuSans-74"/>
      <use xlink:href="#DejaVuSans-69" x="39.208984"/>
      <use xlink:href="#DejaVuSans-6d" x="66.992188"/>
      <use xlink:href="#DejaVuSans-65" x="164.404297"/>
     </g>
    </g>
   </g>
   <g id="matplotlib.axis_6">
    <g id="ytick_9">
     <g id="line2d_32">
      <g>
       <use xlink:href="#ma8e3436436" x="54.02" y="241.783636" style="stroke: #000000; stroke-width: 0.8"/>
      </g>
     </g>
     <g id="text_25">
      <!-- 0.0 -->
      <g transform="translate(31.116875 245.582855) scale(0.1 -0.1)">
       <use xlink:href="#DejaVuSans-30"/>
       <use xlink:href="#DejaVuSans-2e" x="63.623047"/>
       <use xlink:href="#DejaVuSans-30" x="95.410156"/>
      </g>
     </g>
    </g>
    <g id="ytick_10">
     <g id="line2d_33">
      <g>
       <use xlink:href="#ma8e3436436" x="54.02" y="202.28068" style="stroke: #000000; stroke-width: 0.8"/>
      </g>
     </g>
     <g id="text_26">
      <!-- 0.1 -->
      <g transform="translate(31.116875 206.079899) scale(0.1 -0.1)">
       <use xlink:href="#DejaVuSans-30"/>
       <use xlink:href="#DejaVuSans-2e" x="63.623047"/>
       <use xlink:href="#DejaVuSans-31" x="95.410156"/>
      </g>
     </g>
    </g>
    <g id="ytick_11">
     <g id="line2d_34">
      <g>
       <use xlink:href="#ma8e3436436" x="54.02" y="162.777724" style="stroke: #000000; stroke-width: 0.8"/>
      </g>
     </g>
     <g id="text_27">
      <!-- 0.2 -->
      <g transform="translate(31.116875 166.576943) scale(0.1 -0.1)">
       <use xlink:href="#DejaVuSans-30"/>
       <use xlink:href="#DejaVuSans-2e" x="63.623047"/>
       <use xlink:href="#DejaVuSans-32" x="95.410156"/>
      </g>
     </g>
    </g>
    <g id="text_28">
     <!-- flow (cms) -->
     <g transform="translate(25.037188 225.2325) rotate(-90) scale(0.1 -0.1)">
      <use xlink:href="#DejaVuSans-66"/>
      <use xlink:href="#DejaVuSans-6c" x="35.205078"/>
      <use xlink:href="#DejaVuSans-6f" x="62.988281"/>
      <use xlink:href="#DejaVuSans-77" x="124.169922"/>
      <use xlink:href="#DejaVuSans-20" x="205.957031"/>
      <use xlink:href="#DejaVuSans-28" x="237.744141"/>
      <use xlink:href="#DejaVuSans-63" x="276.757812"/>
      <use xlink:href="#DejaVuSans-6d" x="331.738281"/>
      <use xlink:href="#DejaVuSans-73" x="429.150391"/>
      <use xlink:href="#DejaVuSans-29" x="481.25"/>
     </g>
    </g>
   </g>
   <g id="line2d_35">
    <path d="M 67.682727 241.783636 
L 73.348984 241.676255 
L 73.895071 241.406222 
L 74.292225 241.046639 
L 74.70106 240.435521 
L 75.227678 239.12701 
L 75.696865 237.074249 
L 76.223483 233.517454 
L 76.843549 227.755696 
L 77.987314 214.278316 
L 79.046391 199.812636 
L 79.359831 192.500815 
L 79.66159 186.600209 
L 79.721942 187.356995 
L 79.961402 184.717477 
L 80.020781 185.137708 
L 80.267055 182.382861 
L 80.335194 182.580017 
L 80.538638 179.587991 
L 80.673943 182.1822 
L 81.408873 175.83663 
L 81.541257 177.747096 
L 81.738861 175.877116 
L 81.805053 176.215162 
L 81.870272 176.100199 
L 82.327778 172.939227 
L 82.457242 174.280347 
L 82.716171 172.019103 
L 82.845635 170.736309 
L 82.909881 171.315401 
L 82.974126 171.199182 
L 83.165889 169.514459 
L 83.229161 170.949366 
L 83.293407 170.509174 
L 83.48517 169.281353 
L 83.549415 169.551356 
L 83.739232 168.167024 
L 83.866749 170.527136 
L 83.930995 170.371313 
L 84.627961 166.087288 
L 84.753532 167.578527 
L 85.192542 165.527088 
L 85.254841 165.694103 
L 85.318113 165.604688 
L 85.505009 164.138885 
L 85.63058 165.35926 
L 85.817476 164.339404 
L 85.9411 164.87778 
L 86.065697 164.280619 
L 86.251619 163.620092 
L 86.376217 162.769713 
L 86.437542 163.442814 
L 86.68479 160.944673 
L 86.80744 163.997134 
L 86.869739 163.907855 
L 87.238664 161.976737 
L 87.422639 164.069389 
L 87.546263 163.490268 
L 87.790591 161.117437 
L 87.851916 160.927194 
L 87.912268 161.493449 
L 87.973593 161.044044 
L 88.156595 160.300518 
L 88.278273 162.108075 
L 88.338624 162.027499 
L 88.703655 159.966848 
L 88.764981 160.405606 
L 88.825333 160.463668 
L 89.007361 159.580137 
L 89.067713 160.145112 
L 89.129038 159.817663 
L 89.311067 159.002085 
L 89.431771 159.69247 
L 89.6138 159.281951 
L 89.675125 159.381143 
L 89.857154 157.95053 
L 89.978831 158.527895 
L 90.16086 157.861545 
L 90.343862 159.280504 
L 90.466513 158.91233 
L 90.589163 159.366887 
L 90.772165 158.753229 
L 90.894816 159.628432 
L 90.956141 159.540487 
L 91.140117 158.725261 
L 91.323119 157.84891 
L 91.384444 158.162808 
L 91.44577 157.920907 
L 91.628772 157.108456 
L 91.812748 159.223254 
L 91.996723 158.638963 
L 92.180699 156.946333 
L 92.241051 157.15164 
L 92.363701 158.323163 
L 92.425027 158.286886 
L 92.547677 158.084859 
L 92.731653 158.63319 
L 92.792978 158.52764 
L 93.101551 157.34895 
L 93.162876 157.779796 
L 93.225175 157.743326 
L 93.348799 157.415549 
L 93.411097 157.450134 
L 93.59702 158.363539 
L 93.721617 158.210579 
L 93.969838 157.448246 
L 94.094436 157.680668 
L 94.282305 157.383065 
L 94.593798 158.299786 
L 94.782641 157.043635 
L 94.84494 156.955402 
L 95.033783 158.342565 
L 95.097055 158.251242 
L 95.160327 158.149518 
L 95.223599 157.657351 
L 95.286871 157.856317 
L 95.412442 157.922608 
L 95.47474 157.854903 
L 95.664557 156.688307 
L 95.727829 156.656364 
L 95.979943 158.233441 
L 96.425768 157.263323 
L 96.616558 157.359403 
L 96.744075 157.694177 
L 96.936812 157.568782 
L 97.130522 158.773912 
L 97.195741 158.679299 
L 97.390424 156.932785 
L 97.454669 156.874946 
L 97.519888 157.090156 
L 97.714572 158.432366 
L 97.778817 158.464266 
L 97.844036 157.96592 
L 97.909255 158.172764 
L 98.040666 158.271688 
L 98.105885 158.13212 
L 98.237296 157.340473 
L 98.302515 157.350088 
L 98.367734 157.409635 
L 98.565338 157.192881 
L 98.630556 157.237923 
L 98.696749 157.585118 
L 98.82816 156.948526 
L 98.894352 156.985948 
L 99.491057 158.429884 
L 99.624415 158.243795 
L 99.823965 158.756904 
L 99.891131 158.320489 
L 99.958296 158.417971 
L 100.091655 158.590691 
L 100.15882 158.309905 
L 100.360317 159.163133 
L 100.495622 158.470736 
L 100.562788 158.542675 
L 100.698093 158.770004 
L 100.765259 158.542621 
L 100.967729 158.929866 
L 101.103034 158.44737 
L 101.171173 158.517475 
L 101.579035 159.291911 
L 101.647174 159.049545 
L 101.851591 159.833208 
L 102.047248 158.656872 
L 102.115387 158.748791 
L 102.183526 158.656052 
L 102.380157 158.617826 
L 102.585547 159.316006 
L 102.772443 159.661043 
L 102.831822 159.500045 
L 102.900934 159.609232 
L 103.03916 159.826505 
L 103.107299 159.370565 
L 103.166677 159.52364 
L 103.344812 159.791211 
L 103.463569 158.786374 
L 103.522948 158.804956 
L 103.661173 159.019765 
L 103.729312 158.941733 
L 103.966825 159.578413 
L 104.086556 159.126853 
L 104.205312 159.42744 
L 104.445746 161.255069 
L 104.506098 161.205959 
L 104.685207 159.565102 
L 104.804937 159.895459 
L 105.045371 161.425392 
L 105.104749 161.259527 
L 105.165101 161.355102 
L 105.34713 161.973655 
L 105.467834 161.133984 
L 105.648889 161.84049 
L 105.710214 161.3171 
L 105.952595 163.157354 
L 106.13365 160.527604 
L 106.315679 161.36608 
L 106.497708 162.196882 
L 106.559033 162.071051 
L 106.619385 162.044612 
L 106.802388 163.045816 
L 106.925038 162.464719 
L 106.986363 162.630929 
L 107.10804 163.215142 
L 107.169366 162.876526 
L 107.230691 163.107733 
L 107.413693 164.005997 
L 107.597669 161.954421 
L 107.720319 162.509062 
L 107.967567 165.183547 
L 108.028892 164.845199 
L 108.152516 163.629623 
L 108.462063 164.862387 
L 108.585686 165.63283 
L 108.710284 164.304864 
L 108.771609 164.422577 
L 108.896206 164.803607 
L 108.957532 164.626762 
L 109.144428 165.602641 
L 109.206726 165.219894 
L 109.456894 169.2524 
L 109.644764 165.457096 
L 109.832633 166.393106 
L 109.894932 166.216838 
L 110.334916 168.798112 
L 110.397214 167.667879 
L 110.459513 167.724293 
L 110.645436 170.337092 
L 110.708708 169.756624 
L 110.77198 169.000735 
L 110.835252 169.11982 
L 111.219751 172.423367 
L 111.348242 168.558453 
L 111.411514 168.594243 
L 111.539032 170.458489 
L 111.796987 174.273772 
L 111.925478 172.848902 
L 112.116268 174.878723 
L 112.180513 174.656808 
L 112.245732 174.342 
L 112.441389 176.198304 
L 112.638019 179.418124 
L 112.704211 179.282818 
L 112.836596 176.846078 
L 113.0342 179.858924 
L 113.296049 183.54616 
L 113.362241 183.486481 
L 113.833375 188.030123 
L 113.901514 187.854166 
L 115.03457 206.499435 
L 115.721802 212.305367 
L 116.438237 216.094567 
L 116.764331 217.115519 
L 117.033968 218.51022 
L 117.300684 219.140589 
L 117.64138 220.440263 
L 117.710492 220.50239 
L 118.19428 221.981965 
L 118.264366 221.933551 
L 118.54471 222.663948 
L 118.96912 223.537703 
L 119.970765 225.382356 
L 120.042798 225.40622 
L 120.261817 225.811819 
L 120.334823 225.814347 
L 120.818611 226.592738 
L 121.235233 227.089395 
L 121.474694 227.426115 
L 121.534072 227.327958 
L 121.753091 227.69698 
L 121.937067 228.114216 
L 123.804079 230.144328 
L 123.867351 230.04047 
L 124.054247 230.20715 
L 124.117519 230.396662 
L 124.180791 230.311109 
L 124.370608 230.543318 
L 124.562371 230.835366 
L 125.819051 232.064496 
L 125.952409 232.045906 
L 128.096846 233.830853 
L 128.239938 233.844133 
L 129.029379 234.515708 
L 129.175391 234.471756 
L 131.795828 236.173305 
L 134.58564 237.634411 
L 134.780323 237.65589 
L 137.038649 238.637162 
L 139.849876 239.633316 
L 140.343398 239.743352 
L 142.1559 240.187043 
L 144.433694 240.574649 
L 146.536274 240.820294 
L 155.034199 241.289047 
L 155.297022 241.258803 
L 155.735059 241.320128 
L 157.662424 241.369834 
L 158.012854 241.345536 
L 159.677396 241.382007 
L 160.115433 241.420356 
L 172.292873 241.564536 
L 174.395452 241.588761 
L 186.572892 241.654504 
L 187.974612 241.655614 
L 191.741734 241.673569 
L 260.951643 241.752528 
L 294.855738 241.762872 
L 323.590992 241.768578 
L 340.937273 241.770859 
L 340.937273 241.770859 
" clip-path="url(#p91095a9214)" style="fill: none; stroke: #1f77b4; stroke-width: 1.5; stroke-linecap: square"/>
   </g>
   <g id="patch_13">
    <path d="M 54.02 246.04 
L 54.02 152.4 
" style="fill: none; stroke: #000000; stroke-width: 0.8; stroke-linejoin: miter; stroke-linecap: square"/>
   </g>
   <g id="patch_14">
    <path d="M 354.6 246.04 
L 354.6 152.4 
" style="fill: none; stroke: #000000; stroke-width: 0.8; stroke-linejoin: miter; stroke-linecap: square"/>
   </g>
   <g id="patch_15">
    <path d="M 54.02 246.04 
L 354.6 246.04 
" style="fill: none; stroke: #000000; stroke-width: 0.8; stroke-linejoin: miter; stroke-linecap: square"/>
   </g>
   <g id="patch_16">
    <path d="M 54.02 152.4 
L 354.6 152.4 
" style="fill: none; stroke: #000000; stroke-width: 0.8; stroke-linejoin: miter; stroke-linecap: square"/>
   </g>
   <g id="text_29">
    <!-- 2 -->
    <g transform="translate(198.8128 175.8962) scale(0.1728 -0.1728)">
     <use xlink:href="#DejaVuSans-32"/>
    </g>
   </g>
  </g>
  <g id="axes_4">
   <g id="patch_17">
    <path d="M 408.62 246.04 
L 709.2 246.04 
L 709.2 152.4 
L 408.62 152.4 
z
" style="fill: #ffffff"/>
   </g>
   <g id="matplotlib.axis_7">
    <g id="xtick_22">
     <g id="line2d_36">
      <g>
       <use xlink:href="#m608a2f8302" x="422.282727" y="246.04" style="stroke: #000000; stroke-width: 0.8"/>
      </g>
     </g>
     <g id="text_30">
      <!-- 02-25 00 -->
      <g transform="translate(399.802259 260.638437) scale(0.1 -0.1)">
       <use xlink:href="#DejaVuSans-30"/>
       <use xlink:href="#DejaVuSans-32" x="63.623047"/>
       <use xlink:href="#DejaVuSans-2d" x="127.246094"/>
       <use xlink:href="#DejaVuSans-32" x="163.330078"/>
       <use xlink:href="#DejaVuSans-35" x="226.953125"/>
       <use xlink:href="#DejaVuSans-20" x="290.576172"/>
       <use xlink:href="#DejaVuSans-30" x="322.363281"/>
       <use xlink:href="#DejaVuSans-30" x="385.986328"/>
      </g>
     </g>
    </g>
    <g id="xtick_23">
     <g id="line2d_37">
      <g>
       <use xlink:href="#m608a2f8302" x="464.334318" y="246.04" style="stroke: #000000; stroke-width: 0.8"/>
      </g>
     </g>
     <g id="text_31">
      <!-- 02-25 12 -->
      <g transform="translate(441.853849 260.638437) scale(0.1 -0.1)">
       <use xlink:href="#DejaVuSans-30"/>
       <use xlink:href="#DejaVuSans-32" x="63.623047"/>
       <use xlink:href="#DejaVuSans-2d" x="127.246094"/>
       <use xlink:href="#DejaVuSans-32" x="163.330078"/>
       <use xlink:href="#DejaVuSans-35" x="226.953125"/>
       <use xlink:href="#DejaVuSans-20" x="290.576172"/>
       <use xlink:href="#DejaVuSans-31" x="322.363281"/>
       <use xlink:href="#DejaVuSans-32" x="385.986328"/>
      </g>
     </g>
    </g>
    <g id="xtick_24">
     <g id="line2d_38">
      <g>
       <use xlink:href="#m608a2f8302" x="506.385909" y="246.04" style="stroke: #000000; stroke-width: 0.8"/>
      </g>
     </g>
     <g id="text_32">
      <!-- 02-26 00 -->
      <g transform="translate(483.90544 260.638437) scale(0.1 -0.1)">
       <use xlink:href="#DejaVuSans-30"/>
       <use xlink:href="#DejaVuSans-32" x="63.623047"/>
       <use xlink:href="#DejaVuSans-2d" x="127.246094"/>
       <use xlink:href="#DejaVuSans-32" x="163.330078"/>
       <use xlink:href="#DejaVuSans-36" x="226.953125"/>
       <use xlink:href="#DejaVuSans-20" x="290.576172"/>
       <use xlink:href="#DejaVuSans-30" x="322.363281"/>
       <use xlink:href="#DejaVuSans-30" x="385.986328"/>
      </g>
     </g>
    </g>
    <g id="xtick_25">
     <g id="line2d_39">
      <g>
       <use xlink:href="#m608a2f8302" x="548.437499" y="246.04" style="stroke: #000000; stroke-width: 0.8"/>
      </g>
     </g>
     <g id="text_33">
      <!-- 02-26 12 -->
      <g transform="translate(525.95703 260.638437) scale(0.1 -0.1)">
       <use xlink:href="#DejaVuSans-30"/>
       <use xlink:href="#DejaVuSans-32" x="63.623047"/>
       <use xlink:href="#DejaVuSans-2d" x="127.246094"/>
       <use xlink:href="#DejaVuSans-32" x="163.330078"/>
       <use xlink:href="#DejaVuSans-36" x="226.953125"/>
       <use xlink:href="#DejaVuSans-20" x="290.576172"/>
       <use xlink:href="#DejaVuSans-31" x="322.363281"/>
       <use xlink:href="#DejaVuSans-32" x="385.986328"/>
      </g>
     </g>
    </g>
    <g id="xtick_26">
     <g id="line2d_40">
      <g>
       <use xlink:href="#m608a2f8302" x="590.48909" y="246.04" style="stroke: #000000; stroke-width: 0.8"/>
      </g>
     </g>
     <g id="text_34">
      <!-- 02-27 00 -->
      <g transform="translate(568.008621 260.638437) scale(0.1 -0.1)">
       <use xlink:href="#DejaVuSans-30"/>
       <use xlink:href="#DejaVuSans-32" x="63.623047"/>
       <use xlink:href="#DejaVuSans-2d" x="127.246094"/>
       <use xlink:href="#DejaVuSans-32" x="163.330078"/>
       <use xlink:href="#DejaVuSans-37" x="226.953125"/>
       <use xlink:href="#DejaVuSans-20" x="290.576172"/>
       <use xlink:href="#DejaVuSans-30" x="322.363281"/>
       <use xlink:href="#DejaVuSans-30" x="385.986328"/>
      </g>
     </g>
    </g>
    <g id="xtick_27">
     <g id="line2d_41">
      <g>
       <use xlink:href="#m608a2f8302" x="632.54068" y="246.04" style="stroke: #000000; stroke-width: 0.8"/>
      </g>
     </g>
     <g id="text_35">
      <!-- 02-27 12 -->
      <g transform="translate(610.060212 260.638437) scale(0.1 -0.1)">
       <use xlink:href="#DejaVuSans-30"/>
       <use xlink:href="#DejaVuSans-32" x="63.623047"/>
       <use xlink:href="#DejaVuSans-2d" x="127.246094"/>
       <use xlink:href="#DejaVuSans-32" x="163.330078"/>
       <use xlink:href="#DejaVuSans-37" x="226.953125"/>
       <use xlink:href="#DejaVuSans-20" x="290.576172"/>
       <use xlink:href="#DejaVuSans-31" x="322.363281"/>
       <use xlink:href="#DejaVuSans-32" x="385.986328"/>
      </g>
     </g>
    </g>
    <g id="xtick_28">
     <g id="line2d_42">
      <g>
       <use xlink:href="#m608a2f8302" x="674.592271" y="246.04" style="stroke: #000000; stroke-width: 0.8"/>
      </g>
     </g>
     <g id="text_36">
      <!-- 02-28 00 -->
      <g transform="translate(652.111802 260.638437) scale(0.1 -0.1)">
       <use xlink:href="#DejaVuSans-30"/>
       <use xlink:href="#DejaVuSans-32" x="63.623047"/>
       <use xlink:href="#DejaVuSans-2d" x="127.246094"/>
       <use xlink:href="#DejaVuSans-32" x="163.330078"/>
       <use xlink:href="#DejaVuSans-38" x="226.953125"/>
       <use xlink:href="#DejaVuSans-20" x="290.576172"/>
       <use xlink:href="#DejaVuSans-30" x="322.363281"/>
       <use xlink:href="#DejaVuSans-30" x="385.986328"/>
      </g>
     </g>
    </g>
    <g id="text_37">
     <!-- time -->
     <g transform="translate(547.613906 274.316562) scale(0.1 -0.1)">
      <use xlink:href="#DejaVuSans-74"/>
      <use xlink:href="#DejaVuSans-69" x="39.208984"/>
      <use xlink:href="#DejaVuSans-6d" x="66.992188"/>
      <use xlink:href="#DejaVuSans-65" x="164.404297"/>
     </g>
    </g>
   </g>
   <g id="matplotlib.axis_8">
    <g id="ytick_12">
     <g id="line2d_43">
      <g>
       <use xlink:href="#ma8e3436436" x="408.62" y="241.783636" style="stroke: #000000; stroke-width: 0.8"/>
      </g>
     </g>
     <g id="text_38">
      <!-- 0 -->
      <g transform="translate(395.2575 245.582855) scale(0.1 -0.1)">
       <use xlink:href="#DejaVuSans-30"/>
      </g>
     </g>
    </g>
    <g id="ytick_13">
     <g id="line2d_44">
      <g>
       <use xlink:href="#ma8e3436436" x="408.62" y="196.794535" style="stroke: #000000; stroke-width: 0.8"/>
      </g>
     </g>
     <g id="text_39">
      <!-- 1 -->
      <g transform="translate(395.2575 200.593754) scale(0.1 -0.1)">
       <use xlink:href="#DejaVuSans-31"/>
      </g>
     </g>
    </g>
    <g id="text_40">
     <!-- depth (m) -->
     <g transform="translate(389.177812 224.134844) rotate(-90) scale(0.1 -0.1)">
      <use xlink:href="#DejaVuSans-64"/>
      <use xlink:href="#DejaVuSans-65" x="63.476562"/>
      <use xlink:href="#DejaVuSans-70" x="125"/>
      <use xlink:href="#DejaVuSans-74" x="188.476562"/>
      <use xlink:href="#DejaVuSans-68" x="227.685547"/>
      <use xlink:href="#DejaVuSans-20" x="291.064453"/>
      <use xlink:href="#DejaVuSans-28" x="322.851562"/>
      <use xlink:href="#DejaVuSans-6d" x="361.865234"/>
      <use xlink:href="#DejaVuSans-29" x="459.277344"/>
     </g>
    </g>
   </g>
   <g id="line2d_45">
    <path d="M 422.282727 241.783636 
L 426.897695 241.686922 
L 427.598555 241.401337 
L 428.354899 240.82382 
L 429.225133 239.823334 
L 429.827678 238.851885 
L 430.544113 237.221039 
L 435.409248 224.389978 
L 436.79734 219.579828 
L 438.149415 214.222408 
L 439.479102 208.195534 
L 440.976217 200.605073 
L 442.816947 189.764838 
L 444.517506 179.425548 
L 446.719374 168.313393 
L 447.762876 163.920111 
L 448.694436 161.07475 
L 449.760327 158.612002 
L 450.643216 157.096629 
L 451.08904 156.734106 
L 451.536812 156.662317 
L 451.925205 156.773272 
L 452.575447 157.346924 
L 453.099145 158.120188 
L 453.89248 159.709363 
L 454.75882 161.888159 
L 455.703034 164.797706 
L 456.980157 169.497821 
L 458.686556 176.884881 
L 461.28071 189.631452 
L 464.494932 206.953984 
L 466.97617 220.178199 
L 468.299043 226.12099 
L 469.091404 228.798723 
L 469.81952 230.272782 
L 470.581705 231.337131 
L 471.49769 232.258093 
L 472.653135 233.075669 
L 474.279714 233.901883 
L 476.475741 234.747818 
L 480.015083 235.823582 
L 486.317955 237.414926 
L 493.730521 238.981981 
L 498.420442 239.727581 
L 502.713208 240.145508 
L 509.809414 240.543008 
L 518.219732 240.807556 
L 534.952761 241.083583 
L 561.76065 241.28822 
L 618.79312 241.474279 
L 695.537273 241.581514 
L 695.537273 241.581514 
" clip-path="url(#p3fd1d139a5)" style="fill: none; stroke: #1f77b4; stroke-width: 1.5; stroke-linecap: square"/>
   </g>
   <g id="patch_18">
    <path d="M 408.62 246.04 
L 408.62 152.4 
" style="fill: none; stroke: #000000; stroke-width: 0.8; stroke-linejoin: miter; stroke-linecap: square"/>
   </g>
   <g id="patch_19">
    <path d="M 709.2 246.04 
L 709.2 152.4 
" style="fill: none; stroke: #000000; stroke-width: 0.8; stroke-linejoin: miter; stroke-linecap: square"/>
   </g>
   <g id="patch_20">
    <path d="M 408.62 246.04 
L 709.2 246.04 
" style="fill: none; stroke: #000000; stroke-width: 0.8; stroke-linejoin: miter; stroke-linecap: square"/>
   </g>
   <g id="patch_21">
    <path d="M 408.62 152.4 
L 709.2 152.4 
" style="fill: none; stroke: #000000; stroke-width: 0.8; stroke-linejoin: miter; stroke-linecap: square"/>
   </g>
   <g id="text_41">
    <!-- ('P2', 'depthN') -->
    <g transform="translate(494.8579 175.8962) scale(0.1728 -0.1728)">
     <use xlink:href="#DejaVuSans-28"/>
     <use xlink:href="#DejaVuSans-27" x="39.013672"/>
     <use xlink:href="#DejaVuSans-50" x="66.503906"/>
     <use xlink:href="#DejaVuSans-32" x="126.806641"/>
     <use xlink:href="#DejaVuSans-27" x="190.429688"/>
     <use xlink:href="#DejaVuSans-2c" x="217.919922"/>
     <use xlink:href="#DejaVuSans-20" x="249.707031"/>
     <use xlink:href="#DejaVuSans-27" x="281.494141"/>
     <use xlink:href="#DejaVuSans-64" x="308.984375"/>
     <use xlink:href="#DejaVuSans-65" x="372.460938"/>
     <use xlink:href="#DejaVuSans-70" x="433.984375"/>
     <use xlink:href="#DejaVuSans-74" x="497.460938"/>
     <use xlink:href="#DejaVuSans-68" x="536.669922"/>
     <use xlink:href="#DejaVuSans-4e" x="600.048828"/>
     <use xlink:href="#DejaVuSans-27" x="674.853516"/>
     <use xlink:href="#DejaVuSans-29" x="702.34375"/>
    </g>
   </g>
  </g>
 </g>
 <defs>
  <clipPath id="pa175edea0c">
   <rect x="54.02" y="26.88" width="300.58" height="93.64"/>
  </clipPath>
  <clipPath id="pa029b896e2">
   <rect x="408.62" y="26.88" width="300.58" height="93.64"/>
  </clipPath>
  <clipPath id="p91095a9214">
   <rect x="54.02" y="152.4" width="300.58" height="93.64"/>
  </clipPath>
  <clipPath id="p3fd1d139a5">
   <rect x="408.62" y="152.4" width="300.58" height="93.64"/>
  </clipPath>
 </defs>
</svg>
