<?xml version="1.0" encoding="utf-8" standalone="no"?>
<!DOCTYPE svg PUBLIC "-//W3C//DTD SVG 1.1//EN"
  "http://www.w3.org/Graphics/SVG/1.1/DTD/svg11.dtd">
<svg xmlns:xlink="http://www.w3.org/1999/xlink" width="720pt" height="288pt" viewBox="0 0 720 288" xmlns="http://www.w3.org/2000/svg" version="1.1">
 <metadata>
  <rdf:RDF xmlns:dc="http://purl.org/dc/elements/1.1/" xmlns:cc="http://creativecommons.org/ns#" xmlns:rdf="http://www.w3.org/1999/02/22-rdf-syntax-ns#">
   <cc:Work>
    <dc:type rdf:resource="http://purl.org/dc/dcmitype/StillImage"/>
    <dc:date>2025-01-28T16:54:07.226633</dc:date>
    <dc:format>image/svg+xml</dc:format>
    <dc:creator>
     <cc:Agent>
      <dc:title>Matplotlib v3.9.4, https://matplotlib.org/</dc:title>
     </cc:Agent>
    </dc:creator>
   </cc:Work>
  </rdf:RDF>
 </metadata>
 <defs>
  <style type="text/css">*{stroke-linejoin: round; stroke-linecap: butt}</style>
 </defs>
 <g id="figure_1">
  <g id="patch_1">
   <path d="M 0 288 
L 720 288 
L 720 0 
L 0 0 
z
" style="fill: #ffffff"/>
  </g>
  <g id="axes_1">
   <g id="patch_2">
    <path d="M 47.72 120.52 
L 351.45 120.52 
L 351.45 26.88 
L 47.72 26.88 
z
" style="fill: #ffffff"/>
   </g>
   <g id="matplotlib.axis_1">
    <g id="xtick_1">
     <g id="line2d_1">
      <defs>
       <path id="m8abb87754f" d="M 0 0 
L 0 3.5 
" style="stroke: #000000; stroke-width: 0.8"/>
      </defs>
      <g>
       <use xlink:href="#m8abb87754f" x="61.525909" y="120.52" style="stroke: #000000; stroke-width: 0.8"/>
      </g>
     </g>
    </g>
    <g id="xtick_2">
     <g id="line2d_2">
      <g>
       <use xlink:href="#m8abb87754f" x="104.013346" y="120.52" style="stroke: #000000; stroke-width: 0.8"/>
      </g>
     </g>
    </g>
    <g id="xtick_3">
     <g id="line2d_3">
      <g>
       <use xlink:href="#m8abb87754f" x="146.500783" y="120.52" style="stroke: #000000; stroke-width: 0.8"/>
      </g>
     </g>
    </g>
    <g id="xtick_4">
     <g id="line2d_4">
      <g>
       <use xlink:href="#m8abb87754f" x="188.98822" y="120.52" style="stroke: #000000; stroke-width: 0.8"/>
      </g>
     </g>
    </g>
    <g id="xtick_5">
     <g id="line2d_5">
      <g>
       <use xlink:href="#m8abb87754f" x="231.475657" y="120.52" style="stroke: #000000; stroke-width: 0.8"/>
      </g>
     </g>
    </g>
    <g id="xtick_6">
     <g id="line2d_6">
      <g>
       <use xlink:href="#m8abb87754f" x="273.963094" y="120.52" style="stroke: #000000; stroke-width: 0.8"/>
      </g>
     </g>
    </g>
    <g id="xtick_7">
     <g id="line2d_7">
      <g>
       <use xlink:href="#m8abb87754f" x="316.450531" y="120.52" style="stroke: #000000; stroke-width: 0.8"/>
      </g>
     </g>
    </g>
    <g id="text_1">
     <!-- time -->
     <g transform="translate(188.288906 139.118437) scale(0.1 -0.1)">
      <defs>
       <path id="DejaVuSans-74" d="M 1172 4494 
L 1172 3500 
L 2356 3500 
L 2356 3053 
L 1172 3053 
L 1172 1153 
Q 1172 725 1289 603 
Q 1406 481 1766 481 
L 2356 481 
L 2356 0 
L 1766 0 
Q 1100 0 847 248 
Q 594 497 594 1153 
L 594 3053 
L 172 3053 
L 172 3500 
L 594 3500 
L 594 4494 
L 1172 4494 
z
" transform="scale(0.015625)"/>
       <path id="DejaVuSans-69" d="M 603 3500 
L 1178 3500 
L 1178 0 
L 603 0 
L 603 3500 
z
M 603 4863 
L 1178 4863 
L 1178 4134 
L 603 4134 
L 603 4863 
z
" transform="scale(0.015625)"/>
       <path id="DejaVuSans-6d" d="M 3328 2828 
Q 3544 3216 3844 3400 
Q 4144 3584 4550 3584 
Q 5097 3584 5394 3201 
Q 5691 2819 5691 2113 
L 5691 0 
L 5113 0 
L 5113 2094 
Q 5113 2597 4934 2840 
Q 4756 3084 4391 3084 
Q 3944 3084 3684 2787 
Q 3425 2491 3425 1978 
L 3425 0 
L 2847 0 
L 2847 2094 
Q 2847 2600 2669 2842 
Q 2491 3084 2119 3084 
Q 1678 3084 1418 2786 
Q 1159 2488 1159 1978 
L 1159 0 
L 581 0 
L 581 3500 
L 1159 3500 
L 1159 2956 
Q 1356 3278 1631 3431 
Q 1906 3584 2284 3584 
Q 2666 3584 2933 3390 
Q 3200 3197 3328 2828 
z
" transform="scale(0.015625)"/>
       <path id="DejaVuSans-65" d="M 3597 1894 
L 3597 1613 
L 953 1613 
Q 991 1019 1311 708 
Q 1631 397 2203 397 
Q 2534 397 2845 478 
Q 3156 559 3463 722 
L 3463 178 
Q 3153 47 2828 -22 
Q 2503 -91 2169 -91 
Q 1331 -91 842 396 
Q 353 884 353 1716 
Q 353 2575 817 3079 
Q 1281 3584 2069 3584 
Q 2775 3584 3186 3129 
Q 3597 2675 3597 1894 
z
M 3022 2063 
Q 3016 2534 2758 2815 
Q 2500 3097 2075 3097 
Q 1594 3097 1305 2825 
Q 1016 2553 972 2059 
L 3022 2063 
z
" transform="scale(0.015625)"/>
      </defs>
      <use xlink:href="#DejaVuSans-74"/>
      <use xlink:href="#DejaVuSans-69" x="39.208984"/>
      <use xlink:href="#DejaVuSans-6d" x="66.992188"/>
      <use xlink:href="#DejaVuSans-65" x="164.404297"/>
     </g>
    </g>
   </g>
   <g id="matplotlib.axis_2">
    <g id="ytick_1">
     <g id="line2d_8">
      <defs>
       <path id="m756535a2c2" d="M 0 0 
L -3.5 0 
" style="stroke: #000000; stroke-width: 0.8"/>
      </defs>
      <g>
       <use xlink:href="#m756535a2c2" x="47.72" y="116.263636" style="stroke: #000000; stroke-width: 0.8"/>
      </g>
     </g>
     <g id="text_2">
      <!-- 0.0 -->
      <g transform="translate(24.816875 120.062855) scale(0.1 -0.1)">
       <defs>
        <path id="DejaVuSans-30" d="M 2034 4250 
Q 1547 4250 1301 3770 
Q 1056 3291 1056 2328 
Q 1056 1369 1301 889 
Q 1547 409 2034 409 
Q 2525 409 2770 889 
Q 3016 1369 3016 2328 
Q 3016 3291 2770 3770 
Q 2525 4250 2034 4250 
z
M 2034 4750 
Q 2819 4750 3233 4129 
Q 3647 3509 3647 2328 
Q 3647 1150 3233 529 
Q 2819 -91 2034 -91 
Q 1250 -91 836 529 
Q 422 1150 422 2328 
Q 422 3509 836 4129 
Q 1250 4750 2034 4750 
z
" transform="scale(0.015625)"/>
        <path id="DejaVuSans-2e" d="M 684 794 
L 1344 794 
L 1344 0 
L 684 0 
L 684 794 
z
" transform="scale(0.015625)"/>
       </defs>
       <use xlink:href="#DejaVuSans-30"/>
       <use xlink:href="#DejaVuSans-2e" x="63.623047"/>
       <use xlink:href="#DejaVuSans-30" x="95.410156"/>
      </g>
     </g>
    </g>
    <g id="ytick_2">
     <g id="line2d_9">
      <g>
       <use xlink:href="#m756535a2c2" x="47.72" y="78.933019" style="stroke: #000000; stroke-width: 0.8"/>
      </g>
     </g>
     <g id="text_3">
      <!-- 0.2 -->
      <g transform="translate(24.816875 82.732238) scale(0.1 -0.1)">
       <defs>
        <path id="DejaVuSans-32" d="M 1228 531 
L 3431 531 
L 3431 0 
L 469 0 
L 469 531 
Q 828 903 1448 1529 
Q 2069 2156 2228 2338 
Q 2531 2678 2651 2914 
Q 2772 3150 2772 3378 
Q 2772 3750 2511 3984 
Q 2250 4219 1831 4219 
Q 1534 4219 1204 4116 
Q 875 4013 500 3803 
L 500 4441 
Q 881 4594 1212 4672 
Q 1544 4750 1819 4750 
Q 2544 4750 2975 4387 
Q 3406 4025 3406 3419 
Q 3406 3131 3298 2873 
Q 3191 2616 2906 2266 
Q 2828 2175 2409 1742 
Q 1991 1309 1228 531 
z
" transform="scale(0.015625)"/>
       </defs>
       <use xlink:href="#DejaVuSans-30"/>
       <use xlink:href="#DejaVuSans-2e" x="63.623047"/>
       <use xlink:href="#DejaVuSans-32" x="95.410156"/>
      </g>
     </g>
    </g>
    <g id="ytick_3">
     <g id="line2d_10">
      <g>
       <use xlink:href="#m756535a2c2" x="47.72" y="41.602401" style="stroke: #000000; stroke-width: 0.8"/>
      </g>
     </g>
     <g id="text_4">
      <!-- 0.4 -->
      <g transform="translate(24.816875 45.40162) scale(0.1 -0.1)">
       <defs>
        <path id="DejaVuSans-34" d="M 2419 4116 
L 825 1625 
L 2419 1625 
L 2419 4116 
z
M 2253 4666 
L 3047 4666 
L 3047 1625 
L 3713 1625 
L 3713 1100 
L 3047 1100 
L 3047 0 
L 2419 0 
L 2419 1100 
L 313 1100 
L 313 1709 
L 2253 4666 
z
" transform="scale(0.015625)"/>
       </defs>
       <use xlink:href="#DejaVuSans-30"/>
       <use xlink:href="#DejaVuSans-2e" x="63.623047"/>
       <use xlink:href="#DejaVuSans-34" x="95.410156"/>
      </g>
     </g>
    </g>
    <g id="text_5">
     <!-- flow (cms) -->
     <g transform="translate(18.737188 99.7125) rotate(-90) scale(0.1 -0.1)">
      <defs>
       <path id="DejaVuSans-66" d="M 2375 4863 
L 2375 4384 
L 1825 4384 
Q 1516 4384 1395 4259 
Q 1275 4134 1275 3809 
L 1275 3500 
L 2222 3500 
L 2222 3053 
L 1275 3053 
L 1275 0 
L 697 0 
L 697 3053 
L 147 3053 
L 147 3500 
L 697 3500 
L 697 3744 
Q 697 4328 969 4595 
Q 1241 4863 1831 4863 
L 2375 4863 
z
" transform="scale(0.015625)"/>
       <path id="DejaVuSans-6c" d="M 603 4863 
L 1178 4863 
L 1178 0 
L 603 0 
L 603 4863 
z
" transform="scale(0.015625)"/>
       <path id="DejaVuSans-6f" d="M 1959 3097 
Q 1497 3097 1228 2736 
Q 959 2375 959 1747 
Q 959 1119 1226 758 
Q 1494 397 1959 397 
Q 2419 397 2687 759 
Q 2956 1122 2956 1747 
Q 2956 2369 2687 2733 
Q 2419 3097 1959 3097 
z
M 1959 3584 
Q 2709 3584 3137 3096 
Q 3566 2609 3566 1747 
Q 3566 888 3137 398 
Q 2709 -91 1959 -91 
Q 1206 -91 779 398 
Q 353 888 353 1747 
Q 353 2609 779 3096 
Q 1206 3584 1959 3584 
z
" transform="scale(0.015625)"/>
       <path id="DejaVuSans-77" d="M 269 3500 
L 844 3500 
L 1563 769 
L 2278 3500 
L 2956 3500 
L 3675 769 
L 4391 3500 
L 4966 3500 
L 4050 0 
L 3372 0 
L 2619 2869 
L 1863 0 
L 1184 0 
L 269 3500 
z
" transform="scale(0.015625)"/>
       <path id="DejaVuSans-20" transform="scale(0.015625)"/>
       <path id="DejaVuSans-28" d="M 1984 4856 
Q 1566 4138 1362 3434 
Q 1159 2731 1159 2009 
Q 1159 1288 1364 580 
Q 1569 -128 1984 -844 
L 1484 -844 
Q 1016 -109 783 600 
Q 550 1309 550 2009 
Q 550 2706 781 3412 
Q 1013 4119 1484 4856 
L 1984 4856 
z
" transform="scale(0.015625)"/>
       <path id="DejaVuSans-63" d="M 3122 3366 
L 3122 2828 
Q 2878 2963 2633 3030 
Q 2388 3097 2138 3097 
Q 1578 3097 1268 2742 
Q 959 2388 959 1747 
Q 959 1106 1268 751 
Q 1578 397 2138 397 
Q 2388 397 2633 464 
Q 2878 531 3122 666 
L 3122 134 
Q 2881 22 2623 -34 
Q 2366 -91 2075 -91 
Q 1284 -91 818 406 
Q 353 903 353 1747 
Q 353 2603 823 3093 
Q 1294 3584 2113 3584 
Q 2378 3584 2631 3529 
Q 2884 3475 3122 3366 
z
" transform="scale(0.015625)"/>
       <path id="DejaVuSans-73" d="M 2834 3397 
L 2834 2853 
Q 2591 2978 2328 3040 
Q 2066 3103 1784 3103 
Q 1356 3103 1142 2972 
Q 928 2841 928 2578 
Q 928 2378 1081 2264 
Q 1234 2150 1697 2047 
L 1894 2003 
Q 2506 1872 2764 1633 
Q 3022 1394 3022 966 
Q 3022 478 2636 193 
Q 2250 -91 1575 -91 
Q 1294 -91 989 -36 
Q 684 19 347 128 
L 347 722 
Q 666 556 975 473 
Q 1284 391 1588 391 
Q 1994 391 2212 530 
Q 2431 669 2431 922 
Q 2431 1156 2273 1281 
Q 2116 1406 1581 1522 
L 1381 1569 
Q 847 1681 609 1914 
Q 372 2147 372 2553 
Q 372 3047 722 3315 
Q 1072 3584 1716 3584 
Q 2034 3584 2315 3537 
Q 2597 3491 2834 3397 
z
" transform="scale(0.015625)"/>
       <path id="DejaVuSans-29" d="M 513 4856 
L 1013 4856 
Q 1481 4119 1714 3412 
Q 1947 2706 1947 2009 
Q 1947 1309 1714 600 
Q 1481 -109 1013 -844 
L 513 -844 
Q 928 -128 1133 580 
Q 1338 1288 1338 2009 
Q 1338 2731 1133 3434 
Q 928 4138 513 4856 
z
" transform="scale(0.015625)"/>
      </defs>
      <use xlink:href="#DejaVuSans-66"/>
      <use xlink:href="#DejaVuSans-6c" x="35.205078"/>
      <use xlink:href="#DejaVuSans-6f" x="62.988281"/>
      <use xlink:href="#DejaVuSans-77" x="124.169922"/>
      <use xlink:href="#DejaVuSans-20" x="205.957031"/>
      <use xlink:href="#DejaVuSans-28" x="237.744141"/>
      <use xlink:href="#DejaVuSans-63" x="276.757812"/>
      <use xlink:href="#DejaVuSans-6d" x="331.738281"/>
      <use xlink:href="#DejaVuSans-73" x="429.150391"/>
      <use xlink:href="#DejaVuSans-29" x="481.25"/>
     </g>
    </g>
   </g>
   <g id="line2d_11">
    <path d="M 61.525909 116.263636 
L 66.188709 116.177087 
L 66.631286 115.843234 
L 66.896833 115.59853 
L 66.985348 115.605768 
L 67.162379 115.198979 
L 67.416123 114.498077 
L 67.494804 114.446073 
L 67.859684 113.478451 
L 67.994425 113.144985 
L 68.06032 113.511167 
L 68.253087 112.453159 
L 68.315047 112.298706 
L 68.437986 113.511079 
L 68.501914 113.271307 
L 68.629769 112.535946 
L 68.768443 110.874031 
L 68.915969 110.429662 
L 69.196268 108.793662 
L 69.263147 110.954757 
L 69.332976 110.882549 
L 69.473617 109.918118 
L 69.541479 107.538462 
L 69.607374 108.770755 
L 69.800141 107.430679 
L 69.935865 102.774823 
L 70.076506 102.573559 
L 70.146335 106.478007 
L 70.219114 105.948207 
L 70.363689 104.697277 
L 70.434502 105.042003 
L 70.643988 103.432394 
L 70.776762 94.456323 
L 70.898716 95.477566 
L 70.960677 95.737687 
L 71.084599 102.048325 
L 71.148527 101.288545 
L 71.338343 100.00085 
L 71.400304 100.527899 
L 71.525209 99.31374 
L 71.586187 93.28648 
L 71.646181 94.411593 
L 71.716009 94.609358 
L 71.855667 94.233793 
L 71.992374 88.207973 
L 72.125148 89.543653 
L 72.259888 99.108624 
L 72.401513 97.036294 
L 72.470358 88.424643 
L 72.53822 92.971949 
L 72.737872 91.183614 
L 72.802783 92.115356 
L 72.997517 89.747478 
L 73.061445 85.472832 
L 73.125373 90.973058 
L 73.189301 89.956567 
L 73.315189 88.346232 
L 73.378134 74.34233 
L 73.439111 86.149102 
L 73.501072 85.524068 
L 73.624994 84.438669 
L 73.686954 84.876793 
L 73.92988 82.914465 
L 73.989874 84.470059 
L 74.049868 83.96028 
L 74.496379 79.099678 
L 74.564241 79.058403 
L 74.76881 76.627774 
L 74.836672 66.355515 
L 74.903551 78.18499 
L 74.972396 77.517773 
L 75.710025 71.665592 
L 75.77592 46.87672 
L 75.838864 53.950296 
L 75.96377 60.249381 
L 76.093592 82.071231 
L 76.630586 70.52478 
L 76.761393 69.872882 
L 76.892199 69.1122 
L 76.95711 66.87059 
L 77.022022 67.063875 
L 77.215772 66.870094 
L 77.344611 65.784614 
L 77.473451 65.806664 
L 77.537378 66.921156 
L 77.60229 66.742061 
L 77.731129 66.149294 
L 77.858985 67.770978 
L 77.923896 67.203134 
L 78.375325 64.148126 
L 78.439253 64.499279 
L 78.631037 63.56032 
L 78.693981 59.6237 
L 78.756925 63.361437 
L 78.820853 63.088855 
L 78.884781 62.839005 
L 78.948709 61.721484 
L 79.011653 51.159262 
L 79.073614 53.324564 
L 79.198519 55.853773 
L 79.324408 67.411559 
L 79.517175 64.460545 
L 79.581103 60.369773 
L 79.644047 61.123277 
L 79.770919 60.553603 
L 79.834847 60.600567 
L 79.897792 59.240158 
L 79.960736 59.467882 
L 80.086625 59.150592 
L 80.149569 60.737825 
L 80.274474 57.984157 
L 80.400363 57.866503 
L 80.462324 60.260105 
L 80.525268 58.556619 
L 80.650173 58.07049 
L 80.775078 58.732246 
L 80.961945 57.299985 
L 81.08685 58.737963 
L 81.273716 57.262052 
L 81.335677 53.064481 
L 81.397637 56.696719 
L 81.459598 56.373633 
L 81.58352 55.807047 
L 81.644497 46.788285 
L 81.706458 54.545497 
L 81.768419 54.460302 
L 82.139201 53.728587 
L 82.200178 51.771963 
L 82.262139 53.444585 
L 82.323116 53.332964 
L 82.447038 52.983292 
L 82.508015 53.80501 
L 82.691931 52.616701 
L 82.813885 52.288706 
L 82.874863 47.861759 
L 82.93584 48.505404 
L 83.056811 49.646428 
L 83.178766 54.156105 
L 83.240727 53.950101 
L 83.363665 53.754345 
L 83.425626 50.4802 
L 83.486603 51.960117 
L 83.608558 52.62244 
L 83.670519 51.906878 
L 83.731496 55.504449 
L 83.793457 55.148832 
L 83.916395 55.080372 
L 83.978356 53.563678 
L 84.039333 57.149411 
L 84.101294 56.794003 
L 84.225216 56.431565 
L 84.287177 52.698317 
L 84.349137 56.578116 
L 84.411098 56.454939 
L 84.53502 56.341978 
L 84.657958 53.916666 
L 84.842857 54.994818 
L 84.965795 56.654108 
L 85.089717 56.661841 
L 85.213639 57.207055 
L 85.2756 57.095248 
L 85.399521 57.033506 
L 85.522459 53.150837 
L 85.583437 53.767034 
L 85.706375 54.782904 
L 85.768336 60.711446 
L 85.830297 55.323047 
L 85.891274 55.556335 
L 86.015196 56.031698 
L 86.077157 58.724639 
L 86.139117 57.586435 
L 86.325 57.292448 
L 86.386961 53.964083 
L 86.448922 55.035922 
L 86.57186 56.056857 
L 86.695782 62.459614 
L 86.945592 59.736089 
L 87.006569 31.136364 
L 87.073448 39.200258 
L 87.201303 48.679121 
L 87.263264 72.90663 
L 87.327192 71.634438 
L 87.646831 66.692518 
L 87.837631 64.810627 
L 87.900576 67.633992 
L 87.964504 67.22931 
L 88.028431 66.899773 
L 88.091376 65.824475 
L 88.155304 58.677447 
L 88.217264 60.153554 
L 88.34217 62.010477 
L 88.469042 66.984992 
L 88.658858 66.963188 
L 88.722786 64.928644 
L 88.785731 68.075062 
L 88.849659 67.971037 
L 88.913586 67.902278 
L 88.977514 68.146644 
L 89.041442 61.031558 
L 89.104386 66.006603 
L 89.231259 66.651588 
L 89.294203 69.684953 
L 89.357147 66.409842 
L 89.421075 66.730388 
L 89.546964 67.352945 
L 89.610892 66.430171 
L 89.673836 69.483659 
L 89.737764 69.421201 
L 89.801692 69.396287 
L 89.86562 69.827399 
L 89.929548 68.278685 
L 90.05642 70.468447 
L 90.120348 70.554248 
L 90.184275 72.026266 
L 90.249187 69.707441 
L 90.313115 70.176102 
L 90.44097 71.004549 
L 90.56981 74.864989 
L 90.634721 74.775528 
L 90.699632 74.76003 
L 90.764544 64.668932 
L 90.892399 72.733871 
L 91.022222 73.779173 
L 91.087133 63.611047 
L 91.152045 78.386031 
L 91.216956 78.268653 
L 91.283835 78.184605 
L 91.349729 64.007489 
L 91.479552 75.735888 
L 91.610358 76.710558 
L 91.67527 72.585915 
L 91.740181 75.234641 
L 91.870987 76.763642 
L 92.001794 82.857017 
L 92.268324 81.481384 
L 92.335202 80.22134 
L 92.401097 80.536577 
L 92.466992 80.835839 
L 92.53387 75.570417 
L 92.66566 82.356842 
L 92.799417 82.670915 
L 92.93219 80.389612 
L 92.999068 81.008771 
L 93.064963 81.553369 
L 93.131841 77.708512 
L 93.197736 85.555413 
L 93.264615 85.52404 
L 93.400338 85.457905 
L 93.532128 71.782962 
L 93.660967 77.047075 
L 93.726862 87.340798 
L 93.793741 79.027107 
L 93.859635 80.608827 
L 93.92553 81.88054 
L 94.060271 93.450549 
L 94.120264 92.664282 
L 94.249104 91.432706 
L 94.385811 79.758179 
L 94.452689 81.512597 
L 94.585463 84.067928 
L 94.652341 89.357537 
L 94.721186 89.058097 
L 94.857894 89.161231 
L 94.993617 84.971684 
L 95.128358 86.748971 
L 95.196219 95.665316 
L 95.266048 94.587956 
L 95.454881 93.249389 
L 95.514875 93.310421 
L 95.583721 84.465682 
L 95.651582 85.776034 
L 95.718461 86.872953 
L 95.787306 96.348832 
L 95.857135 95.676335 
L 96.0381 94.443179 
L 96.098094 90.240394 
L 96.158088 95.176854 
L 96.218082 94.902027 
L 96.338069 94.393811 
L 96.398063 93.065125 
L 96.458057 93.685126 
L 96.586896 93.550033 
L 96.656725 93.138781 
L 96.72557 93.895763 
L 96.785564 93.786095 
L 96.905552 93.772717 
L 96.965546 89.228978 
L 97.034391 95.303502 
L 97.094385 95.013555 
L 97.215356 94.851017 
L 97.345179 92.596576 
L 97.474018 93.124385 
L 97.543847 92.161035 
L 97.73268 94.006074 
L 97.801525 94.199348 
L 97.861519 87.349782 
L 97.931348 96.209538 
L 97.991342 96.146956 
L 98.112313 96.063661 
L 98.172307 96.197124 
L 98.232301 96.640739 
L 98.292295 96.57857 
L 98.413266 96.505004 
L 98.47326 95.28261 
L 98.534237 97.726729 
L 98.595214 97.613009 
L 98.656192 97.505483 
L 98.717169 93.397675 
L 98.778146 96.541114 
L 98.959111 96.721773 
L 99.020089 93.519177 
L 99.080083 93.749756 
L 99.260064 95.034198 
L 99.381035 89.591728 
L 99.441029 90.967085 
L 99.57872 93.300658 
L 99.700675 101.435257 
L 99.886557 100.514087 
L 100.008512 92.620017 
L 100.128499 94.378804 
L 100.188493 95.069487 
L 100.310448 102.534054 
L 100.372409 102.162861 
L 100.497314 101.098003 
L 100.559275 101.391504 
L 100.621236 101.695924 
L 100.683197 101.45084 
L 100.745157 101.237039 
L 100.808102 95.392722 
L 100.869079 100.926573 
L 100.930056 100.725302 
L 101.053978 100.532694 
L 101.114955 100.002849 
L 101.176916 100.03788 
L 101.362799 100.067584 
L 101.42476 96.49381 
L 101.548681 100.662701 
L 101.673587 100.660838 
L 101.735547 99.680408 
L 101.867337 100.657899 
L 101.927331 100.679202 
L 101.989292 97.980554 
L 102.052236 102.09183 
L 102.120098 101.96859 
L 102.243036 101.811228 
L 102.304997 97.649537 
L 102.364991 102.047445 
L 102.425968 101.98393 
L 102.548906 101.889957 
L 102.611851 100.247233 
L 102.675779 100.953237 
L 102.871496 101.201712 
L 102.938375 100.220562 
L 103.006236 100.445717 
L 103.142944 101.220369 
L 103.202938 100.963086 
L 103.262931 100.144675 
L 103.322925 100.409255 
L 103.383903 100.654057 
L 103.507824 104.334958 
L 103.571752 104.045984 
L 103.703542 103.767164 
L 103.77042 100.722287 
L 103.835332 103.635376 
L 103.901226 103.563306 
L 104.032033 103.434744 
L 104.097928 95.796787 
L 104.162839 97.217716 
L 104.293645 99.001708 
L 104.360524 102.639769 
L 104.427402 100.052782 
L 104.495264 100.559946 
L 104.631971 101.431758 
L 104.700816 106.015582 
L 104.770645 105.595242 
L 104.911287 104.857859 
L 104.981116 102.599265 
L 105.051928 102.713025 
L 105.182734 103.046479 
L 105.25453 105.344391 
L 105.314524 105.021676 
L 105.496472 104.806455 
L 105.556466 106.094666 
L 105.617444 105.273301 
L 105.738415 105.115526 
L 105.859386 105.74692 
L 105.920363 105.433005 
L 106.042318 105.304004 
L 106.103295 105.728407 
L 106.165256 104.358095 
L 106.226233 104.399323 
L 106.349172 104.529625 
L 106.411132 103.764463 
L 106.473093 106.069031 
L 106.535054 105.760947 
L 106.659959 105.663266 
L 106.72192 104.71933 
L 106.783881 101.097491 
L 106.843875 101.727753 
L 106.964846 102.706408 
L 107.089751 107.328895 
L 107.153679 107.19068 
L 107.282518 107.066125 
L 107.410374 105.690945 
L 107.53823 105.743656 
L 107.602158 104.436419 
L 107.730997 106.469977 
L 107.859836 106.415387 
L 107.924747 106.178835 
L 107.989659 107.241538 
L 108.056537 107.171726 
L 108.123416 107.095115 
L 108.190294 104.254071 
L 108.255205 104.929391 
L 108.446989 105.440256 
L 108.5119 106.534702 
L 108.576812 106.418124 
L 108.707618 106.497792 
L 108.772529 107.22392 
L 108.838424 106.39151 
L 108.904319 106.504757 
L 109.036109 106.618348 
L 109.102003 103.978225 
L 109.165931 104.398563 
L 109.491472 105.821857 
L 109.623261 106.232455 
L 109.758002 108.976908 
L 109.827831 108.842502 
L 109.897659 108.713542 
L 109.967488 109.543602 
L 110.037317 105.642432 
L 110.104196 105.987233 
L 110.17009 106.237885 
L 110.303847 110.12066 
L 110.443505 109.558334 
L 110.796583 108.853098 
L 110.867396 106.911972 
L 111.008037 108.470271 
L 111.07885 108.461093 
L 111.148678 105.370407 
L 111.217524 105.722658 
L 111.353248 106.454168 
L 111.491922 109.568488 
L 111.561751 109.365115 
L 111.632563 109.295466 
L 111.702392 108.471111 
L 111.773204 109.991246 
L 111.845 109.845627 
L 111.991543 109.66841 
L 112.064322 109.847662 
L 112.278726 109.559246 
L 112.349539 106.239578 
L 112.418384 106.293679 
L 112.903252 109.060081 
L 112.975048 110.946014 
L 113.048811 110.842783 
L 113.122574 110.721408 
L 113.255347 110.174478 
L 113.449098 110.083675 
L 113.509092 108.888322 
L 113.581871 110.390445 
L 113.655634 110.309565 
L 113.715628 110.2746 
L 113.775622 110.110225 
L 113.849384 110.746834 
L 113.909378 110.623205 
L 114.031333 110.537672 
L 114.164106 107.298534 
L 114.304748 108.012241 
L 114.37556 110.392226 
L 114.448339 108.262866 
L 114.520135 108.646672 
L 114.591931 108.873902 
L 114.73749 111.883036 
L 114.986317 110.285911 
L 115.168265 110.397082 
L 115.288253 110.552917 
L 115.410208 110.980688 
L 115.59314 110.913148 
L 115.654117 110.145198 
L 115.714111 110.200886 
L 115.775088 110.266074 
L 115.835082 109.905672 
L 116.017031 111.29872 
L 116.079975 111.277956 
L 116.141936 110.963453 
L 116.203897 108.935679 
L 116.264874 109.268493 
L 116.384862 109.669003 
L 116.506816 112.461905 
L 116.633689 112.17874 
L 116.697616 112.116798 
L 116.823505 109.53994 
L 116.885466 109.76684 
L 117.316241 110.734913 
L 117.504091 110.94968 
L 117.566052 111.028245 
L 117.628996 112.243253 
L 117.692924 112.224521 
L 117.889625 112.152733 
L 117.95552 111.840133 
L 118.020431 110.92752 
L 118.085343 111.031513 
L 118.14927 111.130519 
L 118.279093 112.672122 
L 118.479728 112.544961 
L 118.54759 111.109866 
L 118.612502 111.442933 
L 118.742324 111.582369 
L 118.807236 112.724043 
L 118.873131 111.198282 
L 118.937058 111.34401 
L 119.065898 111.531934 
L 119.129825 111.954468 
L 119.19572 111.642475 
L 119.259648 111.699223 
L 119.32456 111.77247 
L 119.456349 112.768691 
L 119.660918 112.682679 
L 119.729764 113.257455 
L 119.798609 113.19753 
L 119.935316 113.11674 
L 120.004162 111.766269 
L 120.07104 112.788575 
L 120.138902 112.781673 
L 120.20578 112.776071 
L 120.341504 111.603353 
L 120.474277 111.843761 
L 120.808669 112.293307 
L 120.944393 113.728913 
L 121.014222 113.618054 
L 121.15683 113.535729 
L 121.227643 111.968498 
L 121.296488 112.231357 
L 121.432212 112.410038 
L 121.568919 113.027999 
L 121.708577 113.070255 
L 121.779389 112.861733 
L 121.850202 113.811397 
L 121.922981 113.765924 
L 121.997727 113.732981 
L 122.07149 113.100998 
L 122.14427 113.634053 
L 122.218033 113.623124 
L 122.291796 113.608264 
L 122.365558 113.425348 
L 122.514068 113.781642 
L 122.588814 113.763232 
L 122.662577 112.774131 
L 122.73634 113.667365 
L 122.810103 113.659909 
L 122.883866 113.656072 
L 122.958612 113.257412 
L 123.107122 113.668392 
L 123.181868 113.671819 
L 123.255631 112.677341 
L 123.403157 113.62472 
L 123.477903 113.637791 
L 123.625429 112.688166 
L 123.698208 112.812451 
L 123.770004 112.926911 
L 123.916547 113.875131 
L 124.14472 114.026869 
L 124.29913 114.240215 
L 124.376827 114.227416 
L 124.453541 113.355698 
L 124.528287 113.548706 
L 124.679747 113.659651 
L 124.755477 113.28075 
L 124.830223 113.398164 
L 124.9807 113.556603 
L 125.056429 114.558229 
L 125.134126 114.446112 
L 125.211823 114.438029 
L 125.28952 114.255881 
L 125.367217 114.498798 
L 125.427211 114.442862 
L 125.807828 114.442091 
L 126.006496 113.677063 
L 126.084193 113.755959 
L 126.16189 114.064946 
L 126.24057 114.008587 
L 126.379244 113.967981 
L 126.716587 114.210126 
L 126.776581 114.628718 
L 126.837558 114.215794 
L 126.897552 114.299022 
L 127.018523 114.357666 
L 127.0795 114.54461 
L 127.140478 114.390974 
L 127.699109 114.643281 
L 128.015798 114.728401 
L 128.207581 114.779776 
L 128.337404 115.283546 
L 128.469194 115.258789 
L 128.791783 114.79682 
L 128.854728 114.991872 
L 128.919639 114.816321 
L 128.98455 114.86108 
L 129.115357 114.90363 
L 129.249113 115.399212 
L 129.733982 115.317808 
L 129.80381 114.832422 
L 129.871672 114.914515 
L 130.005429 114.96974 
L 130.141153 115.479352 
L 130.279827 115.464375 
L 130.349656 115.197014 
L 130.419485 115.448668 
L 130.489314 115.42243 
L 130.559143 115.425704 
L 130.697817 115.027115 
L 130.904353 115.120748 
L 131.044994 115.324622 
L 131.187603 115.407619 
L 131.332178 115.480066 
L 131.477737 115.519892 
L 131.550516 115.207353 
L 131.623296 115.262952 
L 131.765904 115.309237 
L 131.911463 115.536671 
L 132.058989 115.552345 
L 132.132751 115.356645 
L 132.206514 115.396133 
L 133.260832 115.633673 
L 133.41721 115.859154 
L 133.496874 115.859611 
L 133.734882 115.673717 
L 133.895193 115.781838 
L 134.058455 115.852987 
L 134.470544 115.811403 
L 134.722321 115.892001 
L 134.891484 115.817136 
L 137.422044 116.06564 
L 137.776106 116.062692 
L 139.723447 116.122139 
L 140.077509 116.162531 
L 142.113365 116.137103 
L 153.354833 116.209355 
L 153.974441 116.197233 
L 156.187329 116.19992 
L 185.131895 116.235398 
L 272.319656 116.257763 
L 337.644091 116.260909 
L 337.644091 116.260909 
" clip-path="url(#pf30e1647cf)" style="fill: none; stroke: #1f77b4; stroke-width: 1.5; stroke-linecap: square"/>
   </g>
   <g id="patch_3">
    <path d="M 47.72 120.52 
L 47.72 26.88 
" style="fill: none; stroke: #000000; stroke-width: 0.8; stroke-linejoin: miter; stroke-linecap: square"/>
   </g>
   <g id="patch_4">
    <path d="M 351.45 120.52 
L 351.45 26.88 
" style="fill: none; stroke: #000000; stroke-width: 0.8; stroke-linejoin: miter; stroke-linecap: square"/>
   </g>
   <g id="patch_5">
    <path d="M 47.72 120.52 
L 351.45 120.52 
" style="fill: none; stroke: #000000; stroke-width: 0.8; stroke-linejoin: miter; stroke-linecap: square"/>
   </g>
   <g id="patch_6">
    <path d="M 47.72 26.88 
L 351.45 26.88 
" style="fill: none; stroke: #000000; stroke-width: 0.8; stroke-linejoin: miter; stroke-linecap: square"/>
   </g>
   <g id="text_6">
    <!-- 1 -->
    <g transform="translate(194.0878 50.3762) scale(0.1728 -0.1728)">
     <defs>
      <path id="DejaVuSans-31" d="M 794 531 
L 1825 531 
L 1825 4091 
L 703 3866 
L 703 4441 
L 1819 4666 
L 2450 4666 
L 2450 531 
L 3481 531 
L 3481 0 
L 794 0 
L 794 531 
z
" transform="scale(0.015625)"/>
     </defs>
     <use xlink:href="#DejaVuSans-31"/>
    </g>
   </g>
   <g id="text_7">
    <!-- flows -->
    <g transform="translate(184.102188 20.88) scale(0.12 -0.12)">
     <use xlink:href="#DejaVuSans-66"/>
     <use xlink:href="#DejaVuSans-6c" x="35.205078"/>
     <use xlink:href="#DejaVuSans-6f" x="62.988281"/>
     <use xlink:href="#DejaVuSans-77" x="124.169922"/>
     <use xlink:href="#DejaVuSans-73" x="205.957031"/>
    </g>
   </g>
  </g>
  <g id="axes_2">
   <g id="patch_7">
    <path d="M 405.47 120.52 
L 709.2 120.52 
L 709.2 26.88 
L 405.47 26.88 
z
" style="fill: #ffffff"/>
   </g>
   <g id="matplotlib.axis_3">
    <g id="xtick_8">
     <g id="line2d_12">
      <g>
       <use xlink:href="#m8abb87754f" x="419.275909" y="120.52" style="stroke: #000000; stroke-width: 0.8"/>
      </g>
     </g>
    </g>
    <g id="xtick_9">
     <g id="line2d_13">
      <g>
       <use xlink:href="#m8abb87754f" x="461.763346" y="120.52" style="stroke: #000000; stroke-width: 0.8"/>
      </g>
     </g>
    </g>
    <g id="xtick_10">
     <g id="line2d_14">
      <g>
       <use xlink:href="#m8abb87754f" x="504.250783" y="120.52" style="stroke: #000000; stroke-width: 0.8"/>
      </g>
     </g>
    </g>
    <g id="xtick_11">
     <g id="line2d_15">
      <g>
       <use xlink:href="#m8abb87754f" x="546.73822" y="120.52" style="stroke: #000000; stroke-width: 0.8"/>
      </g>
     </g>
    </g>
    <g id="xtick_12">
     <g id="line2d_16">
      <g>
       <use xlink:href="#m8abb87754f" x="589.225657" y="120.52" style="stroke: #000000; stroke-width: 0.8"/>
      </g>
     </g>
    </g>
    <g id="xtick_13">
     <g id="line2d_17">
      <g>
       <use xlink:href="#m8abb87754f" x="631.713094" y="120.52" style="stroke: #000000; stroke-width: 0.8"/>
      </g>
     </g>
    </g>
    <g id="xtick_14">
     <g id="line2d_18">
      <g>
       <use xlink:href="#m8abb87754f" x="674.200531" y="120.52" style="stroke: #000000; stroke-width: 0.8"/>
      </g>
     </g>
    </g>
    <g id="text_8">
     <!-- time -->
     <g transform="translate(546.038906 139.118437) scale(0.1 -0.1)">
      <use xlink:href="#DejaVuSans-74"/>
      <use xlink:href="#DejaVuSans-69" x="39.208984"/>
      <use xlink:href="#DejaVuSans-6d" x="66.992188"/>
      <use xlink:href="#DejaVuSans-65" x="164.404297"/>
     </g>
    </g>
   </g>
   <g id="matplotlib.axis_4">
    <g id="ytick_4">
     <g id="line2d_19">
      <g>
       <use xlink:href="#m756535a2c2" x="405.47" y="116.263636" style="stroke: #000000; stroke-width: 0.8"/>
      </g>
     </g>
     <g id="text_9">
      <!-- 0.00 -->
      <g transform="translate(376.204375 120.062855) scale(0.1 -0.1)">
       <use xlink:href="#DejaVuSans-30"/>
       <use xlink:href="#DejaVuSans-2e" x="63.623047"/>
       <use xlink:href="#DejaVuSans-30" x="95.410156"/>
       <use xlink:href="#DejaVuSans-30" x="159.033203"/>
      </g>
     </g>
    </g>
    <g id="ytick_5">
     <g id="line2d_20">
      <g>
       <use xlink:href="#m756535a2c2" x="405.47" y="92.610795" style="stroke: #000000; stroke-width: 0.8"/>
      </g>
     </g>
     <g id="text_10">
      <!-- 0.05 -->
      <g transform="translate(376.204375 96.410014) scale(0.1 -0.1)">
       <defs>
        <path id="DejaVuSans-35" d="M 691 4666 
L 3169 4666 
L 3169 4134 
L 1269 4134 
L 1269 2991 
Q 1406 3038 1543 3061 
Q 1681 3084 1819 3084 
Q 2600 3084 3056 2656 
Q 3513 2228 3513 1497 
Q 3513 744 3044 326 
Q 2575 -91 1722 -91 
Q 1428 -91 1123 -41 
Q 819 9 494 109 
L 494 744 
Q 775 591 1075 516 
Q 1375 441 1709 441 
Q 2250 441 2565 725 
Q 2881 1009 2881 1497 
Q 2881 1984 2565 2268 
Q 2250 2553 1709 2553 
Q 1456 2553 1204 2497 
Q 953 2441 691 2322 
L 691 4666 
z
" transform="scale(0.015625)"/>
       </defs>
       <use xlink:href="#DejaVuSans-30"/>
       <use xlink:href="#DejaVuSans-2e" x="63.623047"/>
       <use xlink:href="#DejaVuSans-30" x="95.410156"/>
       <use xlink:href="#DejaVuSans-35" x="159.033203"/>
      </g>
     </g>
    </g>
    <g id="ytick_6">
     <g id="line2d_21">
      <g>
       <use xlink:href="#m756535a2c2" x="405.47" y="68.957954" style="stroke: #000000; stroke-width: 0.8"/>
      </g>
     </g>
     <g id="text_11">
      <!-- 0.10 -->
      <g transform="translate(376.204375 72.757173) scale(0.1 -0.1)">
       <use xlink:href="#DejaVuSans-30"/>
       <use xlink:href="#DejaVuSans-2e" x="63.623047"/>
       <use xlink:href="#DejaVuSans-31" x="95.410156"/>
       <use xlink:href="#DejaVuSans-30" x="159.033203"/>
      </g>
     </g>
    </g>
    <g id="ytick_7">
     <g id="line2d_22">
      <g>
       <use xlink:href="#m756535a2c2" x="405.47" y="45.305113" style="stroke: #000000; stroke-width: 0.8"/>
      </g>
     </g>
     <g id="text_12">
      <!-- 0.15 -->
      <g transform="translate(376.204375 49.104331) scale(0.1 -0.1)">
       <use xlink:href="#DejaVuSans-30"/>
       <use xlink:href="#DejaVuSans-2e" x="63.623047"/>
       <use xlink:href="#DejaVuSans-31" x="95.410156"/>
       <use xlink:href="#DejaVuSans-35" x="159.033203"/>
      </g>
     </g>
    </g>
    <g id="text_13">
     <!-- depth (m) -->
     <g transform="translate(370.124687 98.614844) rotate(-90) scale(0.1 -0.1)">
      <defs>
       <path id="DejaVuSans-64" d="M 2906 2969 
L 2906 4863 
L 3481 4863 
L 3481 0 
L 2906 0 
L 2906 525 
Q 2725 213 2448 61 
Q 2172 -91 1784 -91 
Q 1150 -91 751 415 
Q 353 922 353 1747 
Q 353 2572 751 3078 
Q 1150 3584 1784 3584 
Q 2172 3584 2448 3432 
Q 2725 3281 2906 2969 
z
M 947 1747 
Q 947 1113 1208 752 
Q 1469 391 1925 391 
Q 2381 391 2643 752 
Q 2906 1113 2906 1747 
Q 2906 2381 2643 2742 
Q 2381 3103 1925 3103 
Q 1469 3103 1208 2742 
Q 947 2381 947 1747 
z
" transform="scale(0.015625)"/>
       <path id="DejaVuSans-70" d="M 1159 525 
L 1159 -1331 
L 581 -1331 
L 581 3500 
L 1159 3500 
L 1159 2969 
Q 1341 3281 1617 3432 
Q 1894 3584 2278 3584 
Q 2916 3584 3314 3078 
Q 3713 2572 3713 1747 
Q 3713 922 3314 415 
Q 2916 -91 2278 -91 
Q 1894 -91 1617 61 
Q 1341 213 1159 525 
z
M 3116 1747 
Q 3116 2381 2855 2742 
Q 2594 3103 2138 3103 
Q 1681 3103 1420 2742 
Q 1159 2381 1159 1747 
Q 1159 1113 1420 752 
Q 1681 391 2138 391 
Q 2594 391 2855 752 
Q 3116 1113 3116 1747 
z
" transform="scale(0.015625)"/>
       <path id="DejaVuSans-68" d="M 3513 2113 
L 3513 0 
L 2938 0 
L 2938 2094 
Q 2938 2591 2744 2837 
Q 2550 3084 2163 3084 
Q 1697 3084 1428 2787 
Q 1159 2491 1159 1978 
L 1159 0 
L 581 0 
L 581 4863 
L 1159 4863 
L 1159 2956 
Q 1366 3272 1645 3428 
Q 1925 3584 2291 3584 
Q 2894 3584 3203 3211 
Q 3513 2838 3513 2113 
z
" transform="scale(0.015625)"/>
      </defs>
      <use xlink:href="#DejaVuSans-64"/>
      <use xlink:href="#DejaVuSans-65" x="63.476562"/>
      <use xlink:href="#DejaVuSans-70" x="125"/>
      <use xlink:href="#DejaVuSans-74" x="188.476562"/>
      <use xlink:href="#DejaVuSans-68" x="227.685547"/>
      <use xlink:href="#DejaVuSans-20" x="291.064453"/>
      <use xlink:href="#DejaVuSans-28" x="322.851562"/>
      <use xlink:href="#DejaVuSans-6d" x="361.865234"/>
      <use xlink:href="#DejaVuSans-29" x="459.277344"/>
     </g>
    </g>
   </g>
   <g id="line2d_23">
    <path d="M 419.275909 116.263636 
L 423.3191 116.171582 
L 423.673162 115.812187 
L 424.027224 115.06801 
L 424.469802 113.639508 
L 425.166123 110.536995 
L 426.315841 104.820624 
L 426.738749 102.511415 
L 427.013147 100.922015 
L 427.612102 94.218157 
L 427.756677 94.035206 
L 427.826506 93.866478 
L 428.184502 89.493221 
L 428.46185 86.015718 
L 428.710677 87.565444 
L 428.771655 87.289551 
L 429.336187 80.738088 
L 429.396181 80.773549 
L 429.674513 80.15378 
L 429.875148 82.072754 
L 429.942026 82.063806 
L 430.355098 75.642047 
L 431.67988 61.869899 
L 431.739874 61.7048 
L 431.980833 58.533773 
L 432.049678 58.878818 
L 432.246379 57.189966 
L 432.314241 57.259643 
L 432.51881 56.185231 
L 432.586672 56.381306 
L 433.128584 52.17222 
L 433.261357 52.390447 
L 433.460025 51.965721 
L 433.776714 60.514561 
L 434.180935 51.23411 
L 434.511393 48.457488 
L 434.772022 47.457533 
L 435.287378 46.59066 
L 435.608985 44.760481 
L 435.86863 43.266807 
L 436.381037 41.629475 
L 436.443981 41.826559 
L 436.698709 40.916608 
L 436.823614 42.809712 
L 437.01048 44.850034 
L 437.394047 40.202204 
L 437.899569 38.531033 
L 438.087419 38.45244 
L 438.150363 38.388265 
L 438.649984 36.333417 
L 438.899794 35.030676 
L 439.209598 33.695278 
L 439.33352 33.183194 
L 439.394497 33.450014 
L 439.456458 33.409939 
L 440.318992 31.871742 
L 440.563885 31.136364 
L 440.867789 33.451799 
L 441.113665 32.902297 
L 441.175626 32.911916 
L 441.481496 34.089108 
L 441.666395 33.964352 
L 441.728356 34.102175 
L 441.789333 34.043504 
L 441.975216 33.490299 
L 442.037177 33.584889 
L 442.28502 33.272114 
L 442.654818 35.154527 
L 443.211482 35.17758 
L 443.641274 37.602456 
L 443.765196 37.999527 
L 443.827157 37.8757 
L 444.075 37.612401 
L 444.136961 37.637842 
L 444.445782 39.734758 
L 444.632648 38.887584 
L 444.695592 39.02606 
L 444.951303 53.024658 
L 445.332903 46.17182 
L 445.714504 43.929898 
L 445.841376 43.433408 
L 445.967264 44.785685 
L 446.155114 46.744419 
L 446.345914 46.418437 
L 446.535731 46.314042 
L 446.727514 46.11881 
L 446.917331 47.643982 
L 447.360892 49.670979 
L 447.423836 49.584161 
L 447.61562 49.504483 
L 447.679548 50.280501 
L 447.742492 50.230263 
L 447.934275 50.416819 
L 448.254898 52.086787 
L 448.449632 51.855738 
L 448.837133 55.421895 
L 448.966956 55.163467 
L 449.033835 55.087273 
L 449.685899 61.059465 
L 449.952429 60.298857 
L 450.018324 60.405099 
L 450.814963 64.695428 
L 450.947736 65.381176 
L 451.150338 65.232101 
L 451.217217 65.990278 
L 451.476862 72.704323 
L 451.742409 76.555709 
L 452.067949 73.25159 
L 452.335463 77.615692 
L 452.402341 77.322799 
L 452.675755 77.425792 
L 452.946219 79.770622 
L 453.264875 76.848396 
L 453.537306 80.073901 
L 453.7881 77.877884 
L 453.908088 77.282704 
L 454.208057 76.02366 
L 454.47557 75.800083 
L 454.655552 75.761907 
L 454.784391 76.243022 
L 454.844385 76.103291 
L 454.965356 75.914988 
L 455.48268 78.310013 
L 455.681348 78.98837 
L 455.741342 78.90821 
L 455.862313 78.815988 
L 455.922307 79.224959 
L 455.982301 79.126393 
L 456.163266 78.970673 
L 456.22326 79.037444 
L 456.406192 78.530487 
L 456.467169 78.56904 
L 456.649118 79.006525 
L 456.709111 79.071509 
L 456.890076 80.196399 
L 457.131035 82.352341 
L 457.32872 85.45611 
L 457.388714 85.355117 
L 457.636557 83.583798 
L 457.698518 83.892751 
L 457.998487 87.116459 
L 458.247314 85.174998 
L 458.309275 85.27 
L 458.495157 84.248456 
L 458.619079 84.438369 
L 458.864955 83.984689 
L 459.112799 84.063577 
L 459.17476 84.539154 
L 459.236721 84.485837 
L 459.423587 84.414724 
L 459.551442 84.752302 
L 459.677331 84.807944 
L 459.739292 85.003951 
L 459.802236 84.872201 
L 459.993036 84.491909 
L 460.054997 84.982439 
L 460.114991 84.869018 
L 460.298906 84.644638 
L 460.489707 85.26584 
L 460.621496 85.664106 
L 461.195863 88.370796 
L 461.257824 88.234664 
L 461.453542 87.575252 
L 461.52042 87.60644 
L 461.651226 87.462042 
L 461.782033 87.293844 
L 462.313126 92.798126 
L 462.381971 93.202028 
L 462.450816 93.061458 
L 462.661287 92.163239 
L 463.00453 92.99918 
L 463.488415 92.176764 
L 463.853295 91.648592 
L 464.099172 92.103128 
L 464.223093 92.270246 
L 464.409959 92.045706 
L 464.533881 92.969416 
L 464.776807 94.682224 
L 465.032518 93.711992 
L 465.352158 94.036942 
L 465.609836 93.818666 
L 465.674747 94.052086 
L 465.739659 93.889013 
L 465.873416 93.62632 
L 466.133061 94.611973 
L 466.326812 95.012796 
L 466.786109 95.441719 
L 467.175577 97.738586 
L 467.439156 98.524887 
L 467.717488 97.580523 
L 467.986969 98.703611 
L 468.053847 98.5961 
L 468.404959 97.430149 
L 468.546583 97.165783 
L 468.617396 97.331333 
L 468.687225 97.297928 
L 468.82885 97.261902 
L 468.898678 97.440508 
L 469.172093 99.07129 
L 469.523204 98.620918 
L 469.886118 97.905019 
L 470.028726 97.71314 
L 470.653252 100.90937 
L 471.005347 99.855527 
L 471.199098 99.646931 
L 471.331871 99.691791 
L 471.781333 99.165308 
L 471.841327 99.259157 
L 472.198339 101.180405 
L 472.413727 101.903725 
L 472.48749 101.861741 
L 472.736317 101.28974 
L 473.220202 101.313251 
L 473.34314 101.243541 
L 473.645076 101.878623 
L 473.70507 101.826299 
L 473.891936 101.736744 
L 474.195839 103.024559 
L 474.511544 102.424066 
L 474.943303 104.022229 
L 475.316052 104.73778 
L 475.442924 104.663292 
L 475.70552 104.43625 
L 475.963198 104.944694 
L 476.229728 104.522854 
L 476.557236 104.933916 
L 477.139471 105.898311 
L 477.888902 105.394848 
L 478.023642 105.412912 
L 478.491791 106.569017 
L 478.625548 106.738996 
L 478.90683 106.354639 
L 478.977643 106.432957 
L 479.318919 107.008634 
L 479.600202 107.051954 
L 479.89427 106.867004 
L 480.338814 106.660486 
L 480.48634 106.736463 
L 480.857122 106.798629 
L 480.931868 106.809038 
L 481.153157 107.009712 
L 481.30265 107.140193 
L 481.592784 107.875391 
L 482.04913 107.844531 
L 482.126827 107.812614 
L 482.7307 108.86018 
L 482.961823 108.81457 
L 483.618805 108.805808 
L 484.526581 110.133828 
L 485.198315 110.753844 
L 485.957581 111.270711 
L 486.35 111.166712 
L 486.932235 111.587186 
L 487.414153 111.462087 
L 487.55381 111.527004 
L 487.891153 111.749525 
L 488.309143 111.757032 
L 491.088529 113.472207 
L 491.406201 113.541187 
L 492.13793 113.853906 
L 493.755796 114.491582 
L 494.46392 114.673115 
L 495.526106 114.935554 
L 496.853838 115.155959 
L 503.846562 115.461003 
L 523.14294 115.779327 
L 537.216904 115.864058 
L 545.094782 115.918782 
L 552.264537 115.954631 
L 619.00522 116.128467 
L 673.353733 116.177105 
L 695.394091 116.187867 
L 695.394091 116.187867 
" clip-path="url(#p59a806afdc)" style="fill: none; stroke: #1f77b4; stroke-width: 1.5; stroke-linecap: square"/>
   </g>
   <g id="patch_8">
    <path d="M 405.47 120.52 
L 405.47 26.88 
" style="fill: none; stroke: #000000; stroke-width: 0.8; stroke-linejoin: miter; stroke-linecap: square"/>
   </g>
   <g id="patch_9">
    <path d="M 709.2 120.52 
L 709.2 26.88 
" style="fill: none; stroke: #000000; stroke-width: 0.8; stroke-linejoin: miter; stroke-linecap: square"/>
   </g>
   <g id="patch_10">
    <path d="M 405.47 120.52 
L 709.2 120.52 
" style="fill: none; stroke: #000000; stroke-width: 0.8; stroke-linejoin: miter; stroke-linecap: square"/>
   </g>
   <g id="patch_11">
    <path d="M 405.47 26.88 
L 709.2 26.88 
" style="fill: none; stroke: #000000; stroke-width: 0.8; stroke-linejoin: miter; stroke-linecap: square"/>
   </g>
   <g id="text_14">
    <!-- ('P1', 'depthN') -->
    <g transform="translate(493.2829 50.3762) scale(0.1728 -0.1728)">
     <defs>
      <path id="DejaVuSans-27" d="M 1147 4666 
L 1147 2931 
L 616 2931 
L 616 4666 
L 1147 4666 
z
" transform="scale(0.015625)"/>
      <path id="DejaVuSans-50" d="M 1259 4147 
L 1259 2394 
L 2053 2394 
Q 2494 2394 2734 2622 
Q 2975 2850 2975 3272 
Q 2975 3691 2734 3919 
Q 2494 4147 2053 4147 
L 1259 4147 
z
M 628 4666 
L 2053 4666 
Q 2838 4666 3239 4311 
Q 3641 3956 3641 3272 
Q 3641 2581 3239 2228 
Q 2838 1875 2053 1875 
L 1259 1875 
L 1259 0 
L 628 0 
L 628 4666 
z
" transform="scale(0.015625)"/>
      <path id="DejaVuSans-2c" d="M 750 794 
L 1409 794 
L 1409 256 
L 897 -744 
L 494 -744 
L 750 256 
L 750 794 
z
" transform="scale(0.015625)"/>
      <path id="DejaVuSans-4e" d="M 628 4666 
L 1478 4666 
L 3547 763 
L 3547 4666 
L 4159 4666 
L 4159 0 
L 3309 0 
L 1241 3903 
L 1241 0 
L 628 0 
L 628 4666 
z
" transform="scale(0.015625)"/>
     </defs>
     <use xlink:href="#DejaVuSans-28"/>
     <use xlink:href="#DejaVuSans-27" x="39.013672"/>
     <use xlink:href="#DejaVuSans-50" x="66.503906"/>
     <use xlink:href="#DejaVuSans-31" x="126.806641"/>
     <use xlink:href="#DejaVuSans-27" x="190.429688"/>
     <use xlink:href="#DejaVuSans-2c" x="217.919922"/>
     <use xlink:href="#DejaVuSans-20" x="249.707031"/>
     <use xlink:href="#DejaVuSans-27" x="281.494141"/>
     <use xlink:href="#DejaVuSans-64" x="308.984375"/>
     <use xlink:href="#DejaVuSans-65" x="372.460938"/>
     <use xlink:href="#DejaVuSans-70" x="433.984375"/>
     <use xlink:href="#DejaVuSans-74" x="497.460938"/>
     <use xlink:href="#DejaVuSans-68" x="536.669922"/>
     <use xlink:href="#DejaVuSans-4e" x="600.048828"/>
     <use xlink:href="#DejaVuSans-27" x="674.853516"/>
     <use xlink:href="#DejaVuSans-29" x="702.34375"/>
    </g>
   </g>
   <g id="text_15">
    <!-- depths -->
    <g transform="translate(536.744688 20.88) scale(0.12 -0.12)">
     <use xlink:href="#DejaVuSans-64"/>
     <use xlink:href="#DejaVuSans-65" x="63.476562"/>
     <use xlink:href="#DejaVuSans-70" x="125"/>
     <use xlink:href="#DejaVuSans-74" x="188.476562"/>
     <use xlink:href="#DejaVuSans-68" x="227.685547"/>
     <use xlink:href="#DejaVuSans-73" x="291.064453"/>
    </g>
   </g>
  </g>
  <g id="axes_3">
   <g id="patch_12">
    <path d="M 47.72 246.04 
L 351.45 246.04 
L 351.45 152.4 
L 47.72 152.4 
z
" style="fill: #ffffff"/>
   </g>
   <g id="matplotlib.axis_5">
    <g id="xtick_15">
     <g id="line2d_24">
      <g>
       <use xlink:href="#m8abb87754f" x="61.525909" y="246.04" style="stroke: #000000; stroke-width: 0.8"/>
      </g>
     </g>
     <g id="text_16">
      <!-- 02-25 00 -->
      <g transform="translate(39.04544 260.638437) scale(0.1 -0.1)">
       <defs>
        <path id="DejaVuSans-2d" d="M 313 2009 
L 1997 2009 
L 1997 1497 
L 313 1497 
L 313 2009 
z
" transform="scale(0.015625)"/>
       </defs>
       <use xlink:href="#DejaVuSans-30"/>
       <use xlink:href="#DejaVuSans-32" x="63.623047"/>
       <use xlink:href="#DejaVuSans-2d" x="127.246094"/>
       <use xlink:href="#DejaVuSans-32" x="163.330078"/>
       <use xlink:href="#DejaVuSans-35" x="226.953125"/>
       <use xlink:href="#DejaVuSans-20" x="290.576172"/>
       <use xlink:href="#DejaVuSans-30" x="322.363281"/>
       <use xlink:href="#DejaVuSans-30" x="385.986328"/>
      </g>
     </g>
    </g>
    <g id="xtick_16">
     <g id="line2d_25">
      <g>
       <use xlink:href="#m8abb87754f" x="104.013346" y="246.04" style="stroke: #000000; stroke-width: 0.8"/>
      </g>
     </g>
     <g id="text_17">
      <!-- 02-25 12 -->
      <g transform="translate(81.532877 260.638437) scale(0.1 -0.1)">
       <use xlink:href="#DejaVuSans-30"/>
       <use xlink:href="#DejaVuSans-32" x="63.623047"/>
       <use xlink:href="#DejaVuSans-2d" x="127.246094"/>
       <use xlink:href="#DejaVuSans-32" x="163.330078"/>
       <use xlink:href="#DejaVuSans-35" x="226.953125"/>
       <use xlink:href="#DejaVuSans-20" x="290.576172"/>
       <use xlink:href="#DejaVuSans-31" x="322.363281"/>
       <use xlink:href="#DejaVuSans-32" x="385.986328"/>
      </g>
     </g>
    </g>
    <g id="xtick_17">
     <g id="line2d_26">
      <g>
       <use xlink:href="#m8abb87754f" x="146.500783" y="246.04" style="stroke: #000000; stroke-width: 0.8"/>
      </g>
     </g>
     <g id="text_18">
      <!-- 02-26 00 -->
      <g transform="translate(124.020314 260.638437) scale(0.1 -0.1)">
       <defs>
        <path id="DejaVuSans-36" d="M 2113 2584 
Q 1688 2584 1439 2293 
Q 1191 2003 1191 1497 
Q 1191 994 1439 701 
Q 1688 409 2113 409 
Q 2538 409 2786 701 
Q 3034 994 3034 1497 
Q 3034 2003 2786 2293 
Q 2538 2584 2113 2584 
z
M 3366 4563 
L 3366 3988 
Q 3128 4100 2886 4159 
Q 2644 4219 2406 4219 
Q 1781 4219 1451 3797 
Q 1122 3375 1075 2522 
Q 1259 2794 1537 2939 
Q 1816 3084 2150 3084 
Q 2853 3084 3261 2657 
Q 3669 2231 3669 1497 
Q 3669 778 3244 343 
Q 2819 -91 2113 -91 
Q 1303 -91 875 529 
Q 447 1150 447 2328 
Q 447 3434 972 4092 
Q 1497 4750 2381 4750 
Q 2619 4750 2861 4703 
Q 3103 4656 3366 4563 
z
" transform="scale(0.015625)"/>
       </defs>
       <use xlink:href="#DejaVuSans-30"/>
       <use xlink:href="#DejaVuSans-32" x="63.623047"/>
       <use xlink:href="#DejaVuSans-2d" x="127.246094"/>
       <use xlink:href="#DejaVuSans-32" x="163.330078"/>
       <use xlink:href="#DejaVuSans-36" x="226.953125"/>
       <use xlink:href="#DejaVuSans-20" x="290.576172"/>
       <use xlink:href="#DejaVuSans-30" x="322.363281"/>
       <use xlink:href="#DejaVuSans-30" x="385.986328"/>
      </g>
     </g>
    </g>
    <g id="xtick_18">
     <g id="line2d_27">
      <g>
       <use xlink:href="#m8abb87754f" x="188.98822" y="246.04" style="stroke: #000000; stroke-width: 0.8"/>
      </g>
     </g>
     <g id="text_19">
      <!-- 02-26 12 -->
      <g transform="translate(166.507751 260.638437) scale(0.1 -0.1)">
       <use xlink:href="#DejaVuSans-30"/>
       <use xlink:href="#DejaVuSans-32" x="63.623047"/>
       <use xlink:href="#DejaVuSans-2d" x="127.246094"/>
       <use xlink:href="#DejaVuSans-32" x="163.330078"/>
       <use xlink:href="#DejaVuSans-36" x="226.953125"/>
       <use xlink:href="#DejaVuSans-20" x="290.576172"/>
       <use xlink:href="#DejaVuSans-31" x="322.363281"/>
       <use xlink:href="#DejaVuSans-32" x="385.986328"/>
      </g>
     </g>
    </g>
    <g id="xtick_19">
     <g id="line2d_28">
      <g>
       <use xlink:href="#m8abb87754f" x="231.475657" y="246.04" style="stroke: #000000; stroke-width: 0.8"/>
      </g>
     </g>
     <g id="text_20">
      <!-- 02-27 00 -->
      <g transform="translate(208.995188 260.638437) scale(0.1 -0.1)">
       <defs>
        <path id="DejaVuSans-37" d="M 525 4666 
L 3525 4666 
L 3525 4397 
L 1831 0 
L 1172 0 
L 2766 4134 
L 525 4134 
L 525 4666 
z
" transform="scale(0.015625)"/>
       </defs>
       <use xlink:href="#DejaVuSans-30"/>
       <use xlink:href="#DejaVuSans-32" x="63.623047"/>
       <use xlink:href="#DejaVuSans-2d" x="127.246094"/>
       <use xlink:href="#DejaVuSans-32" x="163.330078"/>
       <use xlink:href="#DejaVuSans-37" x="226.953125"/>
       <use xlink:href="#DejaVuSans-20" x="290.576172"/>
       <use xlink:href="#DejaVuSans-30" x="322.363281"/>
       <use xlink:href="#DejaVuSans-30" x="385.986328"/>
      </g>
     </g>
    </g>
    <g id="xtick_20">
     <g id="line2d_29">
      <g>
       <use xlink:href="#m8abb87754f" x="273.963094" y="246.04" style="stroke: #000000; stroke-width: 0.8"/>
      </g>
     </g>
     <g id="text_21">
      <!-- 02-27 12 -->
      <g transform="translate(251.482625 260.638437) scale(0.1 -0.1)">
       <use xlink:href="#DejaVuSans-30"/>
       <use xlink:href="#DejaVuSans-32" x="63.623047"/>
       <use xlink:href="#DejaVuSans-2d" x="127.246094"/>
       <use xlink:href="#DejaVuSans-32" x="163.330078"/>
       <use xlink:href="#DejaVuSans-37" x="226.953125"/>
       <use xlink:href="#DejaVuSans-20" x="290.576172"/>
       <use xlink:href="#DejaVuSans-31" x="322.363281"/>
       <use xlink:href="#DejaVuSans-32" x="385.986328"/>
      </g>
     </g>
    </g>
    <g id="xtick_21">
     <g id="line2d_30">
      <g>
       <use xlink:href="#m8abb87754f" x="316.450531" y="246.04" style="stroke: #000000; stroke-width: 0.8"/>
      </g>
     </g>
     <g id="text_22">
      <!-- 02-28 00 -->
      <g transform="translate(293.970062 260.638437) scale(0.1 -0.1)">
       <defs>
        <path id="DejaVuSans-38" d="M 2034 2216 
Q 1584 2216 1326 1975 
Q 1069 1734 1069 1313 
Q 1069 891 1326 650 
Q 1584 409 2034 409 
Q 2484 409 2743 651 
Q 3003 894 3003 1313 
Q 3003 1734 2745 1975 
Q 2488 2216 2034 2216 
z
M 1403 2484 
Q 997 2584 770 2862 
Q 544 3141 544 3541 
Q 544 4100 942 4425 
Q 1341 4750 2034 4750 
Q 2731 4750 3128 4425 
Q 3525 4100 3525 3541 
Q 3525 3141 3298 2862 
Q 3072 2584 2669 2484 
Q 3125 2378 3379 2068 
Q 3634 1759 3634 1313 
Q 3634 634 3220 271 
Q 2806 -91 2034 -91 
Q 1263 -91 848 271 
Q 434 634 434 1313 
Q 434 1759 690 2068 
Q 947 2378 1403 2484 
z
M 1172 3481 
Q 1172 3119 1398 2916 
Q 1625 2713 2034 2713 
Q 2441 2713 2670 2916 
Q 2900 3119 2900 3481 
Q 2900 3844 2670 4047 
Q 2441 4250 2034 4250 
Q 1625 4250 1398 4047 
Q 1172 3844 1172 3481 
z
" transform="scale(0.015625)"/>
       </defs>
       <use xlink:href="#DejaVuSans-30"/>
       <use xlink:href="#DejaVuSans-32" x="63.623047"/>
       <use xlink:href="#DejaVuSans-2d" x="127.246094"/>
       <use xlink:href="#DejaVuSans-32" x="163.330078"/>
       <use xlink:href="#DejaVuSans-38" x="226.953125"/>
       <use xlink:href="#DejaVuSans-20" x="290.576172"/>
       <use xlink:href="#DejaVuSans-30" x="322.363281"/>
       <use xlink:href="#DejaVuSans-30" x="385.986328"/>
      </g>
     </g>
    </g>
    <g id="text_23">
     <!-- time -->
     <g transform="translate(188.288906 274.316562) scale(0.1 -0.1)">
      <use xlink:href="#DejaVuSans-74"/>
      <use xlink:href="#DejaVuSans-69" x="39.208984"/>
      <use xlink:href="#DejaVuSans-6d" x="66.992188"/>
      <use xlink:href="#DejaVuSans-65" x="164.404297"/>
     </g>
    </g>
   </g>
   <g id="matplotlib.axis_6">
    <g id="ytick_8">
     <g id="line2d_31">
      <g>
       <use xlink:href="#m756535a2c2" x="47.72" y="241.783636" style="stroke: #000000; stroke-width: 0.8"/>
      </g>
     </g>
     <g id="text_24">
      <!-- 0.0 -->
      <g transform="translate(24.816875 245.582855) scale(0.1 -0.1)">
       <use xlink:href="#DejaVuSans-30"/>
       <use xlink:href="#DejaVuSans-2e" x="63.623047"/>
       <use xlink:href="#DejaVuSans-30" x="95.410156"/>
      </g>
     </g>
    </g>
    <g id="ytick_9">
     <g id="line2d_32">
      <g>
       <use xlink:href="#m756535a2c2" x="47.72" y="204.608623" style="stroke: #000000; stroke-width: 0.8"/>
      </g>
     </g>
     <g id="text_25">
      <!-- 0.5 -->
      <g transform="translate(24.816875 208.407842) scale(0.1 -0.1)">
       <use xlink:href="#DejaVuSans-30"/>
       <use xlink:href="#DejaVuSans-2e" x="63.623047"/>
       <use xlink:href="#DejaVuSans-35" x="95.410156"/>
      </g>
     </g>
    </g>
    <g id="ytick_10">
     <g id="line2d_33">
      <g>
       <use xlink:href="#m756535a2c2" x="47.72" y="167.43361" style="stroke: #000000; stroke-width: 0.8"/>
      </g>
     </g>
     <g id="text_26">
      <!-- 1.0 -->
      <g transform="translate(24.816875 171.232829) scale(0.1 -0.1)">
       <use xlink:href="#DejaVuSans-31"/>
       <use xlink:href="#DejaVuSans-2e" x="63.623047"/>
       <use xlink:href="#DejaVuSans-30" x="95.410156"/>
      </g>
     </g>
    </g>
    <g id="text_27">
     <!-- flow (cms) -->
     <g transform="translate(18.737188 225.2325) rotate(-90) scale(0.1 -0.1)">
      <use xlink:href="#DejaVuSans-66"/>
      <use xlink:href="#DejaVuSans-6c" x="35.205078"/>
      <use xlink:href="#DejaVuSans-6f" x="62.988281"/>
      <use xlink:href="#DejaVuSans-77" x="124.169922"/>
      <use xlink:href="#DejaVuSans-20" x="205.957031"/>
      <use xlink:href="#DejaVuSans-28" x="237.744141"/>
      <use xlink:href="#DejaVuSans-63" x="276.757812"/>
      <use xlink:href="#DejaVuSans-6d" x="331.738281"/>
      <use xlink:href="#DejaVuSans-73" x="429.150391"/>
      <use xlink:href="#DejaVuSans-29" x="481.25"/>
     </g>
    </g>
   </g>
   <g id="line2d_34">
    <path d="M 61.525909 241.783636 
L 67.994425 241.68154 
L 68.84319 241.452487 
L 69.403788 241.100171 
L 70.006677 240.447223 
L 70.643988 239.365774 
L 71.276382 238.094214 
L 71.924513 236.596147 
L 72.605098 235.005399 
L 73.061445 233.661252 
L 73.315189 232.297179 
L 73.501072 232.786539 
L 73.563033 232.703074 
L 73.624994 232.593709 
L 73.747932 231.574836 
L 73.868903 231.481838 
L 74.230833 230.880486 
L 74.299678 230.507338 
L 74.36754 230.77006 
L 74.427534 230.708677 
L 74.76881 230.241299 
L 74.836672 230.260895 
L 74.972396 230.99313 
L 75.040258 230.920896 
L 75.109103 230.768835 
L 75.311705 229.613437 
L 75.378584 229.498269 
L 75.511357 229.69523 
L 75.710025 229.241866 
L 75.96377 228.004184 
L 76.093592 229.436499 
L 76.162438 229.207896 
L 76.298161 228.885867 
L 76.36504 228.99162 
L 76.497813 229.598626 
L 76.564691 229.519919 
L 76.827287 228.253241 
L 76.892199 228.277491 
L 76.95711 228.653008 
L 77.022022 228.413797 
L 77.150861 228.190341 
L 77.215772 228.417296 
L 77.280683 228.298467 
L 77.473451 227.82749 
L 77.537378 228.124109 
L 77.731129 227.506079 
L 77.923896 228.7699 
L 78.053719 228.645035 
L 78.11863 228.478764 
L 78.246486 228.817937 
L 78.311397 228.750724 
L 78.631037 227.308369 
L 78.693981 227.451969 
L 78.820853 227.941836 
L 78.948709 227.797863 
L 79.011653 227.287127 
L 79.073614 227.666201 
L 79.198519 227.868768 
L 79.26048 227.704148 
L 79.324408 227.837128 
L 79.388336 227.95913 
L 79.452264 227.887762 
L 79.517175 227.803165 
L 79.581103 227.519278 
L 79.770919 228.307806 
L 79.834847 228.237586 
L 80.02368 227.634514 
L 80.149569 227.378137 
L 80.212513 227.10941 
L 80.274474 227.235263 
L 80.525268 227.129486 
L 80.713118 226.815299 
L 80.899984 227.076251 
L 80.961945 227.019467 
L 81.08685 226.756109 
L 81.273716 226.076455 
L 81.335677 226.007955 
L 81.459598 226.580788 
L 81.521559 226.546677 
L 81.58352 226.483091 
L 81.644497 226.585019 
L 81.83038 227.247107 
L 81.892341 227.189042 
L 82.07724 226.856247 
L 82.508015 226.409305 
L 82.752908 225.650631 
L 82.995834 226.245397 
L 83.117789 226.265525 
L 83.178766 226.471904 
L 83.240727 226.384025 
L 83.363665 226.240799 
L 83.425626 226.307484 
L 83.670519 226.177487 
L 83.793457 226.35148 
L 84.039333 226.171407 
L 84.163255 226.184841 
L 84.287177 226.199168 
L 84.473059 226.747605 
L 84.53502 226.714985 
L 84.719919 226.138684 
L 84.904818 226.014437 
L 85.027756 226.418083 
L 85.089717 226.405329 
L 85.213639 226.235575 
L 85.399521 225.418435 
L 85.645398 225.93093 
L 85.706375 225.903345 
L 85.830297 226.231403 
L 86.015196 226.024386 
L 86.263039 226.374124 
L 86.695782 225.907008 
L 86.882648 225.550332 
L 86.945592 225.739553 
L 87.006569 225.275261 
L 87.073448 225.53953 
L 87.201303 225.666246 
L 87.263264 226.290893 
L 87.327192 226.087919 
L 87.456031 225.707092 
L 87.519959 225.776683 
L 87.709776 226.371973 
L 87.773704 226.368055 
L 88.091376 225.889697 
L 88.217264 226.116771 
L 88.405114 226.303173 
L 88.658858 225.617862 
L 88.722786 225.784256 
L 88.913586 226.458426 
L 88.977514 226.448537 
L 89.231259 225.34972 
L 89.294203 225.383546 
L 89.357147 225.592798 
L 89.421075 225.523425 
L 89.546964 225.498738 
L 89.673836 225.775782 
L 89.737764 225.7207 
L 89.929548 225.672543 
L 90.05642 225.655716 
L 90.120348 225.614723 
L 90.377043 225.945583 
L 90.504898 225.984087 
L 90.699632 225.406643 
L 91.283835 226.566063 
L 91.349729 226.479742 
L 91.544464 225.933938 
L 91.67527 225.951468 
L 91.805093 225.772232 
L 91.935899 225.810479 
L 92.202429 226.23445 
L 92.268324 226.155586 
L 92.466992 225.747426 
L 92.599765 225.816318 
L 92.732538 226.06255 
L 92.866295 226.05351 
L 92.93219 225.822952 
L 92.999068 225.843238 
L 93.400338 225.986842 
L 93.467217 225.93065 
L 93.532128 225.178608 
L 93.597039 225.234352 
L 93.660967 225.310618 
L 93.992409 226.536276 
L 94.452689 225.69943 
L 94.652341 226.04717 
L 94.789048 225.672407 
L 94.857894 225.686441 
L 94.925755 226.015193 
L 94.993617 225.90743 
L 95.266048 226.218015 
L 95.326042 226.123414 
L 95.583721 226.098185 
L 95.787306 226.506719 
L 96.0381 226.648631 
L 96.338069 226.043126 
L 96.398063 226.101256 
L 96.458057 226.035236 
L 96.586896 225.937154 
L 96.656725 225.974156 
L 96.845558 226.402244 
L 97.215356 226.491199 
L 97.345179 226.247463 
L 97.543847 226.395302 
L 97.801525 225.86275 
L 98.112313 226.423199 
L 98.172307 226.355039 
L 98.353272 225.900152 
L 98.413266 225.926628 
L 98.717169 226.943941 
L 98.959111 225.997969 
L 99.020089 226.023637 
L 99.20007 226.792804 
L 99.321041 226.867327 
L 99.441029 226.152975 
L 99.509874 226.206623 
L 99.638714 226.460081 
L 99.762635 226.792991 
L 99.886557 226.842029 
L 100.008512 226.277947 
L 100.068506 226.324942 
L 100.310448 226.734697 
L 100.372409 226.659835 
L 100.808102 226.581292 
L 100.930056 226.298879 
L 101.053978 226.353416 
L 101.300838 227.098377 
L 101.362799 227.156112 
L 101.42476 226.901153 
L 101.611626 227.43508 
L 101.735547 156.656364 
L 101.801442 164.264606 
L 102.243036 208.551724 
L 102.364991 203.996188 
L 102.739707 216.263306 
L 103.202938 224.404869 
L 103.445863 226.745515 
L 103.637647 230.243968 
L 103.703542 230.541133 
L 103.835332 229.284798 
L 104.563126 233.433848 
L 104.631971 233.262998 
L 104.700816 232.775193 
L 104.770645 232.903582 
L 104.911287 233.366439 
L 105.12274 234.872135 
L 105.182734 234.948273 
L 105.25453 234.529413 
L 105.314524 234.737361 
L 105.496472 234.98824 
L 105.556466 234.378794 
L 105.617444 234.457722 
L 106.349172 235.824693 
L 106.411132 235.641859 
L 106.597999 235.745831 
L 106.659959 235.809561 
L 106.72192 236.074372 
L 106.783881 235.856217 
L 106.964846 236.014088 
L 107.026807 236.428357 
L 107.089751 236.238827 
L 107.53823 236.532545 
L 107.602158 237.008142 
L 107.666085 236.650616 
L 107.859836 236.747226 
L 108.056537 237.478594 
L 108.123416 237.490021 
L 108.255205 236.836653 
L 108.319133 236.875916 
L 109.102003 237.36119 
L 109.230843 237.320978 
L 109.623261 237.52848 
L 109.827831 238.141442 
L 109.967488 238.041867 
L 110.104196 237.633428 
L 110.17009 237.661532 
L 110.303847 237.810064 
L 110.514317 237.873153 
L 110.725771 238.443897 
L 110.796583 238.44643 
L 110.867396 238.242253 
L 111.008037 238.410901 
L 111.07885 238.418702 
L 111.148678 238.248938 
L 111.353248 238.473825 
L 111.561751 238.033674 
L 111.702392 238.132399 
L 111.91778 238.704011 
L 111.991543 238.707268 
L 112.136118 238.179513 
L 112.622953 238.333121 
L 112.761627 238.623798 
L 112.83244 238.642802 
L 113.048811 238.485797 
L 113.182568 238.520809 
L 113.389104 238.947314 
L 113.449098 238.952666 
L 113.509092 238.63365 
L 113.581871 238.840739 
L 114.031333 239.078427 
L 114.164106 238.608896 
L 114.304748 238.657402 
L 114.37556 238.85024 
L 114.448339 238.738976 
L 114.663727 238.844996 
L 114.861412 239.267222 
L 114.923372 239.272342 
L 115.047294 238.96175 
L 115.895076 239.157248 
L 116.079975 239.339683 
L 116.264874 239.40458 
L 116.384862 239.425151 
L 116.506816 239.230904 
L 116.569761 239.266322 
L 116.761544 239.350404 
L 116.946443 239.615193 
L 117.008404 239.624526 
L 117.193303 239.370611 
L 117.628996 239.517168 
L 117.82373 239.744928 
L 118.479728 239.869261 
L 118.54759 239.695789 
L 118.612502 239.791853 
L 118.807236 239.757282 
L 118.937058 239.623051 
L 119.389471 239.761436 
L 119.592073 240.071514 
L 119.660918 240.076809 
L 119.798609 239.823101 
L 121.779389 240.245441 
L 121.922981 240.407898 
L 125.056429 240.55735 
L 125.211823 240.528918 
L 125.928799 240.746984 
L 127.387337 240.842732 
L 127.636164 240.918513 
L 142.467427 241.629871 
L 155.656236 241.721221 
L 157.869123 241.721914 
L 246.030555 241.776917 
L 337.644091 241.781205 
L 337.644091 241.781205 
" clip-path="url(#p4b1a912028)" style="fill: none; stroke: #1f77b4; stroke-width: 1.5; stroke-linecap: square"/>
   </g>
   <g id="patch_13">
    <path d="M 47.72 246.04 
L 47.72 152.4 
" style="fill: none; stroke: #000000; stroke-width: 0.8; stroke-linejoin: miter; stroke-linecap: square"/>
   </g>
   <g id="patch_14">
    <path d="M 351.45 246.04 
L 351.45 152.4 
" style="fill: none; stroke: #000000; stroke-width: 0.8; stroke-linejoin: miter; stroke-linecap: square"/>
   </g>
   <g id="patch_15">
    <path d="M 47.72 246.04 
L 351.45 246.04 
" style="fill: none; stroke: #000000; stroke-width: 0.8; stroke-linejoin: miter; stroke-linecap: square"/>
   </g>
   <g id="patch_16">
    <path d="M 47.72 152.4 
L 351.45 152.4 
" style="fill: none; stroke: #000000; stroke-width: 0.8; stroke-linejoin: miter; stroke-linecap: square"/>
   </g>
   <g id="text_28">
    <!-- 2 -->
    <g transform="translate(194.0878 175.8962) scale(0.1728 -0.1728)">
     <use xlink:href="#DejaVuSans-32"/>
    </g>
   </g>
  </g>
  <g id="axes_4">
   <g id="patch_17">
    <path d="M 405.47 246.04 
L 709.2 246.04 
L 709.2 152.4 
L 405.47 152.4 
z
" style="fill: #ffffff"/>
   </g>
   <g id="matplotlib.axis_7">
    <g id="xtick_22">
     <g id="line2d_35">
      <g>
       <use xlink:href="#m8abb87754f" x="419.275909" y="246.04" style="stroke: #000000; stroke-width: 0.8"/>
      </g>
     </g>
     <g id="text_29">
      <!-- 02-25 00 -->
      <g transform="translate(396.79544 260.638437) scale(0.1 -0.1)">
       <use xlink:href="#DejaVuSans-30"/>
       <use xlink:href="#DejaVuSans-32" x="63.623047"/>
       <use xlink:href="#DejaVuSans-2d" x="127.246094"/>
       <use xlink:href="#DejaVuSans-32" x="163.330078"/>
       <use xlink:href="#DejaVuSans-35" x="226.953125"/>
       <use xlink:href="#DejaVuSans-20" x="290.576172"/>
       <use xlink:href="#DejaVuSans-30" x="322.363281"/>
       <use xlink:href="#DejaVuSans-30" x="385.986328"/>
      </g>
     </g>
    </g>
    <g id="xtick_23">
     <g id="line2d_36">
      <g>
       <use xlink:href="#m8abb87754f" x="461.763346" y="246.04" style="stroke: #000000; stroke-width: 0.8"/>
      </g>
     </g>
     <g id="text_30">
      <!-- 02-25 12 -->
      <g transform="translate(439.282877 260.638437) scale(0.1 -0.1)">
       <use xlink:href="#DejaVuSans-30"/>
       <use xlink:href="#DejaVuSans-32" x="63.623047"/>
       <use xlink:href="#DejaVuSans-2d" x="127.246094"/>
       <use xlink:href="#DejaVuSans-32" x="163.330078"/>
       <use xlink:href="#DejaVuSans-35" x="226.953125"/>
       <use xlink:href="#DejaVuSans-20" x="290.576172"/>
       <use xlink:href="#DejaVuSans-31" x="322.363281"/>
       <use xlink:href="#DejaVuSans-32" x="385.986328"/>
      </g>
     </g>
    </g>
    <g id="xtick_24">
     <g id="line2d_37">
      <g>
       <use xlink:href="#m8abb87754f" x="504.250783" y="246.04" style="stroke: #000000; stroke-width: 0.8"/>
      </g>
     </g>
     <g id="text_31">
      <!-- 02-26 00 -->
      <g transform="translate(481.770314 260.638437) scale(0.1 -0.1)">
       <use xlink:href="#DejaVuSans-30"/>
       <use xlink:href="#DejaVuSans-32" x="63.623047"/>
       <use xlink:href="#DejaVuSans-2d" x="127.246094"/>
       <use xlink:href="#DejaVuSans-32" x="163.330078"/>
       <use xlink:href="#DejaVuSans-36" x="226.953125"/>
       <use xlink:href="#DejaVuSans-20" x="290.576172"/>
       <use xlink:href="#DejaVuSans-30" x="322.363281"/>
       <use xlink:href="#DejaVuSans-30" x="385.986328"/>
      </g>
     </g>
    </g>
    <g id="xtick_25">
     <g id="line2d_38">
      <g>
       <use xlink:href="#m8abb87754f" x="546.73822" y="246.04" style="stroke: #000000; stroke-width: 0.8"/>
      </g>
     </g>
     <g id="text_32">
      <!-- 02-26 12 -->
      <g transform="translate(524.257751 260.638437) scale(0.1 -0.1)">
       <use xlink:href="#DejaVuSans-30"/>
       <use xlink:href="#DejaVuSans-32" x="63.623047"/>
       <use xlink:href="#DejaVuSans-2d" x="127.246094"/>
       <use xlink:href="#DejaVuSans-32" x="163.330078"/>
       <use xlink:href="#DejaVuSans-36" x="226.953125"/>
       <use xlink:href="#DejaVuSans-20" x="290.576172"/>
       <use xlink:href="#DejaVuSans-31" x="322.363281"/>
       <use xlink:href="#DejaVuSans-32" x="385.986328"/>
      </g>
     </g>
    </g>
    <g id="xtick_26">
     <g id="line2d_39">
      <g>
       <use xlink:href="#m8abb87754f" x="589.225657" y="246.04" style="stroke: #000000; stroke-width: 0.8"/>
      </g>
     </g>
     <g id="text_33">
      <!-- 02-27 00 -->
      <g transform="translate(566.745188 260.638437) scale(0.1 -0.1)">
       <use xlink:href="#DejaVuSans-30"/>
       <use xlink:href="#DejaVuSans-32" x="63.623047"/>
       <use xlink:href="#DejaVuSans-2d" x="127.246094"/>
       <use xlink:href="#DejaVuSans-32" x="163.330078"/>
       <use xlink:href="#DejaVuSans-37" x="226.953125"/>
       <use xlink:href="#DejaVuSans-20" x="290.576172"/>
       <use xlink:href="#DejaVuSans-30" x="322.363281"/>
       <use xlink:href="#DejaVuSans-30" x="385.986328"/>
      </g>
     </g>
    </g>
    <g id="xtick_27">
     <g id="line2d_40">
      <g>
       <use xlink:href="#m8abb87754f" x="631.713094" y="246.04" style="stroke: #000000; stroke-width: 0.8"/>
      </g>
     </g>
     <g id="text_34">
      <!-- 02-27 12 -->
      <g transform="translate(609.232625 260.638437) scale(0.1 -0.1)">
       <use xlink:href="#DejaVuSans-30"/>
       <use xlink:href="#DejaVuSans-32" x="63.623047"/>
       <use xlink:href="#DejaVuSans-2d" x="127.246094"/>
       <use xlink:href="#DejaVuSans-32" x="163.330078"/>
       <use xlink:href="#DejaVuSans-37" x="226.953125"/>
       <use xlink:href="#DejaVuSans-20" x="290.576172"/>
       <use xlink:href="#DejaVuSans-31" x="322.363281"/>
       <use xlink:href="#DejaVuSans-32" x="385.986328"/>
      </g>
     </g>
    </g>
    <g id="xtick_28">
     <g id="line2d_41">
      <g>
       <use xlink:href="#m8abb87754f" x="674.200531" y="246.04" style="stroke: #000000; stroke-width: 0.8"/>
      </g>
     </g>
     <g id="text_35">
      <!-- 02-28 00 -->
      <g transform="translate(651.720062 260.638437) scale(0.1 -0.1)">
       <use xlink:href="#DejaVuSans-30"/>
       <use xlink:href="#DejaVuSans-32" x="63.623047"/>
       <use xlink:href="#DejaVuSans-2d" x="127.246094"/>
       <use xlink:href="#DejaVuSans-32" x="163.330078"/>
       <use xlink:href="#DejaVuSans-38" x="226.953125"/>
       <use xlink:href="#DejaVuSans-20" x="290.576172"/>
       <use xlink:href="#DejaVuSans-30" x="322.363281"/>
       <use xlink:href="#DejaVuSans-30" x="385.986328"/>
      </g>
     </g>
    </g>
    <g id="text_36">
     <!-- time -->
     <g transform="translate(546.038906 274.316562) scale(0.1 -0.1)">
      <use xlink:href="#DejaVuSans-74"/>
      <use xlink:href="#DejaVuSans-69" x="39.208984"/>
      <use xlink:href="#DejaVuSans-6d" x="66.992188"/>
      <use xlink:href="#DejaVuSans-65" x="164.404297"/>
     </g>
    </g>
   </g>
   <g id="matplotlib.axis_8">
    <g id="ytick_11">
     <g id="line2d_42">
      <g>
       <use xlink:href="#m756535a2c2" x="405.47" y="241.783636" style="stroke: #000000; stroke-width: 0.8"/>
      </g>
     </g>
     <g id="text_37">
      <!-- 0 -->
      <g transform="translate(392.1075 245.582855) scale(0.1 -0.1)">
       <use xlink:href="#DejaVuSans-30"/>
      </g>
     </g>
    </g>
    <g id="ytick_12">
     <g id="line2d_43">
      <g>
       <use xlink:href="#m756535a2c2" x="405.47" y="196.954271" style="stroke: #000000; stroke-width: 0.8"/>
      </g>
     </g>
     <g id="text_38">
      <!-- 1 -->
      <g transform="translate(392.1075 200.75349) scale(0.1 -0.1)">
       <use xlink:href="#DejaVuSans-31"/>
      </g>
     </g>
    </g>
    <g id="text_39">
     <!-- depth (m) -->
     <g transform="translate(386.027812 224.134844) rotate(-90) scale(0.1 -0.1)">
      <use xlink:href="#DejaVuSans-64"/>
      <use xlink:href="#DejaVuSans-65" x="63.476562"/>
      <use xlink:href="#DejaVuSans-70" x="125"/>
      <use xlink:href="#DejaVuSans-74" x="188.476562"/>
      <use xlink:href="#DejaVuSans-68" x="227.685547"/>
      <use xlink:href="#DejaVuSans-20" x="291.064453"/>
      <use xlink:href="#DejaVuSans-28" x="322.851562"/>
      <use xlink:href="#DejaVuSans-6d" x="361.865234"/>
      <use xlink:href="#DejaVuSans-29" x="459.277344"/>
     </g>
    </g>
   </g>
   <g id="line2d_44">
    <path d="M 419.275909 241.783636 
L 423.938709 241.687192 
L 424.646833 241.402561 
L 425.396264 240.840585 
L 426.251914 239.888037 
L 426.878407 238.91137 
L 427.612102 237.273421 
L 429.150304 233.090128 
L 430.939301 228.548079 
L 431.67988 226.632875 
L 432.790258 223.273499 
L 435.86863 211.609229 
L 439.33352 193.585459 
L 442.592857 174.655454 
L 444.695592 164.835467 
L 445.778431 161.331439 
L 446.854386 158.700951 
L 447.999187 156.968862 
L 448.384721 156.723327 
L 449.229552 156.726622 
L 449.685899 157.124319 
L 450.349765 157.99943 
L 451.014615 159.23738 
L 451.810271 161.153981 
L 452.539048 163.296188 
L 454.276902 169.352344 
L 456.103272 177.178031 
L 459.361626 193.35238 
L 459.931075 211.006007 
L 460.688375 221.736455 
L 461.195863 225.328464 
L 461.97775 228.146951 
L 462.731116 229.768262 
L 463.488415 230.820349 
L 464.099172 231.508523 
L 464.714846 232.099253 
L 465.224302 232.471538 
L 465.806537 232.737605 
L 466.133061 232.918023 
L 467.373261 233.537338 
L 468.053847 233.736484 
L 468.546583 233.826313 
L 469.66778 234.078054 
L 469.95693 234.195556 
L 471.065341 234.554137 
L 471.983935 234.782687 
L 472.978259 235.084759 
L 475.378996 235.743958 
L 476.557236 235.955518 
L 477.342073 236.167106 
L 478.023642 236.369169 
L 479.11435 236.65974 
L 480.115558 236.837338 
L 482.806429 237.331361 
L 483.834193 237.541815 
L 486.669639 238.145098 
L 496.765323 239.849987 
L 501.987737 240.283087 
L 510.750771 240.673927 
L 523.939579 240.971558 
L 547.750247 241.218539 
L 592.362056 241.415605 
L 685.568871 241.572201 
L 695.394091 241.581425 
L 695.394091 241.581425 
" clip-path="url(#p0ebb233668)" style="fill: none; stroke: #1f77b4; stroke-width: 1.5; stroke-linecap: square"/>
   </g>
   <g id="patch_18">
    <path d="M 405.47 246.04 
L 405.47 152.4 
" style="fill: none; stroke: #000000; stroke-width: 0.8; stroke-linejoin: miter; stroke-linecap: square"/>
   </g>
   <g id="patch_19">
    <path d="M 709.2 246.04 
L 709.2 152.4 
" style="fill: none; stroke: #000000; stroke-width: 0.8; stroke-linejoin: miter; stroke-linecap: square"/>
   </g>
   <g id="patch_20">
    <path d="M 405.47 246.04 
L 709.2 246.04 
" style="fill: none; stroke: #000000; stroke-width: 0.8; stroke-linejoin: miter; stroke-linecap: square"/>
   </g>
   <g id="patch_21">
    <path d="M 405.47 152.4 
L 709.2 152.4 
" style="fill: none; stroke: #000000; stroke-width: 0.8; stroke-linejoin: miter; stroke-linecap: square"/>
   </g>
   <g id="text_40">
    <!-- ('P2', 'depthN') -->
    <g transform="translate(493.2829 175.8962) scale(0.1728 -0.1728)">
     <use xlink:href="#DejaVuSans-28"/>
     <use xlink:href="#DejaVuSans-27" x="39.013672"/>
     <use xlink:href="#DejaVuSans-50" x="66.503906"/>
     <use xlink:href="#DejaVuSans-32" x="126.806641"/>
     <use xlink:href="#DejaVuSans-27" x="190.429688"/>
     <use xlink:href="#DejaVuSans-2c" x="217.919922"/>
     <use xlink:href="#DejaVuSans-20" x="249.707031"/>
     <use xlink:href="#DejaVuSans-27" x="281.494141"/>
     <use xlink:href="#DejaVuSans-64" x="308.984375"/>
     <use xlink:href="#DejaVuSans-65" x="372.460938"/>
     <use xlink:href="#DejaVuSans-70" x="433.984375"/>
     <use xlink:href="#DejaVuSans-74" x="497.460938"/>
     <use xlink:href="#DejaVuSans-68" x="536.669922"/>
     <use xlink:href="#DejaVuSans-4e" x="600.048828"/>
     <use xlink:href="#DejaVuSans-27" x="674.853516"/>
     <use xlink:href="#DejaVuSans-29" x="702.34375"/>
    </g>
   </g>
   <g id="text_41">
    <!-- cost: 5.6585e+02 -->
    <g transform="translate(479.97055 203.9882) scale(0.1728 -0.1728)">
     <defs>
      <path id="DejaVuSans-3a" d="M 750 794 
L 1409 794 
L 1409 0 
L 750 0 
L 750 794 
z
M 750 3309 
L 1409 3309 
L 1409 2516 
L 750 2516 
L 750 3309 
z
" transform="scale(0.015625)"/>
      <path id="DejaVuSans-2b" d="M 2944 4013 
L 2944 2272 
L 4684 2272 
L 4684 1741 
L 2944 1741 
L 2944 0 
L 2419 0 
L 2419 1741 
L 678 1741 
L 678 2272 
L 2419 2272 
L 2419 4013 
L 2944 4013 
z
" transform="scale(0.015625)"/>
     </defs>
     <use xlink:href="#DejaVuSans-63"/>
     <use xlink:href="#DejaVuSans-6f" x="54.980469"/>
     <use xlink:href="#DejaVuSans-73" x="116.162109"/>
     <use xlink:href="#DejaVuSans-74" x="168.261719"/>
     <use xlink:href="#DejaVuSans-3a" x="207.470703"/>
     <use xlink:href="#DejaVuSans-20" x="241.162109"/>
     <use xlink:href="#DejaVuSans-35" x="272.949219"/>
     <use xlink:href="#DejaVuSans-2e" x="336.572266"/>
     <use xlink:href="#DejaVuSans-36" x="368.359375"/>
     <use xlink:href="#DejaVuSans-35" x="431.982422"/>
     <use xlink:href="#DejaVuSans-38" x="495.605469"/>
     <use xlink:href="#DejaVuSans-35" x="559.228516"/>
     <use xlink:href="#DejaVuSans-65" x="622.851562"/>
     <use xlink:href="#DejaVuSans-2b" x="684.375"/>
     <use xlink:href="#DejaVuSans-30" x="768.164062"/>
     <use xlink:href="#DejaVuSans-32" x="831.787109"/>
    </g>
   </g>
  </g>
 </g>
 <defs>
  <clipPath id="pf30e1647cf">
   <rect x="47.72" y="26.88" width="303.73" height="93.64"/>
  </clipPath>
  <clipPath id="p59a806afdc">
   <rect x="405.47" y="26.88" width="303.73" height="93.64"/>
  </clipPath>
  <clipPath id="p4b1a912028">
   <rect x="47.72" y="152.4" width="303.73" height="93.64"/>
  </clipPath>
  <clipPath id="p0ebb233668">
   <rect x="405.47" y="152.4" width="303.73" height="93.64"/>
  </clipPath>
 </defs>
</svg>
