<?xml version="1.0" encoding="utf-8" standalone="no"?>
<!DOCTYPE svg PUBLIC "-//W3C//DTD SVG 1.1//EN"
  "http://www.w3.org/Graphics/SVG/1.1/DTD/svg11.dtd">
<svg xmlns:xlink="http://www.w3.org/1999/xlink" width="720pt" height="288pt" viewBox="0 0 720 288" xmlns="http://www.w3.org/2000/svg" version="1.1">
 <metadata>
  <rdf:RDF xmlns:dc="http://purl.org/dc/elements/1.1/" xmlns:cc="http://creativecommons.org/ns#" xmlns:rdf="http://www.w3.org/1999/02/22-rdf-syntax-ns#">
   <cc:Work>
    <dc:type rdf:resource="http://purl.org/dc/dcmitype/StillImage"/>
    <dc:date>2025-01-28T15:50:42.882014</dc:date>
    <dc:format>image/svg+xml</dc:format>
    <dc:creator>
     <cc:Agent>
      <dc:title>Matplotlib v3.9.4, https://matplotlib.org/</dc:title>
     </cc:Agent>
    </dc:creator>
   </cc:Work>
  </rdf:RDF>
 </metadata>
 <defs>
  <style type="text/css">*{stroke-linejoin: round; stroke-linecap: butt}</style>
 </defs>
 <g id="figure_1">
  <g id="patch_1">
   <path d="M 0 288 
L 720 288 
L 720 0 
L 0 0 
z
" style="fill: #ffffff"/>
  </g>
  <g id="axes_1">
   <g id="patch_2">
    <path d="M 54.02 120.52 
L 354.6 120.52 
L 354.6 26.88 
L 54.02 26.88 
z
" style="fill: #ffffff"/>
   </g>
   <g id="matplotlib.axis_1">
    <g id="xtick_1">
     <g id="line2d_1">
      <defs>
       <path id="m1e3d0b1b68" d="M 0 0 
L 0 3.5 
" style="stroke: #000000; stroke-width: 0.8"/>
      </defs>
      <g>
       <use xlink:href="#m1e3d0b1b68" x="67.682727" y="120.52" style="stroke: #000000; stroke-width: 0.8"/>
      </g>
     </g>
    </g>
    <g id="xtick_2">
     <g id="line2d_2">
      <g>
       <use xlink:href="#m1e3d0b1b68" x="109.724433" y="120.52" style="stroke: #000000; stroke-width: 0.8"/>
      </g>
     </g>
    </g>
    <g id="xtick_3">
     <g id="line2d_3">
      <g>
       <use xlink:href="#m1e3d0b1b68" x="151.766139" y="120.52" style="stroke: #000000; stroke-width: 0.8"/>
      </g>
     </g>
    </g>
    <g id="xtick_4">
     <g id="line2d_4">
      <g>
       <use xlink:href="#m1e3d0b1b68" x="193.807846" y="120.52" style="stroke: #000000; stroke-width: 0.8"/>
      </g>
     </g>
    </g>
    <g id="xtick_5">
     <g id="line2d_5">
      <g>
       <use xlink:href="#m1e3d0b1b68" x="235.849552" y="120.52" style="stroke: #000000; stroke-width: 0.8"/>
      </g>
     </g>
    </g>
    <g id="xtick_6">
     <g id="line2d_6">
      <g>
       <use xlink:href="#m1e3d0b1b68" x="277.891258" y="120.52" style="stroke: #000000; stroke-width: 0.8"/>
      </g>
     </g>
    </g>
    <g id="xtick_7">
     <g id="line2d_7">
      <g>
       <use xlink:href="#m1e3d0b1b68" x="319.932964" y="120.52" style="stroke: #000000; stroke-width: 0.8"/>
      </g>
     </g>
    </g>
    <g id="text_1">
     <!-- time -->
     <g transform="translate(193.013906 139.118437) scale(0.1 -0.1)">
      <defs>
       <path id="DejaVuSans-74" d="M 1172 4494 
L 1172 3500 
L 2356 3500 
L 2356 3053 
L 1172 3053 
L 1172 1153 
Q 1172 725 1289 603 
Q 1406 481 1766 481 
L 2356 481 
L 2356 0 
L 1766 0 
Q 1100 0 847 248 
Q 594 497 594 1153 
L 594 3053 
L 172 3053 
L 172 3500 
L 594 3500 
L 594 4494 
L 1172 4494 
z
" transform="scale(0.015625)"/>
       <path id="DejaVuSans-69" d="M 603 3500 
L 1178 3500 
L 1178 0 
L 603 0 
L 603 3500 
z
M 603 4863 
L 1178 4863 
L 1178 4134 
L 603 4134 
L 603 4863 
z
" transform="scale(0.015625)"/>
       <path id="DejaVuSans-6d" d="M 3328 2828 
Q 3544 3216 3844 3400 
Q 4144 3584 4550 3584 
Q 5097 3584 5394 3201 
Q 5691 2819 5691 2113 
L 5691 0 
L 5113 0 
L 5113 2094 
Q 5113 2597 4934 2840 
Q 4756 3084 4391 3084 
Q 3944 3084 3684 2787 
Q 3425 2491 3425 1978 
L 3425 0 
L 2847 0 
L 2847 2094 
Q 2847 2600 2669 2842 
Q 2491 3084 2119 3084 
Q 1678 3084 1418 2786 
Q 1159 2488 1159 1978 
L 1159 0 
L 581 0 
L 581 3500 
L 1159 3500 
L 1159 2956 
Q 1356 3278 1631 3431 
Q 1906 3584 2284 3584 
Q 2666 3584 2933 3390 
Q 3200 3197 3328 2828 
z
" transform="scale(0.015625)"/>
       <path id="DejaVuSans-65" d="M 3597 1894 
L 3597 1613 
L 953 1613 
Q 991 1019 1311 708 
Q 1631 397 2203 397 
Q 2534 397 2845 478 
Q 3156 559 3463 722 
L 3463 178 
Q 3153 47 2828 -22 
Q 2503 -91 2169 -91 
Q 1331 -91 842 396 
Q 353 884 353 1716 
Q 353 2575 817 3079 
Q 1281 3584 2069 3584 
Q 2775 3584 3186 3129 
Q 3597 2675 3597 1894 
z
M 3022 2063 
Q 3016 2534 2758 2815 
Q 2500 3097 2075 3097 
Q 1594 3097 1305 2825 
Q 1016 2553 972 2059 
L 3022 2063 
z
" transform="scale(0.015625)"/>
      </defs>
      <use xlink:href="#DejaVuSans-74"/>
      <use xlink:href="#DejaVuSans-69" x="39.208984"/>
      <use xlink:href="#DejaVuSans-6d" x="66.992188"/>
      <use xlink:href="#DejaVuSans-65" x="164.404297"/>
     </g>
    </g>
   </g>
   <g id="matplotlib.axis_2">
    <g id="ytick_1">
     <g id="line2d_8">
      <defs>
       <path id="md4e77a18ea" d="M 0 0 
L -3.5 0 
" style="stroke: #000000; stroke-width: 0.8"/>
      </defs>
      <g>
       <use xlink:href="#md4e77a18ea" x="54.02" y="116.263636" style="stroke: #000000; stroke-width: 0.8"/>
      </g>
     </g>
     <g id="text_2">
      <!-- 0.0 -->
      <g transform="translate(31.116875 120.062855) scale(0.1 -0.1)">
       <defs>
        <path id="DejaVuSans-30" d="M 2034 4250 
Q 1547 4250 1301 3770 
Q 1056 3291 1056 2328 
Q 1056 1369 1301 889 
Q 1547 409 2034 409 
Q 2525 409 2770 889 
Q 3016 1369 3016 2328 
Q 3016 3291 2770 3770 
Q 2525 4250 2034 4250 
z
M 2034 4750 
Q 2819 4750 3233 4129 
Q 3647 3509 3647 2328 
Q 3647 1150 3233 529 
Q 2819 -91 2034 -91 
Q 1250 -91 836 529 
Q 422 1150 422 2328 
Q 422 3509 836 4129 
Q 1250 4750 2034 4750 
z
" transform="scale(0.015625)"/>
        <path id="DejaVuSans-2e" d="M 684 794 
L 1344 794 
L 1344 0 
L 684 0 
L 684 794 
z
" transform="scale(0.015625)"/>
       </defs>
       <use xlink:href="#DejaVuSans-30"/>
       <use xlink:href="#DejaVuSans-2e" x="63.623047"/>
       <use xlink:href="#DejaVuSans-30" x="95.410156"/>
      </g>
     </g>
    </g>
    <g id="ytick_2">
     <g id="line2d_9">
      <g>
       <use xlink:href="#md4e77a18ea" x="54.02" y="78.638254" style="stroke: #000000; stroke-width: 0.8"/>
      </g>
     </g>
     <g id="text_3">
      <!-- 0.2 -->
      <g transform="translate(31.116875 82.437473) scale(0.1 -0.1)">
       <defs>
        <path id="DejaVuSans-32" d="M 1228 531 
L 3431 531 
L 3431 0 
L 469 0 
L 469 531 
Q 828 903 1448 1529 
Q 2069 2156 2228 2338 
Q 2531 2678 2651 2914 
Q 2772 3150 2772 3378 
Q 2772 3750 2511 3984 
Q 2250 4219 1831 4219 
Q 1534 4219 1204 4116 
Q 875 4013 500 3803 
L 500 4441 
Q 881 4594 1212 4672 
Q 1544 4750 1819 4750 
Q 2544 4750 2975 4387 
Q 3406 4025 3406 3419 
Q 3406 3131 3298 2873 
Q 3191 2616 2906 2266 
Q 2828 2175 2409 1742 
Q 1991 1309 1228 531 
z
" transform="scale(0.015625)"/>
       </defs>
       <use xlink:href="#DejaVuSans-30"/>
       <use xlink:href="#DejaVuSans-2e" x="63.623047"/>
       <use xlink:href="#DejaVuSans-32" x="95.410156"/>
      </g>
     </g>
    </g>
    <g id="ytick_3">
     <g id="line2d_10">
      <g>
       <use xlink:href="#md4e77a18ea" x="54.02" y="41.012872" style="stroke: #000000; stroke-width: 0.8"/>
      </g>
     </g>
     <g id="text_4">
      <!-- 0.4 -->
      <g transform="translate(31.116875 44.81209) scale(0.1 -0.1)">
       <defs>
        <path id="DejaVuSans-34" d="M 2419 4116 
L 825 1625 
L 2419 1625 
L 2419 4116 
z
M 2253 4666 
L 3047 4666 
L 3047 1625 
L 3713 1625 
L 3713 1100 
L 3047 1100 
L 3047 0 
L 2419 0 
L 2419 1100 
L 313 1100 
L 313 1709 
L 2253 4666 
z
" transform="scale(0.015625)"/>
       </defs>
       <use xlink:href="#DejaVuSans-30"/>
       <use xlink:href="#DejaVuSans-2e" x="63.623047"/>
       <use xlink:href="#DejaVuSans-34" x="95.410156"/>
      </g>
     </g>
    </g>
    <g id="text_5">
     <!-- flow (cms) -->
     <g transform="translate(25.037188 99.7125) rotate(-90) scale(0.1 -0.1)">
      <defs>
       <path id="DejaVuSans-66" d="M 2375 4863 
L 2375 4384 
L 1825 4384 
Q 1516 4384 1395 4259 
Q 1275 4134 1275 3809 
L 1275 3500 
L 2222 3500 
L 2222 3053 
L 1275 3053 
L 1275 0 
L 697 0 
L 697 3053 
L 147 3053 
L 147 3500 
L 697 3500 
L 697 3744 
Q 697 4328 969 4595 
Q 1241 4863 1831 4863 
L 2375 4863 
z
" transform="scale(0.015625)"/>
       <path id="DejaVuSans-6c" d="M 603 4863 
L 1178 4863 
L 1178 0 
L 603 0 
L 603 4863 
z
" transform="scale(0.015625)"/>
       <path id="DejaVuSans-6f" d="M 1959 3097 
Q 1497 3097 1228 2736 
Q 959 2375 959 1747 
Q 959 1119 1226 758 
Q 1494 397 1959 397 
Q 2419 397 2687 759 
Q 2956 1122 2956 1747 
Q 2956 2369 2687 2733 
Q 2419 3097 1959 3097 
z
M 1959 3584 
Q 2709 3584 3137 3096 
Q 3566 2609 3566 1747 
Q 3566 888 3137 398 
Q 2709 -91 1959 -91 
Q 1206 -91 779 398 
Q 353 888 353 1747 
Q 353 2609 779 3096 
Q 1206 3584 1959 3584 
z
" transform="scale(0.015625)"/>
       <path id="DejaVuSans-77" d="M 269 3500 
L 844 3500 
L 1563 769 
L 2278 3500 
L 2956 3500 
L 3675 769 
L 4391 3500 
L 4966 3500 
L 4050 0 
L 3372 0 
L 2619 2869 
L 1863 0 
L 1184 0 
L 269 3500 
z
" transform="scale(0.015625)"/>
       <path id="DejaVuSans-20" transform="scale(0.015625)"/>
       <path id="DejaVuSans-28" d="M 1984 4856 
Q 1566 4138 1362 3434 
Q 1159 2731 1159 2009 
Q 1159 1288 1364 580 
Q 1569 -128 1984 -844 
L 1484 -844 
Q 1016 -109 783 600 
Q 550 1309 550 2009 
Q 550 2706 781 3412 
Q 1013 4119 1484 4856 
L 1984 4856 
z
" transform="scale(0.015625)"/>
       <path id="DejaVuSans-63" d="M 3122 3366 
L 3122 2828 
Q 2878 2963 2633 3030 
Q 2388 3097 2138 3097 
Q 1578 3097 1268 2742 
Q 959 2388 959 1747 
Q 959 1106 1268 751 
Q 1578 397 2138 397 
Q 2388 397 2633 464 
Q 2878 531 3122 666 
L 3122 134 
Q 2881 22 2623 -34 
Q 2366 -91 2075 -91 
Q 1284 -91 818 406 
Q 353 903 353 1747 
Q 353 2603 823 3093 
Q 1294 3584 2113 3584 
Q 2378 3584 2631 3529 
Q 2884 3475 3122 3366 
z
" transform="scale(0.015625)"/>
       <path id="DejaVuSans-73" d="M 2834 3397 
L 2834 2853 
Q 2591 2978 2328 3040 
Q 2066 3103 1784 3103 
Q 1356 3103 1142 2972 
Q 928 2841 928 2578 
Q 928 2378 1081 2264 
Q 1234 2150 1697 2047 
L 1894 2003 
Q 2506 1872 2764 1633 
Q 3022 1394 3022 966 
Q 3022 478 2636 193 
Q 2250 -91 1575 -91 
Q 1294 -91 989 -36 
Q 684 19 347 128 
L 347 722 
Q 666 556 975 473 
Q 1284 391 1588 391 
Q 1994 391 2212 530 
Q 2431 669 2431 922 
Q 2431 1156 2273 1281 
Q 2116 1406 1581 1522 
L 1381 1569 
Q 847 1681 609 1914 
Q 372 2147 372 2553 
Q 372 3047 722 3315 
Q 1072 3584 1716 3584 
Q 2034 3584 2315 3537 
Q 2597 3491 2834 3397 
z
" transform="scale(0.015625)"/>
       <path id="DejaVuSans-29" d="M 513 4856 
L 1013 4856 
Q 1481 4119 1714 3412 
Q 1947 2706 1947 2009 
Q 1947 1309 1714 600 
Q 1481 -109 1013 -844 
L 513 -844 
Q 928 -128 1133 580 
Q 1338 1288 1338 2009 
Q 1338 2731 1133 3434 
Q 928 4138 513 4856 
z
" transform="scale(0.015625)"/>
      </defs>
      <use xlink:href="#DejaVuSans-66"/>
      <use xlink:href="#DejaVuSans-6c" x="35.205078"/>
      <use xlink:href="#DejaVuSans-6f" x="62.988281"/>
      <use xlink:href="#DejaVuSans-77" x="124.169922"/>
      <use xlink:href="#DejaVuSans-20" x="205.957031"/>
      <use xlink:href="#DejaVuSans-28" x="237.744141"/>
      <use xlink:href="#DejaVuSans-63" x="276.757812"/>
      <use xlink:href="#DejaVuSans-6d" x="331.738281"/>
      <use xlink:href="#DejaVuSans-73" x="429.150391"/>
      <use xlink:href="#DejaVuSans-29" x="481.25"/>
     </g>
    </g>
   </g>
   <g id="line2d_11">
    <path d="M 67.682727 116.263636 
L 72.29661 116.159009 
L 72.909718 115.867118 
L 73.172479 115.169869 
L 73.260066 115.160608 
L 73.589003 114.329941 
L 73.81089 113.814722 
L 73.880959 114.087688 
L 74.085329 113.103979 
L 74.659509 111.576709 
L 74.813273 112.747897 
L 74.873611 112.486042 
L 74.952439 112.136123 
L 75.029321 110.604307 
L 75.103283 111.129955 
L 75.247315 110.372853 
L 75.317384 110.688492 
L 75.457523 110.012373 
L 75.525646 109.579918 
L 75.864316 104.239633 
L 75.937305 108.349843 
L 75.998616 108.05205 
L 76.397623 104.392689 
L 76.467692 101.587201 
L 76.534842 103.509819 
L 76.602965 103.449972 
L 76.737265 102.407171 
L 76.865726 93.974906 
L 76.986401 95.045167 
L 77.109023 102.531179 
L 77.17228 101.70977 
L 77.299768 100.430606 
L 77.422389 90.899042 
L 77.491486 91.859775 
L 77.628705 92.683365 
L 77.698774 100.420485 
L 77.759112 100.162712 
L 77.879787 98.704796 
L 78.008248 87.553238 
L 78.140602 89.376121 
L 78.205805 89.820147 
L 78.272955 95.889962 
L 78.341078 95.238921 
L 78.476351 93.775738 
L 78.543501 94.048593 
L 78.610651 95.88523 
L 78.677801 94.850842 
L 79.069996 90.030485 
L 79.194564 75.501492 
L 79.253928 76.901578 
L 79.323025 78.232722 
L 79.452459 92.114818 
L 79.641257 88.397838 
L 79.702568 81.456588 
L 79.763879 87.640519 
L 79.825189 86.586332 
L 79.945865 84.812135 
L 80.140502 78.998017 
L 80.208625 78.759296 
L 80.275775 82.924993 
L 80.343898 81.994063 
L 80.539509 79.408213 
L 80.607632 57.289796 
L 80.672836 61.044347 
L 80.801297 66.385641 
L 80.8665 76.598412 
L 80.93365 73.217781 
L 81.066977 73.262943 
L 81.201277 84.802609 
L 81.471823 77.993964 
L 81.538 78.510897 
L 81.671326 76.323019 
L 81.738476 70.629823 
L 81.80368 74.700113 
L 81.869857 74.008936 
L 82.327255 69.735342 
L 82.391485 65.116889 
L 82.455716 65.677527 
L 82.519946 66.042385 
L 82.583203 59.572189 
L 82.711664 71.412553 
L 82.843044 70.081356 
L 82.908248 67.097277 
L 82.972478 69.316736 
L 83.036709 68.873838 
L 83.2294 67.195412 
L 83.29363 68.03565 
L 83.357861 67.597984 
L 83.741297 65.862336 
L 83.864891 40.668992 
L 83.924256 45.767078 
L 84.044931 57.897168 
L 84.107215 75.904036 
L 84.171445 75.146516 
L 84.301853 71.575332 
L 84.367056 60.062406 
L 84.430313 68.179595 
L 84.874087 62.746242 
L 84.936371 64.295909 
L 84.998655 31.136364 
L 85.058019 40.280585 
L 85.177721 48.327048 
L 85.301316 73.219526 
L 85.684752 63.716841 
L 85.811267 62.008905 
L 85.873551 64.189271 
L 85.936808 63.072348 
L 86.434107 57.765586 
L 86.495418 53.397699 
L 86.556728 53.966036 
L 86.618039 54.388784 
L 86.67935 58.029468 
L 86.739688 41.458776 
L 86.800025 43.815473 
L 86.919727 48.17642 
L 87.042349 62.85113 
L 87.229201 59.567641 
L 87.291485 62.313908 
L 87.353769 60.362735 
L 87.845229 54.063571 
L 87.90654 57.983147 
L 87.96785 56.71091 
L 88.091445 55.441698 
L 88.152756 50.304677 
L 88.213094 53.4023 
L 88.699688 51.360527 
L 88.760998 48.000313 
L 88.820363 50.788978 
L 89.002349 51.095643 
L 89.062687 32.184252 
L 89.128863 36.677338 
L 89.255378 42.909734 
L 89.37508 61.402319 
L 89.623243 58.146992 
L 89.685527 60.166098 
L 89.747811 59.251646 
L 89.871405 57.856493 
L 89.993054 36.909373 
L 90.052418 40.580988 
L 90.119568 43.937509 
L 90.240244 67.037822 
L 90.302528 65.015886 
L 90.428069 62.282147 
L 90.490353 51.311203 
L 90.551664 61.177346 
L 90.612974 60.337722 
L 90.737542 59.053098 
L 90.799827 53.72202 
L 90.861137 54.736969 
L 91.349678 56.169165 
L 91.410988 58.677764 
L 91.472299 57.972121 
L 91.656232 57.030872 
L 91.717542 54.212587 
L 91.778853 54.582668 
L 91.900502 55.211928 
L 92.023123 57.662069 
L 92.084434 57.480875 
L 92.207056 57.22309 
L 92.268367 56.764879 
L 92.329677 57.555166 
L 92.390988 57.54432 
L 92.453272 57.60527 
L 92.514583 47.608411 
L 92.575894 53.3829 
L 92.880502 62.957318 
L 93.004097 62.048189 
L 93.066381 61.937853 
L 93.127691 59.995631 
L 93.251286 62.050595 
L 93.375854 62.217334 
L 93.437165 58.131449 
L 93.561733 63.049359 
L 93.624017 63.155085 
L 93.685328 61.839157 
L 93.747612 54.508266 
L 93.808923 55.749879 
L 93.931544 58.696836 
L 93.992855 67.565347 
L 94.055139 62.377191 
L 94.242964 63.749267 
L 94.305248 61.853022 
L 94.43079 66.176423 
L 94.494047 66.22051 
L 94.556331 67.780926 
L 94.619588 65.305493 
L 94.681872 65.441609 
L 94.80644 65.971144 
L 94.931981 71.495771 
L 94.996212 70.921041 
L 95.123699 70.035722 
L 95.186956 70.82996 
L 95.250214 70.656434 
L 95.377701 70.001538 
L 95.441932 68.530044 
L 95.505189 68.757746 
L 95.693987 68.82373 
L 95.757244 66.804202 
L 95.883759 69.199861 
L 96.010273 69.623449 
L 96.135814 68.154713 
L 96.324613 70.001785 
L 96.38787 72.583618 
L 96.4521 72.418652 
L 96.579588 72.980401 
L 96.643818 70.627327 
L 96.772279 74.396118 
L 96.90074 75.008003 
L 96.96497 76.364846 
L 97.029201 76.359695 
L 97.158635 76.653119 
L 97.223838 71.777792 
L 97.353272 76.604375 
L 97.482706 77.307008 
L 97.54791 74.316501 
L 97.61214 75.560574 
L 97.741574 76.875081 
L 97.806778 80.448881 
L 97.871981 80.394532 
L 98.003361 80.57174 
L 98.069538 79.656543 
L 98.199945 81.157405 
L 98.331326 81.452672 
L 98.396529 80.564279 
L 98.461733 75.142507 
L 98.525963 76.528785 
L 98.591167 77.700482 
L 98.655397 73.893231 
L 98.720601 86.536665 
L 98.787751 85.973503 
L 98.922051 85.473956 
L 98.988227 86.17127 
L 99.054404 83.011688 
L 99.120581 83.305066 
L 99.186758 83.575445 
L 99.252934 78.320737 
L 99.319111 86.646506 
L 99.386261 86.542049 
L 99.453411 86.439906 
L 99.520561 86.002497 
L 99.587711 86.761527 
L 99.653888 86.485624 
L 99.788188 86.565701 
L 99.854364 85.849478 
L 99.920541 76.314852 
L 99.985745 78.411082 
L 100.050948 80.163962 
L 100.184275 92.055354 
L 100.523917 89.609664 
L 100.65919 89.486386 
L 100.727314 91.57148 
L 100.795437 89.625211 
L 100.86356 89.634803 
L 100.931683 89.673569 
L 100.999806 89.284643 
L 101.066956 77.495983 
L 101.13216 80.092498 
L 101.26354 83.846768 
L 101.390054 95.932715 
L 101.508783 94.911822 
L 101.636271 82.146273 
L 101.703421 83.319776 
L 101.835774 86.323086 
L 101.962289 95.646887 
L 102.021653 95.2712 
L 102.140382 94.627949 
L 102.199747 96.203701 
L 102.259111 95.576848 
L 102.438178 94.617681 
L 102.497542 86.115229 
L 102.565665 86.206926 
L 102.699965 88.643773 
L 102.826479 96.389786 
L 103.006519 95.652051 
L 103.065884 88.139882 
L 103.193371 94.763071 
L 103.252736 94.74376 
L 103.3121 93.31996 
L 103.380223 86.324582 
L 103.448346 88.150216 
L 103.583619 90.532324 
L 103.652716 98.730412 
L 103.71208 95.932547 
L 103.951484 95.479917 
L 104.010849 90.45574 
L 104.078972 91.467819 
L 104.138336 92.209923 
L 104.207433 100.499784 
L 104.26777 100.134783 
L 104.45073 99.018595 
L 104.570432 90.908187 
L 104.629796 91.849719 
L 104.757284 93.457647 
L 104.816648 101.726824 
L 104.877959 99.741264 
L 105.059945 98.972878 
L 105.120283 97.712708 
L 105.181593 99.141372 
L 105.241931 98.974731 
L 105.303242 98.832053 
L 105.36358 98.152881 
L 105.423917 100.751593 
L 105.485228 100.110387 
L 105.60785 99.699245 
L 105.729498 90.102788 
L 105.788863 91.728914 
L 105.917323 93.885192 
L 105.976688 99.713659 
L 106.037025 94.908397 
L 106.218038 96.539484 
L 106.278376 103.599789 
L 106.34066 100.134039 
L 106.463282 99.910587 
L 106.648187 97.776565 
L 106.768863 98.267132 
L 106.8292 99.908847 
L 106.890511 97.463008 
L 106.950849 97.839082 
L 107.07347 98.436457 
L 107.197065 103.912697 
L 107.38489 102.849375 
L 107.447174 100.601907 
L 107.509458 101.652932 
L 107.63208 101.44224 
L 107.694364 101.728291 
L 107.755675 101.607773 
L 107.878296 101.090686 
L 108.001891 101.107496 
L 108.063202 94.870726 
L 108.12354 95.876894 
L 108.245188 97.449029 
L 108.369756 104.480329 
L 108.43204 104.061459 
L 108.558555 103.58326 
L 108.683123 99.670077 
L 108.744433 99.95492 
L 108.805744 100.220009 
L 108.989677 103.679382 
L 109.051961 103.523943 
L 109.114245 103.390747 
L 109.176529 102.793581 
L 109.23784 96.878461 
L 109.29915 97.735095 
L 109.422745 99.101285 
L 109.548286 105.29982 
L 109.675774 104.803318 
L 109.802288 103.081494 
L 109.864572 104.273637 
L 109.928803 104.150342 
L 109.99206 104.040693 
L 110.119548 104.207151 
L 110.309319 103.971653 
L 110.372576 103.00726 
L 110.43486 98.201429 
L 110.497144 99.023275 
L 110.559428 99.729613 
L 110.685943 106.489892 
L 110.750173 106.050982 
L 110.878634 105.649305 
L 111.006121 99.57431 
L 111.067432 100.244781 
L 111.251365 102.584574 
L 111.315595 106.918251 
L 111.379826 106.687334 
L 111.446002 106.466135 
L 111.576409 104.554299 
L 111.834304 104.65899 
L 111.898535 100.809888 
L 111.962765 101.416691 
L 112.026022 101.941283 
L 112.090253 103.513915 
L 112.155456 102.2365 
L 112.219686 102.879457 
L 112.348147 103.498607 
L 112.412378 107.471575 
L 112.478554 106.082001 
L 112.611881 105.924305 
L 112.678058 105.339012 
L 112.811385 105.902545 
L 112.942765 105.849577 
L 113.075118 107.357086 
L 113.144215 107.202666 
L 113.213311 107.064588 
L 113.282407 103.199284 
L 113.349557 106.914081 
L 113.41768 106.840948 
L 113.485804 106.762874 
L 113.621077 102.07628 
L 113.687253 102.697105 
L 113.819607 103.700047 
L 113.955853 108.346902 
L 114.023976 108.172501 
L 114.291603 107.782986 
L 114.361672 107.67682 
L 114.49208 106.271545 
L 114.551444 106.401308 
L 114.671146 106.50592 
L 114.790848 103.133608 
L 114.968942 104.526726 
L 115.029279 106.979073 
L 115.09059 104.878868 
L 115.150928 105.225331 
L 115.33486 106.446176 
L 115.398117 108.086333 
L 115.461375 108.03948 
L 115.524632 107.987649 
L 115.588862 108.072948 
L 115.653092 105.42596 
L 115.71635 105.919238 
L 115.841891 106.368477 
L 115.905148 108.790974 
L 115.969378 107.208022 
L 116.097839 107.383115 
L 116.29345 109.923389 
L 116.3606 109.770539 
L 116.42775 109.619656 
L 116.561077 106.079043 
L 116.62628 106.39279 
L 116.755714 106.872712 
L 116.821891 109.222817 
L 116.889041 109.144297 
L 117.024314 109.013675 
L 117.092437 107.904599 
L 117.16056 109.30198 
L 117.228683 109.25071 
L 117.36493 109.002402 
L 117.433053 106.439633 
L 117.499229 106.733158 
L 117.565406 107.015159 
L 117.699706 110.121709 
L 117.838872 109.917103 
L 118.189219 109.575571 
L 118.327412 106.936316 
L 118.395535 107.228409 
L 118.462685 107.514458 
L 118.601851 110.78923 
L 118.745883 110.5652 
L 118.888941 107.289775 
L 118.957065 107.588368 
L 119.026161 107.868168 
L 119.095257 109.343837 
L 119.164353 108.239272 
L 119.234423 108.453668 
L 119.304493 108.635424 
L 119.374562 109.55048 
L 119.446578 108.812494 
L 119.517621 108.908198 
L 119.945823 109.573727 
L 120.017839 111.342428 
L 120.077203 111.216234 
L 120.196906 111.071036 
L 120.25627 110.498985 
L 120.374999 111.682818 
L 120.435337 111.614028 
L 120.496647 111.526055 
L 120.556985 109.995581 
L 120.616349 111.04465 
L 120.796389 110.893299 
L 120.856727 108.929081 
L 120.930689 111.715697 
L 120.990054 111.461995 
L 121.111702 111.354117 
L 121.173013 108.287322 
L 121.246002 108.781501 
L 121.463996 110.03385 
L 121.524334 111.841188 
L 121.585644 111.750894 
L 121.709239 111.639577 
L 121.77055 111.359111 
L 121.831861 111.776126 
L 121.894145 111.751922 
L 121.956429 111.70585 
L 122.018713 109.003561 
L 122.07905 109.014206 
L 122.316508 110.377164 
L 122.375873 112.454299 
L 122.438157 112.314315 
L 122.565644 112.196146 
L 122.628901 110.225123 
L 122.690212 111.787592 
L 122.75347 111.762658 
L 122.816727 111.74161 
L 122.879011 111.114361 
L 122.941295 112.070283 
L 123.004552 111.814628 
L 123.130093 111.795835 
L 123.19335 110.636352 
L 123.256608 112.147707 
L 123.319865 112.078347 
L 123.447352 112.03406 
L 123.572894 109.753006 
L 123.694542 110.202244 
L 123.880421 112.443608 
L 124.009855 112.398881 
L 124.075058 112.062241 
L 124.139289 110.319839 
L 124.202546 110.603605 
L 124.57917 111.361416 
L 124.642427 111.458511 
L 124.706657 112.755667 
L 124.772834 112.63212 
L 124.905187 112.594475 
L 125.037541 111.53448 
L 125.231205 111.793254 
L 125.296409 113.29488 
L 125.362586 113.143852 
L 125.498832 113.068288 
L 125.633132 111.737051 
L 125.764512 111.912675 
L 125.895892 113.124048 
L 126.033112 113.075603 
L 126.101235 113.139257 
L 126.170331 111.72089 
L 126.237481 111.990508 
L 126.369835 112.171782 
L 126.505108 113.716648 
L 126.64622 113.633339 
L 126.786359 112.627473 
L 126.854482 112.667475 
L 126.990729 112.662375 
L 127.059825 112.112365 
L 127.126975 112.305373 
L 127.194125 112.401363 
L 127.40044 113.801635 
L 127.544472 113.744486 
L 127.616488 113.225433 
L 127.756627 113.583227 
L 127.826697 113.570973 
L 127.964889 112.463945 
L 128.523499 113.098749 
L 128.736627 113.355834 
L 128.881632 113.684332 
L 129.028583 113.592198 
L 129.101572 113.344126 
L 129.174562 113.392948 
L 129.319567 113.48545 
L 129.392556 114.400431 
L 129.467491 114.312119 
L 129.620282 114.346109 
L 129.69619 113.349334 
L 129.770152 113.466612 
L 130.139964 113.711053 
L 130.290808 114.431729 
L 130.446518 114.408855 
L 130.524373 114.289606 
L 130.680083 114.386671 
L 130.739447 114.38085 
L 130.817302 114.006734 
L 130.973012 114.453687 
L 131.091741 114.396775 
L 131.169596 113.600577 
L 131.245505 113.729689 
L 131.321414 113.802641 
L 131.456687 114.781764 
L 131.516051 114.723593 
L 131.637699 114.705472 
L 131.758375 113.78506 
L 131.835257 113.898439 
L 131.912138 113.968842 
L 132.129159 114.705502 
L 132.250808 114.774086 
L 132.311145 113.948834 
L 132.371483 114.089105 
L 133.401115 114.639133 
L 133.4634 115.125352 
L 133.52763 115.05355 
L 133.720321 115.156813 
L 133.916905 115.169593 
L 134.047312 114.568391 
L 134.173826 114.674362 
L 134.300341 114.736496 
L 134.364571 115.325415 
L 134.429775 115.287636 
L 134.832675 115.248615 
L 134.899824 114.836594 
L 134.966001 115.375134 
L 135.033151 115.324187 
L 135.101274 115.325374 
L 135.169397 114.982696 
L 135.236547 115.18948 
L 135.502228 115.192138 
L 135.705624 115.294894 
L 135.77472 115.073102 
L 135.842843 115.406772 
L 135.912913 115.37482 
L 135.982009 115.380582 
L 136.121175 114.909868 
L 136.321652 115.094754 
L 136.528941 115.465749 
L 136.8861 115.463187 
L 136.95909 115.122642 
L 137.029159 115.15824 
L 137.449576 115.321359 
L 137.591661 115.590486 
L 137.813548 115.51992 
L 137.9605 115.422867 
L 138.325445 115.522452 
L 138.555117 115.805739 
L 138.633945 115.807261 
L 138.712774 115.536133 
L 138.789655 115.577156 
L 138.943419 115.611511 
L 139.098156 115.80957 
L 139.254839 115.778218 
L 139.411522 115.673113 
L 139.810529 115.746688 
L 139.973052 115.905192 
L 140.394442 115.952669 
L 140.563777 115.8165 
L 142.202625 116.01272 
L 142.465385 116.015118 
L 142.728146 116.089232 
L 143.078493 116.053729 
L 144.742644 116.105708 
L 145.443339 116.116594 
L 146.669556 116.16635 
L 154.202028 116.187946 
L 155.866179 116.18814 
L 157.53033 116.19322 
L 190.375413 116.241391 
L 192.565085 116.244222 
L 272.882261 116.25777 
L 340.937273 116.260828 
L 340.937273 116.260828 
" clip-path="url(#p242b8e07e7)" style="fill: none; stroke: #1f77b4; stroke-width: 1.5; stroke-linecap: square"/>
   </g>
   <g id="patch_3">
    <path d="M 54.02 120.52 
L 54.02 26.88 
" style="fill: none; stroke: #000000; stroke-width: 0.8; stroke-linejoin: miter; stroke-linecap: square"/>
   </g>
   <g id="patch_4">
    <path d="M 354.6 120.52 
L 354.6 26.88 
" style="fill: none; stroke: #000000; stroke-width: 0.8; stroke-linejoin: miter; stroke-linecap: square"/>
   </g>
   <g id="patch_5">
    <path d="M 54.02 120.52 
L 354.6 120.52 
" style="fill: none; stroke: #000000; stroke-width: 0.8; stroke-linejoin: miter; stroke-linecap: square"/>
   </g>
   <g id="patch_6">
    <path d="M 54.02 26.88 
L 354.6 26.88 
" style="fill: none; stroke: #000000; stroke-width: 0.8; stroke-linejoin: miter; stroke-linecap: square"/>
   </g>
   <g id="text_6">
    <!-- 1 -->
    <g transform="translate(198.8128 50.3762) scale(0.1728 -0.1728)">
     <defs>
      <path id="DejaVuSans-31" d="M 794 531 
L 1825 531 
L 1825 4091 
L 703 3866 
L 703 4441 
L 1819 4666 
L 2450 4666 
L 2450 531 
L 3481 531 
L 3481 0 
L 794 0 
L 794 531 
z
" transform="scale(0.015625)"/>
     </defs>
     <use xlink:href="#DejaVuSans-31"/>
    </g>
   </g>
   <g id="text_7">
    <!-- flows -->
    <g transform="translate(188.827188 20.88) scale(0.12 -0.12)">
     <use xlink:href="#DejaVuSans-66"/>
     <use xlink:href="#DejaVuSans-6c" x="35.205078"/>
     <use xlink:href="#DejaVuSans-6f" x="62.988281"/>
     <use xlink:href="#DejaVuSans-77" x="124.169922"/>
     <use xlink:href="#DejaVuSans-73" x="205.957031"/>
    </g>
   </g>
  </g>
  <g id="axes_2">
   <g id="patch_7">
    <path d="M 408.62 120.52 
L 709.2 120.52 
L 709.2 26.88 
L 408.62 26.88 
z
" style="fill: #ffffff"/>
   </g>
   <g id="matplotlib.axis_3">
    <g id="xtick_8">
     <g id="line2d_12">
      <g>
       <use xlink:href="#m1e3d0b1b68" x="422.282727" y="120.52" style="stroke: #000000; stroke-width: 0.8"/>
      </g>
     </g>
    </g>
    <g id="xtick_9">
     <g id="line2d_13">
      <g>
       <use xlink:href="#m1e3d0b1b68" x="464.324433" y="120.52" style="stroke: #000000; stroke-width: 0.8"/>
      </g>
     </g>
    </g>
    <g id="xtick_10">
     <g id="line2d_14">
      <g>
       <use xlink:href="#m1e3d0b1b68" x="506.366139" y="120.52" style="stroke: #000000; stroke-width: 0.8"/>
      </g>
     </g>
    </g>
    <g id="xtick_11">
     <g id="line2d_15">
      <g>
       <use xlink:href="#m1e3d0b1b68" x="548.407846" y="120.52" style="stroke: #000000; stroke-width: 0.8"/>
      </g>
     </g>
    </g>
    <g id="xtick_12">
     <g id="line2d_16">
      <g>
       <use xlink:href="#m1e3d0b1b68" x="590.449552" y="120.52" style="stroke: #000000; stroke-width: 0.8"/>
      </g>
     </g>
    </g>
    <g id="xtick_13">
     <g id="line2d_17">
      <g>
       <use xlink:href="#m1e3d0b1b68" x="632.491258" y="120.52" style="stroke: #000000; stroke-width: 0.8"/>
      </g>
     </g>
    </g>
    <g id="xtick_14">
     <g id="line2d_18">
      <g>
       <use xlink:href="#m1e3d0b1b68" x="674.532964" y="120.52" style="stroke: #000000; stroke-width: 0.8"/>
      </g>
     </g>
    </g>
    <g id="text_8">
     <!-- time -->
     <g transform="translate(547.613906 139.118437) scale(0.1 -0.1)">
      <use xlink:href="#DejaVuSans-74"/>
      <use xlink:href="#DejaVuSans-69" x="39.208984"/>
      <use xlink:href="#DejaVuSans-6d" x="66.992188"/>
      <use xlink:href="#DejaVuSans-65" x="164.404297"/>
     </g>
    </g>
   </g>
   <g id="matplotlib.axis_4">
    <g id="ytick_4">
     <g id="line2d_19">
      <g>
       <use xlink:href="#md4e77a18ea" x="408.62" y="116.263636" style="stroke: #000000; stroke-width: 0.8"/>
      </g>
     </g>
     <g id="text_9">
      <!-- 0.00 -->
      <g transform="translate(379.354375 120.062855) scale(0.1 -0.1)">
       <use xlink:href="#DejaVuSans-30"/>
       <use xlink:href="#DejaVuSans-2e" x="63.623047"/>
       <use xlink:href="#DejaVuSans-30" x="95.410156"/>
       <use xlink:href="#DejaVuSans-30" x="159.033203"/>
      </g>
     </g>
    </g>
    <g id="ytick_5">
     <g id="line2d_20">
      <g>
       <use xlink:href="#md4e77a18ea" x="408.62" y="92.394088" style="stroke: #000000; stroke-width: 0.8"/>
      </g>
     </g>
     <g id="text_10">
      <!-- 0.05 -->
      <g transform="translate(379.354375 96.193307) scale(0.1 -0.1)">
       <defs>
        <path id="DejaVuSans-35" d="M 691 4666 
L 3169 4666 
L 3169 4134 
L 1269 4134 
L 1269 2991 
Q 1406 3038 1543 3061 
Q 1681 3084 1819 3084 
Q 2600 3084 3056 2656 
Q 3513 2228 3513 1497 
Q 3513 744 3044 326 
Q 2575 -91 1722 -91 
Q 1428 -91 1123 -41 
Q 819 9 494 109 
L 494 744 
Q 775 591 1075 516 
Q 1375 441 1709 441 
Q 2250 441 2565 725 
Q 2881 1009 2881 1497 
Q 2881 1984 2565 2268 
Q 2250 2553 1709 2553 
Q 1456 2553 1204 2497 
Q 953 2441 691 2322 
L 691 4666 
z
" transform="scale(0.015625)"/>
       </defs>
       <use xlink:href="#DejaVuSans-30"/>
       <use xlink:href="#DejaVuSans-2e" x="63.623047"/>
       <use xlink:href="#DejaVuSans-30" x="95.410156"/>
       <use xlink:href="#DejaVuSans-35" x="159.033203"/>
      </g>
     </g>
    </g>
    <g id="ytick_6">
     <g id="line2d_21">
      <g>
       <use xlink:href="#md4e77a18ea" x="408.62" y="68.52454" style="stroke: #000000; stroke-width: 0.8"/>
      </g>
     </g>
     <g id="text_11">
      <!-- 0.10 -->
      <g transform="translate(379.354375 72.323758) scale(0.1 -0.1)">
       <use xlink:href="#DejaVuSans-30"/>
       <use xlink:href="#DejaVuSans-2e" x="63.623047"/>
       <use xlink:href="#DejaVuSans-31" x="95.410156"/>
       <use xlink:href="#DejaVuSans-30" x="159.033203"/>
      </g>
     </g>
    </g>
    <g id="ytick_7">
     <g id="line2d_22">
      <g>
       <use xlink:href="#md4e77a18ea" x="408.62" y="44.654991" style="stroke: #000000; stroke-width: 0.8"/>
      </g>
     </g>
     <g id="text_12">
      <!-- 0.15 -->
      <g transform="translate(379.354375 48.45421) scale(0.1 -0.1)">
       <use xlink:href="#DejaVuSans-30"/>
       <use xlink:href="#DejaVuSans-2e" x="63.623047"/>
       <use xlink:href="#DejaVuSans-31" x="95.410156"/>
       <use xlink:href="#DejaVuSans-35" x="159.033203"/>
      </g>
     </g>
    </g>
    <g id="text_13">
     <!-- depth (m) -->
     <g transform="translate(373.274687 98.614844) rotate(-90) scale(0.1 -0.1)">
      <defs>
       <path id="DejaVuSans-64" d="M 2906 2969 
L 2906 4863 
L 3481 4863 
L 3481 0 
L 2906 0 
L 2906 525 
Q 2725 213 2448 61 
Q 2172 -91 1784 -91 
Q 1150 -91 751 415 
Q 353 922 353 1747 
Q 353 2572 751 3078 
Q 1150 3584 1784 3584 
Q 2172 3584 2448 3432 
Q 2725 3281 2906 2969 
z
M 947 1747 
Q 947 1113 1208 752 
Q 1469 391 1925 391 
Q 2381 391 2643 752 
Q 2906 1113 2906 1747 
Q 2906 2381 2643 2742 
Q 2381 3103 1925 3103 
Q 1469 3103 1208 2742 
Q 947 2381 947 1747 
z
" transform="scale(0.015625)"/>
       <path id="DejaVuSans-70" d="M 1159 525 
L 1159 -1331 
L 581 -1331 
L 581 3500 
L 1159 3500 
L 1159 2969 
Q 1341 3281 1617 3432 
Q 1894 3584 2278 3584 
Q 2916 3584 3314 3078 
Q 3713 2572 3713 1747 
Q 3713 922 3314 415 
Q 2916 -91 2278 -91 
Q 1894 -91 1617 61 
Q 1341 213 1159 525 
z
M 3116 1747 
Q 3116 2381 2855 2742 
Q 2594 3103 2138 3103 
Q 1681 3103 1420 2742 
Q 1159 2381 1159 1747 
Q 1159 1113 1420 752 
Q 1681 391 2138 391 
Q 2594 391 2855 752 
Q 3116 1113 3116 1747 
z
" transform="scale(0.015625)"/>
       <path id="DejaVuSans-68" d="M 3513 2113 
L 3513 0 
L 2938 0 
L 2938 2094 
Q 2938 2591 2744 2837 
Q 2550 3084 2163 3084 
Q 1697 3084 1428 2787 
Q 1159 2491 1159 1978 
L 1159 0 
L 581 0 
L 581 4863 
L 1159 4863 
L 1159 2956 
Q 1366 3272 1645 3428 
Q 1925 3584 2291 3584 
Q 2894 3584 3203 3211 
Q 3513 2838 3513 2113 
z
" transform="scale(0.015625)"/>
      </defs>
      <use xlink:href="#DejaVuSans-64"/>
      <use xlink:href="#DejaVuSans-65" x="63.476562"/>
      <use xlink:href="#DejaVuSans-70" x="125"/>
      <use xlink:href="#DejaVuSans-74" x="188.476562"/>
      <use xlink:href="#DejaVuSans-68" x="227.685547"/>
      <use xlink:href="#DejaVuSans-20" x="291.064453"/>
      <use xlink:href="#DejaVuSans-28" x="322.851562"/>
      <use xlink:href="#DejaVuSans-6d" x="361.865234"/>
      <use xlink:href="#DejaVuSans-29" x="459.277344"/>
     </g>
    </g>
   </g>
   <g id="line2d_23">
    <path d="M 422.282727 116.263636 
L 426.283502 116.170591 
L 426.633849 115.808349 
L 426.984197 115.066742 
L 427.422131 113.564343 
L 429.473611 103.890582 
L 430.391327 96.208506 
L 430.464316 96.001008 
L 431.403442 85.437034 
L 431.646739 86.964472 
L 431.962052 83.153955 
L 432.228705 84.64954 
L 432.539152 80.228257 
L 432.608248 80.663018 
L 432.805805 82.153935 
L 433.143501 78.325737 
L 433.669996 69.771072 
L 433.733253 69.338073 
L 433.923025 72.876827 
L 433.991148 72.689602 
L 434.545865 62.052111 
L 434.613988 62.058847 
L 434.808625 61.454574 
L 435.139509 57.455591 
L 435.207632 58.261106 
L 435.4665 64.452398 
L 435.53365 64.310577 
L 435.6008 64.343831 
L 435.666977 64.321254 
L 435.733154 63.855825 
L 436.271326 52.032122 
L 436.797821 47.960817 
L 436.927255 47.447442 
L 437.247434 49.643907 
L 437.572478 46.87544 
L 438.086321 43.727747 
L 438.149579 43.791237 
L 438.341297 42.823996 
L 438.403581 43.865771 
L 438.644931 55.17001 
L 438.771445 51.935101 
L 439.094544 45.627634 
L 439.411803 42.999958 
L 439.536371 42.334831 
L 439.777721 52.509716 
L 439.901316 50.42443 
L 440.221495 43.162648 
L 440.724633 37.68612 
L 440.972796 36.700563 
L 441.339688 40.092318 
L 441.580065 45.20442 
L 442.139648 36.48053 
L 442.383918 35.499352 
L 442.50654 34.829191 
L 442.813094 32.391183 
L 443.23935 31.24488 
L 443.299688 31.136364 
L 443.420363 31.994545 
L 443.602349 32.288772 
L 443.914742 42.063174 
L 443.97508 40.58449 
L 444.347811 35.167417 
L 444.471405 33.906778 
L 444.53369 34.358881 
L 444.778933 43.374835 
L 445.212974 36.35742 
L 445.399827 35.040608 
L 445.644097 35.795859 
L 445.705407 35.66791 
L 445.766718 35.736529 
L 446.010988 36.093362 
L 446.256232 35.35224 
L 446.440164 36.155547 
L 446.500502 36.39658 
L 446.561813 36.356015 
L 446.807056 35.794415 
L 446.868367 35.864863 
L 446.929677 35.800266 
L 447.053272 35.873444 
L 447.419191 39.668164 
L 447.542786 39.231221 
L 447.666381 38.975849 
L 448.099449 39.977954 
L 448.285328 40.350763 
L 448.655139 46.308102 
L 448.968506 47.90633 
L 449.156331 47.972817 
L 449.40644 49.150506 
L 449.469697 49.213408 
L 449.850214 46.453736 
L 450.041932 45.652136 
L 450.167473 45.820559 
L 450.293987 45.857516 
L 450.547016 46.776782 
L 450.610273 47.01537 
L 450.861356 50.215069 
L 451.0521 51.602447 
L 452.14791 56.64537 
L 452.406778 58.912194 
L 452.603361 59.17335 
L 452.669538 59.355558 
L 452.799945 60.737036 
L 452.996529 61.361913 
L 453.255397 66.079525 
L 453.387751 65.520328 
L 453.522051 64.997515 
L 453.852934 66.530515 
L 453.919111 66.494399 
L 454.120561 66.197038 
L 454.253888 66.622195 
L 454.454364 66.833708 
L 454.716152 72.58618 
L 454.988644 70.445825 
L 455.056767 70.892152 
L 455.123917 70.764996 
L 455.395437 70.518608 
L 455.599806 70.674887 
L 455.86354 77.361829 
L 455.93069 76.929645 
L 456.168148 74.532935 
L 456.502924 79.394814 
L 456.562289 78.836913 
L 457.038178 75.733709 
L 457.097542 75.923223 
L 457.367115 79.605985 
L 457.606519 78.32535 
L 457.725248 78.611318 
L 457.852736 78.547469 
L 457.9121 78.619728 
L 458.183619 82.878387 
L 458.252716 82.464444 
L 458.551484 81.916131 
L 458.807433 84.507196 
L 459.111067 82.263108 
L 459.357284 85.435335 
L 459.477959 84.820234 
L 459.841931 83.226519 
L 460.26916 82.035495 
L 460.757701 87.839603 
L 460.818038 88.253226 
L 461.001971 87.490071 
L 461.186876 87.150741 
L 461.67347 89.110423 
L 461.734781 89.037742 
L 462.109458 86.82158 
L 462.416986 86.26242 
L 462.601891 86.244756 
L 462.907472 89.307326 
L 462.969756 89.107273 
L 463.221812 87.884368 
L 463.466082 89.102754 
L 463.651961 88.504138 
L 463.776529 88.190087 
L 464.085029 91.142392 
L 464.148286 90.788481 
L 464.339031 89.863771 
L 464.402288 90.035524 
L 464.782805 89.047103 
L 464.909319 88.849438 
L 464.972576 89.037449 
L 465.222686 91.799263 
L 465.542864 90.506932 
L 465.851365 93.046983 
L 466.112179 91.644851 
L 466.305843 91.83038 
L 466.434304 91.822651 
L 466.755456 94.261021 
L 466.948147 95.309036 
L 467.211881 94.747091 
L 467.278058 94.736783 
L 467.476588 94.509196 
L 467.608942 94.463286 
L 467.813311 93.716275 
L 467.882407 93.856247 
L 468.085804 93.438228 
L 468.153927 93.503342 
L 468.35343 95.082256 
L 468.48773 95.6204 
L 468.832239 94.386827 
L 469.021037 93.971395 
L 469.271146 94.279243 
L 469.509577 96.065301 
L 469.812238 97.581534 
L 469.93486 97.964013 
L 470.188862 97.631709 
L 470.31635 98.071503 
L 470.569378 98.735191 
L 470.76207 98.981476 
L 470.89345 98.532651 
L 471.02775 97.965334 
L 471.0949 97.982903 
L 471.355714 99.197043 
L 471.421891 99.038582 
L 471.896806 98.344343 
L 471.96493 98.273493 
L 472.231583 99.630723 
L 472.789219 98.736869 
L 472.859289 98.822659 
L 473.130808 100.085744 
L 473.417899 99.304161 
L 473.834423 101.175886 
L 474.117621 101.753421 
L 474.545823 102.624601 
L 475.035337 101.638866 
L 475.216349 101.417728 
L 475.396389 101.246376 
L 475.530689 101.342745 
L 475.711702 101.010338 
L 476.063996 102.464871 
L 476.124334 102.327147 
L 476.431861 101.937147 
L 476.556429 101.739635 
L 476.618713 101.824689 
L 476.916508 103.096485 
L 476.975873 103.039411 
L 477.165644 102.603915 
L 477.228901 102.705895 
L 477.290212 102.655729 
L 477.479011 102.594785 
L 477.604552 102.653453 
L 478.047352 102.480649 
L 478.172894 102.966192 
L 478.417164 103.866725 
L 478.675058 103.622057 
L 479.17917 105.204841 
L 479.306657 105.363481 
L 479.571364 105.281638 
L 479.896409 105.834361 
L 480.166955 105.582033 
L 480.429716 106.153564 
L 480.701235 105.936007 
L 480.837481 106.173501 
L 481.036985 106.487532 
L 481.317263 106.054972 
L 481.726975 106.686448 
L 481.930371 106.971642 
L 482.216488 106.708619 
L 482.426697 106.610938 
L 483.336627 108.27163 
L 483.628583 108.332592 
L 483.992556 108.660076 
L 484.220282 108.451807 
L 484.814899 109.125477 
L 485.202228 108.941046 
L 485.691741 108.881427 
L 485.997322 109.348779 
L 486.056687 109.309166 
L 486.298037 109.222712 
L 486.589993 109.682569 
L 486.911145 109.723505 
L 487.509656 110.522067 
L 488.0634 110.953503 
L 488.647312 110.906076 
L 488.964571 111.178319 
L 489.432675 111.101356 
L 489.633151 111.138659 
L 489.903697 111.216168 
L 490.788325 111.686955 
L 491.058871 111.901957 
L 491.55909 112.093391 
L 492.119646 112.633435 
L 492.5605 112.862364 
L 493.077262 113.168578 
L 493.389655 113.287026 
L 493.776011 113.445981 
L 494.169179 113.663768 
L 494.656746 113.858433 
L 495.328245 114.096839 
L 496.189516 114.447648 
L 499.255057 115.133507 
L 500.393687 115.202319 
L 516.772435 115.667019 
L 519.662802 115.699104 
L 528.947012 115.798217 
L 537.530527 115.866454 
L 542.610567 115.90027 
L 596.739263 116.085715 
L 626.693979 116.136897 
L 677.581961 116.177593 
L 695.537273 116.187134 
L 695.537273 116.187134 
" clip-path="url(#p9daff1c165)" style="fill: none; stroke: #1f77b4; stroke-width: 1.5; stroke-linecap: square"/>
   </g>
   <g id="patch_8">
    <path d="M 408.62 120.52 
L 408.62 26.88 
" style="fill: none; stroke: #000000; stroke-width: 0.8; stroke-linejoin: miter; stroke-linecap: square"/>
   </g>
   <g id="patch_9">
    <path d="M 709.2 120.52 
L 709.2 26.88 
" style="fill: none; stroke: #000000; stroke-width: 0.8; stroke-linejoin: miter; stroke-linecap: square"/>
   </g>
   <g id="patch_10">
    <path d="M 408.62 120.52 
L 709.2 120.52 
" style="fill: none; stroke: #000000; stroke-width: 0.8; stroke-linejoin: miter; stroke-linecap: square"/>
   </g>
   <g id="patch_11">
    <path d="M 408.62 26.88 
L 709.2 26.88 
" style="fill: none; stroke: #000000; stroke-width: 0.8; stroke-linejoin: miter; stroke-linecap: square"/>
   </g>
   <g id="text_14">
    <!-- ('P1', 'depthN') -->
    <g transform="translate(494.8579 50.3762) scale(0.1728 -0.1728)">
     <defs>
      <path id="DejaVuSans-27" d="M 1147 4666 
L 1147 2931 
L 616 2931 
L 616 4666 
L 1147 4666 
z
" transform="scale(0.015625)"/>
      <path id="DejaVuSans-50" d="M 1259 4147 
L 1259 2394 
L 2053 2394 
Q 2494 2394 2734 2622 
Q 2975 2850 2975 3272 
Q 2975 3691 2734 3919 
Q 2494 4147 2053 4147 
L 1259 4147 
z
M 628 4666 
L 2053 4666 
Q 2838 4666 3239 4311 
Q 3641 3956 3641 3272 
Q 3641 2581 3239 2228 
Q 2838 1875 2053 1875 
L 1259 1875 
L 1259 0 
L 628 0 
L 628 4666 
z
" transform="scale(0.015625)"/>
      <path id="DejaVuSans-2c" d="M 750 794 
L 1409 794 
L 1409 256 
L 897 -744 
L 494 -744 
L 750 256 
L 750 794 
z
" transform="scale(0.015625)"/>
      <path id="DejaVuSans-4e" d="M 628 4666 
L 1478 4666 
L 3547 763 
L 3547 4666 
L 4159 4666 
L 4159 0 
L 3309 0 
L 1241 3903 
L 1241 0 
L 628 0 
L 628 4666 
z
" transform="scale(0.015625)"/>
     </defs>
     <use xlink:href="#DejaVuSans-28"/>
     <use xlink:href="#DejaVuSans-27" x="39.013672"/>
     <use xlink:href="#DejaVuSans-50" x="66.503906"/>
     <use xlink:href="#DejaVuSans-31" x="126.806641"/>
     <use xlink:href="#DejaVuSans-27" x="190.429688"/>
     <use xlink:href="#DejaVuSans-2c" x="217.919922"/>
     <use xlink:href="#DejaVuSans-20" x="249.707031"/>
     <use xlink:href="#DejaVuSans-27" x="281.494141"/>
     <use xlink:href="#DejaVuSans-64" x="308.984375"/>
     <use xlink:href="#DejaVuSans-65" x="372.460938"/>
     <use xlink:href="#DejaVuSans-70" x="433.984375"/>
     <use xlink:href="#DejaVuSans-74" x="497.460938"/>
     <use xlink:href="#DejaVuSans-68" x="536.669922"/>
     <use xlink:href="#DejaVuSans-4e" x="600.048828"/>
     <use xlink:href="#DejaVuSans-27" x="674.853516"/>
     <use xlink:href="#DejaVuSans-29" x="702.34375"/>
    </g>
   </g>
   <g id="text_15">
    <!-- depths -->
    <g transform="translate(538.319687 20.88) scale(0.12 -0.12)">
     <use xlink:href="#DejaVuSans-64"/>
     <use xlink:href="#DejaVuSans-65" x="63.476562"/>
     <use xlink:href="#DejaVuSans-70" x="125"/>
     <use xlink:href="#DejaVuSans-74" x="188.476562"/>
     <use xlink:href="#DejaVuSans-68" x="227.685547"/>
     <use xlink:href="#DejaVuSans-73" x="291.064453"/>
    </g>
   </g>
  </g>
  <g id="axes_3">
   <g id="patch_12">
    <path d="M 54.02 246.04 
L 354.6 246.04 
L 354.6 152.4 
L 54.02 152.4 
z
" style="fill: #ffffff"/>
   </g>
   <g id="matplotlib.axis_5">
    <g id="xtick_15">
     <g id="line2d_24">
      <g>
       <use xlink:href="#m1e3d0b1b68" x="67.682727" y="246.04" style="stroke: #000000; stroke-width: 0.8"/>
      </g>
     </g>
     <g id="text_16">
      <!-- 02-25 00 -->
      <g transform="translate(45.202259 260.638437) scale(0.1 -0.1)">
       <defs>
        <path id="DejaVuSans-2d" d="M 313 2009 
L 1997 2009 
L 1997 1497 
L 313 1497 
L 313 2009 
z
" transform="scale(0.015625)"/>
       </defs>
       <use xlink:href="#DejaVuSans-30"/>
       <use xlink:href="#DejaVuSans-32" x="63.623047"/>
       <use xlink:href="#DejaVuSans-2d" x="127.246094"/>
       <use xlink:href="#DejaVuSans-32" x="163.330078"/>
       <use xlink:href="#DejaVuSans-35" x="226.953125"/>
       <use xlink:href="#DejaVuSans-20" x="290.576172"/>
       <use xlink:href="#DejaVuSans-30" x="322.363281"/>
       <use xlink:href="#DejaVuSans-30" x="385.986328"/>
      </g>
     </g>
    </g>
    <g id="xtick_16">
     <g id="line2d_25">
      <g>
       <use xlink:href="#m1e3d0b1b68" x="109.724433" y="246.04" style="stroke: #000000; stroke-width: 0.8"/>
      </g>
     </g>
     <g id="text_17">
      <!-- 02-25 12 -->
      <g transform="translate(87.243965 260.638437) scale(0.1 -0.1)">
       <use xlink:href="#DejaVuSans-30"/>
       <use xlink:href="#DejaVuSans-32" x="63.623047"/>
       <use xlink:href="#DejaVuSans-2d" x="127.246094"/>
       <use xlink:href="#DejaVuSans-32" x="163.330078"/>
       <use xlink:href="#DejaVuSans-35" x="226.953125"/>
       <use xlink:href="#DejaVuSans-20" x="290.576172"/>
       <use xlink:href="#DejaVuSans-31" x="322.363281"/>
       <use xlink:href="#DejaVuSans-32" x="385.986328"/>
      </g>
     </g>
    </g>
    <g id="xtick_17">
     <g id="line2d_26">
      <g>
       <use xlink:href="#m1e3d0b1b68" x="151.766139" y="246.04" style="stroke: #000000; stroke-width: 0.8"/>
      </g>
     </g>
     <g id="text_18">
      <!-- 02-26 00 -->
      <g transform="translate(129.285671 260.638437) scale(0.1 -0.1)">
       <defs>
        <path id="DejaVuSans-36" d="M 2113 2584 
Q 1688 2584 1439 2293 
Q 1191 2003 1191 1497 
Q 1191 994 1439 701 
Q 1688 409 2113 409 
Q 2538 409 2786 701 
Q 3034 994 3034 1497 
Q 3034 2003 2786 2293 
Q 2538 2584 2113 2584 
z
M 3366 4563 
L 3366 3988 
Q 3128 4100 2886 4159 
Q 2644 4219 2406 4219 
Q 1781 4219 1451 3797 
Q 1122 3375 1075 2522 
Q 1259 2794 1537 2939 
Q 1816 3084 2150 3084 
Q 2853 3084 3261 2657 
Q 3669 2231 3669 1497 
Q 3669 778 3244 343 
Q 2819 -91 2113 -91 
Q 1303 -91 875 529 
Q 447 1150 447 2328 
Q 447 3434 972 4092 
Q 1497 4750 2381 4750 
Q 2619 4750 2861 4703 
Q 3103 4656 3366 4563 
z
" transform="scale(0.015625)"/>
       </defs>
       <use xlink:href="#DejaVuSans-30"/>
       <use xlink:href="#DejaVuSans-32" x="63.623047"/>
       <use xlink:href="#DejaVuSans-2d" x="127.246094"/>
       <use xlink:href="#DejaVuSans-32" x="163.330078"/>
       <use xlink:href="#DejaVuSans-36" x="226.953125"/>
       <use xlink:href="#DejaVuSans-20" x="290.576172"/>
       <use xlink:href="#DejaVuSans-30" x="322.363281"/>
       <use xlink:href="#DejaVuSans-30" x="385.986328"/>
      </g>
     </g>
    </g>
    <g id="xtick_18">
     <g id="line2d_27">
      <g>
       <use xlink:href="#m1e3d0b1b68" x="193.807846" y="246.04" style="stroke: #000000; stroke-width: 0.8"/>
      </g>
     </g>
     <g id="text_19">
      <!-- 02-26 12 -->
      <g transform="translate(171.327377 260.638437) scale(0.1 -0.1)">
       <use xlink:href="#DejaVuSans-30"/>
       <use xlink:href="#DejaVuSans-32" x="63.623047"/>
       <use xlink:href="#DejaVuSans-2d" x="127.246094"/>
       <use xlink:href="#DejaVuSans-32" x="163.330078"/>
       <use xlink:href="#DejaVuSans-36" x="226.953125"/>
       <use xlink:href="#DejaVuSans-20" x="290.576172"/>
       <use xlink:href="#DejaVuSans-31" x="322.363281"/>
       <use xlink:href="#DejaVuSans-32" x="385.986328"/>
      </g>
     </g>
    </g>
    <g id="xtick_19">
     <g id="line2d_28">
      <g>
       <use xlink:href="#m1e3d0b1b68" x="235.849552" y="246.04" style="stroke: #000000; stroke-width: 0.8"/>
      </g>
     </g>
     <g id="text_20">
      <!-- 02-27 00 -->
      <g transform="translate(213.369083 260.638437) scale(0.1 -0.1)">
       <defs>
        <path id="DejaVuSans-37" d="M 525 4666 
L 3525 4666 
L 3525 4397 
L 1831 0 
L 1172 0 
L 2766 4134 
L 525 4134 
L 525 4666 
z
" transform="scale(0.015625)"/>
       </defs>
       <use xlink:href="#DejaVuSans-30"/>
       <use xlink:href="#DejaVuSans-32" x="63.623047"/>
       <use xlink:href="#DejaVuSans-2d" x="127.246094"/>
       <use xlink:href="#DejaVuSans-32" x="163.330078"/>
       <use xlink:href="#DejaVuSans-37" x="226.953125"/>
       <use xlink:href="#DejaVuSans-20" x="290.576172"/>
       <use xlink:href="#DejaVuSans-30" x="322.363281"/>
       <use xlink:href="#DejaVuSans-30" x="385.986328"/>
      </g>
     </g>
    </g>
    <g id="xtick_20">
     <g id="line2d_29">
      <g>
       <use xlink:href="#m1e3d0b1b68" x="277.891258" y="246.04" style="stroke: #000000; stroke-width: 0.8"/>
      </g>
     </g>
     <g id="text_21">
      <!-- 02-27 12 -->
      <g transform="translate(255.410789 260.638437) scale(0.1 -0.1)">
       <use xlink:href="#DejaVuSans-30"/>
       <use xlink:href="#DejaVuSans-32" x="63.623047"/>
       <use xlink:href="#DejaVuSans-2d" x="127.246094"/>
       <use xlink:href="#DejaVuSans-32" x="163.330078"/>
       <use xlink:href="#DejaVuSans-37" x="226.953125"/>
       <use xlink:href="#DejaVuSans-20" x="290.576172"/>
       <use xlink:href="#DejaVuSans-31" x="322.363281"/>
       <use xlink:href="#DejaVuSans-32" x="385.986328"/>
      </g>
     </g>
    </g>
    <g id="xtick_21">
     <g id="line2d_30">
      <g>
       <use xlink:href="#m1e3d0b1b68" x="319.932964" y="246.04" style="stroke: #000000; stroke-width: 0.8"/>
      </g>
     </g>
     <g id="text_22">
      <!-- 02-28 00 -->
      <g transform="translate(297.452495 260.638437) scale(0.1 -0.1)">
       <defs>
        <path id="DejaVuSans-38" d="M 2034 2216 
Q 1584 2216 1326 1975 
Q 1069 1734 1069 1313 
Q 1069 891 1326 650 
Q 1584 409 2034 409 
Q 2484 409 2743 651 
Q 3003 894 3003 1313 
Q 3003 1734 2745 1975 
Q 2488 2216 2034 2216 
z
M 1403 2484 
Q 997 2584 770 2862 
Q 544 3141 544 3541 
Q 544 4100 942 4425 
Q 1341 4750 2034 4750 
Q 2731 4750 3128 4425 
Q 3525 4100 3525 3541 
Q 3525 3141 3298 2862 
Q 3072 2584 2669 2484 
Q 3125 2378 3379 2068 
Q 3634 1759 3634 1313 
Q 3634 634 3220 271 
Q 2806 -91 2034 -91 
Q 1263 -91 848 271 
Q 434 634 434 1313 
Q 434 1759 690 2068 
Q 947 2378 1403 2484 
z
M 1172 3481 
Q 1172 3119 1398 2916 
Q 1625 2713 2034 2713 
Q 2441 2713 2670 2916 
Q 2900 3119 2900 3481 
Q 2900 3844 2670 4047 
Q 2441 4250 2034 4250 
Q 1625 4250 1398 4047 
Q 1172 3844 1172 3481 
z
" transform="scale(0.015625)"/>
       </defs>
       <use xlink:href="#DejaVuSans-30"/>
       <use xlink:href="#DejaVuSans-32" x="63.623047"/>
       <use xlink:href="#DejaVuSans-2d" x="127.246094"/>
       <use xlink:href="#DejaVuSans-32" x="163.330078"/>
       <use xlink:href="#DejaVuSans-38" x="226.953125"/>
       <use xlink:href="#DejaVuSans-20" x="290.576172"/>
       <use xlink:href="#DejaVuSans-30" x="322.363281"/>
       <use xlink:href="#DejaVuSans-30" x="385.986328"/>
      </g>
     </g>
    </g>
    <g id="text_23">
     <!-- time -->
     <g transform="translate(193.013906 274.316562) scale(0.1 -0.1)">
      <use xlink:href="#DejaVuSans-74"/>
      <use xlink:href="#DejaVuSans-69" x="39.208984"/>
      <use xlink:href="#DejaVuSans-6d" x="66.992188"/>
      <use xlink:href="#DejaVuSans-65" x="164.404297"/>
     </g>
    </g>
   </g>
   <g id="matplotlib.axis_6">
    <g id="ytick_8">
     <g id="line2d_31">
      <g>
       <use xlink:href="#md4e77a18ea" x="54.02" y="241.783636" style="stroke: #000000; stroke-width: 0.8"/>
      </g>
     </g>
     <g id="text_24">
      <!-- 0.0 -->
      <g transform="translate(31.116875 245.582855) scale(0.1 -0.1)">
       <use xlink:href="#DejaVuSans-30"/>
       <use xlink:href="#DejaVuSans-2e" x="63.623047"/>
       <use xlink:href="#DejaVuSans-30" x="95.410156"/>
      </g>
     </g>
    </g>
    <g id="ytick_9">
     <g id="line2d_32">
      <g>
       <use xlink:href="#md4e77a18ea" x="54.02" y="203.034157" style="stroke: #000000; stroke-width: 0.8"/>
      </g>
     </g>
     <g id="text_25">
      <!-- 0.1 -->
      <g transform="translate(31.116875 206.833376) scale(0.1 -0.1)">
       <use xlink:href="#DejaVuSans-30"/>
       <use xlink:href="#DejaVuSans-2e" x="63.623047"/>
       <use xlink:href="#DejaVuSans-31" x="95.410156"/>
      </g>
     </g>
    </g>
    <g id="ytick_10">
     <g id="line2d_33">
      <g>
       <use xlink:href="#md4e77a18ea" x="54.02" y="164.284678" style="stroke: #000000; stroke-width: 0.8"/>
      </g>
     </g>
     <g id="text_26">
      <!-- 0.2 -->
      <g transform="translate(31.116875 168.083896) scale(0.1 -0.1)">
       <use xlink:href="#DejaVuSans-30"/>
       <use xlink:href="#DejaVuSans-2e" x="63.623047"/>
       <use xlink:href="#DejaVuSans-32" x="95.410156"/>
      </g>
     </g>
    </g>
    <g id="text_27">
     <!-- flow (cms) -->
     <g transform="translate(25.037188 225.2325) rotate(-90) scale(0.1 -0.1)">
      <use xlink:href="#DejaVuSans-66"/>
      <use xlink:href="#DejaVuSans-6c" x="35.205078"/>
      <use xlink:href="#DejaVuSans-6f" x="62.988281"/>
      <use xlink:href="#DejaVuSans-77" x="124.169922"/>
      <use xlink:href="#DejaVuSans-20" x="205.957031"/>
      <use xlink:href="#DejaVuSans-28" x="237.744141"/>
      <use xlink:href="#DejaVuSans-63" x="276.757812"/>
      <use xlink:href="#DejaVuSans-6d" x="331.738281"/>
      <use xlink:href="#DejaVuSans-73" x="429.150391"/>
      <use xlink:href="#DejaVuSans-29" x="481.25"/>
     </g>
    </g>
   </g>
   <g id="line2d_34">
    <path d="M 67.682727 241.783636 
L 73.260066 241.698215 
L 74.019152 241.325642 
L 74.462926 240.792932 
L 74.813273 240.052437 
L 75.525646 238.032139 
L 76.059926 234.929134 
L 76.670115 229.826129 
L 77.362052 222.091818 
L 77.698774 218.373526 
L 77.81945 217.248162 
L 79.069996 200.421617 
L 79.323025 191.333478 
L 79.391148 191.899656 
L 79.452459 193.534978 
L 79.515716 193.510235 
L 79.702568 190.89537 
L 79.945865 183.020367 
L 80.013988 185.013032 
L 80.208625 177.515924 
L 80.343898 183.685459 
L 80.403263 183.246142 
L 80.539509 181.874575 
L 80.737066 185.60775 
L 80.8665 184.546172 
L 81.066977 181.219471 
L 81.133154 181.073561 
L 81.404673 171.845594 
L 81.471823 174.009326 
L 81.538 175.123479 
L 81.60515 174.433538 
L 81.671326 173.759932 
L 81.738476 173.969648 
L 81.869857 177.744305 
L 82.067414 176.252281 
L 82.262051 173.439215 
L 82.391485 174.454421 
L 82.455716 174.019779 
L 82.583203 173.162197 
L 82.711664 177.4081 
L 82.843044 176.864376 
L 83.165169 169.363888 
L 83.29363 172.776841 
L 83.486321 171.332608 
L 83.741297 167.148367 
L 83.803581 169.375809 
L 83.984593 164.845399 
L 84.044931 164.887615 
L 84.171445 170.04436 
L 84.301853 168.09887 
L 84.367056 168.535525 
L 84.494544 169.697 
L 84.558774 169.406777 
L 84.685289 168.416996 
L 84.874087 160.477453 
L 85.117384 166.149737 
L 85.177721 165.862928 
L 85.301316 169.112808 
L 85.36652 168.374735 
L 85.494981 166.902272 
L 85.558238 167.194328 
L 85.684752 168.698184 
L 85.748009 168.424071 
L 85.873551 166.613451 
L 85.936808 166.762443 
L 86.434107 163.7559 
L 86.495418 164.473386 
L 86.556728 164.235792 
L 86.739688 163.269391 
L 86.85939 165.197866 
L 86.919727 165.033698 
L 87.042349 165.590122 
L 87.229201 162.734719 
L 87.291485 163.510931 
L 87.539648 159.221798 
L 87.722607 164.47711 
L 87.845229 164.229354 
L 88.091445 161.971957 
L 88.213094 162.222012 
L 88.274405 162.487778 
L 88.335715 162.342381 
L 88.396053 162.04014 
L 88.579012 163.556523 
L 88.760998 162.699874 
L 89.002349 158.741647 
L 89.128863 160.498107 
L 89.255378 159.979453 
L 89.314742 160.451938 
L 89.437364 164.830044 
L 89.499648 164.702086 
L 89.561932 164.435434 
L 89.623243 163.667198 
L 89.810095 165.381152 
L 89.871405 165.177637 
L 89.993054 161.158177 
L 90.052418 161.279569 
L 90.178933 161.023423 
L 90.240244 162.570282 
L 90.302528 162.492405 
L 90.490353 160.432273 
L 90.675258 163.764745 
L 90.737542 163.566867 
L 90.982786 159.754329 
L 91.044097 159.55687 
L 91.227056 160.787434 
L 91.410988 160.553995 
L 91.594921 158.577161 
L 91.656232 158.749617 
L 91.840164 160.619232 
L 91.961813 160.502601 
L 92.207056 158.392834 
L 92.390988 162.252531 
L 92.453272 162.235907 
L 92.514583 162.083116 
L 92.75788 156.695041 
L 92.819191 157.089541 
L 92.880502 158.702183 
L 92.942786 157.630864 
L 93.066381 156.656364 
L 93.251286 158.04612 
L 93.31357 157.916952 
L 93.375854 157.779341 
L 93.437165 158.285585 
L 93.499449 158.127559 
L 93.685328 157.453266 
L 93.931544 162.844589 
L 93.992855 162.631187 
L 94.055139 162.0198 
L 94.18068 162.65806 
L 94.242964 162.619732 
L 94.43079 159.323402 
L 94.619588 158.374411 
L 94.80644 156.949185 
L 94.869697 157.400039 
L 94.996212 160.702217 
L 95.059469 160.684248 
L 95.123699 160.603142 
L 95.186956 159.788185 
L 95.250214 160.219421 
L 95.314444 160.350841 
L 95.377701 160.318 
L 95.441932 160.262312 
L 95.63073 158.184165 
L 95.693987 158.085902 
L 95.883759 159.134278 
L 95.947016 159.082834 
L 96.010273 159.018587 
L 96.072557 158.152583 
L 96.135814 158.780816 
L 96.261356 158.567642 
L 96.324613 158.695591 
L 96.4521 160.132438 
L 96.579588 159.970327 
L 96.836509 157.307417 
L 96.90074 157.514557 
L 97.094404 160.742978 
L 97.158635 160.771455 
L 97.223838 159.982887 
L 97.288069 160.507779 
L 97.417502 160.746528 
L 97.482706 160.644333 
L 97.61214 159.320279 
L 97.677344 159.437321 
L 97.806778 159.594931 
L 98.003361 162.133391 
L 98.069538 161.807238 
L 98.199945 159.006503 
L 98.331326 158.365811 
L 98.396529 158.666839 
L 98.461733 157.67951 
L 98.525963 158.074994 
L 98.655397 158.419665 
L 98.854901 161.525245 
L 98.922051 161.520647 
L 99.186758 157.633325 
L 99.319111 160.257029 
L 99.453411 162.030314 
L 99.520561 162.092291 
L 99.721038 158.154964 
L 99.788188 158.141362 
L 99.854364 158.305904 
L 100.050948 161.652967 
L 100.116152 161.590499 
L 100.456767 159.146433 
L 100.523917 159.550894 
L 100.727314 159.482815 
L 100.931683 162.183935 
L 100.999806 161.979641 
L 101.066956 159.705346 
L 101.13216 160.343167 
L 101.26354 161.445482 
L 101.33069 161.201254 
L 101.508783 157.717119 
L 101.568148 157.869536 
L 101.902924 161.465619 
L 102.081018 159.044939 
L 102.140382 159.078941 
L 102.199747 159.286914 
L 102.378813 160.820046 
L 102.438178 161.011663 
L 102.565665 158.852394 
L 102.826479 161.917868 
L 102.886817 161.427442 
L 102.946181 161.273276 
L 103.006519 161.348054 
L 103.252736 157.588504 
L 103.3121 157.729018 
L 103.652716 162.619025 
L 103.772418 159.719322 
L 103.831782 159.750049 
L 103.891147 159.941906 
L 104.138336 162.931518 
L 104.207433 163.150723 
L 104.26777 162.841836 
L 104.389419 161.280006 
L 104.45073 161.363952 
L 104.511067 161.569876 
L 104.570432 160.916192 
L 104.816648 163.760035 
L 104.999607 160.512105 
L 105.059945 160.673119 
L 105.303242 163.05608 
L 105.36358 163.263903 
L 105.423917 162.758553 
L 105.60785 164.331632 
L 105.66916 164.123048 
L 105.729498 162.924127 
L 105.788863 163.799749 
L 105.917323 165.329334 
L 105.976688 165.127805 
L 106.037025 164.912886 
L 106.218038 165.947765 
L 106.278376 165.584876 
L 106.34066 164.999629 
L 106.401971 165.281761 
L 106.524592 165.806511 
L 106.648187 161.74227 
L 106.708525 161.886139 
L 106.8292 163.017334 
L 107.07347 168.063394 
L 107.259349 166.211279 
L 107.322606 166.251829 
L 107.38489 166.47378 
L 107.570769 162.429565 
L 107.63208 162.58058 
L 107.755675 163.851019 
L 107.878296 162.195801 
L 107.94058 162.460967 
L 108.001891 163.264715 
L 108.245188 171.145246 
L 108.495297 167.101094 
L 108.621812 167.801174 
L 108.744433 160.43565 
L 108.805744 160.57255 
L 108.866082 161.18218 
L 108.927393 163.545103 
L 108.989677 162.461764 
L 109.051961 162.163455 
L 109.114245 162.435676 
L 109.176529 163.479407 
L 109.422745 172.996868 
L 109.611544 168.499202 
L 109.675774 168.521251 
L 109.802288 168.980124 
L 109.99206 171.0927 
L 110.055317 171.175237 
L 110.182805 168.538109 
L 110.246062 168.702405 
L 110.372576 169.254165 
L 110.559428 174.654361 
L 110.622686 174.293015 
L 110.814404 170.431607 
L 110.942864 171.62847 
L 111.067432 161.058525 
L 111.128743 161.346648 
L 111.190054 162.187122 
L 111.379826 176.931229 
L 111.446002 177.553879 
L 111.512179 176.698559 
L 111.641613 173.741569 
L 111.834304 174.851229 
L 112.090253 179.143228 
L 112.155456 175.288798 
L 112.219686 175.399709 
L 112.348147 177.107827 
L 112.544731 181.74916 
L 112.611881 182.388517 
L 112.678058 182.112084 
L 112.811385 178.531937 
L 112.942765 179.937356 
L 113.213311 191.0098 
L 113.282407 188.593559 
L 113.349557 185.733001 
L 113.41768 186.010502 
L 113.485804 186.719131 
L 113.621077 185.868301 
L 113.819607 189.879015 
L 113.955853 187.263401 
L 114.023976 187.944062 
L 114.551444 201.682649 
L 115.150928 208.435692 
L 115.653092 212.247545 
L 115.778634 212.811832 
L 116.42775 216.929838 
L 116.4949 216.869928 
L 116.690511 217.53889 
L 117.36493 220.093951 
L 117.433053 219.992747 
L 117.631583 220.553035 
L 117.908941 221.730262 
L 117.979011 221.777788 
L 118.189219 222.459278 
L 118.327412 222.30091 
L 118.530808 222.926159 
L 118.745883 223.592159 
L 118.817899 223.705153 
L 118.888941 223.523995 
L 118.957065 223.635847 
L 119.374562 224.644943 
L 119.446578 224.378563 
L 119.658733 225.019118 
L 120.25627 226.335681 
L 120.315634 226.072433 
L 120.496647 226.640687 
L 120.616349 226.64823 
L 120.796389 227.093913 
L 120.930689 226.972078 
L 121.173013 227.346765 
L 121.246002 227.335127 
L 121.463996 227.70626 
L 121.646955 228.227144 
L 121.709239 228.288706 
L 121.77055 228.135951 
L 121.956429 228.454529 
L 122.018713 228.483965 
L 122.138415 228.258056 
L 122.316508 228.568094 
L 122.565644 229.146809 
L 122.628901 229.005604 
L 122.816727 229.489747 
L 122.879011 229.554677 
L 122.941295 229.329658 
L 123.004552 229.372074 
L 123.510609 229.989923 
L 123.572894 229.827998 
L 123.633231 229.857901 
L 123.75488 230.059926 
L 124.009855 230.632862 
L 124.075058 230.709996 
L 124.139289 230.619267 
L 124.26483 230.687262 
L 124.327114 230.761939 
L 124.389398 230.181848 
L 124.57917 231.13783 
L 124.706657 231.321394 
L 124.905187 231.601763 
L 125.296409 231.735796 
L 125.498832 231.998529 
L 125.566955 232.050267 
L 125.633132 231.910592 
L 125.698335 231.951958 
L 125.829716 232.001024 
L 126.033112 232.519458 
L 126.436985 232.667942 
L 126.64622 233.045729 
L 126.717263 232.410266 
L 126.786359 232.755789 
L 127.126975 233.023771 
L 127.262248 233.164844 
L 127.544472 233.734613 
L 127.686558 232.455205 
L 127.826697 232.61694 
L 127.964889 233.947276 
L 128.172178 234.094364 
L 128.312317 234.10005 
L 128.382387 234.155329 
L 128.45343 233.759647 
L 128.594542 234.301215 
L 128.736627 234.413394 
L 128.955594 234.753316 
L 129.028583 234.790446 
L 129.174562 234.672575 
L 129.392556 234.941815 
L 129.620282 235.15548 
L 129.770152 235.107702 
L 130.214899 235.394678 
L 130.446518 235.650992 
L 130.524373 235.633451 
L 130.739447 235.870812 
L 130.817302 235.604887 
L 131.032377 235.944861 
L 131.169596 235.899034 
L 131.321414 235.964944 
L 131.637699 236.352494 
L 131.835257 236.155919 
L 131.912138 236.200884 
L 131.989993 236.085997 
L 132.250808 236.535727 
L 132.430847 236.6229 
L 132.490212 236.655045 
L 132.549576 236.512787 
L 132.608941 236.622313 
L 132.788007 236.877642 
L 133.401115 237.213056 
L 133.656091 237.326543 
L 134.364571 237.669909 
L 134.631225 237.788978 
L 135.169397 238.018085 
L 135.303697 237.539524 
L 135.436051 237.612497 
L 135.637501 238.227621 
L 136.053052 238.411016 
L 136.188325 238.224248 
L 136.321652 238.322347 
L 136.528941 238.556782 
L 137.169298 238.754609 
L 137.309437 238.447756 
L 137.379507 238.478227 
L 137.449576 238.511789 
L 137.664651 238.990777 
L 137.813548 238.960804 
L 137.887511 238.717567 
L 137.9605 238.74411 
L 138.032515 238.772143 
L 138.251483 239.155811 
L 138.943419 239.345475 
L 139.098156 239.203613 
L 139.254839 239.329705 
L 139.411522 239.543973 
L 140.394442 239.885445 
L 140.563777 239.661339 
L 140.645524 239.682434 
L 140.89466 239.975579 
L 142.377798 240.307845 
L 142.552972 240.335869 
L 142.90332 240.423484 
L 142.990907 240.437899 
L 143.16608 240.366145 
L 146.494382 240.878987 
L 146.669556 240.889353 
L 146.84473 240.908756 
L 147.019903 240.81289 
L 154.99031 241.314037 
L 155.428245 241.285278 
L 167.95317 241.528265 
L 172.244927 241.571516 
L 173.120796 241.589678 
L 173.821491 241.596911 
L 178.726357 241.614787 
L 183.105701 241.640396 
L 187.572632 241.660837 
L 213.761112 241.716604 
L 220.067368 241.723587 
L 225.322581 241.729176 
L 231.804011 241.738923 
L 235.132312 241.740427 
L 265.700136 241.75625 
L 273.495369 241.759284 
L 290.749986 241.762577 
L 321.31781 241.768721 
L 340.937273 241.7718 
L 340.937273 241.7718 
" clip-path="url(#p7ae61699a0)" style="fill: none; stroke: #1f77b4; stroke-width: 1.5; stroke-linecap: square"/>
   </g>
   <g id="patch_13">
    <path d="M 54.02 246.04 
L 54.02 152.4 
" style="fill: none; stroke: #000000; stroke-width: 0.8; stroke-linejoin: miter; stroke-linecap: square"/>
   </g>
   <g id="patch_14">
    <path d="M 354.6 246.04 
L 354.6 152.4 
" style="fill: none; stroke: #000000; stroke-width: 0.8; stroke-linejoin: miter; stroke-linecap: square"/>
   </g>
   <g id="patch_15">
    <path d="M 54.02 246.04 
L 354.6 246.04 
" style="fill: none; stroke: #000000; stroke-width: 0.8; stroke-linejoin: miter; stroke-linecap: square"/>
   </g>
   <g id="patch_16">
    <path d="M 54.02 152.4 
L 354.6 152.4 
" style="fill: none; stroke: #000000; stroke-width: 0.8; stroke-linejoin: miter; stroke-linecap: square"/>
   </g>
   <g id="text_28">
    <!-- 2 -->
    <g transform="translate(198.8128 175.8962) scale(0.1728 -0.1728)">
     <use xlink:href="#DejaVuSans-32"/>
    </g>
   </g>
  </g>
  <g id="axes_4">
   <g id="patch_17">
    <path d="M 408.62 246.04 
L 709.2 246.04 
L 709.2 152.4 
L 408.62 152.4 
z
" style="fill: #ffffff"/>
   </g>
   <g id="matplotlib.axis_7">
    <g id="xtick_22">
     <g id="line2d_35">
      <g>
       <use xlink:href="#m1e3d0b1b68" x="422.282727" y="246.04" style="stroke: #000000; stroke-width: 0.8"/>
      </g>
     </g>
     <g id="text_29">
      <!-- 02-25 00 -->
      <g transform="translate(399.802259 260.638437) scale(0.1 -0.1)">
       <use xlink:href="#DejaVuSans-30"/>
       <use xlink:href="#DejaVuSans-32" x="63.623047"/>
       <use xlink:href="#DejaVuSans-2d" x="127.246094"/>
       <use xlink:href="#DejaVuSans-32" x="163.330078"/>
       <use xlink:href="#DejaVuSans-35" x="226.953125"/>
       <use xlink:href="#DejaVuSans-20" x="290.576172"/>
       <use xlink:href="#DejaVuSans-30" x="322.363281"/>
       <use xlink:href="#DejaVuSans-30" x="385.986328"/>
      </g>
     </g>
    </g>
    <g id="xtick_23">
     <g id="line2d_36">
      <g>
       <use xlink:href="#m1e3d0b1b68" x="464.324433" y="246.04" style="stroke: #000000; stroke-width: 0.8"/>
      </g>
     </g>
     <g id="text_30">
      <!-- 02-25 12 -->
      <g transform="translate(441.843965 260.638437) scale(0.1 -0.1)">
       <use xlink:href="#DejaVuSans-30"/>
       <use xlink:href="#DejaVuSans-32" x="63.623047"/>
       <use xlink:href="#DejaVuSans-2d" x="127.246094"/>
       <use xlink:href="#DejaVuSans-32" x="163.330078"/>
       <use xlink:href="#DejaVuSans-35" x="226.953125"/>
       <use xlink:href="#DejaVuSans-20" x="290.576172"/>
       <use xlink:href="#DejaVuSans-31" x="322.363281"/>
       <use xlink:href="#DejaVuSans-32" x="385.986328"/>
      </g>
     </g>
    </g>
    <g id="xtick_24">
     <g id="line2d_37">
      <g>
       <use xlink:href="#m1e3d0b1b68" x="506.366139" y="246.04" style="stroke: #000000; stroke-width: 0.8"/>
      </g>
     </g>
     <g id="text_31">
      <!-- 02-26 00 -->
      <g transform="translate(483.885671 260.638437) scale(0.1 -0.1)">
       <use xlink:href="#DejaVuSans-30"/>
       <use xlink:href="#DejaVuSans-32" x="63.623047"/>
       <use xlink:href="#DejaVuSans-2d" x="127.246094"/>
       <use xlink:href="#DejaVuSans-32" x="163.330078"/>
       <use xlink:href="#DejaVuSans-36" x="226.953125"/>
       <use xlink:href="#DejaVuSans-20" x="290.576172"/>
       <use xlink:href="#DejaVuSans-30" x="322.363281"/>
       <use xlink:href="#DejaVuSans-30" x="385.986328"/>
      </g>
     </g>
    </g>
    <g id="xtick_25">
     <g id="line2d_38">
      <g>
       <use xlink:href="#m1e3d0b1b68" x="548.407846" y="246.04" style="stroke: #000000; stroke-width: 0.8"/>
      </g>
     </g>
     <g id="text_32">
      <!-- 02-26 12 -->
      <g transform="translate(525.927377 260.638437) scale(0.1 -0.1)">
       <use xlink:href="#DejaVuSans-30"/>
       <use xlink:href="#DejaVuSans-32" x="63.623047"/>
       <use xlink:href="#DejaVuSans-2d" x="127.246094"/>
       <use xlink:href="#DejaVuSans-32" x="163.330078"/>
       <use xlink:href="#DejaVuSans-36" x="226.953125"/>
       <use xlink:href="#DejaVuSans-20" x="290.576172"/>
       <use xlink:href="#DejaVuSans-31" x="322.363281"/>
       <use xlink:href="#DejaVuSans-32" x="385.986328"/>
      </g>
     </g>
    </g>
    <g id="xtick_26">
     <g id="line2d_39">
      <g>
       <use xlink:href="#m1e3d0b1b68" x="590.449552" y="246.04" style="stroke: #000000; stroke-width: 0.8"/>
      </g>
     </g>
     <g id="text_33">
      <!-- 02-27 00 -->
      <g transform="translate(567.969083 260.638437) scale(0.1 -0.1)">
       <use xlink:href="#DejaVuSans-30"/>
       <use xlink:href="#DejaVuSans-32" x="63.623047"/>
       <use xlink:href="#DejaVuSans-2d" x="127.246094"/>
       <use xlink:href="#DejaVuSans-32" x="163.330078"/>
       <use xlink:href="#DejaVuSans-37" x="226.953125"/>
       <use xlink:href="#DejaVuSans-20" x="290.576172"/>
       <use xlink:href="#DejaVuSans-30" x="322.363281"/>
       <use xlink:href="#DejaVuSans-30" x="385.986328"/>
      </g>
     </g>
    </g>
    <g id="xtick_27">
     <g id="line2d_40">
      <g>
       <use xlink:href="#m1e3d0b1b68" x="632.491258" y="246.04" style="stroke: #000000; stroke-width: 0.8"/>
      </g>
     </g>
     <g id="text_34">
      <!-- 02-27 12 -->
      <g transform="translate(610.010789 260.638437) scale(0.1 -0.1)">
       <use xlink:href="#DejaVuSans-30"/>
       <use xlink:href="#DejaVuSans-32" x="63.623047"/>
       <use xlink:href="#DejaVuSans-2d" x="127.246094"/>
       <use xlink:href="#DejaVuSans-32" x="163.330078"/>
       <use xlink:href="#DejaVuSans-37" x="226.953125"/>
       <use xlink:href="#DejaVuSans-20" x="290.576172"/>
       <use xlink:href="#DejaVuSans-31" x="322.363281"/>
       <use xlink:href="#DejaVuSans-32" x="385.986328"/>
      </g>
     </g>
    </g>
    <g id="xtick_28">
     <g id="line2d_41">
      <g>
       <use xlink:href="#m1e3d0b1b68" x="674.532964" y="246.04" style="stroke: #000000; stroke-width: 0.8"/>
      </g>
     </g>
     <g id="text_35">
      <!-- 02-28 00 -->
      <g transform="translate(652.052495 260.638437) scale(0.1 -0.1)">
       <use xlink:href="#DejaVuSans-30"/>
       <use xlink:href="#DejaVuSans-32" x="63.623047"/>
       <use xlink:href="#DejaVuSans-2d" x="127.246094"/>
       <use xlink:href="#DejaVuSans-32" x="163.330078"/>
       <use xlink:href="#DejaVuSans-38" x="226.953125"/>
       <use xlink:href="#DejaVuSans-20" x="290.576172"/>
       <use xlink:href="#DejaVuSans-30" x="322.363281"/>
       <use xlink:href="#DejaVuSans-30" x="385.986328"/>
      </g>
     </g>
    </g>
    <g id="text_36">
     <!-- time -->
     <g transform="translate(547.613906 274.316562) scale(0.1 -0.1)">
      <use xlink:href="#DejaVuSans-74"/>
      <use xlink:href="#DejaVuSans-69" x="39.208984"/>
      <use xlink:href="#DejaVuSans-6d" x="66.992188"/>
      <use xlink:href="#DejaVuSans-65" x="164.404297"/>
     </g>
    </g>
   </g>
   <g id="matplotlib.axis_8">
    <g id="ytick_11">
     <g id="line2d_42">
      <g>
       <use xlink:href="#md4e77a18ea" x="408.62" y="241.783636" style="stroke: #000000; stroke-width: 0.8"/>
      </g>
     </g>
     <g id="text_37">
      <!-- 0 -->
      <g transform="translate(395.2575 245.582855) scale(0.1 -0.1)">
       <use xlink:href="#DejaVuSans-30"/>
      </g>
     </g>
    </g>
    <g id="ytick_12">
     <g id="line2d_43">
      <g>
       <use xlink:href="#md4e77a18ea" x="408.62" y="196.566624" style="stroke: #000000; stroke-width: 0.8"/>
      </g>
     </g>
     <g id="text_38">
      <!-- 1 -->
      <g transform="translate(395.2575 200.365842) scale(0.1 -0.1)">
       <use xlink:href="#DejaVuSans-31"/>
      </g>
     </g>
    </g>
    <g id="text_39">
     <!-- depth (m) -->
     <g transform="translate(389.177812 224.134844) rotate(-90) scale(0.1 -0.1)">
      <use xlink:href="#DejaVuSans-64"/>
      <use xlink:href="#DejaVuSans-65" x="63.476562"/>
      <use xlink:href="#DejaVuSans-70" x="125"/>
      <use xlink:href="#DejaVuSans-74" x="188.476562"/>
      <use xlink:href="#DejaVuSans-68" x="227.685547"/>
      <use xlink:href="#DejaVuSans-20" x="291.064453"/>
      <use xlink:href="#DejaVuSans-28" x="322.851562"/>
      <use xlink:href="#DejaVuSans-6d" x="361.865234"/>
      <use xlink:href="#DejaVuSans-29" x="459.277344"/>
     </g>
    </g>
   </g>
   <g id="line2d_44">
    <path d="M 422.282727 241.783636 
L 426.89661 241.686354 
L 427.597305 241.399147 
L 428.338874 240.832463 
L 429.182628 239.868094 
L 429.847315 238.80232 
L 430.598616 237.058411 
L 436.071823 222.299288 
L 436.927255 219.271444 
L 439.222031 209.723058 
L 440.849201 201.667144 
L 442.261296 193.685645 
L 445.275258 175.466904 
L 446.561813 169.023233 
L 447.604097 164.497976 
L 449.03079 160.158925 
L 450.105189 157.890821 
L 450.735814 156.977841 
L 451.243818 156.656364 
L 451.953272 156.778356 
L 452.341574 157.070004 
L 452.996529 157.880945 
L 453.986261 159.830663 
L 454.520541 161.181815 
L 455.25919 163.323178 
L 456.562289 167.893644 
L 458.372418 175.658106 
L 461.859349 192.710544 
L 463.344433 200.787436 
L 464.464572 207.00195 
L 467.949557 224.587911 
L 469.021037 228.600154 
L 469.812238 230.242025 
L 470.633609 231.389609 
L 471.421891 232.166978 
L 472.579011 232.999649 
L 474.473807 233.972214 
L 476.556429 234.731792 
L 481.105108 236.091862 
L 491.343042 238.520108 
L 498.028841 239.699412 
L 501.181969 240.036277 
L 510.72894 240.586909 
L 522.377996 240.900325 
L 543.574023 241.168867 
L 588.068162 241.400552 
L 675.830223 241.562109 
L 695.537273 241.581428 
L 695.537273 241.581428 
" clip-path="url(#pe6415311dc)" style="fill: none; stroke: #1f77b4; stroke-width: 1.5; stroke-linecap: square"/>
   </g>
   <g id="patch_18">
    <path d="M 408.62 246.04 
L 408.62 152.4 
" style="fill: none; stroke: #000000; stroke-width: 0.8; stroke-linejoin: miter; stroke-linecap: square"/>
   </g>
   <g id="patch_19">
    <path d="M 709.2 246.04 
L 709.2 152.4 
" style="fill: none; stroke: #000000; stroke-width: 0.8; stroke-linejoin: miter; stroke-linecap: square"/>
   </g>
   <g id="patch_20">
    <path d="M 408.62 246.04 
L 709.2 246.04 
" style="fill: none; stroke: #000000; stroke-width: 0.8; stroke-linejoin: miter; stroke-linecap: square"/>
   </g>
   <g id="patch_21">
    <path d="M 408.62 152.4 
L 709.2 152.4 
" style="fill: none; stroke: #000000; stroke-width: 0.8; stroke-linejoin: miter; stroke-linecap: square"/>
   </g>
   <g id="text_40">
    <!-- ('P2', 'depthN') -->
    <g transform="translate(494.8579 175.8962) scale(0.1728 -0.1728)">
     <use xlink:href="#DejaVuSans-28"/>
     <use xlink:href="#DejaVuSans-27" x="39.013672"/>
     <use xlink:href="#DejaVuSans-50" x="66.503906"/>
     <use xlink:href="#DejaVuSans-32" x="126.806641"/>
     <use xlink:href="#DejaVuSans-27" x="190.429688"/>
     <use xlink:href="#DejaVuSans-2c" x="217.919922"/>
     <use xlink:href="#DejaVuSans-20" x="249.707031"/>
     <use xlink:href="#DejaVuSans-27" x="281.494141"/>
     <use xlink:href="#DejaVuSans-64" x="308.984375"/>
     <use xlink:href="#DejaVuSans-65" x="372.460938"/>
     <use xlink:href="#DejaVuSans-70" x="433.984375"/>
     <use xlink:href="#DejaVuSans-74" x="497.460938"/>
     <use xlink:href="#DejaVuSans-68" x="536.669922"/>
     <use xlink:href="#DejaVuSans-4e" x="600.048828"/>
     <use xlink:href="#DejaVuSans-27" x="674.853516"/>
     <use xlink:href="#DejaVuSans-29" x="702.34375"/>
    </g>
   </g>
  </g>
 </g>
 <defs>
  <clipPath id="p242b8e07e7">
   <rect x="54.02" y="26.88" width="300.58" height="93.64"/>
  </clipPath>
  <clipPath id="p9daff1c165">
   <rect x="408.62" y="26.88" width="300.58" height="93.64"/>
  </clipPath>
  <clipPath id="p7ae61699a0">
   <rect x="54.02" y="152.4" width="300.58" height="93.64"/>
  </clipPath>
  <clipPath id="pe6415311dc">
   <rect x="408.62" y="152.4" width="300.58" height="93.64"/>
  </clipPath>
 </defs>
</svg>
